<?xml version="1.0" encoding="UTF-8" standalone="no"?>
<svg
   xmlns:dc="http://purl.org/dc/elements/1.1/"
   xmlns:cc="http://creativecommons.org/ns#"
   xmlns:rdf="http://www.w3.org/1999/02/22-rdf-syntax-ns#"
   xmlns:svg="http://www.w3.org/2000/svg"
   xmlns="http://www.w3.org/2000/svg"
   xml:space="preserve"
   viewBox="0 0 519.5238 475.23465"
   height="475.23465"
   width="519.5238"
   y="0px"
   x="0px"
   id="Layer_1"
   version="1.1"><metadata
   id="metadata17"><rdf:RDF><cc:Work
       rdf:about=""><dc:format>image/svg+xml</dc:format><dc:type
         rdf:resource="http://purl.org/dc/dcmitype/StillImage" /></cc:Work></rdf:RDF></metadata><defs
   id="defs15" />
<g
   transform="translate(-23.347943,-201.02135)"
   id="g10">
	<path
   id="path2"
   d="M 44.56,676.256 C 26.992,675.752 18.64,657.392 26.056,642.704 L 264.664,212.216 c 9.216,-16.056 28.152,-13.752 36.864,0 l 238.608,430.488 c 7.056,13.752 0,30.744 -15.84,33.552 z"
   style="clip-rule:evenodd;fill:#ffd200;fill-rule:evenodd" />
	<path
   id="path4"
   d="M 44.128,669.776 C 31.816,669.344 25.624,656.024 31.384,645.944 L 269.488,215.456 c 5.76,-10.152 20.232,-11.016 26.856,0 L 534.88,645.944 c 5.688,10.08 -1.368,24.336 -13.68,23.832 z"
   style="clip-rule:evenodd;fill:#ef3e42;fill-rule:evenodd" />
	<polygon
   id="polygon6"
   points="478.936,628.448 86.824,628.448 283.168,274.64 "
   style="clip-rule:evenodd;fill:#ffd200;fill-rule:evenodd" />
	<path
   id="path8"
   d="m 187.192,605.984 0.432,-66.096 c 2.664,-48.672 34.776,-89.064 77.04,-102.816 6.192,-2.304 50.976,-14.256 50.976,-14.256 l 29.952,17.928 -17.64,31.176 c -29.808,8.28 -46.584,12.888 -50.544,14.256 -22.464,8.712 -40.896,30.744 -40.896,60.624 v 59.184 z"
   style="clip-rule:evenodd;fill-rule:evenodd" />
</g>
</svg>