<?xml version="1.0" encoding="UTF-8" standalone="no"?>
<svg
   xmlns:dc="http://purl.org/dc/elements/1.1/"
   xmlns:cc="http://creativecommons.org/ns#"
   xmlns:rdf="http://www.w3.org/1999/02/22-rdf-syntax-ns#"
   xmlns:svg="http://www.w3.org/2000/svg"
   xmlns="http://www.w3.org/2000/svg"
   xml:space="preserve"
   viewBox="0 0 519.56415 475.23465"
   height="475.23465"
   width="519.56415"
   y="0px"
   x="0px"
   id="Layer_1"
   version="1.1"><metadata
   id="metadata17"><rdf:RDF><cc:Work
       rdf:about=""><dc:format>image/svg+xml</dc:format><dc:type
         rdf:resource="http://purl.org/dc/dcmitype/StillImage" /></cc:Work></rdf:RDF></metadata><defs
   id="defs15" />
<g
   transform="translate(-23.320231,-201.02135)"
   id="g10">
	<path
   id="path2"
   d="m 521.632,676.256 c 17.64,-0.504 25.992,-18.864 18.504,-33.552 L 301.528,212.216 c -9.144,-16.056 -28.08,-13.752 -36.864,0 L 26.056,642.704 c -7.056,13.752 0,30.744 15.84,33.552 z"
   style="clip-rule:evenodd;fill:#ffd200;fill-rule:evenodd" />
	<path
   id="path4"
   d="m 522.064,669.776 c 12.312,-0.432 18.504,-13.752 12.744,-23.832 L 296.776,215.456 c -5.76,-10.152 -20.232,-11.016 -26.856,0 L 31.384,645.944 c -5.76,10.08 1.296,24.336 13.608,23.832 z"
   style="clip-rule:evenodd;fill:#ef3e42;fill-rule:evenodd" />
	<polygon
   id="polygon6"
   points="87.256,628.448 479.368,628.448 283.096,274.64 "
   style="clip-rule:evenodd;fill:#ffd200;fill-rule:evenodd" />
	<path
   id="path8"
   d="m 379,605.984 -0.432,-66.096 c -2.664,-48.672 -34.776,-89.064 -77.04,-102.816 -6.048,-2.304 -50.976,-14.256 -50.976,-14.256 l -29.952,17.928 17.64,31.176 c 29.952,8.28 46.656,12.888 50.616,14.256 22.392,8.712 40.824,30.744 40.824,60.624 v 59.184 z"
   style="clip-rule:evenodd;fill-rule:evenodd" />
</g>
</svg>