<?xml version="1.0" encoding="UTF-8" standalone="no"?>
<svg
   xmlns:dc="http://purl.org/dc/elements/1.1/"
   xmlns:cc="http://creativecommons.org/ns#"
   xmlns:rdf="http://www.w3.org/1999/02/22-rdf-syntax-ns#"
   xmlns:svg="http://www.w3.org/2000/svg"
   xmlns="http://www.w3.org/2000/svg"
   xml:space="preserve"
   viewBox="0 0 519.9585 456.2532"
   height="456.2532"
   width="519.9585"
   y="0px"
   x="0px"
   id="Layer_1"
   version="1.1"><metadata
   id="metadata17"><rdf:RDF><cc:Work
       rdf:about=""><dc:format>image/svg+xml</dc:format><dc:type
         rdf:resource="http://purl.org/dc/dcmitype/StillImage" /></cc:Work></rdf:RDF></metadata><defs
   id="defs15" />
<g
   transform="translate(-27.280231,-226.91479)"
   id="g10">
	<path
   id="path2"
   d="m 526.168,683.168 c 17.64,-0.432 25.56,-18.072 18.504,-32.184 L 305.848,237.704 c -9.648,-15.48 -28.584,-13.248 -37.008,0 L 30.016,650.984 c -7.056,13.176 0,29.52 15.84,32.184 z"
   style="clip-rule:evenodd;fill:#ffd200;fill-rule:evenodd" />
	<path
   id="path4"
   d="m 526.6,676.976 c 12.312,-0.432 18.072,-13.248 12.816,-22.896 L 300.52,240.728 c -5.616,-9.648 -20.16,-10.512 -26.352,0 L 35.272,654.08 c -5.688,9.648 1.368,23.328 13.248,22.896 z"
   style="clip-rule:evenodd;fill:#ef3e42;fill-rule:evenodd" />
	<polygon
   id="polygon6"
   points="91.288,637.304 483.4,637.304 287.344,297.608 "
   style="clip-rule:evenodd;fill:#ffd200;fill-rule:evenodd" />
	<path
   id="path8"
   d="m 197.92,624.992 h 48.888 v -85.968 l 54.144,31.32 c 18.936,10.584 40.968,-2.232 41.472,-23.832 V 431.96 l -24.696,-24.624 -24.192,24.624 v 77.544 l -54.216,-31.32 c -17.136,-9.648 -40.968,1.368 -41.4,23.832 z"
   style="clip-rule:evenodd;fill-rule:evenodd" />
</g>
</svg>