<?xml version="1.0" encoding="UTF-8" standalone="no"?>
<svg
   xmlns:dc="http://purl.org/dc/elements/1.1/"
   xmlns:cc="http://creativecommons.org/ns#"
   xmlns:rdf="http://www.w3.org/1999/02/22-rdf-syntax-ns#"
   xmlns:svg="http://www.w3.org/2000/svg"
   xmlns="http://www.w3.org/2000/svg"
   xml:space="preserve"
   viewBox="0 0 519.94867 456.2532"
   height="456.2532"
   width="519.94867"
   y="0px"
   x="0px"
   id="Layer_1"
   version="1.1"><metadata
   id="metadata17"><rdf:RDF><cc:Work
       rdf:about=""><dc:format>image/svg+xml</dc:format><dc:type
         rdf:resource="http://purl.org/dc/dcmitype/StillImage" /></cc:Work></rdf:RDF></metadata><defs
   id="defs15" />
<g
   transform="translate(-39.98713,-101.13079)"
   id="g10">
	<path
   id="path2"
   d="M 61.048,557.384 C 43.48,556.952 35.488,539.312 42.544,525.2 L 281.44,111.92 c 9.648,-15.48 28.584,-13.248 36.936,0 L 557.2,525.2 c 7.056,13.176 0,29.52 -15.84,32.184 z"
   style="clip-rule:evenodd;fill:#ffd200;fill-rule:evenodd" />
	<path
   id="path4"
   d="M 60.616,551.192 C 48.304,550.76 42.544,537.944 47.872,528.296 L 286.696,114.944 c 5.76,-9.648 20.232,-10.512 26.424,0 l 238.824,413.352 c 5.76,9.648 -1.296,23.328 -13.248,22.896 z"
   style="clip-rule:evenodd;fill:#ef3e42;fill-rule:evenodd" />
	<polygon
   id="polygon6"
   points="496,511.52 103.816,511.52 299.872,171.824 "
   style="clip-rule:evenodd;fill:#ffd200;fill-rule:evenodd" />
	<path
   id="path8"
   d="m 389.296,499.208 h -48.888 v -85.896 l -54.144,31.248 c -18.936,10.584 -40.968,-2.232 -41.4,-23.76 V 306.248 l 24.696,-24.696 24.192,24.696 v 77.544 l 54.144,-31.248 c 17.208,-9.72 40.968,1.296 41.4,23.76 z"
   style="clip-rule:evenodd;fill-rule:evenodd" />
</g>
</svg>