<?xml version="1.0" encoding="UTF-8" standalone="no"?>
<svg
   xmlns:dc="http://purl.org/dc/elements/1.1/"
   xmlns:cc="http://creativecommons.org/ns#"
   xmlns:rdf="http://www.w3.org/1999/02/22-rdf-syntax-ns#"
   xmlns:svg="http://www.w3.org/2000/svg"
   xmlns="http://www.w3.org/2000/svg"
   xml:space="preserve"
   viewBox="0 0 520.9577 457.11722"
   height="457.11722"
   width="520.9577"
   y="0px"
   x="0px"
   id="Layer_1"
   version="1.1"><metadata
   id="metadata35"><rdf:RDF><cc:Work
       rdf:about=""><dc:format>image/svg+xml</dc:format><dc:type
         rdf:resource="http://purl.org/dc/dcmitype/StillImage" /></cc:Work></rdf:RDF></metadata><defs
   id="defs33" />
<g
   transform="translate(-39.192759,-217.19479)"
   id="g28">
	<path
   id="path2"
   d="M 60.76,674.312 C 42.616,673.88 34.696,656.24 41.752,642.128 L 281.08,227.984 c 9.72,-15.48 28.584,-13.248 37.008,0 l 239.328,414.144 c 7.056,13.176 0,29.52 -15.912,32.184 z"
   style="clip-rule:evenodd;fill:#ffd200;fill-rule:evenodd" />
	<path
   id="path4"
   d="M 59.824,668.12 C 47.944,667.688 41.752,654.872 47.008,645.152 L 286.336,231.08 c 5.76,-9.72 20.232,-10.584 26.424,0 l 239.328,414.072 c 6.192,9.72 -1.296,23.4 -13.248,22.968 z"
   style="clip-rule:evenodd;fill:#ef3e42;fill-rule:evenodd" />
	<polygon
   id="polygon6"
   points="496.432,628.376 103.096,628.376 299.512,288.032 "
   style="clip-rule:evenodd;fill:#ffd200;fill-rule:evenodd" />
	<g
   id="g26">
		<polygon
   id="polygon8"
   points="496.432,628.376 179.056,496.4 103.096,628.376 "
   style="clip-rule:evenodd;fill-rule:evenodd" />
		<g
   id="g18">
			<polygon
   id="polygon10"
   points="241.336,542.336 239.104,546.296 237.376,549.824 235.144,552.92 232.48,556.016 229.816,559.544 227.224,562.64 224.56,564.8 222.328,567.464 219.232,571.856 216.568,576.752 213.976,581.576 208.216,594.824 199.792,591.296 202.888,583.376 206.848,575.888 209.08,571.856 211.744,567.896 214.84,564.368 216.136,562.64 217.936,560.84 222.76,556.016 226.72,551.984 229.816,547.592 211.312,539.672 214.84,530.816 "
   style="clip-rule:evenodd;fill:#ffd200;fill-rule:evenodd" />
			<polygon
   id="polygon12"
   points="280.648,565.736 277.12,560.84 228.088,597.92 231.616,602.816 "
   style="clip-rule:evenodd;fill:#ffd200;fill-rule:evenodd" />
			<path
   id="path14"
   d="m 247.528,559.976 c 0,-2.664 2.16,-4.896 4.824,-4.896 2.664,0 4.392,2.232 4.392,4.896 0,2.664 -1.728,4.824 -4.392,4.824 -2.664,0 -4.824,-2.16 -4.824,-4.824 z"
   style="clip-rule:evenodd;fill:#ffd200;fill-rule:evenodd" />
			<path
   id="path16"
   d="m 252.352,604.544 c 0,-2.16 2.232,-4.392 4.896,-4.392 2.592,0 4.392,2.232 4.392,4.392 0,2.664 -1.8,4.896 -4.392,4.896 -2.664,0 -4.896,-2.232 -4.896,-4.896 z"
   style="clip-rule:evenodd;fill:#ffd200;fill-rule:evenodd" />
		</g>
		<path
   id="path20"
   d="m 274.024,517.136 69.192,28.728 c -11.88,19.368 19.44,33.12 25.632,10.584 l 10.584,3.96 c 2.664,0 4.464,-0.864 6.192,-3.096 l 5.76,-18.576 c 0.432,-4.392 -1.368,-7.92 -5.328,-10.584 l -29.592,-15.408 c -2.592,-1.368 -3.96,-3.096 -4.392,-5.76 l -7.056,-22.968 c -1.296,-3.528 -1.8,-4.392 -3.528,-5.328 l -51.624,-21.6 c -3.096,-1.296 -6.12,-0.864 -8.784,0.864 L 262.504,471.2 c -1.728,1.368 -3.528,1.8 -5.76,1.8 l -13.248,-0.432 c -2.592,0 -4.392,1.296 -5.688,3.528 l -6.624,16.344 c -1.368,3.528 0,6.12 3.096,7.92 l 14.112,6.192 c -11.52,19.44 19.44,32.688 25.632,10.584 z"
   style="clip-rule:evenodd;fill-rule:evenodd" />
		<polygon
   id="polygon22"
   points="303.472,476.096 286.768,469.04 273.088,478.688 298.288,489.344 "
   style="clip-rule:evenodd;fill:#ffd200;fill-rule:evenodd" />
		<polygon
   id="polygon24"
   points="333.568,488.408 338.392,505.688 310.096,494.168 315.424,480.92 "
   style="clip-rule:evenodd;fill:#ffd200;fill-rule:evenodd" />
	</g>
</g>
</svg>