<?xml version="1.0" encoding="UTF-8" standalone="no"?>
<svg
   xmlns:dc="http://purl.org/dc/elements/1.1/"
   xmlns:cc="http://creativecommons.org/ns#"
   xmlns:rdf="http://www.w3.org/1999/02/22-rdf-syntax-ns#"
   xmlns:svg="http://www.w3.org/2000/svg"
   xmlns="http://www.w3.org/2000/svg"
   xml:space="preserve"
   viewBox="0 0 509.3114 447.00415"
   height="447.00415"
   width="509.3114"
   y="0px"
   x="0px"
   id="Layer_1"
   version="1.1"><metadata
   id="metadata21"><rdf:RDF><cc:Work
       rdf:about=""><dc:format>image/svg+xml</dc:format><dc:type
         rdf:resource="http://purl.org/dc/dcmitype/StillImage" /></cc:Work></rdf:RDF></metadata><defs
   id="defs19" />
<g
   transform="translate(-23.335552,-235.87584)"
   id="g14">
	<path
   id="path2"
   d="m 511.84,682.88 c 17.28,-0.864 25.416,-17.712 18.144,-31.536 L 296.128,246.2 c -9.072,-14.616 -27.576,-12.888 -36.216,0 L 25.984,651.344 c -6.84,12.528 0,28.944 15.552,31.104 z"
   style="clip-rule:evenodd;fill:#ffd200;fill-rule:evenodd" />
	<path
   id="path4"
   d="m 512.272,676.832 c 12.096,-0.864 18.144,-13.392 12.528,-22.896 L 291.376,249.224 c -5.616,-9.504 -19.8,-10.368 -26.28,0 L 31.168,653.936 c -5.616,9.504 1.296,22.896 13.392,22.896 z"
   style="clip-rule:evenodd;fill:#ef3e42;fill-rule:evenodd" />
	<polygon
   id="polygon6"
   points="85.96,637.52 470.368,637.52 277.984,304.88 "
   style="clip-rule:evenodd;fill:#ffd200;fill-rule:evenodd" />
	<g
   id="g12">
		<polygon
   id="polygon8"
   points="236.152,553.856 266.392,518.432 266.392,418.856 224.056,418.856 224.056,502.448 194.32,538.736 194.32,628.88 236.152,628.88 "
   style="clip-rule:evenodd;fill-rule:evenodd" />
		<polygon
   id="polygon10"
   points="290.08,518.432 290.08,418.856 332.344,418.856 332.344,502.448 362.08,538.736 362.08,628.88 320.248,628.88 320.248,553.856 "
   style="clip-rule:evenodd;fill-rule:evenodd" />
	</g>
</g>
</svg>