<?xml version="1.0" encoding="UTF-8" standalone="no"?>
<svg
   xmlns:dc="http://purl.org/dc/elements/1.1/"
   xmlns:cc="http://creativecommons.org/ns#"
   xmlns:rdf="http://www.w3.org/1999/02/22-rdf-syntax-ns#"
   xmlns:svg="http://www.w3.org/2000/svg"
   xmlns="http://www.w3.org/2000/svg"
   xml:space="preserve"
   viewBox="0 0 508.58517 446.57214"
   height="446.57214"
   width="508.58517"
   y="0px"
   x="0px"
   id="Layer_1"
   version="1.1"><metadata
   id="metadata21"><rdf:RDF><cc:Work
       rdf:about=""><dc:format>image/svg+xml</dc:format><dc:type
         rdf:resource="http://purl.org/dc/dcmitype/StillImage" /></cc:Work></rdf:RDF></metadata><defs
   id="defs19" />
<g
   transform="translate(-22.759552,-240.12384)"
   id="g14">
	<path
   id="path2"
   d="m 510.76,686.696 c 17.208,-0.864 24.984,-17.712 18.072,-31.536 L 295.264,250.448 c -9.432,-14.616 -28.008,-12.888 -36.216,0 L 25.408,655.16 c -6.84,12.528 0,28.944 15.552,31.104 z"
   style="clip-rule:evenodd;fill:#ffd200;fill-rule:evenodd" />
	<path
   id="path4"
   d="m 511.192,680.648 c 12.096,-0.864 17.64,-13.392 12.528,-22.896 L 290.152,253.472 c -5.616,-9.432 -19.872,-10.296 -25.92,0 l -233.64,404.28 c -5.616,9.504 1.296,22.896 12.96,22.896 z"
   style="clip-rule:evenodd;fill:#ef3e42;fill-rule:evenodd" />
	<polygon
   id="polygon6"
   points="85.384,641.408 468.928,641.408 277.192,309.128 "
   style="clip-rule:evenodd;fill:#ffd200;fill-rule:evenodd" />
	<g
   id="g12">
		<polygon
   id="polygon8"
   points="229.312,575.456 268.12,575.456 214.264,629.744 160.336,575.456 199.144,575.456 199.144,467.672 229.312,467.672 "
   style="clip-rule:evenodd;fill-rule:evenodd" />
		<polygon
   id="polygon10"
   points="340.048,509.504 379.288,509.504 325,455.576 271.144,509.504 310.312,509.504 310.312,617.72 340.048,617.72 "
   style="clip-rule:evenodd;fill-rule:evenodd" />
	</g>
</g>
</svg>