<?xml version="1.0" encoding="UTF-8" standalone="no"?>
<svg
   xmlns:dc="http://purl.org/dc/elements/1.1/"
   xmlns:cc="http://creativecommons.org/ns#"
   xmlns:rdf="http://www.w3.org/1999/02/22-rdf-syntax-ns#"
   xmlns:svg="http://www.w3.org/2000/svg"
   xmlns="http://www.w3.org/2000/svg"
   xml:space="preserve"
   viewBox="0 0 508.22302 446.06815"
   height="446.06815"
   width="508.22302"
   y="0px"
   x="0px"
   id="Layer_1"
   version="1.1"><metadata
   id="metadata27"><rdf:RDF><cc:Work
       rdf:about=""><dc:format>image/svg+xml</dc:format><dc:type
         rdf:resource="http://purl.org/dc/dcmitype/StillImage" /></cc:Work></rdf:RDF></metadata><defs
   id="defs25" />
<g
   transform="translate(-23.145598,-239.33184)"
   id="g20">
	<path
   id="path2"
   d="M 43.912,685.4 C 26.704,684.536 18.496,667.76 25.84,653.936 l 233.352,-404.28 c 9.504,-14.616 27.576,-12.888 36.216,0 l 233.28,404.28 c 6.912,12.528 0,28.872 -15.48,31.032 z"
   style="clip-rule:evenodd;fill:#ffd200;fill-rule:evenodd" />
	<path
   id="path4"
   d="M 43.48,679.352 C 31.384,678.488 25.408,666.032 30.952,656.528 L 264.376,252.68 c 5.616,-9.504 19.368,-10.296 25.848,0 l 233.28,403.848 c 5.616,9.504 -1.224,22.824 -12.888,22.824 z"
   style="clip-rule:evenodd;fill:#ef3e42;fill-rule:evenodd" />
	<polygon
   id="polygon6"
   points="468.856,640.184 85.24,640.184 277.264,308.264 "
   style="clip-rule:evenodd;fill:#ffd200;fill-rule:evenodd" />
	<g
   id="g18">
		<polygon
   id="polygon8"
   points="320.248,448.088 193.744,562.208 181.72,548.888 308.224,434.768 "
   style="clip-rule:evenodd;fill-rule:evenodd" />
		<polygon
   id="polygon10"
   points="193.744,640.184 193.744,562.208 151.552,562.208 106.768,640.184 "
   style="clip-rule:evenodd;fill-rule:evenodd" />
		<polygon
   id="polygon12"
   points="448.192,640.184 361.216,640.184 361.216,562.208 403.408,562.208 "
   style="clip-rule:evenodd;fill-rule:evenodd" />
		<path
   id="path14"
   d="m 193.744,589.352 c 4.32,-0.864 9.072,0.432 14.184,3.888 9.936,4.752 20.304,4.752 30.168,0 7.344,-5.616 14.256,-5.616 21.528,0 11.664,5.184 22.392,5.184 33.624,0 6.336,-5.616 13.248,-5.616 20.16,0 10.728,5.184 21.528,5.184 32.256,0 4.752,-3.888 9.936,-4.752 15.552,-3.456 v 12.096 c -5.616,-1.728 -10.8,-0.432 -15.552,2.952 -10.728,5.184 -21.528,5.184 -32.256,0 -6.912,-5.112 -13.824,-5.112 -20.16,0 -11.232,5.616 -21.96,5.616 -33.624,0 -7.272,-5.112 -14.184,-5.112 -21.528,0 -9.864,4.752 -20.232,4.752 -30.168,0 -5.544,-3.384 -9.432,-4.248 -14.184,-3.384 z"
   style="clip-rule:evenodd;fill-rule:evenodd" />
		<path
   id="path16"
   d="m 193.744,613.472 c 4.32,-0.864 9.072,0.432 14.184,3.456 9.936,4.752 20.304,4.752 30.168,0 7.344,-5.184 14.256,-5.184 21.528,0 11.664,5.616 22.392,5.616 33.624,0 6.336,-5.184 13.248,-5.184 20.16,0 10.728,5.184 21.528,5.184 32.256,0 4.752,-3.456 9.936,-4.752 15.552,-3.024 v 12.024 c -5.616,-1.656 -10.8,-0.792 -15.552,3.024 -10.728,5.184 -21.528,5.184 -32.256,0 -6.912,-5.112 -13.824,-5.112 -20.16,0 -11.232,5.616 -21.96,5.616 -33.624,0 -7.272,-5.112 -14.184,-5.112 -21.528,0 -9.864,4.752 -20.232,4.752 -30.168,0 -5.544,-3.384 -9.432,-4.248 -14.184,-3.384 z"
   style="clip-rule:evenodd;fill-rule:evenodd" />
	</g>
</g>
</svg>