<?xml version="1.0" encoding="UTF-8" standalone="no"?>
<svg
   xmlns:dc="http://purl.org/dc/elements/1.1/"
   xmlns:cc="http://creativecommons.org/ns#"
   xmlns:rdf="http://www.w3.org/1999/02/22-rdf-syntax-ns#"
   xmlns:svg="http://www.w3.org/2000/svg"
   xmlns="http://www.w3.org/2000/svg"
   xml:space="preserve"
   viewBox="0 0 504.05847 442.5582"
   height="442.5582"
   width="504.05847"
   y="0px"
   x="0px"
   id="Layer_1"
   version="1.1"><metadata
   id="metadata27"><rdf:RDF><cc:Work
       rdf:about=""><dc:format>image/svg+xml</dc:format><dc:type
         rdf:resource="http://purl.org/dc/dcmitype/StillImage" /></cc:Work></rdf:RDF></metadata><defs
   id="defs25" />
<g
   transform="translate(-23.505727,-240.32179)"
   id="g20">
	<path
   id="path2"
   d="m 44.344,682.88 c -17.496,-0.864 -25.2,-17.568 -18.36,-31.248 l 231.552,-401.04 c 9.432,-14.544 27.792,-12.816 35.928,0 l 231.48,401.04 c 6.768,12.384 0,28.656 -15.408,30.816 z"
   style="clip-rule:evenodd;fill:#ffd200;fill-rule:evenodd" />
	<path
   id="path4"
   d="M 43.48,676.832 C 31.96,676.04 25.984,663.584 31.096,654.224 l 231.552,-400.68 c 5.544,-9.36 19.656,-10.224 25.632,0 l 231.48,400.68 c 5.976,9.36 -1.224,22.608 -12.816,22.608 z"
   style="clip-rule:evenodd;fill:#ef3e42;fill-rule:evenodd" />
	<polygon
   id="polygon6"
   points="465.976,637.952 85.384,637.952 275.464,308.696 "
   style="clip-rule:evenodd;fill:#ffd200;fill-rule:evenodd" />
	<polygon
   id="polygon8"
   points="240.4,637.952 84.52,637.952 177.04,479.912 240.4,479.912 "
   style="clip-rule:evenodd;fill-rule:evenodd" />
	<path
   id="path10"
   d="m 231.904,456.872 c -13.68,16.2 12.816,34.992 23.04,13.68 l 61.92,37.152 c -13.68,17.496 14.112,34.56 23.04,13.68 l 9.864,5.976 c 2.088,0.432 4.248,0 5.544,-1.296 l 8.928,-17.496 c 1.296,-3.888 0.864,-6.84 -2.088,-9.864 L 333.064,476.96 c -1.224,-0.864 -2.088,-2.592 -2.088,-4.752 l -3.456,-23.472 c 0,-3.024 -1.728,-5.112 -4.248,-6.408 l -44.784,-26.856 c -3.024,-1.728 -5.544,-1.728 -8.568,-0.432 l -21.384,10.584 c -1.224,0.432 -2.52,0.432 -3.816,0 l -14.112,-2.52 c -1.656,0.432 -3.384,1.296 -4.68,2.952 l -8.568,14.976 c -1.656,2.16 -1.224,4.68 0.864,7.272 z"
   style="clip-rule:evenodd;fill-rule:evenodd" />
	<polygon
   id="polygon12"
   points="289.144,435.488 281.872,447.008 259.696,433.76 273.808,426.488 "
   style="clip-rule:evenodd;fill:#ffd200;fill-rule:evenodd" />
	<polygon
   id="polygon14"
   points="318.16,468.824 292.6,453.416 299.8,441.896 316,451.688 "
   style="clip-rule:evenodd;fill:#ffd200;fill-rule:evenodd" />
	<path
   id="path16"
   d="m 450.568,611.528 c -3.816,0 -15.768,14.04 -38.016,3.384 -8.136,-5.544 -15.408,-5.544 -20.952,0 -11.088,4.68 -21.744,4.68 -31.608,0 -7.704,-5.112 -14.976,-5.112 -21.744,0 -10.296,5.544 -20.952,5.544 -32.04,0 -7.272,-5.112 -14.472,-5.112 -21.744,0 -10.296,4.68 -20.52,4.68 -30.312,0 -5.184,-3.384 -9.864,-4.68 -14.112,-3.816 v -20.52 c 4.248,-1.296 8.928,0 14.112,3.384 9.792,4.752 20.016,4.752 30.312,0 7.272,-4.68 14.472,-4.68 21.744,0 11.088,5.544 21.744,5.544 32.04,0 6.768,-4.68 14.04,-4.68 21.744,0 9.864,5.184 20.52,5.184 31.608,0 5.544,-5.112 12.816,-5.112 20.952,0 13.248,7.704 29.88,1.296 28.656,1.296 z"
   style="clip-rule:evenodd;fill-rule:evenodd" />
	<path
   id="path18"
   d="m 433.936,582.44 c -3.024,0 -9,3.024 -21.384,-3.384 -8.136,-5.544 -15.408,-5.544 -20.952,0 -11.088,5.112 -21.744,5.112 -31.608,0 -7.704,-5.184 -14.976,-5.184 -21.744,0 -10.296,5.544 -20.952,5.544 -32.04,0 -7.272,-5.184 -14.472,-5.184 -21.744,0 -10.296,4.68 -20.52,4.68 -30.312,0 -5.184,-3.456 -9.864,-4.752 -14.112,-3.456 v -20.952 c 4.248,-0.792 8.928,0.432 14.112,3.888 9.792,4.68 20.016,4.68 30.312,0 7.272,-5.112 14.472,-5.112 21.744,0 11.088,5.544 21.744,5.544 32.04,0 6.768,-5.112 14.04,-5.112 21.744,0 9.864,4.68 20.52,4.68 31.608,0 5.544,-5.544 12.816,-5.544 20.952,0 5.544,2.52 8.568,2.952 9.432,2.952 z"
   style="clip-rule:evenodd;fill-rule:evenodd" />
</g>
</svg>