<?xml version="1.0" encoding="UTF-8" standalone="no"?>
<svg
   xmlns:dc="http://purl.org/dc/elements/1.1/"
   xmlns:cc="http://creativecommons.org/ns#"
   xmlns:rdf="http://www.w3.org/1999/02/22-rdf-syntax-ns#"
   xmlns:svg="http://www.w3.org/2000/svg"
   xmlns="http://www.w3.org/2000/svg"
   xml:space="preserve"
   viewBox="0 0 508.01007 445.9418"
   height="445.9418"
   width="508.01007"
   y="0px"
   x="0px"
   id="Layer_1"
   version="1.1"><metadata
   id="metadata17"><rdf:RDF><cc:Work
       rdf:about=""><dc:format>image/svg+xml</dc:format><dc:type
         rdf:resource="http://purl.org/dc/dcmitype/StillImage" /></cc:Work></rdf:RDF></metadata><defs
   id="defs15" />
<g
   transform="translate(-23.358543,-237.2982)"
   id="g10">
	<path
   id="path2"
   d="M 43.984,683.24 C 26.704,682.808 19,665.528 25.84,651.776 L 259.264,248 c 9.432,-15.12 27.936,-13.392 36.144,0 l 233.28,403.776 c 6.912,12.888 0,28.872 -15.48,31.464 z"
   style="clip-rule:evenodd;fill:#ffd200;fill-rule:evenodd" />
	<path
   id="path4"
   d="M 43.552,677.192 C 31.456,676.328 25.84,664.232 31.024,654.8 L 264.376,250.952 c 5.616,-9.864 19.872,-10.728 25.848,0 L 523.504,654.8 c 5.616,9 -1.224,22.392 -12.888,22.392 z"
   style="clip-rule:evenodd;fill:#ef3e42;fill-rule:evenodd" />
	<polygon
   id="polygon6"
   points="468.856,638.456 85.744,638.456 277.336,306.104 "
   style="clip-rule:evenodd;fill:#ffd200;fill-rule:evenodd" />
	<path
   id="path8"
   d="M 133.912,629.384 H 422.344 V 575.528 H 399.52 c -1.296,0 -2.16,-0.792 -2.592,-1.656 -2.592,-4.752 -7.272,-12.96 -13.752,-24.12 -9.072,-12.096 -21.096,-18.144 -35.712,-18.144 -10.368,0.864 -19.368,4.752 -27.576,12.096 -2.16,2.592 -12.096,15.912 -29.232,40.464 -7.272,7.776 -18.072,7.344 -24.984,0 l -26.64,-37.44 c -8.64,-10.368 -20.232,-15.12 -33.624,-15.12 -11.16,0.864 -20.232,5.184 -27.144,12.528 -2.952,1.296 -16.344,25.416 -18.936,29.736 -0.864,0.864 -1.728,1.656 -2.592,1.656 h -22.824 z"
   style="clip-rule:evenodd;fill-rule:evenodd" />
</g>
</svg>