<?xml version="1.0" encoding="UTF-8" standalone="no"?>
<svg
   xmlns:dc="http://purl.org/dc/elements/1.1/"
   xmlns:cc="http://creativecommons.org/ns#"
   xmlns:rdf="http://www.w3.org/1999/02/22-rdf-syntax-ns#"
   xmlns:svg="http://www.w3.org/2000/svg"
   xmlns="http://www.w3.org/2000/svg"
   xml:space="preserve"
   viewBox="0 0 519.55414 455.49994"
   height="455.49994"
   width="519.55414"
   y="0px"
   x="0px"
   id="Layer_1"
   version="1.1"><metadata
   id="metadata43"><rdf:RDF><cc:Work
       rdf:about=""><dc:format>image/svg+xml</dc:format><dc:type
         rdf:resource="http://purl.org/dc/dcmitype/StillImage" /></cc:Work></rdf:RDF></metadata><defs
   id="defs41" />
<path
   id="path2"
   d="m 21.242357,455.49995 c -17.5680002,-0.432 -25.9920002,-17.568 -18.5040002,-32.112 L 241.34636,10.53995 c 9.72,-14.9039996 28.152,-13.1759996 36.936,0 l 238.536,412.848 c 7.056,13.248 0,29.52 -15.84,32.112 z"
   style="clip-rule:evenodd;fill:#ffd200;fill-rule:evenodd" />
<path
   id="path4"
   d="m 20.810357,449.81195 c -12.3120002,-0.864 -18.5040002,-13.68 -12.7440002,-23.328 L 246.60236,13.63595 c 5.76,-9.6479996 19.872,-10.5119996 26.424,0 l 238.536,412.848 c 5.688,9.648 -1.296,23.328 -13.248,23.328 z"
   style="clip-rule:evenodd;fill:#ef3e42;fill-rule:evenodd" />
<polygon
   transform="translate(-22.957643,-187.20405)"
   id="polygon6"
   points="478.576,596.984 86.464,596.984 282.808,257.648 "
   style="clip-rule:evenodd;fill:#ffd200;fill-rule:evenodd" />
<g
   transform="translate(-22.957643,-187.20405)"
   id="g36">
	<polygon
   id="polygon8"
   points="335.512,567.032 336.448,570.992 338.176,574.088 340.84,576.248 343.936,578.048 347.896,578.048 351.424,576.68 354.016,574.52 355.384,573.224 360.208,556.016 362.368,554.72 367.264,543.704 370.792,534.488 372.952,527.864 375.184,519.512 377.344,511.088 377.776,507.632 378.208,504.104 378.208,501.872 377.344,499.712 376.48,497.48 375.184,495.68 373.384,494.384 371.656,493.088 370.288,455.648 369.856,452.984 368.992,450.392 367.696,447.728 365.896,445.568 363.736,443.336 360.64,441.608 359.344,440.24 356.68,439.376 306.928,427.496 256.816,420.08 254.152,420.08 251.128,420.512 248.464,421.304 245.8,422.168 243.64,423.968 241.408,425.696 239.68,427.928 237.88,430.16 223.336,464.432 221.176,464.936 218.944,465.8 216.784,466.664 214.984,468.392 213.688,470.192 212.824,471.92 211.024,479.408 209.728,487.76 208.864,496.184 208.432,504.536 207.928,512.888 208.432,523.04 208.864,525.2 210.16,527 208.432,543.272 208.864,546.8 211.024,549.824 213.688,552.056 217.216,553.352 220.744,553.352 224.272,552.056 226.864,549.824 228.664,546.368 232.192,530.96 338.608,551.624 "
   style="clip-rule:evenodd;fill-rule:evenodd" />
	<polygon
   id="polygon10"
   points="255.52,467.528 271.36,469.76 297.784,474.152 320.608,478.544 339.472,482.936 357.976,487.76 356.248,457.448 355.816,455.648 354.88,454.352 354.016,452.552 352.72,451.256 350.92,450.392 337.312,446.864 327.592,444.2 317.08,442.04 303.832,439.376 280.576,435.416 263.44,433.616 256.384,433.184 254.152,433.184 252.856,434.12 251.128,434.984 249.76,436.28 248.896,437.576 236.584,465.8 242.704,466.232 "
   style="clip-rule:evenodd;fill:#ffd200;fill-rule:evenodd" />
	<rect
   id="rect12"
   height="30.384001"
   width="159.26401"
   style="clip-rule:evenodd;fill-rule:evenodd"
   y="557.31201"
   x="142.408" />
	<polygon
   id="polygon14"
   points="319.672,587.696 304.768,564.8 304.768,587.696 "
   style="clip-rule:evenodd;fill-rule:evenodd" />
	<polygon
   id="polygon16"
   points="328.96,587.696 323.632,587.696 316.144,576.68 330.688,579.344 "
   style="clip-rule:evenodd;fill-rule:evenodd" />
	<polygon
   id="polygon18"
   points="346.96,587.696 350.056,582.44 333.784,579.776 332.056,587.696 "
   style="clip-rule:evenodd;fill-rule:evenodd" />
	<polygon
   id="polygon20"
   points="369.424,579.344 353.584,582.008 350.056,587.696 369.424,587.696 "
   style="clip-rule:evenodd;fill-rule:evenodd" />
	<polygon
   id="polygon22"
   points="370.792,565.232 363.304,565.232 355.384,578.912 370.792,576.68 "
   style="clip-rule:evenodd;fill-rule:evenodd" />
	<polygon
   id="polygon24"
   points="387.064,565.232 373.816,565.232 373.816,577.184 384.832,575.384 "
   style="clip-rule:evenodd;fill-rule:evenodd" />
	<polygon
   id="polygon26"
   points="382.24,587.696 372.52,587.696 372.52,580.208 384.4,578.48 "
   style="clip-rule:evenodd;fill-rule:evenodd" />
	<polygon
   id="polygon28"
   points="401.104,579.776 390.16,565.232 385.264,587.696 397.576,587.696 "
   style="clip-rule:evenodd;fill-rule:evenodd" />
	<polygon
   id="polygon30"
   points="407.296,565.232 394.12,565.232 402.472,576.248 "
   style="clip-rule:evenodd;fill-rule:evenodd" />
	<polygon
   id="polygon32"
   points="423.568,574.952 405.064,577.184 410.392,565.232 423.568,565.232 "
   style="clip-rule:evenodd;fill-rule:evenodd" />
	<polygon
   id="polygon34"
   points="400.672,587.696 403.768,580.208 423.568,578.048 423.568,587.696 "
   style="clip-rule:evenodd;fill-rule:evenodd" />
</g>
</svg>