<?xml version="1.0" encoding="UTF-8" standalone="no"?>
<svg
   xmlns:dc="http://purl.org/dc/elements/1.1/"
   xmlns:cc="http://creativecommons.org/ns#"
   xmlns:rdf="http://www.w3.org/1999/02/22-rdf-syntax-ns#"
   xmlns:svg="http://www.w3.org/2000/svg"
   xmlns="http://www.w3.org/2000/svg"
   xml:space="preserve"
   viewBox="0 0 509.87659 447.5621"
   height="447.5621"
   width="509.87659"
   y="0px"
   x="0px"
   id="Layer_1"
   version="1.1"><metadata
   id="metadata17"><rdf:RDF><cc:Work
       rdf:about=""><dc:format>image/svg+xml</dc:format><dc:type
         rdf:resource="http://purl.org/dc/dcmitype/StillImage" /></cc:Work></rdf:RDF></metadata><defs
   id="defs15" />
<g
   transform="translate(-22.786711,-235.46189)"
   id="g10">
	<path
   id="path2"
   d="M 43.624,683.024 C 26.344,682.16 18.136,665.24 25.48,651.416 L 259.624,245.84 c 9.072,-14.688 27.648,-12.96 36.288,0 l 234.072,405.576 c 6.912,12.528 0,29.016 -15.552,31.176 z"
   style="clip-rule:evenodd;fill:#ffd200;fill-rule:evenodd" />
	<path
   id="path4"
   d="M 43.192,676.904 C 31.096,676.04 25.048,663.512 30.664,654.44 L 264.376,248.864 c 5.616,-9.504 19.872,-10.368 26.352,0 L 524.8,654.44 c 5.616,9.072 -1.296,22.464 -13.392,22.464 z"
   style="clip-rule:evenodd;fill:#ef3e42;fill-rule:evenodd" />
	<polygon
   id="polygon6"
   points="469.936,637.592 85.096,637.592 277.768,304.592 "
   style="clip-rule:evenodd;fill:#ffd200;fill-rule:evenodd" />
	<polygon
   id="polygon8"
   points="278.2,508.856 339.904,447.08 369.712,476.888 307.936,538.664 369.712,600.44 339.904,630.248 278.2,568.472 216.856,630.248 186.616,600.44 248.824,538.664 186.616,476.888 216.856,447.08 "
   style="clip-rule:evenodd;fill-rule:evenodd" />
</g>
</svg>