<?xml version="1.0" encoding="UTF-8" standalone="no"?>
<svg
   xmlns:dc="http://purl.org/dc/elements/1.1/"
   xmlns:cc="http://creativecommons.org/ns#"
   xmlns:rdf="http://www.w3.org/1999/02/22-rdf-syntax-ns#"
   xmlns:svg="http://www.w3.org/2000/svg"
   xmlns="http://www.w3.org/2000/svg"
   xml:space="preserve"
   viewBox="0 0 508.22607 446.21216"
   height="446.21216"
   width="508.22607"
   y="0px"
   x="0px"
   id="Layer_1"
   version="1.1"><metadata
   id="metadata17"><rdf:RDF><cc:Work
       rdf:about=""><dc:format>image/svg+xml</dc:format><dc:type
         rdf:resource="http://purl.org/dc/dcmitype/StillImage" /></cc:Work></rdf:RDF></metadata><defs
   id="defs15" />
<g
   transform="translate(-23.142543,-236.81184)"
   id="g10">
	<path
   id="path2"
   d="M 43.768,683.024 C 26.488,682.16 18.784,665.312 25.624,651.56 L 259.12,247.136 c 9.504,-14.616 27.576,-12.888 36.216,0 L 528.688,651.56 c 6.912,12.456 0,28.872 -15.48,31.032 z"
   style="clip-rule:evenodd;fill:#ffd200;fill-rule:evenodd" />
	<path
   id="path4"
   d="M 43.336,676.976 C 31.24,676.112 25.624,663.584 30.808,654.584 L 264.304,250.16 c 5.616,-9.504 19.8,-10.368 25.848,0 l 233.352,404.424 c 5.616,9 -1.296,22.392 -12.888,22.392 z"
   style="clip-rule:evenodd;fill:#ef3e42;fill-rule:evenodd" />
	<polygon
   id="polygon6"
   points="468.856,637.736 85.528,637.736 277.192,305.744 "
   style="clip-rule:evenodd;fill:#ffd200;fill-rule:evenodd" />
	<polygon
   id="polygon8"
   points="192.808,524.048 192.808,493.88 241.048,493.88 241.048,434.048 276.76,397.904 312.904,434.048 312.904,493.88 360.712,493.88 360.712,524.048 312.904,524.048 312.904,617.072 241.048,617.072 241.048,524.048 "
   style="clip-rule:evenodd;fill-rule:evenodd" />
</g>
</svg>