<?xml version="1.0" encoding="UTF-8" standalone="no"?>
<svg
   xmlns:dc="http://purl.org/dc/elements/1.1/"
   xmlns:cc="http://creativecommons.org/ns#"
   xmlns:rdf="http://www.w3.org/1999/02/22-rdf-syntax-ns#"
   xmlns:svg="http://www.w3.org/2000/svg"
   xmlns="http://www.w3.org/2000/svg"
   xml:space="preserve"
   viewBox="0 0 496.06489 435.06396"
   height="435.06396"
   width="496.06491"
   y="0px"
   x="0px"
   id="Layer_1"
   version="1.1"><metadata
   id="metadata19"><rdf:RDF><cc:Work
       rdf:about=""><dc:format>image/svg+xml</dc:format><dc:type
         rdf:resource="http://purl.org/dc/dcmitype/StillImage" /></cc:Work></rdf:RDF></metadata><defs
   id="defs17" />
<g
   transform="translate(-49.513087,-203.41304)"
   id="LWPOLYLINE_19_">
	<path
   id="path2"
   d="m 69.995,638.477 h 455.189 c 11.304,0 20.394,-9.119 20.394,-20.394 0,-3.615 -0.89,-7.149 -2.696,-10.252 L 315.3,213.608 c -5.64,-9.738 -18.157,-13.096 -27.921,-7.459 -3.184,1.794 -5.733,4.343 -7.513,7.459 L 52.258,607.831 c -5.637,9.792 -2.32,22.283 7.459,27.947 3.143,1.808 6.677,2.699 10.278,2.699 z"
   style="fill:#ffd200" />
</g>
<g
   transform="translate(-49.513087,-203.41304)"
   id="LWPOLYLINE_20_">
	<path
   id="path5"
   d="m 69.995,632.703 h 455.189 c 8.039,0 14.62,-6.582 14.62,-14.62 0,-2.563 -0.701,-5.126 -1.941,-7.284 L 310.243,216.536 c -4.075,-6.946 -12.99,-9.334 -19.99,-5.314 -2.187,1.241 -4.034,3.075 -5.329,5.314 L 57.33,610.799 c -4.033,6.934 -1.631,15.863 5.314,19.908 2.239,1.269 4.748,1.996 7.351,1.996 z"
   style="fill:#ef3e42" />
</g>
<g
   transform="translate(-49.513087,-203.41304)"
   id="LWPOLYLINE_21_">
	<polygon
   id="polygon8"
   points="297.576,270.608 110.431,594.694 484.666,594.694 "
   style="fill:#ffd200" />
</g>
<g
   transform="translate(-49.513087,-203.41304)"
   id="LWPOLYLINE_22_">
	<polygon
   id="polygon11"
   points="379.407,503.813 332.632,503.813 332.632,395.681 297.576,360.626 262.534,395.681 262.534,439.558 215.732,439.558 215.732,468.745 262.534,468.745 262.534,574.004 332.632,574.004 332.632,533.056 379.407,533.056 " />
</g>
</svg>