<?xml version="1.0" encoding="UTF-8" standalone="no"?>
<svg
   xmlns:dc="http://purl.org/dc/elements/1.1/"
   xmlns:cc="http://creativecommons.org/ns#"
   xmlns:rdf="http://www.w3.org/1999/02/22-rdf-syntax-ns#"
   xmlns:svg="http://www.w3.org/2000/svg"
   xmlns="http://www.w3.org/2000/svg"
   xml:space="preserve"
   viewBox="0 0 509.15439 447.05811"
   height="447.05811"
   width="509.15439"
   y="0px"
   x="0px"
   id="Layer_1"
   version="1.1"><metadata
   id="metadata17"><rdf:RDF><cc:Work
       rdf:about=""><dc:format>image/svg+xml</dc:format><dc:type
         rdf:resource="http://purl.org/dc/dcmitype/StillImage" /></cc:Work></rdf:RDF></metadata><defs
   id="defs15" />
<g
   transform="translate(-23.508892,-235.96589)"
   id="g10">
	<path
   id="path2"
   d="M 44.56,683.024 C 26.848,682.16 19.144,665.312 25.984,651.488 L 259.912,246.344 c 9.504,-14.688 28.008,-12.96 36.216,0 l 233.856,405.144 c 6.912,12.528 0,28.944 -15.552,31.104 z"
   style="clip-rule:evenodd;fill:#ffd200;fill-rule:evenodd" />
	<path
   id="path4"
   d="M 43.696,676.976 C 32.032,676.112 25.984,663.584 31.168,654.512 L 265.096,249.368 c 5.616,-9.504 19.872,-10.368 25.848,0 L 524.8,654.512 c 6.048,9.072 -1.296,22.464 -12.96,22.464 H 43.696 Z"
   style="clip-rule:evenodd;fill:#ef3e42;fill-rule:evenodd" />
	<polygon
   id="polygon6"
   points="470.44,637.664 86.032,637.664 278.056,305.024 "
   style="clip-rule:evenodd;fill:#ffd200;fill-rule:evenodd" />
	<polygon
   id="polygon8"
   points="241.336,494.384 241.336,433.976 277.624,398.264 313.768,433.976 313.768,617.36 241.336,617.36 241.336,524.192 193.456,524.192 193.456,494.384 "
   style="clip-rule:evenodd;fill-rule:evenodd" />
</g>
</svg>