<?xml version="1.0" encoding="UTF-8" standalone="no"?>
<svg
   xmlns:dc="http://purl.org/dc/elements/1.1/"
   xmlns:cc="http://creativecommons.org/ns#"
   xmlns:rdf="http://www.w3.org/1999/02/22-rdf-syntax-ns#"
   xmlns:svg="http://www.w3.org/2000/svg"
   xmlns="http://www.w3.org/2000/svg"
   xml:space="preserve"
   viewBox="0 0 508.08206 445.80362"
   height="445.80362"
   width="508.08206"
   y="0px"
   x="0px"
   id="Layer_1"
   version="1.1"><metadata
   id="metadata17"><rdf:RDF><cc:Work
       rdf:about=""><dc:format>image/svg+xml</dc:format><dc:type
         rdf:resource="http://purl.org/dc/dcmitype/StillImage" /></cc:Work></rdf:RDF></metadata><defs
   id="defs15" />
<g
   transform="translate(-23.286543,-240.10039)"
   id="g10">
	<path
   id="path2"
   d="M 43.912,685.904 C 26.632,685.472 18.928,668.264 25.768,654.44 L 259.192,250.592 c 9.504,-15.048 28.008,-12.888 36.216,0 l 233.28,403.848 c 6.912,12.96 0,28.872 -15.48,31.464 z"
   style="clip-rule:evenodd;fill:#ffd200;fill-rule:evenodd" />
	<path
   id="path4"
   d="M 43.48,679.856 C 31.384,679.424 25.768,666.968 30.952,657.464 L 264.376,253.616 c 5.616,-9.504 19.8,-10.368 25.848,0 l 233.28,403.848 c 5.616,9.504 -1.224,22.824 -12.888,22.392 z"
   style="clip-rule:evenodd;fill:#ef3e42;fill-rule:evenodd" />
	<polygon
   id="polygon6"
   points="469.288,641.12 85.672,641.12 277.264,309.128 "
   style="clip-rule:evenodd;fill:#ffd200;fill-rule:evenodd" />
	<polygon
   id="polygon8"
   points="313.84,614.84 313.84,524.408 381.448,597.2 402.976,576.968 313.84,480.488 313.84,434.408 278.128,398.768 242.848,434.408 242.848,614.84 "
   style="clip-rule:evenodd;fill-rule:evenodd" />
</g>
</svg>