<?xml version="1.0" encoding="UTF-8"?>
<svg id="Layer_1" data-name="Layer 1" xmlns="http://www.w3.org/2000/svg" version="1.1" xmlns:cc="http://creativecommons.org/ns#" xmlns:dc="http://purl.org/dc/elements/1.1/" xmlns:rdf="http://www.w3.org/1999/02/22-rdf-syntax-ns#" xmlns:svg="http://www.w3.org/2000/svg" viewBox="0 0 508.1 445.8">
  <defs>
    <style>
      .cls-1 {
        fill: #ef3e42;
      }

      .cls-1, .cls-2, .cls-3 {
        fill-rule: evenodd;
        stroke-width: 0px;
      }

      .cls-2 {
        fill: #ffd200;
      }

      .cls-3 {
        fill: #000;
      }
    </style>
  </defs>
  <g id="g10">
    <path id="path2" class="cls-2" d="M18.2,445.8c-15.5-2.6-22.4-18.5-15.5-31.5L236,10.5c8.2-12.9,26.7-15,36.2,0l233.4,403.8c6.8,13.8-.9,31-18.1,31.5H18.2Z"/>
    <path id="path4" class="cls-1" d="M20.8,439.8c-11.7.4-18.5-12.9-12.9-22.4L241.1,13.5c6-10.4,20.2-9.5,25.8,0l233.4,403.8c5.2,9.5-.4,22-12.5,22.4H20.8Z"/>
    <polygon id="polygon6" class="cls-2" points="254.1 69 445.7 401 62.1 401 254.1 69"/>
    <polygon id="polygon8" class="cls-3" points="288.5 374.7 288.5 194.3 253.2 158.7 217.5 194.3 217.5 240.4 128.4 336.9 149.9 357.1 217.5 284.3 217.5 374.7 288.5 374.7"/>
  </g>
</svg>