<?xml version="1.0" encoding="UTF-8" standalone="no"?>
<svg
   xmlns:dc="http://purl.org/dc/elements/1.1/"
   xmlns:cc="http://creativecommons.org/ns#"
   xmlns:rdf="http://www.w3.org/1999/02/22-rdf-syntax-ns#"
   xmlns:svg="http://www.w3.org/2000/svg"
   xmlns="http://www.w3.org/2000/svg"
   id="svg24"
   xml:space="preserve"
   viewBox="0 0 538.30487 473.40295"
   height="473.40295"
   width="538.30487"
   y="0px"
   x="0px"
   version="1.1"><metadata
   id="metadata30"><rdf:RDF><cc:Work
       rdf:about=""><dc:format>image/svg+xml</dc:format><dc:type
         rdf:resource="http://purl.org/dc/dcmitype/StillImage" /></cc:Work></rdf:RDF></metadata><defs
   id="defs28" />
<g
   transform="translate(-35.716209,-152.59703)"
   id="Kuvataso_1">
</g>
<g
   transform="translate(-35.716209,-152.59703)"
   id="_x30_">
</g>
<g
   transform="translate(-35.716209,-152.59703)"
   id="H4">
</g>
<g
   transform="translate(-35.716209,-152.59703)"
   id="H5">
</g>
<g
   transform="translate(-35.716209,-152.59703)"
   id="_x31_">
</g>
<g
   transform="translate(-35.716209,-152.59703)"
   id="_x33_">
	<g
   id="g21">
		<path
   id="path7"
   d="m 51.76,626 h 504.432 c 14.472,-2.232 20.232,-11.016 16.92,-26.496 L 323.992,163.328 c -9.504,-8.208 -18.504,-18.936 -38.376,-0.864 L 36.496,595.4 c -2.304,13.896 -0.144,26.568 15.264,30.6 z"
   style="clip-rule:evenodd;fill:#ffd200;fill-rule:evenodd" />
		<path
   id="path9"
   d="M 304.336,578.84 H 507.808 L 304.336,226.472 v -66.528 c 5.184,-0.216 10.44,2.376 14.256,7.488 82.656,143.136 164.448,288.216 247.104,431.28 4.824,12.816 -1.512,20.232 -10.8,20.664 l -250.56,0.432 V 578.84 Z m -203.4,0 h 203.4 v 40.968 l -249.624,0.36 c -8.64,-3.24 -12.672,-7.92 -12.888,-14.544 v -1.296 c 0.072,-1.8 0.36,-3.6 0.864,-5.616 L 290.584,169.088 c 3.6,-6.048 8.64,-9 13.752,-9.144 v 66.528 l -0.216,-0.36 z"
   style="clip-rule:evenodd;fill:#ef3e42;fill-rule:evenodd" />
		<path
   id="path11"
   d="m 304.552,289.328 c 23.904,0.288 43.344,19.872 43.344,43.776 0,23.976 -19.44,43.56 -43.344,43.848 v -11.016 0 c 17.928,0 32.544,-14.616 32.544,-32.544 0,-17.856 -14.616,-32.472 -32.544,-32.472 v 0 z m -0.504,0 c 0.216,0 0.36,0 0.504,0 v 11.592 c -17.784,0 -32.4,14.616 -32.4,32.472 0,17.928 14.616,32.544 32.4,32.544 v 11.016 c -0.144,0 -0.288,0 -0.504,0 -24.048,0 -43.704,-19.728 -43.704,-43.848 0,-24.12 19.656,-43.776 43.704,-43.776 z"
   style="clip-rule:evenodd;fill-rule:evenodd" />
		<path
   id="path13"
   d="m 304.552,366.08 c 18.072,0 32.76,-14.688 32.76,-32.76 0,-18.072 -14.688,-32.76 -32.76,-32.76 -18,0 -32.688,14.688 -32.688,32.76 0,18.072 14.688,32.76 32.688,32.76 z"
   style="clip-rule:evenodd;fill:#ef3e42;fill-rule:evenodd" />
		<path
   id="path15"
   d="m 304.552,385.16 c 23.904,0.288 43.344,19.8 43.344,43.704 0,23.976 -19.44,43.56 -43.344,43.776 v -10.944 0 c 17.928,0 32.544,-14.616 32.544,-32.544 0,-17.856 -14.616,-32.4 -32.544,-32.4 v 0 z m -0.504,0 c 0.216,0 0.36,0 0.504,0 v 11.592 c -17.784,0 -32.4,14.544 -32.4,32.4 0,17.928 14.616,32.544 32.4,32.544 v 10.944 c -0.144,0 -0.288,0.072 -0.504,0.072 -24.048,0 -43.704,-19.728 -43.704,-43.848 0,-24.048 19.656,-43.704 43.704,-43.704 z"
   style="clip-rule:evenodd;fill-rule:evenodd" />
		<path
   id="path17"
   d="m 304.552,480.488 c 23.904,0.288 43.344,19.872 43.344,43.776 0,23.976 -19.44,43.56 -43.344,43.848 v -11.016 0 c 17.928,0 32.544,-14.616 32.544,-32.544 0,-17.928 -14.616,-32.472 -32.544,-32.472 v 0 z m -0.504,0 c 0.216,0 0.36,0 0.504,0 v 11.592 c -17.784,0 -32.4,14.544 -32.4,32.472 0,17.928 14.616,32.544 32.4,32.544 v 11.016 c -0.144,0 -0.288,0 -0.504,0 -24.048,0 -43.704,-19.728 -43.704,-43.848 0,-24.12 19.656,-43.776 43.704,-43.776 z"
   style="clip-rule:evenodd;fill-rule:evenodd" />
		<path
   id="path19"
   d="m 304.552,557.24 c 18.072,0 32.76,-14.76 32.76,-32.76 0,-18.072 -14.688,-32.832 -32.76,-32.832 -18,0 -32.688,14.76 -32.688,32.832 0,18 14.688,32.76 32.688,32.76 z"
   style="clip-rule:evenodd;fill:#00a389;fill-rule:evenodd" />
	</g>
</g>
</svg>