<?xml version="1.0" encoding="UTF-8" standalone="no"?>
<svg
   xmlns:dc="http://purl.org/dc/elements/1.1/"
   xmlns:cc="http://creativecommons.org/ns#"
   xmlns:rdf="http://www.w3.org/1999/02/22-rdf-syntax-ns#"
   xmlns:svg="http://www.w3.org/2000/svg"
   xmlns="http://www.w3.org/2000/svg"
   id="svg19"
   xml:space="preserve"
   viewBox="0 0 538.30487 473.40295"
   height="473.40295"
   width="538.30487"
   y="0px"
   x="0px"
   version="1.1"><metadata
   id="metadata25"><rdf:RDF><cc:Work
       rdf:about=""><dc:format>image/svg+xml</dc:format><dc:type
         rdf:resource="http://purl.org/dc/dcmitype/StillImage" /></cc:Work></rdf:RDF></metadata><defs
   id="defs23" />
<g
   transform="translate(-35.716209,-152.59703)"
   id="Kuvataso_1">
</g>
<g
   transform="translate(-35.716209,-152.59703)"
   id="_x30_">
</g>
<g
   transform="translate(-35.716209,-152.59703)"
   id="H4">
</g>
<g
   transform="translate(-35.716209,-152.59703)"
   id="H5">
</g>
<g
   transform="translate(-35.716209,-152.59703)"
   id="_x33_">
	<g
   id="g16">
		<path
   id="path6"
   d="m 51.76,626 h 504.432 c 14.472,-2.232 20.232,-11.016 16.92,-26.496 L 323.992,163.328 c -9.504,-8.208 -18.504,-18.936 -38.376,-0.864 L 36.496,595.4 c -2.304,13.896 -0.144,26.568 15.264,30.6 z"
   style="clip-rule:evenodd;fill:#ffd200;fill-rule:evenodd" />
		<path
   id="path8"
   d="M 304.336,578.84 H 507.808 L 304.336,226.472 v -66.528 c 5.184,-0.216 10.44,2.376 14.256,7.488 82.656,143.136 164.448,288.216 247.104,431.28 4.824,12.816 -1.512,20.232 -10.8,20.664 l -250.56,0.432 V 578.84 Z m -203.4,0 h 203.4 v 40.968 l -249.624,0.36 c -8.64,-3.24 -12.672,-7.92 -12.888,-14.544 v -1.296 c 0.072,-1.8 0.36,-3.6 0.864,-5.616 L 290.584,169.088 c 3.6,-6.048 8.64,-9 13.752,-9.144 v 66.528 l -0.216,-0.36 z"
   style="clip-rule:evenodd;fill:#ef3e42;fill-rule:evenodd" />
		<g
   id="g12">
			<path
   id="path10"
   d="M 415.072,537.224 V 494.6 h 13.608 l -8.64,-32.04 h -4.968 v -9.576 h 9.576 l 10.512,40.608 v 29.808 13.824 z m 0,-84.24 v 9.576 H 401.68 l -0.216,0.144 V 494.6 h 13.608 v 42.624 H 403.48 c -1.224,4.896 -10.152,17.208 -23.04,3.672 -0.432,0 -0.792,0 -1.224,0 v -46.44 h 15.336 c 0.36,0 0.648,-0.288 0.648,-0.576 v -31.032 c 0,-0.36 -0.288,-0.648 -0.648,-0.648 h -15.336 v -9.216 z m -35.856,0 V 462.2 H 363.88 c -0.36,0 -0.648,0.288 -0.648,0.648 v 31.032 c 0,0.288 0.288,0.576 0.648,0.576 h 15.336 v 46.44 c -1.8,0.072 -3.888,0.288 -5.544,0.288 -7.056,10.152 -16.272,6.192 -21.528,-0.288 h -11.232 v -46.08 h 15.192 c 0.36,0 0.648,-0.288 0.648,-0.648 v -30.96 c 0,-0.36 -0.288,-0.648 -0.648,-0.648 h -15.192 v -9.576 z m -38.304,0 v 9.576 h -15.264 c -0.288,0 -0.576,0.288 -0.576,0.648 v 30.96 c 0,0.36 0.288,0.648 0.576,0.648 h 15.264 v 46.08 h -38.304 v -46.44 h 15.48 c 0.36,0 0.648,-0.288 0.648,-0.648 v -30.96 c 0,-0.36 -0.288,-0.648 -0.648,-0.648 h -15.48 v -9.216 z M 302.608,431.6 v -13.032 l 9.576,6.48 z m -31.464,-27.072 28.8,19.584 -29.448,21.24 v 17.28 h 9.072 c 0.36,0 0.648,0.288 0.648,0.648 v 31.032 c 0,0.36 -0.288,0.648 -0.648,0.648 h -9.072 v 45.936 h 32.112 v -46.44 H 287.2 c -0.36,0 -0.648,-0.288 -0.648,-0.648 v -30.96 c 0,-0.36 0.288,-0.648 0.648,-0.648 h 15.408 v -9.216 h -25.056 v -4.248 L 302.608,431.6 v -13.032 l -31.824,-21.744 -0.288,0.216 v 7.92 z m -0.648,40.824 -29.52,-20.592 29.52,-19.8 v -7.92 l -40.896,27.72 33.552,23.616 v 4.32 h -37.08 v 9.864 h 15.48 c 0.36,0 0.648,0.288 0.648,0.648 v 30.96 c 0,0.36 -0.288,0.648 -0.648,0.648 h -15.48 v 46.08 c 2.376,0 4.824,0 7.2,0 9.36,11.088 19.008,4.896 21.24,0 h 15.984 V 494.96 h -21.888 c -0.36,0 -0.648,-0.288 -0.648,-0.648 V 463.28 c 0,-0.36 0.288,-0.648 0.648,-0.648 h 21.888 z m -44.424,7.344 v 9.864 h -15.48 c -0.36,0 -0.648,0.288 -0.648,0.648 v 30.96 c 0,0.36 0.288,0.648 0.648,0.648 h 15.48 v 46.08 c -0.144,0 -0.288,0 -0.504,0 -1.296,3.456 -15.552,13.392 -23.256,-3.384 l -11.88,0.144 v -42.84 h 13.392 v -32.4 l -0.216,-0.216 h -13.176 v -9.504 z m -35.64,0 v 9.504 h -4.896 l -8.496,32.616 h 13.392 v 42.84 l -20.088,0.144 v -41.76 l 12.24,-43.344 z"
   style="clip-rule:evenodd;fill-rule:evenodd" />
		</g>
		<path
   id="path14"
   d="M 150.544,556.592 H 456.76 c 0.072,0 0.216,-0.144 0.216,-0.216 v -8.856 c 0,-0.072 -0.144,-0.144 -0.216,-0.144 H 150.544 c -0.144,0 -0.216,0.072 -0.216,0.144 v 8.856 c 0,0.072 0.072,0.216 0.216,0.216 z"
   style="clip-rule:evenodd;fill-rule:evenodd" />
	</g>
</g>
</svg>