<?xml version="1.0" encoding="UTF-8" standalone="no"?>
<svg
   xmlns:dc="http://purl.org/dc/elements/1.1/"
   xmlns:cc="http://creativecommons.org/ns#"
   xmlns:rdf="http://www.w3.org/1999/02/22-rdf-syntax-ns#"
   xmlns:svg="http://www.w3.org/2000/svg"
   xmlns="http://www.w3.org/2000/svg"
   id="svg10"
   xml:space="preserve"
   viewBox="0 0 537.88892 341.44006"
   height="341.44006"
   width="537.88892"
   y="0px"
   x="0px"
   version="1.1"><metadata
   id="metadata16"><rdf:RDF><cc:Work
       rdf:about=""><dc:format>image/svg+xml</dc:format><dc:type
         rdf:resource="http://purl.org/dc/dcmitype/StillImage" /></cc:Work></rdf:RDF></metadata><defs
   id="defs14" />
<g
   transform="translate(-37.515107,-224.70002)"
   id="Kuvataso_1">
</g>
<g
   transform="translate(-37.515107,-224.70002)"
   id="_x30_">
</g>
<g
   transform="translate(-37.515107,-224.70002)"
   id="H5">
</g>
<g
   transform="translate(-37.515107,-224.70002)"
   id="H4">
	
		<polygon
   id="polygon5"
   points="307.216,347.936 519.112,224.816 575.272,239.936 560.224,296.528 388.216,395.528 559.504,494.096 575.2,550.976 520.264,565.52 307.144,443.12 94.816,566.024 37.648,550.4 52.768,494.384 224.272,395.528 53.272,296.96 37.648,241.016 93.808,224.96 "
   style="clip-rule:evenodd;fill:#ef3e42;fill-rule:evenodd;stroke:#ef3e42;stroke-width:0.21600001;stroke-miterlimit:10" />
	
		<polygon
   id="polygon7"
   points="305.416,367.592 520.264,242.168 555.112,251.168 545.536,286.592 358.912,395.672 545.536,505.256 554.536,540.176 520.264,548.024 304.84,425.264 90.064,548.6 55.792,539.6 65.368,504.752 255.592,394.664 65.368,286.016 55.792,251.168 90.64,242.744 "
   style="clip-rule:evenodd;fill:#ffd200;fill-rule:evenodd;stroke:#ffd520;stroke-width:0.21600001;stroke-miterlimit:10" />
</g>
</svg>