<?xml version="1.0" encoding="UTF-8" standalone="no"?>
<svg
   xmlns:dc="http://purl.org/dc/elements/1.1/"
   xmlns:cc="http://creativecommons.org/ns#"
   xmlns:rdf="http://www.w3.org/1999/02/22-rdf-syntax-ns#"
   xmlns:svg="http://www.w3.org/2000/svg"
   xmlns="http://www.w3.org/2000/svg"
   id="svg14"
   xml:space="preserve"
   viewBox="0 0 540.5506 498.04077"
   height="498.04077"
   width="540.5506"
   y="0px"
   x="0px"
   version="1.1"><metadata
   id="metadata20"><rdf:RDF><cc:Work
       rdf:about=""><dc:format>image/svg+xml</dc:format><dc:type
         rdf:resource="http://purl.org/dc/dcmitype/StillImage" /></cc:Work></rdf:RDF></metadata><defs
   id="defs18" />
<g
   transform="translate(-34.924892,-163.57205)"
   id="Kuvataso_1">
</g>
<g
   transform="translate(-34.924892,-163.57205)"
   id="_x30_">
</g>
<g
   transform="translate(-34.924892,-163.57205)"
   id="H4">
</g>
<g
   transform="translate(-34.924892,-163.57205)"
   id="H5">
	
		<polygon
   id="polygon5"
   points="306.424,286.808 519.112,163.688 575.272,178.808 560.224,235.4 388.216,334.328 559.504,432.968 575.2,489.848 520.264,504.392 305.92,382.424 94.816,504.824 37.648,489.2 52.768,433.256 224.272,334.328 53.272,235.832 37.648,179.816 93.808,163.76 "
   style="clip-rule:evenodd;fill:#ef3e42;fill-rule:evenodd;stroke:#ef3e42;stroke-width:0.21600001;stroke-miterlimit:10" />
	
		<polygon
   id="polygon7"
   points="305.416,306.392 520.264,180.968 555.112,189.968 545.536,225.464 358.912,334.544 545.536,444.128 554.536,478.976 520.264,486.896 305.704,364.64 90.064,487.4 55.792,478.4 65.368,443.552 255.592,333.536 65.368,224.888 55.792,189.968 90.64,181.544 "
   style="clip-rule:evenodd;fill:#ffd200;fill-rule:evenodd;stroke:#ffd520;stroke-width:0.21600001;stroke-miterlimit:10" />
	
		<polygon
   id="polygon9"
   points="560.512,588.776 575.344,645.008 519.976,660.704 305.992,536.72 90.352,661.496 35.056,645.008 49.888,588.776 305.992,439.664 "
   style="clip-rule:evenodd;fill:#ef3e42;fill-rule:evenodd;stroke:#ef3e42;stroke-width:0.21600001;stroke-miterlimit:10" />
	
		<polygon
   id="polygon11"
   points="547.264,599.504 555.544,634.208 520.84,642.488 305.56,517.712 88.696,643.352 54.856,634.208 64.792,598.712 305.992,459.896 "
   style="clip-rule:evenodd;fill:#ffd200;fill-rule:evenodd;stroke:#ffd520;stroke-width:0.21600001;stroke-miterlimit:10" />
</g>
</svg>