<?xml version="1.0" encoding="UTF-8" standalone="no"?>
<svg
   xmlns:dc="http://purl.org/dc/elements/1.1/"
   xmlns:cc="http://creativecommons.org/ns#"
   xmlns:rdf="http://www.w3.org/1999/02/22-rdf-syntax-ns#"
   xmlns:svg="http://www.w3.org/2000/svg"
   xmlns="http://www.w3.org/2000/svg"
   id="svg15"
   xml:space="preserve"
   viewBox="0 0 538.30487 473.40295"
   height="473.40295"
   width="538.30487"
   y="0px"
   x="0px"
   version="1.1"><metadata
   id="metadata21"><rdf:RDF><cc:Work
       rdf:about=""><dc:format>image/svg+xml</dc:format><dc:type
         rdf:resource="http://purl.org/dc/dcmitype/StillImage" /></cc:Work></rdf:RDF></metadata><defs
   id="defs19" />
<g
   transform="translate(-30.748209,-152.59703)"
   id="Kuvataso_1">
</g>
<g
   transform="translate(-30.748209,-152.59703)"
   id="_x30_">
</g>
<g
   transform="translate(-30.748209,-152.59703)"
   id="_x33_">
</g>
<g
   transform="translate(-30.748209,-152.59703)"
   id="H4">
</g>
<g
   transform="translate(-30.748209,-152.59703)"
   id="H5">
	<g
   id="g12">
		<path
   id="path6"
   d="m 46.792,626 h 504.432 c 14.472,-2.232 20.232,-11.016 16.92,-26.496 L 319.024,163.328 c -9.432,-8.208 -18.504,-18.936 -38.376,-0.864 L 31.528,595.4 c -2.304,13.896 -0.144,26.568 15.264,30.6 z"
   style="clip-rule:evenodd;fill:#ffd520;fill-rule:evenodd" />
		<path
   id="path8"
   d="M 299.368,578.84 H 502.84 L 299.368,226.472 v -66.528 c 5.256,-0.216 10.512,2.376 14.256,7.488 82.656,143.136 164.448,288.216 247.104,431.28 4.824,12.816 -1.512,20.232 -10.728,20.664 l -250.632,0.432 V 578.84 Z m -203.4,0 h 203.4 v 40.968 l -249.624,0.36 c -8.568,-3.24 -12.672,-7.92 -12.888,-14.544 v -1.296 c 0.072,-1.8 0.36,-3.6 0.864,-5.616 L 285.616,169.088 c 3.6,-6.048 8.712,-9 13.752,-9.144 v 66.528 l -0.144,-0.36 z"
   style="clip-rule:evenodd;fill:#ef3e42;fill-rule:evenodd" />
		<polygon
   id="polygon10"
   points="259.192,451.112 311.248,375.08 334.432,375.08 310.816,425.912 310.816,451.904 374.536,461.048 391.096,434.12 400.6,434.12 393.544,463.496 408.016,466.808 393.544,470.12 400.168,499.064 391.456,499.064 374.104,473 311.248,482.144 311.248,509 333.208,557.816 310.456,557.816 258.832,481.712 214.984,481.712 176.104,466.448 216.64,451.112 "
   style="clip-rule:evenodd;fill-rule:evenodd" />
	</g>
</g>
</svg>