<?xml version="1.0" encoding="UTF-8" standalone="no"?>
<svg
   xmlns:dc="http://purl.org/dc/elements/1.1/"
   xmlns:cc="http://creativecommons.org/ns#"
   xmlns:rdf="http://www.w3.org/1999/02/22-rdf-syntax-ns#"
   xmlns:svg="http://www.w3.org/2000/svg"
   xmlns="http://www.w3.org/2000/svg"
   id="svg18"
   xml:space="preserve"
   viewBox="0 0 538.30414 473.35651"
   height="473.35651"
   width="538.30414"
   y="0px"
   x="0px"
   version="1.1"><metadata
   id="metadata24"><rdf:RDF><cc:Work
       rdf:about=""><dc:format>image/svg+xml</dc:format><dc:type
         rdf:resource="http://purl.org/dc/dcmitype/StillImage" /></cc:Work></rdf:RDF></metadata><defs
   id="defs22" />
<g
   transform="translate(-53.428906,-153.3635)"
   id="Kuvataso_1">
</g>
<g
   transform="translate(-53.428906,-153.3635)"
   id="_x30_">
</g>
<g
   transform="translate(-53.428906,-153.3635)"
   id="H4">
</g>
<g
   transform="translate(-53.428906,-153.3635)"
   id="H5">
	<g
   id="g15">
		<path
   id="path5"
   d="m 69.544,626.72 h 504.36 c 14.472,-2.16 20.232,-11.016 16.92,-26.424 L 341.704,164.048 C 332.272,155.84 323.2,145.184 303.328,163.256 L 54.208,596.192 c -2.304,13.896 -0.144,26.568 15.336,30.528 z"
   style="clip-rule:evenodd;fill:#ffd200;fill-rule:evenodd" />
		<path
   id="path7"
   d="M 322.12,579.632 H 525.592 L 322.12,227.264 v -66.6 c 5.184,-0.144 10.44,2.448 14.256,7.56 82.584,143.064 164.376,288.144 247.032,431.208 4.824,12.816 -1.512,20.304 -10.728,20.664 l -250.56,0.432 z m -203.4,0 h 203.4 v 40.896 L 72.424,620.96 c -8.568,-3.24 -12.6,-7.92 -12.888,-14.544 v -1.368 c 0.072,-1.728 0.36,-3.6 0.864,-5.544 L 308.224,169.88 c 3.6,-6.048 8.712,-9 13.896,-9.216 v 66.6 l -0.216,-0.36 z"
   style="clip-rule:evenodd;fill:#ef3e42;fill-rule:evenodd" />
		<g
   id="g13">
			<path
   id="path9"
   d="m 321.256,564.8 c 12.528,0 22.752,-10.152 22.752,-22.68 0,-12.528 -10.224,-22.752 -22.752,-22.752 -12.528,0 -22.68,10.224 -22.68,22.752 0,12.528 10.152,22.68 22.68,22.68 z"
   style="clip-rule:evenodd;fill-rule:evenodd" />
			<path
   id="path11"
   d="m 310.096,487.184 c -4.248,-53.712 -7.416,-105.192 -10.728,-157.752 -0.432,-16.992 33.84,-36.36 44.64,0 -3.888,52.272 -7.704,104.544 -11.592,156.888 0.936,10.584 -18,16.344 -22.32,0.864 z"
   style="clip-rule:evenodd;fill-rule:evenodd" />
		</g>
	</g>
</g>
</svg>