<?xml version="1.0" encoding="UTF-8" standalone="no"?>
<svg
   xmlns:dc="http://purl.org/dc/elements/1.1/"
   xmlns:cc="http://creativecommons.org/ns#"
   xmlns:rdf="http://www.w3.org/1999/02/22-rdf-syntax-ns#"
   xmlns:svg="http://www.w3.org/2000/svg"
   xmlns="http://www.w3.org/2000/svg"
   version="1.1"
   id="_x30_"
   x="0px"
   y="0px"
   width="541.008"
   height="539.35199"
   viewBox="0 0 541.008 539.35199"
   xml:space="preserve"><defs
   id="defs10">
	
	
	
</defs><metadata
   id="metadata15"><rdf:RDF><cc:Work
       rdf:about=""><dc:format>image/svg+xml</dc:format><dc:type
         rdf:resource="http://purl.org/dc/dcmitype/StillImage" /></cc:Work></rdf:RDF></metadata><path
   id="white_background"
   d="M 270.50781 -0.7734375 L 270.50781 -0.63867188 L -0.70898438 269.71289 L 270.50781 539.99023 L 270.50781 540.125 L 270.57617 540.05859 L 271.36133 539.27344 L 271.50781 539.12695 L 541.7168 269.71289 L 271.50781 0.22460938 L 271.36133 0.078125 L 271.24023 -0.04296875 L 270.57617 -0.70703125 L 270.50781 -0.7734375 z "
   style="fill:#ffffff;fill-opacity:1;stroke:none" /><g
   id="g8"
   transform="translate(-21.376,-148.856)">
	<path
   style="clip-rule:evenodd;fill-rule:evenodd"
   d="M 292.384,224.096 486.64,418.424 292.384,612.752 v 8.424 l 0.432,0.432 202.752,-202.68 -202.752,-202.824 -0.432,0.432 z m 0,463.68 V 665.528 L 540.136,418.784 292.384,172.04 v -22.752 l 270,269.28 z M 98.056,418.424 292.384,224.096 v -7.56 L 89.992,418.928 292.384,621.176 v -8.424 z M 292.384,149.288 v 22.752 l -0.504,-0.504 -248.328,247.248 248.328,247.248 0.504,-0.504 v 22.248 l -0.432,0.432 L 21.376,418.568 291.952,148.856 Z"
   id="path2" />
	<polygon
   style="clip-rule:evenodd;fill:#ffd520;fill-rule:evenodd"
   points="487.144,418.568 292.816,612.968 98.344,418.568 292.816,224.168 "
   id="polygon4" />
	<polygon
   style="clip-rule:evenodd;fill-rule:evenodd"
   points="390.952,267.224 141.04,517.208 194.176,570.416 444.16,320.432 "
   id="polygon6" />
</g>
</svg>