<?xml version="1.0" encoding="UTF-8" standalone="no"?>
<svg
   xmlns:dc="http://purl.org/dc/elements/1.1/"
   xmlns:cc="http://creativecommons.org/ns#"
   xmlns:rdf="http://www.w3.org/1999/02/22-rdf-syntax-ns#"
   xmlns:svg="http://www.w3.org/2000/svg"
   xmlns="http://www.w3.org/2000/svg"
   xml:space="preserve"
   enable-background="new 0 0 595 842"
   viewBox="0 0 475.34 475.772"
   height="475.772"
   width="475.34"
   y="0px"
   x="0px"
   id="Kuvataso_2"
   version="1.0"><metadata
   id="metadata19"><rdf:RDF><cc:Work
       rdf:about=""><dc:format>image/svg+xml</dc:format><dc:type
         rdf:resource="http://purl.org/dc/dcmitype/StillImage" /></cc:Work></rdf:RDF></metadata><defs
   id="defs17" />
<path
id="white_background"
d="M 39.634766 -0.25 C 37.236125 -0.25 34.909142 -0.038685 32.623047 0.25390625 L -0.25 0.25390625 L -0.25 476.02148 L 39.634766 476.02148 L 237.63477 476.02148 L 435.5625 476.02148 L 475.58984 476.02148 L 475.58984 0.25390625 L 442.57422 0.25390625 C 440.28812 -0.038685 437.96114 -0.25 435.5625 -0.25 L 238.13477 -0.25 L 237.13477 -0.25 L 39.634766 -0.25 z "
style="fill:#ffffff;fill-opacity:1;stroke:none" />
<g
   transform="translate(-56.766,-148.246)"
   id="g12">
	<g
   id="g6">
		<path
   style="clip-rule:evenodd;fill:#007ac2;fill-rule:evenodd"
   id="path2"
   d="m 294.4,148.496 h 197.928 c 21.6,0 39.312,12.456 39.312,28.584 v 417.384 c 0,16.128 -17.712,29.304 -39.312,29.304 H 294.4 v 0 H 531.856 V 149 H 294.4 Z m -198,0 h 198 V 149 H 57.016 V 623.768 H 294.4 v 0 h -198 c -21.6,0 -39.312,-13.176 -39.312,-29.304 V 177.08 c 0,-16.128 17.712,-28.584 39.312,-28.584 z" />
		<path
   style="clip-rule:evenodd;fill:none;fill-rule:evenodd;stroke:#007ac2;stroke-width:0.5;stroke-miterlimit:10"
   id="path4"
   d="m 96.4,148.496 h 395.928 c 21.6,0 39.312,12.456 39.312,28.584 v 417.384 c 0,16.128 -17.712,29.304 -39.312,29.304 H 96.4 c -21.6,0 -39.312,-13.176 -39.312,-29.304 V 177.08 c 0,-16.128 17.712,-28.584 39.312,-28.584 z M 57.016,149 h 474.84 V 623.768 H 57.016 Z"
   stroke-miterlimit="10" />
	</g>
	<path
   style="clip-rule:evenodd;fill:#0079c1;fill-rule:evenodd"
   id="path8"
   d="m 377.344,539.456 h 20.304 l -0.504,-236.376 51.408,-0.504 -70.704,-70.704 -0.504,0.504 v -68.76 h 118.512 c 10.944,0 19.944,6.696 19.944,14.832 v 414.648 c 0,8.208 -9,14.832 -19.944,14.832 H 377.344 Z m -19.512,0 h 19.512 v 68.472 H 92.8 c -10.944,0 -19.944,-6.624 -19.944,-14.832 V 178.448 c 0,-8.136 9,-14.832 19.944,-14.832 h 284.544 v 68.76 l -71.28,69.696 H 357.4 Z" />
	<polygon
   style="clip-rule:evenodd;fill:#ef3e42;fill-rule:evenodd"
   id="polygon10"
   points="231.832,469.4 282.232,469.4 211.528,540.104 140.752,468.824 191.584,468.824 191.584,232.448 231.328,232.448 " />
</g>
</svg>
