<?xml version="1.0" encoding="UTF-8" standalone="no"?>
<svg
   xmlns:dc="http://purl.org/dc/elements/1.1/"
   xmlns:cc="http://creativecommons.org/ns#"
   xmlns:rdf="http://www.w3.org/1999/02/22-rdf-syntax-ns#"
   xmlns:svg="http://www.w3.org/2000/svg"
   xmlns="http://www.w3.org/2000/svg"
   xml:space="preserve"
   enable-background="new 0 0 595 842"
   viewBox="0 0 472.67999 472.608"
   height="472.608"
   width="472.67999"
   y="0px"
   x="0px"
   id="_x30_"
   version="1.0"><metadata
   id="metadata19"><rdf:RDF><cc:Work
       rdf:about=""><dc:format>image/svg+xml</dc:format><dc:type
         rdf:resource="http://purl.org/dc/dcmitype/StillImage" /></cc:Work></rdf:RDF></metadata><defs
   id="defs17" />
<g
   transform="translate(-35.704,-151.232)"
   id="g12">
	<path
   style="clip-rule:evenodd;fill:#ffd520;fill-rule:evenodd"
   id="path2"
   d="m 272.08,623.84 c 130.104,0 236.304,-106.2 236.304,-236.304 0,-130.176 -106.2,-236.304 -236.304,-236.304 -130.176,0 -236.376,106.128 -236.376,236.304 0,130.104 106.2,236.304 236.376,236.304 z" />
	<path
   style="clip-rule:evenodd;fill:#ef3e42;fill-rule:evenodd"
   id="path4"
   d="m 272.08,615.848 c 125.712,0 228.312,-102.6 228.312,-228.312 0,-125.784 -102.6,-228.384 -228.312,-228.384 -125.784,0 -228.384,102.6 -228.384,228.384 0,125.712 102.6,228.312 228.384,228.312 z" />
	<path
   style="clip-rule:evenodd;fill:#ffd520;fill-rule:evenodd"
   id="path6"
   d="m 272.08,568.76 c 99.72,0 181.152,-81.432 181.152,-181.224 0,-99.792 -81.432,-181.224 -181.152,-181.224 -99.864,0 -181.224,81.432 -181.224,181.224 0,99.792 81.36,181.224 181.224,181.224 z" />
	<polygon
   style="clip-rule:evenodd;fill:#ef3e42;fill-rule:evenodd"
   id="polygon8"
   points="327.808,324.752 279.352,324.752 345.304,258.656 412.048,325.472 364.168,325.472 364.96,517.424 327.808,517.424 " />
	<polygon
   style="clip-rule:evenodd;fill-rule:evenodd"
   id="polygon10"
   points="179.56,451.4 130.96,451.4 197.056,517.424 263.8,450.68 215.848,450.68 216.64,258.656 179.56,258.656 " />
</g>
</svg>