<?xml version="1.0" encoding="UTF-8" standalone="no"?>
<svg
   xmlns:dc="http://purl.org/dc/elements/1.1/"
   xmlns:cc="http://creativecommons.org/ns#"
   xmlns:rdf="http://www.w3.org/1999/02/22-rdf-syntax-ns#"
   xmlns:svg="http://www.w3.org/2000/svg"
   xmlns="http://www.w3.org/2000/svg"
   id="svg25"
   xml:space="preserve"
   enable-background="new 0 0 595 842"
   viewBox="0 0 543.08813 547.55219"
   height="547.55219"
   width="543.08813"
   y="0px"
   x="0px"
   version="1.0"><metadata
   id="metadata31"><rdf:RDF><cc:Work
       rdf:about=""><dc:format>image/svg+xml</dc:format><dc:type
         rdf:resource="http://purl.org/dc/dcmitype/StillImage" /></cc:Work></rdf:RDF></metadata><defs
   id="defs29" />
<g
   transform="translate(-30.30792,-148.78792)"
   id="Kuvataso_1">
</g>
<g
   transform="translate(-30.30792,-148.78792)"
   id="_x30_">
</g>
<g
   transform="translate(-30.30792,-148.78792)"
   id="H1">
	<g
   id="g22">
		
			<polygon
   style="clip-rule:evenodd;fill:none;fill-rule:evenodd;stroke:#ef3e42;stroke-width:1.00010002;stroke-miterlimit:10"
   id="polygon4"
   points="491.392,227.192 571.456,309.344 572.896,419.576 571.96,534.632 495.712,613.616 414.208,694.4 304.912,695.84 190.72,694.904 112.384,618.008 32.32,535.856 30.808,425.624 31.816,310.496 108.064,231.512 189.568,150.8 298.792,149.288 413.056,150.296 "
   stroke-miterlimit="10" />
		<polygon
   style="clip-rule:evenodd;fill:#ef3e42;fill-rule:evenodd"
   id="polygon6"
   points="474.904,247.496 547.48,320.504 548.056,420.368 547.408,522.824 476.776,593.816 403.264,665.888 302.68,666.464 199.504,665.816 128.008,595.616 55.432,522.608 54.856,422.816 55.504,320.36 126.208,249.296 199.72,177.296 300.16,176.72 403.408,177.368 " />
		<g
   id="g20">
			<path
   style="clip-rule:evenodd;fill:#ffffff;fill-rule:evenodd"
   id="path8"
   d="m 149.104,377.744 c 8.568,0 17.064,0 25.632,0 -1.152,-14.328 -5.544,-43.488 -46.728,-45.432 -11.376,3.024 -38.52,3.6 -44.136,45 2.16,14.184 -1.008,22.608 19.008,38.88 l 43.776,23.04 c 4.68,5.256 11.016,7.128 10.296,23.112 -2.448,7.848 -0.792,20.664 -27.288,23.544 -10.872,-1.944 -22.968,-5.904 -25.2,-25.632 l -25.992,-0.36 c 1.8,16.056 7.704,50.4 52.488,51.984 19.872,-2.304 48.816,-9.216 52.416,-49.104 -0.648,-15.408 -2.52,-33.336 -24.336,-46.224 -13.68,-7.56 -27.288,-15.12 -40.896,-22.68 -4.68,-4.536 -7.704,-10.296 -7.848,-17.352 1.944,-7.272 5.112,-17.928 19.368,-18.144 9,1.872 17.928,3.384 19.44,19.368 z" />
			<polygon
   style="clip-rule:evenodd;fill:#ffffff;fill-rule:evenodd"
   id="polygon10"
   points="286.624,359.312 251.128,359.312 251.128,511.016 226.576,511.016 226.576,359.24 191.656,359.24 191.656,333.248 286.912,333.248 286.336,332.96 " />
			<path
   style="clip-rule:evenodd;fill:#ffffff;fill-rule:evenodd"
   id="path12"
   d="m 396.928,377.528 0.36,-0.288 c 0.432,25.776 -0.216,63.288 -0.36,94.968 0.36,34.56 -71.784,67.176 -92.88,1.44 l -0.144,-99.144 c 1.656,-9.216 3.672,-15.912 8.136,-22.536 10.584,-13.248 23.544,-19.224 38.952,-19.584 8.136,-0.144 16.632,1.872 28.44,10.08 3.528,2.448 11.808,13.608 15.912,22.104 z" />
			<path
   style="clip-rule:evenodd;fill:#ef3e42;fill-rule:evenodd"
   id="path14"
   d="m 329.464,376.808 v 90.648 c 3.816,7.416 3.528,17.28 21.24,18 8.64,-1.152 21.096,-6.408 19.656,-19.656 v -88.704 c 0.648,-7.488 -6.12,-17.28 -20.232,-18.864 -6.912,1.44 -17.352,2.376 -20.664,18.576 z" />
			<path
   style="clip-rule:evenodd;fill:#ffffff;fill-rule:evenodd"
   id="path16"
   d="M 433.72,511.16 V 332.528 h 51.984 c 20.592,4.608 37.872,11.952 44.568,45.792 -3.096,18.216 -5.112,41.112 -43.416,49.536 h -28.368 v 83.304 z" />
			<path
   style="clip-rule:evenodd;fill:#ef3e42;fill-rule:evenodd"
   id="path18"
   d="m 460,358.52 h 24.552 c 6.984,2.232 14.544,3.024 18.288,20.952 -2.016,7.776 -0.72,17.928 -19.224,21.6 H 460 Z" />
		</g>
	</g>
</g>
</svg>