<?xml version="1.0" encoding="UTF-8" standalone="no"?>
<svg
   xmlns:dc="http://purl.org/dc/elements/1.1/"
   xmlns:cc="http://creativecommons.org/ns#"
   xmlns:rdf="http://www.w3.org/1999/02/22-rdf-syntax-ns#"
   xmlns:svg="http://www.w3.org/2000/svg"
   xmlns="http://www.w3.org/2000/svg"
   id="svg16"
   xml:space="preserve"
   enable-background="new 0 0 595 842"
   viewBox="0 0 492.69601 492.69601"
   height="492.69601"
   width="492.69601"
   y="0px"
   x="0px"
   version="1.0"><metadata
   id="metadata22"><rdf:RDF><cc:Work
       rdf:about=""><dc:format>image/svg+xml</dc:format><dc:type
         rdf:resource="http://purl.org/dc/dcmitype/StillImage" /></cc:Work></rdf:RDF></metadata><defs
   id="defs20" />
<g
   transform="translate(-51.076,-131.756)"
   id="Kuvataso_1">
</g>
<g
   transform="translate(-51.076,-131.756)"
   id="_x30_">
</g>
<g
   transform="translate(-51.076,-131.756)"
   id="H1">
</g>
<g
   transform="translate(-51.076,-131.756)"
   id="H2">
	<g
   id="g13">
		<path
   style="clip-rule:evenodd;fill:#ffd520;fill-rule:evenodd;stroke:#ffd520;stroke-width:0.21600001;stroke-miterlimit:10"
   id="path5"
   d="m 297.496,624.344 c 135.576,0 246.168,-110.592 246.168,-246.168 0,-135.648 -110.592,-246.312 -246.168,-246.312 -135.648,0 -246.312,110.664 -246.312,246.312 0,135.576 110.664,246.168 246.312,246.168 z"
   stroke-miterlimit="10" />
		<g
   id="g11">
			<path
   style="clip-rule:evenodd;fill:#ef3e42;fill-rule:evenodd"
   id="path7"
   d="m 297.424,226.976 c 82.8,0 150.336,67.536 150.336,150.408 0,82.728 -67.536,150.336 -150.336,150.336 v 86.328 C 427.6,613.904 533.728,507.704 533.728,377.528 533.728,247.352 427.6,141.08 297.424,141.008 Z m 0,300.744 c -82.8,0 -150.408,-67.608 -150.408,-150.336 0,-82.872 67.608,-150.408 150.408,-150.408 v -85.968 c -0.072,0 -0.072,0 -0.144,0 -130.32,0 -236.592,106.272 -236.592,236.52 0,130.248 106.272,236.52 236.592,236.52 0.072,0 0.072,0 0.144,0 z" />
			<path
   style="clip-rule:evenodd;fill:none;fill-rule:evenodd;stroke:#ef3e42;stroke-width:0.21600001;stroke-miterlimit:10"
   id="path9"
   d="m 297.424,226.976 c 82.8,0 150.336,67.536 150.336,150.408 0,82.728 -67.536,150.336 -150.336,150.336 -82.8,0 -150.408,-67.608 -150.408,-150.336 0,-82.872 67.608,-150.408 150.408,-150.408 z m -0.144,-85.968 c 130.176,0 236.448,106.272 236.448,236.52 0,130.248 -106.272,236.52 -236.448,236.52 -130.32,0 -236.592,-106.272 -236.592,-236.52 0,-130.248 106.272,-236.52 236.592,-236.52 z"
   stroke-miterlimit="10" />
		</g>
	</g>
</g>
</svg>