<?xml version="1.0" encoding="UTF-8" standalone="no"?>
<svg
   xmlns:dc="http://purl.org/dc/elements/1.1/"
   xmlns:cc="http://creativecommons.org/ns#"
   xmlns:rdf="http://www.w3.org/1999/02/22-rdf-syntax-ns#"
   xmlns:svg="http://www.w3.org/2000/svg"
   xmlns="http://www.w3.org/2000/svg"
   xml:space="preserve"
   enable-background="new 0 0 595 842"
   viewBox="0 0 493.92001 493.84799"
   height="493.84799"
   width="493.92001"
   y="0px"
   x="0px"
   id="Kuvataso_1"
   version="1.0"><metadata
   id="metadata31"><rdf:RDF><cc:Work
       rdf:about=""><dc:format>image/svg+xml</dc:format><dc:type
         rdf:resource="http://purl.org/dc/dcmitype/StillImage" /></cc:Work></rdf:RDF></metadata><defs
   id="defs29" />
<g
   transform="translate(-29.008,-125.456)"
   id="g24">
	<path
   style="clip-rule:evenodd;fill:#ffd520;fill-rule:evenodd"
   id="path2"
   d="m 275.968,619.304 c 136.008,0 246.96,-110.952 246.96,-246.888 0,-136.008 -110.952,-246.96 -246.96,-246.96 -136.008,0 -246.96,110.952 -246.96,246.96 0,135.936 110.952,246.888 246.96,246.888 z" />
	<g
   id="g8">
		<path
   style="clip-rule:evenodd;fill-rule:evenodd"
   id="path4"
   d="m 349.48,437.576 c 11.592,0 21.024,-9.432 21.024,-20.88 0,-11.592 -9.432,-21.024 -21.024,-21.024 -11.52,0 -20.952,9.432 -20.952,21.024 0,11.448 9.432,20.88 20.952,20.88 z" />
		<path
   style="clip-rule:evenodd;fill:#ffd520;fill-rule:evenodd"
   id="path6"
   d="m 349.48,425.84 c 5.112,0 9.216,-4.176 9.216,-9.144 0,-5.112 -4.104,-9.216 -9.216,-9.216 -5.04,0 -9.216,4.104 -9.216,9.216 0,4.968 4.176,9.144 9.216,9.144 z" />
	</g>
	<path
   style="clip-rule:evenodd;fill:#ef3e42;fill-rule:evenodd"
   id="path10"
   d="m 277.264,135.536 c 130.248,0 236.52,106.272 236.52,236.592 0,130.176 -106.272,236.448 -236.52,236.448 v -47.808 c 103.896,0 188.64,-84.816 188.64,-188.64 0,-103.968 -84.744,-188.712 -188.64,-188.712 z m 0,266.904 117.792,117 10.944,-9.792 7.632,-7.416 7.92,-8.64 -144.288,-144.216 z m 0,206.136 c -130.248,0 -236.52,-106.272 -236.52,-236.448 0,-130.32 106.272,-236.592 236.52,-236.592 v 47.88 c -103.968,0 -188.712,84.744 -188.712,188.712 0,103.824 84.744,188.64 188.712,188.64 z m 0,-259.2 -121.752,-121.608 -9.576,9.072 -8.424,8.496 -8.496,9.864 148.248,147.24 z" />
	<g
   id="g22">
		<path
   style="clip-rule:evenodd;fill-rule:evenodd"
   id="path12"
   d="m 250.912,322.664 78.624,78.984 c 3.384,-6.12 7.632,-8.064 13.752,-9.792 5.688,-1.656 13.032,-0.504 18.72,2.304 8.568,4.464 11.448,12.744 13.32,23.256 h 47.016 v -22.392 h -20.16 v -5.976 h 26.856 v -65.592 z" />
		<path
   style="clip-rule:evenodd;fill-rule:evenodd;stroke:#000000;stroke-width:0.21600001;stroke-miterlimit:10"
   id="path14"
   d="m 291.952,416.984 -91.944,-90.648 v 61.056 H 218.8 v 7.992 h -26.712 v -49.968 c -0.36,-1.8 -0.288,-3.672 -1.944,-4.896 -1.44,-1.152 -2.664,-2.16 -4.464,-2.376 -6.84,-0.936 -13.536,-0.936 -20.304,-0.792 -6.192,0.216 -12.312,0.36 -18.504,1.224 -4.032,0.576 -6.408,1.872 -8.856,5.256 l -15.912,32.112 v 40.752 h 8.928 c 1.008,-13.392 8.784,-23.904 25.128,-26.136 17.856,0.216 26.928,13.176 27.936,26.136 z"
   stroke-miterlimit="10" />
		<path
   style="clip-rule:evenodd;fill-rule:evenodd"
   id="path16"
   d="m 157.384,437.576 c 11.592,0 21.024,-9.432 21.024,-20.88 0,-11.592 -9.432,-21.024 -21.024,-21.024 -11.52,0 -20.952,9.432 -20.952,21.024 0,11.448 9.432,20.88 20.952,20.88 z" />
		<path
   style="clip-rule:evenodd;fill:#ffd520;fill-rule:evenodd"
   id="path18"
   d="m 157.384,425.84 c 5.112,0 9.216,-4.176 9.216,-9.144 0,-5.112 -4.104,-9.216 -9.216,-9.216 -5.04,0 -9.216,4.104 -9.216,9.216 0,4.968 4.176,9.144 9.216,9.144 z" />
		<polygon
   style="clip-rule:evenodd;fill:#ffd520;fill-rule:evenodd"
   id="polygon20"
   points="145.72,349.52 175.6,349.52 176.32,376.376 133.048,376.376 " />
	</g>
</g>
</svg>