<?xml version="1.0" encoding="UTF-8" standalone="no"?>
<svg
   xmlns:dc="http://purl.org/dc/elements/1.1/"
   xmlns:cc="http://creativecommons.org/ns#"
   xmlns:rdf="http://www.w3.org/1999/02/22-rdf-syntax-ns#"
   xmlns:svg="http://www.w3.org/2000/svg"
   xmlns="http://www.w3.org/2000/svg"
   xml:space="preserve"
   enable-background="new 0 0 595 842"
   viewBox="0 0 494.13599 494.064"
   height="494.064"
   width="494.13599"
   y="0px"
   x="0px"
   id="Kuvataso_1"
   version="1.0"><metadata
   id="metadata27"><rdf:RDF><cc:Work
       rdf:about=""><dc:format>image/svg+xml</dc:format><dc:type
         rdf:resource="http://purl.org/dc/dcmitype/StillImage" /></cc:Work></rdf:RDF></metadata><defs
   id="defs25" />
<g
   transform="translate(-28.9,-125.348)"
   id="g20">
	<path
   style="clip-rule:evenodd;fill:#ffd520;fill-rule:evenodd;stroke:#ffd520;stroke-width:0.21600001;stroke-miterlimit:10"
   id="path2"
   d="m 275.968,619.304 c 136.008,0 246.96,-110.952 246.96,-246.888 0,-136.008 -110.952,-246.96 -246.96,-246.96 -136.008,0 -246.96,110.952 -246.96,246.96 0,135.936 110.952,246.888 246.96,246.888 z"
   stroke-miterlimit="10" />
	<g
   id="g8">
		<path
   style="clip-rule:evenodd;fill:#ef3e42;fill-rule:evenodd"
   id="path4"
   d="m 275.968,135.896 c 130.248,0 236.52,106.272 236.52,236.52 0,130.248 -106.272,236.52 -236.52,236.52 v -47.88 c 103.896,0 188.712,-84.744 188.712,-188.64 0,-103.968 -84.816,-188.712 -188.712,-188.712 z m 0,265.896 117.792,117.936 13.032,-10.872 5.688,-6.048 7.848,-8.28 -144.36,-144.504 z m 0,207.144 c -130.248,0 -236.52,-106.272 -236.52,-236.52 0,-130.248 106.272,-236.52 236.52,-236.52 v 47.808 c -103.896,0 -188.712,84.744 -188.712,188.712 0,103.896 84.816,188.64 188.712,188.64 z m 0,-258.912 -121.752,-121.968 -10.872,10.008 -7.416,8.352 -6.912,8.136 146.952,147.24 z" />
		<path
   style="clip-rule:evenodd;fill:none;fill-rule:evenodd;stroke:#ef3e42;stroke-width:0.21600001;stroke-miterlimit:10"
   id="path6"
   d="m 275.968,135.896 c 130.248,0 236.52,106.272 236.52,236.52 0,130.248 -106.272,236.52 -236.52,236.52 -130.248,0 -236.52,-106.272 -236.52,-236.52 0,-130.248 106.272,-236.52 236.52,-236.52 z m 0,47.808 c 103.896,0 188.712,84.744 188.712,188.712 0,103.896 -84.816,188.64 -188.712,188.64 -103.896,0 -188.712,-84.744 -188.712,-188.64 0,-103.968 84.816,-188.712 188.712,-188.712 z m -146.952,70.848 264.744,265.176 13.032,-10.872 5.688,-6.048 7.848,-8.28 -266.112,-266.472 -10.872,10.008 -7.416,8.352 z"
   stroke-miterlimit="10" />
	</g>
	<g
   id="g18">
		<polygon
   style="clip-rule:evenodd;fill-rule:evenodd"
   id="polygon10"
   points="389.728,451.256 377.776,451.256 238.456,312.368 389.728,312.368 " />
		<g
   id="g16">
			<path
   style="clip-rule:evenodd;fill-rule:evenodd"
   id="path12"
   d="M 326.152,451.472 187.048,312.368 H 159.976 V 437 h -42.624 v 14.472 h 100.08 l 3.312,-15.768 c 3.888,-9.072 10.224,-13.608 17.784,-17.28 5.544,-2.088 11.088,-2.88 16.56,-3.744 8.784,1.656 18.072,3.312 25.2,11.16 5.976,6.84 10.224,14.616 10.368,25.632 z" />
			<path
   style="clip-rule:evenodd;fill-rule:evenodd"
   id="path14"
   d="m 254.44,424.184 c 15.192,0 27.504,12.312 27.504,27.504 0,15.12 -12.312,27.504 -27.504,27.504 v -15.336 c 6.768,0 12.24,-5.472 12.24,-12.168 0,-6.768 -5.472,-12.24 -12.24,-12.24 z m 0,55.008 c -15.12,0 -27.504,-12.384 -27.504,-27.504 0,-15.192 12.384,-27.504 27.504,-27.504 v 15.264 c -6.696,0 -12.168,5.472 -12.168,12.24 0,6.696 5.472,12.168 12.168,12.168 z" />
		</g>
	</g>
</g>
</svg>