<?xml version="1.0" encoding="UTF-8" standalone="no"?>
<svg
   xmlns:dc="http://purl.org/dc/elements/1.1/"
   xmlns:cc="http://creativecommons.org/ns#"
   xmlns:rdf="http://www.w3.org/1999/02/22-rdf-syntax-ns#"
   xmlns:svg="http://www.w3.org/2000/svg"
   xmlns="http://www.w3.org/2000/svg"
   xml:space="preserve"
   enable-background="new 0 0 595 842"
   viewBox="0 0 494.13599 494.064"
   height="494.064"
   width="494.13599"
   y="0px"
   x="0px"
   id="Kuvataso_1"
   version="1.0"><metadata
   id="metadata35"><rdf:RDF><cc:Work
       rdf:about=""><dc:format>image/svg+xml</dc:format><dc:type
         rdf:resource="http://purl.org/dc/dcmitype/StillImage" /></cc:Work></rdf:RDF></metadata><defs
   id="defs33" />
<g
   transform="translate(-28.9,-125.348)"
   id="g28">
	<path
   style="clip-rule:evenodd;fill:#ffd520;fill-rule:evenodd;stroke:#ffd520;stroke-width:0.21600001;stroke-miterlimit:10"
   id="path2"
   d="m 275.968,619.304 c 136.008,0 246.96,-110.952 246.96,-246.888 0,-136.008 -110.952,-246.96 -246.96,-246.96 -136.008,0 -246.96,110.952 -246.96,246.96 0,135.936 110.952,246.888 246.96,246.888 z"
   stroke-miterlimit="10" />
	<g
   id="g8">
		<path
   style="clip-rule:evenodd;fill:#ef3e42;fill-rule:evenodd"
   id="path4"
   d="m 275.968,135.896 c 130.248,0 236.52,106.272 236.52,236.52 0,130.248 -106.272,236.52 -236.52,236.52 v -47.88 c 103.896,0 188.712,-84.744 188.712,-188.64 0,-103.968 -84.816,-188.712 -188.712,-188.712 z m 0,265.896 117.792,117.936 13.032,-10.872 5.688,-6.048 7.848,-8.28 -144.36,-144.504 z m 0,207.144 c -130.248,0 -236.52,-106.272 -236.52,-236.52 0,-130.248 106.272,-236.52 236.52,-236.52 v 47.808 c -103.896,0 -188.712,84.744 -188.712,188.712 0,103.896 84.816,188.64 188.712,188.64 z m 0,-258.912 -121.752,-121.968 -10.872,10.008 -7.416,8.352 -6.912,8.136 146.952,147.24 z" />
		<path
   style="clip-rule:evenodd;fill:none;fill-rule:evenodd;stroke:#ef3e42;stroke-width:0.21600001;stroke-miterlimit:10"
   id="path6"
   d="m 275.968,135.896 c 130.248,0 236.52,106.272 236.52,236.52 0,130.248 -106.272,236.52 -236.52,236.52 -130.248,0 -236.52,-106.272 -236.52,-236.52 0,-130.248 106.272,-236.52 236.52,-236.52 z m 0,47.808 c 103.896,0 188.712,84.744 188.712,188.712 0,103.896 -84.816,188.64 -188.712,188.64 -103.896,0 -188.712,-84.744 -188.712,-188.64 0,-103.968 84.816,-188.712 188.712,-188.712 z m -146.952,70.848 264.744,265.176 13.032,-10.872 5.688,-6.048 7.848,-8.28 -266.112,-266.472 -10.872,10.008 -7.416,8.352 z"
   stroke-miterlimit="10" />
	</g>
	<g
   id="g26">
		<polygon
   style="clip-rule:evenodd;fill-rule:evenodd;stroke:#000000;stroke-width:0.21600001;stroke-miterlimit:10"
   id="polygon10"
   points="206.488,256.28 206.344,280.184 198.28,272.048 198.28,256.28 "
   stroke-miterlimit="10" />
		<path
   style="clip-rule:evenodd;fill-rule:evenodd;stroke:#000000;stroke-width:0.21600001;stroke-miterlimit:10"
   id="path12"
   d="m 212.392,338.288 -5.472,1.872 -0.072,-7.632 -8.928,-8.568 -0.072,18.288 -67.32,3.312 v 46.656 l 9.504,23.976 c 16.92,-15.408 48.744,-15.192 66.888,9.792 l 92.88,-0.216 z"
   stroke-miterlimit="10" />
		<g
   id="g18">
			<path
   style="clip-rule:evenodd;fill-rule:evenodd"
   id="path14"
   d="m 168.904,412.016 c 21.168,0.144 38.448,17.352 38.448,38.592 0,21.168 -17.28,38.448 -38.448,38.592 v -19.44 0 c 10.728,0 19.44,-8.712 19.44,-19.368 0,-10.728 -8.712,-19.44 -19.44,-19.44 v 0 z m -0.216,0 c 0.072,0 0.144,0 0.216,0 v 18.936 c -10.656,0 -19.368,8.712 -19.368,19.44 0,10.656 8.712,19.368 19.368,19.368 v 19.44 c -0.072,0 -0.144,0 -0.216,0 -21.24,0 -38.592,-17.352 -38.592,-38.592 0,-21.312 17.352,-38.592 38.592,-38.592 z" />
			<path
   style="clip-rule:evenodd;fill:none;fill-rule:evenodd;stroke:#000000;stroke-width:0.21600001;stroke-miterlimit:10"
   id="path16"
   d="m 168.688,412.016 c 21.312,0 38.664,17.28 38.664,38.592 0,21.24 -17.352,38.592 -38.664,38.592 -21.24,0 -38.592,-17.352 -38.592,-38.592 0,-21.312 17.352,-38.592 38.592,-38.592 z m 0.216,18.936 c 10.728,0 19.44,8.712 19.44,19.44 0,10.656 -8.712,19.368 -19.44,19.368 -10.656,0 -19.368,-8.712 -19.368,-19.368 0,-10.728 8.712,-19.44 19.368,-19.44 z"
   stroke-miterlimit="10" />
		</g>
		<path
   style="clip-rule:evenodd;fill-rule:evenodd;stroke:#000000;stroke-width:0.21600001;stroke-miterlimit:10"
   id="path20"
   d="m 303.76,377.744 -49.032,-49.248 25.272,-5.688 2.736,9.576 24.768,-19.296 c 4.032,-5.184 6.192,-9.864 8.928,-15.768 l 3.168,-10.008 c -1.944,-0.144 -3.816,-0.288 -5.76,-0.432 -0.864,-0.576 -1.368,-1.512 -2.088,-3.312 l 0.576,-6.264 c 0.504,-4.68 -0.216,-7.92 0.432,-12.024 0.936,-3.384 2.592,-7.848 10.584,-10.008 4.464,-0.144 8.64,0.648 12.672,3.24 2.448,3.96 3.96,6.984 4.176,13.032 -0.504,2.952 -1.008,6.408 -2.016,9.576 l -0.648,5.184 1.296,2.232 6.768,14.472 c 2.376,9.648 5.184,18.288 5.832,28.368 17.784,-2.664 37.872,-2.52 66.816,14.976 -3.816,3.168 -7.632,6.336 -11.52,9.504 -22.464,-14.976 -73.224,-22.032 -102.96,21.888 z"
   stroke-miterlimit="10" />
		<path
   style="clip-rule:evenodd;fill-rule:evenodd;stroke:#000000;stroke-width:0.21600001;stroke-miterlimit:10"
   id="path22"
   d="M 334.072,408.344 308.008,382.28 c 8.712,-15.048 55.008,-55.728 107.424,-12.168 18,16.632 40.392,70.2 -10.944,108.792 -8.712,-8.568 -17.568,-17.712 -26.28,-26.28 18.792,-5.4 34.344,-33.912 14.328,-56.088 -9.36,-12.096 -43.56,-22.536 -58.464,11.808 z"
   stroke-miterlimit="10" />
		<path
   style="clip-rule:evenodd;fill-rule:evenodd;stroke:#000000;stroke-width:0.21600001;stroke-miterlimit:10"
   id="path24"
   d="m 299.728,425.696 63.072,63.216 c -15.912,-2.376 -34.128,-7.92 -47.376,-23.256 -7.488,-10.584 -15.984,-23.688 -15.696,-39.96 z"
   stroke-miterlimit="10" />
	</g>
</g>
</svg>