<?xml version="1.0" encoding="UTF-8" standalone="no"?>
<svg
   xmlns:dc="http://purl.org/dc/elements/1.1/"
   xmlns:cc="http://creativecommons.org/ns#"
   xmlns:rdf="http://www.w3.org/1999/02/22-rdf-syntax-ns#"
   xmlns:svg="http://www.w3.org/2000/svg"
   xmlns="http://www.w3.org/2000/svg"
   id="svg19"
   xml:space="preserve"
   enable-background="new 0 0 595 842"
   viewBox="0 0 493.92001 493.84799"
   height="493.84799"
   width="493.92001"
   y="0px"
   x="0px"
   version="1.0"><metadata
   id="metadata25"><rdf:RDF><cc:Work
       rdf:about=""><dc:format>image/svg+xml</dc:format><dc:type
         rdf:resource="http://purl.org/dc/dcmitype/StillImage" /></cc:Work></rdf:RDF></metadata><defs
   id="defs23" />
<g
   transform="translate(-29.008,-125.456)"
   id="Kuvataso_1">
</g>
<g
   transform="translate(-29.008,-125.456)"
   id="_x30_">
</g>
<g
   transform="translate(-29.008,-125.456)"
   id="H3">
</g>
<g
   transform="translate(-29.008,-125.456)"
   id="H2">
</g>
<g
   transform="translate(-29.008,-125.456)"
   id="H1">
	<g
   id="g16">
		<path
   style="clip-rule:evenodd;fill:#ffd520;fill-rule:evenodd"
   id="path6"
   d="m 275.968,619.304 c 136.008,0 246.96,-110.952 246.96,-246.888 0,-136.008 -110.952,-246.96 -246.96,-246.96 -136.008,0 -246.96,110.952 -246.96,246.96 0,135.936 110.952,246.888 246.96,246.888 z" />
		<path
   style="clip-rule:evenodd;fill:#ef3e42;fill-rule:evenodd"
   id="path8"
   d="m 275.968,135.896 c 130.248,0 236.52,106.272 236.52,236.52 0,130.248 -106.272,236.52 -236.52,236.52 v -47.88 c 103.896,0 188.712,-84.744 188.712,-188.64 0,-103.968 -84.816,-188.712 -188.712,-188.712 z m 0,265.896 117.792,117.936 9.36,-8.784 10.584,-10.224 6.624,-6.192 -144.36,-144.504 z m 0,207.144 c -130.248,0 -236.52,-106.272 -236.52,-236.52 0,-130.248 106.272,-236.52 236.52,-236.52 v 47.808 c -103.896,0 -188.712,84.744 -188.712,188.712 0,103.896 84.816,188.64 188.712,188.64 z m 0,-258.912 -121.752,-121.968 -10.872,10.008 -7.416,8.352 -6.912,8.136 146.952,147.24 z" />
		<path
   style="clip-rule:evenodd;fill-rule:evenodd"
   id="path10"
   d="m 249.04,463.064 h -88.56 c -20.232,-4.176 -24.84,-14.04 -29.88,-26.928 l 4.32,-1.728 c 1.584,8.136 5.76,12.312 10.368,16.056 6.984,2.592 11.736,3.888 19.584,3.024 l 10.8,-3.888 16.488,-2.16 c 1.152,-3.456 2.808,-6.12 3.96,-9.576 -16.488,-6.192 -32.112,-12.024 -44.712,-22.896 1.584,-4.032 3.168,-9 4.752,-13.032 14.904,-22.536 28.08,-36.864 59.04,-49.896 l 2.592,-7.848 25.2,24.768 c -0.288,2.592 -0.576,5.184 -0.864,7.776 5.04,8.568 11.808,15.336 17.784,21.744 l 4.752,-8.28 10.008,10.44 -2.16,6.48 c 5.184,3.384 9.936,6.696 15.624,7.416 l 49.392,48.528 H 291.16 c -7.128,-2.448 -12.456,-3.6 -16.488,-15.192 l -31.68,-1.296 -26.064,-3.888 -8.712,-2.232 -2.592,7.848 c 11.16,1.008 21.456,2.448 32.112,6.912 l 10.008,3.528 z" />
		<path
   style="clip-rule:evenodd;fill-rule:evenodd"
   id="path12"
   d="m 228.16,303.584 7.2,-19.512 c 5.184,8.64 8.352,12.96 9.72,36.72 z" />
		<path
   style="clip-rule:evenodd;fill-rule:evenodd"
   id="path14"
   d="M 396.568,461.984 H 386.056 L 284.464,360.32 l 20.52,-0.072 -0.36,-5.976 -0.936,-4.392 -0.864,-6.264 -8.424,9.792 -21.672,-5.472 -22.248,-21.888 c 3.816,1.008 6.192,3.384 9.648,3.888 1.584,1.44 2.736,3.24 4.752,3.888 l 17.352,3.96 6.336,0.288 9.288,-26.784 c 0.216,-1.656 0.432,-4.176 0.648,-5.904 -0.648,-1.152 -1.584,-2.232 -3.24,-2.808 -2.16,0.144 -4.176,0.144 -6.336,0.288 -1.656,-0.216 -2.16,-1.512 -2.52,-2.664 -0.288,-1.44 -1.224,-2.664 -1.512,-4.104 -1.08,-2.304 -1.224,-4.968 -0.864,-7.632 l -0.216,-6.192 c -2.448,-8.712 15.912,-20.376 26.352,-5.904 1.728,4.392 1.656,8.28 0.648,13.68 l -0.936,3.816 c -0.432,2.736 0.36,4.824 1.8,6.12 l 7.344,3.672 c 3.816,3.6 6.768,7.56 9.792,13.464 l 3.096,9.792 1.728,7.344 c 1.656,7.416 3.744,13.896 7.56,20.88 l 4.032,13.536 c 0.072,4.824 -0.576,8.568 -3.6,11.448 l 54.288,-0.072 v 43.128 c 30.672,5.76 16.704,40.752 0.648,38.808 z" />
	</g>
</g>
</svg>