<?xml version="1.0" encoding="UTF-8" standalone="no"?>
<svg
   xmlns:dc="http://purl.org/dc/elements/1.1/"
   xmlns:cc="http://creativecommons.org/ns#"
   xmlns:rdf="http://www.w3.org/1999/02/22-rdf-syntax-ns#"
   xmlns:svg="http://www.w3.org/2000/svg"
   xmlns="http://www.w3.org/2000/svg"
   id="svg34"
   xml:space="preserve"
   enable-background="new 0 0 595 842"
   viewBox="0 0 493.92001 493.84799"
   height="493.84799"
   width="493.92001"
   y="0px"
   x="0px"
   version="1.0"><metadata
   id="metadata40"><rdf:RDF><cc:Work
       rdf:about=""><dc:format>image/svg+xml</dc:format><dc:type
         rdf:resource="http://purl.org/dc/dcmitype/StillImage" /></cc:Work></rdf:RDF></metadata><defs
   id="defs38" />
<g
   transform="translate(-29.008,-125.456)"
   id="Kuvataso_1">
</g>
<g
   transform="translate(-29.008,-125.456)"
   id="_x30_">
</g>
<g
   transform="translate(-29.008,-125.456)"
   id="H2">
</g>
<g
   transform="translate(-29.008,-125.456)"
   id="H3">
</g>
<g
   transform="translate(-29.008,-125.456)"
   id="H1">
</g>
<g
   transform="translate(-29.008,-125.456)"
   id="ORANSSI">
	<g
   id="g31">
		<path
   style="clip-rule:evenodd;fill:#ffd520;fill-rule:evenodd"
   id="path7"
   d="m 275.968,619.304 c 136.008,0 246.96,-110.952 246.96,-246.888 0,-136.008 -110.952,-246.96 -246.96,-246.96 -136.008,0 -246.96,110.952 -246.96,246.96 0,135.936 110.952,246.888 246.96,246.888 z" />
		<path
   style="clip-rule:evenodd;fill:#ef3e42;fill-rule:evenodd"
   id="path9"
   d="m 275.968,135.896 c 130.248,0 236.52,106.272 236.52,236.52 0,130.248 -106.272,236.52 -236.52,236.52 v -47.88 c 103.896,0 188.712,-84.744 188.712,-188.64 0,-103.968 -84.816,-188.712 -188.712,-188.712 z m 0,265.896 117.792,117.936 9.36,-8.784 10.584,-10.224 6.624,-6.192 -144.36,-144.504 z m 0,207.144 c -130.248,0 -236.52,-106.272 -236.52,-236.52 0,-130.248 106.272,-236.52 236.52,-236.52 v 47.808 c -103.896,0 -188.712,84.744 -188.712,188.712 0,103.896 84.816,188.64 188.712,188.64 z m 0,-258.912 -121.752,-121.968 -10.872,10.008 -7.416,8.352 -6.912,8.136 146.952,147.24 z" />
		<g
   id="g29">
			<g
   id="g17">
				<polygon
   style="clip-rule:evenodd;fill-rule:evenodd"
   id="polygon11"
   points="175.24,508.784 175.312,447.8 179.488,443.624 194.032,443.624 198.136,447.872 198.136,508.856 194.104,512.744 179.704,512.888 " />
				<polygon
   style="clip-rule:evenodd;fill-rule:evenodd"
   id="polygon13"
   points="351.568,508.784 352.072,477.752 374.464,500.432 374.464,508.856 370.432,512.744 355.96,512.888 " />
				<path
   style="clip-rule:evenodd;fill-rule:evenodd"
   id="path15"
   d="m 321.4,508.856 v -19.08 h 0.072 V 466.88 H 321.4 v -19.512 l 22.824,23.04 v 38.448 l -4.032,3.888 -14.4,0.144 z m -92.736,-61.056 0.072,0.072 v 60.984 l -0.072,0.072 v -19.224 h 30.888 c 11.304,14.112 27.504,6.408 30.96,0.288 l 30.888,-0.216 v 19.08 l -0.072,-0.072 0.072,-61.416 v 0 19.512 h -31.176 c -8.64,-12.24 -27,-7.848 -30.024,0 h -31.536 z m -3.888,64.944 -14.472,0.144 -4.464,-4.104 0.144,-60.984 4.176,-4.176 h 14.544 l 3.96,4.176 v 19.08 h -0.072 v 22.824 h 0.072 v 19.224 z" />
			</g>
			
				<line
   style="clip-rule:evenodd;fill:none;fill-rule:evenodd;stroke:#000000;stroke-width:0.21600001;stroke-miterlimit:10"
   id="line19"
   y2="432.392"
   x2="168.688"
   y1="295.30399"
   x1="168.688"
   stroke-miterlimit="10" />
			<polygon
   style="clip-rule:evenodd;fill-rule:evenodd"
   id="polygon21"
   points="304.12,430.016 258.904,384.728 205.192,384.728 204.76,330.44 166.672,292.352 166.456,430.448 166.888,430.304 " />
			<polygon
   style="clip-rule:evenodd;fill:#f79239;fill-rule:evenodd"
   id="polygon23"
   points="263.08,386.168 204.688,331.088 204.688,386.168 " />
			<polygon
   style="clip-rule:evenodd;fill:#f79239;fill-rule:evenodd"
   id="polygon25"
   points="340.264,274.352 340.264,385.736 311.968,385.736 203.824,277.808 203.68,274.28 " />
			<path
   style="clip-rule:evenodd;fill-rule:evenodd"
   id="path27"
   d="m 184.456,235.832 h -0.216 c -7.488,0.864 -12.312,4.824 -15.48,8.136 l 34.488,34.632 -0.216,-4.032 137.448,0.216 v 110.952 h -29.304 l 45.432,45.36 h 21.888 V 255.632 c -2.016,-15.624 -12.24,-18.432 -19.656,-19.8 z" />
		</g>
	</g>
</g>
</svg>