<?xml version="1.0" encoding="UTF-8" standalone="no"?>
<svg
   xmlns:dc="http://purl.org/dc/elements/1.1/"
   xmlns:cc="http://creativecommons.org/ns#"
   xmlns:rdf="http://www.w3.org/1999/02/22-rdf-syntax-ns#"
   xmlns:svg="http://www.w3.org/2000/svg"
   xmlns="http://www.w3.org/2000/svg"
   xml:space="preserve"
   enable-background="new 0 0 595 842"
   viewBox="0 0 493.92001 493.84799"
   height="493.84799"
   width="493.92001"
   y="0px"
   x="0px"
   id="Kuvataso_1"
   version="1.0"><metadata
   id="metadata33"><rdf:RDF><cc:Work
       rdf:about=""><dc:format>image/svg+xml</dc:format><dc:type
         rdf:resource="http://purl.org/dc/dcmitype/StillImage" /></cc:Work></rdf:RDF></metadata><defs
   id="defs31" />
<g
   transform="translate(-29.008,-121.64)"
   id="g26">
	<path
   style="clip-rule:evenodd;fill:#ffd520;fill-rule:evenodd"
   id="path2"
   d="m 275.968,615.488 c 136.008,0 246.96,-110.952 246.96,-246.888 0,-136.008 -110.952,-246.96 -246.96,-246.96 -136.008,0 -246.96,110.952 -246.96,246.96 0,135.936 110.952,246.888 246.96,246.888 z" />
	<g
   id="g8">
		<path
   style="clip-rule:evenodd;fill:#ef3e42;fill-rule:evenodd"
   id="path4"
   d="m 275.968,132.08 c 130.248,0 236.52,106.2 236.52,236.52 0,130.248 -106.272,236.448 -236.52,236.448 V 557.24 c 103.896,0 188.712,-84.744 188.712,-188.64 0,-103.968 -84.816,-188.712 -188.712,-188.712 z m 0,265.896 117.792,117.936 9.36,-8.784 10.584,-10.224 6.624,-6.192 -144.36,-144.504 z m 0,207.072 c -130.248,0 -236.52,-106.2 -236.52,-236.448 0,-130.32 106.272,-236.52 236.52,-236.52 v 47.808 c -103.896,0 -188.712,84.744 -188.712,188.712 0,103.896 84.816,188.64 188.712,188.64 z m 0,-258.84 -121.752,-121.968 -10.872,10.008 -7.416,8.352 -6.912,8.136 146.952,147.24 z" />
		<path
   style="clip-rule:evenodd;fill:none;fill-rule:evenodd;stroke:#ef3e42;stroke-width:0.21600001;stroke-miterlimit:10"
   id="path6"
   d="m 275.968,132.08 c 130.248,0 236.52,106.2 236.52,236.52 0,130.248 -106.272,236.448 -236.52,236.448 -130.248,0 -236.52,-106.2 -236.52,-236.448 0,-130.32 106.272,-236.52 236.52,-236.52 z m 0,47.808 c 103.896,0 188.712,84.744 188.712,188.712 0,103.896 -84.816,188.64 -188.712,188.64 -103.896,0 -188.712,-84.744 -188.712,-188.64 0,-103.968 84.816,-188.712 188.712,-188.712 z m -146.952,70.848 264.744,265.176 9.36,-8.784 10.584,-10.224 6.624,-6.192 -266.112,-266.472 -10.872,10.008 -7.416,8.352 z"
   stroke-miterlimit="10" />
	</g>
	<g
   id="g24">
		<path
   style="clip-rule:evenodd;fill-rule:evenodd"
   id="path10"
   d="m 189.424,404.24 c 9.648,-0.432 17.64,7.992 18.936,12.168 2.088,3.384 4.608,15.48 -5.472,24.264 -9.648,7.56 -17.208,5.04 -21.816,2.952 -8.856,-4.176 -13.032,-12.6 -11.808,-21.816 1.728,-10.872 9.648,-17.136 20.16,-17.568 z" />
		<polygon
   style="clip-rule:evenodd;fill-rule:evenodd"
   id="polygon12"
   points="163,418.136 164.224,414.32 165.52,411.368 167.608,408.416 170.128,405.536 172.648,403.016 175.6,401.288 178.912,399.632 182.296,398.408 186.112,397.544 189.424,397.544 193.24,397.544 196.552,398.408 199.936,399.632 203.32,401.288 206.272,403.016 209.152,405.536 211.312,408.416 213.4,411.368 215.056,414.32 216.352,418.136 216.712,421.376 217.144,424.76 302.752,424.76 240.256,362.696 240.256,365.648 189.856,365.648 194.896,324.104 201.592,324.104 194.896,317.408 149.104,317.408 147.448,317.408 145.792,318.2 144.496,319.496 143.272,320.72 127.288,386.24 127.288,424.76 162.136,424.76 162.136,421.376 " />
		<polygon
   style="clip-rule:evenodd;fill:#ffd200;fill-rule:evenodd"
   id="polygon14"
   points="176.68,379.112 134.704,379.112 147.736,324.104 183.016,324.104 " />
		<polygon
   style="clip-rule:evenodd;fill-rule:evenodd"
   id="polygon16"
   points="346.672,408.416 349.192,406.76 352.144,405.536 354.664,404.672 357.616,404.24 360.568,404.24 363.448,405.104 366.4,405.536 368.92,406.76 371.44,408.416 373.528,410.576 375.688,412.664 376.912,415.184 378.208,417.704 379,420.584 379.432,423.464 379.432,426.416 379,428.936 378.208,431.888 377.344,434.408 375.688,436.928 373.96,439.448 371.44,441.104 342.496,412.232 344.584,410.144 " />
		<polygon
   style="clip-rule:evenodd;fill-rule:evenodd"
   id="polygon18"
   points="342.928,402.584 345.808,400.928 349.192,399.2 352.576,398.408 355.888,397.544 359.704,397.544 363.088,397.976 366.4,398.408 369.784,399.632 373.528,401.72 376.048,403.448 378.568,405.968 381.088,408.416 382.816,411.368 384.472,414.752 385.696,418.136 386.128,421.376 386.56,424.76 429.832,424.76 431.488,423.896 432.784,423.032 434.008,421.376 434.44,419.792 434.44,322.88 434.008,321.584 433.216,319.928 431.92,318.632 430.696,317.84 428.968,317.408 427.312,317.408 247.672,317.408 253.504,324.104 300.088,324.104 300.088,365.648 295.552,365.648 337.888,407.624 339.976,405.104 " />
		<rect
   style="clip-rule:evenodd;fill:#ffd200;fill-rule:evenodd"
   id="rect20"
   height="41.543999"
   width="52.487999"
   y="324.104"
   x="309.30399" />
		<rect
   style="clip-rule:evenodd;fill:#ffd200;fill-rule:evenodd"
   id="rect22"
   height="41.543999"
   width="53.784"
   y="324.104"
   x="371.44" />
	</g>
</g>
</svg>