<?xml version="1.0" encoding="UTF-8"?>
<svg id="Layer_1" data-name="Layer 1" xmlns="http://www.w3.org/2000/svg" version="1.1" xmlns:cc="http://creativecommons.org/ns#" xmlns:dc="http://purl.org/dc/elements/1.1/" xmlns:rdf="http://www.w3.org/1999/02/22-rdf-syntax-ns#" xmlns:svg="http://www.w3.org/2000/svg" viewBox="0 0 396.7 397">
  <defs>
    <style>
      .cls-1 {
        fill: #ffcd00;
      }

      .cls-1, .cls-2, .cls-3 {
        stroke-width: 0px;
      }

      .cls-2 {
        fill: #e4002b;
      }

      .cls-3 {
        fill: #101820;
      }
    </style>
  </defs>
  <g id="CIRCLE">
    <path id="path4" class="cls-1" d="M396.7,198.5C396.7,89,308,0,198.4,0S0,89,0,198.5s88.7,198.5,198.4,198.5,198.4-88.9,198.4-198.5h0Z"/>
  </g>
  <g id="CIRCLE-2">
    <path id="path7" class="cls-2" d="M390.6,198.5c0-106.3-86.1-192.2-192.2-192.2S6.1,92.2,6.1,198.5s86.1,192.2,192.2,192.2,192.2-86,192.2-192.2h.1Z"/>
  </g>
  <g id="CIRCLE-3">
    <path id="path10" class="cls-1" d="M350.3,198.5c0-83.9-68.1-151.9-151.9-151.9S46.4,114.6,46.4,198.5s68.1,151.9,151.9,151.9,151.9-68.1,151.9-151.9h.1Z"/>
  </g>
  <g id="LWPOLYLINE">
    <path id="path13" class="cls-3" d="M57.5,150.6c-10.6,31-10.6,64.8,0,95.8l47.9-47.9-47.9-47.9Z"/>
  </g>
  <g id="LWPOLYLINE-2">
    <path id="path16" class="cls-3" d="M339.2,150.6c10.6,31,10.6,64.8,0,95.8l-47.9-47.9,47.9-47.9Z"/>
  </g>
  <g id="LWPOLYLINE-3">
    <path id="path19" class="cls-3" d="M218.2,283.9c0-2.8-2.4-5.1-5.4-5.1-5.7,0-9.6,3.9-9.6,9v37.9h-11.2v-41.8c0-2.8-2.2-5.1-5.2-5.1-5.7,0-9.6,3.9-9.6,9v37.9h-11.3v-55.8h11.3v4.5c3.6-2.4,7.6-3.9,11.9-4.5h1.5c4.2.3,8.1,2.4,10.3,6,4.2-3.1,9.1-5.1,14.2-6h1.5c7.2.5,12.5,6.3,12.5,13.4v42.4h-11.1v-41.8h.2Z"/>
  </g>
</svg>