<?xml version="1.0" encoding="UTF-8" standalone="no"?>
<svg
   xmlns:dc="http://purl.org/dc/elements/1.1/"
   xmlns:cc="http://creativecommons.org/ns#"
   xmlns:rdf="http://www.w3.org/1999/02/22-rdf-syntax-ns#"
   xmlns:svg="http://www.w3.org/2000/svg"
   xmlns="http://www.w3.org/2000/svg"
   height="397"
   width="396.70001"
   xml:space="preserve"
   viewBox="0 0 396.7 396.99999"
   y="0px"
   x="0px"
   id="Layer_1"
   version="1.1"><metadata
   id="metadata27"><rdf:RDF><cc:Work
       rdf:about=""><dc:format>image/svg+xml</dc:format><dc:type
         rdf:resource="http://purl.org/dc/dcmitype/StillImage" /></cc:Work></rdf:RDF></metadata><defs
   id="defs25" />
<style
   id="style2"
   type="text/css">
	.st0{fill:#FFCD00;}
	.st1{fill:#E4002B;}
	.st2{fill:#101820;}
</style>
<g
   transform="translate(-14.25,-14.1)"
   id="CIRCLE_3_">
	<path
   style="fill:#ffcd00"
   id="path4"
   d="M 410.95,212.6 C 410.95,103.05 322.29,14.1 212.6,14.1 102.91,14.1 14.25,103.05 14.25,212.6 c 0,109.55 88.66,198.5 198.35,198.5 109.69,0 198.35,-88.95 198.35,-198.5 z"
   class="st0" />
</g>
<g
   transform="translate(-14.25,-14.1)"
   id="CIRCLE_4_">
	<path
   style="fill:#e4002b"
   id="path7"
   d="M 404.83,212.6 C 404.83,106.33 318.71,20.37 212.6,20.37 106.49,20.37 20.36,106.33 20.36,212.6 c 0,106.26 86.12,192.23 192.23,192.23 106.11,0 192.24,-85.97 192.24,-192.23 z"
   class="st1" />
</g>
<g
   transform="translate(-14.25,-14.1)"
   id="CIRCLE_5_">
	<path
   style="fill:#ffcd00"
   id="path10"
   d="m 364.54,212.6 c 0,-83.88 -68.06,-151.94 -151.94,-151.94 -83.88,0 -151.93,68.06 -151.93,151.94 0,83.88 68.05,151.93 151.93,151.93 83.88,0 151.94,-68.05 151.94,-151.93 z"
   class="st0" />
</g>
<g
   transform="translate(-14.25,-14.1)"
   id="LWPOLYLINE_44_">
	<path
   style="fill:#101820"
   id="path13"
   d="m 71.71,164.69 c -10.59,31.04 -10.59,64.78 0,95.82 l 47.91,-47.91 z"
   class="st2" />
</g>
<g
   transform="translate(-14.25,-14.1)"
   id="LWPOLYLINE_45_">
	<path
   style="fill:#101820"
   id="path16"
   d="m 353.49,164.69 c 10.59,31.04 10.59,64.78 0,95.82 L 305.58,212.6 Z"
   class="st2" />
</g>
<g
   transform="translate(-14.25,-14.1)"
   id="LWPOLYLINE_54_">
	<path
   style="fill:#101820"
   id="path19"
   d="m 232.45,297.97 c 0,-2.84 -2.39,-5.07 -5.38,-5.07 -5.67,0 -9.55,3.88 -9.55,8.96 v 37.91 h -11.2 v -41.79 c 0,-2.84 -2.24,-5.07 -5.23,-5.07 -5.67,0 -9.55,3.88 -9.55,8.96 v 37.91 H 180.2 v -55.82 h 11.34 v 4.48 c 3.59,-2.39 7.62,-3.88 11.95,-4.48 0.45,0 0.89,0 1.49,0 4.18,0.3 8.05,2.39 10.3,5.97 4.18,-3.13 9.1,-5.07 14.18,-5.97 0.59,0 1.05,0 1.49,0 7.16,0.45 12.54,6.27 12.54,13.43 v 42.39 h -11.05 v -41.81 z"
   class="st2" />
</g>
</svg>