<?xml version="1.0" encoding="UTF-8"?>
<svg id="Layer_1" data-name="Layer 1" xmlns="http://www.w3.org/2000/svg" version="1.1" xmlns:cc="http://creativecommons.org/ns#" xmlns:dc="http://purl.org/dc/elements/1.1/" xmlns:rdf="http://www.w3.org/1999/02/22-rdf-syntax-ns#" xmlns:svg="http://www.w3.org/2000/svg" viewBox="0 0 396.7 397">
  <defs>
    <style>
      .cls-1 {
        fill: #ffd200;
      }

      .cls-1, .cls-2, .cls-3 {
        stroke-width: 0px;
      }

      .cls-2 {
        fill: #e4002b;
      }

      .cls-3 {
        fill: #000;
        fill-rule: evenodd;
      }
    </style>
  </defs>
  <g id="CIRCLE">
    <path class="cls-1" d="M396.7,198.5C396.7,88.9,307.9,0,198.3,0S0,88.9,0,198.5s88.9,198.5,198.3,198.5,198.4-88.9,198.4-198.5h0Z"/>
  </g>
  <g id="CIRCLE-2">
    <path class="cls-2" d="M390.5,198.5c0-106.2-85.9-192.3-192.1-192.3S6.2,92.3,6.2,198.5s86,192.3,192.1,192.3,192.1-86.1,192.1-192.3h0Z"/>
  </g>
  <g id="CIRCLE-3">
    <path class="cls-1" d="M350.2,198.5c0-84-67.9-152-151.9-152S46.5,114.6,46.5,198.5s68,152,151.8,152,151.9-68.1,151.9-152h0Z"/>
  </g>
  <polygon class="cls-3" points="199.8 101.3 155.2 52.7 161.8 50.7 168.6 48.7 175.4 47.3 182.3 46.3 189.1 45.2 196 44.9 206.6 45.2 213.4 45.5 220.2 46.7 227 48 234.9 50 244.2 53 199.8 101.3"/>
  <polygon class="cls-3" points="154.1 344.2 198.7 295.7 243.1 344.2 236.2 346.2 229.4 348.3 222.5 349.6 215.7 351 209 351.7 202.1 352.1 194.9 352.1 188.1 351.7 181.2 351 173.1 349.3 164.4 347.6 154.1 344.2"/>
  <polygon class="cls-3" points="266.2 255.9 255.9 255.9 255.9 199.2 266.2 199.2 266.2 203.3 269.9 201.3 274.2 199.9 278.6 199.2 281.5 199.9 283.9 200.9 286.5 202.9 292.3 200.6 298.5 199.2 304.2 199.6 306.9 200.9 309.2 202.2 311.3 205.9 312.9 209.7 313.1 214.1 313.1 255.9 303 255.9 303 214.1 302.6 211.8 301.7 210.1 300.1 208.4 298.2 207.3 296.4 207 294.2 207.3 292.3 208.4 290.7 210.1 289.9 211.8 289.5 214.1 289.5 255.9 279.2 255.9 279.2 214.1 279 211.8 278 210.1 276.5 208.4 274.9 207.3 272.7 207 270.8 207.3 268.9 208.4 267.5 210.1 266.4 211.8 266.2 214.1 266.2 255.9"/>
</svg>