<?xml version="1.0" encoding="UTF-8"?>
<svg id="Layer_1" data-name="Layer 1" xmlns="http://www.w3.org/2000/svg" version="1.1" xmlns:cc="http://creativecommons.org/ns#" xmlns:dc="http://purl.org/dc/elements/1.1/" xmlns:rdf="http://www.w3.org/1999/02/22-rdf-syntax-ns#" xmlns:svg="http://www.w3.org/2000/svg" viewBox="0 0 396.7 397">
  <defs>
    <style>
      .cls-1, .cls-2, .cls-3, .cls-4 {
        stroke-width: 0px;
      }

      .cls-1, .cls-3 {
        fill: #ffd200;
      }

      .cls-2 {
        fill: #e4002b;
      }

      .cls-3, .cls-4 {
        fill-rule: evenodd;
      }

      .cls-4 {
        fill: #000;
      }
    </style>
  </defs>
  <g id="CIRCLE">
    <path class="cls-1" d="M396.7,198.5C396.7,88.9,307.9,0,198.3,0S0,88.9,0,198.5s88.9,198.5,198.3,198.5,198.4-88.9,198.4-198.5h0Z"/>
  </g>
  <g id="CIRCLE-2">
    <path class="cls-2" d="M390.5,198.5c0-106.2-85.9-192.3-192.1-192.3S6.2,92.3,6.2,198.5s86,192.3,192.1,192.3,192.1-86.1,192.1-192.3h0Z"/>
  </g>
  <g id="CIRCLE-3">
    <path class="cls-1" d="M350.2,198.5c0-84-67.9-152-151.9-152S46.5,114.6,46.5,198.5s68,152,151.8,152,151.9-68.1,151.9-152h0Z"/>
  </g>
  <g>
    <polygon class="cls-4" points="70.8 249 95.7 224.2 95.7 241.3 111.2 241.3 111.2 256.8 95.7 256.8 95.7 273.9 70.8 249"/>
    <polygon class="cls-4" points="278.7 256.8 278.7 241.3 294.2 241.3 294.2 224.2 319 249 294.2 273.9 294.2 256.8 278.7 256.8"/>
    <g>
      <polygon class="cls-4" points="253.2 181.9 255.9 181.9 258.2 182.5 260.2 183.2 262.6 184.6 264.3 185.9 266.3 187.6 267.6 189.6 268.6 191.6 269.7 194 270 196.3 270.3 198.7 270 201 269.7 203.4 268.6 205.7 267.6 207.7 266.3 209.8 264.3 211.4 262.6 213.1 260.2 214.1 258.2 215.2 255.9 215.5 253.2 215.8 250.8 215.5 248.5 215.2 246.1 214.1 244.1 213.1 242.1 211.4 240.4 209.8 239.1 207.7 237.7 205.7 237.1 203.4 236.4 201 236.4 198.7 236.4 196.3 237.1 194 237.7 191.6 239.1 189.6 240.4 187.6 242.1 185.9 244.1 184.6 246.1 183.2 248.5 182.5 250.8 181.9 253.2 181.9"/>
      <polygon class="cls-4" points="77.2 198.7 69.8 198.7 69.8 166 83 140.2 83.9 138.9 85 137.5 86.3 136.8 88 136.1 94.7 135.5 101.7 134.8 107.8 135.2 115.5 135.2 122.3 135.8 124.2 136.8 125.6 138.5 126.2 145.6 126.6 151.6 126.6 181.2 147.7 181.2 147.7 175.1 132.7 175.1 132.7 123.1 318.4 123.1 318.4 175.1 296.9 175.1 296.9 181.2 312.3 181.2 312.3 198.7 274.7 198.7 274.3 196 273.7 193.3 273 190.9 271.7 188.3 270 186.2 268.3 184.2 266.3 182.2 263.9 180.8 261.6 179.5 258.9 178.8 256.2 178.2 253.5 177.8 250.8 178.2 248.2 178.8 245.4 179.5 243.1 180.8 240.8 182.2 238.7 184.2 237.1 186.2 235.4 188.3 234 190.9 233 193.3 232.7 196 232.4 198.7 119.2 198.7 119.2 196 118.6 193.3 117.9 190.6 116.5 188.3 114.9 185.9 113.2 183.9 111.2 182.2 108.8 180.5 106.4 179.5 103.8 178.5 101.1 177.8 98.4 177.8 95.7 177.8 93 178.5 90.3 179.5 87.6 180.5 85.6 182.2 83.6 183.9 81.6 185.9 80.2 188.3 78.9 190.6 77.9 193.3 77.6 196 77.2 198.7"/>
      <polygon class="cls-4" points="98.4 181.9 100.8 181.9 103.1 182.5 105.4 183.2 107.5 184.6 109.5 185.9 111.2 187.6 112.5 189.6 113.8 191.6 114.5 194 115.2 196.3 115.2 198.7 115.2 201 114.5 203.4 113.8 205.7 112.5 207.7 111.2 209.8 109.5 211.4 107.5 213.1 105.4 214.1 103.1 215.2 100.8 215.5 98.4 215.8 95.7 215.5 93.4 215.2 91.3 214.1 89 213.1 86.9 211.4 85.3 209.8 83.9 207.7 82.6 205.7 81.9 203.4 81.3 201 81.3 198.7 81.3 196.3 81.9 194 82.6 191.6 83.9 189.6 85.3 187.6 86.9 185.9 89 184.6 91.3 183.2 93.4 182.5 95.7 181.9 98.4 181.9"/>
      <polygon class="cls-3" points="98.4 191.3 100.1 191.3 101.4 192 102.8 192.9 104.1 194 105.1 195.7 105.4 197 105.8 198.7 105.4 200.3 105.1 202 104.1 203.4 102.8 204.7 101.4 205.4 99.4 206.4 98.4 206.1 96.7 206.1 95 205.4 93.7 204.7 92.3 203.4 91.3 202 91 200.3 90.6 198.7 91 197 91.3 195.7 92.3 194 93.7 192.9 95 192 96.7 191.3 98.4 191.3"/>
      <polygon class="cls-3" points="253.2 191.3 254.9 191.3 256.5 192 257.9 192.9 259.2 194 259.9 195.7 260.6 197 260.9 198.7 260.6 200.3 259.9 202 259.2 203.4 257.9 204.7 256.5 205.4 254.5 206.4 253.2 206.1 251.5 206.1 250.2 205.4 248.5 204.7 247.5 203.4 246.5 202 246.1 200.3 245.8 198.7 246.1 197 246.5 195.7 247.5 194 248.5 192.9 250.2 192 251.5 191.3 253.2 191.3"/>
      <polygon class="cls-3" points="79.3 166 90 144.5 113.2 144.5 113.2 166 79.3 166"/>
    </g>
  </g>
</svg>