<?xml version="1.0" encoding="UTF-8"?>
<svg id="Layer_1" data-name="Layer 1" xmlns="http://www.w3.org/2000/svg" version="1.1" xmlns:cc="http://creativecommons.org/ns#" xmlns:dc="http://purl.org/dc/elements/1.1/" xmlns:rdf="http://www.w3.org/1999/02/22-rdf-syntax-ns#" xmlns:svg="http://www.w3.org/2000/svg" viewBox="0 0 396.7 397">
  <defs>
    <style>
      .cls-1 {
        fill: #ffd200;
      }

      .cls-1, .cls-2, .cls-3 {
        stroke-width: 0px;
      }

      .cls-2 {
        fill: #e4002b;
      }

      .cls-3 {
        fill: #000;
        fill-rule: evenodd;
      }
    </style>
  </defs>
  <g id="CIRCLE">
    <path class="cls-1" d="M396.7,198.5C396.7,88.9,307.9,0,198.3,0S0,88.9,0,198.5s88.9,198.5,198.3,198.5,198.4-88.9,198.4-198.5h0Z"/>
  </g>
  <g id="CIRCLE-2">
    <path class="cls-2" d="M390.5,198.5c0-106.2-85.9-192.3-192.1-192.3S6.2,92.3,6.2,198.5s86,192.3,192.1,192.3,192.1-86.1,192.1-192.3h0Z"/>
  </g>
  <g id="CIRCLE-3">
    <path class="cls-1" d="M350.2,198.5c0-84-67.9-152-151.9-152S46.5,114.6,46.5,198.5s68,152,151.8,152,151.9-68.1,151.9-152h0Z"/>
  </g>
  <polygon class="cls-3" points="276.2 188.9 276.2 169.4 286.6 169.4 286.6 137.8 306.1 137.8 306.1 169.4 316.2 169.4 316.2 188.9 306.1 188.9 306.1 235.5 306.8 237.9 308.8 241.6 311.1 244.6 314.2 245.6 316.2 246.3 316.2 266.1 312.8 265.4 309.5 264.8 306.4 263.5 303.4 262.1 300.4 260 298 258.1 295.4 255.7 293.3 253 291.3 250.3 289.6 247.3 288.6 244.3 287.6 240.9 286.9 237.6 286.6 234.2 286.6 188.9 276.2 188.9"/>
</svg>