<?xml version="1.0" encoding="UTF-8"?>
<svg id="Layer_1" data-name="Layer 1" xmlns="http://www.w3.org/2000/svg" version="1.1" xmlns:cc="http://creativecommons.org/ns#" xmlns:dc="http://purl.org/dc/elements/1.1/" xmlns:rdf="http://www.w3.org/1999/02/22-rdf-syntax-ns#" xmlns:svg="http://www.w3.org/2000/svg" viewBox="0 0 396.7 397">
  <defs>
    <style>
      .cls-1 {
        display: none;
        fill: #ef3e42;
      }

      .cls-1, .cls-2, .cls-3, .cls-4 {
        stroke-width: 0px;
      }

      .cls-1, .cls-4 {
        fill-rule: evenodd;
      }

      .cls-2 {
        fill: #ffcd00;
      }

      .cls-3 {
        fill: #e4002b;
      }

      .cls-4 {
        fill: #000;
      }

      .cls-5 {
        fill: none;
        stroke: #000;
        stroke-miterlimit: 10;
        stroke-width: .2px;
      }
    </style>
  </defs>
  <g id="CIRCLE">
    <path class="cls-1" d="M291.1,367c59.3-32.7,99.5-95.9,99.4-168.4h0c0-72.6-40.1-135.8-99.4-168.5v48.2c36,27.8,59.1,71.3,59.1,120.3h0c-.1,48.9-23.2,92.4-59.1,120.2v48.2h0ZM291.1,198.8v-19.9h0c5.5,0,10,4.5,10,10h0c0,5.5-4.5,9.9-10,9.9h0ZM291.1,176.2v-45.2h25.9v57.9h-12.7c-.2-8.5-6.7-12.8-13.2-12.8ZM268,377.8c8-3.1,15.7-6.7,23.1-10.9v-48.2c-7.2,5.6-14.9,10.5-23.1,14.8v44.3h0ZM291.1,30c-7.4-4.1-15.1-7.7-23.1-10.9v44.3c8.2,4.2,15.9,9.2,23.1,14.8V30h0ZM291.1,131v45.2c-6.4,0-12.7,4.3-13,12.8h-10.1v-57.9h23.1ZM291.1,179c-5.5,0-9.9,4.5-9.9,10h0c0,5.5,4.4,9.9,9.9,9.9h0v-19.9h0ZM268,302.6v-69.5h5.3v18.7h6.5v11.4h-6.5v26.1h0c0,3.7,2.7,6.9,6.4,7.6h0v10.7h0c-4.5-.3-8.6-2.1-11.6-5ZM233.4,387.6c12-2.2,23.5-5.5,34.5-9.8v-44.3c-10.8,5.6-22.4,10-34.5,12.9v41.3h0ZM268,19.2c-11.1-4.3-22.6-7.6-34.5-9.8v41.3c12.2,2.9,23.7,7.2,34.5,12.9V19.2h0ZM268,131v57.9h-21.5c-.2-8.5-6.6-12.8-13.1-12.8v-45.1h34.5ZM268,233v69.5c-3.5-3.2-5.7-7.7-5.9-12.8h0c0,0,0-26.6,0-26.6h-5.8v-11.4h5.8v-18.7h5.9ZM233.4,198.8c5.5,0,9.9-4.4,9.9-9.9h0c0-5.5-4.4-10-9.9-10v19.9ZM198.3,390.8c12,0,23.8-1.1,35.1-3.2v-41.3c-11.3,2.7-23.1,4.1-35.1,4.1v40.3h0ZM233.4,9.4c-11.4-2.1-23.1-3.2-35.1-3.2v40.3h0c12.1,0,23.9,1.4,35.1,4.1V9.4h0ZM233.4,131v45.1c-6.4,0-12.8,4.3-13.1,12.8h-22.1v-57.9h2.5v53.3h13.5v-53.3h19.1ZM233.4,179c-5.5,0-9.9,4.5-9.9,10h0c0,5.5,4.4,9.9,9.9,9.9h0v-19.9h0ZM198.3,307.5v-11.1h.2c5.2,0,9.4-4.4,9.2-9.6h0v-33.3h0c0-5.1-4.1-9.3-9.2-9.3h-.2v-11.3c10.4,0,20.9,7.2,20.5,21.1h0v33h0c0,11.3-9.2,20.6-20.5,20.5h0ZM168.7,388.5c9.6,1.5,19.5,2.3,29.5,2.3h0v-40.3h0c-10.1,0-20-1-29.5-3v41h0ZM198.3,6.2c-10.1,0-20,.7-29.6,2.3v41c9.6-1.9,19.5-3,29.6-3V6.2h0ZM198.3,131v57.9h-16.4c-.2-8.6-6.7-12.9-13.2-12.8v-45.2h29.6ZM198.3,232.9v11.3c-5,.1-9.1,4.2-9,9.3h0v33.3h0c-.2,5.2,3.8,9.5,9,9.6v11.1c-11.3,0-20.4-9.3-20.4-20.7h0v-34.2h0c.5-13.3,10.4-19.8,20.4-19.8h0ZM168.7,199.2c5.5,0,9.9-4.5,9.9-10h0c0-5.5-4.4-9.9-9.9-9.9v19.9ZM138.7,381.3c9.7,3.2,19.7,5.6,30,7.2v-41c-10.4-2.1-20.5-5.2-30-9.3v43.1h0ZM168.7,8.5c-10.3,1.6-20.3,4-30,7.2v43.1c9.5-4.1,19.6-7.2,30-9.3V8.5h0ZM168.7,131v45.2c-6.4,0-12.7,4.3-12.9,12.8h-17.1v-57.9h30ZM168.7,179.3c-5.5,0-10,4.4-10,9.9h0c0,5.5,4.5,10,10,10h0v-19.9h0ZM138.7,307.4v-11.1c5.1,0,9.3-4.2,9.3-9.3h0v-5.2h0c0-5.1-4.2-9.3-9.3-9.3h0v-10.4c4.1,0,7.4-3.3,7.4-7.4h0v-3h0c0-4.1-3.3-7.4-7.4-7.4v-11.2c10.3,0,18.6,8.3,18.6,18.6v3h0c0,4.5-1.6,8.9-4.6,12.3h0c4.1,3.8,6.4,9.3,6.4,14.9h0v5.2h0c0,11.3-9.2,20.4-20.4,20.4ZM88,355.9c15.4,10.9,32.4,19.4,50.7,25.4v-43.1c-19.3-8.3-36.5-20.4-50.7-35.4v53.1h0ZM138.7,15.7c-18.3,6-35.3,14.5-50.7,25.4v53.1c14.2-15,31.4-27.1,50.7-35.4V15.7h0ZM138.7,131v57.9h-27.7c-.3-13.4-16.2-16.3-23-8.5v-14.4h12.1v-15.9h-12.1v-5.6h21.2v33.9h19.7v-4.5h-11.8v-43h21.6ZM138.7,233v11.2c-4.1,0-7.5,3.3-7.5,7.4h-11.2,0c0-10.3,8.3-18.6,18.6-18.6h0ZM138.7,262v10.4h-3v-10.4h3ZM138.7,296.3v11.1h0c-11.3,0-20.5-9.2-20.5-20.4h11.2c0,5.1,4.2,9.3,9.3,9.3h0ZM88,190.7c.7,4.7,4.8,8.4,9.8,8.4s9.9-4.5,9.9-10h0c0-5.5-4.4-9.9-9.9-9.9s-9.1,3.6-9.8,8.4v3h0ZM138.7,262h0ZM6.2,198.5c0,65,32.3,122.6,81.8,157.4v-53.1c-25.7-27.2-41.5-63.9-41.5-104.3h0c0-40.4,15.8-77.1,41.5-104.3v-53.1C38.5,75.8,6.1,133.4,6.2,198.5h0ZM88,144.6v5.6h-6.8l-5.3,15.9h12.1v14.4c-1.8,2.1-3.1,4.9-3.1,8.5h-16.4v-22.5l8.3-21.8h11.2ZM88,187.7v3c-.1-.5-.2-1-.2-1.5h0c0-.5,0-1,.2-1.5Z"/>
    <path id="path4" class="cls-2" d="M396.7,198.5C396.7,89,308,0,198.4,0S0,89,0,198.5s88.7,198.5,198.4,198.5,198.4-88.9,198.4-198.5h0Z"/>
  </g>
  <g id="CIRCLE-2">
    <path id="path7" class="cls-3" d="M390.6,198.5c0-106.3-86.1-192.2-192.2-192.2S6.1,92.2,6.1,198.5s86.1,192.2,192.2,192.2,192.2-86,192.2-192.2h.1Z"/>
  </g>
  <g id="CIRCLE-3">
    <path id="path10" class="cls-2" d="M350.2,198.5c0-83.9-68.1-151.9-151.9-151.9S46.4,114.6,46.4,198.5s68.1,151.9,151.9,151.9,151.9-68.1,151.9-151.9h.1Z"/>
  </g>
  <g id="HATPUN">
    <g>
      <path class="cls-4" d="M273.3,233h-11.2v18.7h-5.8v11.4h5.8v26.7h0c.4,9.5,8,17.2,17.5,17.7h0v-10.7h0c-3.7-.7-6.4-3.9-6.4-7.6h0v-26h6.5v-11.4h-6.5v-18.7Z"/>
      <g>
        <path class="cls-4" d="M88,144.6h21.2v33.9h19.7v-4.5h-11.8v-43h83.8v53.3h13.5v-53.3h102.6v57.9h-12.7c-.4-17-25.8-17-26.1,0h-31.6c-.4-17-25.7-17-26.1,0h-38.4c-.4-17-25.8-17-26.1,0h-44.8c-.3-13.4-16.2-16.3-23-8.5v-14.4h12.1v-15.9h-12.1v-5.6h0ZM84.9,188.9h-16.4v-22.5l8.3-21.8h11.2v5.6h-6.8l-5.3,15.9h12.1v14.4c-1.8,2.1-3.1,4.9-3.1,8.5h0Z"/>
        <g>
          <path class="cls-4" d="M87.8,189.2c0,5.5,4.5,10,10,10s9.9-4.5,9.9-10h0c0-5.5-4.4-9.9-9.9-9.9-5.5,0-10,4.4-10,9.9h0ZM178.6,189.2c0-5.5-4.4-9.9-9.9-9.9s-10,4.4-10,9.9h0c0,5.5,4.5,10,10,10s9.9-4.5,9.9-10h0ZM243.3,188.9c0-5.5-4.4-10-9.9-10s-9.9,4.5-9.9,10h0c0,5.5,4.4,9.9,9.9,9.9,5.5,0,9.9-4.4,9.9-9.9h0ZM301,188.9c0-5.5-4.5-10-10-10s-9.9,4.5-9.9,10h0c0,5.5,4.4,9.9,9.9,9.9,5.5,0,10-4.4,10-9.9h0Z"/>
          <path class="cls-5" d="M87.8,189.2c0,5.5,4.5,10,10,10s9.9-4.5,9.9-10h0c0-5.5-4.4-9.9-9.9-9.9-5.5,0-10,4.4-10,9.9h0ZM178.6,189.2c0-5.5-4.4-9.9-9.9-9.9s-10,4.4-10,9.9h0c0,5.5,4.5,10,10,10s9.9-4.5,9.9-10h0ZM243.3,188.9c0-5.5-4.4-10-9.9-10s-9.9,4.5-9.9,10h0c0,5.5,4.4,9.9,9.9,9.9,5.5,0,9.9-4.4,9.9-9.9h0ZM301,188.9c0-5.5-4.5-10-10-10s-9.9,4.5-9.9,10h0c0,5.5,4.4,9.9,9.9,9.9,5.5,0,10-4.4,10-9.9h0Z"/>
        </g>
      </g>
    </g>
  </g>
</svg>