<?xml version="1.0" encoding="UTF-8"?>
<svg id="Layer_1" data-name="Layer 1" xmlns="http://www.w3.org/2000/svg" version="1.1" xmlns:cc="http://creativecommons.org/ns#" xmlns:dc="http://purl.org/dc/elements/1.1/" xmlns:rdf="http://www.w3.org/1999/02/22-rdf-syntax-ns#" xmlns:svg="http://www.w3.org/2000/svg" viewBox="0 0 396.7 397">
  <defs>
    <style>
      .cls-1 {
        fill: #ffd200;
      }

      .cls-1, .cls-2, .cls-3 {
        stroke-width: 0px;
      }

      .cls-2 {
        fill: #e4002b;
      }

      .cls-3 {
        fill: #000;
        fill-rule: evenodd;
      }
    </style>
  </defs>
  <g id="CIRCLE">
    <path class="cls-1" d="M396.7,198.5C396.7,88.9,307.9,0,198.3,0S0,88.9,0,198.5s88.9,198.5,198.3,198.5,198.4-88.9,198.4-198.5h0Z"/>
  </g>
  <g id="CIRCLE-2">
    <path class="cls-2" d="M390.5,198.5c0-106.2-85.9-192.3-192.1-192.3S6.2,92.3,6.2,198.5s86,192.3,192.1,192.3,192.1-86.1,192.1-192.3h0Z"/>
  </g>
  <g id="CIRCLE-3">
    <path class="cls-1" d="M350.2,198.5c0-84-67.9-152-151.9-152S46.5,114.6,46.5,198.5s68,152,151.8,152,151.9-68.1,151.9-152h0Z"/>
  </g>
  <g>
    <polygon class="cls-3" points="95.9 238.1 93.9 239.4 91.9 241.1 90.5 243.1 88.8 245.1 87.8 248.9 86.8 252.2 87.1 257.2 88.8 261.9 90.5 264 91.9 266 93.9 267.7 95.9 269 95.9 285.8 96.9 289.8 99.2 293.2 102.6 295.6 106.6 296.9 111 296.6 114.7 294.6 117.4 291.5 119.4 287.9 119.4 285.8 119.4 269 127.1 269 127.1 261.6 185 263.3 186.4 266.3 188 269 190.3 270.7 193.1 272.4 197.1 273.4 201.4 273 205.1 271.7 208.5 269 209.5 267.3 211.5 263.3 269.7 261.3 269.7 269 277.4 269 277.1 284.5 277.7 287.9 278.9 291.5 282.1 294.6 285.1 296.3 290.2 296.9 294.2 295.9 297.6 293.2 299.9 289.8 300.6 287.9 300.9 285.8 300.9 269 302.9 267.7 306.7 264 308.9 259.6 309.7 257.2 309.9 252.2 308.9 247.5 306.7 243.1 304.9 241.1 302.9 239.4 300.9 238.1 300.9 221.4 300.6 219.3 299.9 217.3 298.9 215.6 297.6 213.9 295.9 212.6 294.2 211.6 292.2 210.6 290.2 210.2 287.8 210.2 285.8 210.6 283.8 211.6 282.1 212.6 280.4 213.9 279.4 215.6 278.1 217.3 277.7 219.3 277.4 221.4 277.4 238.1 269.7 238.1 269.7 245.5 211.5 243.8 209.8 239.8 206.8 236.8 203.4 234.4 199 233.4 195.1 233.7 191 235.4 189.4 236.8 188 238.1 186.6 239.8 185.7 241.8 185 243.8 127.1 245.5 127.1 238.1 119.4 238.1 119.4 221.4 119.4 219.3 118.4 217.3 117.4 215.6 116.4 213.9 114.7 212.6 112.7 211.6 111 210.6 108.7 210.2 106.6 210.2 104.6 210.6 102.6 211.6 101 212.6 99.2 213.9 97.9 215.6 96.9 217.3 96.2 219.3 95.9 221.4 95.9 238.1"/>
    <polygon class="cls-3" points="189 171.6 207.4 171.6 207.4 193.1 229 193.1 198.1 224.4 167.2 193.1 189 193.1 189 171.6"/>
    <polygon class="cls-3" points="227.6 99.3 233.7 99.3 233.7 125.5 234 128.2 234.7 130.9 235.7 133.2 237 135.6 239 137.9 241.1 139.7 243.1 141.4 245.8 142.7 248.1 143.3 250.9 144 250.9 132.3 247.8 130.9 246.8 129.5 245.1 126.5 245.1 124.9 245.1 99.3 250.9 99.3 250.9 87.9 245.1 87.9 245.1 69.4 233.7 69.4 233.7 87.9 227.6 87.9 227.6 99.3"/>
  </g>
</svg>