<?xml version="1.0" encoding="UTF-8"?>
<svg id="Layer_1" data-name="Layer 1" xmlns="http://www.w3.org/2000/svg" version="1.1" xmlns:cc="http://creativecommons.org/ns#" xmlns:dc="http://purl.org/dc/elements/1.1/" xmlns:rdf="http://www.w3.org/1999/02/22-rdf-syntax-ns#" xmlns:svg="http://www.w3.org/2000/svg" viewBox="0 0 396.7 397">
  <defs>
    <style>
      .cls-1, .cls-2, .cls-3, .cls-4 {
        stroke-width: 0px;
      }

      .cls-1, .cls-3 {
        fill: #ffd200;
      }

      .cls-2 {
        fill: #e4002b;
      }

      .cls-3, .cls-4 {
        fill-rule: evenodd;
      }

      .cls-4 {
        fill: #000;
      }
    </style>
  </defs>
  <g id="CIRCLE">
    <path class="cls-1" d="M396.7,198.5C396.7,88.9,307.9,0,198.3,0S0,88.9,0,198.5s88.9,198.5,198.3,198.5,198.4-88.9,198.4-198.5h0Z"/>
  </g>
  <g id="CIRCLE-2">
    <path class="cls-2" d="M390.5,198.5c0-106.2-85.9-192.3-192.1-192.3S6.2,92.3,6.2,198.5s86,192.3,192.1,192.3,192.1-86.1,192.1-192.3h0Z"/>
  </g>
  <g id="CIRCLE-3">
    <path class="cls-1" d="M350.2,198.5c0-84-67.9-152-151.9-152S46.5,114.6,46.5,198.5s68,152,151.8,152,151.9-68.1,151.9-152h0Z"/>
  </g>
  <g>
    <polygon class="cls-4" points="140.7 237 148 237.7 153 239.4 158.4 241.3 164.8 245.7 170.2 251.1 174.2 257.2 176.9 264.2 178.7 271.3 178.7 279 176.9 286.1 174.2 293.2 170.2 299.5 164.8 304.5 158.4 308.9 151.7 311.6 145.3 313 135.7 313 129.5 311.6 122.4 308.9 116.4 304.5 111.1 299.5 107 293.2 104 286.1 102.6 279 102.6 271.3 104 264.2 107 257.2 111.1 251.1 113.7 248.1 119.4 243.4 122.4 241.3 128.2 239 133.2 237.7 140.7 237"/>
    <polygon class="cls-3" points="137.9 254.5 143.3 254.5 148.3 256.1 153 258.9 157.2 262.6 159.7 267.2 161.2 272.6 161.2 278 159.7 283 157.2 287.8 153 291.8 148.3 294.1 143.3 295.8 137.9 295.8 132.7 294.1 127.8 291.8 124.1 287.8 121.5 283 120.1 278 120.1 272.6 120.4 270 121.5 267.2 122.4 264.9 124.5 261.5 127.8 258.9 132.7 256.1 137.9 254.5"/>
    <polygon class="cls-4" points="138.2 260.9 143 260.9 147.3 262.2 150.7 264.9 153.4 268.6 155 273 155 277.3 153.4 281.7 150.7 285.4 147.3 288.1 143 289.4 138.2 289.4 133.9 288.1 130.2 285.4 127.5 281.7 126.1 277.3 126.1 273 127.5 268.6 130.2 264.9 133.9 262.2 138.2 260.9"/>
    <polygon class="cls-4" points="258.2 236.6 265.8 237.3 270.9 239 276.3 241.3 282.3 245.4 287.8 250.8 292 256.8 294.8 263.9 296.2 271.3 296.2 278.7 294.8 286.1 292 292.8 287.8 299.2 282.3 304.3 276.3 308.6 269.3 311.3 263.3 313 253.4 312.6 247.4 311.3 240.3 308.6 234.3 304.3 228.9 299.2 224.5 292.8 221.8 286.1 220.5 278.7 220.5 271.3 221.8 263.9 224.5 256.8 228.9 250.8 231.3 248.1 237.3 243.1 240.3 241.3 245.7 238.7 250.7 237.3 258.2 236.6"/>
    <polygon class="cls-3" points="255.4 254.5 261.2 254.5 266.3 255.8 270.9 258.5 274.7 262.2 277.3 266.9 278.9 272.3 278.9 277.6 277.3 282.7 274.7 287.4 270.9 291.5 266.3 294.1 261.2 295.5 255.4 295.5 250.4 294.1 245.7 291.5 242 287.4 239.3 282.7 237.7 277.6 237.7 272.3 238.3 269.6 239.3 266.9 240.3 264.6 242.4 261.2 245.7 258.5 250.4 255.8 255.4 254.5"/>
    <polygon class="cls-4" points="256.2 260.5 260.4 260.5 264.8 261.9 268.5 264.6 271.3 268.3 272.7 272.6 272.7 277.3 271.3 281.4 268.5 285.1 264.8 287.8 260.4 289.4 256.2 289.4 251.7 287.8 248 285.1 245.4 281.4 244 277.3 244 272.6 245.4 268.3 248 264.6 251.7 261.9 256.2 260.5"/>
    <polygon class="cls-4" points="87.8 275.3 95.2 275.3 95.6 270.9 95.9 266.9 96.9 262.9 98.6 257.8 101.3 253.1 104.3 247.7 107 244.7 110 241.7 113.4 239 116.7 236.6 120.4 234.6 124.1 232.9 128.2 231.6 132.2 230.6 136.3 230 140.7 230 257.8 230 261.8 230 266.3 230.6 270.3 231.6 274.3 232.9 277.9 234.6 281.7 236.6 285 239 288 241.7 291 244.7 293.8 247.7 296.2 251.4 298.2 255.2 299.8 258.9 301.2 262.9 302.2 266.9 302.8 270.9 302.8 275.3 310.5 275.3 310.3 270.9 309.8 266.5 308.9 262.2 307.8 258.2 306.2 253.8 304.2 250.1 302.2 246.4 299.4 242.7 296.8 239.4 293.4 236.3 290 233.6 286.8 230.9 281.9 228 274.9 225.2 269.3 223.6 262.3 222.6 135.9 222.6 131.5 222.9 127.5 223.9 123.1 225.2 119.1 226.9 115.4 228.7 111.7 230.9 108 233.6 104.6 236.3 101.6 239.4 98.6 242.7 96.3 246.4 93.9 250.1 92.2 253.8 90.5 258.2 89.2 263.5 88.5 266.5 87.8 270.9 87.8 275.3"/>
    <polygon class="cls-4" points="190.7 160.4 209.5 160.4 209.5 181.9 230.9 181.9 200.2 212.8 169.2 181.9 190.7 181.9 190.7 160.4"/>
  </g>
</svg>