<?xml version="1.0" encoding="UTF-8" standalone="no"?>
<svg
   xmlns:dc="http://purl.org/dc/elements/1.1/"
   xmlns:cc="http://creativecommons.org/ns#"
   xmlns:rdf="http://www.w3.org/1999/02/22-rdf-syntax-ns#"
   xmlns:svg="http://www.w3.org/2000/svg"
   xmlns="http://www.w3.org/2000/svg"
   xml:space="preserve"
   viewBox="0 0 496.06397 495.98699"
   height="495.987"
   width="496.064"
   y="0px"
   x="0px"
   id="Layer_1"
   version="1.1"><metadata
   id="metadata25"><rdf:RDF><cc:Work
       rdf:about=""><dc:format>image/svg+xml</dc:format><dc:type
         rdf:resource="http://purl.org/dc/dcmitype/StillImage" /></cc:Work></rdf:RDF></metadata><defs
   id="defs23" />
<g
   transform="translate(-49.608,-172.952)"
   id="CIRCLE_72_">
	<path
   id="path2"
   d="m 545.672,420.973 c 0,-137.008 -111.033,-248.021 -248.061,-248.021 -136.895,0 -248.003,111.014 -248.003,248.021 0,136.933 111.108,247.966 248.003,247.966 137.028,-10e-4 248.061,-111.034 248.061,-247.966 z"
   style="fill:#ffd200" />
</g>
<g
   transform="translate(-49.608,-172.952)"
   id="CIRCLE_73_">
	<path
   id="path5"
   d="m 537.859,420.973 c 0,-132.742 -107.468,-240.229 -240.248,-240.229 -132.628,0 -240.229,107.486 -240.229,240.229 0,132.609 107.601,240.229 240.229,240.229 132.781,0 240.248,-107.62 240.248,-240.229 z"
   style="fill:#ef3e42" />
</g>
<g
   transform="translate(-49.608,-172.952)"
   id="CIRCLE_74_">
	<path
   id="path8"
   d="m 487.501,420.973 c 0,-104.908 -84.943,-189.889 -189.89,-189.889 -104.813,0 -189.851,84.98 -189.851,189.889 0,104.852 85.038,189.87 189.851,189.87 104.947,0 189.89,-85.019 189.89,-189.87 z"
   style="fill:#ffd200" />
</g>
<g
   transform="translate(-49.608,-172.952)"
   id="LWPOLYLINE_119_">
	<path
   id="path11"
   d="m 313.159,477.134 c 0,35.305 28.63,63.935 63.953,63.935 35.305,0 63.821,-28.63 63.821,-63.935 V 372.51 c 0,-35.285 -28.517,-63.915 -63.821,-63.915 -35.323,0 -63.953,28.63 -63.953,63.915 z" />
</g>
<g
   transform="translate(-49.608,-172.952)"
   id="LWPOLYLINE_120_">
	<path
   id="path14"
   d="m 160.072,477.134 c 0,35.305 28.668,63.935 63.973,63.935 35.323,0 63.954,-28.63 63.954,-63.935 v -25.559 c 0,-35.361 -28.63,-63.916 -63.954,-63.916 -8.949,0 -17.709,1.84 -25.9,5.423 l 4.967,-49.581 h 63.973 l -2.389,-34.906 h -92.982 l -11.642,116.189 40.689,9.348 c 5.461,-7.357 14.107,-11.623 23.284,-11.623 16.041,0 29.047,12.988 29.047,29.066 v 25.559 c 0,16.041 -13.007,29.123 -29.047,29.123 -16.021,0 -29.124,-13.082 -29.124,-29.123 z" />
</g>
<g
   transform="translate(-49.608,-172.952)"
   id="LWPOLYLINE_121_">
	<path
   id="path17"
   d="m 347.989,477.134 c 0,16.041 13.083,29.123 29.123,29.123 16.041,0 29.048,-13.082 29.048,-29.123 V 372.51 c 0,-16.021 -13.007,-29.009 -29.048,-29.009 -16.04,0 -29.123,12.987 -29.123,29.009 z"
   style="fill:#ffd200" />
</g>
</svg>