<?xml version="1.0" encoding="UTF-8" standalone="no"?>
<svg
   xmlns:dc="http://purl.org/dc/elements/1.1/"
   xmlns:cc="http://creativecommons.org/ns#"
   xmlns:rdf="http://www.w3.org/1999/02/22-rdf-syntax-ns#"
   xmlns:svg="http://www.w3.org/2000/svg"
   xmlns="http://www.w3.org/2000/svg"
   xml:space="preserve"
   viewBox="0 0 496.06397 496.044"
   height="496.04401"
   width="496.064"
   y="0px"
   x="0px"
   id="Layer_1"
   version="1.1"><metadata
   id="metadata25"><rdf:RDF><cc:Work
       rdf:about=""><dc:format>image/svg+xml</dc:format><dc:type
         rdf:resource="http://purl.org/dc/dcmitype/StillImage" /></cc:Work></rdf:RDF></metadata><defs
   id="defs23" />
<g
   transform="translate(-49.608,-172.923)"
   id="CIRCLE_90_">
	<path
   id="path2"
   d="m 545.672,420.974 c 0,-137.024 -111.083,-248.051 -248.051,-248.051 -136.968,0 -248.013,111.026 -248.013,248.051 0,136.948 111.045,247.993 248.013,247.993 136.968,0 248.051,-111.045 248.051,-247.993 z"
   style="fill:#ffd200" />
</g>
<g
   transform="translate(-49.608,-172.923)"
   id="CIRCLE_91_">
	<path
   id="path5"
   d="m 537.897,420.945 c 0,-132.757 -107.557,-240.257 -240.276,-240.257 -132.701,0 -240.257,107.5 -240.257,240.257 0,132.625 107.556,240.256 240.257,240.256 132.72,0 240.276,-107.631 240.276,-240.256 z"
   style="fill:#ef3e42" />
</g>
<g
   transform="translate(-49.608,-172.923)"
   id="CIRCLE_92_">
	<path
   id="path8"
   d="m 487.494,420.954 c 0,-104.92 -84.99,-189.91 -189.873,-189.91 -104.845,0 -189.93,84.99 -189.93,189.91 0,104.863 85.085,189.892 189.93,189.892 104.883,0 189.873,-85.029 189.873,-189.892 z"
   style="fill:#ffd200" />
</g>
<g
   transform="translate(-49.608,-172.923)"
   id="LWPOLYLINE_146_">
	<path
   id="path11"
   d="m 308.999,473.216 c 0,35.346 28.672,64.018 63.961,64.018 35.309,0 63.979,-28.672 63.979,-64.018 v -104.58 c 0,-35.308 -28.671,-63.98 -63.979,-63.98 -35.289,0 -63.961,28.672 -63.961,63.98 z" />
</g>
<g
   transform="translate(-49.608,-172.923)"
   id="LWPOLYLINE_147_">
	<path
   id="path14"
   d="m 171.292,304.581 v 34.929 h 76.95 c -3.66,18.678 -9.311,36.826 -16.877,54.271 -14.222,35.289 -21.484,72.986 -21.484,110.912 v 32.615 h 34.854 v -44.182 c 0,-38.723 7.414,-77.198 21.788,-113.265 8.002,-24.291 12.743,-49.606 14.108,-75.282 H 171.292 Z" />
</g>
<g
   transform="translate(-49.608,-172.923)"
   id="LWPOLYLINE_148_">
	<path
   id="path17"
   d="m 343.928,473.197 c 0,16.08 12.99,29.126 29.032,29.126 16.042,0 29.051,-13.046 29.051,-29.126 v -104.58 c 0,-16.023 -13.009,-29.051 -29.051,-29.051 -16.042,0 -29.032,13.027 -29.032,29.051 z"
   style="fill:#ffd200" />
</g>
</svg>