<?xml version="1.0" encoding="UTF-8" standalone="no"?>
<svg
   xmlns:dc="http://purl.org/dc/elements/1.1/"
   xmlns:cc="http://creativecommons.org/ns#"
   xmlns:rdf="http://www.w3.org/1999/02/22-rdf-syntax-ns#"
   xmlns:svg="http://www.w3.org/2000/svg"
   xmlns="http://www.w3.org/2000/svg"
   xml:space="preserve"
   viewBox="0 0 496.06296 496.083"
   height="496.08301"
   width="496.06299"
   y="0px"
   x="0px"
   id="Layer_1"
   version="1.1"><metadata
   id="metadata31"><rdf:RDF><cc:Work
       rdf:about=""><dc:format>image/svg+xml</dc:format><dc:type
         rdf:resource="http://purl.org/dc/dcmitype/StillImage" /></cc:Work></rdf:RDF></metadata><defs
   id="defs29" />
<g
   transform="translate(-49.609,-172.904)"
   id="CIRCLE_87_">
	<path
   id="path2"
   d="m 545.672,420.973 c 0,-137.034 -111.054,-248.069 -247.994,-248.069 -137.053,0 -248.069,111.035 -248.069,248.069 0,136.959 111.017,248.014 248.069,248.014 136.94,-10e-4 247.994,-111.055 247.994,-248.014 z"
   style="fill:#ffd200" />
</g>
<g
   transform="translate(-49.609,-172.904)"
   id="CIRCLE_88_">
	<path
   id="path5"
   d="m 537.935,420.973 c 0,-132.768 -107.603,-240.274 -240.257,-240.274 -132.748,0 -240.294,107.507 -240.294,240.274 0,132.636 107.546,240.275 240.294,240.275 132.654,0 240.257,-107.64 240.257,-240.275 z"
   style="fill:#ef3e42" />
</g>
<g
   transform="translate(-49.609,-172.904)"
   id="CIRCLE_89_">
	<path
   id="path8"
   d="m 487.604,420.973 c 0,-104.928 -85.072,-189.925 -189.926,-189.925 -104.928,0 -189.906,84.997 -189.906,189.925 0,104.872 84.979,189.907 189.906,189.907 104.853,0 189.926,-85.035 189.926,-189.907 z"
   style="fill:#ffd200" />
</g>
<g
   transform="translate(-49.609,-172.904)"
   id="LWPOLYLINE_141_">
	<path
   id="path11"
   d="m 313.172,473.2 c 0,35.35 28.598,64.023 63.871,64.023 35.425,0 64.023,-28.674 64.023,-64.023 V 368.613 c 0,-35.312 -28.599,-63.985 -64.023,-63.985 -35.273,0 -63.871,28.674 -63.871,63.985 z" />
</g>
<g
   transform="translate(-49.609,-172.904)"
   id="LWPOLYLINE_142_">
	<path
   id="path14"
   d="m 174.411,410.334 c -12.857,12.176 -20.178,28.959 -20.178,46.633 V 473.2 c 0,35.35 28.674,64.023 63.966,64.023 35.293,0 63.967,-28.674 63.967,-64.023 v -16.233 c 0,-17.674 -7.32,-34.457 -20.179,-46.633 9.255,-10.544 14.337,-24.141 14.337,-38.213 v -9.311 c 0,-32.088 -26.037,-58.183 -58.125,-58.183 -32.105,0 -58.087,26.095 -58.087,58.183 v 9.311 c 0,14.072 5.045,27.669 14.299,38.213 z" />
</g>
<g
   transform="translate(-49.609,-172.904)"
   id="LWPOLYLINE_143_">
	<path
   id="path17"
   d="m 189.146,473.2 c 0,16.082 12.99,29.129 29.053,29.129 16.063,0 29.129,-13.047 29.129,-29.129 v -16.233 c 0,-16.043 -13.065,-29.033 -29.129,-29.033 -16.063,0 -29.053,12.99 -29.053,29.033 z"
   style="fill:#ffd200" />
</g>
<g
   transform="translate(-49.609,-172.904)"
   id="LWPOLYLINE_144_">
	<path
   id="path20"
   d="m 194.949,362.811 v 9.311 c 0,12.839 10.412,23.25 23.25,23.25 12.839,0 23.288,-10.411 23.288,-23.25 v -9.311 c 0,-12.858 -10.449,-23.25 -23.288,-23.25 -12.838,0 -23.25,10.391 -23.25,23.25 z"
   style="fill:#ffd200" />
</g>
<g
   transform="translate(-49.609,-172.904)"
   id="LWPOLYLINE_145_">
	<path
   id="path23"
   d="m 348.047,473.2 c 0,16.082 12.99,29.129 28.996,29.129 16.157,0 29.129,-13.047 29.129,-29.129 V 368.613 c 0,-16.024 -12.972,-29.053 -29.129,-29.053 -16.006,0 -28.996,13.028 -28.996,29.053 z"
   style="fill:#ffd200" />
</g>
</svg>