<?xml version="1.0" encoding="UTF-8" standalone="no"?>
<svg
   xmlns:dc="http://purl.org/dc/elements/1.1/"
   xmlns:cc="http://creativecommons.org/ns#"
   xmlns:rdf="http://www.w3.org/1999/02/22-rdf-syntax-ns#"
   xmlns:svg="http://www.w3.org/2000/svg"
   xmlns="http://www.w3.org/2000/svg"
   xml:space="preserve"
   viewBox="0 0 496.06397 496.06399"
   height="496.064"
   width="496.064"
   y="0px"
   x="0px"
   id="Layer_1"
   version="1.1"><metadata
   id="metadata31"><rdf:RDF><cc:Work
       rdf:about=""><dc:format>image/svg+xml</dc:format><dc:type
         rdf:resource="http://purl.org/dc/dcmitype/StillImage" /></cc:Work></rdf:RDF></metadata><defs
   id="defs29" />
<g
   transform="translate(-49.608,-172.913)"
   id="CIRCLE_84_">
	<path
   id="path2"
   d="m 545.672,420.974 c 0,-137.029 -111.05,-248.061 -248.061,-248.061 -136.935,0 -248.003,111.031 -248.003,248.061 0,136.953 111.068,248.003 248.003,248.003 137.011,0 248.061,-111.05 248.061,-248.003 z"
   style="fill:#ffd200" />
</g>
<g
   transform="translate(-49.608,-172.913)"
   id="CIRCLE_85_">
	<path
   id="path5"
   d="m 537.858,420.974 c 0,-132.763 -107.484,-240.267 -240.247,-240.267 -132.667,0 -240.285,107.504 -240.285,240.267 0,132.63 107.617,240.266 240.285,240.266 132.763,-10e-4 240.247,-107.636 240.247,-240.266 z"
   style="fill:#ef3e42" />
</g>
<g
   transform="translate(-49.608,-172.913)"
   id="CIRCLE_86_">
	<path
   id="path8"
   d="m 487.529,420.974 c 0,-104.925 -84.993,-189.918 -189.918,-189.918 -104.848,0 -189.899,84.993 -189.899,189.918 0,104.867 85.051,189.899 189.899,189.899 104.925,0 189.918,-85.032 189.918,-189.899 z"
   style="fill:#ffd200" />
</g>
<g
   transform="translate(-49.608,-172.913)"
   id="LWPOLYLINE_136_">
	<path
   id="path11"
   d="m 340.64,473.199 c 0,35.348 28.673,64.02 63.982,64.02 35.309,0 63.83,-28.672 63.83,-64.02 V 368.615 c 0,-35.31 -28.521,-63.982 -63.83,-63.982 -35.309,0 -63.982,28.673 -63.982,63.982 z" />
</g>
<g
   transform="translate(-49.608,-172.913)"
   id="LWPOLYLINE_137_">
	<path
   id="path14"
   d="m 204.994,473.199 c 0,35.348 28.635,64.02 63.982,64.02 35.291,0 63.85,-28.672 63.85,-64.02 V 368.615 c 0,-35.31 -28.559,-63.982 -63.85,-63.982 -35.348,0 -63.982,28.673 -63.982,63.982 z" />
</g>
<g
   transform="translate(-49.608,-172.913)"
   id="LWPOLYLINE_138_">
	<path
   id="path17"
   d="m 130.62,338.881 c 13.691,-7.187 23.989,-19.381 28.672,-34.248 h 35.234 V 537.219 H 159.672 V 358.167 l -25.601,4.646 z" />
</g>
<g
   transform="translate(-49.608,-172.913)"
   id="LWPOLYLINE_139_">
	<path
   id="path20"
   d="m 239.849,473.199 c 0,16.08 13.066,29.127 29.127,29.127 16.005,0 28.995,-13.047 28.995,-29.127 V 368.615 c 0,-16.023 -12.99,-29.052 -28.995,-29.052 -16.062,0 -29.127,13.028 -29.127,29.052 z"
   style="fill:#ffd200" />
</g>
<g
   transform="translate(-49.608,-172.913)"
   id="LWPOLYLINE_140_">
	<path
   id="path23"
   d="m 375.494,473.199 c 0,16.08 13.085,29.127 29.128,29.127 16.043,0 29.014,-13.047 29.014,-29.127 V 368.615 c 0,-16.023 -12.971,-29.052 -29.014,-29.052 -16.043,0 -29.128,13.028 -29.128,29.052 z"
   style="fill:#ffd200" />
</g>
</svg>