<?xml version="1.0" encoding="UTF-8" standalone="no"?>
<svg
   xmlns:dc="http://purl.org/dc/elements/1.1/"
   xmlns:cc="http://creativecommons.org/ns#"
   xmlns:rdf="http://www.w3.org/1999/02/22-rdf-syntax-ns#"
   xmlns:svg="http://www.w3.org/2000/svg"
   xmlns="http://www.w3.org/2000/svg"
   xml:space="preserve"
   viewBox="0 0 496.06296 495.949"
   height="495.94901"
   width="496.06299"
   y="0px"
   x="0px"
   id="Layer_1"
   version="1.1"><metadata
   id="metadata28"><rdf:RDF><cc:Work
       rdf:about=""><dc:format>image/svg+xml</dc:format><dc:type
         rdf:resource="http://purl.org/dc/dcmitype/StillImage" /></cc:Work></rdf:RDF></metadata><defs
   id="defs26" />
<g
   transform="translate(-49.609,-172.971)"
   id="CIRCLE_81_">
	<path
   id="path2"
   d="m 545.672,420.974 c 0,-136.998 -111.063,-248.003 -248.079,-248.003 -136.885,0 -247.984,111.005 -247.984,248.003 0,136.923 111.1,247.946 247.984,247.946 137.016,0 248.079,-111.024 248.079,-247.946 z"
   style="fill:#ffd200" />
</g>
<g
   transform="translate(-49.609,-172.971)"
   id="CIRCLE_82_">
	<path
   id="path5"
   d="m 537.822,420.974 c 0,-132.732 -107.497,-240.211 -240.229,-240.211 -132.618,0 -240.211,107.479 -240.211,240.211 0,132.599 107.593,240.21 240.211,240.21 132.732,0 240.229,-107.612 240.229,-240.21 z"
   style="fill:#ef3e42" />
</g>
<g
   transform="translate(-49.609,-172.971)"
   id="CIRCLE_83_">
	<path
   id="path8"
   d="m 487.506,420.974 c 0,-104.9 -84.975,-189.875 -189.913,-189.875 -104.806,0 -189.837,84.975 -189.837,189.875 0,104.843 85.031,189.856 189.837,189.856 104.938,0 189.913,-85.014 189.913,-189.856 z"
   style="fill:#ffd200" />
</g>
<g
   transform="translate(-49.609,-172.971)"
   id="LWPOLYLINE_132_">
	<path
   id="path11"
   d="m 339.341,473.188 c 0,35.338 28.571,64.004 63.948,64.004 35.302,0 63.893,-28.666 63.893,-64.004 v -104.56 c 0,-35.302 -28.591,-63.968 -63.893,-63.968 -35.377,0 -63.948,28.666 -63.948,63.968 z" />
</g>
<g
   transform="translate(-49.609,-172.971)"
   id="LWPOLYLINE_133_">
	<path
   id="path14"
   d="m 204.238,380.269 h 34.847 v -11.641 c 0,-3.754 0.777,-7.489 2.237,-10.939 6.029,-14.883 22.979,-22.011 37.805,-15.944 14.883,6.029 21.992,22.979 15.963,37.88 L 204.238,502.31 v 34.883 H 332.135 V 502.31 h -88.387 l 84.576,-111.992 c 12.021,-33.141 -5.194,-69.826 -38.43,-81.79 -33.235,-12.02 -69.826,5.157 -81.809,38.392 -3.299,9.006 -4.455,18.675 -3.508,28.135 z" />
</g>
<g
   transform="translate(-49.609,-172.971)"
   id="LWPOLYLINE_134_">
	<path
   id="path17"
   d="m 130.582,338.9 c 13.783,-7.186 24.06,-19.376 28.742,-34.24 h 35.207 v 232.532 h -34.828 v -179.01 l -25.595,4.645 z" />
</g>
<g
   transform="translate(-49.609,-172.971)"
   id="LWPOLYLINE_135_">
	<path
   id="path20"
   d="m 374.168,473.188 c 0,16.076 13.082,29.121 29.121,29.121 16.04,0 29.008,-13.045 29.008,-29.121 v -104.56 c 0,-16.02 -12.968,-29.045 -29.008,-29.045 -16.039,0 -29.121,13.025 -29.121,29.045 z"
   style="fill:#ffd200" />
</g>
</svg>