<?xml version="1.0" encoding="UTF-8" standalone="no"?>
<svg
   xmlns:dc="http://purl.org/dc/elements/1.1/"
   xmlns:cc="http://creativecommons.org/ns#"
   xmlns:rdf="http://www.w3.org/1999/02/22-rdf-syntax-ns#"
   xmlns:svg="http://www.w3.org/2000/svg"
   xmlns="http://www.w3.org/2000/svg"
   xml:space="preserve"
   viewBox="0 0 496.06397 496.06399"
   height="496.064"
   width="496.064"
   y="0px"
   x="0px"
   id="Layer_1"
   version="1.1"><metadata
   id="metadata28"><rdf:RDF><cc:Work
       rdf:about=""><dc:format>image/svg+xml</dc:format><dc:type
         rdf:resource="http://purl.org/dc/dcmitype/StillImage" /></cc:Work></rdf:RDF></metadata><defs
   id="defs26" />
<g
   transform="translate(-49.608,-172.913)"
   id="CIRCLE_75_">
	<path
   id="path2"
   d="m 545.672,420.974 c 0,-137.029 -111.05,-248.061 -248.098,-248.061 -136.916,0 -247.966,111.031 -247.966,248.061 0,136.953 111.05,248.003 247.966,248.003 137.048,0 248.098,-111.05 248.098,-248.003 z"
   style="fill:#ffd200" />
</g>
<g
   transform="translate(-49.608,-172.913)"
   id="CIRCLE_76_">
	<path
   id="path5"
   d="m 537.973,420.974 c 0,-132.763 -107.598,-240.267 -240.398,-240.267 -132.649,0 -240.267,107.504 -240.267,240.267 0,132.63 107.617,240.266 240.267,240.266 132.8,-10e-4 240.398,-107.636 240.398,-240.266 z"
   style="fill:#ef3e42" />
</g>
<g
   transform="translate(-49.608,-172.913)"
   id="CIRCLE_77_">
	<path
   id="path8"
   d="m 487.492,420.974 c 0,-104.925 -84.956,-189.918 -189.918,-189.918 -104.83,0 -189.881,84.993 -189.881,189.918 0,104.867 85.051,189.899 189.881,189.899 104.962,0 189.918,-85.032 189.918,-189.899 z"
   style="fill:#ffd200" />
</g>
<g
   transform="translate(-49.608,-172.913)"
   id="LWPOLYLINE_125_">
	<path
   id="path11"
   d="m 313.124,473.199 c 0,35.348 28.653,64.02 63.964,64.02 35.31,0 63.982,-28.672 63.982,-64.02 V 368.615 c 0,-35.31 -28.673,-63.982 -63.982,-63.982 -35.311,0 -63.964,28.673 -63.964,63.982 z" />
</g>
<g
   transform="translate(-49.608,-172.913)"
   id="LWPOLYLINE_126_">
	<polygon
   id="polygon14"
   points="263.516,455.828 282.156,455.828 282.156,490.721 263.516,490.721 263.516,537.219 228.661,537.219 228.661,490.721 142.605,490.721 142.605,455.828 228.661,304.633 263.516,304.633 " />
</g>
<g
   transform="translate(-49.608,-172.913)"
   id="LWPOLYLINE_127_">
	<polygon
   id="polygon17"
   points="228.661,455.828 182.144,455.828 228.661,374.115 "
   style="fill:#ffd200" />
</g>
<g
   transform="translate(-49.608,-172.913)"
   id="LWPOLYLINE_128_">
	<path
   id="path20"
   d="m 348.035,473.199 c 0,16.08 13.01,29.127 29.053,29.127 16.043,0 29.052,-13.047 29.052,-29.127 V 368.615 c 0,-16.023 -13.009,-29.052 -29.052,-29.052 -16.043,0 -29.053,13.028 -29.053,29.052 z"
   style="fill:#ffd200" />
</g>
</svg>