<?xml version="1.0" encoding="UTF-8" standalone="no"?>
<svg
   xmlns:dc="http://purl.org/dc/elements/1.1/"
   xmlns:cc="http://creativecommons.org/ns#"
   xmlns:rdf="http://www.w3.org/1999/02/22-rdf-syntax-ns#"
   xmlns:svg="http://www.w3.org/2000/svg"
   xmlns="http://www.w3.org/2000/svg"
   xml:space="preserve"
   viewBox="0 0 496.06297 496.06399"
   height="496.064"
   width="496.06299"
   y="0px"
   x="0px"
   id="Layer_1"
   version="1.1"><metadata
   id="metadata19"><rdf:RDF><cc:Work
       rdf:about=""><dc:format>image/svg+xml</dc:format><dc:type
         rdf:resource="http://purl.org/dc/dcmitype/StillImage" /></cc:Work></rdf:RDF></metadata><defs
   id="defs17" />
<path
   id="path2"
   d="M 496.063,248.032 C 496.063,111.047 385.016,0 248.032,0 111.047,0 0,111.047 0,248.032 c 0,136.983 111.047,248.032 248.032,248.032 136.984,0 248.031,-111.049 248.031,-248.032"
   style="fill:#ffd200" />
<path
   id="path4"
   d="M 488.312,248.032 C 488.312,115.328 380.734,7.751 248.032,7.751 115.328,7.751 7.75,115.328 7.75,248.032 c 0,132.702 107.578,240.28 240.282,240.28 132.702,0 240.28,-107.578 240.28,-240.28"
   style="fill:#ef3e42" />
<path
   id="path6"
   d="m 437.93,248.032 c 0,-104.878 -85.021,-189.899 -189.898,-189.899 -104.878,0 -189.9,85.021 -189.9,189.899 0,104.878 85.022,189.899 189.9,189.899 104.877,0 189.898,-85.021 189.898,-189.899"
   style="fill:#ffd200" />
<path
   id="path8"
   d="m 273.093,300.351 c 0,35.316 28.63,63.943 63.946,63.943 35.314,0 63.945,-28.627 63.945,-63.943 V 195.712 c 0,-35.315 -28.631,-63.945 -63.945,-63.945 -35.316,0 -63.946,28.63 -63.946,63.945 z" />
<path
   id="path10"
   d="m 122.55,207.338 h 34.879 v -11.626 c 0,-3.764 0.732,-7.493 2.154,-10.98 6.063,-14.863 23.029,-21.996 37.892,-15.933 14.863,6.063 21.997,23.027 15.934,37.892 L 122.55,329.417 v 34.877 H 250.442 V 329.417 H 162.081 L 246.64,217.433 c 11.996,-33.218 -5.207,-69.867 -38.423,-81.865 -33.217,-11.996 -69.868,5.208 -81.865,38.423 -3.252,9.006 -4.439,18.628 -3.476,28.155 z" />
<path
   id="path12"
   d="m 307.973,300.351 c 0,16.053 13.014,29.066 29.066,29.066 16.051,0 29.066,-13.014 29.066,-29.066 V 195.712 c 0,-16.052 -13.016,-29.066 -29.066,-29.066 -16.053,0 -29.066,13.014 -29.066,29.066 z"
   style="fill:#ffd200" />
</svg>