<?xml version="1.0" encoding="UTF-8"?>
<svg id="Layer_1" data-name="Layer 1" xmlns="http://www.w3.org/2000/svg" version="1.1" xmlns:cc="http://creativecommons.org/ns#" xmlns:dc="http://purl.org/dc/elements/1.1/" xmlns:rdf="http://www.w3.org/1999/02/22-rdf-syntax-ns#" xmlns:svg="http://www.w3.org/2000/svg" viewBox="0 0 396.7 397">
  <defs>
    <style>
      .cls-1 {
        fill: #000;
      }

      .cls-1, .cls-2, .cls-3 {
        stroke-width: 0px;
      }

      .cls-2 {
        fill: #ffd200;
      }

      .cls-3 {
        fill: #ef3e42;
      }
    </style>
  </defs>
  <path class="cls-2" d="M396.7,198.5C396.7,88.9,307.9,0,198.4,0S0,88.9,0,198.5s88.8,198.5,198.4,198.5,198.3-88.9,198.3-198.5"/>
  <path class="cls-3" d="M390.5,198.5c0-106.2-86-192.3-192.2-192.3S6.2,92.3,6.2,198.5s86,192.3,192.2,192.3c106.1,0,192.2-86.1,192.2-192.3"/>
  <path class="cls-2" d="M350.2,198.5c0-83.9-68-151.9-151.9-151.9S46.5,114.5,46.5,198.5s68,151.9,151.9,151.9,151.9-68,151.9-151.9"/>
  <path class="cls-1" d="M211.2,240.3c0,28.3,22.9,51.2,51.1,51.2s51.1-22.9,51.1-51.2v-83.7c0-28.3-22.9-51.2-51.1-51.2s-51.1,22.9-51.1,51.2v83.7h0Z"/>
  <path class="cls-1" d="M98,164h26.2v-9c0-2.9.5-5.8,1.6-8.5,4.6-11.5,17.3-17.1,28.4-12.4s16.5,17.9,12,29.4l-68.2,95.1v27h96v-27h-66.3l63.5-86.8c9-25.8-3.9-54.2-28.8-63.5-24.9-9.3-52.4,4-61.4,29.8-2.4,7-3.3,14.4-2.6,21.8l-.2,4Z"/>
  <path class="cls-2" d="M239.1,240.3c0,12.8,10.4,23.3,23.2,23.3s23.2-10.4,23.2-23.3v-83.7c0-12.8-10.4-23.3-23.2-23.3s-23.2,10.4-23.2,23.3v83.7Z"/>
</svg>