<?xml version="1.0" encoding="UTF-8" standalone="no"?>
<svg
   xmlns:dc="http://purl.org/dc/elements/1.1/"
   xmlns:cc="http://creativecommons.org/ns#"
   xmlns:rdf="http://www.w3.org/1999/02/22-rdf-syntax-ns#"
   xmlns:svg="http://www.w3.org/2000/svg"
   xmlns="http://www.w3.org/2000/svg"
   height="496.47195"
   width="497.03986"
   xml:space="preserve"
   viewBox="0 0 497.03986 496.47195"
   y="0px"
   x="0px"
   id="Layer_1"
   version="1.1"><metadata
   id="metadata26"><rdf:RDF><cc:Work
       rdf:about=""><dc:format>image/svg+xml</dc:format><dc:type
         rdf:resource="http://purl.org/dc/dcmitype/StillImage" /></cc:Work></rdf:RDF></metadata><defs
   id="defs24" />
<style
   id="style2"
   type="text/css">
	.st0{fill-rule:evenodd;clip-rule:evenodd;fill:#CFD4D8;}
	.st1{fill-rule:evenodd;clip-rule:evenodd;fill:#FFFFFF;}
	.st2{fill-rule:evenodd;clip-rule:evenodd;fill:none;stroke:#000000;stroke-width:2.334;stroke-miterlimit:10;}
	.st3{fill:#CFD4D8;}
	.st4{fill-rule:evenodd;clip-rule:evenodd;}
</style>
<polygon
   transform="translate(-36.938629,-144.52263)"
   style="clip-rule:evenodd;fill:#cfd4d8;fill-rule:evenodd"
   id="polygon4"
   points="378.14,276.08 388.58,278.6 398.22,282.78 407.01,288.68 414.57,295.81 421.26,304.16 426.3,313.45 429.69,323.46 431.34,333.97 431.34,451.69 428.82,461.77 425.08,471.42 419.61,480.63 412.91,488.55 404.49,495.32 395.7,500.29 385.62,504.1 375.62,506.19 365.1,507.06 354.66,505.33 344.58,502.45 335.37,498.2 326.51,491.94 319.02,484.81 312.69,476.02 308.08,466.81 306.42,461.77 303.9,451.69 303.9,333.97 305.56,323.46 309.38,313.45 314.42,304.16 320.68,295.81 328.67,288.68 337.46,282.78 347.1,278.6 357.18,276.08 362.58,275.65 373.1,275.65 "
   class="st0" />
<polygon
   transform="translate(-36.938629,-144.52263)"
   style="clip-rule:evenodd;fill:#ffffff;fill-rule:evenodd"
   id="polygon6"
   points="383.18,314.24 391.1,321.37 394.91,327.63 397,334.4 397,336.92 397,448.3 395.27,453.78 391.96,460.04 387.35,465.51 384.83,467.6 378.5,470.98 372.66,473.07 364.31,472.64 357.54,470.98 351.28,467.6 345.81,462.99 341.63,456.73 339.54,450.03 338.68,446.65 338.68,338.14 339.11,334.4 340.77,327.63 343.29,322.23 346.67,318.85 352.5,314.24 356.75,311.29 362.58,310.06 365.97,309.63 376.84,310.93 "
   class="st1" />
<path
   style="clip-rule:evenodd;fill:none;fill-rule:evenodd;stroke:#000000;stroke-width:2.33400011;stroke-miterlimit:10"
   id="path8"
   d="m 243.13137,1.1673727 c 135.79,1.73 233.86,87.6200003 251.93,225.1399973 9.65,125.71 -67.54,230.11 -185.76,261.94 -173.45,39.02 -310.9699987,-89.28 -308.0899987,-245.16 C 9.2013713,105.56737 108.13137,7.9373727 243.13137,1.1673727 Z"
   class="st2" />
<g
   transform="translate(-36.938629,-144.52263)"
   id="LWPOLYLINE_130_">
	<path
   style="fill:#cfd4d8"
   id="path10"
   d="m 139.48,442.17 c 0,35.35 28.63,64.02 63.94,64.02 35.33,0 63.89,-28.67 63.89,-64.02 v -13.88 c 0,-18.81 -8.31,-36.81 -22.76,-48.91 10.94,-11.68 16.95,-27.06 16.95,-42.93 v -4.66 c 0,-32.08 -25.96,-58.18 -58.08,-58.18 -32.08,0 -58.14,26.09 -58.14,58.18 v 4.66 h 34.85 v -4.66 c 0,-12.86 10.45,-23.25 23.29,-23.25 12.84,0 23.25,10.39 23.25,23.25 v 4.66 c 0,15.44 -12.55,27.89 -27.89,27.89 h -4.68 v 32.56 h 9.33 c 16.04,0 29.05,12.99 29.05,29.03 v 16.23 c 0,16.08 -13.01,29.13 -29.05,29.13 -16.02,0 -29.09,-13.05 -29.09,-29.13 h -34.86 z"
   class="st3" />
</g>
<polygon
   transform="translate(-36.938629,-144.52263)"
   style="clip-rule:evenodd;fill-rule:evenodd"
   id="polygon13"
   points="148.02,598.86 491.32,255.56 487.14,249.3 482.1,242.96 135.42,589.64 141.76,594.68 "
   class="st4" />
<polygon
   transform="translate(-36.938629,-144.52263)"
   style="clip-rule:evenodd;fill-rule:evenodd"
   id="polygon15"
   points="429.26,191.84 435.52,196.45 88.91,543.49 84.3,536.79 79.7,530.53 422.99,187.23 "
   class="st4" />
<polygon
   transform="translate(-36.938629,-144.52263)"
   style="clip-rule:evenodd;fill-rule:evenodd"
   id="polygon17"
   points="106.55,564.01 456.54,214.09 450.64,208.62 444.74,203.58 96.04,552.27 101.08,558.18 "
   class="st4" />
<polygon
   transform="translate(-36.938629,-144.52263)"
   style="clip-rule:evenodd;fill-rule:evenodd"
   id="polygon19"
   points="126.21,582.51 474.98,233.74 469.94,227.91 464.46,222.01 114.47,572 120.38,577.47 "
   class="st4" />
</svg>