<?xml version="1.0" encoding="utf-8"?>
<!-- Generator: Adobe Illustrator 28.0.0, SVG Export Plug-In . SVG Version: 6.00 Build 0)  -->
<svg version="1.1" id="Layer_1" xmlns="http://www.w3.org/2000/svg" xmlns:xlink="http://www.w3.org/1999/xlink" x="0px" y="0px"
	 viewBox="0 0 595 842" style="enable-background:new 0 0 595 842;" xml:space="preserve">
<style type="text/css">
	.st0{fill-rule:evenodd;clip-rule:evenodd;fill:#CFD4D8;}
	.st1{fill-rule:evenodd;clip-rule:evenodd;fill:#FFFFFF;}
	.st2{fill-rule:evenodd;clip-rule:evenodd;fill:none;stroke:#000000;stroke-width:2.334;stroke-miterlimit:10;}
	.st3{fill:#CFD4D8;}
	.st4{fill-rule:evenodd;clip-rule:evenodd;}
</style>
<polygon class="st0" points="362.58,275.65 373.1,275.65 378.14,276.08 388.58,278.6 398.22,282.78 407.01,288.68 414.57,295.81 
	421.26,304.16 426.3,313.45 429.69,323.46 431.34,333.97 431.34,451.69 428.82,461.77 425.08,471.42 419.61,480.63 412.91,488.55 
	404.49,495.32 395.7,500.29 385.62,504.1 375.62,506.19 365.1,507.06 354.66,505.33 344.58,502.45 335.37,498.2 326.51,491.94 
	319.02,484.81 312.69,476.02 308.08,466.81 306.42,461.77 303.9,451.69 303.9,333.97 305.56,323.46 309.38,313.45 314.42,304.16 
	320.68,295.81 328.67,288.68 337.46,282.78 347.1,278.6 357.18,276.08 "/>
<polygon class="st1" points="365.97,309.63 376.84,310.93 383.18,314.24 391.1,321.37 394.91,327.63 397,334.4 397,336.92 
	397,448.3 395.27,453.78 391.96,460.04 387.35,465.51 384.83,467.6 378.5,470.98 372.66,473.07 364.31,472.64 357.54,470.98 
	351.28,467.6 345.81,462.99 341.63,456.73 339.54,450.03 338.68,446.65 338.68,338.14 339.11,334.4 340.77,327.63 343.29,322.23 
	346.67,318.85 352.5,314.24 356.75,311.29 362.58,310.06 "/>
<path class="st2" d="M280.07,145.69c135.79,1.73,233.86,87.62,251.93,225.14c9.65,125.71-67.54,230.11-185.76,261.94
	C172.79,671.79,35.27,543.49,38.15,387.61C46.14,250.09,145.07,152.46,280.07,145.69z"/>
<g id="LWPOLYLINE_130_">
	<path class="st3" d="M139.48,442.17c0,35.35,28.63,64.02,63.94,64.02c35.33,0,63.89-28.67,63.89-64.02v-13.88
		c0-18.81-8.31-36.81-22.76-48.91c10.94-11.68,16.95-27.06,16.95-42.93v-4.66c0-32.08-25.96-58.18-58.08-58.18
		c-32.08,0-58.14,26.09-58.14,58.18v4.66h34.85v-4.66c0-12.86,10.45-23.25,23.29-23.25c12.84,0,23.25,10.39,23.25,23.25v4.66
		c0,15.44-12.55,27.89-27.89,27.89h-4.68v32.56h9.33c16.04,0,29.05,12.99,29.05,29.03v16.23c0,16.08-13.01,29.13-29.05,29.13
		c-16.02,0-29.09-13.05-29.09-29.13H139.48z"/>
</g>
<polygon class="st4" points="135.42,589.64 141.76,594.68 148.02,598.86 491.32,255.56 487.14,249.3 482.1,242.96 "/>
<polygon class="st4" points="79.7,530.53 422.99,187.23 429.26,191.84 435.52,196.45 88.91,543.49 84.3,536.79 "/>
<polygon class="st4" points="96.04,552.27 101.08,558.18 106.55,564.01 456.54,214.09 450.64,208.62 444.74,203.58 "/>
<polygon class="st4" points="114.47,572 120.38,577.47 126.21,582.51 474.98,233.74 469.94,227.91 464.46,222.01 "/>
</svg>
