<?xml version="1.0" encoding="utf-8"?>
<!-- Generator: Adobe Illustrator 28.0.0, SVG Export Plug-In . SVG Version: 6.00 Build 0)  -->
<svg version="1.1" id="Layer_1" xmlns="http://www.w3.org/2000/svg" xmlns:xlink="http://www.w3.org/1999/xlink" x="0px" y="0px"
	 viewBox="0 0 595 842" style="enable-background:new 0 0 595 842;" xml:space="preserve">
<style type="text/css">
	.st0{fill-rule:evenodd;clip-rule:evenodd;fill:#FFFFFF;}
	.st1{fill-rule:evenodd;clip-rule:evenodd;fill:#CFD4D8;}
	.st2{fill-rule:evenodd;clip-rule:evenodd;fill:none;stroke:#000000;stroke-width:2.334;stroke-miterlimit:10;}
	.st3{fill:#CFD4D8;}
	.st4{fill:#FFFFFF;}
	.st5{fill-rule:evenodd;clip-rule:evenodd;}
</style>
<polygon class="st0" points="203.39,473.07 197.49,471.78 186.18,466.81 178.62,457.95 175.31,450.46 175.31,430.3 177.76,422.31 
	182.37,415.26 189.5,409.86 197.49,407.34 208.36,406.47 218.01,409.86 226.86,416.98 229.74,422.31 232.7,430.3 232.7,446.22 
	231.04,454.21 226.86,460.9 220.96,466.81 213.83,470.55 "/>
<polygon class="st1" points="362.58,275.65 373.1,275.65 378.14,276.08 388.58,278.6 398.22,282.78 407.01,288.68 414.57,295.81 
	421.26,304.16 426.3,313.45 429.69,323.46 431.34,333.97 431.34,451.69 428.82,461.77 425.08,471.42 419.61,480.63 412.91,488.55 
	404.49,495.32 395.7,500.29 385.62,504.1 375.62,506.19 365.1,507.06 354.66,505.33 344.58,502.45 335.37,498.2 326.51,491.94 
	319.02,484.81 312.69,476.02 308.08,466.81 306.42,461.77 303.9,451.69 303.9,333.97 305.56,323.46 309.38,313.45 314.42,304.16 
	320.68,295.81 328.67,288.68 337.46,282.78 347.1,278.6 357.18,276.08 "/>
<polygon class="st0" points="365.97,309.63 376.84,310.93 383.18,314.24 391.1,321.37 394.91,327.63 397,334.4 397,336.92 
	397,448.3 395.27,453.78 391.96,460.04 387.35,465.51 384.83,467.6 378.5,470.98 372.66,473.07 364.31,472.64 357.54,470.98 
	351.28,467.6 345.81,462.99 341.63,456.73 339.54,450.03 338.68,446.65 338.68,338.14 339.11,334.4 340.77,327.63 343.29,322.23 
	346.67,318.85 352.5,314.24 356.75,311.29 362.58,310.06 "/>
<path class="st2" d="M280.07,145.69c135.79,1.73,233.86,87.62,251.93,225.14c9.65,125.71-67.54,230.11-185.76,261.94
	C172.79,671.79,35.27,543.49,38.15,387.61C46.14,250.09,145.07,152.46,280.07,145.69z"/>
<g id="LWPOLYLINE_126_">
	<polygon class="st3" points="213.62,276.47 248.47,276.47 248.47,427.66 267.11,427.66 267.11,462.56 248.47,462.56 248.47,509.05 
		213.62,509.05 213.62,462.56 127.56,462.56 127.56,427.66 	"/>
</g>
<g id="LWPOLYLINE_127_">
	<polygon class="st4" points="167.1,427.66 213.62,345.95 213.62,427.66 	"/>
</g>
<polygon class="st5" points="135.42,589.64 141.76,594.68 148.02,598.86 491.32,255.56 487.14,249.3 482.1,242.96 "/>
<polygon class="st5" points="79.7,530.53 422.99,187.23 429.26,191.84 435.52,196.45 88.91,543.49 84.3,536.79 "/>
<polygon class="st5" points="96.04,552.27 101.08,558.18 106.55,564.01 456.54,214.09 450.64,208.62 444.74,203.58 "/>
<polygon class="st5" points="114.47,572 120.38,577.47 126.21,582.51 474.98,233.74 469.94,227.91 464.46,222.01 "/>
</svg>
