<?xml version="1.0" encoding="UTF-8"?>
<svg id="Layer_1" data-name="Layer 1" xmlns="http://www.w3.org/2000/svg" version="1.1" xmlns:cc="http://creativecommons.org/ns#" xmlns:dc="http://purl.org/dc/elements/1.1/" xmlns:rdf="http://www.w3.org/1999/02/22-rdf-syntax-ns#" xmlns:svg="http://www.w3.org/2000/svg" viewBox="0 0 396.7 397">
  <defs>
    <style>
      .cls-1, .cls-2 {
        fill-rule: evenodd;
      }

      .cls-1, .cls-2, .cls-3 {
        stroke-width: 0px;
      }

      .cls-1, .cls-3 {
        fill: #ffd200;
      }

      .cls-2 {
        fill: #ef3e42;
      }
    </style>
  </defs>
  <rect class="cls-3" width="396.7" height="397"/>
  <polygon class="cls-2" points="0 18.5 .3 15.5 1 12.8 2.3 10.1 3 8.4 4.3 6.4 6.4 4.4 8.4 3 10.8 1.7 12.8 1 15.4 .3 18.5 0 377.9 .3 381.6 .3 384.3 1 386.6 2.3 389 3.7 391 5.4 393 7.4 394.4 9.8 395.7 12.1 396.4 14.8 396.7 17.5 396.7 379.5 396 383.2 394.4 386.2 393 388.9 391 390.9 389 393 386.3 394.7 383.9 395.7 380.9 396.3 378.2 397 20.5 397 16.1 396.3 12.1 395 9.8 393.7 7.4 392 5.4 389.9 3.3 387.9 2 385.2 1 382.9 .3 379.9 0 377.1 0 18.5"/>
  <polygon class="cls-1" points="10.1 19.1 10.1 17.1 10.8 15.5 11.8 13.8 13.1 12.4 14.4 11.4 16.1 10.4 17.8 10.1 19.5 9.8 377.9 9.8 379.6 10.1 381.3 10.4 382.9 11.4 384.3 12.4 385.3 14.1 385.9 15.5 386.6 17.1 386.6 18.8 386.6 378.9 385.9 381.2 384.9 382.9 383.6 384.6 381.9 385.6 379.9 386.6 378.6 386.9 19.8 386.9 17.8 386.6 16.1 386.2 14.4 385.2 12.8 383.9 11.8 382.5 10.8 380.5 10.1 378.9 10.1 376.8 10.1 19.1"/>
  <path class="cls-2" d="M198.2,72.6c70.2-.3,127,58.9,125.6,125.8,0,67.2-56.1,126-125.6,125.7-64.5.7-127.3-51.8-125.3-132.7,4.1-65.2,56.1-117.3,125.3-118.7Z"/>
  <path class="cls-1" d="M97.1,198.4c0-56.1,45.4-101.6,101.1-101.2,59.4,0,101.1,47.8,101.5,101.2,1.3,54.1-45.1,101.5-101.5,101.2-48,1.3-102.1-41.1-101.1-101.2Z"/>
</svg>