<?xml version="1.0" encoding="UTF-8" standalone="no"?>
<svg
   xmlns:dc="http://purl.org/dc/elements/1.1/"
   xmlns:cc="http://creativecommons.org/ns#"
   xmlns:rdf="http://www.w3.org/1999/02/22-rdf-syntax-ns#"
   xmlns:svg="http://www.w3.org/2000/svg"
   xmlns="http://www.w3.org/2000/svg"
   height="512.28003"
   width="512.28003"
   id="svg28"
   xml:space="preserve"
   viewBox="0 0 512.28003 512.28003"
   y="0px"
   x="0px"
   version="1.1"><metadata
   id="metadata34"><rdf:RDF><cc:Work
       rdf:about=""><dc:format>image/svg+xml</dc:format><dc:type
         rdf:resource="http://purl.org/dc/dcmitype/StillImage" /></cc:Work></rdf:RDF></metadata><defs
   id="defs32" />
<style
   id="style2"
   type="text/css">
	.st0{fill-rule:evenodd;clip-rule:evenodd;fill:#FFD200;}
	.st1{fill-rule:evenodd;clip-rule:evenodd;fill:#EF3E42;}
	.st2{fill-rule:evenodd;clip-rule:evenodd;}
</style>
<g
   transform="translate(-47.799999,-117.46)"
   id="Kuvataso_1">
</g>
<g
   transform="translate(-47.799999,-117.46)"
   id="_x30_">
</g>
<g
   transform="translate(-47.799999,-117.46)"
   id="HATKELT">
</g>
<g
   transform="translate(-47.799999,-117.46)"
   id="HAT">
</g>
<g
   transform="translate(-47.799999,-117.46)"
   id="HATPUN">
	<rect
   style="clip-rule:evenodd;fill:#ffd200;fill-rule:evenodd"
   id="rect8"
   height="512.28003"
   width="512.28003"
   class="st0"
   y="117.46"
   x="47.799999" />
	<polygon
   style="clip-rule:evenodd;fill:#ef3e42;fill-rule:evenodd"
   id="polygon10"
   points="49.1,133.95 50.82,130.5 51.69,128.34 53.42,125.67 56.01,123.08 58.67,121.35 61.7,119.62 64.29,118.76 67.74,117.9 71.63,117.46 535.74,117.9 540.57,117.9 544.02,118.76 547.05,120.49 550.07,122.22 552.66,124.38 555.33,126.97 557.06,130.06 558.78,133.09 559.65,136.54 560.08,140 560.08,607.21 559.22,611.96 557.06,615.85 555.33,619.3 552.66,621.9 550.07,624.56 546.62,626.72 543.59,628.02 539.7,628.88 536.25,629.74 74.22,629.74 68.61,628.88 63.42,627.15 60.4,625.42 57.3,623.26 54.71,620.6 52.12,618.01 50.39,614.55 49.1,611.53 48.23,607.64 47.8,604.11 47.8,141.3 48.23,137.41 "
   class="st1" />
	<polygon
   style="clip-rule:evenodd;fill:#ffd200;fill-rule:evenodd"
   id="polygon12"
   points="61.7,137.41 62.99,135.25 64.72,133.52 66.45,132.22 68.61,130.93 70.77,130.5 72.93,130.06 535.74,130.06 537.98,130.5 540.14,130.93 542.3,132.22 544.02,133.52 545.32,135.68 546.18,137.41 547.05,139.57 547.05,141.73 547.05,606.34 546.18,609.37 544.89,611.53 543.16,613.69 541,614.98 538.41,616.28 536.68,616.71 73.36,616.71 70.77,616.28 68.61,615.85 66.45,614.55 64.29,612.82 62.99,611.1 61.7,608.5 60.83,606.34 60.83,603.68 60.83,142.16 60.83,139.57 "
   class="st0" />
	<path
   style="clip-rule:evenodd;fill:#ef3e42;fill-rule:evenodd"
   id="path14"
   d="m 303.69,211.14 c 90.65,-0.43 164.02,75.96 162.22,162.29 0,86.69 -72.43,162.58 -162.22,162.14 -83.23,0.86 -164.38,-66.82 -161.78,-171.29 5.25,-84.17 72.5,-151.34 161.78,-153.14 z"
   class="st1" />
	<path
   style="clip-rule:evenodd;fill:#ffd200;fill-rule:evenodd"
   id="path16"
   d="m 173.15,373.42 c 0,-72.43 58.61,-131.04 130.54,-130.61 76.75,0 130.61,61.63 131.04,130.61 1.73,69.77 -58.18,130.97 -131.04,130.54 -61.99,1.73 -131.83,-52.99 -130.54,-130.54 z"
   class="st0" />
	<polygon
   style="clip-rule:evenodd;fill:#ffd200;fill-rule:evenodd"
   id="polygon18"
   points="254.73,397.26 223.48,397.26 254.73,342.18 "
   class="st0" />
	<polygon
   style="clip-rule:evenodd;fill-rule:evenodd"
   id="polygon20"
   points="367.48,294.01 371.8,295.3 376.12,297.03 380.44,299.26 384.4,301.86 387.86,304.88 394.34,311.79 396.93,317.05 398.66,320.07 400.46,324.82 401.32,329.14 402.18,333.97 402.18,415.47 401.32,419.86 399.59,424.54 397.79,428.86 395.63,432.75 393.04,436.71 390.02,440.17 387.42,442.76 382.67,446.22 378.28,448.81 373.96,450.54 369.64,452.34 364.82,453.2 360.5,453.63 350.99,453.2 346.17,452.34 341.85,450.54 337.53,448.81 333.64,446.22 329.68,443.62 326.22,440.17 323.2,436.71 320.61,432.75 318.02,428.86 316.29,424.54 314.99,419.86 314.13,415.47 314.13,333.97 314.56,329.14 316.29,323.53 317.15,320.07 319.31,315.75 321.9,311.79 324.93,308.34 327.95,304.88 331.91,301.86 335.8,299.26 339.69,297.03 344.01,295.3 348.83,294.01 353.15,293.58 357.9,293.14 362.66,293.58 "
   class="st2" />
	<polygon
   style="clip-rule:evenodd;fill:#ffd200;fill-rule:evenodd"
   id="polygon22"
   points="370.07,320.94 374.39,325.26 377.42,330.87 377.85,333.97 377.85,413.31 376.12,419.43 374.39,421.95 372.23,424.11 370.07,426.27 367.05,428 364.38,429.3 361.36,429.73 354.88,429.73 351.86,429.3 349.26,428 346.17,426.27 344.01,424.11 341.85,421.95 340.12,419.43 338.82,416.34 337.96,413.31 337.96,410.29 337.96,335.7 338.82,330.87 341.85,325.26 344.01,323.1 346.17,320.94 349.26,319.21 351.86,317.91 354.88,317.48 358.34,317.05 364.38,317.91 "
   class="st0" />
	<g
   id="LWPOLYLINE_130_">
		<path
   id="path24"
   d="m 203.82,409.42 c 0,24.39 19.76,44.17 44.12,44.17 24.38,0 44.08,-19.78 44.08,-44.17 v -9.58 c 0,-12.98 -5.73,-25.4 -15.7,-33.75 7.55,-8.06 11.7,-18.67 11.7,-29.62 v -3.22 c 0,-22.14 -17.91,-40.15 -40.08,-40.15 -22.14,0 -40.12,18.01 -40.12,40.15 v 3.22 h 24.05 v -3.22 c 0,-8.87 7.21,-16.04 16.07,-16.04 8.86,0 16.04,7.17 16.04,16.04 v 3.22 c 0,10.65 -8.66,19.25 -19.25,19.25 h -3.23 v 22.47 h 6.44 c 11.07,0 20.05,8.96 20.05,20.03 v 11.2 c 0,11.1 -8.98,20.1 -20.05,20.1 -11.06,0 -20.07,-9 -20.07,-20.1 z" />
	</g>
</g>
</svg>