<?xml version="1.0" encoding="UTF-8"?>
<svg id="Layer_1" data-name="Layer 1" xmlns="http://www.w3.org/2000/svg" version="1.1" xmlns:cc="http://creativecommons.org/ns#" xmlns:dc="http://purl.org/dc/elements/1.1/" xmlns:rdf="http://www.w3.org/1999/02/22-rdf-syntax-ns#" xmlns:svg="http://www.w3.org/2000/svg" viewBox="0 0 396.7 397">
  <defs>
    <style>
      .cls-1 {
        fill: #fff;
      }

      .cls-1, .cls-2, .cls-3 {
        fill-rule: evenodd;
        stroke-width: 0px;
      }

      .cls-2 {
        fill: #cfd4d8;
      }

      .cls-4 {
        fill: none;
        stroke: #231f20;
        stroke-miterlimit: 10;
        stroke-width: 2.4px;
      }

      .cls-3 {
        fill: #231f20;
      }
    </style>
  </defs>
  <rect class="cls-4" y="1.8" width="396.7" height="395.2"/>
  <polygon class="cls-3" points="0 20.2 .3 17.6 1.3 14.9 2.4 12.2 3 10.2 4.7 8.2 6.4 6.5 8.4 4.8 10.8 3.5 12.8 3.2 15.5 2.2 18.5 1.8 377.9 2.5 381.9 2.2 384.6 3.2 386.9 4.2 389.3 5.5 391.3 7.5 393 9.5 394.7 11.9 395.7 14.2 396.4 16.9 396.7 19.6 396.7 379.6 396 383.6 394.7 386.7 393 388.9 391.3 391.3 389 393 386.6 394.7 384 396 381.3 396.7 378.2 397 20.5 397 16.2 396.7 12.1 395.3 9.8 394 7.4 392.3 5.4 390.3 3.7 387.9 2.4 385.6 1 383 .3 380.3 0 377.3 0 20.2"/>
  <polygon class="cls-1" points="10.1 20.9 10.4 19.3 11.1 17.6 11.8 15.9 13.1 14.6 14.5 13.2 16.2 12.6 17.8 11.9 19.8 11.9 377.9 11.9 379.9 11.9 381.6 12.6 382.9 13.6 384.3 14.6 385.2 15.9 386.3 17.6 386.6 19.3 386.9 20.9 386.6 379.3 385.9 381.3 384.9 383.3 383.6 384.6 381.9 386 379.9 386.7 378.6 387.3 20.2 387.3 18.1 386.9 16.2 386.3 14.5 385.3 13.1 384.3 11.8 382.6 10.8 380.9 10.4 378.9 10.1 376.9 10.1 20.9"/>
  <path class="cls-2" d="M198.5,74.5c69.8-.7,126.6,58.2,125.6,125.2-.3,66.8-56.1,125.1-125.6,125.1-64.8.7-127.6-51.9-125.6-132.2,4-65.3,56.4-117.1,125.6-118.1Z"/>
  <path class="cls-1" d="M97.5,199.6c0-55.9,45-101.1,101.1-101.1s101.1,47.8,101.1,101.1c1.3,53.5-45,100.7-101.1,100.7-48.3,1.3-102.4-40.8-101.1-100.7Z"/>
  <polygon class="cls-3" points="10.1 329.4 10.1 348.1 348 10.9 329.8 10.2 10.1 329.4"/>
  <polygon class="cls-3" points="8.1 363.9 361.8 10.9 380.6 10.9 9.4 381.3 8.1 363.9"/>
  <polygon class="cls-3" points="17.5 387.3 36 387.6 386.9 37 386.6 18.9 17.5 387.3"/>
  <polygon class="cls-3" points="49.7 387.6 68.5 387.6 386.9 69.8 386.9 51 49.7 387.6"/>
</svg>