<?xml version="1.0" encoding="UTF-8" standalone="no"?>
<svg
   xmlns:dc="http://purl.org/dc/elements/1.1/"
   xmlns:cc="http://creativecommons.org/ns#"
   xmlns:rdf="http://www.w3.org/1999/02/22-rdf-syntax-ns#"
   xmlns:svg="http://www.w3.org/2000/svg"
   xmlns="http://www.w3.org/2000/svg"
   height="511.14871"
   width="511.14871"
   id="svg33"
   xml:space="preserve"
   viewBox="0 0 511.14871 511.14871"
   y="0px"
   x="0px"
   version="1.1"><metadata
   id="metadata39"><rdf:RDF><cc:Work
       rdf:about=""><dc:format>image/svg+xml</dc:format><dc:type
         rdf:resource="http://purl.org/dc/dcmitype/StillImage" /></cc:Work></rdf:RDF></metadata><defs
   id="defs37" />
<style
   id="style2"
   type="text/css">
	.st0{fill-rule:evenodd;clip-rule:evenodd;fill:none;stroke:#000000;stroke-width:2.3987;stroke-miterlimit:10;}
	.st1{fill-rule:evenodd;clip-rule:evenodd;}
	.st2{fill-rule:evenodd;clip-rule:evenodd;fill:#FFFFFF;}
	.st3{fill-rule:evenodd;clip-rule:evenodd;fill:#CFD4D8;}
	.st4{fill:#CFD4D8;}
</style>
<g
   transform="translate(-50.130652,-132.97065)"
   id="Kuvataso_1">
</g>
<g
   transform="translate(-50.130652,-132.97065)"
   id="_x30_">
</g>
<g
   transform="translate(-50.130652,-132.97065)"
   id="HATHARM">
</g>
<g
   transform="translate(-50.130652,-132.97065)"
   id="HAT">
	<rect
   style="clip-rule:evenodd;fill:none;fill-rule:evenodd;stroke:#000000;stroke-width:2.3987;stroke-miterlimit:10"
   id="rect7"
   height="508.75"
   width="508.75"
   class="st0"
   y="134.17"
   x="51.330002" />
	<polygon
   style="clip-rule:evenodd;fill-rule:evenodd"
   id="polygon9"
   points="53.06,151.02 54.35,147.56 55.22,144.97 57.38,142.38 59.54,140.22 62.13,138.06 65.15,136.33 67.74,135.9 71.2,134.6 75.02,134.17 535.96,135.03 541.14,134.6 544.6,135.9 547.55,137.19 550.58,138.92 553.17,141.51 555.33,144.1 557.49,147.13 558.78,150.15 559.65,153.61 560.08,157.06 560.08,620.53 559.22,625.71 557.49,629.6 555.33,632.55 553.17,635.58 550.14,637.74 547.12,639.9 543.74,641.62 540.28,642.49 536.39,642.92 77.61,642.92 72.06,642.49 66.88,640.76 63.86,639.03 60.83,636.87 58.24,634.28 56.08,631.26 54.35,628.3 52.62,624.85 51.76,621.39 51.33,617.5 51.33,157.86 51.76,154.47 "
   class="st1" />
	<polygon
   style="clip-rule:evenodd;fill:#ffffff;fill-rule:evenodd"
   id="polygon11"
   points="65.58,154.47 66.45,152.31 68.18,150.58 69.9,148.86 72.06,147.99 74.15,147.13 76.74,147.13 535.96,147.13 538.55,147.13 540.71,147.99 542.44,149.29 544.17,150.58 545.39,152.31 546.69,154.47 547.12,156.63 547.55,158.72 547.12,620.1 546.26,622.69 544.96,625.28 543.3,627.01 541.14,628.74 538.55,629.6 536.82,630.39 77.18,630.39 74.58,629.96 72.06,629.17 69.9,627.87 68.18,626.58 66.45,624.42 65.15,622.26 64.72,619.66 64.29,617.07 64.29,158.72 64.72,156.63 "
   class="st2" />
	<path
   style="clip-rule:evenodd;fill:#cfd4d8;fill-rule:evenodd"
   id="path13"
   d="m 305.92,227.7 c 89.57,-0.86 162.36,74.95 161.06,161.14 -0.43,86.04 -71.93,161.06 -161.06,161.06 -83.09,0.86 -163.66,-66.82 -161.06,-170.14 5.18,-84.02 72.36,-150.77 161.06,-152.06 z"
   class="st3" />
	<path
   style="clip-rule:evenodd;fill:#ffffff;fill-rule:evenodd"
   id="path15"
   d="m 176.32,388.83 c 0,-72 57.67,-130.1 129.6,-130.1 76.25,0 129.67,61.56 129.67,130.1 1.73,68.83 -57.74,129.6 -129.67,129.6 -61.99,1.73 -131.33,-52.56 -129.6,-129.6 z"
   class="st2" />
	<polygon
   style="clip-rule:evenodd;fill:#cfd4d8;fill-rule:evenodd"
   id="polygon17"
   points="368.78,309.99 373.53,311.29 377.85,313.02 381.74,315.1 385.62,317.7 389.44,320.72 395.49,327.63 398.08,332.38 399.81,335.84 401.54,340.16 402.83,344.41 403.26,349.16 403.26,430.09 402.4,434.84 401.1,439.16 399.38,443.48 396.78,447.73 394.19,451.62 391.17,455.07 389.01,457.23 383.9,461.12 380.01,463.28 375.69,465.44 370.94,466.74 366.62,467.6 361.86,468.03 352.43,467.6 348.11,466.74 343.36,465.44 339.04,463.28 335.15,461.12 331.34,458.1 327.88,455.07 324.86,451.62 322.26,447.73 320.1,443.48 317.94,439.16 316.65,434.84 315.78,430.09 315.78,349.16 316.65,344.41 317.94,338.86 319.24,335.84 320.97,331.52 323.56,327.63 326.58,323.74 330.04,320.72 333.5,317.7 337.31,315.1 341.2,313.02 345.95,311.29 350.27,309.99 355.02,309.13 359.78,309.13 364.02,309.13 "
   class="st3" />
	<polygon
   style="clip-rule:evenodd;fill:#ffffff;fill-rule:evenodd"
   id="polygon19"
   points="371.37,336.27 375.69,340.59 378.71,346.14 379.58,349.16 379.58,428.36 377.42,433.98 375.69,436.57 373.96,439.16 371.37,440.89 368.78,442.62 365.75,443.91 362.73,444.78 356.75,444.78 353.3,443.91 350.7,442.62 348.11,440.89 345.52,439.16 343.36,436.57 341.63,433.98 340.77,430.95 339.9,428.36 339.47,424.9 339.47,351.32 340.77,346.14 343.79,340.59 345.52,338.43 348.11,336.27 350.7,334.98 353.73,333.68 356.75,332.82 359.78,332.82 365.75,333.68 "
   class="st2" />
	<g
   id="LWPOLYLINE_130_">
		<path
   style="fill:#cfd4d8"
   id="path21"
   d="m 206.24,424.82 c 0,24.36 19.73,44.12 44.06,44.12 24.34,0 44.02,-19.76 44.02,-44.12 v -9.57 c 0,-12.96 -5.72,-25.36 -15.68,-33.7 7.54,-8.05 11.68,-18.65 11.68,-29.58 v -3.21 c 0,-22.11 -17.89,-40.09 -40.03,-40.09 -22.11,0 -40.06,17.98 -40.06,40.09 v 3.21 h 24.02 v -3.21 c 0,-8.86 7.2,-16.02 16.05,-16.02 8.85,0 16.02,7.16 16.02,16.02 v 3.21 c 0,10.64 -8.65,19.22 -19.22,19.22 h -3.23 v 22.44 h 6.43 c 11.06,0 20.02,8.95 20.02,20.01 v 11.19 c 0,11.08 -8.96,20.07 -20.02,20.07 -11.04,0 -20.05,-8.99 -20.05,-20.07 h -24.01 z"
   class="st4" />
	</g>
	<polygon
   style="clip-rule:evenodd;fill-rule:evenodd"
   id="polygon24"
   points="497.58,145.83 474.33,144.97 64.29,555.87 64.29,579.99 "
   class="st1" />
	<polygon
   style="clip-rule:evenodd;fill-rule:evenodd"
   id="polygon26"
   points="539.42,145.83 63.42,622.69 61.7,600.3 515.3,145.83 "
   class="st1" />
	<polygon
   style="clip-rule:evenodd;fill-rule:evenodd"
   id="polygon28"
   points="547.55,179.46 547.12,156.2 73.72,630.39 97.48,630.82 "
   class="st1" />
	<polygon
   style="clip-rule:evenodd;fill-rule:evenodd"
   id="polygon30"
   points="547.55,221.65 547.55,197.53 115.12,630.82 139.24,630.82 "
   class="st1" />
</g>
</svg>