<?xml version="1.0" encoding="utf-8"?>
<!-- Generator: Adobe Illustrator 28.0.0, SVG Export Plug-In . SVG Version: 6.00 Build 0)  -->
<svg version="1.1" xmlns="http://www.w3.org/2000/svg" xmlns:xlink="http://www.w3.org/1999/xlink" x="0px" y="0px"
	 viewBox="0 0 595 842" style="enable-background:new 0 0 595 842;" xml:space="preserve">
<style type="text/css">
	.st0{fill-rule:evenodd;clip-rule:evenodd;fill:none;stroke:#000000;stroke-width:2.3987;stroke-miterlimit:10;}
	.st1{fill-rule:evenodd;clip-rule:evenodd;}
	.st2{fill-rule:evenodd;clip-rule:evenodd;fill:#FFFFFF;}
	.st3{fill-rule:evenodd;clip-rule:evenodd;fill:#CFD4D8;}
	.st4{fill:#CFD4D8;}
</style>
<g id="Kuvataso_1">
</g>
<g id="_x30_">
</g>
<g id="HATHARM">
</g>
<g id="HAT">
	<rect x="51.33" y="134.17" class="st0" width="508.75" height="508.75"/>
	<polygon class="st1" points="51.33,157.86 51.76,154.47 53.06,151.02 54.35,147.56 55.22,144.97 57.38,142.38 59.54,140.22 
		62.13,138.06 65.15,136.33 67.74,135.9 71.2,134.6 75.02,134.17 535.96,135.03 541.14,134.6 544.6,135.9 547.55,137.19 
		550.58,138.92 553.17,141.51 555.33,144.1 557.49,147.13 558.78,150.15 559.65,153.61 560.08,157.06 560.08,620.53 559.22,625.71 
		557.49,629.6 555.33,632.55 553.17,635.58 550.14,637.74 547.12,639.9 543.74,641.62 540.28,642.49 536.39,642.92 77.61,642.92 
		72.06,642.49 66.88,640.76 63.86,639.03 60.83,636.87 58.24,634.28 56.08,631.26 54.35,628.3 52.62,624.85 51.76,621.39 
		51.33,617.5 	"/>
	<polygon class="st2" points="64.29,158.72 64.72,156.63 65.58,154.47 66.45,152.31 68.18,150.58 69.9,148.86 72.06,147.99 
		74.15,147.13 76.74,147.13 535.96,147.13 538.55,147.13 540.71,147.99 542.44,149.29 544.17,150.58 545.39,152.31 546.69,154.47 
		547.12,156.63 547.55,158.72 547.12,620.1 546.26,622.69 544.96,625.28 543.3,627.01 541.14,628.74 538.55,629.6 536.82,630.39 
		77.18,630.39 74.58,629.96 72.06,629.17 69.9,627.87 68.18,626.58 66.45,624.42 65.15,622.26 64.72,619.66 64.29,617.07 	"/>
	<path class="st3" d="M305.92,227.7c89.57-0.86,162.36,74.95,161.06,161.14c-0.43,86.04-71.93,161.06-161.06,161.06
		c-83.09,0.86-163.66-66.82-161.06-170.14C150.04,295.74,217.22,228.99,305.92,227.7z"/>
	<path class="st2" d="M176.32,388.83c0-72,57.67-130.1,129.6-130.1c76.25,0,129.67,61.56,129.67,130.1
		c1.73,68.83-57.74,129.6-129.67,129.6C243.93,520.16,174.59,465.87,176.32,388.83z"/>
	<polygon class="st2" points="225.86,412.09 257.25,357.8 257.25,412.09 	"/>
	<polygon class="st3" points="359.78,309.13 364.02,309.13 368.78,309.99 373.53,311.29 377.85,313.02 381.74,315.1 385.62,317.7 
		389.44,320.72 395.49,327.63 398.08,332.38 399.81,335.84 401.54,340.16 402.83,344.41 403.26,349.16 403.26,430.09 402.4,434.84 
		401.1,439.16 399.38,443.48 396.78,447.73 394.19,451.62 391.17,455.07 389.01,457.23 383.9,461.12 380.01,463.28 375.69,465.44 
		370.94,466.74 366.62,467.6 361.86,468.03 352.43,467.6 348.11,466.74 343.36,465.44 339.04,463.28 335.15,461.12 331.34,458.1 
		327.88,455.07 324.86,451.62 322.26,447.73 320.1,443.48 317.94,439.16 316.65,434.84 315.78,430.09 315.78,349.16 316.65,344.41 
		317.94,338.86 319.24,335.84 320.97,331.52 323.56,327.63 326.58,323.74 330.04,320.72 333.5,317.7 337.31,315.1 341.2,313.02 
		345.95,311.29 350.27,309.99 355.02,309.13 	"/>
	<polygon class="st2" points="359.78,332.82 365.75,333.68 371.37,336.27 375.69,340.59 378.71,346.14 379.58,349.16 379.58,428.36 
		377.42,433.98 375.69,436.57 373.96,439.16 371.37,440.89 368.78,442.62 365.75,443.91 362.73,444.78 356.75,444.78 353.3,443.91 
		350.7,442.62 348.11,440.89 345.52,439.16 343.36,436.57 341.63,433.98 340.77,430.95 339.9,428.36 339.47,424.9 339.47,351.32 
		340.77,346.14 343.79,340.59 345.52,338.43 348.11,336.27 350.7,334.98 353.73,333.68 356.75,332.82 	"/>
	<g id="LWPOLYLINE_130_">
		<path class="st4" d="M207.22,424.74c0,24.09,19.51,43.62,43.57,43.62c24.07,0,43.53-19.54,43.53-43.62v-9.46
			c0-12.82-5.66-25.08-15.51-33.33c7.46-7.96,11.55-18.44,11.55-29.26v-3.18c0-21.86-17.69-39.65-39.58-39.65
			c-21.86,0-39.62,17.78-39.62,39.65v3.18h23.75v-3.18c0-8.76,7.12-15.84,15.87-15.84s15.84,7.08,15.84,15.84v3.18
			c0,10.52-8.55,19.01-19.01,19.01h-3.19v22.19h6.36c10.93,0,19.8,8.85,19.8,19.78v11.06c0,10.96-8.86,19.85-19.8,19.85
			c-10.92,0-19.82-8.89-19.82-19.85H207.22z"/>
	</g>
	<polygon class="st1" points="64.29,555.87 64.29,579.99 497.58,145.83 474.33,144.97 	"/>
	<polygon class="st1" points="61.7,600.3 515.3,145.83 539.42,145.83 63.42,622.69 	"/>
	<polygon class="st1" points="73.72,630.39 97.48,630.82 547.55,179.46 547.12,156.2 	"/>
	<polygon class="st1" points="115.12,630.82 139.24,630.82 547.55,221.65 547.55,197.53 	"/>
</g>
</svg>
