<?xml version="1.0" encoding="UTF-8" standalone="no"?>
<svg
   xmlns:dc="http://purl.org/dc/elements/1.1/"
   xmlns:cc="http://creativecommons.org/ns#"
   xmlns:rdf="http://www.w3.org/1999/02/22-rdf-syntax-ns#"
   xmlns:svg="http://www.w3.org/2000/svg"
   xmlns="http://www.w3.org/2000/svg"
   id="svg34"
   xml:space="preserve"
   enable-background="new 0 0 595 842"
   viewBox="0 0 511.15073 511.15073"
   height="511.15073"
   width="511.15073"
   y="0px"
   x="0px"
   version="1.0"><metadata
   id="metadata40"><rdf:RDF><cc:Work
       rdf:about=""><dc:format>image/svg+xml</dc:format><dc:type
         rdf:resource="http://purl.org/dc/dcmitype/StillImage" /></cc:Work></rdf:RDF></metadata><defs
   id="defs38" />
<g
   transform="translate(-50.128649,-132.96865)"
   id="Kuvataso_1">
</g>
<g
   transform="translate(-50.128649,-132.96865)"
   id="_x30_">
</g>
<g
   transform="translate(-50.128649,-132.96865)"
   id="HATHARM">
</g>
<g
   transform="translate(-50.128649,-132.96865)"
   id="HAT">
	<g
   id="g31">
		
			<rect
   style="clip-rule:evenodd;fill:none;fill-rule:evenodd;stroke:#000000;stroke-width:2.3987;stroke-miterlimit:10"
   id="rect5"
   height="508.75201"
   width="508.75201"
   stroke-miterlimit="10"
   y="134.168"
   x="51.327999" />
		<polygon
   style="clip-rule:evenodd;fill-rule:evenodd"
   id="polygon7"
   points="53.056,151.016 54.352,147.56 55.216,144.968 57.376,142.376 59.536,140.216 62.128,138.056 65.152,136.328 67.744,135.896 71.2,134.6 75.016,134.168 535.96,135.032 541.144,134.6 544.6,135.896 547.552,137.192 550.576,138.92 553.168,141.512 555.328,144.104 557.488,147.128 558.784,150.152 559.648,153.608 560.08,157.064 560.08,620.528 559.216,625.712 557.488,629.6 555.328,632.552 553.168,635.576 550.144,637.736 547.12,639.896 543.736,641.624 540.28,642.488 536.392,642.92 77.608,642.92 72.064,642.488 66.88,640.76 63.856,639.032 60.832,636.872 58.24,634.28 56.08,631.256 54.352,628.304 52.624,624.848 51.76,621.392 51.328,617.504 51.328,157.856 51.76,154.472 " />
		<polygon
   style="clip-rule:evenodd;fill:#ffffff;fill-rule:evenodd"
   id="polygon9"
   points="65.584,154.472 66.448,152.312 68.176,150.584 69.904,148.856 72.064,147.992 74.152,147.128 76.744,147.128 535.96,147.128 538.552,147.128 540.712,147.992 542.44,149.288 544.168,150.584 545.392,152.312 546.688,154.472 547.12,156.632 547.552,158.72 547.12,620.096 546.256,622.688 544.96,625.28 543.304,627.008 541.144,628.736 538.552,629.6 536.824,630.392 77.176,630.392 74.584,629.96 72.064,629.168 69.904,627.872 68.176,626.576 66.448,624.416 65.152,622.256 64.72,619.664 64.288,617.072 64.288,158.72 64.72,156.632 " />
		<path
   style="clip-rule:evenodd;fill:#cfd4d8;fill-rule:evenodd"
   id="path11"
   d="m 305.92,227.696 c 89.568,-0.864 162.36,74.952 161.064,161.136 -0.432,86.04 -71.928,161.064 -161.064,161.064 C 222.832,550.76 142.264,483.08 144.856,379.76 150.04,295.736 217.216,228.992 305.92,227.696 Z" />
		<path
   style="clip-rule:evenodd;fill:#ffffff;fill-rule:evenodd"
   id="path13"
   d="m 176.32,388.832 c 0,-72 57.672,-130.104 129.6,-130.104 76.248,0 129.672,61.56 129.672,130.104 1.728,68.832 -57.744,129.6 -129.672,129.6 -61.992,1.728 -131.328,-52.56 -129.6,-129.6 z" />
		<polygon
   style="clip-rule:evenodd;fill:#cfd4d8;fill-rule:evenodd"
   id="polygon15"
   points="257.248,309.128 281.008,309.128 281.008,412.088 294.328,412.088 294.328,435.704 281.008,435.704 281.008,468.032 257.248,468.032 257.248,435.704 197.848,435.704 197.848,412.088 " />
		<polygon
   style="clip-rule:evenodd;fill:#ffffff;fill-rule:evenodd"
   id="polygon17"
   points="257.248,412.088 225.856,412.088 257.248,357.8 " />
		<polygon
   style="clip-rule:evenodd;fill:#cfd4d8;fill-rule:evenodd"
   id="polygon19"
   points="368.776,309.992 373.528,311.288 377.848,313.016 381.736,315.104 385.624,317.696 389.44,320.72 395.488,327.632 398.08,332.384 399.808,335.84 401.536,340.16 402.832,344.408 403.264,349.16 403.264,430.088 402.4,434.84 401.104,439.16 399.376,443.48 396.784,447.728 394.192,451.616 391.168,455.072 389.008,457.232 383.896,461.12 380.008,463.28 375.688,465.44 370.936,466.736 366.616,467.6 361.864,468.032 352.432,467.6 348.112,466.736 343.36,465.44 339.04,463.28 335.152,461.12 331.336,458.096 327.88,455.072 324.856,451.616 322.264,447.728 320.104,443.48 317.944,439.16 316.648,434.84 315.784,430.088 315.784,349.16 316.648,344.408 317.944,338.864 319.24,335.84 320.968,331.52 323.56,327.632 326.584,323.744 330.04,320.72 333.496,317.696 337.312,315.104 341.2,313.016 345.952,311.288 350.272,309.992 355.024,309.128 359.776,309.128 364.024,309.128 " />
		<polygon
   style="clip-rule:evenodd;fill:#ffffff;fill-rule:evenodd"
   id="polygon21"
   points="371.368,336.272 375.688,340.592 378.712,346.136 379.576,349.16 379.576,428.36 377.416,433.976 375.688,436.568 373.96,439.16 371.368,440.888 368.776,442.616 365.752,443.912 362.728,444.776 356.752,444.776 353.296,443.912 350.704,442.616 348.112,440.888 345.52,439.16 343.36,436.568 341.632,433.976 340.768,430.952 339.904,428.36 339.472,424.904 339.472,351.32 340.768,346.136 343.792,340.592 345.52,338.432 348.112,336.272 350.704,334.976 353.728,333.68 356.752,332.816 359.776,332.816 365.752,333.68 " />
		<polygon
   style="clip-rule:evenodd;fill-rule:evenodd"
   id="polygon23"
   points="497.584,145.832 474.328,144.968 64.288,555.872 64.288,579.992 " />
		<polygon
   style="clip-rule:evenodd;fill-rule:evenodd"
   id="polygon25"
   points="539.416,145.832 63.424,622.688 61.696,600.296 515.296,145.832 " />
		<polygon
   style="clip-rule:evenodd;fill-rule:evenodd"
   id="polygon27"
   points="547.552,179.456 547.12,156.2 73.72,630.392 97.48,630.824 " />
		<polygon
   style="clip-rule:evenodd;fill-rule:evenodd"
   id="polygon29"
   points="547.552,221.648 547.552,197.528 115.12,630.824 139.24,630.824 " />
	</g>
</g>
</svg>