<?xml version="1.0" encoding="UTF-8"?>
<svg xmlns="http://www.w3.org/2000/svg" version="1.1" viewBox="0 0 509 509">
  <defs>
    <style>
      .cls-1 {
        fill: #fff;
      }

      .cls-1, .cls-2, .cls-3 {
        fill-rule: evenodd;
      }

      .cls-2 {
        fill: #231f20;
      }

      .cls-3, .cls-4 {
        fill: #cfd4d8;
      }

      .cls-5 {
        fill: none;
        stroke: #231f20;
        stroke-miterlimit: 10;
        stroke-width: 2.4px;
      }
    </style>
  </defs>
  <!-- Generator: Adobe Illustrator 28.7.1, SVG Export Plug-In . SVG Version: 1.2.0 Build 142)  -->
  <g>
    <g id="Layer_1">
      <rect class="cls-5" x=".5" y=".6" width="508.8" height="508.8"/>
      <polygon class="cls-2" points=".5 24.3 1 20.9 2.3 17.4 3.6 14 4.4 11.4 6.6 8.8 8.8 6.6 11.3 4.5 14.4 2.7 17 2.3 20.4 1 24.2 .6 485.2 1.4 490.4 1 493.8 2.3 496.8 3.6 499.8 5.3 502.4 7.9 504.5 10.5 506.7 13.5 508 16.6 508.9 20 509.3 23.5 509.3 486.9 508.4 492.1 506.7 496 504.5 499 502.4 502 499.4 504.1 496.3 506.3 493 508 489.5 508.9 485.6 509.3 26.8 509.3 21.3 508.9 16.1 507.2 13.1 505.4 10.1 503.3 7.5 500.7 5.3 497.7 3.6 494.7 1.8 491.2 1 487.8 .5 483.9 .5 24.3"/>
      <polygon class="cls-1" points="13.5 25.1 13.9 23 14.8 20.9 15.7 18.7 17.4 17 19.1 15.3 21.3 14.4 23.4 13.5 26 13.5 485.2 13.5 487.8 13.5 489.9 14.4 491.7 15.7 493.4 17 494.6 18.7 495.9 20.9 496.3 23 496.8 25.1 496.3 486.5 495.5 489.1 494.2 491.7 492.5 493.4 490.4 495.1 487.8 496 486 496.8 26.4 496.8 23.8 496.4 21.3 495.6 19.1 494.3 17.4 493 15.7 490.8 14.4 488.7 13.9 486.1 13.5 483.5 13.5 25.1"/>
      <path class="cls-3" d="M255.1,94.1c89.6-.9,162.4,75,161.1,161.1-.4,86-71.9,161.1-161.1,161.1-83.1.9-163.7-66.8-161.1-170.1,5.2-84,72.4-150.8,161.1-152.1Z"/>
      <path class="cls-1" d="M125.5,255.2c0-72,57.7-130.1,129.6-130.1s129.7,61.6,129.7,130.1c1.7,68.8-57.7,129.6-129.7,129.6-62,1.7-131.3-52.6-129.6-129.6Z"/>
      <polygon class="cls-3" points="309 175.5 313.2 175.5 318 176.4 322.7 177.7 327.1 179.4 331 181.5 334.8 184.1 338.7 187.1 344.7 194 347.3 198.8 349 202.2 350.8 206.6 352.1 210.8 352.5 215.6 352.5 296.5 351.6 301.2 350.3 305.6 348.6 309.9 346 314.1 343.4 318 340.4 321.5 338.2 323.6 333.1 327.5 329.2 329.7 324.9 331.8 320.2 333.1 315.8 334 311.1 334.4 301.7 334 297.3 333.1 292.6 331.8 288.3 329.7 284.4 327.5 280.6 324.5 277.1 321.5 274.1 318 271.5 314.1 269.3 309.9 267.2 305.6 265.9 301.2 265 296.5 265 215.6 265.9 210.8 267.2 205.3 268.5 202.2 270.2 197.9 272.8 194 275.8 190.1 279.3 187.1 282.7 184.1 286.5 181.5 290.4 179.4 295.2 177.7 299.5 176.4 304.2 175.5 309 175.5"/>
      <polygon class="cls-1" points="309 199.2 315 200.1 320.6 202.7 324.9 207 327.9 212.5 328.8 215.6 328.8 294.8 326.6 300.4 324.9 303 323.2 305.6 320.6 307.3 318 309 315 310.3 311.9 311.2 306 311.2 302.5 310.3 299.9 309 297.3 307.3 294.7 305.6 292.6 303 290.9 300.4 290 297.4 289.1 294.8 288.7 291.3 288.7 217.7 290 212.5 293 207 294.7 204.8 297.3 202.7 299.9 201.4 302.9 200.1 306 199.2 309 199.2"/>
      <path class="cls-4" d="M152.9,230.1h23.7v-7.9c0-2.6.5-5.1,1.5-7.5,4.1-10.1,15.7-15,25.8-10.8,10.1,4.1,15,15.7,10.8,25.8l-61.8,83.5v23.7h87v-23.7h-60.1l57.5-76.2c8.2-22.6-3.5-47.5-26.1-55.7-22.6-8.2-47.5,3.5-55.7,26.1-2.2,6.1-3,12.7-2.4,19.2l-.2,3.5Z"/>
      <polygon class="cls-2" points="13.5 422.3 13.5 446.4 446.8 12.2 423.5 11.4 13.5 422.3"/>
      <polygon class="cls-2" points="10.9 466.7 464.5 12.2 488.6 12.2 12.6 489.1 10.9 466.7"/>
      <polygon class="cls-2" points="22.9 496.8 46.7 497.2 496.8 45.9 496.3 22.6 22.9 496.8"/>
      <polygon class="cls-2" points="64.3 497.2 88.5 497.2 496.8 88 496.8 63.9 64.3 497.2"/>
    </g>
  </g>
</svg>