<?xml version="1.0" encoding="UTF-8" standalone="no"?>
<svg
   xmlns:dc="http://purl.org/dc/elements/1.1/"
   xmlns:cc="http://creativecommons.org/ns#"
   xmlns:rdf="http://www.w3.org/1999/02/22-rdf-syntax-ns#"
   xmlns:svg="http://www.w3.org/2000/svg"
   xmlns="http://www.w3.org/2000/svg"
   xml:space="preserve"
   viewBox="0 0 496.06397 496.044"
   height="496.04401"
   width="496.064"
   y="0px"
   x="0px"
   id="Layer_1"
   version="1.1"><metadata
   id="metadata64"><rdf:RDF><cc:Work
       rdf:about=""><dc:format>image/svg+xml</dc:format><dc:type
         rdf:resource="http://purl.org/dc/dcmitype/StillImage" /></cc:Work></rdf:RDF></metadata><defs
   id="defs62" />
<g
   transform="translate(-49.608,-172.923)"
   id="CIRCLE_93_">
	<path
   id="path2"
   d="m 545.672,420.974 c 0,-137.024 -111.083,-248.051 -247.975,-248.051 -137.043,0 -248.089,111.026 -248.089,248.051 0,136.948 111.046,247.993 248.089,247.993 136.892,0 247.975,-111.045 247.975,-247.993 z"
   style="fill:#ffd200" />
</g>
<g
   transform="translate(-49.608,-172.923)"
   id="CIRCLE_94_">
	<path
   id="path5"
   d="m 537.974,420.974 c 0,-132.758 -107.633,-240.257 -240.276,-240.257 -132.776,0 -240.333,107.499 -240.333,240.257 0,132.625 107.557,240.257 240.333,240.257 132.643,-10e-4 240.276,-107.632 240.276,-240.257 z"
   style="fill:#ef3e42" />
</g>
<g
   transform="translate(-49.608,-172.923)"
   id="CIRCLE_95_">
	<path
   id="path8"
   d="m 487.495,420.974 c 0,-104.921 -84.991,-189.911 -189.798,-189.911 -104.958,0 -190.006,84.99 -190.006,189.911 0,104.863 85.048,189.892 190.006,189.892 104.807,-10e-4 189.798,-85.029 189.798,-189.892 z"
   style="fill:#ffd200" />
</g>
<g
   transform="translate(-49.608,-172.923)"
   id="LWPOLYLINE_149_">
	<polygon
   id="polygon11"
   points="212.46,309.833 231.518,309.833 231.518,297.242 180.83,297.242 180.83,309.833 199.698,309.833 199.698,374.458 212.46,374.458 " />
</g>
<g
   transform="translate(-49.608,-172.923)"
   id="LWPOLYLINE_150_">
	<path
   id="path14"
   d="m 252.148,350.982 c 0.892,6.997 7.32,11.984 14.374,11.15 5.803,-0.778 10.354,-5.348 11.15,-11.15 v -53.74 h 12.345 v 53.74 c -0.815,12.534 -10.828,22.452 -23.286,23.362 -13.919,1.005 -25.96,-9.481 -26.984,-23.362 v -53.74 h 12.401 z" />
</g>
<g
   transform="translate(-49.608,-172.923)"
   id="LWPOLYLINE_151_">
	<polygon
   id="polygon17"
   points="305.093,297.242 305.093,374.458 344.896,374.458 344.896,362.208 318.025,362.208 318.025,297.242 " />
</g>
<g
   transform="translate(-49.608,-172.923)"
   id="LWPOLYLINE_152_">
	<polygon
   id="polygon20"
   points="352.67,297.242 352.67,374.458 392.416,374.458 392.416,362.208 365.564,362.208 365.564,297.242 " />
</g>
<g
   transform="translate(-49.608,-172.923)"
   id="LWPOLYLINE_153_">
	<rect
   id="rect23"
   height="77.216003"
   width="11.757"
   y="297.242"
   x="400.30499" />
</g>
<g
   transform="translate(-49.608,-172.923)"
   id="LWPOLYLINE_154_">
	<path
   id="path26"
   d="m 407.435,393.914 h -219.19 c -14.905,0.606 -26.51,13.217 -25.903,28.103 0.531,14.165 11.833,25.391 25.903,25.998 h 219.189 c 14.904,-0.455 26.623,-12.933 26.206,-27.895 -0.378,-14.26 -11.946,-25.827 -26.205,-26.206 z" />
</g>
<g
   transform="translate(-49.608,-172.923)"
   id="LWPOLYLINE_155_">
	<polygon
   id="polygon29"
   points="163.498,477.217 178.555,477.217 178.555,467.205 138.202,467.205 138.202,477.217 153.239,477.217 153.239,528.72 163.498,528.72 " />
</g>
<g
   transform="translate(-49.608,-172.923)"
   id="LWPOLYLINE_156_">
	<polygon
   id="polygon32"
   points="196.247,467.205 212.764,528.72 202.391,528.72 199.698,519.087 182.215,519.087 179.294,528.72 169.756,528.72 186.784,467.205 " />
</g>
<g
   transform="translate(-49.608,-172.923)"
   id="LWPOLYLINE_157_">
	<polygon
   id="polygon35"
   points="255.031,528.72 264.342,528.72 264.342,467.205 250.67,467.205 240.051,499.062 229.413,467.205 215.76,467.205 215.76,528.72 225.07,528.72 225.07,483.854 240.051,528.72 255.031,483.854 " />
</g>
<g
   transform="translate(-49.608,-172.923)"
   id="LWPOLYLINE_158_">
	<path
   id="path38"
   d="m 270.183,511.35 c 1.346,10.923 11.302,18.659 22.167,17.37 9.083,-1.138 16.194,-8.268 17.313,-17.37 1.023,-8.799 1.023,-17.673 0,-26.396 -1.309,-10.923 -11.074,-18.735 -21.997,-17.521 -9.178,1.062 -16.44,8.343 -17.483,17.521 -1.309,8.723 -1.309,17.597 0,26.396 z" />
</g>
<g
   transform="translate(-49.608,-172.923)"
   id="LWPOLYLINE_159_">
	<polygon
   id="polygon41"
   points="330.066,467.205 338.941,467.205 338.941,493.904 349.484,467.205 359.27,467.205 347.133,497.924 358.587,528.72 348.878,528.72 338.941,503.006 338.941,528.72 330.066,528.72 330.066,503.006 319.694,528.72 309.454,528.72 321.116,497.924 309.738,467.205 319.467,467.205 330.066,493.904 " />
</g>
<g
   transform="translate(-49.608,-172.923)"
   id="LWPOLYLINE_160_">
	<polygon
   id="polygon44"
   points="402.163,528.72 402.163,467.205 393.288,467.205 393.288,493.752 372.315,493.752 372.315,467.205 363.517,467.205 363.517,528.72 372.315,528.72 372.315,502.703 393.288,502.703 393.288,528.72 " />
</g>
<g
   transform="translate(-49.608,-172.923)"
   id="LWPOLYLINE_161_">
	<path
   id="path47"
   d="m 421.467,467.205 h 23.552 v 61.515 h -9.178 v -26.396 h -8.761 l -8.799,26.396 h -10.089 l 9.179,-26.89 c -6.068,-1.934 -10.126,-7.471 -10.202,-13.767 v -5.992 c 0.266,-7.812 6.447,-14.259 14.298,-14.866 z" />
</g>
<g
   transform="translate(-49.608,-172.923)"
   id="LWPOLYLINE_162_">
	<polygon
   id="polygon50"
   points="197.423,509.529 191.316,487.077 184.945,509.529 "
   style="fill:#ffd200" />
</g>
<g
   transform="translate(-49.608,-172.923)"
   id="LWPOLYLINE_163_">
	<path
   id="path53"
   d="m 279.569,510.174 c 0.606,5.727 5.802,9.823 11.529,9.141 4.759,-0.531 8.571,-4.248 9.178,-9.064 0.929,-8.078 0.929,-16.118 0,-24.234 -0.683,-5.765 -5.803,-9.785 -11.529,-9.178 -4.893,0.531 -8.723,4.438 -9.178,9.329 -1.233,7.964 -1.233,16.004 0,24.006 z"
   style="fill:#ffd200" />
</g>
<g
   transform="translate(-49.608,-172.923)"
   id="LWPOLYLINE_164_">
	<path
   id="path56"
   d="m 416.195,483.058 c 0.151,-3.11 2.465,-5.688 5.575,-6.22 h 14.07 v 16.535 h -14.07 c -3.262,-0.493 -5.651,-3.337 -5.575,-6.675 z"
   style="fill:#ffd200" />
</g>
</svg>