<?xml version="1.0" encoding="UTF-8" standalone="no"?>
<svg
   xmlns:dc="http://purl.org/dc/elements/1.1/"
   xmlns:cc="http://creativecommons.org/ns#"
   xmlns:rdf="http://www.w3.org/1999/02/22-rdf-syntax-ns#"
   xmlns:svg="http://www.w3.org/2000/svg"
   xmlns="http://www.w3.org/2000/svg"
   version="1.1"
   id="Layer_1"
   x="0px"
   y="0px"
   width="539.87946"
   height="539.86652"
   viewBox="0 0 539.87946 539.86652"
   xml:space="preserve"><defs
   id="defs10">
	
	
	
</defs><metadata
   id="metadata15"><rdf:RDF><cc:Work
       rdf:about=""><dc:format>image/svg+xml</dc:format><dc:type
         rdf:resource="http://purl.org/dc/dcmitype/StillImage" /></cc:Work></rdf:RDF></metadata><path
   id="white_background"
   d="M 269.77344 0.01171875 C 192.51207 0.01260044 126.21176 25.947175 78.658203 72.292969 C 31.103833 118.63955 2.3061935 185.39106 0 266.97266 L 0 266.97852 L 0 266.98633 C 0.93689353 348.27986 28.490992 416.61382 75.765625 464.56445 C 123.04026 512.51508 190.02938 540.07169 269.7793 539.85547 C 435.62758 541.22293 542.1482 416.32287 539.8418 260.56836 L 539.8418 260.56445 L 539.8418 260.55859 C 533.49944 108.34184 429.2024 -1.3558388 269.77734 0.01171875 L 269.77344 0.01171875 z "
   style="fill:#ffffff;fill-opacity:1;stroke:none" /><g
   id="g8"
   transform="translate(-22.390592,-143.16198)">
	<path
   style="clip-rule:evenodd;fill:none;fill-rule:evenodd;stroke:#007ac2;stroke-width:0.70670003;stroke-miterlimit:10"
   d="M 292.168,143.528 C 451.432,142.16 555.544,251.672 561.88,403.736 564.184,559.328 457.84,684.032 292.168,682.664 132.832,683.096 24.616,572.576 22.744,410.144 27.352,247.136 137.8,143.528 292.168,143.528 Z"
   id="path2" />
	<path
   style="clip-rule:evenodd;fill:#0079c1;fill-rule:evenodd"
   d="m 292.168,155.84 c 138.744,0.432 256.536,110.016 256.968,257.04 0.432,127.728 -99.576,255.6 -256.968,256.968 C 151.552,670.28 36.496,556.16 35.128,412.88 35.56,270.392 149.248,155.84 292.168,155.84 Z"
   id="path4" />
	<polygon
   style="clip-rule:evenodd;fill:#ffffff;fill-rule:evenodd"
   points="402.112,379.976 402.112,313.304 502.984,415.184 402.112,514.616 402.112,447.008 82.144,447.008 82.144,379.976 "
   id="polygon6" />
</g>
</svg>