<?xml version="1.0" encoding="UTF-8" standalone="no"?>
<svg
   xmlns:dc="http://purl.org/dc/elements/1.1/"
   xmlns:cc="http://creativecommons.org/ns#"
   xmlns:rdf="http://www.w3.org/1999/02/22-rdf-syntax-ns#"
   xmlns:svg="http://www.w3.org/2000/svg"
   xmlns="http://www.w3.org/2000/svg"
   xml:space="preserve"
   viewBox="0 0 539.87946 539.86652"
   height="539.86652"
   width="539.87946"
   y="0px"
   x="0px"
   id="Layer_1"
   version="1.1"><metadata
   id="metadata15"><rdf:RDF><cc:Work
       rdf:about=""><dc:format>image/svg+xml</dc:format><dc:type
         rdf:resource="http://purl.org/dc/dcmitype/StillImage" /></cc:Work></rdf:RDF></metadata><defs
   id="defs13" />
<g
   transform="translate(-22.390592,-143.16198)"
   id="g8">
	<path
   id="path2"
   d="M 292.168,143.528 C 451.432,142.16 555.544,251.672 561.88,403.736 564.184,559.328 457.84,684.032 292.168,682.664 132.832,683.096 24.616,572.576 22.744,410.144 27.352,247.136 137.8,143.528 292.168,143.528 Z"
   style="clip-rule:evenodd;fill:none;fill-rule:evenodd;stroke:#007ac2;stroke-width:0.70670003;stroke-miterlimit:10" />
	<path
   id="path4"
   d="m 292.168,155.84 c 138.744,0.432 256.536,110.016 256.968,257.04 0.432,127.728 -99.576,255.6 -256.968,256.968 C 151.552,670.28 36.496,556.16 35.128,412.88 35.56,270.392 149.248,155.84 292.168,155.84 Z"
   style="clip-rule:evenodd;fill:#0079c1;fill-rule:evenodd" />
	<polygon
   id="polygon6"
   points="402.112,379.976 402.112,313.304 502.984,415.184 402.112,514.616 402.112,447.008 82.144,447.008 82.144,379.976 "
   style="clip-rule:evenodd;fill:#ffffff;fill-rule:evenodd" />
</g>
</svg>