<?xml version="1.0" encoding="utf-8"?>
<!-- Generator: Adobe Illustrator 28.0.0, SVG Export Plug-In . SVG Version: 6.00 Build 0)  -->
<svg version="1.1" id="Layer_1" xmlns="http://www.w3.org/2000/svg" xmlns:xlink="http://www.w3.org/1999/xlink" x="0px" y="0px"
	 viewBox="0 0 595 842" style="enable-background:new 0 0 595 842;" xml:space="preserve">
<style type="text/css">
	.st0{fill-rule:evenodd;clip-rule:evenodd;fill:none;stroke:#007AC2;stroke-width:0.7067;stroke-miterlimit:10;}
	.st1{fill-rule:evenodd;clip-rule:evenodd;fill:#0079C1;}
	.st2{fill-rule:evenodd;clip-rule:evenodd;fill:#FFFFFF;}
</style>
<g>
	<path class="st0" d="M292.49,143.53C133.23,142.16,29.12,251.67,22.78,403.74c-2.3,155.59,104.04,280.3,269.71,278.93
		c159.34,0.43,267.55-110.09,269.42-272.52C557.31,247.14,446.86,143.53,292.49,143.53z"/>
	<path class="st1" d="M292.49,155.84C153.75,156.27,35.96,265.86,35.52,412.88c-0.43,127.73,99.58,255.6,256.97,256.97
		c140.62,0.43,255.67-113.69,257.04-256.97C549.1,270.39,435.41,155.84,292.49,155.84z"/>
	<polygon class="st2" points="502.52,447.01 502.52,379.98 182.55,379.98 182.55,313.3 81.68,415.18 182.55,514.62 182.55,447.01 	
		"/>
</g>
</svg>
