<?xml version="1.0" encoding="UTF-8" standalone="no"?>
<svg
   xmlns:dc="http://purl.org/dc/elements/1.1/"
   xmlns:cc="http://creativecommons.org/ns#"
   xmlns:rdf="http://www.w3.org/1999/02/22-rdf-syntax-ns#"
   xmlns:svg="http://www.w3.org/2000/svg"
   xmlns="http://www.w3.org/2000/svg"
   height="539.87061"
   width="539.87329"
   xml:space="preserve"
   viewBox="0 0 539.87329 539.87061"
   y="0px"
   x="0px"
   id="Layer_1"
   version="1.1"><metadata
   id="metadata17"><rdf:RDF><cc:Work
       rdf:about=""><dc:format>image/svg+xml</dc:format><dc:type
         rdf:resource="http://purl.org/dc/dcmitype/StillImage" /></cc:Work></rdf:RDF></metadata><defs
   id="defs15" />
<style
   id="style2"
   type="text/css">
	.st0{fill-rule:evenodd;clip-rule:evenodd;fill:none;stroke:#007AC2;stroke-width:0.7067;stroke-miterlimit:10;}
	.st1{fill-rule:evenodd;clip-rule:evenodd;fill:#0079C1;}
	.st2{fill-rule:evenodd;clip-rule:evenodd;fill:#FFFFFF;}
</style>
<g
   transform="translate(-22.390095,-143.16395)"
   id="g10">
	<path
   style="clip-rule:evenodd;fill:none;fill-rule:evenodd;stroke:#007ac2;stroke-width:0.70670003;stroke-miterlimit:10"
   id="path4"
   d="M 292.49,143.53 C 133.23,142.16 29.12,251.67 22.78,403.74 20.48,559.33 126.82,684.04 292.49,682.67 451.83,683.1 560.04,572.58 561.91,410.15 557.31,247.14 446.86,143.53 292.49,143.53 Z"
   class="st0" />
	<path
   style="clip-rule:evenodd;fill:#0079c1;fill-rule:evenodd"
   id="path6"
   d="M 292.49,155.84 C 153.75,156.27 35.96,265.86 35.52,412.88 35.09,540.61 135.1,668.48 292.49,669.85 433.11,670.28 548.16,556.16 549.53,412.88 549.1,270.39 435.41,155.84 292.49,155.84 Z"
   class="st1" />
	<polygon
   style="clip-rule:evenodd;fill:#ffffff;fill-rule:evenodd"
   id="polygon8"
   points="182.55,379.98 182.55,313.3 81.68,415.18 182.55,514.62 182.55,447.01 502.52,447.01 502.52,379.98 "
   class="st2" />
</g>
</svg>