<?xml version="1.0" encoding="UTF-8" standalone="no"?>
<svg
   xmlns:dc="http://purl.org/dc/elements/1.1/"
   xmlns:cc="http://creativecommons.org/ns#"
   xmlns:rdf="http://www.w3.org/1999/02/22-rdf-syntax-ns#"
   xmlns:svg="http://www.w3.org/2000/svg"
   xmlns="http://www.w3.org/2000/svg"
   xml:space="preserve"
   viewBox="0 0 539.79584 539.87946"
   height="539.87946"
   width="539.79584"
   y="0px"
   x="0px"
   id="Layer_1"
   version="1.1"><metadata
   id="metadata15"><rdf:RDF><cc:Work
       rdf:about=""><dc:format>image/svg+xml</dc:format><dc:type
         rdf:resource="http://purl.org/dc/dcmitype/StillImage" /></cc:Work></rdf:RDF></metadata><defs
   id="defs13" />
<g
   transform="translate(-22.448633,-143.13797)"
   id="g8">
	<path
   id="path2"
   d="M 22.816,413.312 C 21.376,253.976 130.96,149.864 283.024,143.528 438.616,141.224 563.248,247.568 561.88,413.312 562.384,572.576 451.864,680.792 289.432,682.664 126.424,678.056 22.816,567.608 22.816,413.312 Z"
   style="clip-rule:evenodd;fill:none;fill-rule:evenodd;stroke:#007ac2;stroke-width:0.70670003;stroke-miterlimit:10" />
	<path
   id="path4"
   d="m 35.128,413.312 c 0.432,-138.744 110.016,-256.608 257.04,-257.04 127.728,-0.432 255.6,99.576 256.968,257.04 0.432,140.544 -113.688,255.6 -256.968,256.968 C 149.68,669.848 35.128,556.16 35.128,413.312 Z"
   style="clip-rule:evenodd;fill:#0079c1;fill-rule:evenodd" />
	<polygon
   id="polygon6"
   points="259.264,303.296 192.592,303.296 294.4,202.424 393.904,303.296 326.296,303.296 326.296,623.264 259.264,623.264 "
   style="clip-rule:evenodd;fill:#ffffff;fill-rule:evenodd" />
</g>
</svg>