<?xml version="1.0" encoding="UTF-8" standalone="no"?>
<svg
   xmlns:dc="http://purl.org/dc/elements/1.1/"
   xmlns:cc="http://creativecommons.org/ns#"
   xmlns:rdf="http://www.w3.org/1999/02/22-rdf-syntax-ns#"
   xmlns:svg="http://www.w3.org/2000/svg"
   xmlns="http://www.w3.org/2000/svg"
   version="1.1"
   id="Layer_1"
   x="0px"
   y="0px"
   width="539.79584"
   height="539.87946"
   viewBox="0 0 539.79584 539.87946"
   xml:space="preserve"><defs
   id="defs10">
	
	
	
</defs><metadata
   id="metadata15"><rdf:RDF><cc:Work
       rdf:about=""><dc:format>image/svg+xml</dc:format><dc:type
         rdf:resource="http://purl.org/dc/dcmitype/StillImage" /></cc:Work></rdf:RDF></metadata><path
   id="white_background"
   d="M 267.84766 0.0078125 C 265.42945 -0.00910097 263.00399 0.001071635 260.57031 0.037109375 L 260.56445 0.037109375 L 260.56055 0.037109375 C 108.34423 6.3794657 -1.4259575 110.67667 0.013671875 270.17383 L 0.013671875 270.17578 L 0.013671875 270.17773 C 0.014553925 347.40294 25.94913 413.68592 72.294922 461.23047 C 118.6415 508.77582 185.39106 537.57271 266.97266 539.87891 L 266.98047 539.87891 L 266.98828 539.87891 C 348.28181 538.94201 416.615 511.38869 464.55664 464.12305 C 512.49749 416.85818 540.03649 349.88999 539.78516 270.17773 L 539.78516 270.17578 C 541.13148 106.84717 420.19485 1.0733609 267.84766 0.0078125 z "
   style="fill:#ffffff;fill-opacity:1;stroke:none" /><g
   id="g8"
   transform="translate(-22.448633,-143.13797)">
	<path
   style="clip-rule:evenodd;fill:none;fill-rule:evenodd;stroke:#007ac2;stroke-width:0.70670003;stroke-miterlimit:10"
   d="M 22.816,413.312 C 21.376,253.976 130.96,149.864 283.024,143.528 438.616,141.224 563.248,247.568 561.88,413.312 562.384,572.576 451.864,680.792 289.432,682.664 126.424,678.056 22.816,567.608 22.816,413.312 Z"
   id="path2" />
	<path
   style="clip-rule:evenodd;fill:#0079c1;fill-rule:evenodd"
   d="m 35.128,413.312 c 0.432,-138.744 110.016,-256.608 257.04,-257.04 127.728,-0.432 255.6,99.576 256.968,257.04 0.432,140.544 -113.688,255.6 -256.968,256.968 C 149.68,669.848 35.128,556.16 35.128,413.312 Z"
   id="path4" />
	<polygon
   style="clip-rule:evenodd;fill:#ffffff;fill-rule:evenodd"
   points="259.264,303.296 192.592,303.296 294.4,202.424 393.904,303.296 326.296,303.296 326.296,623.264 259.264,623.264 "
   id="polygon6" />
</g>
</svg>