<?xml version="1.0" encoding="UTF-8" standalone="no"?>
<svg
   xmlns:dc="http://purl.org/dc/elements/1.1/"
   xmlns:cc="http://creativecommons.org/ns#"
   xmlns:rdf="http://www.w3.org/1999/02/22-rdf-syntax-ns#"
   xmlns:svg="http://www.w3.org/2000/svg"
   xmlns="http://www.w3.org/2000/svg"
   version="1.1"
   id="Layer_1"
   x="0px"
   y="0px"
   width="541.6673"
   height="541.69653"
   viewBox="0 0 541.6673 541.69653"
   xml:space="preserve"><defs
   id="defs10">
	
	
	
</defs><metadata
   id="metadata15"><rdf:RDF><cc:Work
       rdf:about=""><dc:format>image/svg+xml</dc:format><dc:type
         rdf:resource="http://purl.org/dc/dcmitype/StillImage" /></cc:Work></rdf:RDF></metadata><path
   id="white_background"
   d="M 268.80859 0.00390625 C 266.38145 -0.00557801 263.94659 0.01076651 261.50391 0.0546875 L 261.5 0.0546875 L 261.49414 0.0546875 C 108.7747 6.4690578 -1.3558327 110.62203 0.01171875 270.62305 L 0.01171875 270.625 L 0.01171875 270.62695 C 0.01349277 425.58361 104.67242 536.65056 267.90625 541.69531 L 267.91406 541.69727 L 267.92188 541.69727 C 349.50313 540.54417 418.07233 512.79209 466.17578 465.31055 C 514.27844 417.82979 541.90563 350.62714 541.6543 270.62695 L 541.6543 270.625 C 543.07158 106.80012 421.71877 0.6014147 268.80859 0.00390625 z "
   style="fill:#ffffff;fill-opacity:1;stroke:none" /><g
   id="g8"
   transform="translate(-23.170183,-148.66476)">
	<path
   style="clip-rule:evenodd;fill:none;fill-rule:evenodd;stroke:#0079c1;stroke-width:0.70639998;stroke-miterlimit:10"
   d="M 23.536,419.288 C 22.168,259.448 132.112,155.48 284.68,149.072 440.848,146.264 565.912,253.04 564.472,419.288 564.976,579.128 454.096,687.704 291.088,690.008 128.008,684.968 23.536,574.088 23.536,419.288 Z"
   id="path2" />
	<path
   style="clip-rule:evenodd;fill:#0079c1;fill-rule:evenodd"
   d="M 35.92,419.288 C 36.424,280.544 146.368,162.32 293.824,161.384 c 128.232,0 256.464,100.368 257.832,257.904 C 552.16,560.768 437.608,676.256 293.824,677.12 150.904,677.12 35.92,563.072 35.92,419.288 Z"
   id="path4" />
	<polygon
   style="clip-rule:evenodd;fill:#ffffff;fill-rule:evenodd"
   points="243.928,435.704 246.664,421.088 253.504,407.84 259.912,400.496 268.192,394.592 276.904,390.488 286.984,388.184 362.944,387.68 362.944,455.432 463.744,354.272 362.944,253.472 362.944,320.36 283.744,320.792 268.192,323.096 253.504,327.272 238.888,333.68 225.568,341.888 213.256,351.968 202.672,363.416 193.528,376.232 186.184,389.984 180.712,404.672 176.608,427.928 176.104,435.704 176.104,589.208 243.928,589.208 "
   id="polygon6" />
</g>
</svg>