<?xml version="1.0" encoding="UTF-8" standalone="no"?>
<svg
   xmlns:dc="http://purl.org/dc/elements/1.1/"
   xmlns:cc="http://creativecommons.org/ns#"
   xmlns:rdf="http://www.w3.org/1999/02/22-rdf-syntax-ns#"
   xmlns:svg="http://www.w3.org/2000/svg"
   xmlns="http://www.w3.org/2000/svg"
   xml:space="preserve"
   viewBox="0 0 541.6673 541.69653"
   height="541.69653"
   width="541.6673"
   y="0px"
   x="0px"
   id="Layer_1"
   version="1.1"><metadata
   id="metadata15"><rdf:RDF><cc:Work
       rdf:about=""><dc:format>image/svg+xml</dc:format><dc:type
         rdf:resource="http://purl.org/dc/dcmitype/StillImage" /></cc:Work></rdf:RDF></metadata><defs
   id="defs13" />
<g
   transform="translate(-23.170183,-148.66476)"
   id="g8">
	<path
   id="path2"
   d="M 23.536,419.288 C 22.168,259.448 132.112,155.48 284.68,149.072 440.848,146.264 565.912,253.04 564.472,419.288 564.976,579.128 454.096,687.704 291.088,690.008 128.008,684.968 23.536,574.088 23.536,419.288 Z"
   style="clip-rule:evenodd;fill:none;fill-rule:evenodd;stroke:#0079c1;stroke-width:0.70639998;stroke-miterlimit:10" />
	<path
   id="path4"
   d="M 35.92,419.288 C 36.424,280.544 146.368,162.32 293.824,161.384 c 128.232,0 256.464,100.368 257.832,257.904 C 552.16,560.768 437.608,676.256 293.824,677.12 150.904,677.12 35.92,563.072 35.92,419.288 Z"
   style="clip-rule:evenodd;fill:#0079c1;fill-rule:evenodd" />
	<polygon
   id="polygon6"
   points="243.928,435.704 246.664,421.088 253.504,407.84 259.912,400.496 268.192,394.592 276.904,390.488 286.984,388.184 362.944,387.68 362.944,455.432 463.744,354.272 362.944,253.472 362.944,320.36 283.744,320.792 268.192,323.096 253.504,327.272 238.888,333.68 225.568,341.888 213.256,351.968 202.672,363.416 193.528,376.232 186.184,389.984 180.712,404.672 176.608,427.928 176.104,435.704 176.104,589.208 243.928,589.208 "
   style="clip-rule:evenodd;fill:#ffffff;fill-rule:evenodd" />
</g>
</svg>