<?xml version="1.0" encoding="UTF-8" standalone="no"?>
<svg
   xmlns:dc="http://purl.org/dc/elements/1.1/"
   xmlns:cc="http://creativecommons.org/ns#"
   xmlns:rdf="http://www.w3.org/1999/02/22-rdf-syntax-ns#"
   xmlns:svg="http://www.w3.org/2000/svg"
   xmlns="http://www.w3.org/2000/svg"
   xml:space="preserve"
   enable-background="new 0 0 595.28 841.89"
   viewBox="0 0 496.56397 496.544"
   height="496.54401"
   width="496.564"
   y="0px"
   x="0px"
   id="Layer_1"
   version="1.0"><metadata
   id="metadata16"><rdf:RDF><cc:Work
       rdf:about=""><dc:format>image/svg+xml</dc:format><dc:type
         rdf:resource="http://purl.org/dc/dcmitype/StillImage" /></cc:Work></rdf:RDF></metadata><defs
   id="defs14" />
<g
   transform="translate(-49.358,-172.673)"
   id="CIRCLE_99_">
	<path
   style="fill:#ffffff;stroke:#0079c1;stroke-width:0.5;stroke-miterlimit:10"
   id="path2"
   d="m 545.672,420.936 c 0,-136.97 -111.062,-248.013 -247.975,-248.013 -137.064,0 -248.089,111.043 -248.089,248.013 0,136.969 111.024,248.031 248.089,248.031 136.913,0 247.975,-111.063 247.975,-248.031 z"
   stroke-miterlimit="10" />
</g>
<g
   transform="translate(-49.358,-172.673)"
   id="CIRCLE_100_">
	<path
   style="fill:#0079c1"
   id="path5"
   d="m 534.104,420.936 c 0,-130.54 -105.866,-236.406 -236.406,-236.406 -130.616,0 -236.425,105.866 -236.425,236.406 0,130.521 105.809,236.424 236.425,236.424 130.539,-10e-4 236.406,-105.904 236.406,-236.424 z" />
</g>
<g
   transform="translate(-49.358,-172.673)"
   id="LWPOLYLINE_190_">
	<path
   style="fill:#ffffff"
   id="path8"
   d="m 413.406,390.571 0.151,-131.507 -131.772,0.151 44.02,44.02 -74.99,75.065 c -21.849,21.867 -34.063,51.358 -34.063,82.196 v 153.317 h 61.961 v -153.62 c 0,-14.338 5.766,-28.106 15.912,-38.367 l 75.047,-74.971 z" />
</g>
</svg>