<?xml version="1.0" encoding="UTF-8" standalone="no"?>
<svg
   xmlns:dc="http://purl.org/dc/elements/1.1/"
   xmlns:cc="http://creativecommons.org/ns#"
   xmlns:rdf="http://www.w3.org/1999/02/22-rdf-syntax-ns#"
   xmlns:svg="http://www.w3.org/2000/svg"
   xmlns="http://www.w3.org/2000/svg"
   xml:space="preserve"
   enable-background="new 0 0 595.28 841.89"
   viewBox="0 0 496.77167 496.73369"
   height="496.7337"
   width="496.7717"
   y="0px"
   x="0px"
   id="Layer_1"
   version="1.0"><metadata
   id="metadata16"><rdf:RDF><cc:Work
       rdf:about=""><dc:format>image/svg+xml</dc:format><dc:type
         rdf:resource="http://purl.org/dc/dcmitype/StillImage" /></cc:Work></rdf:RDF></metadata><defs
   id="defs14" />
<g
   transform="translate(-49.25465,-172.57765)"
   id="CIRCLE_101_">
	
		<path
   style="fill:#ffffff;stroke:#0079c1;stroke-width:0.7087;stroke-linecap:round;stroke-linejoin:round;stroke-miterlimit:10"
   id="path2"
   d="m 545.672,420.973 c 0,-137.019 -111.041,-248.041 -248.098,-248.041 -136.924,0 -247.965,111.022 -247.965,248.041 0,136.943 111.041,247.984 247.965,247.984 137.057,0 248.098,-111.041 248.098,-247.984 z"
   stroke-miterlimit="10" />
</g>
<g
   transform="translate(-49.25465,-172.57765)"
   id="CIRCLE_102_">
	<path
   style="fill:#0079c1"
   id="path5"
   d="m 533.992,420.973 c 0,-130.591 -105.809,-236.436 -236.418,-236.436 -130.515,0 -236.36,105.845 -236.36,236.436 0,130.496 105.846,236.38 236.36,236.38 130.61,0.001 236.418,-105.884 236.418,-236.38 z" />
</g>
<g
   transform="translate(-49.25465,-172.57765)"
   id="LWPOLYLINE_191_">
	<path
   style="fill:#ffffff"
   id="path8"
   d="m 373.801,377.494 -61.854,-63.599 c -32.482,-31.477 -84.286,-30.699 -115.763,1.745 -14.828,15.321 -23.096,35.725 -23.096,57.019 v 170.695 h 61.607 V 384.509 c 0,-6.959 2.92,-13.652 8.002,-18.469 10.258,-9.633 26.319,-9.178 36.009,1.081 l 51.35,54.307 -43.632,43.65 131.519,0.076 -0.15,-131.69 z" />
</g>
</svg>