<?xml version="1.0" encoding="utf-8"?>
<!-- Generator: Adobe Illustrator 28.0.0, SVG Export Plug-In . SVG Version: 6.00 Build 0)  -->
<svg version="1.1" id="Layer_1" xmlns="http://www.w3.org/2000/svg" xmlns:xlink="http://www.w3.org/1999/xlink" x="0px" y="0px"
	 viewBox="0 0 595.28 841.89" style="enable-background:new 0 0 595.28 841.89;" xml:space="preserve">
<style type="text/css">
	.st0{fill:#FFFFFF;stroke:#0079C1;stroke-width:0.5;stroke-miterlimit:10;}
	.st1{fill:#0079C1;}
	.st2{fill:#FFFFFF;}
</style>
<g id="CIRCLE_99_">
	<path class="st0" d="M49.61,420.94c0-136.97,111.06-248.01,247.97-248.01c137.06,0,248.09,111.04,248.09,248.01
		c0,136.97-111.02,248.03-248.09,248.03C160.67,668.97,49.61,557.9,49.61,420.94L49.61,420.94z"/>
</g>
<g id="CIRCLE_100_">
	<path class="st1" d="M61.18,420.94c0-130.54,105.87-236.41,236.41-236.41c130.62,0,236.42,105.87,236.42,236.41
		c0,130.52-105.81,236.42-236.42,236.42C167.04,657.36,61.18,551.46,61.18,420.94L61.18,420.94z"/>
</g>
<g id="LWPOLYLINE_190_">
	<path class="st2" d="M181.87,390.57l-0.15-131.51l131.77,0.15l-44.02,44.02l74.99,75.07c21.85,21.87,34.06,51.36,34.06,82.2v153.32
		h-61.96V460.19c0-14.34-5.77-28.11-15.91-38.37l-75.05-74.97L181.87,390.57z"/>
</g>
</svg>
