<?xml version="1.0" encoding="UTF-8" standalone="no"?>
<svg
   xmlns:dc="http://purl.org/dc/elements/1.1/"
   xmlns:cc="http://creativecommons.org/ns#"
   xmlns:rdf="http://www.w3.org/1999/02/22-rdf-syntax-ns#"
   xmlns:svg="http://www.w3.org/2000/svg"
   xmlns="http://www.w3.org/2000/svg"
   height="496.54001"
   width="496.56"
   xml:space="preserve"
   viewBox="0 0 496.55997 496.54"
   y="0px"
   x="0px"
   id="Layer_1"
   version="1.1"><metadata
   id="metadata18"><rdf:RDF><cc:Work
       rdf:about=""><dc:format>image/svg+xml</dc:format><dc:type
         rdf:resource="http://purl.org/dc/dcmitype/StillImage" /></cc:Work></rdf:RDF></metadata><defs
   id="defs16" />
<style
   id="style2"
   type="text/css">
	.st0{fill:#FFFFFF;stroke:#0079C1;stroke-width:0.5;stroke-miterlimit:10;}
	.st1{fill:#0079C1;}
	.st2{fill:#FFFFFF;}
</style>
<g
   transform="translate(-49.36,-172.68)"
   id="CIRCLE_99_">
	<path
   style="fill:#ffffff;stroke:#0079c1;stroke-width:0.5;stroke-miterlimit:10"
   id="path4"
   d="m 49.61,420.94 c 0,-136.97 111.06,-248.01 247.97,-248.01 137.06,0 248.09,111.04 248.09,248.01 0,136.97 -111.02,248.03 -248.09,248.03 C 160.67,668.97 49.61,557.9 49.61,420.94 Z"
   class="st0" />
</g>
<g
   transform="translate(-49.36,-172.68)"
   id="CIRCLE_100_">
	<path
   style="fill:#0079c1"
   id="path7"
   d="m 61.18,420.94 c 0,-130.54 105.87,-236.41 236.41,-236.41 130.62,0 236.42,105.87 236.42,236.41 0,130.52 -105.81,236.42 -236.42,236.42 -130.55,0 -236.41,-105.9 -236.41,-236.42 z"
   class="st1" />
</g>
<g
   transform="translate(-49.36,-172.68)"
   id="LWPOLYLINE_190_">
	<path
   style="fill:#ffffff"
   id="path10"
   d="m 181.87,390.57 -0.15,-131.51 131.77,0.15 -44.02,44.02 74.99,75.07 c 21.85,21.87 34.06,51.36 34.06,82.2 V 613.82 H 316.56 V 460.19 c 0,-14.34 -5.77,-28.11 -15.91,-38.37 L 225.6,346.85 Z"
   class="st2" />
</g>
</svg>