<?xml version="1.0" encoding="UTF-8" standalone="no"?>
<svg
   xmlns:dc="http://purl.org/dc/elements/1.1/"
   xmlns:cc="http://creativecommons.org/ns#"
   xmlns:rdf="http://www.w3.org/1999/02/22-rdf-syntax-ns#"
   xmlns:svg="http://www.w3.org/2000/svg"
   xmlns="http://www.w3.org/2000/svg"
   height="541.70056"
   width="541.66138"
   xml:space="preserve"
   viewBox="0 0 541.66138 541.70056"
   y="0px"
   x="0px"
   id="Layer_1"
   version="1.1"><metadata
   id="metadata17"><rdf:RDF><cc:Work
       rdf:about=""><dc:format>image/svg+xml</dc:format><dc:type
         rdf:resource="http://purl.org/dc/dcmitype/StillImage" /></cc:Work></rdf:RDF></metadata><defs
   id="defs15" />
<style
   id="style2"
   type="text/css">
	.st0{fill-rule:evenodd;clip-rule:evenodd;fill:none;stroke:#0079C1;stroke-width:0.7064;stroke-miterlimit:10;}
	.st1{fill-rule:evenodd;clip-rule:evenodd;fill:#0079C1;}
	.st2{fill-rule:evenodd;clip-rule:evenodd;fill:#FFFFFF;}
</style>
<g
   transform="translate(-23.174494,-148.66269)"
   id="g10">
	<path
   style="clip-rule:evenodd;fill:none;fill-rule:evenodd;stroke:#0079c1;stroke-width:0.70639998;stroke-miterlimit:10"
   id="path4"
   d="M 564.47,419.29 C 565.84,259.45 455.89,155.48 303.33,149.07 147.16,146.26 22.1,253.04 23.54,419.29 23.04,579.13 133.92,687.71 296.92,690.01 460,684.97 564.47,574.09 564.47,419.29 Z"
   class="st0" />
	<path
   style="clip-rule:evenodd;fill:#0079c1;fill-rule:evenodd"
   id="path6"
   d="m 552.09,419.29 c -0.5,-138.74 -110.45,-256.97 -257.9,-257.9 -128.23,0 -256.46,100.37 -257.83,257.9 -0.5,141.48 114.05,256.97 257.83,257.83 142.91,0 257.9,-114.05 257.9,-257.83 z"
   class="st1" />
	<polygon
   style="clip-rule:evenodd;fill:#ffffff;fill-rule:evenodd"
   id="polygon8"
   points="344.08,435.7 341.34,421.09 334.5,407.84 328.1,400.5 319.82,394.59 311.1,390.49 301.02,388.18 225.06,387.68 225.06,455.43 124.26,354.27 225.06,253.47 225.06,320.36 304.26,320.79 319.82,323.1 334.5,327.27 349.12,333.68 362.44,341.89 374.75,351.97 385.34,363.42 394.48,376.23 401.82,389.98 407.3,404.67 411.4,427.93 411.9,435.7 411.9,589.21 344.08,589.21 "
   class="st2" />
</g>
</svg>