<?xml version="1.0" encoding="UTF-8" standalone="no"?>
<svg
   xmlns:dc="http://purl.org/dc/elements/1.1/"
   xmlns:cc="http://creativecommons.org/ns#"
   xmlns:rdf="http://www.w3.org/1999/02/22-rdf-syntax-ns#"
   xmlns:svg="http://www.w3.org/2000/svg"
   xmlns="http://www.w3.org/2000/svg"
   version="1.1"
   id="Layer_1"
   x="0px"
   y="0px"
   viewBox="0 0 541.66138 541.70056"
   xml:space="preserve"
   width="541.66138"
   height="541.70056"><defs
   id="defs10">
	
	
	
</defs><metadata
   id="metadata17"><rdf:RDF><cc:Work
       rdf:about=""><dc:format>image/svg+xml</dc:format><dc:type
         rdf:resource="http://purl.org/dc/dcmitype/StillImage" /></cc:Work></rdf:RDF></metadata><path
   id="white_background"
   d="M 272.85742 0.00390625 C 119.94598 0.59960908 -1.4053181 106.8012 0.01171875 270.62695 L 0.01171875 270.62891 L 0.01171875 270.63086 C -0.23761686 350.63104 27.391983 417.83515 75.494141 465.31641 C 123.59709 512.79844 192.16296 540.55008 273.74023 541.70117 L 273.74805 541.70117 L 273.75586 541.70117 C 436.98895 536.65624 541.64666 425.58771 541.64844 270.63086 C 543.01984 110.62759 432.88286 6.4711133 280.16992 0.0546875 L 280.16602 0.0546875 L 280.16211 0.0546875 C 277.7194 0.0107354 275.28459 -0.00554935 272.85742 0.00390625 z "
   style="fill:#ffffff;fill-opacity:1;stroke:none" /><g
   id="g10"
   transform="translate(-23.174494,-148.66269)">
	<path
   class="st0"
   d="M 564.47,419.29 C 565.84,259.45 455.89,155.48 303.33,149.07 147.16,146.26 22.1,253.04 23.54,419.29 23.04,579.13 133.92,687.71 296.92,690.01 460,684.97 564.47,574.09 564.47,419.29 Z"
   id="path4"
   style="clip-rule:evenodd;fill:none;fill-rule:evenodd;stroke:#0079c1;stroke-width:0.70639998;stroke-miterlimit:10" />
	<path
   class="st1"
   d="m 552.09,419.29 c -0.5,-138.74 -110.45,-256.97 -257.9,-257.9 -128.23,0 -256.46,100.37 -257.83,257.9 -0.5,141.48 114.05,256.97 257.83,257.83 142.91,0 257.9,-114.05 257.9,-257.83 z"
   id="path6"
   style="clip-rule:evenodd;fill:#0079c1;fill-rule:evenodd" />
	<polygon
   class="st2"
   points="344.08,435.7 341.34,421.09 334.5,407.84 328.1,400.5 319.82,394.59 311.1,390.49 301.02,388.18 225.06,387.68 225.06,455.43 124.26,354.27 225.06,253.47 225.06,320.36 304.26,320.79 319.82,323.1 334.5,327.27 349.12,333.68 362.44,341.89 374.75,351.97 385.34,363.42 394.48,376.23 401.82,389.98 407.3,404.67 411.4,427.93 411.9,435.7 411.9,589.21 344.08,589.21 "
   id="polygon8"
   style="clip-rule:evenodd;fill:#ffffff;fill-rule:evenodd" />
</g>
</svg>