<?xml version="1.0" encoding="utf-8"?>
<!-- Generator: Adobe Illustrator 28.0.0, SVG Export Plug-In . SVG Version: 6.00 Build 0)  -->
<svg version="1.1" id="Layer_1" xmlns="http://www.w3.org/2000/svg" xmlns:xlink="http://www.w3.org/1999/xlink" x="0px" y="0px"
	 viewBox="0 0 595 842" style="enable-background:new 0 0 595 842;" xml:space="preserve">
<style type="text/css">
	.st0{fill-rule:evenodd;clip-rule:evenodd;fill:none;stroke:#0079C1;stroke-width:0.7064;stroke-miterlimit:10;}
	.st1{fill-rule:evenodd;clip-rule:evenodd;fill:#0079C1;}
	.st2{fill-rule:evenodd;clip-rule:evenodd;fill:#FFFFFF;}
</style>
<g>
	<path class="st0" d="M564.47,419.29c1.37-159.84-108.58-263.81-261.14-270.22C147.16,146.26,22.1,253.04,23.54,419.29
		c-0.5,159.84,110.38,268.42,273.38,270.72C460,684.97,564.47,574.09,564.47,419.29z"/>
	<path class="st1" d="M552.09,419.29c-0.5-138.74-110.45-256.97-257.9-257.9c-128.23,0-256.46,100.37-257.83,257.9
		c-0.5,141.48,114.05,256.97,257.83,257.83C437.1,677.12,552.09,563.07,552.09,419.29z"/>
	<polygon class="st2" points="411.9,589.21 344.08,589.21 344.08,435.7 341.34,421.09 334.5,407.84 328.1,400.5 319.82,394.59 
		311.1,390.49 301.02,388.18 225.06,387.68 225.06,455.43 124.26,354.27 225.06,253.47 225.06,320.36 304.26,320.79 319.82,323.1 
		334.5,327.27 349.12,333.68 362.44,341.89 374.75,351.97 385.34,363.42 394.48,376.23 401.82,389.98 407.3,404.67 411.4,427.93 
		411.9,435.7 	"/>
</g>
</svg>
