<?xml version="1.0" encoding="UTF-8"?>
<svg id="Layer_1" data-name="Layer 1" xmlns="http://www.w3.org/2000/svg" version="1.1" xmlns:cc="http://creativecommons.org/ns#" xmlns:dc="http://purl.org/dc/elements/1.1/" xmlns:rdf="http://www.w3.org/1999/02/22-rdf-syntax-ns#" xmlns:svg="http://www.w3.org/2000/svg" viewBox="0 0 496.8 496.7">
  <defs>
    <style>
      .cls-1, .cls-2 {
        stroke-width: 0px;
      }

      .cls-1, .cls-3 {
        fill: #fff;
      }

      .cls-2 {
        fill: #0079c1;
      }

      .cls-3 {
        stroke: #0079c1;
        stroke-linecap: round;
        stroke-linejoin: round;
        stroke-width: .7px;
      }
    </style>
  </defs>
  <g id="CIRCLE">
    <path id="path2" class="cls-3" d="M496.4,248.4C496.4,111.4,385.4.4,248.3.4S.4,111.4.4,248.4s111,248,248,248,248.1-111,248.1-248h0Z"/>
  </g>
  <g id="CIRCLE-2" data-name="CIRCLE">
    <path id="path5" class="cls-2" d="M484.7,248.4c0-130.6-105.8-236.4-236.4-236.4S12,117.8,12,248.4s105.8,236.4,236.4,236.4c130.6,0,236.4-105.9,236.4-236.4h0Z"/>
  </g>
  <g id="LWPOLYLINE">
    <path id="path8" class="cls-1" d="M124,160.9v131.7c-.1,0,131.4,0,131.4,0l-43.6-43.6,51.4-54.3c9.7-10.3,25.8-10.7,36-1.1,5.1,4.8,8,11.5,8,18.5v158.8s61.6,0,61.6,0v-170.7c0-21.3-8.3-41.7-23.1-57-31.5-32.4-83.3-33.2-115.8-1.7l-61.9,63.6-44-44Z"/>
  </g>
</svg>