<?xml version="1.0" encoding="UTF-8" standalone="no"?>
<svg
   xmlns:dc="http://purl.org/dc/elements/1.1/"
   xmlns:cc="http://creativecommons.org/ns#"
   xmlns:rdf="http://www.w3.org/1999/02/22-rdf-syntax-ns#"
   xmlns:svg="http://www.w3.org/2000/svg"
   xmlns="http://www.w3.org/2000/svg"
   version="1.1"
   id="Layer_1"
   x="0px"
   y="0px"
   width="545.36786"
   height="545.33899"
   viewBox="0 0 545.36786 545.33899"
   xml:space="preserve"><defs
   id="defs10">
	
	
	
</defs><metadata
   id="metadata15"><rdf:RDF><cc:Work
       rdf:about=""><dc:format>image/svg+xml</dc:format><dc:type
         rdf:resource="http://purl.org/dc/dcmitype/StillImage" /></cc:Work></rdf:RDF></metadata><path
   id="white_background"
   d="M 272.50977 0.013671875 C 194.49242 0.014553965 127.5258 26.218755 79.486328 73.023438 C 31.446052 119.82891 2.3422076 187.22685 0 269.56445 L 0 269.57227 L 0 269.57812 C 0.93688215 351.77152 28.760114 420.82587 76.511719 469.27148 C 124.26332 517.7171 191.93588 545.54435 272.51367 545.32812 C 440.4493 546.69557 548.12537 420.57145 545.31445 263.23242 L 545.31445 263.22852 L 545.31445 263.22461 C 538.90012 109.49662 434.02631 -1.4259383 272.51367 0.013671875 L 272.50977 0.013671875 z "
   style="fill:#ffffff;fill-opacity:1;stroke:none" /><g
   id="g8"
   transform="translate(-22.606893,-152.08908)">
	<path
   style="clip-rule:evenodd;fill:none;fill-rule:evenodd;stroke:#007ac2;stroke-width:0.70609999;stroke-miterlimit:10"
   d="M 295.12,152.456 C 456.472,151.016 561.16,261.752 567.568,415.328 570.376,572.504 462.88,698.432 295.12,697.064 134.128,697.496 24.832,585.896 22.96,421.664 27.64,257.144 139.24,152.456 295.12,152.456 Z"
   id="path2" />
	<path
   style="clip-rule:evenodd;fill:#0079c1;fill-rule:evenodd"
   d="M 295.12,164.84 C 435.232,165.344 554.248,276.008 554.68,424.472 555.184,553.568 454.168,682.736 295.12,684.104 153.064,684.608 36.856,569.264 35.92,424.472 35.92,280.616 150.76,164.84 295.12,164.84 Z"
   id="path4" />
	<polygon
   style="clip-rule:evenodd;fill:#ffffff;fill-rule:evenodd"
   points="273.448,559.112 274.384,547.16 277.552,535.64 282.16,524.552 289.144,514.832 301.96,502.88 312.544,496.832 323.632,492.728 335.152,490.424 384.04,490.424 384.04,558.68 485.488,457.232 384.04,355.784 384.04,422.6 339.76,422.6 322.264,424.472 305.632,428.576 289.144,434.12 273.448,441.536 273.448,312.008 341.632,312.008 239.752,210.056 138.304,312.008 205.624,312.008 205.624,635.216 273.448,635.216 "
   id="polygon6" />
</g>
</svg>