<?xml version="1.0" encoding="UTF-8"?>
<svg id="Layer_1" data-name="Layer 1" xmlns="http://www.w3.org/2000/svg" version="1.1" xmlns:cc="http://creativecommons.org/ns#" xmlns:dc="http://purl.org/dc/elements/1.1/" xmlns:rdf="http://www.w3.org/1999/02/22-rdf-syntax-ns#" xmlns:svg="http://www.w3.org/2000/svg" viewBox="0 0 496.6 496.5">
  <defs>
    <style>
      .cls-1 {
        stroke: #0079c1;
        stroke-miterlimit: 10;
        stroke-width: .5px;
      }

      .cls-1, .cls-2 {
        fill: #fff;
      }

      .cls-2, .cls-3 {
        stroke-width: 0px;
      }

      .cls-3 {
        fill: #0079c1;
      }
    </style>
  </defs>
  <g id="CIRCLE">
    <path id="path2" class="cls-1" d="M496.3,248.3C496.3,111.3,385.3.3,248.3.3S.2,111.3.2,248.3s111,248,248.1,248,248-111.1,248-248h0Z"/>
  </g>
  <g id="CIRCLE-2" data-name="CIRCLE">
    <path id="path5" class="cls-3" d="M484.7,248.3c0-130.5-105.9-236.4-236.4-236.4S11.9,117.7,11.9,248.3s105.8,236.4,236.4,236.4c130.5,0,236.4-105.9,236.4-236.4h0Z"/>
  </g>
  <g id="LWPOLYLINE">
    <path class="cls-2" d="M280.7,362.9l43.6-43.6-51.3-54.3c-9.7-10.3-25.8-10.7-36-1.1-1.8,1.7-3.4,3.7-4.6,5.8-2.2,3.8-3.4,8.2-3.4,12.7v158.8h-61.6v-153.3c0-30.8,12.2-60.3,34.1-82.2l75-75.1-44-44h131.8c0-.1-.2,131.4-.2,131.4l-43.7-43.7-27.2,27.2c4.6,2.9,9,6.4,13.1,10.3l61.9,63.6,44-44,.2,131.7h-131.5Z"/>
  </g>
</svg>