<?xml version="1.0" encoding="UTF-8" standalone="no"?>
<svg
   xmlns:dc="http://purl.org/dc/elements/1.1/"
   xmlns:cc="http://creativecommons.org/ns#"
   xmlns:rdf="http://www.w3.org/1999/02/22-rdf-syntax-ns#"
   xmlns:svg="http://www.w3.org/2000/svg"
   xmlns="http://www.w3.org/2000/svg"
   version="1.1"
   id="Layer_1"
   x="0px"
   y="0px"
   viewBox="0 0 545.36957 545.33105"
   xml:space="preserve"
   width="545.36957"
   height="545.33105"><defs
   id="defs10">
	
	
	
</defs><metadata
   id="metadata17"><rdf:RDF><cc:Work
       rdf:about=""><dc:format>image/svg+xml</dc:format><dc:type
         rdf:resource="http://purl.org/dc/dcmitype/StillImage" /></cc:Work></rdf:RDF></metadata><path
   id="white_background"
   d="M 272.85547 0.013671875 C 111.34482 -1.4259384 6.4690669 109.50094 0.052734375 263.22266 L 0.052734375 263.22656 L 0.052734375 263.23047 C -2.7501918 420.56434 104.92148 546.69177 272.85938 545.32031 C 353.43443 545.53461 421.1061 517.70654 468.85742 469.26172 C 516.60953 420.8161 544.43326 351.76271 545.36914 269.57031 L 545.36914 269.56445 L 545.36914 269.55664 C 543.02693 187.2197 513.92309 119.823 465.88281 73.019531 C 417.84334 26.21685 350.87672 0.014553905 272.85938 0.013671875 L 272.85547 0.013671875 z "
   style="fill:#ffffff;fill-opacity:1;stroke:none" /><g
   id="g10"
   transform="translate(-22.603567,-152.09308)">
	<path
   class="st0"
   d="M 295.46,152.46 C 134.11,151.02 29.42,261.76 23.01,415.33 20.21,572.5 127.7,698.43 295.46,697.06 456.45,697.49 565.75,585.89 567.62,421.66 562.94,257.14 451.34,152.46 295.46,152.46 Z"
   id="path4"
   style="clip-rule:evenodd;fill:none;fill-rule:evenodd;stroke:#007ac2;stroke-width:0.70609999;stroke-miterlimit:10" />
	<path
   class="st1"
   d="M 295.46,164.84 C 155.35,165.34 36.33,276.01 35.9,424.47 c -0.5,129.1 100.51,258.26 259.56,259.63 142.06,0.5 258.26,-114.84 259.2,-259.63 0,-143.85 -114.84,-259.63 -259.2,-259.63 z"
   id="path6"
   style="clip-rule:evenodd;fill:#0079c1;fill-rule:evenodd" />
	<polygon
   class="st2"
   points="317.13,559.11 316.2,547.16 313.03,535.64 308.42,524.55 301.44,514.83 288.62,502.88 278.04,496.83 266.95,492.73 255.43,490.42 206.54,490.42 206.54,558.68 105.09,457.23 206.54,355.78 206.54,422.6 250.82,422.6 268.32,424.47 284.95,428.58 301.44,434.12 317.13,441.54 317.13,312.01 248.95,312.01 350.83,210.06 452.28,312.01 384.96,312.01 384.96,635.22 317.13,635.22 "
   id="polygon8"
   style="clip-rule:evenodd;fill:#ffffff;fill-rule:evenodd" />
</g>
</svg>