<?xml version="1.0" encoding="UTF-8"?>
<svg id="Layer_1" data-name="Layer 1" xmlns="http://www.w3.org/2000/svg" version="1.1" xmlns:cc="http://creativecommons.org/ns#" xmlns:dc="http://purl.org/dc/elements/1.1/" xmlns:rdf="http://www.w3.org/1999/02/22-rdf-syntax-ns#" xmlns:svg="http://www.w3.org/2000/svg" viewBox="0 0 496.6 496.5">
  <defs>
    <style>
      .cls-1 {
        stroke: #0079c1;
        stroke-miterlimit: 10;
        stroke-width: .5px;
      }

      .cls-1, .cls-2 {
        fill: #fff;
      }

      .cls-2, .cls-3 {
        stroke-width: 0px;
      }

      .cls-3 {
        fill: #0079c1;
      }
    </style>
  </defs>
  <g id="CIRCLE">
    <path id="path2" class="cls-1" d="M496.3,248.3C496.3,111.3,385.3.2,248.3.2S.3,111.3.3,248.3s111,248,248,248,248-111,248-248h0Z"/>
  </g>
  <g id="CIRCLE-2" data-name="CIRCLE">
    <path id="path5" class="cls-3" d="M484.6,248.3c0-130.6-105.8-236.4-236.4-236.4S11.9,117.7,11.9,248.3s105.8,236.4,236.4,236.4,236.4-105.9,236.4-236.4Z"/>
  </g>
  <g id="LWPOLYLINE">
    <path id="path8" class="cls-2" d="M276.5,296.6c0-8.2-3.3-16.1-9.2-21.9-12.2-12.1-31.7-12.1-43.8.1l-39.8,39.9,43.6,43.7H95.8c0,0,.2-131.6.2-131.6l44,44,42.5-42.1c24.7-24.4,61.1-32.7,93.9-21.4v-66.4s-61.7,0-61.7,0l92.9-93,93,93.2h-62.3s0,295.7,0,295.7h-62v-140h0Z"/>
  </g>
</svg>