<?xml version="1.0" encoding="UTF-8" standalone="no"?>
<svg
   xmlns:dc="http://purl.org/dc/elements/1.1/"
   xmlns:cc="http://creativecommons.org/ns#"
   xmlns:rdf="http://www.w3.org/1999/02/22-rdf-syntax-ns#"
   xmlns:svg="http://www.w3.org/2000/svg"
   xmlns="http://www.w3.org/2000/svg"
   version="1.1"
   id="Layer_1"
   x="0px"
   y="0px"
   width="540.61505"
   height="540.58063"
   viewBox="0 0 540.61505 540.58063"
   xml:space="preserve"><defs
   id="defs10">
	
	
	
</defs><metadata
   id="metadata15"><rdf:RDF><cc:Work
       rdf:about=""><dc:format>image/svg+xml</dc:format><dc:type
         rdf:resource="http://purl.org/dc/dcmitype/StillImage" /></cc:Work></rdf:RDF></metadata><path
   id="white_background"
   d="M 270.49609 0.005859375 C 192.98128 0.22207922 126.50138 26.31773 78.830078 72.78125 C 31.158776 119.24477 2.3061984 186.06774 0 267.68555 L 0 267.69336 L 0 267.69922 C 0.93690093 348.92132 28.633623 417.25614 76.070312 465.22461 C 123.507 513.19308 190.67601 540.78653 270.49805 540.57031 C 436.63371 541.93777 543.30332 417.39661 540.56445 261.35352 L 540.5625 261.34961 L 540.5625 261.3457 C 534.14815 108.98421 430.21117 -0.93109732 270.49609 0.005859375 z "
   style="fill:#ffffff;fill-opacity:1;stroke:none" /><g
   id="g8"
   transform="translate(-37.366192,-156.77631)">
	<path
   style="clip-rule:evenodd;fill:none;fill-rule:evenodd;stroke:#0079c1;stroke-width:0.70749998;stroke-miterlimit:10"
   d="m 307.864,157.136 c 159.552,-0.936 263.304,108.792 269.712,261 C 580.312,574.016 473.824,698.36 307.864,696.992 148.384,697.424 39.592,586.76 37.72,424.472 42.328,261.392 152.992,157.568 307.864,157.136 Z"
   id="path2" />
	<path
   style="clip-rule:evenodd;fill:#0079c1;fill-rule:evenodd"
   d="m 307.864,169.952 c 138.528,0.432 256.464,110.16 257.4,257.256 0,128.016 -100.152,256.032 -257.4,256.968 -141.192,0.864 -256.392,-113.4 -257.328,-256.968 0,-142.56 113.832,-257.256 257.328,-257.256 z"
   id="path4" />
	<path
   style="clip-rule:evenodd;fill:#ffffff;fill-rule:evenodd"
   d="m 274.528,635.72 h 67.176 l 0.432,-173.736 c 5.04,-39.744 34.776,-61.632 67.68,-62.136 v 67.176 L 510.4,366.512 409.816,265.928 v 66.744 c -42.552,0.936 -76.32,16.488 -101.52,45.288 -27.792,-30.168 -61.632,-45.288 -101.88,-45.288 v -67.68 L 105.4,366.08 206.416,466.52 v -66.672 c 36.576,-0.432 62.64,24.192 67.68,62.568 z"
   id="path6" />
</g>
</svg>