<?xml version="1.0" encoding="UTF-8" standalone="no"?>
<svg
   xmlns:dc="http://purl.org/dc/elements/1.1/"
   xmlns:cc="http://creativecommons.org/ns#"
   xmlns:rdf="http://www.w3.org/1999/02/22-rdf-syntax-ns#"
   xmlns:svg="http://www.w3.org/2000/svg"
   xmlns="http://www.w3.org/2000/svg"
   xml:space="preserve"
   viewBox="0 0 540.61505 540.58063"
   height="540.58063"
   width="540.61505"
   y="0px"
   x="0px"
   id="Layer_1"
   version="1.1"><metadata
   id="metadata15"><rdf:RDF><cc:Work
       rdf:about=""><dc:format>image/svg+xml</dc:format><dc:type
         rdf:resource="http://purl.org/dc/dcmitype/StillImage" /></cc:Work></rdf:RDF></metadata><defs
   id="defs13" />
<g
   transform="translate(-37.366192,-156.77631)"
   id="g8">
	<path
   id="path2"
   d="m 307.864,157.136 c 159.552,-0.936 263.304,108.792 269.712,261 C 580.312,574.016 473.824,698.36 307.864,696.992 148.384,697.424 39.592,586.76 37.72,424.472 42.328,261.392 152.992,157.568 307.864,157.136 Z"
   style="clip-rule:evenodd;fill:none;fill-rule:evenodd;stroke:#0079c1;stroke-width:0.70749998;stroke-miterlimit:10" />
	<path
   id="path4"
   d="m 307.864,169.952 c 138.528,0.432 256.464,110.16 257.4,257.256 0,128.016 -100.152,256.032 -257.4,256.968 -141.192,0.864 -256.392,-113.4 -257.328,-256.968 0,-142.56 113.832,-257.256 257.328,-257.256 z"
   style="clip-rule:evenodd;fill:#0079c1;fill-rule:evenodd" />
	<path
   id="path6"
   d="m 274.528,635.72 h 67.176 l 0.432,-173.736 c 5.04,-39.744 34.776,-61.632 67.68,-62.136 v 67.176 L 510.4,366.512 409.816,265.928 v 66.744 c -42.552,0.936 -76.32,16.488 -101.52,45.288 -27.792,-30.168 -61.632,-45.288 -101.88,-45.288 v -67.68 L 105.4,366.08 206.416,466.52 v -66.672 c 36.576,-0.432 62.64,24.192 67.68,62.568 z"
   style="clip-rule:evenodd;fill:#ffffff;fill-rule:evenodd" />
</g>
</svg>