<?xml version="1.0" encoding="UTF-8" standalone="no"?>
<svg
   xmlns:dc="http://purl.org/dc/elements/1.1/"
   xmlns:cc="http://creativecommons.org/ns#"
   xmlns:rdf="http://www.w3.org/1999/02/22-rdf-syntax-ns#"
   xmlns:svg="http://www.w3.org/2000/svg"
   xmlns="http://www.w3.org/2000/svg"
   version="1.1"
   id="Layer_1"
   x="0px"
   y="0px"
   width="539.67773"
   height="539.6499"
   viewBox="0 0 539.67773 539.6499"
   xml:space="preserve"><defs
   id="defs10">
	
	
	
</defs><metadata
   id="metadata15"><rdf:RDF><cc:Work
       rdf:about=""><dc:format>image/svg+xml</dc:format><dc:type
         rdf:resource="http://purl.org/dc/dcmitype/StillImage" /></cc:Work></rdf:RDF></metadata><path
   id="white_background"
   d="M 269.55859 0.01171875 C 192.40439 0.01215989 126.15774 25.928941 78.630859 72.248047 C 31.103573 118.56755 2.3061936 185.28256 0 266.82812 L 0 266.83398 L 0 266.8418 C 0.93689218 348.13521 28.472368 416.45022 75.710938 464.38281 C 122.94951 512.3154 189.88463 539.85489 269.5625 539.63867 C 435.91398 541.00613 542.36582 416.17894 539.62695 260.49609 L 539.62695 260.49219 L 539.625 260.48633 C 533.28275 108.34182 429.49005 -1.3567538 269.56055 0.01171875 L 269.55859 0.01171875 z "
   style="fill:#ffffff;fill-opacity:1;stroke:none" /><g
   id="g8"
   transform="translate(-29.806892,-100.17828)">
	<path
   style="clip-rule:evenodd;fill:none;fill-rule:evenodd;stroke:#0079c1;stroke-width:0.70609999;stroke-miterlimit:10"
   d="M 299.368,100.544 C 459.136,99.176 562.744,208.688 569.08,360.68 571.816,516.2 465.544,640.832 299.368,639.464 140.176,639.896 32.032,529.448 30.16,367.016 34.768,204.08 145.216,100.544 299.368,100.544 Z"
   id="path2" />
	<path
   style="clip-rule:evenodd;fill:#0079c1;fill-rule:evenodd"
   d="M 299.368,112.856 C 438.112,113.288 555.904,222.8 556.336,369.752 556.768,497.48 456.832,625.28 299.368,626.648 158.896,627.08 43.912,513.032 42.976,369.752 c 0,-142.344 113.616,-256.896 256.392,-256.896 z"
   id="path4" />
	<polygon
   style="clip-rule:evenodd;fill:#ffffff;fill-rule:evenodd"
   points="222.328,558.176 222.328,552.272 236.944,546.296 227.8,288.536 224.632,294.44 221.392,301.352 219.16,308.192 216.856,315.032 215.056,321.872 214.12,329.144 213.184,338.288 213.688,348.296 214.552,372.056 219.16,382.136 217.288,388.472 218.656,398.984 208.648,401.72 199.072,393.08 192.664,318.632 215.056,252.968 217.288,248.36 219.16,246.128 223.264,242.888 251.056,233.744 251.992,228.272 251.56,225.536 247.888,222.8 246.52,213.224 245.584,205.016 245.584,195.872 246.52,191.768 249.256,186.8 251.056,184.496 256.096,181.76 263.44,179.96 267.976,180.392 274.384,180.824 287.56,186.296 288.496,188.168 287.56,189.968 286.696,190.904 287.56,199.976 287.128,204.08 288.928,210.488 287.128,224.672 285.76,226.472 284.392,226.904 277.552,227.408 276.616,232.376 303.04,242.456 306.208,245.192 308.512,247.928 310.816,251.096 312.184,254.336 327.232,317.264 350.056,358.376 356.896,363.416 359.632,372.056 356.464,378.464 364.672,398.048 385.192,391.712 385.192,388.976 380.656,388.976 378.784,387.104 376.048,383 375.184,377.96 375.184,375.224 376.048,372.992 375.184,369.752 375.184,367.016 375.616,365.216 374.68,363.416 374.68,360.68 376.048,358.376 378.784,355.64 383.824,352.472 387.928,351.032 393.4,350.168 399.304,350.168 404.344,351.536 408.448,354.272 412.12,357.944 413.92,362.048 414.424,366.584 413.488,372.992 412.552,378.896 412.12,381.2 412.552,383 413.92,386.24 402.976,388.472 406.216,391.208 408.448,392.144 413.056,393.512 418.024,396.68 420.328,399.416 424.432,404.888 427.6,410.864 430.336,416.336 437.248,426.776 439.984,432.68 441.784,440.456 443.152,449.096 443.584,455.072 442.72,460.544 439.984,465.512 435.376,469.688 428.968,462.776 430.336,458.672 429.904,455.936 433.144,451.832 428.536,438.656 417.592,420.872 418.96,436.352 425.8,476.528 422.632,477.392 422.632,493.376 419.896,528.08 421.264,530.384 423.496,532.184 426.232,533.552 426.232,538.088 413.056,544.496 404.848,543.56 404.344,511.664 405.712,495.68 405.28,490.208 405.28,486.104 404.344,482.864 402.04,480.128 392.464,480.632 394.768,555.944 386.56,557.744 370.144,547.664 370.144,544.496 372.376,541.328 374.68,540.392 378.784,539.456 372.376,478.76 362.368,476.96 369.64,443.624 372.376,415.904 356.464,415.4 352.792,407.624 348.256,387.104 343.216,382.568 341.344,376.592 303.04,320 298.576,289.472 298.576,341.456 306.712,448.232 306.712,519.368 307.144,524.912 308.08,527.648 308.944,529.448 310.312,530.816 312.184,531.752 312.184,536.72 295.84,553.64 280.288,553.208 279.856,455.504 267.544,383 263.872,383.504 263.44,571.856 249.688,573.728 "
   id="polygon6" />
</g>
</svg>