<?xml version="1.0" encoding="UTF-8" standalone="no"?>
<svg
   xmlns:dc="http://purl.org/dc/elements/1.1/"
   xmlns:cc="http://creativecommons.org/ns#"
   xmlns:rdf="http://www.w3.org/1999/02/22-rdf-syntax-ns#"
   xmlns:svg="http://www.w3.org/2000/svg"
   xmlns="http://www.w3.org/2000/svg"
   height="341.35001"
   width="341.35001"
   xml:space="preserve"
   viewBox="0 0 341.35001 341.35001"
   y="0px"
   x="0px"
   id="Layer_1"
   version="1.1"><metadata
   id="metadata33"><rdf:RDF><cc:Work
       rdf:about=""><dc:format>image/svg+xml</dc:format><dc:type
         rdf:resource="http://purl.org/dc/dcmitype/StillImage" /></cc:Work></rdf:RDF></metadata><defs
   id="defs31" />
<style
   id="style2"
   type="text/css">
	.st0{fill-rule:evenodd;clip-rule:evenodd;fill:#007AC2;stroke:#0079C1;stroke-width:0.5;stroke-miterlimit:10;}
	.st1{fill-rule:evenodd;clip-rule:evenodd;fill:#FFFFFF;stroke:#0079C1;stroke-width:0.5;stroke-miterlimit:10;}
	.st2{fill-rule:evenodd;clip-rule:evenodd;fill:#007AC2;}
	.st3{fill-rule:evenodd;clip-rule:evenodd;fill:#FFFFFF;}
	.st4{fill-rule:evenodd;clip-rule:evenodd;}
</style>
<g
   transform="translate(-137.69,-219.89)"
   id="g26">
	<rect
   style="clip-rule:evenodd;fill:#007ac2;fill-rule:evenodd;stroke:#0079c1;stroke-width:0.5;stroke-miterlimit:10"
   id="rect4"
   height="340.85001"
   width="340.85001"
   class="st0"
   y="220.14"
   x="137.94" />
	<polygon
   style="clip-rule:evenodd;fill:#ffffff;fill-rule:evenodd;stroke:#0079c1;stroke-width:0.5;stroke-miterlimit:10"
   id="polygon6"
   points="477.57,229.06 476.42,226.18 474.69,224.17 472.67,222.44 470.37,221.29 467.78,220.42 465.18,220.14 151.84,220.14 148.96,220.42 146.3,221.29 143.99,222.44 141.98,224.46 140.25,226.47 139.1,229.06 138.23,231.73 138.23,234.32 138.23,547.38 138.23,550.26 139.1,552.85 140.54,555.15 142.26,557.46 144.57,558.9 147.16,560.05 149.82,560.98 152.7,560.98 463.46,560.98 466.34,560.62 469.22,559.76 471.81,558.61 473.82,556.88 475.84,554.58 477.28,551.98 478.14,550.26 478.43,547.95 478.79,234.03 478.43,231.44 "
   class="st1" />
	<polygon
   style="clip-rule:evenodd;fill:#007ac2;fill-rule:evenodd"
   id="polygon8"
   points="470.37,231.15 469.22,229.35 467.49,228.49 465.76,227.91 153.57,227.91 151.55,227.91 149.82,228.78 148.38,229.64 146.87,231.15 146.3,232.88 145.72,234.61 145.72,545.36 146.01,547.38 146.87,549.1 148.02,550.83 149.54,551.98 151.55,552.85 153.57,553.42 463.74,553.42 465.76,553.14 467.78,552.27 469.22,550.83 470.37,549.39 471.23,547.38 471.52,545.36 471.52,234.61 471.23,232.88 "
   class="st2" />
	<polygon
   style="clip-rule:evenodd;fill:#ffffff;fill-rule:evenodd"
   id="polygon10"
   points="146.3,509.29 470.94,509.29 308.51,227.62 "
   class="st3" />
	<g
   id="g24">
		<polygon
   style="clip-rule:evenodd;fill-rule:evenodd"
   id="polygon12"
   points="388.72,455.58 407.73,500.07 436.31,500.07 410.9,455.58 "
   class="st4" />
		<polygon
   style="clip-rule:evenodd;fill-rule:evenodd"
   id="polygon14"
   points="355.24,488.19 346.89,476.38 350.92,500.07 379.14,500.07 372.52,478.69 "
   class="st4" />
		<polygon
   style="clip-rule:evenodd;fill-rule:evenodd"
   id="polygon16"
   points="297.28,455.58 294.4,500.07 322.34,500.07 320.32,455.58 "
   class="st4" />
		<polygon
   style="clip-rule:evenodd;fill-rule:evenodd"
   id="polygon18"
   points="273.3,455.58 254.3,473.22 254.58,474.37 261.21,476.38 264.38,486.18 242.13,486.75 237.81,500.07 265.82,500.07 274.74,455.58 "
   class="st4" />
		<polygon
   style="clip-rule:evenodd;fill-rule:evenodd"
   id="polygon20"
   points="206.63,455.58 180.93,500.07 208.94,500.07 229.46,455.58 "
   class="st4" />
		<polygon
   style="clip-rule:evenodd;fill-rule:evenodd"
   id="polygon22"
   points="382.1,469.18 356.1,484.16 304.19,408.92 285.18,440.6 251.13,472.35 251.7,476.96 258.04,478.69 260.06,483.3 246.16,483.87 234.64,466.59 267.26,428.14 284.32,392.14 283.46,390.42 282.88,388.4 282.88,384.37 283.46,381.49 285.76,374.58 287.49,367.09 288.06,345.7 279.06,358.09 274.74,386.67 273.88,388.98 271.86,390.7 269.27,391.28 266.97,390.42 265.24,388.4 264.95,387.25 265.53,378.9 263.8,378.32 267.26,348.58 282.59,321.73 291.52,316.26 295.84,313.95 299.01,311.65 300.16,307.9 300.45,305.31 299.87,301.28 299.3,297.25 299.01,292.86 299.01,288.82 300.16,285.08 302.75,282.2 307.07,280.18 311.39,279.61 316.07,280.18 319.17,281.91 322.05,283.64 322.91,286.52 323.2,289.4 323.2,292.28 322.91,294.01 323.2,296.96 322.91,300.99 321.76,306.18 320.61,308.77 314.34,309.92 313.41,314.53 325.5,324.61 329.54,350.89 352.94,370.54 354.66,372.85 354.95,375.73 353.51,378.03 351.21,379.76 348.33,379.76 341.34,375.15 340.19,376.59 322.34,362.41 318.59,356.65 316.07,381.2 366.18,467.74 376.84,465.15 "
   class="st4" />
	</g>
</g>
</svg>