<?xml version="1.0" encoding="UTF-8" standalone="no"?>
<svg
   xmlns:dc="http://purl.org/dc/elements/1.1/"
   xmlns:cc="http://creativecommons.org/ns#"
   xmlns:rdf="http://www.w3.org/1999/02/22-rdf-syntax-ns#"
   xmlns:svg="http://www.w3.org/2000/svg"
   xmlns="http://www.w3.org/2000/svg"
   xml:space="preserve"
   enable-background="new 0 0 595.28 841.89"
   viewBox="0 0 496.06397 495.92199"
   height="495.922"
   width="496.064"
   y="0px"
   x="0px"
   id="Layer_1"
   version="1.0"><metadata
   id="metadata49"><rdf:RDF><cc:Work
       rdf:about=""><dc:format>image/svg+xml</dc:format><dc:type
         rdf:resource="http://purl.org/dc/dcmitype/StillImage" /></cc:Work></rdf:RDF></metadata><defs
   id="defs47" />
<g
   transform="translate(-49.608,-172.98399)"
   id="LWPOLYLINE_193_">
	<rect
   style="fill:#3d5aa9"
   id="rect2"
   height="495.922"
   width="496.06299"
   y="172.98399"
   x="49.608002" />
</g>
<g
   transform="translate(-49.608,-172.98399)"
   id="LWPOLYLINE_194_">
	<path
   style="fill:#ffffff"
   id="path5"
   d="m 74.404,668.906 h 446.35 c 13.673,0 24.918,-11.125 24.918,-24.797 V 197.78 c 0,-13.693 -11.245,-24.796 -24.918,-24.796 H 74.404 c -13.692,0 -24.796,11.104 -24.796,24.796 v 446.329 c 0,13.672 11.104,24.797 24.796,24.797 z" />
</g>
<g
   transform="translate(-49.608,-172.98399)"
   id="LWPOLYLINE_195_">
	<path
   style="fill:#3d5aa9"
   id="path8"
   d="m 74.404,656.486 h 446.35 c 6.796,0 12.54,-5.582 12.54,-12.377 V 197.78 c 0,-6.856 -5.744,-12.418 -12.54,-12.418 H 74.404 c -6.876,0 -12.418,5.562 -12.418,12.418 v 446.329 c 0,6.795 5.542,12.377 12.418,12.377 z" />
</g>
<g
   transform="translate(-49.608,-172.98399)"
   id="LWPOLYLINE_196_">
	<rect
   style="fill:#ffffff"
   id="rect11"
   height="124.061"
   width="314.09799"
   y="495.25201"
   x="140.60201" />
</g>
<g
   transform="translate(-49.608,-172.98399)"
   id="LWPOLYLINE_197_">
	<path
   style="fill:#ffffff"
   id="path14"
   d="M 140.602,420.945 V 222.536 h 90.933 c 31.936,0 57.904,25.949 57.904,57.885 0,31.936 -25.969,57.884 -57.904,57.884 h -53.779 v 82.64 z" />
</g>
<g
   transform="translate(-49.608,-172.98399)"
   id="LWPOLYLINE_198_">
	<polygon
   style="fill:#ffffff"
   id="polygon17"
   points="423.754,292.798 423.754,323.783 454.699,323.783 454.699,344.494 423.754,344.494 423.754,375.479 403.044,375.479 403.044,344.494 372.059,344.494 372.059,323.783 403.044,323.783 403.044,292.798 " />
</g>
<g
   transform="translate(-49.608,-172.98399)"
   id="LWPOLYLINE_199_">
	<path
   style="fill:#3d5aa9"
   id="path20"
   d="m 177.755,259.689 h 53.779 c 11.427,0 20.73,9.304 20.73,20.731 0,11.427 -9.304,20.65 -20.73,20.65 h -53.779 z" />
</g>
<g
   transform="translate(-49.608,-172.98399)"
   id="LWPOLYLINE_200_">
	<polygon
   id="polygon23"
   points="206.758,590.391 216.688,590.391 216.688,524.215 205.464,524.215 190.133,561.955 174.964,524.215 163.719,524.215 163.719,590.391 173.649,590.391 173.649,547.352 190.133,590.391 206.758,547.352 " />
</g>
<g
   transform="translate(-49.608,-172.98399)"
   id="LWPOLYLINE_201_">
	<polygon
   id="polygon26"
   points="273.097,580.441 246.723,580.441 246.723,560.619 264.643,560.619 264.643,550.67 246.723,550.67 246.723,534.166 273.097,534.166 273.097,524.215 236.772,524.215 236.772,590.391 273.097,590.391 " />
</g>
<g
   transform="translate(-49.608,-172.98399)"
   id="LWPOLYLINE_202_">
	<polygon
   id="polygon29"
   points="326.431,534.166 309.785,534.166 309.785,590.391 299.996,590.391 299.996,534.166 283.411,534.166 283.411,524.215 326.431,524.215 " />
</g>
<g
   transform="translate(-49.608,-172.98399)"
   id="LWPOLYLINE_203_">
	<path
   id="path32"
   d="m 345.988,560.619 v 29.771 h -9.971 v -66.176 h 22.854 c 9.304,0 16.787,7.604 16.787,16.826 v 2.752 c 0,7.037 -4.409,13.43 -11.124,15.775 l 11.124,30.822 h -10.639 l -10.72,-29.771 h -8.311 z" />
</g>
<g
   transform="translate(-49.608,-172.98399)"
   id="LWPOLYLINE_204_">
	<path
   id="path35"
   d="m 432.896,568.871 v -23.137 c 0,-11.813 -9.628,-21.52 -21.52,-21.52 -11.893,0 -21.52,9.707 -21.52,21.52 v 23.137 c 0,11.893 9.627,21.52 21.52,21.52 11.893,0 21.52,-9.627 21.52,-21.52 z" />
</g>
<g
   transform="translate(-49.608,-172.98399)"
   id="LWPOLYLINE_205_">
	<path
   style="fill:#ffffff"
   id="path38"
   d="m 345.988,550.67 h 12.884 c 3.722,0 6.876,-3.074 6.876,-6.877 v -2.752 c 0,-3.801 -3.154,-6.875 -6.876,-6.875 h -12.884 z" />
</g>
<g
   transform="translate(-49.608,-172.98399)"
   id="LWPOLYLINE_206_">
	<path
   style="fill:#ffffff"
   id="path41"
   d="m 422.945,568.871 v -23.137 c 0,-6.391 -5.259,-11.568 -11.568,-11.568 -6.392,0 -11.609,5.178 -11.609,11.568 v 23.137 c 0,6.393 5.218,11.57 11.609,11.57 6.31,0 11.568,-5.177 11.568,-11.57 z" />
</g>
</svg>