<?xml version="1.0" encoding="UTF-8"?>
<svg id="Layer_1" data-name="Layer 1" xmlns="http://www.w3.org/2000/svg" version="1.1" xmlns:cc="http://creativecommons.org/ns#" xmlns:dc="http://purl.org/dc/elements/1.1/" xmlns:rdf="http://www.w3.org/1999/02/22-rdf-syntax-ns#" xmlns:svg="http://www.w3.org/2000/svg" viewBox="0 0 496.1 495.9">
  <defs>
    <style>
      .cls-1 {
        fill: #000;
      }

      .cls-1, .cls-2, .cls-3 {
        stroke-width: 0px;
      }

      .cls-2 {
        fill: #fff;
      }

      .cls-3 {
        fill: #0079c1;
      }
    </style>
  </defs>
  <g id="LWPOLYLINE">
    <rect id="rect2" class="cls-3" x="0" y="0" width="496.1" height="495.9"/>
  </g>
  <g id="LWPOLYLINE-2" data-name="LWPOLYLINE">
    <path id="path5" class="cls-2" d="M24.8,495.9h446.4c13.7,0,24.9-11.1,24.9-24.8V24.8C496.1,11.1,484.8,0,471.1,0H24.8C11.1,0,0,11.1,0,24.8v446.3C0,484.8,11.1,495.9,24.8,495.9Z"/>
  </g>
  <g id="LWPOLYLINE-3" data-name="LWPOLYLINE">
    <path id="path8" class="cls-3" d="M24.8,483.5h446.4c6.8,0,12.5-5.6,12.5-12.4V24.8c0-6.9-5.7-12.4-12.5-12.4H24.8c-6.9,0-12.4,5.6-12.4,12.4v446.3c0,6.8,5.5,12.4,12.4,12.4Z"/>
  </g>
  <g id="LWPOLYLINE-4" data-name="LWPOLYLINE">
    <rect id="rect11" class="cls-2" x="91" y="322.3" width="314.1" height="124.1"/>
  </g>
  <g id="LWPOLYLINE-5" data-name="LWPOLYLINE">
    <path id="path14" class="cls-2" d="M91,248V49.6h90.9c31.9,0,57.9,25.9,57.9,57.9s-26,57.9-57.9,57.9h-53.8v82.6h-37.2Z"/>
  </g>
  <g id="LWPOLYLINE-6" data-name="LWPOLYLINE">
    <polygon id="polygon17" class="cls-2" points="374.1 119.8 374.1 150.8 405.1 150.8 405.1 171.5 374.1 171.5 374.1 202.5 353.4 202.5 353.4 171.5 322.5 171.5 322.5 150.8 353.4 150.8 353.4 119.8 374.1 119.8"/>
  </g>
  <g id="LWPOLYLINE-7" data-name="LWPOLYLINE">
    <path id="path20" class="cls-3" d="M128.1,86.7h53.8c11.4,0,20.7,9.3,20.7,20.7s-9.3,20.6-20.7,20.6h-53.8v-41.4Z"/>
  </g>
  <g id="LWPOLYLINE-8" data-name="LWPOLYLINE">
    <polygon id="polygon23" class="cls-1" points="157.2 417.4 167.1 417.4 167.1 351.2 155.9 351.2 140.5 389 125.4 351.2 114.1 351.2 114.1 417.4 124 417.4 124 374.4 140.5 417.4 157.2 374.4 157.2 417.4"/>
  </g>
  <g id="LWPOLYLINE-9" data-name="LWPOLYLINE">
    <polygon id="polygon26" class="cls-1" points="223.5 407.5 197.1 407.5 197.1 387.6 215 387.6 215 377.7 197.1 377.7 197.1 361.2 223.5 361.2 223.5 351.2 187.2 351.2 187.2 417.4 223.5 417.4 223.5 407.5"/>
  </g>
  <g id="LWPOLYLINE-10" data-name="LWPOLYLINE">
    <polygon id="polygon29" class="cls-1" points="276.8 361.2 260.2 361.2 260.2 417.4 250.4 417.4 250.4 361.2 233.8 361.2 233.8 351.2 276.8 351.2 276.8 361.2"/>
  </g>
  <g id="LWPOLYLINE-11" data-name="LWPOLYLINE">
    <path id="path32" class="cls-1" d="M296.4,387.6v29.8h-10v-66.2h22.9c9.3,0,16.8,7.6,16.8,16.8v2.8c0,7-4.4,13.4-11.1,15.8l11.1,30.8h-10.6l-10.7-29.8h-8.3,0Z"/>
  </g>
  <g id="LWPOLYLINE-12" data-name="LWPOLYLINE">
    <path id="path35" class="cls-1" d="M383.3,395.9v-23.1c0-11.8-9.6-21.5-21.5-21.5s-21.5,9.7-21.5,21.5v23.1c0,11.9,9.6,21.5,21.5,21.5s21.5-9.6,21.5-21.5Z"/>
  </g>
  <g id="LWPOLYLINE-13" data-name="LWPOLYLINE">
    <path id="path38" class="cls-2" d="M296.4,377.7h12.9c3.7,0,6.9-3.1,6.9-6.9v-2.8c0-3.8-3.2-6.9-6.9-6.9h-12.9v16.5Z"/>
  </g>
  <g id="LWPOLYLINE-14" data-name="LWPOLYLINE">
    <path id="path41" class="cls-2" d="M373.3,395.9v-23.1c0-6.4-5.3-11.6-11.6-11.6s-11.6,5.2-11.6,11.6v23.1c0,6.4,5.2,11.6,11.6,11.6s11.6-5.2,11.6-11.6Z"/>
  </g>
</svg>