<?xml version="1.0" encoding="UTF-8"?>
<svg id="Layer_1" data-name="Layer 1" xmlns="http://www.w3.org/2000/svg" version="1.1" viewBox="0 0 425.2 425.2">
  <defs>
    <style>
      .cls-1, .cls-2 {
        fill: #007ac2;
      }

      .cls-1, .cls-3 {
        stroke-width: 0px;
      }

      .cls-2 {
        stroke: #fff;
        stroke-miterlimit: 10;
        stroke-width: .5px;
      }

      .cls-3 {
        fill: #fff;
      }
    </style>
  </defs>
  <g id="LWPOLYLINE">
    <rect class="cls-2" x=".5" y=".5" width="426.2" height="423.2"/>
  </g>
  <g id="LWPOLYLINE-2">
    <path class="cls-3" d="M425.7,395.5V28.7c0-15.6-12.6-28.2-28.3-28.2H28.9C13.3.5.6,13.1.6,28.7v366.8c0,15.6,12.6,28.2,28.3,28.2h368.5c15.6,0,28.3-12.6,28.3-28.2Z"/>
  </g>
  <g id="LWPOLYLINE-3">
    <path class="cls-1" d="M412.5,395.5V28.7c0-7.8-6.4-14.1-14.2-14.1H28.9c-7.8,0-14.2,6.3-14.2,14.1v366.8c0,7.8,6.4,14.1,14.2,14.1h369.4c7.8,0,14.2-6.3,14.2-14.1Z"/>
  </g>
  <g id="LWPOLYLINE-4">
    <rect class="cls-3" x="227.8" y="205.1" width="127.9" height="70.5"/>
  </g>
  <g id="LWPOLYLINE-5">
    <rect class="cls-3" x="71.5" y="205.1" width="127.9" height="70.5"/>
  </g>
  <g id="LWPOLYLINE-6">
    <rect class="cls-3" x="43.1" y="148.6" width="341" height="28.2"/>
  </g>
</svg>