<?xml version="1.0" encoding="UTF-8"?>
<svg id="Layer_1" data-name="Layer 1" xmlns="http://www.w3.org/2000/svg" version="1.1" viewBox="0 0 425.2 425.2">
  <defs>
    <style>
      .cls-1, .cls-2 {
        fill: #007ac2;
      }

      .cls-1, .cls-3 {
        stroke-width: 0px;
      }

      .cls-2 {
        stroke: #fff;
        stroke-miterlimit: 10;
        stroke-width: .5px;
      }

      .cls-3 {
        fill: #fff;
      }
    </style>
  </defs>
  <g id="LWPOLYLINE">
    <rect class="cls-2" x="2" y="-1" width="423.2" height="426.2"/>
  </g>
  <g id="LWPOLYLINE-2" data-name="LWPOLYLINE">
    <path class="cls-3" d="M2,28.3v368.5c0,15.7,12.6,28.3,28.2,28.3h366.8c15.6,0,28.2-12.7,28.2-28.3V28.3c0-15.7-12.6-28.3-28.2-28.3H30.2C14.6,0,2,12.7,2,28.3Z"/>
  </g>
  <g id="LWPOLYLINE-3" data-name="LWPOLYLINE">
    <path class="cls-1" d="M16.1,27.4v369.4c0,7.8,6.3,14.2,14.1,14.2h366.8c7.8,0,14.1-6.4,14.1-14.2V27.4c0-7.8-6.3-14.2-14.1-14.2H30.2c-7.8,0-14.1,6.4-14.1,14.2Z"/>
  </g>
  <g id="LWPOLYLINE-4" data-name="LWPOLYLINE">
    <rect class="cls-3" x="150.1" y="70" width="70.5" height="127.9"/>
  </g>
  <g id="LWPOLYLINE-5" data-name="LWPOLYLINE">
    <rect class="cls-3" x="150.1" y="226.3" width="70.5" height="127.9"/>
  </g>
  <g id="LWPOLYLINE-6" data-name="LWPOLYLINE">
    <rect class="cls-3" x="248.9" y="41.6" width="28.2" height="341"/>
  </g>
</svg>