<?xml version="1.0" encoding="UTF-8"?>
<svg id="Layer_1" data-name="Layer 1" xmlns="http://www.w3.org/2000/svg" version="1.1" xmlns:cc="http://creativecommons.org/ns#" xmlns:dc="http://purl.org/dc/elements/1.1/" xmlns:rdf="http://www.w3.org/1999/02/22-rdf-syntax-ns#" xmlns:svg="http://www.w3.org/2000/svg" viewBox="0 0 342 342.3">
  <defs>
    <style>
      .cls-1, .cls-2, .cls-3, .cls-4 {
        stroke-width: 0px;
      }

      .cls-1, .cls-3 {
        fill: #007ac2;
      }

      .cls-2, .cls-3 {
        fill-rule: evenodd;
      }

      .cls-2, .cls-4 {
        fill: #fff;
      }

      .cls-5 {
        fill: none;
        stroke: #0079c1;
        stroke-miterlimit: 10;
        stroke-width: 1px;
      }
    </style>
  </defs>
  <g id="g18">
    <rect id="rect2" class="cls-1" x=".2" y=".5" width="341" height="341.3"/>
    <polygon id="polygon4" class="cls-2" points="341.2 11.4 341.5 14.3 341.2 328.5 340.6 330.8 340.1 332.9 338.6 335.4 336.6 337.5 334.3 339.2 331.7 340.6 328.8 341.5 325.9 341.8 14.7 341.8 12.1 341.5 9.1 340.9 6.8 339.8 4.5 338 2.8 336 1.4 333.7 .5 330.8 .2 328.2 .2 14.6 .2 11.7 1.1 9.1 2.2 6.8 4 4.5 6 2.8 8.6 1.4 11.2 .8 13.8 .5 327.7 .5 330.3 .8 332.9 1.4 335.4 2.8 337.5 4.5 339.2 6.5 340.3 9.1 341.2 11.4"/>
    <polygon id="polygon6" class="cls-3" points="333.7 12.9 334 14.9 334 326.2 333.7 328.2 333.1 329.9 332 331.7 330.3 333.1 328.5 333.7 326.2 334 15.5 334 13.5 333.7 11.8 332.9 10 331.7 8.9 329.9 8.3 327.9 8 326.2 8 14.9 8.3 13.2 9.1 11.4 10.3 10 11.8 8.9 13.8 8.3 15.5 8 328.2 8 330.3 8.6 331.7 9.7 332.9 11.2 333.7 12.9"/>
    <rect id="rect8" class="cls-5" x=".2" y=".5" width="341" height="341.3"/>
    <rect id="rect10" class="cls-4" x="142.7" y="58" width="102.5" height="57"/>
    <rect id="rect12" class="cls-4" x="142.7" y="143.6" width="102.5" height="56.9"/>
    <rect id="rect14" class="cls-4" x="142.7" y="230.5" width="102.5" height="57"/>
    <rect id="rect16" class="cls-4" x="97.3" y="35.1" width="22.8" height="273.1"/>
  </g>
</svg>