<?xml version="1.0" encoding="UTF-8"?>
<svg id="Layer_1" data-name="Layer 1" xmlns="http://www.w3.org/2000/svg" version="1.1" xmlns:cc="http://creativecommons.org/ns#" xmlns:dc="http://purl.org/dc/elements/1.1/" xmlns:rdf="http://www.w3.org/1999/02/22-rdf-syntax-ns#" xmlns:svg="http://www.w3.org/2000/svg" viewBox="0 0 341.1 341.5">
  <defs>
    <style>
      .cls-1, .cls-2 {
        fill-rule: evenodd;
      }

      .cls-1, .cls-2, .cls-3, .cls-4 {
        stroke-width: 0px;
      }

      .cls-1, .cls-3 {
        fill: #fff;
      }

      .cls-2, .cls-4 {
        fill: #0079c1;
      }

      .cls-5 {
        fill: none;
        stroke: #0079c1;
        stroke-miterlimit: 10;
        stroke-width: 1px;
      }
    </style>
  </defs>
  <g id="g18">
    <rect id="rect2" class="cls-4" x=".1" y=".5" width="340.1" height="340.5"/>
    <polygon id="polygon4" class="cls-1" points="340.3 11.4 340.6 14.3 340.3 327.7 340 330 339.1 332 337.7 334.6 335.7 336.6 333.4 338.3 330.8 339.8 327.9 340.6 325.3 341 14.5 341 11.9 340.6 9.1 340.1 6.8 338.9 4.5 337.2 2.7 335.2 1.3 332.9 .4 330 .1 327.4 .1 14.6 .4 11.7 1 9.1 2.2 6.8 3.9 4.5 6.2 2.8 8.5 1.4 11.1 .8 13.7 .5 326.7 .5 329.6 .8 332.2 1.4 334.5 2.8 336.5 4.5 338.3 6.5 339.4 9.1 340.3 11.4"/>
    <polygon id="polygon6" class="cls-2" points="332.8 12.9 333.1 14.9 333.1 325.4 333.1 327.4 332.2 329.1 331.1 330.8 329.3 332.3 327.6 332.9 325.6 333.1 15.4 333.1 13.4 332.9 11.7 332 9.9 330.8 8.8 329.1 8.2 327.1 7.9 325.4 7.9 14.9 8.2 13.2 9.1 11.4 10.2 10 11.9 8.9 13.7 8.3 15.4 8 327.3 8 329.3 8.6 330.8 9.7 332.2 11.2 332.8 12.9"/>
    <rect id="rect8" class="cls-5" x=".1" y=".5" width="340.1" height="340.5"/>
    <polygon id="polygon10" class="cls-1" points="170.5 122.2 258.7 173.4 230.5 222.5 142 171.4 170.5 122.2"/>
    <polygon id="polygon12" class="cls-1" points="169.1 207.7 257.5 258.8 229 307.8 140.5 256.7 169.1 207.7"/>
    <rect id="rect14" class="cls-3" x="96.8" y="35.1" width="22.5" height="272.4"/>
    <polygon id="polygon16" class="cls-1" points="170.5 36.9 258.7 87.9 230.5 137.2 142 86.2 170.5 36.9"/>
  </g>
</svg>