<?xml version="1.0" encoding="utf-8"?>
<!-- Generator: Adobe Illustrator 28.0.0, SVG Export Plug-In . SVG Version: 6.00 Build 0)  -->
<svg version="1.1" id="Layer_1" xmlns="http://www.w3.org/2000/svg" xmlns:xlink="http://www.w3.org/1999/xlink" x="0px" y="0px"
	 viewBox="0 0 425.2 425.2" style="enable-background:new 0 0 425.2 425.2;" xml:space="preserve">
<style type="text/css">
	.st0{fill:#005EB8;stroke:#005EB8;stroke-width:0.5;stroke-miterlimit:10;}
	.st1{fill:#FFFFFF;}
	.st2{fill:#005EB8;}
</style>
<g id="LWPOLYLINE_3_">
	<rect x="14.17" y="14.17" class="st0" width="396.85" height="396.85"/>
</g>
<g id="LWPOLYLINE_5_">
	<path class="st1" d="M411.02,384.57V40.63c0-14.61-11.85-26.46-26.46-26.46H40.63c-14.61,0-26.46,11.85-26.46,26.46v343.94
		c0,14.61,11.84,26.46,26.46,26.46h343.94C399.18,411.02,411.02,399.18,411.02,384.57z"/>
</g>
<g id="LWPOLYLINE_6_">
	<path class="st2" d="M397.79,384.57V40.63c0-7.31-5.92-13.23-13.23-13.23H40.63c-7.31,0-13.23,5.92-13.23,13.23v343.94
		c0,7.3,5.92,13.23,13.23,13.23h343.94C391.87,397.79,397.79,391.87,397.79,384.57z"/>
</g>
<g id="LWPOLYLINE_12_">
	
		<rect x="144.51" y="251.38" transform="matrix(0.5 -0.866 0.866 0.5 -180.4618 309.2394)" class="st1" width="66.14" height="119.06"/>
</g>
<g id="LWPOLYLINE_13_">
	
		<rect x="144.2" y="151.99" transform="matrix(0.5 -0.866 0.866 0.5 -94.5416 259.2796)" class="st1" width="66.14" height="119.05"/>
</g>
<g id="LWPOLYLINE_14_">
	
		<rect x="144.51" y="52.95" transform="matrix(0.5 -0.866 0.866 0.5 -8.6211 210.0255)" class="st1" width="66.14" height="119.06"/>
</g>
<g id="LWPOLYLINE_15_">
	<rect x="272.12" y="53.86" class="st1" width="26.46" height="317.48"/>
</g>
</svg>
