<?xml version="1.0" encoding="utf-8"?>
<!-- Generator: Adobe Illustrator 28.0.0, SVG Export Plug-In . SVG Version: 6.00 Build 0)  -->
<svg version="1.1" id="Layer_1" xmlns="http://www.w3.org/2000/svg" xmlns:xlink="http://www.w3.org/1999/xlink" x="0px" y="0px"
	 viewBox="0 0 425.2 425.2" style="enable-background:new 0 0 425.2 425.2;" xml:space="preserve">
<style type="text/css">
	.st0{fill:#005EB8;stroke:#005EB8;stroke-width:0.5;stroke-miterlimit:10;}
	.st1{fill:#FFFFFF;}
	.st2{fill:#005EB8;}
</style>
<g id="LWPOLYLINE_3_">
	<rect x="14.17" y="14.17" class="st0" width="396.85" height="396.85"/>
</g>
<g id="LWPOLYLINE_5_">
	<path class="st1" d="M14.17,384.57V40.63c0-14.61,11.85-26.46,26.46-26.46h343.94c14.61,0,26.46,11.85,26.46,26.46v343.94
		c0,14.61-11.84,26.46-26.46,26.46H40.63C26.02,411.02,14.17,399.18,14.17,384.57z"/>
</g>
<g id="LWPOLYLINE_6_">
	<path class="st2" d="M27.4,384.57V40.63c0-7.31,5.92-13.23,13.23-13.23h343.94c7.31,0,13.23,5.92,13.23,13.23v343.94
		c0,7.3-5.92,13.23-13.23,13.23H40.63C33.33,397.79,27.4,391.87,27.4,384.57z"/>
</g>
<g id="LWPOLYLINE_12_">
	
		<rect x="188.09" y="277.83" transform="matrix(0.866 -0.5 0.5 0.866 -122.2774 165.4628)" class="st1" width="119.06" height="66.14"/>
</g>
<g id="LWPOLYLINE_13_">
	
		<rect x="188.4" y="178.44" transform="matrix(0.866 -0.5 0.5 0.866 -72.5428 152.3017)" class="st1" width="119.05" height="66.14"/>
</g>
<g id="LWPOLYLINE_14_">
	
		<rect x="188.09" y="79.41" transform="matrix(0.866 -0.5 0.5 0.866 -23.0646 138.8806)" class="st1" width="119.06" height="66.14"/>
</g>
<g id="LWPOLYLINE_15_">
	<rect x="126.62" y="53.86" class="st1" width="26.46" height="317.48"/>
</g>
</svg>
