<?xml version="1.0" encoding="UTF-8" standalone="no"?>
<svg
   xmlns:dc="http://purl.org/dc/elements/1.1/"
   xmlns:cc="http://creativecommons.org/ns#"
   xmlns:rdf="http://www.w3.org/1999/02/22-rdf-syntax-ns#"
   xmlns:svg="http://www.w3.org/2000/svg"
   xmlns="http://www.w3.org/2000/svg"
   xml:space="preserve"
   viewBox="0 0 341.12979 341.48981"
   height="341.48981"
   width="341.12979"
   y="0px"
   x="0px"
   id="Layer_1"
   version="1.1"><metadata
   id="metadata25"><rdf:RDF><cc:Work
       rdf:about=""><dc:format>image/svg+xml</dc:format><dc:type
         rdf:resource="http://purl.org/dc/dcmitype/StillImage" /></cc:Work></rdf:RDF></metadata><defs
   id="defs23" />
<g
   transform="translate(-123.7631,-262.76311)"
   id="g18">
	<rect
   id="rect2"
   height="340.48801"
   width="340.12799"
   style="clip-rule:evenodd;fill:#0079c1;fill-rule:evenodd"
   y="263.26401"
   x="124.264" />
	<polygon
   id="polygon4"
   points="125.128,271.904 126.28,269.312 128.008,267.296 130.024,265.568 132.328,264.128 134.92,263.552 137.8,263.264 450.856,263.264 453.448,263.552 456.04,264.128 458.344,265.568 460.648,267.296 462.376,269.6 463.528,271.904 464.104,274.496 464.392,277.376 464.392,590.144 464.104,592.736 463.24,595.616 461.8,597.92 460.072,599.936 457.768,601.664 455.464,602.816 452.584,603.392 449.992,603.752 139.24,603.752 136.648,603.392 133.768,602.528 131.176,601.088 128.872,599.36 126.856,597.344 125.416,594.752 124.552,592.736 124.264,590.432 123.904,277.088 124.264,274.208 "
   style="clip-rule:evenodd;fill:#ffffff;fill-rule:evenodd" />
	<polygon
   id="polygon6"
   points="132.328,273.92 133.768,272.48 135.208,271.328 137.224,270.752 449.128,270.752 450.856,271.04 452.584,271.616 454.312,272.768 455.464,274.208 456.328,275.936 456.616,277.664 456.616,588.128 456.328,589.856 455.752,591.872 454.6,593.6 452.872,594.752 451.144,595.616 449.128,595.904 138.952,595.904 136.936,595.616 135.208,595.04 133.48,593.6 132.328,591.872 131.464,590.144 131.464,588.128 131.464,277.664 131.752,275.648 "
   style="clip-rule:evenodd;fill:#0079c1;fill-rule:evenodd" />
	
		<rect
   id="rect8"
   height="340.48801"
   width="340.12799"
   style="clip-rule:evenodd;fill:none;fill-rule:evenodd;stroke:#0079c1;stroke-width:1.00179994;stroke-miterlimit:10"
   y="263.26401"
   x="124.264" />
	<polygon
   id="polygon10"
   points="322.552,434.192 234.064,485.24 205.84,436.208 294.04,384.944 "
   style="clip-rule:evenodd;fill:#ffffff;fill-rule:evenodd" />
	<polygon
   id="polygon12"
   points="323.992,519.512 235.504,570.56 206.992,521.528 295.48,470.48 "
   style="clip-rule:evenodd;fill:#ffffff;fill-rule:evenodd" />
	<rect
   id="rect14"
   height="272.37601"
   width="22.464001"
   style="clip-rule:evenodd;fill:#ffffff;fill-rule:evenodd"
   y="297.896"
   x="345.30399" />
	<polygon
   id="polygon16"
   points="322.552,348.944 234.064,399.92 205.84,350.672 294.04,299.624 "
   style="clip-rule:evenodd;fill:#ffffff;fill-rule:evenodd" />
</g>
</svg>