<?xml version="1.0" encoding="UTF-8" standalone="no"?>
<svg
   xmlns:dc="http://purl.org/dc/elements/1.1/"
   xmlns:cc="http://creativecommons.org/ns#"
   xmlns:rdf="http://www.w3.org/1999/02/22-rdf-syntax-ns#"
   xmlns:svg="http://www.w3.org/2000/svg"
   xmlns="http://www.w3.org/2000/svg"
   xml:space="preserve"
   viewBox="0 0 397.34901 397.351"
   height="397.35101"
   width="397.349"
   y="0px"
   x="0px"
   id="Layer_1"
   version="1.1"><metadata
   id="metadata28"><rdf:RDF><cc:Work
       rdf:about=""><dc:format>image/svg+xml</dc:format><dc:type
         rdf:resource="http://purl.org/dc/dcmitype/StillImage" /></cc:Work></rdf:RDF></metadata><defs
   id="defs26" />
<g
   transform="translate(-13.924,-13.923)"
   id="LWPOLYLINE_3_">
	
		<rect
   id="rect2"
   height="396.85101"
   width="396.849"
   style="fill:#005eb8;stroke:#005eb8;stroke-width:0.5;stroke-miterlimit:10"
   y="14.173"
   x="14.174" />
</g>
<g
   transform="translate(-13.924,-13.923)"
   id="LWPOLYLINE_5_">
	<path
   id="path5"
   d="m 14.174,40.629 v 343.938 c 0,14.611 11.846,26.457 26.456,26.457 h 343.938 c 14.613,0 26.455,-11.846 26.455,-26.457 V 40.629 c 0,-14.61 -11.842,-26.456 -26.455,-26.456 H 40.63 c -14.61,0 -26.456,11.846 -26.456,26.456 z"
   style="fill:#ffffff" />
</g>
<g
   transform="translate(-13.924,-13.923)"
   id="LWPOLYLINE_6_">
	<path
   id="path8"
   d="m 27.402,40.629 v 343.938 c 0,7.307 5.925,13.229 13.228,13.229 h 343.938 c 7.311,0 13.227,-5.923 13.227,-13.229 V 40.629 c 0,-7.305 -5.916,-13.228 -13.227,-13.228 H 40.63 c -7.303,0 -13.228,5.923 -13.228,13.228 z"
   style="fill:#005eb8" />
</g>
<g
   transform="translate(-13.924,-13.923)"
   id="LWPOLYLINE_12_">
	<polygon
   id="polygon11"
   points="212.604,55.889 315.708,115.416 282.634,172.695 179.53,113.168 "
   style="fill:#ffffff" />
</g>
<g
   transform="translate(-13.924,-13.923)"
   id="LWPOLYLINE_13_">
	
		<rect
   id="rect14"
   height="66.141998"
   width="119.055"
   style="fill:#ffffff"
   transform="matrix(0.866,0.5,-0.5,0.866,140.0581,-95.3347)"
   y="180.61"
   x="188.396" />
</g>
<g
   transform="translate(-13.924,-13.923)"
   id="LWPOLYLINE_14_">
	<polygon
   id="polygon17"
   points="212.604,254.313 315.708,313.842 282.634,371.121 179.53,311.593 "
   style="fill:#ffffff" />
</g>
<g
   transform="translate(-13.924,-13.923)"
   id="LWPOLYLINE_15_">
	<rect
   id="rect20"
   height="317.479"
   width="26.455999"
   style="fill:#ffffff"
   y="53.859001"
   x="126.618" />
</g>
</svg>