<?xml version="1.0" encoding="UTF-8" standalone="no"?>
<svg
   xmlns:dc="http://purl.org/dc/elements/1.1/"
   xmlns:cc="http://creativecommons.org/ns#"
   xmlns:rdf="http://www.w3.org/1999/02/22-rdf-syntax-ns#"
   xmlns:svg="http://www.w3.org/2000/svg"
   xmlns="http://www.w3.org/2000/svg"
   height="397.35001"
   width="397.35001"
   xml:space="preserve"
   viewBox="0 0 397.34999 397.34999"
   y="0px"
   x="0px"
   id="Layer_1"
   version="1.1"><metadata
   id="metadata27"><rdf:RDF><cc:Work
       rdf:about=""><dc:format>image/svg+xml</dc:format><dc:type
         rdf:resource="http://purl.org/dc/dcmitype/StillImage" /></cc:Work></rdf:RDF></metadata><defs
   id="defs25" />
<style
   id="style2"
   type="text/css">
	.st0{fill:#005EB8;stroke:#005EB8;stroke-width:0.5;stroke-miterlimit:10;}
	.st1{fill:#FFFFFF;}
	.st2{fill:#005EB8;}
</style>
<g
   transform="translate(-13.92,-13.92)"
   id="LWPOLYLINE_47_">
	<rect
   style="fill:#005eb8;stroke:#005eb8;stroke-width:0.5;stroke-miterlimit:10"
   id="rect4"
   height="396.85001"
   width="396.85001"
   class="st0"
   y="14.17"
   x="14.17" />
</g>
<g
   transform="translate(-13.92,-13.92)"
   id="LWPOLYLINE_51_">
	<path
   style="fill:#ffffff"
   id="path7"
   d="M 384.57,411.02 H 40.63 c -14.61,0 -26.46,-11.85 -26.46,-26.45 V 40.63 c 0,-14.61 11.84,-26.45 26.46,-26.45 h 343.94 c 14.61,0 26.46,11.84 26.46,26.45 v 343.94 c -0.01,14.61 -11.85,26.45 -26.46,26.45 z"
   class="st1" />
</g>
<g
   transform="translate(-13.92,-13.92)"
   id="LWPOLYLINE_52_">
	<path
   style="fill:#005eb8"
   id="path10"
   d="M 384.57,397.79 H 40.63 c -7.3,0 -13.23,-5.92 -13.23,-13.22 V 40.63 c 0,-7.3 5.93,-13.22 13.23,-13.22 h 343.94 c 7.31,0 13.23,5.92 13.23,13.22 v 343.94 c 0,7.3 -5.93,13.22 -13.23,13.22 z"
   class="st2" />
</g>
<g
   transform="translate(-13.92,-13.92)"
   id="LWPOLYLINE_50_">
	<rect
   style="fill:#ffffff"
   id="rect13"
   height="26.450001"
   width="317.48001"
   class="st1"
   y="126.62"
   x="53.860001" />
</g>
<g
   transform="translate(-13.92,-13.92)"
   id="LWPOLYLINE_53_">
	
		<rect
   style="fill:#ffffff"
   id="rect16"
   height="119.06"
   width="66.139999"
   class="st1"
   transform="matrix(0.866,-0.5,0.5,0.866,-101.9329,114.8026)"
   y="188.09"
   x="130.19" />
</g>
<g
   transform="translate(-13.92,-13.92)"
   id="LWPOLYLINE_55_">
	
		<rect
   style="fill:#ffffff"
   id="rect19"
   height="119.06"
   width="66.139999"
   class="st1"
   transform="matrix(0.866,-0.5,0.5,0.866,-88.6128,164.5146)"
   y="188.09"
   x="229.62" />
</g>
</svg>