<?xml version="1.0" encoding="UTF-8"?>
<svg id="Layer_1" data-name="Layer 1" xmlns="http://www.w3.org/2000/svg" version="1.1" xmlns:cc="http://creativecommons.org/ns#" xmlns:dc="http://purl.org/dc/elements/1.1/" xmlns:rdf="http://www.w3.org/1999/02/22-rdf-syntax-ns#" xmlns:svg="http://www.w3.org/2000/svg" viewBox="0 0 341.1 341.5">
  <defs>
    <style>
      .cls-1, .cls-2 {
        fill-rule: evenodd;
      }

      .cls-1, .cls-2, .cls-3, .cls-4 {
        stroke-width: 0px;
      }

      .cls-1, .cls-3 {
        fill: #fff;
      }

      .cls-2, .cls-4 {
        fill: #0079c1;
      }

      .cls-5 {
        fill: none;
        stroke: #0079c1;
        stroke-miterlimit: 10;
        stroke-width: 1px;
      }
    </style>
  </defs>
  <g id="g18">
    <rect id="rect2" class="cls-4" x=".1" y=".5" width="340.1" height="340.5"/>
    <polygon id="polygon4" class="cls-1" points="339.4 332.3 338.3 334.9 336.5 337 334.5 338.7 332.2 340.1 329.6 340.7 326.7 341 13.7 341 11.1 340.7 8.5 340.1 6.2 338.7 3.9 337 2.2 334.7 1 332.3 .4 329.8 .1 326.9 .1 14.1 .4 11.5 1.3 8.6 2.7 6.3 4.5 4.3 6.8 2.6 9.1 1.4 11.9 .9 14.5 .5 325.3 .5 327.9 .9 330.8 1.7 333.4 3.2 335.7 4.9 337.7 6.9 339.1 9.5 340 11.5 340.3 13.8 340.6 327.2 340.3 330 339.4 332.3"/>
    <polygon id="polygon6" class="cls-2" points="332.2 330.3 330.8 331.8 329.3 332.9 327.3 333.5 15.4 333.5 13.7 333.2 11.9 332.6 10.2 331.5 9.1 330 8.2 328.3 7.9 326.6 7.9 16.1 8.2 14.4 8.8 12.4 9.9 10.7 11.7 9.5 13.4 8.6 15.4 8.3 325.6 8.3 327.6 8.6 329.3 9.2 331.1 10.7 332.2 12.4 333.1 14.1 333.1 16.1 333.1 326.6 332.8 328.6 332.2 330.3"/>
    <rect id="rect8" class="cls-5" x=".1" y=".5" width="340.1" height="340.5"/>
    <polygon id="polygon10" class="cls-1" points="142 170.1 230.5 119 258.7 168 170.5 219.3 142 170.1"/>
    <polygon id="polygon12" class="cls-1" points="140.5 84.7 229 33.7 257.5 82.7 169.1 133.8 140.5 84.7"/>
    <rect id="rect14" class="cls-3" x="96.8" y="34" width="22.5" height="272.4"/>
    <polygon id="polygon16" class="cls-1" points="142 255.3 230.5 204.3 258.7 253.6 170.5 304.6 142 255.3"/>
  </g>
</svg>