<?xml version="1.0" encoding="UTF-8"?>
<svg id="Layer_1" data-name="Layer 1" xmlns="http://www.w3.org/2000/svg" version="1.1" xmlns:cc="http://creativecommons.org/ns#" xmlns:dc="http://purl.org/dc/elements/1.1/" xmlns:rdf="http://www.w3.org/1999/02/22-rdf-syntax-ns#" xmlns:svg="http://www.w3.org/2000/svg" viewBox="0 0 341.1 341.5">
  <defs>
    <style>
      .cls-1, .cls-2 {
        fill-rule: evenodd;
      }

      .cls-1, .cls-2, .cls-3, .cls-4 {
        stroke-width: 0px;
      }

      .cls-1, .cls-3 {
        fill: #fff;
      }

      .cls-2, .cls-4 {
        fill: #0079c1;
      }

      .cls-5 {
        fill: none;
        stroke: #0079c1;
        stroke-miterlimit: 10;
        stroke-width: 1px;
      }
    </style>
  </defs>
  <g id="g18">
    <rect id="rect2" class="cls-4" x=".5" y=".5" width="340.1" height="340.5"/>
    <polygon id="polygon4" class="cls-1" points=".5 330 .1 327.2 .5 13.8 .8 11.5 1.7 9.5 3.1 6.9 5.1 4.9 7.4 3.2 10 1.7 12.9 .9 15.5 .5 326.2 .5 328.8 .9 331.7 1.4 334 2.6 336.3 4.3 338 6.3 339.5 8.6 340.3 11.5 340.6 14.1 340.6 326.9 340.3 329.8 339.8 332.3 338.6 334.7 336.9 337 334.6 338.7 332.3 340.1 329.7 340.7 327.1 341 14 341 11.2 340.7 8.6 340.1 6.3 338.7 4.2 337 2.5 334.9 1.4 332.3 .5 330"/>
    <polygon id="polygon6" class="cls-2" points="8 328.6 7.7 326.6 7.7 16.1 7.7 14.1 8.6 12.4 9.7 10.7 11.4 9.2 13.2 8.6 15.2 8.3 325.4 8.3 327.4 8.6 329.1 9.5 330.8 10.7 332 12.4 332.6 14.4 332.9 16.1 332.9 326.6 332.6 328.3 331.7 330 330.5 331.5 328.8 332.6 327.1 333.2 325.4 333.5 13.5 333.5 11.4 332.9 10 331.8 8.6 330.3 8 328.6"/>
    <rect id="rect8" class="cls-5" x=".5" y=".5" width="340.1" height="340.5"/>
    <polygon id="polygon10" class="cls-1" points="170.3 219.3 82.1 168 110.3 119 198.8 170.1 170.3 219.3"/>
    <polygon id="polygon12" class="cls-1" points="171.7 133.8 83.2 82.7 111.7 33.7 200.2 84.7 171.7 133.8"/>
    <rect id="rect14" class="cls-3" x="221.5" y="34" width="22.5" height="272.4"/>
    <polygon id="polygon16" class="cls-1" points="170.3 304.6 82.1 253.6 110.3 204.3 198.8 255.3 170.3 304.6"/>
  </g>
</svg>