<?xml version="1.0" encoding="UTF-8"?>
<svg id="Layer_1" data-name="Layer 1" xmlns="http://www.w3.org/2000/svg" version="1.1" viewBox="0 0 425.2 425.2">
  <defs>
    <style>
      .cls-1, .cls-2 {
        fill: #007ac2;
      }

      .cls-1, .cls-3 {
        stroke-width: 0px;
      }

      .cls-2 {
        stroke: #fff;
        stroke-miterlimit: 10;
        stroke-width: .5px;
      }

      .cls-3 {
        fill: #fff;
      }
    </style>
  </defs>
  <g id="LWPOLYLINE">
    <rect class="cls-2" x="0" width="425.2" height="425.2"/>
  </g>
  <g id="LWPOLYLINE-2">
    <path class="cls-3" d="M425.2,28.3v368.6c0,15.6-12.7,28.3-28.3,28.3H28.4c-15.7,0-28.3-12.7-28.3-28.3V28.4c0-15.7,12.7-28.3,28.3-28.3h368.5C412.5,0,425.2,12.7,425.2,28.3Z"/>
  </g>
  <g id="LWPOLYLINE-3">
    <path class="cls-1" d="M411,28.3v368.6c0,7.8-6.4,14.2-14.2,14.2H28.3c-7.8,0-14.2-6.3-14.2-14.2V28.4c0-7.8,6.3-14.2,14.2-14.2h368.6c7.8,0,14.2,6.4,14.2,14.2h-.1Z"/>
  </g>
  <g id="LWPOLYLINE-4">
    <rect class="cls-3" x="254.1" y="214.7" width="127.6" height="70.9" transform="translate(-57.7 400.4) rotate(-60)"/>
  </g>
  <g id="LWPOLYLINE-5">
    <rect class="cls-3" x="147.7" y="215" width="127.5" height="70.9" transform="translate(-111.1 308.4) rotate(-60)"/>
  </g>
  <g id="LWPOLYLINE-6">
    <rect class="cls-3" x="41.5" y="214.7" width="127.6" height="70.9" transform="translate(-164 216.2) rotate(-60)"/>
  </g>
  <g id="LWPOLYLINE-7">
    <rect class="cls-3" x="42.5" y="120.5" width="340.2" height="28.3"/>
  </g>
</svg>