<?xml version="1.0" encoding="UTF-8" standalone="no"?>
<svg
   xmlns:dc="http://purl.org/dc/elements/1.1/"
   xmlns:cc="http://creativecommons.org/ns#"
   xmlns:rdf="http://www.w3.org/1999/02/22-rdf-syntax-ns#"
   xmlns:svg="http://www.w3.org/2000/svg"
   xmlns="http://www.w3.org/2000/svg"
   xml:space="preserve"
   viewBox="0 0 397.34901 397.351"
   height="397.35101"
   width="397.349"
   y="0px"
   x="0px"
   id="Layer_1"
   version="1.1"><metadata
   id="metadata37"><rdf:RDF><cc:Work
       rdf:about=""><dc:format>image/svg+xml</dc:format><dc:type
         rdf:resource="http://purl.org/dc/dcmitype/StillImage" /></cc:Work></rdf:RDF></metadata><defs
   id="defs35" />
<g
   transform="translate(-13.924,-13.923)"
   id="LWPOLYLINE_3_">
	
		<rect
   id="rect2"
   height="396.85101"
   width="396.849"
   style="fill:#005eb8;stroke:#005eb8;stroke-width:0.5;stroke-miterlimit:10"
   y="14.173"
   x="14.174" />
</g>
<g
   transform="translate(-13.924,-13.923)"
   id="LWPOLYLINE_5_">
	<path
   id="path5"
   d="m 14.174,40.629 v 343.938 c 0,14.611 11.846,26.457 26.456,26.457 h 343.938 c 14.613,0 26.455,-11.846 26.455,-26.457 V 40.629 c 0,-14.61 -11.842,-26.456 -26.455,-26.456 H 40.63 c -14.61,0 -26.456,11.846 -26.456,26.456 z"
   style="fill:#ffffff" />
</g>
<g
   transform="translate(-13.924,-13.923)"
   id="LWPOLYLINE_6_">
	<path
   id="path8"
   d="m 27.402,40.629 v 343.938 c 0,7.307 5.925,13.229 13.228,13.229 h 343.938 c 7.311,0 13.227,-5.923 13.227,-13.229 V 40.629 c 0,-7.305 -5.916,-13.228 -13.227,-13.228 H 40.63 c -7.303,0 -13.228,5.923 -13.228,13.228 z"
   style="fill:#005eb8" />
</g>
<g
   transform="translate(-13.924,-13.923)"
   id="LWPOLYLINE_7_">
	
		<rect
   id="rect11"
   height="66.141998"
   width="119.057"
   style="fill:#ffffff"
   transform="matrix(-0.866,0.5,-0.5,-0.866,258.7847,159.2443)"
   y="81.221001"
   x="48.529999" />
</g>
<g
   transform="translate(-13.924,-13.923)"
   id="LWPOLYLINE_8_">
	
		<rect
   id="rect14"
   height="66.141998"
   width="119.057"
   style="fill:#ffffff"
   transform="matrix(-0.866,0.5,-0.5,-0.866,307.9107,344.8585)"
   y="180.61"
   x="48.224998" />
</g>
<g
   transform="translate(-13.924,-13.923)"
   id="LWPOLYLINE_9_">
	
		<rect
   id="rect17"
   height="66.141998"
   width="119.057"
   style="fill:#ffffff"
   transform="matrix(-0.866,0.5,-0.5,-0.866,357.997,529.5103)"
   y="279.646"
   x="48.528999" />
</g>
<g
   transform="translate(-13.924,-13.923)"
   id="LWPOLYLINE_10_">
	<rect
   id="rect20"
   height="317.479"
   width="26.455999"
   style="fill:#ffffff"
   y="53.859001"
   x="199.3" />
</g>
<g
   transform="translate(-13.924,-13.923)"
   id="LWPOLYLINE_11_">
	<polygon
   id="polygon23"
   points="281.972,55.889 385.078,115.416 352.003,172.695 248.898,113.168 "
   style="fill:#ffffff" />
</g>
<g
   transform="translate(-13.924,-13.923)"
   id="LWPOLYLINE_12_">
	<polygon
   id="polygon26"
   points="282.277,155.277 385.382,214.803 352.308,272.085 249.203,212.557 "
   style="fill:#ffffff" />
</g>
<g
   transform="translate(-13.924,-13.923)"
   id="LWPOLYLINE_13_">
	<polygon
   id="polygon29"
   points="281.972,254.313 385.078,313.842 352.003,371.121 248.898,311.593 "
   style="fill:#ffffff" />
</g>
</svg>