<?xml version="1.0" encoding="UTF-8"?>
<svg id="Layer_1" data-name="Layer 1" xmlns="http://www.w3.org/2000/svg" version="1.1" xmlns:cc="http://creativecommons.org/ns#" xmlns:dc="http://purl.org/dc/elements/1.1/" xmlns:rdf="http://www.w3.org/1999/02/22-rdf-syntax-ns#" xmlns:svg="http://www.w3.org/2000/svg" viewBox="0 0 341.7 341.7">
  <defs>
    <style>
      .cls-1, .cls-2, .cls-3, .cls-4 {
        stroke-width: 0px;
      }

      .cls-1, .cls-3 {
        fill: #007ac2;
      }

      .cls-2, .cls-3 {
        fill-rule: evenodd;
      }

      .cls-2, .cls-4 {
        fill: #fff;
      }

      .cls-5 {
        fill: none;
        stroke: #0079c1;
        stroke-miterlimit: 10;
        stroke-width: .8px;
      }
    </style>
  </defs>
  <g id="g24">
    <rect id="rect2" class="cls-1" x=".4" y=".4" width="340.9" height="340.9"/>
    <polygon id="polygon4" class="cls-2" points="9 340.1 6.4 338.9 4.4 337.2 2.7 335.2 1.3 332.9 .7 330.3 .4 327.7 .4 14.2 .7 11.3 1.3 8.8 2.7 6.4 4.4 4.4 6.7 2.7 9 1.6 11.6 .7 14.5 .7 327.7 .7 330.3 .7 333.2 1.6 335.5 3 337.5 4.7 339.2 7 340.4 9.6 341 12.2 341.3 15.1 341.3 326 341 328.9 340.1 331.7 338.7 334.3 336.9 336.4 334.9 338.4 332.3 339.8 330.3 340.7 328 341 14.2 341.3 11.3 341 9 340.1"/>
    <polygon id="polygon6" class="cls-3" points="11.1 332.9 9.6 331.7 8.5 330 7.9 328.3 7.9 16 8.2 13.9 8.8 12.2 9.9 10.8 11.3 9.3 13.1 8.8 14.8 8.2 325.7 8.2 327.4 8.5 329.4 9.3 331.2 10.5 332.3 11.9 333.2 13.9 333.5 16 333.5 326.3 333.2 328.3 332.6 330.3 331.2 331.7 329.4 332.9 327.7 333.8 325.7 334 14.8 334 12.8 333.8 11.1 332.9"/>
    <rect id="rect8" class="cls-5" x=".4" y=".4" width="340.9" height="340.9"/>
    <rect id="rect10" class="cls-4" x="57.3" y="204.4" width="56.9" height="102.5"/>
    <rect id="rect12" class="cls-4" x="142.7" y="204.4" width="56.9" height="102.5"/>
    <rect id="rect14" class="cls-4" x="229.6" y="204.4" width="56.8" height="102.5"/>
    <rect id="rect16" class="cls-4" x="34.5" y="159.2" width="272.7" height="22.8"/>
    <rect id="rect18" class="cls-4" x="57.3" y="35" width="56.9" height="102.2"/>
    <rect id="rect20" class="cls-4" x="142.7" y="35" width="56.9" height="102.2"/>
    <rect id="rect22" class="cls-4" x="229.6" y="35" width="56.8" height="102.2"/>
  </g>
</svg>