<?xml version="1.0" encoding="UTF-8" standalone="no"?>
<svg
   xmlns:dc="http://purl.org/dc/elements/1.1/"
   xmlns:cc="http://creativecommons.org/ns#"
   xmlns:rdf="http://www.w3.org/1999/02/22-rdf-syntax-ns#"
   xmlns:svg="http://www.w3.org/2000/svg"
   xmlns="http://www.w3.org/2000/svg"
   xml:space="preserve"
   viewBox="0 0 341.85001 342.21002"
   height="342.21002"
   width="341.85001"
   y="0px"
   x="0px"
   id="Layer_1"
   version="1.1"><metadata
   id="metadata21"><rdf:RDF><cc:Work
       rdf:about=""><dc:format>image/svg+xml</dc:format><dc:type
         rdf:resource="http://purl.org/dc/dcmitype/StillImage" /></cc:Work></rdf:RDF></metadata><defs
   id="defs19" />
<g
   transform="translate(-124.123,-218.84299)"
   id="g14">
	<rect
   id="rect2"
   height="341.20801"
   width="340.84799"
   style="clip-rule:evenodd;fill:#007ac2;fill-rule:evenodd"
   y="219.34399"
   x="124.624" />
	<polygon
   id="polygon4"
   points="125.488,227.984 126.64,225.392 128.368,223.376 130.672,221.648 132.976,220.208 135.568,219.632 138.16,219.344 451.864,219.344 454.456,219.632 457.12,220.208 459.712,221.648 461.728,223.376 463.456,225.68 464.608,227.984 465.472,230.648 465.472,233.528 465.472,546.944 465.184,549.536 464.32,552.416 463.168,554.72 461.152,556.736 459.136,558.464 456.472,559.616 453.592,560.192 451,560.552 139.888,560.552 137.008,560.192 134.128,559.328 131.536,557.888 129.232,556.16 127.504,554.144 125.776,551.552 125.2,549.536 124.624,547.232 124.264,233.24 124.624,230.36 "
   style="clip-rule:evenodd;fill:#ffffff;fill-rule:evenodd" />
	<polygon
   id="polygon6"
   points="132.976,230.072 134.128,228.632 135.856,227.408 137.584,226.832 450.136,226.832 452.152,227.12 453.88,227.696 455.32,228.92 456.472,230.36 457.408,232.088 457.984,233.816 457.984,544.928 457.696,546.656 456.832,548.672 455.608,550.4 454.168,551.552 452.152,552.416 450.136,552.704 139.6,552.704 137.584,552.416 135.568,551.84 133.84,550.4 132.688,548.672 132.112,546.944 131.824,544.928 131.824,233.816 132.112,231.8 "
   style="clip-rule:evenodd;fill:#0079c1;fill-rule:evenodd" />
	
		<rect
   id="rect8"
   height="341.20801"
   width="340.84799"
   style="clip-rule:evenodd;fill:none;fill-rule:evenodd;stroke:#0079c1;stroke-width:1.00199997;stroke-miterlimit:10"
   y="219.34399"
   x="124.624" />
	<polygon
   id="polygon10"
   points="239.896,462.848 282.088,462.848 218.512,527 154.36,462.848 197.128,462.848 197.128,253.76 239.896,253.76 "
   style="clip-rule:evenodd;fill:#ffffff;fill-rule:evenodd" />
	<polygon
   id="polygon12"
   points="392.968,317.624 435.736,317.624 371.872,253.76 308.008,317.624 350.488,317.624 350.488,527.288 392.968,527.288 "
   style="clip-rule:evenodd;fill:#ffffff;fill-rule:evenodd" />
</g>
</svg>