<?xml version="1.0" encoding="UTF-8"?>
<svg id="Layer_1" data-name="Layer 1" xmlns="http://www.w3.org/2000/svg" version="1.1" xmlns:cc="http://creativecommons.org/ns#" xmlns:dc="http://purl.org/dc/elements/1.1/" xmlns:rdf="http://www.w3.org/1999/02/22-rdf-syntax-ns#" xmlns:svg="http://www.w3.org/2000/svg" viewBox="0 0 342.9 187">
  <defs>
    <style>
      .cls-1 {
        fill: #fff;
      }

      .cls-1, .cls-2 {
        fill-rule: evenodd;
      }

      .cls-1, .cls-2, .cls-3 {
        stroke-width: 0px;
      }

      .cls-2, .cls-3 {
        fill: #0079c1;
      }
    </style>
  </defs>
  <g id="g26">
    <rect id="rect2" class="cls-3" y="0" width="342.9" height="187"/>
    <polygon id="polygon4" class="cls-1" points="12 14.3 16.8 9.9 23 7.3 26.1 6.4 316.4 6.4 322.8 8.4 328.7 12 333 16.8 335.6 23 336.5 29.7 336.5 157.4 335.6 164.1 333 170.2 328.7 175.1 322.8 178.6 316.4 180.6 29.7 180.9 23 179.8 16.8 177.1 12 172.8 8.1 167.3 6.4 160.9 6.4 26.1 8.1 19.8 12 14.3"/>
    <polygon id="polygon6" class="cls-2" points="318.2 18.9 322 21.2 324.6 25 325.4 29.7 325.2 157.4 324.9 159.7 324.3 162.1 323.1 164.1 321.7 165.8 320 167.3 317.9 168.1 315.9 169 313.6 169 30.2 169 27.9 169 25.6 168.1 23.5 167.3 21.8 165.8 20.4 163.8 19.5 161.8 18.6 159.7 18.4 157.4 18.4 29.4 18.6 27.4 19.5 25 20.4 23 21.8 21.2 23.5 19.8 25.6 18.6 27.9 18 30.2 17.7 313.8 18 318.2 18.9"/>
    <path id="path8" class="cls-1" d="M129.2,131.3h95.2l.3-3.2.6-3.2,1.2-3,1.4-2.9,2-2.6,2.4-2.4,2.6-1.7,2.6-1.7,3.2-.9,2.9-.9h6.7l2.9.9,3.2.9,2.7,1.7,2.6,1.7,2.3,2.4,2,2.6,1.5,2.9,1.2,3,.6,3.2.3,3.2h28.2v-31.9l-11.9-50.8-.3-1.2-.6-1.4-.9-1.2-1.2-.9-1.4-.6-1.4-.3H50.5l-1.4.3-1.4.6-1.2.9-1.2,1.5-.6,1.4v79.3l.6,1.4.9,1.2,1.2.9,1.4.6,1.4.3h34c-.3-12.7,10.2-22.6,22.3-22.6s22.7,10.2,22.7,22.6h0Z"/>
    <path id="path10" class="cls-1" d="M106.6,114.4c9.9.6,16.6,7,16.8,16.8-.6,9.9-6.6,16.3-16.8,16.8-11.9-.9-17.6-8.4-16.5-19.4,1.4-8.4,7.8-14,16.5-14.3h0Z"/>
    <path id="path12" class="cls-1" d="M246.5,114.4c10.2.6,16.6,7,17.1,16.8-.6,9.9-7,16.3-17.1,16.8-11.9-.9-17.7-8.4-16.6-19.4,1.5-8.4,7.8-14,16.6-14.3h0Z"/>
    <g id="g24">
      <rect id="rect14" class="cls-3" x="53.1" y="48.8" width="43.8" height="33.7"/>
      <rect id="rect16" class="cls-3" x="104.8" y="48.8" width="43" height="33.7"/>
      <rect id="rect18" class="cls-3" x="155.4" y="48.8" width="42.9" height="33.7"/>
      <polygon id="polygon20" class="cls-2" points="247 82.5 206.1 82.5 206.1 48.8 243.3 48.8 247 82.5"/>
      <polygon id="polygon22" class="cls-2" points="290.6 93.8 279.9 48.8 251.1 48.8 256.3 93.8 290.6 93.8"/>
    </g>
  </g>
</svg>