<?xml version="1.0" encoding="UTF-8"?>
<svg xmlns="http://www.w3.org/2000/svg" version="1.1" viewBox="0 0 301 128">
  <defs>
    <style>
      .cls-1, .cls-2 {
        fill: #0e79bf;
      }

      .cls-2, .cls-3 {
        fill-rule: evenodd;
      }

      .cls-3 {
        fill: #fff;
      }
    </style>
  </defs>
  <!-- Generator: Adobe Illustrator 28.7.1, SVG Export Plug-In . SVG Version: 1.2.0 Build 142)  -->
  <g>
    <g id="Layer_1">
      <g id="g26">
        <rect id="rect2" class="cls-1" width="301" height="128"/>
        <path id="path8" class="cls-3" d="M108,101.8h95.2l.3-3.2.6-3.2,1.2-3,1.4-2.9,2-2.6,2.4-2.4,2.6-1.7,2.6-1.7,3.2-.9,2.9-.9h6.7l2.9.9,3.2.9,2.7,1.7,2.6,1.7,2.3,2.4,2,2.6,1.5,2.9,1.2,3,.6,3.2.3,3.2h28.2v-31.9l-11.9-50.8-.3-1.2-.6-1.4-.9-1.2-1.2-.9-1.4-.6-1.4-.3H29.3l-1.4.3-1.4.6-1.2.9-1.2,1.5-.6,1.4v79.3l.6,1.4.9,1.2,1.2.9,1.4.6,1.4.3h34c-.3-12.7,10.2-22.6,22.3-22.6s22.7,10.2,22.7,22.6h0Z"/>
        <path id="path10" class="cls-3" d="M85.4,84.9c9.9.6,16.6,7,16.8,16.8-.6,9.9-6.6,16.3-16.8,16.8-11.9-.9-17.6-8.4-16.5-19.4,1.4-8.4,7.8-14,16.5-14.3h0Z"/>
        <path id="path12" class="cls-3" d="M225.3,84.9c10.2.6,16.6,7,17.1,16.8-.6,9.9-7,16.3-17.1,16.8-11.9-.9-17.7-8.4-16.6-19.4,1.5-8.4,7.8-14,16.6-14.3h0Z"/>
        <g id="g24">
          <rect id="rect14" class="cls-1" x="31.9" y="19.3" width="43.8" height="33.7"/>
          <rect id="rect16" class="cls-1" x="83.6" y="19.3" width="43" height="33.7"/>
          <rect id="rect18" class="cls-1" x="134.2" y="19.3" width="42.9" height="33.7"/>
          <polygon id="polygon20" class="cls-2" points="225.8 53 184.9 53 184.9 19.3 222.1 19.3 225.8 53"/>
          <polygon id="polygon22" class="cls-2" points="269.4 64.3 258.7 19.3 229.9 19.3 235.1 64.3 269.4 64.3"/>
        </g>
      </g>
    </g>
  </g>
</svg>