<?xml version="1.0" encoding="UTF-8"?>
<svg xmlns="http://www.w3.org/2000/svg" version="1.1" viewBox="0 0 301 128">
  <defs>
    <style>
      .cls-1, .cls-2 {
        fill: #fed520;
      }

      .cls-3 {
        fill: #010101;
      }

      .cls-3, .cls-2 {
        fill-rule: evenodd;
      }
    </style>
  </defs>
  <!-- Generator: Adobe Illustrator 28.7.1, SVG Export Plug-In . SVG Version: 1.2.0 Build 142)  -->
  <g>
    <g id="Layer_1">
      <rect class="cls-1" width="301" height="128"/>
      <path class="cls-3" d="M49.4,112v-34.3l7.8-29.4.6-1.4h113.4v-3.5l-26.9-18.4,32-21.7,31.8,21.7-25.9,18.4v3.5h62.6l9.3,33.1v32h-24.8c-1.7,8.1-13.2,9.5-17.9,2.6h-6c-4,6.3-12.7,6.3-16.4,0h-75.6c-3.5,6-12.7,6.3-16.4,0h-5.2c-5.2,7.8-16.2,5.5-17.6-2.6h-24.6Z"/>
      <polygon class="cls-2" points="61 54 75.1 54 75.1 78.8 54.4 78.8 61 54"/>
      <rect class="cls-1" x="80" y="54" width="25.1" height="24.8"/>
      <rect class="cls-1" x="109.7" y="54" width="24.8" height="24.8"/>
      <rect class="cls-1" x="139.2" y="54" width="24.8" height="24.8"/>
      <rect class="cls-1" x="168.6" y="54" width="25.1" height="24.8"/>
      <rect class="cls-1" x="198.3" y="54" width="24.8" height="24.8"/>
      <polygon class="cls-2" points="228.3 54 242.4 54 249.1 78.8 228.3 78.8 228.3 54"/>
      <polygon class="cls-2" points="154 24.3 176.1 9 198.9 24.6 176.6 40.5 154 24.3"/>
    </g>
  </g>
</svg>