<?xml version="1.0" encoding="UTF-8" standalone="no"?>
<svg
   xmlns:dc="http://purl.org/dc/elements/1.1/"
   xmlns:cc="http://creativecommons.org/ns#"
   xmlns:rdf="http://www.w3.org/1999/02/22-rdf-syntax-ns#"
   xmlns:svg="http://www.w3.org/2000/svg"
   xmlns="http://www.w3.org/2000/svg"
   xml:space="preserve"
   viewBox="0 0 341.56799 186.26401"
   height="186.26401"
   width="341.56799"
   y="0px"
   x="0px"
   id="Layer_1"
   version="1.1"><metadata
   id="metadata25"><rdf:RDF><cc:Work
       rdf:about=""><dc:format>image/svg+xml</dc:format><dc:type
         rdf:resource="http://purl.org/dc/dcmitype/StillImage" /></cc:Work></rdf:RDF></metadata><defs
   id="defs23" />
<g
   transform="translate(-109.504,-251.60001)"
   id="g18">
	<rect
   id="rect2"
   height="186.26401"
   width="341.56799"
   style="clip-rule:evenodd;fill:#ffd520;fill-rule:evenodd"
   y="251.60001"
   x="109.504" />
	<polygon
   id="polygon4"
   points="121.384,265.784 126.28,261.464 132.4,258.872 135.568,258.008 425.008,258.008 431.416,260.024 436.888,263.48 441.208,268.376 443.8,274.496 445.024,281.12 445.024,408.416 443.8,415.04 441.208,421.088 436.888,425.984 431.416,429.44 425.008,431.456 139.024,431.744 132.4,430.592 126.28,428 121.384,423.68 117.928,418.208 115.912,411.872 115.912,277.664 117.928,271.328 "
   style="clip-rule:evenodd;fill-rule:evenodd" />
	<polygon
   id="polygon6"
   points="426.448,270.464 430.264,272.768 432.856,276.512 433.72,281.12 433.432,408.416 433.144,410.72 432.568,413.024 431.416,415.04 429.976,416.768 428.248,418.208 426.16,419.072 424.144,419.936 421.84,419.936 139.6,419.936 137.296,419.936 135.28,419.072 133.264,418.208 131.248,416.768 129.808,414.752 128.944,412.736 128.08,410.72 128.08,408.416 128.08,280.832 128.08,278.816 128.944,276.512 129.808,274.496 131.248,272.768 133.264,271.328 135.28,270.104 137.296,269.528 139.6,269.24 422.128,269.528 "
   style="clip-rule:evenodd;fill:#ffd520;fill-rule:evenodd" />
	<polygon
   id="polygon8"
   points="176.032,317.264 176.032,306.32 226.648,306.32 226.648,317.264 207.28,317.264 207.28,383.792 196.336,383.792 196.336,317.264 "
   style="clip-rule:evenodd;fill-rule:evenodd" />
	<polygon
   id="polygon10"
   points="264.592,306.32 286.84,383.792 274.96,383.792 271.216,370.76 248.104,370.76 244.648,383.792 232.768,383.792 253.288,306.32 "
   style="clip-rule:evenodd;fill-rule:evenodd" />
	<polygon
   id="polygon12"
   points="268.048,359.528 250.984,359.528 259.336,328.568 "
   style="clip-rule:evenodd;fill:#ffd520;fill-rule:evenodd" />
	<polygon
   id="polygon14"
   points="298.936,306.32 311.968,306.32 322.048,328.568 332.2,306.32 345.52,306.32 328.744,343.04 347.248,383.792 334.216,383.792 322.048,357.512 309.88,383.792 296.992,383.792 315.424,343.04 "
   style="clip-rule:evenodd;fill-rule:evenodd" />
	<rect
   id="rect16"
   height="77.472"
   width="11.304"
   style="clip-rule:evenodd;fill-rule:evenodd"
   y="306.32001"
   x="366.328" />
</g>
</svg>