<?xml version="1.0" encoding="UTF-8" standalone="no"?>
<svg
   xmlns:dc="http://purl.org/dc/elements/1.1/"
   xmlns:cc="http://creativecommons.org/ns#"
   xmlns:rdf="http://www.w3.org/1999/02/22-rdf-syntax-ns#"
   xmlns:svg="http://www.w3.org/2000/svg"
   xmlns="http://www.w3.org/2000/svg"
   xml:space="preserve"
   viewBox="0 0 343.29001 343.29001"
   height="343.29001"
   width="343.29001"
   y="0px"
   x="0px"
   id="Layer_1"
   version="1.1"><metadata
   id="metadata31"><rdf:RDF><cc:Work
       rdf:about=""><dc:format>image/svg+xml</dc:format><dc:type
         rdf:resource="http://purl.org/dc/dcmitype/StillImage" /></cc:Work></rdf:RDF></metadata><defs
   id="defs29" />
<g
   transform="translate(-123.763,-196.523)"
   id="g24">
	
		<rect
   id="rect2"
   height="342.28799"
   width="342.28799"
   style="clip-rule:evenodd;fill:#007ac2;fill-rule:evenodd;stroke:#007ac2;stroke-width:1.00199997;stroke-miterlimit:10"
   y="197.024"
   x="124.264" />
	<polygon
   id="polygon4"
   points="125.488,206.888 127.216,203.72 129.52,200.768 132.4,198.752 137.08,197.024 139.672,197.024 451.504,197.024 455.248,197.6 458.416,198.752 461.656,200.768 463.96,203.72 465.688,206.888 466.552,210.344 466.552,525.92 465.688,529.448 463.96,532.616 461.656,535.496 458.416,537.512 455.248,538.952 451.504,539.312 137.944,539.312 134.128,538.376 130.96,536.648 128.08,534.056 126.064,531.176 125.488,529.448 124.624,525.92 124.264,212.36 124.912,208.616 "
   style="clip-rule:evenodd;fill:#ffffff;fill-rule:evenodd" />
	<polygon
   id="polygon6"
   points="133.264,208.328 133.84,207.464 134.704,206.312 135.928,205.736 138.52,204.872 139.672,204.584 451.504,204.584 454.096,205.16 456.4,206.312 458.128,208.328 458.992,210.92 459.28,212.36 459.28,524.192 458.704,526.784 457.552,528.872 455.536,530.6 452.944,531.464 451.504,531.752 139.672,531.752 137.08,531.176 134.704,530.024 133.264,527.936 132.112,525.344 132.112,212.36 132.688,209.768 "
   style="clip-rule:evenodd;fill:#007ac2;fill-rule:evenodd" />
	<path
   id="path8"
   d="m 221.968,386.312 c 10.44,0.864 15.984,6.336 16.56,16.488 -0.864,9.576 -5.544,14.832 -14.832,16.56 -10.44,0.864 -18.216,-6.12 -18.216,-18.288 2.016,-9.288 7.2,-14.184 16.488,-14.76 z"
   style="clip-rule:evenodd;fill:#ffffff;fill-rule:evenodd" />
	<path
   id="path10"
   d="m 358.984,386.312 c 10.44,0.864 15.984,6.336 16.56,16.488 -0.576,9.576 -5.544,14.832 -14.76,16.56 -10.44,0.864 -18.288,-6.12 -18,-18.288 1.728,-9.288 6.984,-14.184 16.2,-14.76 z"
   style="clip-rule:evenodd;fill:#ffffff;fill-rule:evenodd" />
	<path
   id="path12"
   d="m 199.936,402.8 h -27.504 v -30.96 l 12.168,-50.76 0.864,-1.728 1.44,-1.728 1.728,-0.576 1.152,-0.288 224.856,0.288 1.152,0.288 0.936,0.576 1.728,1.44 0.864,2.304 v 76.824 l -0.864,2.016 -1.44,1.44 -2.088,0.864 h -1.152 -33.048 c -0.864,-13.608 -9.216,-21.744 -21.744,-22.032 -12.456,0.288 -20.808,8.136 -22.032,22.032 H 244 c -0.288,-13.032 -9.864,-21.744 -22.032,-22.032 -13.032,0.576 -21.744,9 -22.032,22.032 z"
   style="clip-rule:evenodd;fill:#ffffff;fill-rule:evenodd" />
	<polygon
   id="polygon14"
   points="217.936,322.232 212.68,366.296 179.344,366.296 189.784,322.232 "
   style="clip-rule:evenodd;fill:#007ac2;fill-rule:evenodd" />
	<polygon
   id="polygon16"
   points="262,355.28 221.68,355.28 225.496,322.232 262,322.232 "
   style="clip-rule:evenodd;fill:#007ac2;fill-rule:evenodd" />
	<rect
   id="rect18"
   height="33.048"
   width="41.688"
   style="clip-rule:evenodd;fill:#007ac2;fill-rule:evenodd"
   y="322.23199"
   x="269.48801" />
	<rect
   id="rect20"
   height="33.048"
   width="42.048"
   style="clip-rule:evenodd;fill:#007ac2;fill-rule:evenodd"
   y="322.23199"
   x="318.73599" />
	<rect
   id="rect22"
   height="33.048"
   width="42.911999"
   style="clip-rule:evenodd;fill:#007ac2;fill-rule:evenodd"
   y="322.23199"
   x="368.272" />
</g>
</svg>