<?xml version="1.0" encoding="UTF-8"?>
<svg xmlns="http://www.w3.org/2000/svg" version="1.1" viewBox="0 0 341 341">
  <defs>
    <style>
      .cls-1, .cls-2 {
        fill: #fff;
      }

      .cls-2, .cls-3 {
        fill-rule: evenodd;
      }

      .cls-4 {
        stroke: #0f7ac0;
        stroke-miterlimit: 10;
        stroke-width: 1px;
      }

      .cls-4, .cls-3, .cls-5 {
        fill: #0f7ac0;
      }
    </style>
  </defs>
  <!-- Generator: Adobe Illustrator 28.7.1, SVG Export Plug-In . SVG Version: 1.2.0 Build 142)  -->
  <g>
    <g id="Layer_1">
      <g>
        <rect class="cls-4" x=".5" y="0" width="340.6" height="340.6"/>
        <polygon class="cls-2" points=".5 15 .9 11.5 1.5 9.8 3.2 6.3 5.5 3.7 8.7 1.7 13 0 15.6 0 325.8 0 329.6 .3 333.1 1.7 336 3.7 338.6 6.3 340 9.8 341.2 13.2 341.2 327 340 330.8 338.6 333.9 336 336.5 333.1 338.8 329.6 340 325.8 340.6 13.8 340.3 10.4 339.4 6.9 337.7 4.3 335.4 2.3 332.5 1.5 330.8 .5 327 .5 15"/>
        <polygon class="cls-3" points="8.4 15 8.7 12.4 9.2 11.2 10.1 10.1 11 9.2 12.1 8.3 14.4 7.5 15.9 7.5 326.1 7.5 328.8 7.8 331.1 9.2 332.8 11.2 333.7 13.8 333.7 15 333.7 325.3 333.4 327.9 331.9 330.2 329.9 331.9 327.3 332.8 326.1 332.8 15.9 332.8 13.3 332.5 11 331 9.2 329 8.4 326.7 8.4 15"/>
        <g>
          <path class="cls-2" d="M98.1,118.3c10.4.9,15.8,6.3,16.4,16.4-.6,9.5-5.5,14.7-14.7,16.4-10.4.9-18.2-6-18.2-18.1,2-9.2,7.2-14.1,16.5-14.7Z"/>
          <path class="cls-2" d="M234.4,118.3c10.4.9,15.8,6.3,16.4,16.4-.6,9.5-5.5,14.7-14.7,16.4-10.4.9-18.2-6-17.9-18.1,1.7-9.2,7.2-14.1,16.2-14.7Z"/>
          <path class="cls-2" d="M76.1,134.7h-27.4v-30.9l12.1-50.5.9-2,1.4-1.4,1.7-.6,1.2-.3,223.8.3,1.2.3.9.6,1.7,1.4.9,2.3v76.5l-.9,2-1.4,1.4-2,.9h-34.1c-.9-13.5-9.2-21.6-21.6-21.9-12.5.3-20.8,7.8-22,21.9h-92.5c-.3-13-9.8-21.6-21.9-21.9-13,.6-21.7,8.9-22,21.9Z"/>
          <polygon class="cls-3" points="55.7 98.3 66 54.5 94 54.5 89.1 98.3 55.7 98.3"/>
          <polygon class="cls-3" points="101.5 54.5 137.8 54.5 137.8 87.4 97.8 87.4 101.5 54.5"/>
          <rect class="cls-5" x="145.4" y="54.5" width="41.5" height="32.9"/>
          <rect class="cls-5" x="194.4" y="54.5" width="41.8" height="32.9"/>
          <rect class="cls-5" x="243.7" y="54.5" width="42.7" height="32.9"/>
        </g>
        <g>
          <polygon class="cls-2" points="91.7 283.7 91.7 219.4 73 219.4 73 208.2 122 208.2 122 219.4 103.3 219.4 103.3 283.7 91.7 283.7"/>
          <polygon class="cls-2" points="127.2 283.7 147.4 208.2 160.1 208.2 180.2 283.7 169 283.7 165.3 271.1 142.2 271.1 138.7 283.7 127.2 283.7"/>
          <polygon class="cls-3" points="145.7 259.6 153.7 230.7 162.1 259.6 145.7 259.6"/>
          <polygon class="cls-2" points="189.8 283.7 207.9 243.9 191.5 208.2 204.4 208.2 214.2 229.8 224 208.2 237 208.2 220.6 243.9 238.8 283.7 226 283.7 214.2 258.1 202.4 283.7 189.8 283.7"/>
          <rect class="cls-1" x="256.6" y="208.2" width="11.2" height="75.5"/>
        </g>
      </g>
    </g>
  </g>
</svg>