<?xml version="1.0" encoding="UTF-8"?>
<svg xmlns="http://www.w3.org/2000/svg" version="1.1" viewBox="0 0 341 341">
  <defs>
    <style>
      .cls-1 {
        fill: #fff;
      }

      .cls-1, .cls-2, .cls-3 {
        fill-rule: evenodd;
      }

      .cls-4 {
        stroke: #0f7ac0;
        stroke-miterlimit: 10;
        stroke-width: 1px;
      }

      .cls-4, .cls-3, .cls-5 {
        fill: #0f7ac0;
      }

      .cls-2 {
        fill: #ef4043;
      }
    </style>
  </defs>
  <!-- Generator: Adobe Illustrator 28.7.1, SVG Export Plug-In . SVG Version: 1.2.0 Build 142)  -->
  <g>
    <g id="Layer_1">
      <g>
        <rect class="cls-4" x=".2" y="-.4" width="341.4" height="341.4"/>
        <polygon class="cls-1" points=".2 14.7 .8 11.2 1.1 9.5 2.8 6 5.4 3.4 8.3 1.4 12.9 -.4 15.5 -.4 326.5 -.4 329.9 0 333.4 1.4 336.6 3.4 338.9 6 340.6 9.5 341.5 13 341.5 327.4 340.6 331.1 338.9 334.3 336.6 336.9 333.4 339.2 329.9 340.3 326.5 341 13.5 340.6 10 339.8 6.9 338 4 335.7 2 332.8 1.1 331.1 .2 327.4 .2 14.7"/>
        <polygon class="cls-3" points="8 14.7 8.6 12.1 8.9 10.9 9.7 9.8 10.6 8.9 11.8 8.1 14.3 7.1 15.5 7.1 326.5 7.1 329.1 7.5 331.4 8.9 333.1 10.9 334 13.5 334.3 14.7 334.3 325.6 333.7 328.2 332.2 330.5 330.2 332.3 327.9 333.1 326.5 333.1 15.5 333.1 12.9 332.8 10.6 331.4 8.9 329.4 8 327.1 8 14.7"/>
        <g>
          <path class="cls-1" d="M97.6,188.3c10.4.6,15.9,6,16.5,16.5-.9,9.2-5.8,14.7-14.7,16.1-10.4.9-18.5-6-18.2-18.2,1.7-9.2,7.2-13.8,16.4-14.4Z"/>
          <path class="cls-1" d="M234.2,188.3c10.4.6,15.9,6,16.5,16.5-.9,9.2-5.5,14.7-14.7,16.1-10.4.9-18.5-6-18.2-18.2,1.7-9.2,7.2-13.8,16.4-14.4Z"/>
          <path class="cls-1" d="M75.6,204.8h-27.4v-31.2l11.9-50.5.9-1.7,1.7-1.4,1.7-.9h225.4l1.2.6.9.3,1.7,1.7.9,2v76.5l-.9,2-1.4,1.8-2,.6-1.2.3h-32.9c-.9-13.6-9.3-22-22-22s-20.5,7.8-21.7,22h-92.7c-.6-13-9.9-22-22-22-13,.3-21.7,9-22,22Z"/>
          <polygon class="cls-3" points="55.1 168.1 65.5 124.5 93.5 124.5 88.4 168.1 55.1 168.1"/>
          <polygon class="cls-3" points="101.1 124.5 137.2 124.5 137.2 157.4 97.3 157.4 101.1 124.5"/>
          <rect class="cls-5" x="144.7" y="124.5" width="41.8" height="32.9"/>
          <rect class="cls-5" x="194.1" y="124.5" width="41.7" height="32.9"/>
          <rect class="cls-5" x="243.5" y="124.5" width="42.8" height="32.9"/>
        </g>
        <polygon class="cls-2" points="307.1 7.1 326.5 7.1 330.2 8.1 333.1 10.9 334.3 14.7 334.3 33.8 34.6 333.1 15.5 333.1 11.8 332.3 9.7 330.5 8 327.1 8 306.3 307.1 7.1"/>
      </g>
    </g>
  </g>
</svg>