<?xml version="1.0" encoding="UTF-8"?>
<svg xmlns="http://www.w3.org/2000/svg" version="1.1" viewBox="0 0 341 341">
  <defs>
    <style>
      .cls-1, .cls-2, .cls-3 {
        fill: #0e79bf;
      }

      .cls-2, .cls-4, .cls-5 {
        fill-rule: evenodd;
      }

      .cls-6, .cls-4 {
        fill: #fff;
      }

      .cls-5 {
        fill: #ef4043;
      }

      .cls-3 {
        stroke: #0e79bf;
        stroke-miterlimit: 10;
        stroke-width: 1px;
      }
    </style>
  </defs>
  <!-- Generator: Adobe Illustrator 28.7.1, SVG Export Plug-In . SVG Version: 1.2.0 Build 142)  -->
  <g>
    <g id="Layer_1">
      <g>
        <rect class="cls-3" x="0" y="-.6" width="341.9" height="341.9"/>
        <polygon class="cls-4" points="0 14.4 .3 11 .8 9.2 2.6 5.8 4.9 3.1 8 1.1 12.4 -.6 15 -.6 326.4 -.6 330.2 -.3 333.6 1.1 336.5 3.1 338.9 5.8 340.6 9.2 341.5 12.7 341.5 327.6 340.6 331.4 338.9 334.5 336.5 337.1 333.6 339.4 330.2 340.6 326.4 341.2 13.2 340.9 9.8 340 6.3 338.3 3.7 336 1.7 333.1 .8 331.4 0 327.6 0 14.4"/>
        <polygon class="cls-2" points="7.5 14.4 8 11.8 8.6 10.7 9.5 9.5 10.3 8.7 11.2 7.8 13.8 6.9 15.3 6.9 326.7 6.9 329.3 7.2 331.6 8.7 333.1 10.7 334.2 13.3 334.2 14.4 334.2 325.8 333.6 328.5 332.5 330.8 330.5 332.5 327.9 333.4 326.7 333.4 15.3 333.4 12.7 333.1 10.3 331.7 8.6 329.6 7.8 327.3 7.5 14.4"/>
        <g>
          <path class="cls-4" d="M97.8,118.1c10.4.9,16,6.3,16.6,16.5-.9,9.5-5.5,14.8-14.8,16.5-10.4.9-18.6-6-18.3-18.2,1.7-9.3,7.3-14.2,16.5-14.8Z"/>
          <path class="cls-4" d="M234.6,118.1c10.4.9,15.9,6.3,16.5,16.5-.9,9.5-5.5,14.8-14.8,16.5-10.4.9-18.5-6-18.2-18.2,1.7-9.3,7.3-14.2,16.5-14.8Z"/>
          <path class="cls-4" d="M75.8,134.6h-27.5v-31l12.2-50.7.9-2,1.4-1.4,1.7-.6,1.2-.3,224.6.3,1.2.3.9.6,1.7,1.4.9,2.3v76.7l-.9,2.1-1.4,1.4-2,.9h-34.1c-.9-13.6-9.3-21.7-22-22-12.2.3-20.5,7.8-21.7,22h-92.9c-.6-13-9.9-21.7-22-22-13,.6-21.7,9-22,22Z"/>
          <polygon class="cls-2" points="55.2 98.1 65.6 54.1 93.7 54.1 88.5 98.1 55.2 98.1"/>
          <polygon class="cls-2" points="101.3 54.1 137.7 54.1 137.7 87.1 97.5 87.1 101.3 54.1"/>
          <rect class="cls-1" x="145" y="54.1" width="41.9" height="33"/>
          <rect class="cls-1" x="194.4" y="54.1" width="42" height="33"/>
          <rect class="cls-1" x="243.9" y="54.1" width="42.8" height="33"/>
        </g>
        <g>
          <polygon class="cls-4" points="91.4 284.1 91.4 219.6 72.6 219.6 72.6 208.3 121.8 208.3 121.8 219.6 102.7 219.6 102.7 284.1 91.4 284.1"/>
          <polygon class="cls-4" points="127.1 284.1 147.3 208.3 160 208.3 180.3 284.1 168.7 284.1 165.2 271.5 142.1 271.5 138.3 284.1 127.1 284.1"/>
          <polygon class="cls-2" points="145.3 259.9 153.6 230.9 162.1 259.9 145.3 259.9"/>
          <polygon class="cls-4" points="189.5 284.1 207.7 244.3 191.5 208.3 204.5 208.3 214.4 230.1 224.2 208.3 236.9 208.3 220.7 244.3 239 284.1 226 284.1 214.4 258.4 202.5 284.1 189.5 284.1"/>
          <rect class="cls-6" x="256.9" y="208.3" width="11.3" height="75.8"/>
        </g>
        <polygon class="cls-5" points="7.8 306.5 7.8 325.8 8.6 329.6 11.5 332.5 15.3 333.4 34.4 333.4 334.2 33.6 334.2 14.4 333.1 10.7 330.5 8.1 327.9 6.9 307.3 6.9 7.8 306.5"/>
      </g>
    </g>
  </g>
</svg>