<?xml version="1.0" encoding="UTF-8" standalone="no"?>
<svg
   xmlns:dc="http://purl.org/dc/elements/1.1/"
   xmlns:cc="http://creativecommons.org/ns#"
   xmlns:rdf="http://www.w3.org/1999/02/22-rdf-syntax-ns#"
   xmlns:svg="http://www.w3.org/2000/svg"
   xmlns="http://www.w3.org/2000/svg"
   xml:space="preserve"
   viewBox="0 0 342.35458 342.35458"
   height="342.35458"
   width="342.35458"
   y="0px"
   x="0px"
   id="Layer_1"
   version="1.1"><metadata
   id="metadata35"><rdf:RDF><cc:Work
       rdf:about=""><dc:format>image/svg+xml</dc:format><dc:type
         rdf:resource="http://purl.org/dc/dcmitype/StillImage" /></cc:Work></rdf:RDF></metadata><defs
   id="defs33" />
<g
   transform="translate(-123.6187,-268.8827)"
   id="g28">
	
		<rect
   id="rect2"
   height="341.35199"
   width="341.35199"
   style="clip-rule:evenodd;fill:#007ac2;fill-rule:evenodd;stroke:#007ac2;stroke-width:1.00259995;stroke-miterlimit:10"
   y="269.384"
   x="124.12" />
	<polygon
   id="polygon4"
   points="125.056,279.248 126.784,275.72 129.376,273.128 132.256,271.112 136.864,269.384 139.456,269.384 450.424,269.384 453.88,269.672 457.336,271.112 460.576,273.128 462.88,275.72 464.608,279.248 465.472,282.704 465.472,597.128 464.608,600.872 462.88,604.04 460.576,606.632 457.336,608.936 453.88,610.088 450.424,610.736 137.44,610.376 133.984,609.512 130.816,607.784 127.936,605.48 125.92,602.6 125.056,600.872 124.12,597.128 124.12,284.432 124.768,280.976 "
   style="clip-rule:evenodd;fill:#ffffff;fill-rule:evenodd" />
	<polygon
   id="polygon6"
   points="132.832,280.688 133.696,279.536 134.56,278.672 135.712,277.808 138.304,276.872 139.456,276.872 450.424,276.872 453.016,277.232 455.32,278.672 457.048,280.688 457.984,283.28 458.272,284.432 458.272,595.4 457.624,597.992 456.184,600.296 454.168,602.024 451.864,602.888 450.424,602.888 139.456,602.888 136.864,602.6 134.56,601.16 132.832,599.144 131.968,596.84 131.968,284.432 132.544,281.84 "
   style="clip-rule:evenodd;fill:#007ac2;fill-rule:evenodd" />
	<g
   id="g24">
		<path
   id="path8"
   d="m 221.536,458.096 c 10.44,0.576 15.912,6.048 16.488,16.488 -0.864,9.216 -5.76,14.688 -14.688,16.128 -10.44,0.864 -18.504,-6.048 -18.216,-18.216 1.728,-9.216 7.2,-13.824 16.416,-14.4 z"
   style="clip-rule:evenodd;fill:#ffffff;fill-rule:evenodd" />
		<path
   id="path10"
   d="m 358.192,458.096 c 10.44,0.576 15.912,6.048 16.488,16.488 -0.864,9.216 -5.472,14.688 -14.688,16.128 -10.44,0.864 -18.504,-6.048 -18.216,-18.216 1.728,-9.216 7.2,-13.824 16.416,-14.4 z"
   style="clip-rule:evenodd;fill:#ffffff;fill-rule:evenodd" />
		<path
   id="path12"
   d="m 199.576,474.584 h -27.432 v -31.248 l 11.88,-50.544 0.864,-1.728 1.728,-1.44 1.728,-0.864 h 1.152 224.208 l 1.152,0.576 0.864,0.288 1.728,1.728 0.864,2.016 v 76.536 l -0.864,2.016 -1.44,1.8 -2.016,0.576 -1.152,0.288 h -32.904 c -0.936,-13.608 -9.288,-22.032 -22.032,-22.032 -12.096,0 -20.52,7.848 -21.672,22.032 h -92.664 c -0.576,-13.032 -9.864,-22.032 -22.032,-22.032 -12.96,0.288 -21.672,9 -21.96,22.032 z"
   style="clip-rule:evenodd;fill:#ffffff;fill-rule:evenodd" />
		<polygon
   id="polygon14"
   points="217.504,394.232 212.32,437.864 179.056,437.864 189.496,394.232 "
   style="clip-rule:evenodd;fill:#007ac2;fill-rule:evenodd" />
		<polygon
   id="polygon16"
   points="261.136,427.136 221.248,427.136 225.064,394.232 261.136,394.232 "
   style="clip-rule:evenodd;fill:#007ac2;fill-rule:evenodd" />
		<rect
   id="rect18"
   height="32.903999"
   width="41.832001"
   style="clip-rule:evenodd;fill:#007ac2;fill-rule:evenodd"
   y="394.23199"
   x="268.69601" />
		<rect
   id="rect20"
   height="32.903999"
   width="41.688"
   style="clip-rule:evenodd;fill:#007ac2;fill-rule:evenodd"
   y="394.23199"
   x="318.01599" />
		<rect
   id="rect22"
   height="32.903999"
   width="42.768002"
   style="clip-rule:evenodd;fill:#007ac2;fill-rule:evenodd"
   y="394.23199"
   x="367.48001" />
	</g>
	<polygon
   id="polygon26"
   points="454.168,277.808 457.048,280.688 458.272,284.432 458.272,303.512 158.536,602.888 139.456,602.888 135.712,602.024 133.696,600.296 131.968,596.84 131.968,576.032 431.056,276.872 450.424,276.872 "
   style="clip-rule:evenodd;fill:#ef3e42;fill-rule:evenodd" />
</g>
</svg>