<?xml version="1.0" encoding="UTF-8" standalone="no"?>
<svg
   xmlns:dc="http://purl.org/dc/elements/1.1/"
   xmlns:cc="http://creativecommons.org/ns#"
   xmlns:rdf="http://www.w3.org/1999/02/22-rdf-syntax-ns#"
   xmlns:svg="http://www.w3.org/2000/svg"
   xmlns="http://www.w3.org/2000/svg"
   xml:space="preserve"
   viewBox="0 0 342.85828 342.85828"
   height="342.85828"
   width="342.85828"
   y="0px"
   x="0px"
   id="Layer_1"
   version="1.1"><metadata
   id="metadata47"><rdf:RDF><cc:Work
       rdf:about=""><dc:format>image/svg+xml</dc:format><dc:type
         rdf:resource="http://purl.org/dc/dcmitype/StillImage" /></cc:Work></rdf:RDF></metadata><defs
   id="defs45" />
<g
   transform="translate(-115.84285,-232.37885)"
   id="g40">
	
		<rect
   id="rect2"
   height="341.85599"
   width="341.85599"
   style="clip-rule:evenodd;fill:#0079c1;fill-rule:evenodd;stroke:#0079c1;stroke-width:1.00230002;stroke-miterlimit:10"
   y="232.88"
   x="116.344" />
	<polygon
   id="polygon4"
   points="117.28,242.744 119.008,239.288 121.312,236.624 124.48,234.608 128.8,232.88 131.464,232.88 442.864,232.88 446.608,233.168 450.064,234.608 452.944,236.624 455.32,239.288 457.048,242.744 457.912,246.2 457.912,561.128 457.048,564.872 455.32,568.04 452.944,570.632 450.064,572.936 446.608,574.088 442.864,574.736 129.664,574.376 126.208,573.512 122.752,571.784 120.16,569.48 118.144,566.6 117.28,564.872 116.344,561.128 116.344,247.928 116.704,244.472 "
   style="clip-rule:evenodd;fill:#ffffff;fill-rule:evenodd" />
	<polygon
   id="polygon6"
   points="125.056,244.184 125.92,243.032 126.784,242.168 127.648,241.304 130.24,240.44 131.752,240.44 443.152,240.44 445.744,240.728 448.048,242.168 449.488,244.184 450.64,246.776 450.64,247.928 450.64,559.328 450.064,561.992 448.912,564.296 446.896,566.024 444.304,566.888 443.152,566.888 131.752,566.888 129.088,566.6 126.784,565.16 125.056,563.144 124.192,560.84 123.904,247.928 124.48,245.336 "
   style="clip-rule:evenodd;fill:#0079c1;fill-rule:evenodd" />
	<g
   id="g24">
		<path
   id="path8"
   d="m 214.192,351.608 c 10.44,0.864 15.984,6.336 16.56,16.488 -0.864,9.504 -5.544,14.76 -14.76,16.488 -10.44,0.864 -18.576,-6.048 -18.288,-18.216 1.728,-9.288 7.272,-14.184 16.488,-14.76 z"
   style="clip-rule:evenodd;fill:#ffffff;fill-rule:evenodd" />
		<path
   id="path10"
   d="m 351.064,351.608 c 10.44,0.864 15.912,6.336 16.488,16.488 -0.864,9.504 -5.472,14.76 -14.76,16.488 -10.368,0.864 -18.504,-6.048 -18.216,-18.216 1.728,-9.288 7.272,-14.184 16.488,-14.76 z"
   style="clip-rule:evenodd;fill:#ffffff;fill-rule:evenodd" />
		<path
   id="path12"
   d="m 192.232,368.096 h -27.504 v -30.96 l 12.168,-50.688 0.864,-2.016 1.44,-1.44 1.728,-0.576 1.152,-0.288 224.568,0.288 1.152,0.288 0.864,0.576 1.728,1.44 0.864,2.304 v 76.68 l -0.864,2.088 -1.44,1.44 -2.016,0.864 h -1.152 -32.976 c -0.864,-13.608 -9.288,-21.744 -22.032,-22.032 -12.168,0.288 -20.52,7.848 -21.672,22.032 h -92.88 c -0.576,-13.032 -9.864,-21.744 -22.032,-22.032 -12.96,0.576 -21.672,9 -21.96,22.032 z"
   style="clip-rule:evenodd;fill:#ffffff;fill-rule:evenodd" />
		<polygon
   id="polygon14"
   points="210.16,287.6 204.976,331.592 171.64,331.592 182.08,287.6 "
   style="clip-rule:evenodd;fill:#0079c1;fill-rule:evenodd" />
		<polygon
   id="polygon16"
   points="254.152,320.576 213.904,320.576 217.72,287.6 254.152,287.6 "
   style="clip-rule:evenodd;fill:#0079c1;fill-rule:evenodd" />
		<rect
   id="rect18"
   height="32.976002"
   width="41.903999"
   style="clip-rule:evenodd;fill:#0079c1;fill-rule:evenodd"
   y="287.60001"
   x="261.42401" />
		<rect
   id="rect20"
   height="32.976002"
   width="41.976002"
   style="clip-rule:evenodd;fill:#0079c1;fill-rule:evenodd"
   y="287.60001"
   x="310.81601" />
		<rect
   id="rect22"
   height="32.976002"
   width="42.84"
   style="clip-rule:evenodd;fill:#0079c1;fill-rule:evenodd"
   y="287.60001"
   x="360.35199" />
	</g>
	<g
   id="g36">
		<polygon
   id="polygon26"
   points="189.064,453.128 189.064,441.824 238.24,441.824 238.24,453.128 219.16,453.128 219.16,517.64 207.856,517.64 207.856,453.128 "
   style="clip-rule:evenodd;fill:#ffffff;fill-rule:evenodd" />
		<polygon
   id="polygon28"
   points="276.472,441.824 296.704,517.64 285.184,517.64 281.656,504.968 258.544,504.968 254.728,517.64 243.496,517.64 263.728,441.824 "
   style="clip-rule:evenodd;fill:#ffffff;fill-rule:evenodd" />
		<polygon
   id="polygon30"
   points="278.488,493.376 261.712,493.376 270.064,464.432 "
   style="clip-rule:evenodd;fill:#0079c1;fill-rule:evenodd" />
		<polygon
   id="polygon32"
   points="307.936,441.824 320.968,441.824 330.832,463.568 340.624,441.824 353.368,441.824 337.168,477.752 355.456,517.64 342.424,517.64 330.832,491.936 318.952,517.64 305.92,517.64 324.136,477.752 "
   style="clip-rule:evenodd;fill:#ffffff;fill-rule:evenodd" />
		<rect
   id="rect34"
   height="75.816002"
   width="11.304"
   style="clip-rule:evenodd;fill:#ffffff;fill-rule:evenodd"
   y="441.82401"
   x="373.384" />
	</g>
	<polygon
   id="polygon38"
   points="125.056,563.144 127.936,566.024 131.752,566.888 150.832,566.888 450.64,267.08 450.64,247.928 449.488,244.184 446.896,241.592 444.304,240.44 423.712,240.44 124.192,539.96 124.192,559.328 "
   style="clip-rule:evenodd;fill:#ef3e42;fill-rule:evenodd" />
</g>
</svg>