<?xml version="1.0" encoding="UTF-8"?>
<svg xmlns="http://www.w3.org/2000/svg" version="1.1" viewBox="0 0 341 341">
  <defs>
    <style>
      .cls-1, .cls-2, .cls-3 {
        fill: #0e79bf;
      }

      .cls-2, .cls-4 {
        fill-rule: evenodd;
      }

      .cls-5, .cls-4 {
        fill: #fff;
      }

      .cls-3 {
        stroke: #0e79bf;
        stroke-miterlimit: 10;
        stroke-width: 1px;
      }
    </style>
  </defs>
  <!-- Generator: Adobe Illustrator 28.7.1, SVG Export Plug-In . SVG Version: 1.2.0 Build 142)  -->
  <g>
    <g id="Layer_1">
      <g>
        <rect class="cls-3" x=".7" y=".3" width="340.3" height="340.1"/>
        <polygon class="cls-4" points=".7 15.3 1 11.5 1.6 9.8 3.3 6.6 5.9 4 8.8 2 13.2 0 15.8 .3 326 .3 329.7 .6 332.9 2 336.1 4 338.4 6.6 340.1 9.8 341 13.2 341 327 340.1 330.5 338.4 333.6 336.1 336.5 332.9 338.5 329.7 339.7 326 340.3 14.1 340 10.5 339.1 7.1 337.4 4.5 335.1 2.5 332.2 1.6 330.5 .7 327 .7 15.3"/>
        <polygon class="cls-2" points="8.5 15.3 8.8 12.7 9.4 11.5 10.2 10.4 11.1 9.5 12.3 8.6 14.6 7.8 16.1 7.8 326.2 7.8 328.6 8.1 330.9 9.5 332.7 11.5 333.5 13.8 333.8 15.3 333.8 324.9 333.2 327.6 332.1 329.9 330 331.6 327.4 332.5 326.2 332.5 16.1 332.5 13.5 332.2 11.1 330.8 9.4 328.7 8.5 326.4 8.5 15.3"/>
        <g>
          <rect class="cls-5" x="43.9" y="207.5" width="253.4" height="7.8"/>
          <path class="cls-4" d="M60.6,199.4v-34.5l9.6-35.3h67.2v-3.8l-28.2-19.4,34.2-23.2,34.2,23.2-28.7,19.4v3.8h121.3l8.6,33.3v36.5h-26.1c-2.6,8.6-12.2,11.2-18.8,2.6h-5.5c-4.9,6.8-13.6,6.3-17.9,0h-80.5c-4.3,6.6-13.3,6.8-17.6,0h-6.7c-5.2,7.4-16.5,6.6-18.8-2.6h-26.4Z"/>
          <polygon class="cls-2" points="65.9 164.1 72.8 137.4 87.9 137.4 87.9 164.1 65.9 164.1"/>
          <rect class="cls-1" x="93.4" y="137.4" width="26.1" height="26.6"/>
          <rect class="cls-1" x="125" y="137.4" width="26.4" height="26.6"/>
          <rect class="cls-1" x="156.5" y="137.4" width="26.4" height="26.6"/>
          <rect class="cls-1" x="188.4" y="137.4" width="26" height="26.6"/>
          <rect class="cls-1" x="219.6" y="137.4" width="26.4" height="26.6"/>
          <polygon class="cls-2" points="119.2 106.2 143.5 89.7 167.6 105.6 143.2 123 119.2 106.2"/>
          <polygon class="cls-2" points="251.5 137.4 266.8 137.4 274.1 164.1 251.5 164.1 251.5 137.4"/>
        </g>
      </g>
    </g>
  </g>
</svg>