<?xml version="1.0" encoding="UTF-8"?>
<svg xmlns="http://www.w3.org/2000/svg" version="1.1" viewBox="0 0 341 341">
  <defs>
    <style>
      .cls-1, .cls-2, .cls-3 {
        fill: #0e79bf;
      }

      .cls-2, .cls-4 {
        fill-rule: evenodd;
      }

      .cls-5, .cls-4 {
        fill: #fff;
      }

      .cls-3 {
        stroke: #0e79bf;
        stroke-miterlimit: 10;
        stroke-width: 1px;
      }
    </style>
  </defs>
  <!-- Generator: Adobe Illustrator 28.7.1, SVG Export Plug-In . SVG Version: 1.2.0 Build 142)  -->
  <g>
    <g id="Layer_1">
      <g>
        <rect class="cls-3" x=".3" y="-.3" width="341.1" height="341.1"/>
        <polygon class="cls-4" points=".3 14.8 .9 11.3 1.5 9.6 3.2 6.1 5.5 3.5 8.4 1.5 13 -.3 15.6 -.3 326.4 -.3 330.1 0 333.3 1.5 336.5 3.5 338.8 6.1 340.5 9.6 341.4 13.1 341.4 327.3 340.5 331 338.8 334.2 336.5 336.8 333.3 339.1 330.1 340.2 326.4 340.9 13.9 340.5 10.1 339.7 7 337.9 4.1 335.6 2.1 332.7 1.5 331 .6 327.3 .3 14.8"/>
        <polygon class="cls-2" points="8.1 14.8 8.7 12.2 9.3 11 9.8 9.9 10.7 9 11.9 8.2 14.5 7.2 15.6 7.2 326.4 7.2 328.9 7.6 331.3 9 333 11 333.9 13.6 334.2 14.8 334.2 325.5 333.6 328.1 332.4 330.4 330.4 332.2 327.8 333 326.4 333 15.6 333 13 332.7 10.7 331.3 9.3 329.3 8.1 327 8.1 14.8"/>
        <g>
          <polygon class="cls-4" points="91.9 283.9 91.9 219.5 72.8 219.5 72.8 208.3 122.2 208.3 122.2 219.5 103.2 219.5 103.2 283.9 91.9 283.9"/>
          <polygon class="cls-4" points="127.4 283.9 147.4 208.3 160.3 208.3 180.2 283.9 169 283.9 165.2 271.3 142.4 271.3 138.7 283.9 127.4 283.9"/>
          <polygon class="cls-2" points="145.6 259.7 154 230.8 162.1 259.7 145.6 259.7"/>
          <polygon class="cls-4" points="189.7 283.9 207.9 244 191.8 208.3 204.5 208.3 214.3 229.9 224.4 208.3 237.1 208.3 220.9 244 239.2 283.9 226.1 283.9 214.3 258.2 202.7 283.9 189.7 283.9"/>
          <rect class="cls-5" x="257" y="208.3" width="11.3" height="75.6"/>
        </g>
        <g>
          <rect class="cls-5" x="45.1" y="141.6" width="253.9" height="8.1"/>
          <path class="cls-4" d="M61.8,133.8v-34.7l9.5-35.5h67.3v-3.5l-28-19.9,34.4-23.1,34,23.4-28.5,19.7v3.5h121.2l8.9,33.5v36.7h-26.3c-2.3,8.4-11.8,10.9-18.8,2.6h-5.5c-4.9,6.9-13.5,6.3-17.9,0h-80.8c-4.3,6.3-13.3,6.9-17.6,0h-6.6c-5.2,7.2-16.5,6.3-19.1-2.6h-26.3Z"/>
          <polygon class="cls-2" points="67.3 97.9 74 71.4 89.3 71.4 89.3 97.9 67.3 97.9"/>
          <rect class="cls-1" x="94.4" y="71.4" width="26.6" height="26.6"/>
          <rect class="cls-1" x="126.3" y="71.4" width="26.6" height="26.6"/>
          <rect class="cls-1" x="158" y="71.4" width="26.2" height="26.6"/>
          <rect class="cls-1" x="189.7" y="71.4" width="26.4" height="26.6"/>
          <rect class="cls-1" x="221.2" y="71.4" width="26.3" height="26.6"/>
          <polygon class="cls-2" points="120.5 40.2 145.1 23.4 169 39.6 144.8 57 120.5 40.2"/>
          <polygon class="cls-2" points="253 71.4 268.6 71.4 275.5 97.9 253 97.9 253 71.4"/>
        </g>
      </g>
    </g>
  </g>
</svg>