<?xml version="1.0" encoding="UTF-8" standalone="no"?>
<svg
   xmlns:dc="http://purl.org/dc/elements/1.1/"
   xmlns:cc="http://creativecommons.org/ns#"
   xmlns:rdf="http://www.w3.org/1999/02/22-rdf-syntax-ns#"
   xmlns:svg="http://www.w3.org/2000/svg"
   xmlns="http://www.w3.org/2000/svg"
   xml:space="preserve"
   viewBox="0 0 341.34689 341.0589"
   height="341.0589"
   width="341.34689"
   y="0px"
   x="0px"
   id="Layer_1"
   version="1.1"><metadata
   id="metadata37"><rdf:RDF><cc:Work
       rdf:about=""><dc:format>image/svg+xml</dc:format><dc:type
         rdf:resource="http://purl.org/dc/dcmitype/StillImage" /></cc:Work></rdf:RDF></metadata><defs
   id="defs35" />
<g
   transform="translate(-101.80255,-213.15456)"
   id="g30">
	
		<rect
   id="rect2"
   height="340.056"
   width="340.34399"
   style="clip-rule:evenodd;fill:#0079c1;fill-rule:evenodd;stroke:#0079c1;stroke-width:1.0029;stroke-miterlimit:10"
   y="213.65601"
   x="102.304" />
	<polygon
   id="polygon4"
   points="103.24,223.16 104.968,219.992 107.56,217.4 110.44,215.384 114.832,213.368 117.424,213.656 427.6,213.656 431.344,213.944 434.584,215.384 437.752,217.4 440.056,219.992 441.784,223.16 442.648,226.616 442.648,540.392 441.784,543.848 440.056,547.016 437.752,549.896 434.584,551.912 431.344,553.064 427.6,553.712 115.696,553.352 112.168,552.488 108.712,550.76 106.12,548.456 104.104,545.576 103.24,543.848 102.304,540.392 102.304,228.704 102.664,224.888 "
   style="clip-rule:evenodd;fill:#ffffff;fill-rule:evenodd" />
	<polygon
   id="polygon6"
   points="111.016,224.888 111.88,223.736 112.744,222.872 113.896,222.008 116.272,221.144 117.712,221.144 427.888,221.144 430.192,221.432 432.568,222.872 434.296,224.888 435.16,227.192 435.448,228.704 435.448,538.304 434.872,540.968 433.72,543.272 431.632,545 429.04,545.864 427.888,545.864 117.712,545.864 115.12,545.576 112.744,544.136 111.016,542.12 110.152,539.816 110.152,228.704 110.44,226.04 "
   style="clip-rule:evenodd;fill:#0079c1;fill-rule:evenodd" />
	<g
   id="g28">
		<rect
   id="rect8"
   height="7.776"
   width="253.44"
   style="clip-rule:evenodd;fill:#ffffff;fill-rule:evenodd"
   y="420.87201"
   x="145.504" />
		<path
   id="path10"
   d="M 162.28,412.808 V 378.32 l 9.576,-35.28 h 67.248 v -3.816 l -28.152,-19.368 34.2,-23.184 34.2,23.184 -28.656,19.368 v 3.816 h 121.32 l 8.64,33.264 v 36.504 H 354.592 C 352,421.376 342.424,423.968 335.8,415.4 h -5.544 c -4.896,6.84 -13.608,6.264 -17.928,0 h -80.496 c -4.32,6.552 -13.32,6.84 -17.64,0 h -6.696 c -5.184,7.416 -16.488,6.552 -18.792,-2.592 z"
   style="clip-rule:evenodd;fill:#ffffff;fill-rule:evenodd" />
		<polygon
   id="polygon12"
   points="189.568,350.816 189.568,377.456 167.536,377.456 174.448,350.816 "
   style="clip-rule:evenodd;fill:#0079c1;fill-rule:evenodd" />
		<rect
   id="rect14"
   height="26.639999"
   width="26.063999"
   style="clip-rule:evenodd;fill:#0079c1;fill-rule:evenodd"
   y="350.81601"
   x="195.03999" />
		<rect
   id="rect16"
   height="26.639999"
   width="26.351999"
   style="clip-rule:evenodd;fill:#0079c1;fill-rule:evenodd"
   y="350.81601"
   x="226.64799" />
		<rect
   id="rect18"
   height="26.639999"
   width="26.351999"
   style="clip-rule:evenodd;fill:#0079c1;fill-rule:evenodd"
   y="350.81601"
   x="258.18399" />
		<rect
   id="rect20"
   height="26.639999"
   width="25.992001"
   style="clip-rule:evenodd;fill:#0079c1;fill-rule:evenodd"
   y="350.81601"
   x="290.07999" />
		<rect
   id="rect22"
   height="26.639999"
   width="26.424"
   style="clip-rule:evenodd;fill:#0079c1;fill-rule:evenodd"
   y="350.81601"
   x="321.25601" />
		<polygon
   id="polygon24"
   points="269.2,318.992 244.864,336.344 220.816,319.568 245.152,303.08 "
   style="clip-rule:evenodd;fill:#0079c1;fill-rule:evenodd" />
		<polygon
   id="polygon26"
   points="375.76,377.456 353.152,377.456 353.152,350.816 368.488,350.816 "
   style="clip-rule:evenodd;fill:#0079c1;fill-rule:evenodd" />
	</g>
</g>
</svg>