<?xml version="1.0" encoding="UTF-8" standalone="no"?>
<svg
   xmlns:dc="http://purl.org/dc/elements/1.1/"
   xmlns:cc="http://creativecommons.org/ns#"
   xmlns:rdf="http://www.w3.org/1999/02/22-rdf-syntax-ns#"
   xmlns:svg="http://www.w3.org/2000/svg"
   xmlns="http://www.w3.org/2000/svg"
   xml:space="preserve"
   viewBox="0 0 342.138 342.138"
   height="342.138"
   width="342.138"
   y="0px"
   x="0px"
   id="Layer_1"
   version="1.1"><metadata
   id="metadata49"><rdf:RDF><cc:Work
       rdf:about=""><dc:format>image/svg+xml</dc:format><dc:type
         rdf:resource="http://purl.org/dc/dcmitype/StillImage" /></cc:Work></rdf:RDF></metadata><defs
   id="defs47" />
<g
   transform="translate(-130.963,-204.299)"
   id="g42">
	
		<rect
   id="rect2"
   height="341.13599"
   width="341.13599"
   style="clip-rule:evenodd;fill:#0079c1;fill-rule:evenodd;stroke:#0079c1;stroke-width:1.00199997;stroke-miterlimit:10"
   y="204.8"
   x="131.464" />
	<polygon
   id="polygon4"
   points="132.688,214.664 134.416,211.136 136.72,208.544 139.6,206.528 144.208,204.8 146.8,204.8 457.552,204.8 461.296,205.088 464.464,206.528 467.704,208.544 470.008,211.136 471.736,214.664 472.6,218.12 472.6,532.328 471.736,536.072 470.008,539.24 467.704,541.832 464.464,544.136 461.296,545.288 457.552,545.936 145.072,545.576 141.328,544.712 138.16,542.984 135.28,540.68 133.264,537.8 132.688,536.072 131.824,532.328 131.464,219.848 132.112,216.392 "
   style="clip-rule:evenodd;fill:#ffffff;fill-rule:evenodd" />
	<polygon
   id="polygon6"
   points="140.464,216.104 141.04,214.952 141.904,214.088 143.056,213.224 145.648,212.288 146.8,212.288 457.552,212.288 460.144,212.648 462.448,214.088 464.176,216.104 465.112,218.696 465.4,219.848 465.4,530.6 464.752,533.192 463.6,535.496 461.584,537.224 458.992,538.088 457.552,538.088 146.8,538.088 144.208,537.8 141.904,536.36 140.464,534.344 139.312,532.04 139.312,219.848 139.888,217.256 "
   style="clip-rule:evenodd;fill:#0079c1;fill-rule:evenodd" />
	<g
   id="g18">
		<polygon
   id="polygon8"
   points="204.04,424.544 204.04,413.384 253.432,413.384 253.432,424.544 234.352,424.544 234.352,488.984 223.048,488.984 223.048,424.544 "
   style="clip-rule:evenodd;fill:#ffffff;fill-rule:evenodd" />
		<polygon
   id="polygon10"
   points="291.52,413.384 311.392,488.984 300.16,488.984 296.416,476.312 273.592,476.312 269.848,488.984 258.616,488.984 278.56,413.384 "
   style="clip-rule:evenodd;fill:#ffffff;fill-rule:evenodd" />
		<polygon
   id="polygon12"
   points="293.248,464.72 276.832,464.72 285.184,435.848 "
   style="clip-rule:evenodd;fill:#0079c1;fill-rule:evenodd" />
		<polygon
   id="polygon14"
   points="322.984,413.384 335.656,413.384 345.448,434.984 355.6,413.384 368.272,413.384 352.144,449.096 370.36,488.984 357.328,488.984 345.448,463.28 333.928,488.984 320.896,488.984 339.112,449.096 "
   style="clip-rule:evenodd;fill:#ffffff;fill-rule:evenodd" />
		<rect
   id="rect16"
   height="75.599998"
   width="11.304"
   style="clip-rule:evenodd;fill:#ffffff;fill-rule:evenodd"
   y="413.384"
   x="388.216" />
	</g>
	<g
   id="g40">
		<rect
   id="rect20"
   height="8.0640001"
   width="253.87199"
   style="clip-rule:evenodd;fill:#ffffff;fill-rule:evenodd"
   y="346.64001"
   x="176.248" />
		<path
   id="path22"
   d="M 193.024,338.864 V 304.16 l 9.504,-35.496 h 67.32 v -3.456 l -28.008,-19.944 34.416,-23.112 33.984,23.4 -28.512,19.656 v 3.456 h 121.248 l 8.928,33.48 v 36.72 h -26.28 c -2.304,8.352 -11.808,10.944 -18.792,2.592 h -5.472 c -4.896,6.912 -13.536,6.336 -17.928,0 h -80.784 c -4.32,6.336 -13.32,6.912 -17.64,0 h -6.624 c -5.184,7.2 -16.488,6.336 -19.08,-2.592 z"
   style="clip-rule:evenodd;fill:#ffffff;fill-rule:evenodd" />
		<polygon
   id="polygon24"
   points="220.456,276.44 220.456,303.008 198.496,303.008 205.192,276.44 "
   style="clip-rule:evenodd;fill:#0079c1;fill-rule:evenodd" />
		<rect
   id="rect26"
   height="26.568001"
   width="26.639999"
   style="clip-rule:evenodd;fill:#0079c1;fill-rule:evenodd"
   y="276.44"
   x="225.64" />
		<rect
   id="rect28"
   height="26.568001"
   width="26.568001"
   style="clip-rule:evenodd;fill:#0079c1;fill-rule:evenodd"
   y="276.44"
   x="257.46399" />
		<rect
   id="rect30"
   height="26.568001"
   width="26.208"
   style="clip-rule:evenodd;fill:#0079c1;fill-rule:evenodd"
   y="276.44"
   x="289.216" />
		<rect
   id="rect32"
   height="26.568001"
   width="26.351999"
   style="clip-rule:evenodd;fill:#0079c1;fill-rule:evenodd"
   y="276.44"
   x="320.896" />
		<rect
   id="rect34"
   height="26.568001"
   width="26.280001"
   style="clip-rule:evenodd;fill:#0079c1;fill-rule:evenodd"
   y="276.44"
   x="352.43201" />
		<polygon
   id="polygon36"
   points="300.16,244.688 275.968,262.04 251.704,245.264 276.256,228.488 "
   style="clip-rule:evenodd;fill:#0079c1;fill-rule:evenodd" />
		<polygon
   id="polygon38"
   points="406.72,303.008 384.184,303.008 384.184,276.44 399.808,276.44 "
   style="clip-rule:evenodd;fill:#0079c1;fill-rule:evenodd" />
	</g>
</g>
</svg>