<?xml version="1.0" encoding="UTF-8"?>
<svg xmlns="http://www.w3.org/2000/svg" version="1.1" viewBox="0 0 341 341">
  <defs>
    <style>
      .cls-1, .cls-2, .cls-3 {
        fill: #0e79bf;
      }

      .cls-2, .cls-4, .cls-5 {
        fill-rule: evenodd;
      }

      .cls-6, .cls-4 {
        fill: #fff;
      }

      .cls-3 {
        stroke: #0e79bf;
        stroke-miterlimit: 10;
        stroke-width: 1px;
      }

      .cls-5 {
        fill: #ef4043;
      }
    </style>
  </defs>
  <!-- Generator: Adobe Illustrator 28.7.1, SVG Export Plug-In . SVG Version: 1.2.0 Build 142)  -->
  <g>
    <g id="Layer_1">
      <g>
        <rect class="cls-3" x=".6" y="0" width="340.5" height="340.5"/>
        <polygon class="cls-4" points=".6 15 1 11.6 1.5 9.9 3.3 6.7 5.6 3.8 8.7 1.8 13 0 15.6 0 325.8 0 329.6 .4 333 1.8 335.9 3.8 338.5 6.7 339.9 9.9 341.1 13.3 341.1 327.2 339.9 330.7 338.5 333.9 335.9 336.7 333 338.8 329.6 339.9 325.8 340.6 13.9 340.6 10.5 339.3 7 337.9 4.4 335.3 2.4 332.4 1.5 330.7 .6 327.2 .6 15"/>
        <polygon class="cls-2" points="8.4 15 8.7 12.4 9.3 11.3 10.2 10.4 11 9.3 12.2 8.7 14.5 7.8 15.9 7.6 326.1 7.6 328.7 8.1 331 9.3 332.7 11.3 333.6 13.9 333.6 15 333.6 325.2 333.3 327.8 331.9 330.1 329.8 331.8 327.3 332.7 326.1 333 15.9 333 13.3 332.4 11 331.3 9.3 329.2 8.4 326.7 8.4 15"/>
        <rect class="cls-6" x="43.6" y="207.6" width="253.7" height="7.8"/>
        <path class="cls-4" d="M60.4,199.5v-34.3l9.8-35.4h66.9v-3.7l-28-19.7,34.3-23.3,34.1,23.3-28.6,19.7v3.7h121.3l8.9,33v36.6h-26.2c-2.6,8.6-12.1,11.2-18.7,2.6h-5.8c-4.9,6.9-13.2,6.3-17.8,0h-80.7c-4,6.6-13.2,6.9-17.4,0h-6.6c-5.5,7.5-16.7,6.6-19-2.6h-26.5Z"/>
        <polygon class="cls-2" points="65.8 164 72.7 137.6 87.7 137.6 87.7 164 65.8 164"/>
        <rect class="cls-1" x="93.2" y="137.6" width="26.3" height="26.4"/>
        <rect class="cls-1" x="124.9" y="137.6" width="26.2" height="26.4"/>
        <rect class="cls-1" x="156.3" y="137.6" width="26.6" height="26.4"/>
        <rect class="cls-1" x="188.1" y="137.6" width="26.4" height="26.4"/>
        <rect class="cls-1" x="219.4" y="137.6" width="26.3" height="26.4"/>
        <polygon class="cls-2" points="119.2 106.1 143.4 89.7 167.3 105.8 143.1 123.2 119.2 106.1"/>
        <polygon class="cls-2" points="251.4 137.6 266.7 137.6 273.9 164 251.4 164 251.4 137.6"/>
        <polygon class="cls-5" points="8.2 306.2 8.2 323.2 8.2 326.7 9.3 329.2 11.9 331.8 15.6 333 34.9 333 333.6 34.3 333.6 15 333.3 13.9 331.9 10.4 329.6 8.7 324.4 8.1 306.8 7.6 8.2 306.2"/>
      </g>
    </g>
  </g>
</svg>