<?xml version="1.0" encoding="UTF-8"?>
<svg xmlns="http://www.w3.org/2000/svg" version="1.1" viewBox="0 0 341 341">
  <defs>
    <style>
      .cls-1, .cls-2, .cls-3 {
        fill: #0e79bf;
      }

      .cls-2, .cls-4, .cls-5 {
        fill-rule: evenodd;
      }

      .cls-6, .cls-4 {
        fill: #fff;
      }

      .cls-5 {
        fill: #ef4043;
      }

      .cls-3 {
        stroke: #0e79bf;
        stroke-miterlimit: 10;
        stroke-width: 1px;
      }
    </style>
  </defs>
  <!-- Generator: Adobe Illustrator 28.7.1, SVG Export Plug-In . SVG Version: 1.2.0 Build 142)  -->
  <g>
    <g id="Layer_1">
      <g>
        <rect class="cls-3" x=".8" y=".2" width="340.1" height="340.1"/>
        <polygon class="cls-4" points=".8 15.2 1.3 11.8 1.7 10 3.4 6.9 6 4 8.9 2 13.5 .2 16.1 .2 325.9 .2 329.4 .5 332.8 2 336 4 338.3 6.9 340 10 340.9 13.5 340.9 327.1 340 330.5 338.3 333.7 336 336.6 332.8 338.6 329.4 339.8 325.9 340.4 14.1 340.4 10.6 339.1 7.5 337.7 4.6 335.1 2.6 332.2 1.7 330.5 .8 327.1 .8 15.2"/>
        <polygon class="cls-2" points="8.6 15.2 9.2 12.6 9.5 11.5 10.3 10.6 11.2 9.5 12.4 8.9 15 8 16.1 7.7 325.9 7.7 328.5 8.3 330.8 9.5 332.5 11.5 333.4 14.1 333.7 15.2 333.7 325 333.1 327.6 331.7 329.9 329.7 331.7 327.4 332.5 325.9 332.8 16.1 332.8 13.5 332.2 11.2 331.1 9.5 329.1 8.6 326.5 8.6 15.2"/>
        <g>
          <polygon class="cls-4" points="92.1 283.9 92.1 219.6 73.1 219.6 73.1 208.1 122.4 208.1 122.4 219.6 103.4 219.6 103.4 283.9 92.1 283.9"/>
          <polygon class="cls-4" points="127.6 283.9 147.4 208.1 160.4 208.1 180.3 283.9 169 283.9 165.3 270.9 142.5 270.9 138.8 283.9 127.6 283.9"/>
          <polygon class="cls-2" points="145.7 259.7 153.8 230.9 162.1 259.7 145.7 259.7"/>
          <polygon class="cls-4" points="189.7 283.9 207.8 243.8 191.4 208.1 204.4 208.1 214.2 229.7 224 208.1 236.9 208.1 220.8 243.8 238.9 283.9 226 283.9 214.2 257.9 202.7 283.9 189.7 283.9"/>
          <rect class="cls-6" x="256.5" y="208.1" width="11.5" height="75.7"/>
        </g>
        <g>
          <rect class="cls-6" x="45.5" y="141.9" width="253.1" height="7.8"/>
          <path class="cls-4" d="M62.2,133.9v-34.3l9.5-35.4h67.1v-3.7l-27.9-19.6,34-23.3,34.3,23.3-28.5,19.6v3.7h120.9l8.9,33.1v36.6h-26.2c-2.6,8.6-12.1,11.2-18.7,2.6h-5.5c-4.9,6.9-13.5,6.3-17.9,0h-80.6c-4.3,6.6-13.2,6.9-17.6,0h-6.6c-5.2,7.5-16.4,6.6-19-2.6h-26.2Z"/>
          <polygon class="cls-2" points="67.4 98.5 74.3 72 89.3 72 89.3 98.5 67.4 98.5"/>
          <rect class="cls-1" x="94.7" y="72" width="26.5" height="26.5"/>
          <rect class="cls-1" x="126.4" y="72" width="26.2" height="26.5"/>
          <rect class="cls-1" x="158.1" y="72" width="26.2" height="26.5"/>
          <rect class="cls-1" x="189.7" y="72" width="26.2" height="26.5"/>
          <rect class="cls-1" x="220.8" y="72" width="26.5" height="26.5"/>
          <polygon class="cls-2" points="120.7 40.6 145.1 24.1 169 40.3 144.6 57.6 120.7 40.6"/>
          <polygon class="cls-2" points="252.8 72 268 72 275.2 98.5 252.8 98.5 252.8 72"/>
        </g>
        <polygon class="cls-5" points="8.3 306 8.6 326.5 10.1 329.9 12.1 331.7 16.1 332.8 35.1 332.8 333.4 34.5 333.4 15.2 332.8 12.6 331.7 10.6 329.7 8.9 325.9 7.7 306.6 7.7 8.3 306"/>
      </g>
    </g>
  </g>
</svg>