<?xml version="1.0" encoding="UTF-8" standalone="no"?>
<svg
   xmlns:dc="http://purl.org/dc/elements/1.1/"
   xmlns:cc="http://creativecommons.org/ns#"
   xmlns:rdf="http://www.w3.org/1999/02/22-rdf-syntax-ns#"
   xmlns:svg="http://www.w3.org/2000/svg"
   xmlns="http://www.w3.org/2000/svg"
   xml:space="preserve"
   viewBox="0 0 341.13028 341.13028"
   height="341.13028"
   width="341.13028"
   y="0px"
   x="0px"
   id="Layer_1"
   version="1.1"><metadata
   id="metadata51"><rdf:RDF><cc:Work
       rdf:about=""><dc:format>image/svg+xml</dc:format><dc:type
         rdf:resource="http://purl.org/dc/dcmitype/StillImage" /></cc:Work></rdf:RDF></metadata><defs
   id="defs49" />
<g
   transform="translate(-109.21885,-256.06684)"
   id="g44">
	
		<rect
   id="rect2"
   height="340.12799"
   width="340.12799"
   style="clip-rule:evenodd;fill:#0079c1;fill-rule:evenodd;stroke:#0079c1;stroke-width:1.00230002;stroke-miterlimit:10"
   y="256.56799"
   x="109.72" />
	<polygon
   id="polygon4"
   points="110.656,266.36 112.384,263.192 114.976,260.312 117.856,258.296 122.464,256.568 125.056,256.568 434.872,256.568 438.328,256.856 441.784,258.296 444.952,260.312 447.256,263.192 448.984,266.36 449.848,269.816 449.848,583.376 448.984,586.832 447.256,590 444.952,592.88 441.784,594.896 438.328,596.12 434.872,596.696 123.04,596.696 119.584,595.472 116.416,594.032 113.536,591.44 111.52,588.56 110.656,586.832 109.72,583.376 109.72,271.544 110.296,268.088 "
   style="clip-rule:evenodd;fill:#ffffff;fill-rule:evenodd" />
	<polygon
   id="polygon6"
   points="118.432,267.8 119.296,266.936 120.16,265.784 121.312,265.208 123.904,264.344 125.056,264.056 434.872,264.056 437.464,264.632 439.768,265.784 441.496,267.8 442.36,270.392 442.648,271.544 442.648,581.36 442.072,583.952 440.632,586.256 438.616,587.984 436.312,588.848 434.872,589.136 125.056,589.136 122.464,588.56 120.16,587.408 118.432,585.392 117.568,582.8 117.568,271.544 118.144,268.952 "
   style="clip-rule:evenodd;fill:#0079c1;fill-rule:evenodd" />
	<g
   id="g18">
		<polygon
   id="polygon8"
   points="182.08,475.952 182.08,464.432 231.328,464.432 231.328,475.952 212.32,475.952 212.32,540.176 201.088,540.176 201.088,475.952 "
   style="clip-rule:evenodd;fill:#ffffff;fill-rule:evenodd" />
		<polygon
   id="polygon10"
   points="269.344,464.432 289.216,540.176 277.984,540.176 274.24,527.216 251.488,527.216 247.744,540.176 236.512,540.176 256.384,464.432 "
   style="clip-rule:evenodd;fill:#ffffff;fill-rule:evenodd" />
		<polygon
   id="polygon12"
   points="271.072,515.984 254.656,515.984 262.72,487.184 "
   style="clip-rule:evenodd;fill:#0079c1;fill-rule:evenodd" />
		<polygon
   id="polygon14"
   points="300.376,464.432 313.336,464.432 323.128,486.032 332.92,464.432 345.88,464.432 329.752,500.144 347.896,540.176 334.936,540.176 323.128,514.256 311.608,540.176 298.648,540.176 316.792,500.144 "
   style="clip-rule:evenodd;fill:#ffffff;fill-rule:evenodd" />
		<rect
   id="rect16"
   height="75.744003"
   width="11.52"
   style="clip-rule:evenodd;fill:#ffffff;fill-rule:evenodd"
   y="464.43201"
   x="365.46399" />
	</g>
	<g
   id="g40">
		<rect
   id="rect20"
   height="7.776"
   width="253.08"
   style="clip-rule:evenodd;fill:#ffffff;fill-rule:evenodd"
   y="398.26401"
   x="154.43201" />
		<path
   id="path22"
   d="m 171.136,390.2 v -34.272 l 9.504,-35.424 h 67.104 v -3.744 l -27.936,-19.584 33.984,-23.328 34.272,23.328 -28.512,19.584 v 3.744 H 380.44 l 8.928,33.12 V 390.2 H 363.16 c -2.592,8.64 -12.096,11.232 -18.72,2.592 h -5.472 c -4.896,6.912 -13.536,6.336 -17.856,0 h -80.568 c -4.32,6.624 -13.248,6.912 -17.568,0 h -6.624 c -5.184,7.488 -16.416,6.624 -19.008,-2.592 z"
   style="clip-rule:evenodd;fill:#ffffff;fill-rule:evenodd" />
		<polygon
   id="polygon24"
   points="198.208,328.28 198.208,354.776 176.32,354.776 183.232,328.28 "
   style="clip-rule:evenodd;fill:#0079c1;fill-rule:evenodd" />
		<rect
   id="rect26"
   height="26.496"
   width="26.496"
   style="clip-rule:evenodd;fill:#0079c1;fill-rule:evenodd"
   y="328.28"
   x="203.67999" />
		<rect
   id="rect28"
   height="26.496"
   width="26.208"
   style="clip-rule:evenodd;fill:#0079c1;fill-rule:evenodd"
   y="328.28"
   x="235.36" />
		<rect
   id="rect30"
   height="26.496"
   width="26.208"
   style="clip-rule:evenodd;fill:#0079c1;fill-rule:evenodd"
   y="328.28"
   x="267.04001" />
		<rect
   id="rect32"
   height="26.496"
   width="26.208"
   style="clip-rule:evenodd;fill:#0079c1;fill-rule:evenodd"
   y="328.28"
   x="298.64801" />
		<rect
   id="rect34"
   height="26.496"
   width="26.496"
   style="clip-rule:evenodd;fill:#0079c1;fill-rule:evenodd"
   y="328.28"
   x="329.75201" />
		<polygon
   id="polygon36"
   points="277.984,296.6 253.504,313.88 229.6,296.888 254.08,280.472 "
   style="clip-rule:evenodd;fill:#0079c1;fill-rule:evenodd" />
		<polygon
   id="polygon38"
   points="384.184,354.776 361.72,354.776 361.72,328.28 376.984,328.28 "
   style="clip-rule:evenodd;fill:#0079c1;fill-rule:evenodd" />
	</g>
	<polygon
   id="polygon42"
   points="119.008,586.256 121.024,587.984 125.056,589.136 144.064,589.136 442.36,290.84 442.36,271.544 441.784,268.952 440.632,266.936 438.616,265.208 434.872,264.056 415.576,264.056 117.28,562.352 117.568,582.8 "
   style="clip-rule:evenodd;fill:#ef3e42;fill-rule:evenodd" />
</g>
</svg>