<?xml version="1.0" encoding="UTF-8"?>
<svg id="Layer_1" data-name="Layer 1" xmlns="http://www.w3.org/2000/svg" version="1.1" viewBox="0 0 425.2 425.2">
  <defs>
    <style>
      .cls-1, .cls-2 {
        fill: #007ac2;
      }

      .cls-1, .cls-3 {
        stroke-width: 0px;
      }

      .cls-2 {
        stroke: #fff;
        stroke-miterlimit: 10;
        stroke-width: .5px;
      }

      .cls-3 {
        fill: #fff;
      }
    </style>
  </defs>
  <g id="LWPOLYLINE">
    <rect class="cls-2" x="0" width="425.2" height="425.2"/>
  </g>
  <g id="LWPOLYLINE-2">
    <path class="cls-3" d="M425.2,28.3v368.6c0,15.6-12.7,28.3-28.3,28.3H28.4c-15.7,0-28.3-12.7-28.3-28.3V28.4c0-15.7,12.7-28.3,28.3-28.3h368.5C412.5,0,425.2,12.7,425.2,28.3Z"/>
  </g>
  <g id="LWPOLYLINE-3">
    <path class="cls-1" d="M411,28.3v368.6c0,7.8-6.4,14.2-14.2,14.2H28.3c-7.8,0-14.2-6.3-14.2-14.2V28.4c0-7.8,6.3-14.2,14.2-14.2h368.6c7.8,0,14.2,6.4,14.2,14.2h-.1Z"/>
  </g>
  <path id="path2508" class="cls-3" d="M115.3,160.8c0-10.5-8.6-19.1-19.1-19.1s-19.1,8.5-19.1,19.1,8.6,19.1,19.1,19.1,19.1-8.6,19.1-19.1"/>
  <path id="path2508-2" data-name="path2508" class="cls-3" d="M305.7,160.9c0-10.5-8.6-19.1-19.1-19.1s-19.1,8.5-19.1,19.1,8.6,19.1,19.1,19.1,19.1-8.6,19.1-19.1"/>
  <path class="cls-3" d="M333.6,134.2v7.6h21.4v19.1h-44.9c.2-13.6-10-24.8-22.8-25-8.9-.1-21.6,4.7-23.9,24.9H119.3c.2-13.6-10-24.8-22.7-25-12.8-.2-23.3,10.6-23.5,24.2,0,.3,0,.5,0,.8h-11v-42.3l16.7-38.9h51.5v59.7h28.6v-7.6h-21.4V61h225.6v73.2h-29.5Z"/>
  <polygon id="polygon2512" class="cls-1" points="71.6 119.6 117.2 119.6 117.2 91.9 84.3 91.9 71.6 119.6"/>
  <path id="path2508-3" data-name="path2508" class="cls-1" d="M294.2,160.9c0-4.2-3.4-7.6-7.6-7.6s-7.6,3.4-7.6,7.6,3.4,7.6,7.6,7.6,7.6-3.4,7.6-7.6"/>
  <path id="path2508-4" data-name="path2508" class="cls-1" d="M103.9,160.8c0-4.2-3.4-7.6-7.6-7.6s-7.6,3.4-7.6,7.6,3.4,7.6,7.6,7.6,7.6-3.4,7.6-7.6"/>
  <path class="cls-3" d="M345.4,287.5v-60.1c.1,0-167.2,0-167.2,0l-29,50-67.9.9h-2.7v15.2h1.3c0,.1-1.3,40.6-1.3,40.6h13.6c0-11.4,6.6-22.7,19.7-22.7s19.7,11.4,19.7,22.7h135.8c0-11.4,6.6-22.7,19.7-22.7s19.7,11.4,19.7,22.7h39.8v-46.5h-1.2Z"/>
  <polygon class="cls-1" points="159.7 276 228 276 228 239.2 182.5 239.2 159.7 276"/>
  <path id="path2508-5" data-name="path2508" class="cls-3" d="M128.7,334c0-10.4-7.5-18.8-16.8-18.8s-16.8,8.4-16.8,18.8,7.5,18.8,16.8,18.8,16.8-8.4,16.8-18.8"/>
  <path id="path2508-6" data-name="path2508" class="cls-1" d="M118.6,334c0-4.1-3-7.5-6.7-7.5s-6.7,3.4-6.7,7.5,3,7.5,6.7,7.5,6.7-3.4,6.7-7.5"/>
  <path id="path2508-7" data-name="path2508" class="cls-3" d="M303.5,334c0-10.4-7.5-18.8-16.8-18.8s-16.8,8.4-16.8,18.8,7.5,18.8,16.8,18.8,16.8-8.4,16.8-18.8"/>
  <path id="path2508-8" data-name="path2508" class="cls-1" d="M293.4,334c0-4.1-3-7.5-6.7-7.5s-6.7,3.4-6.7,7.5,3,7.5,6.7,7.5,6.7-3.4,6.7-7.5"/>
</svg>