<?xml version="1.0" encoding="UTF-8" standalone="no"?>
<svg
   xmlns:dc="http://purl.org/dc/elements/1.1/"
   xmlns:cc="http://creativecommons.org/ns#"
   xmlns:rdf="http://www.w3.org/1999/02/22-rdf-syntax-ns#"
   xmlns:svg="http://www.w3.org/2000/svg"
   xmlns="http://www.w3.org/2000/svg"
   xml:space="preserve"
   viewBox="0 0 342.85828 129.2343"
   height="129.2343"
   width="342.85828"
   y="0px"
   x="0px"
   id="Layer_1"
   version="1.1"><metadata
   id="metadata17"><rdf:RDF><cc:Work
       rdf:about=""><dc:format>image/svg+xml</dc:format><dc:type
         rdf:resource="http://purl.org/dc/dcmitype/StillImage" /></cc:Work></rdf:RDF></metadata><defs
   id="defs15" />
<g
   transform="translate(-101.44285,-259.01884)"
   id="g10">
	
		<rect
   id="rect2"
   height="128.23199"
   width="341.85599"
   style="clip-rule:evenodd;fill:#0079c1;fill-rule:evenodd;stroke:#0079c1;stroke-width:1.00230002;stroke-miterlimit:10"
   y="259.51999"
   x="101.944" />
	<polygon
   id="polygon4"
   points="103.456,266.216 104.896,264.2 107.488,261.896 110.656,260.096 114.4,259.52 432.784,259.52 435.088,260.384 438.256,261.896 440.92,264.2 442.648,267.08 443.512,270.536 443.8,375.368 442.936,378.824 441.496,381.992 440.344,383.144 437.68,385.448 434.512,386.888 431.056,387.752 114.112,387.752 112.096,387.464 108.64,386.024 107.2,385.16 105.76,384.008 104.608,382.568 103.456,380.84 102.592,379.112 101.944,375.656 101.944,271.688 102.304,269.096 "
   style="clip-rule:evenodd;fill:#ffffff;fill-rule:evenodd" />
	<polygon
   id="polygon6"
   points="110.08,267.656 111.808,266.216 113.248,265.928 431.92,265.64 433.648,266.216 435.664,267.656 436.528,268.52 437.392,270.824 437.392,376.52 436.816,377.672 435.664,379.688 434.8,380.552 433.648,381.128 432.496,381.416 114.4,381.416 113.248,381.416 111.808,381.128 110.08,379.688 108.64,377.672 108.352,376.52 108.064,375.368 108.064,271.976 108.64,269.672 "
   style="clip-rule:evenodd;fill:#0079c1;fill-rule:evenodd" />
	<polygon
   id="polygon8"
   points="221.824,272.552 187.696,306.752 409.6,306.752 409.6,340.88 187.696,340.88 221.824,374.792 187.696,374.792 136.144,323.528 187.696,272.552 "
   style="clip-rule:evenodd;fill:#ffffff;fill-rule:evenodd" />
</g>
</svg>