<?xml version="1.0" encoding="UTF-8"?>
<svg id="Layer_1" data-name="Layer 1" xmlns="http://www.w3.org/2000/svg" version="1.1" xmlns:cc="http://creativecommons.org/ns#" xmlns:dc="http://purl.org/dc/elements/1.1/" xmlns:rdf="http://www.w3.org/1999/02/22-rdf-syntax-ns#" xmlns:svg="http://www.w3.org/2000/svg" viewBox="0 0 342.9 129.2">
  <defs>
    <style>
      .cls-1 {
        fill: #fff;
      }

      .cls-1, .cls-2 {
        fill-rule: evenodd;
        stroke-width: 0px;
      }

      .cls-2, .cls-3 {
        fill: #0079c1;
      }

      .cls-3 {
        stroke: #0079c1;
        stroke-miterlimit: 10;
        stroke-width: 1px;
      }
    </style>
  </defs>
  <g id="g10">
    <rect id="rect2" class="cls-3" x=".5" y=".5" width="341.9" height="128.2"/>
    <polygon id="polygon4" class="cls-1" points="342 10.1 342.4 12.7 342.4 116.6 341.7 120.1 340.8 121.8 339.7 123.5 338.5 125 337.1 126.1 335.7 127 332.2 128.4 330.2 128.7 13.2 128.7 9.8 127.9 6.6 126.4 4 124.1 2.8 123 1.4 119.8 .5 116.3 .8 11.5 1.7 8.1 3.4 5.2 6 2.9 9.2 1.4 11.5 .5 329.9 .5 333.6 1.1 336.8 2.9 339.4 5.2 340.8 7.2 342 10.1"/>
    <polygon id="polygon6" class="cls-2" points="335.7 10.7 336.2 13 336.2 116.3 335.9 117.5 335.7 118.7 334.2 120.7 332.5 122.1 331.1 122.4 329.9 122.4 11.8 122.4 10.7 122.1 9.5 121.5 8.6 120.7 7.5 118.7 6.9 117.5 6.9 11.8 7.8 9.5 8.6 8.6 10.7 7.2 12.4 6.6 331.1 6.9 332.5 7.2 334.2 8.6 335.7 10.7"/>
    <polygon id="polygon8" class="cls-1" points="256.6 13.5 308.2 64.5 256.6 115.8 222.5 115.8 256.6 81.9 34.7 81.9 34.7 47.7 256.6 47.7 222.5 13.5 256.6 13.5"/>
  </g>
</svg>