<?xml version="1.0" encoding="UTF-8"?>
<svg xmlns="http://www.w3.org/2000/svg" version="1.1" viewBox="0 0 341 488">
  <defs>
    <style>
      .cls-1, .cls-2, .cls-3 {
        fill-rule: evenodd;
      }

      .cls-1, .cls-4 {
        fill: #05a48a;
      }

      .cls-2 {
        fill: #fff;
      }

      .cls-3 {
        fill: #ef4043;
      }

      .cls-4 {
        stroke: #009b7a;
        stroke-miterlimit: 10;
        stroke-width: 1.4px;
      }
    </style>
  </defs>
  <!-- Generator: Adobe Illustrator 28.7.1, SVG Export Plug-In . SVG Version: 1.2.0 Build 142)  -->
  <g>
    <g id="Layer_1">
      <g>
        <rect class="cls-4" x="-.2" y="-.4" width="342.2" height="488.7"/>
        <polygon class="cls-2" points="-.2 19.1 .2 15.3 1.4 11.7 3.1 8.4 5.6 5.4 8.5 3 12.2 .9 15.5 0 19.6 -.4 322.1 -.4 326.3 0 330 .9 333.3 3 336.2 5.4 338.7 8.4 340.8 11.7 341.6 15.3 342 19.1 342 468.9 341.6 472.6 340.8 476.4 338.7 479.7 336.2 482.5 333.3 485.1 330 486.7 326.3 487.9 322.5 488.4 19.6 488.4 15.5 487.9 12.2 486.7 8.5 485.1 5.6 482.5 3.1 479.7 1.4 476.4 .2 472.6 -.2 468.9 -.2 19.1"/>
        <polygon class="cls-1" points="9.7 19.1 10.1 16.6 11 14.1 12.7 12 14.7 10.8 17.2 9.6 19.6 9.1 322.5 9.1 325.1 9.6 327.5 10.8 329.6 12 330.8 14.1 332.1 16.6 332.5 19.1 332.5 468.9 332.1 471.4 330.8 473.8 329.6 475.5 326.7 477.1 325.1 478.4 322.5 478.4 19.6 478.4 17.2 478.4 14.7 477.1 12.7 475.5 11 473.8 10.1 471.4 9.7 468.9 9.7 19.1"/>
        <polygon class="cls-2" points="127.7 173 149.2 26.6 163.7 26.6 159.5 173 127.7 173"/>
        <polygon class="cls-2" points="182.7 173 178.2 26.6 193 26.6 214.1 173 182.7 173"/>
        <polygon class="cls-2" points="26.7 195 90.4 195 86.7 212.3 111.2 212.3 107.4 195 234.4 195 230.7 212.3 255.5 212.3 251.8 195 315.1 195 315.1 185.5 26.7 185.5 26.7 195"/>
        <polygon class="cls-2" points="88 446.5 121.1 219.3 157.9 219.3 151.7 446.5 90.4 446.1 88 446.5"/>
        <polygon class="cls-2" points="190.5 446.5 183.9 219.3 221.2 219.3 254.3 446.5 190.5 446.5"/>
        <polygon class="cls-3" points="10.1 431.2 10.1 468.5 11.8 473 15.1 476.8 20.1 478 36.6 477.6 331.7 56.3 332.5 19.5 330.8 14.5 327.5 10.8 322.5 9.6 305.6 9.6 10.1 431.2"/>
      </g>
    </g>
  </g>
</svg>