<?xml version="1.0" encoding="UTF-8" standalone="no"?>
<svg
   xmlns:dc="http://purl.org/dc/elements/1.1/"
   xmlns:cc="http://creativecommons.org/ns#"
   xmlns:rdf="http://www.w3.org/1999/02/22-rdf-syntax-ns#"
   xmlns:svg="http://www.w3.org/2000/svg"
   xmlns="http://www.w3.org/2000/svg"
   xml:space="preserve"
   viewBox="0 0 398.44009 341.63211"
   height="341.63211"
   width="398.44009"
   y="0px"
   x="0px"
   id="Layer_4"
   version="1.1"><metadata
   id="metadata59"><rdf:RDF><cc:Work
       rdf:about=""><dc:format>image/svg+xml</dc:format><dc:type
         rdf:resource="http://purl.org/dc/dcmitype/StillImage" /></cc:Work></rdf:RDF></metadata><defs
   id="defs57" />
   <rect 
   id="white_background"   
   height="341.63211"
   width="398.44009"
   style="fill:#ffffff;fill-opacity:1;stroke:none" />
<g
   transform="translate(-103.45995,-51.94795)"
   id="g52">
	<g
   id="g6">
		<polygon
   id="polygon2"
   points="147.52,95.288 459.208,95.288 459.208,350.312 147.52,350.312 "
   style="clip-rule:evenodd;fill:#ffffff;fill-rule:evenodd" />
		
			<polyline
   id="polyline4"
   points="    459.208,350.312 147.52,350.312 147.52,95.288 459.208,95.288 459.208,350.312   "
   style="clip-rule:evenodd;fill:none;fill-rule:evenodd;stroke:#ffffff;stroke-width:0;stroke-linejoin:bevel;stroke-miterlimit:10" />
	</g>
	<path
   id="path8"
   d="m 114.544,372.704 c 0,5.472 4.464,9.936 9.936,9.936 v 0 h 35.352 -0.072 L 491.464,98.24 v 0.072 -26.064 0 c 0,-5.472 -4.464,-9.936 -9.936,-9.936 v 0 h -35.424 0.144 l -331.704,284.4 v -0.144 z"
   style="clip-rule:evenodd;fill:#ef3e42;fill-rule:evenodd" />
	
		<polygon
   id="polygon10"
   points="413.272,90.824 152.704,314.672 152.704,90.824 "
   style="clip-rule:evenodd;fill:#ffffff;fill-rule:evenodd;stroke:#ffffff;stroke-width:0;stroke-linejoin:bevel;stroke-miterlimit:10" />
	
		<polygon
   id="polygon12"
   points="197.848,350.96 458.848,126.176 458.848,349.952 "
   style="clip-rule:evenodd;fill:#ffffff;fill-rule:evenodd;stroke:#ffffff;stroke-width:0;stroke-linejoin:bevel;stroke-miterlimit:10" />
	<path
   id="path14"
   d="m 124.48,62.312 c -5.472,0 -9.936,4.464 -9.936,9.936 v 0 274.032 l -1.8,2.88 40.176,-35.28 v 0 -223.92 0.576 h 261.504 l -1.296,0.216 33.408,-28.44 h -1.224 z"
   style="clip-rule:evenodd;fill:#007ac2;fill-rule:evenodd" />
	<path
   id="path16"
   d="M 196.984,350.816 458.488,349.16 V 126.752 l 0.36,-0.432 32.688,-28.224 -0.072,0.144 v 274.464 0 c 0,2.664 -1.008,5.184 -2.88,7.056 -1.872,1.872 -4.392,2.88 -7.056,2.88 h 1.944 -323.784 0.072 l 37.224,-31.896 z"
   style="clip-rule:evenodd;fill:#007ac2;fill-rule:evenodd" />
	
		<line
   id="line18"
   y2="52.448002"
   x2="501.39999"
   y1="52.448002"
   x1="104.608"
   style="clip-rule:evenodd;fill:none;fill-rule:evenodd;stroke:#007ac2;stroke-width:1.00010002;stroke-linejoin:bevel;stroke-miterlimit:10" />
	
		<line
   id="line20"
   y2="392.57599"
   x2="501.39999"
   y1="392.57599"
   x1="104.608"
   style="clip-rule:evenodd;fill:none;fill-rule:evenodd;stroke:#007ac2;stroke-width:1.00010002;stroke-linejoin:bevel;stroke-miterlimit:10" />
	
		<path
   id="path22"
   d="m 501.4,52.448 v 340.128 h -19.872 c 5.256,0 10.296,-2.088 14.04,-5.832 3.744,-3.744 5.832,-8.784 5.832,-14.04 V 72.248 c 0,-10.944 -8.928,-19.8 -19.872,-19.8 z"
   style="clip-rule:evenodd;fill:#007ac2;fill-rule:evenodd;stroke:#007ac2;stroke-width:1.00010002;stroke-linejoin:bevel;stroke-miterlimit:10" />
	
		<path
   id="path24"
   d="M 103.96,393.08 V 52.88 h 19.8 c -5.256,0 -10.296,2.16 -14.04,5.832 -3.672,3.744 -5.76,8.784 -5.76,14.04 v 300.456 c 0,10.944 8.856,19.872 19.8,19.872 z"
   style="clip-rule:evenodd;fill:#007ac2;fill-rule:evenodd;stroke:#007ac2;stroke-width:1.00010002;stroke-linejoin:bevel;stroke-miterlimit:10" />
	
		<polygon
   id="polygon26"
   points="448.912,293.144 264.16,293.144 240.904,313.088 448.912,313.088 "
   style="clip-rule:evenodd;fill-rule:evenodd;stroke:#000000;stroke-width:0.21600001;stroke-linejoin:bevel;stroke-miterlimit:10" />
	<g
   id="g32">
		<polygon
   id="polygon28"
   points="375.544,287.6 417.952,287.6 417.952,200.624 375.544,212.432 "
   style="clip-rule:evenodd;fill-rule:evenodd" />
		
			<polyline
   id="polyline30"
   points="    417.952,200.624 375.544,212.432 375.544,287.6 417.952,287.6 417.952,200.624 417.952,200.624   "
   style="clip-rule:evenodd;fill:none;fill-rule:evenodd;stroke:#000000;stroke-width:0;stroke-linejoin:bevel;stroke-miterlimit:10" />
	</g>
	<path
   id="path34"
   d="m 361.144,209.912 c 1.584,1.8 3.096,3.672 4.464,5.616 v 69.192 0 h -91.584 z"
   style="clip-rule:evenodd;fill-rule:evenodd;stroke:#000000;stroke-width:0;stroke-linejoin:bevel;stroke-miterlimit:10" />
	<g
   id="g40">
		<path
   id="path36"
   d="m 255.736,187.52 -24.048,-49.464 -41.904,51.12 45,17.28 c 5.904,-7.416 12.96,-13.824 20.952,-18.936 z"
   style="clip-rule:evenodd;fill-rule:evenodd" />
		
			<path
   id="path38"
   d="m 255.736,187.52 -24.048,-49.464 -41.904,51.12 45,17.28 c 5.904,-7.416 12.96,-13.824 20.952,-18.936 v 0"
   style="clip-rule:evenodd;fill:none;fill-rule:evenodd;stroke:#000000;stroke-width:0;stroke-linejoin:bevel;stroke-miterlimit:10" />
	</g>
	<path
   id="path42"
   d="m 403.48,173.696 12.744,15.48 -45,17.28 c -0.864,-1.008 -1.656,-2.016 -2.52,-2.952 z"
   style="clip-rule:evenodd;fill-rule:evenodd;stroke:#000000;stroke-width:0;stroke-linejoin:bevel;stroke-miterlimit:10" />
	
		<polygon
   id="polygon44"
   points="230.464,212.432 230.464,247.352 188.056,283.712 188.056,200.624 "
   style="clip-rule:evenodd;fill-rule:evenodd;stroke:#000000;stroke-width:0;stroke-linejoin:bevel;stroke-miterlimit:10" />
	
		<polygon
   id="polygon46"
   points="157.024,310.28 177.04,293.144 157.024,293.144 "
   style="clip-rule:evenodd;fill-rule:evenodd;stroke:#000000;stroke-width:0;stroke-linejoin:bevel;stroke-miterlimit:10" />
	<path
   id="path48"
   d="m 315.424,174.488 c -18.072,-2.664 -36.576,0.504 -52.848,9 L 242.704,131.72 v 0 h 120.6 l -1.008,2.592 z"
   style="clip-rule:evenodd;fill-rule:evenodd;stroke:#000000;stroke-width:0;stroke-linejoin:bevel;stroke-miterlimit:10" />
	<path
   id="path50"
   d="m 240.4,238.856 v -23.328 c 14.904,-20.664 39.096,-32.616 64.44,-31.968 z"
   style="clip-rule:evenodd;fill-rule:evenodd;stroke:#000000;stroke-width:0;stroke-linejoin:bevel;stroke-miterlimit:10" />
</g>
</svg>