<?xml version="1.0" encoding="UTF-8"?>
<svg xmlns="http://www.w3.org/2000/svg" version="1.1" viewBox="0 0 341 205">
  <defs>
    <style>
      .cls-1, .cls-2 {
        fill: #fed208;
      }

      .cls-1, .cls-3 {
        fill-rule: evenodd;
      }

      .cls-3 {
        fill: #010101;
      }
    </style>
  </defs>
  <!-- Generator: Adobe Illustrator 28.7.1, SVG Export Plug-In . SVG Version: 1.2.0 Build 142)  -->
  <g>
    <g id="Layer_1">
      <g>
        <rect class="cls-2" x="-.9" y=".2" width="341.9" height="205.2"/>
        <polygon class="cls-3" points="-.5 16.7 .7 12.9 2.7 9.5 5.3 6.2 8.1 3.7 11.6 1.9 15.7 .8 322.5 .5 328.3 1.9 333.4 5.1 336.3 7.7 338.4 11.2 340.4 16.7 341 20.7 340.4 188.8 338.4 194.7 336.3 197.8 333.4 200.7 330 203 326.2 204.5 322.5 205.4 17.7 205.4 13.7 204.5 9.9 203 6.7 200.7 3.8 197.8 1.5 194.7 -.5 188.8 -.5 16.7"/>
        <polygon class="cls-1" points="9.3 20.7 9.9 17.8 11 15.2 12.8 13.2 15.4 11.5 18.3 10.6 320.4 10.6 323.4 10.9 326 12.4 328.3 14.1 330.3 17.8 330.6 20.7 330.6 184.8 329.7 189.1 327.1 192.7 324.8 194.1 321.8 195 19.7 195.2 16.9 194.7 14 193.5 11.9 191.5 10.2 189.1 9.3 186.2 9.3 20.7"/>
        <polygon class="cls-3" points="19.7 188.3 17.4 187.4 16.3 185.7 16.3 123.5 49.5 109.6 82.8 123.5 82.8 150.8 88.1 150.8 88.1 137.1 112.1 34.6 135.8 137.1 135.8 150.8 141.1 150.8 141.1 133.6 153.7 116.6 167.3 116.6 167.3 109.9 187.9 109.9 187.9 116.6 201.5 116.6 214.5 133.6 214.5 144.1 219.4 144.1 219.4 120 247.8 102.9 275.8 120 275.8 154.2 281.1 154.2 281.1 91.1 302.5 85.9 323.9 91.1 323.9 184.8 323.1 187.1 320.4 188.3 19.7 188.3"/>
      </g>
    </g>
  </g>
</svg>