<?xml version="1.0" encoding="UTF-8"?>
<svg xmlns="http://www.w3.org/2000/svg" version="1.1" viewBox="0 0 341 205">
  <defs>
    <style>
      .cls-1, .cls-2 {
        fill: #fed208;
      }

      .cls-1, .cls-3, .cls-4 {
        fill-rule: evenodd;
      }

      .cls-3 {
        fill: #ef4043;
      }

      .cls-4 {
        fill: #010101;
      }
    </style>
  </defs>
  <!-- Generator: Adobe Illustrator 28.7.1, SVG Export Plug-In . SVG Version: 1.2.0 Build 142)  -->
  <g>
    <g id="Layer_1">
      <g>
        <rect class="cls-2" x="-.5" y=".5" width="341.1" height="204.7"/>
        <polygon class="cls-4" points="-.2 17.1 1 13.3 3 9.8 5.7 6.6 8.6 3.9 12.1 2.2 15.9 1 322.2 .7 328 2.2 333 5.1 335.9 8 338.2 11.5 340 17.1 340.6 20.9 340 188.7 338.2 194.3 335.9 197.5 333 200.5 329.7 202.8 325.9 204.3 322.2 205.1 18 205.1 14.2 204.3 10.3 202.8 7.1 200.5 4.2 197.5 1.8 194.3 -.2 188.7 -.2 17.1"/>
        <polygon class="cls-1" points="9.8 20.9 10.1 18.2 11.5 15.4 13.3 13.3 15.6 11.8 18.5 11 320.1 11 323 11.3 325.6 12.4 327.7 14.5 329.7 18.2 330.3 20.9 330.3 184.7 329.4 188.7 326.9 192.3 324.2 194.1 321.5 194.9 20 194.9 17 194.6 14.4 193.1 12.4 191.4 10.6 188.7 9.8 186.1 9.8 20.9"/>
        <polygon class="cls-4" points="20 188.2 18 187.3 16.7 185.6 16.5 123.3 49.9 109.8 83.2 123.3 83.2 150.5 88.2 150.5 88.2 137 112.1 34.7 135.8 137 135.8 150.8 141.1 150.8 141.1 133.5 154 116.6 167.4 116.6 167.4 109.8 187.9 109.8 187.9 116.6 201.6 116.6 214.2 133.5 214.2 143.8 219.4 143.8 219.4 120.1 247.5 103.1 275.6 120.1 275.6 154 280.9 154 280.9 91.1 302.2 85.8 323.3 91.1 323.3 184.7 322.7 186.7 320.1 188.2 20 188.2"/>
        <polygon class="cls-3" points="9.5 179.1 9.5 184.7 10.1 187.6 11.2 190.2 12.9 192.5 15.6 194.1 18.3 194.9 19.7 194.9 49.5 194.9 330.3 26.7 330.3 20.9 329.7 18.2 328.6 15.6 326.9 13.3 324.2 11.8 321.5 11 320.1 11 290.3 11 9.5 179.1"/>
      </g>
    </g>
  </g>
</svg>