<?xml version="1.0" encoding="UTF-8" standalone="no"?>
<svg
   xmlns:dc="http://purl.org/dc/elements/1.1/"
   xmlns:cc="http://creativecommons.org/ns#"
   xmlns:rdf="http://www.w3.org/1999/02/22-rdf-syntax-ns#"
   xmlns:svg="http://www.w3.org/2000/svg"
   xmlns="http://www.w3.org/2000/svg"
   xml:space="preserve"
   viewBox="0 0 398.1521 282.8801"
   height="282.8801"
   width="398.1521"
   y="0px"
   x="0px"
   id="Layer_1"
   version="1.1"><metadata
   id="metadata33"><rdf:RDF><cc:Work
       rdf:about=""><dc:format>image/svg+xml</dc:format><dc:type
         rdf:resource="http://purl.org/dc/dcmitype/StillImage" /></cc:Work></rdf:RDF></metadata><defs
   id="defs31" />
   <rect 
   id="white_background"   
   height="282.8801"
   width="398.1521"
   style="fill:#ffffff;fill-opacity:1;stroke:none" />
   <g
   transform="translate(-91.579952,-219.05995)"
   id="g26">
	<g
   id="g4">
		<path
   id="path2"
   d="m 91.648,478.832 v 0 0 c 0,6.264 2.592,11.952 6.624,16.056 v 0 c -4.032,-4.104 -6.624,-9.792 -6.624,-16.056 z m 0,0 z m 6.624,16.056 c 4.104,4.032 9.792,6.624 16.056,6.624 v 0 c -6.264,0 -11.952,-2.592 -16.056,-6.624 z m 16.056,6.624 v 0 z m 0,0"
   style="fill:#007ac2" />
	</g>
	
		<path
   id="path6"
   d="m 477.136,240.8 c 0,-6.264 -5.112,-11.376 -11.376,-11.376 v 0 H 114.328 v 0 c -6.264,0 -11.304,5.112 -11.304,11.376 v 0 238.032 0 c 0,6.264 5.04,11.304 11.304,11.304 v 0 H 465.76 v 0 c 3.024,0 5.904,-1.152 7.992,-3.312 2.16,-2.088 3.384,-4.968 3.384,-7.992 v 0 z"
   style="clip-rule:evenodd;fill:#007ac2;fill-rule:evenodd;stroke:#007ac2;stroke-width:0;stroke-linejoin:bevel;stroke-miterlimit:10" />
	
		<path
   id="path8"
   d="m 281.44,259.232 c 0,-8.568 -6.912,-15.48 -15.48,-15.48 -8.496,0 -15.408,6.912 -15.408,15.48 0,8.496 6.912,15.48 15.408,15.48 8.568,0 15.48,-6.984 15.48,-15.48 z"
   style="clip-rule:evenodd;fill:#ffffff;fill-rule:evenodd;stroke:#ffffff;stroke-width:0;stroke-linejoin:bevel;stroke-miterlimit:10" />
	
		<path
   id="path10"
   d="m 359.776,355.856 c 0,-6.336 -5.112,-11.448 -11.448,-11.448 -6.264,0 -11.376,5.112 -11.376,11.448 0,6.336 5.112,11.448 11.376,11.448 6.336,0 11.448,-5.112 11.448,-11.448 z"
   style="clip-rule:evenodd;fill:#ffffff;fill-rule:evenodd;stroke:#ffffff;stroke-width:0;stroke-linejoin:bevel;stroke-miterlimit:10" />
	
		<path
   id="path12"
   d="m 322.912,360.608 c 1.296,-1.8 1.152,-4.104 -0.288,-5.832 v 0 l -17.856,-28.512 v 0 l -9,-34.056 v 0 c -1.728,-4.464 -5.688,-8.208 -10.8,-10.224 v 0 l -12.24,-4.608 v 0 h -16.416 v 0 l -13.32,4.32 v 0 c -3.816,1.44 -7.488,4.608 -9.432,8.208 v 0 l -14.256,37.08 v 0 l 4.032,40.176 v 0 c -0.288,1.872 0.648,3.816 2.448,4.824 1.728,1.008 4.032,0.936 5.76,-0.216 1.656,-1.152 2.448,-3.024 2.016,-4.896 v 0 l -0.72,-33.84 v 0 l 8.928,-23.328 v 0 l 5.544,154.584 v 0 c -0.288,3.168 1.08,6.192 3.6,7.848 2.592,1.656 5.832,1.656 8.64,0 2.736,-1.584 4.536,-4.608 4.608,-7.776 v 0 l 0.216,-99.936 v 0 l 10.152,41.904 v 0 l 1.224,47.736 0.072,-0.144 c 0.36,4.32 3.96,7.56 8.28,7.56 4.32,0.072 7.92,-3.24 8.352,-7.488 v 0 l -0.792,-52.344 v 0 l -5.256,-61.416 v 0 l 0.216,-29.88 v 0 l 2.664,17.424 v 0 l 24.12,32.688 v 0 c 0.648,0.936 1.584,1.656 2.664,2.088 v 0 l 6.984,20.088 v 0 l 10.656,0.504 v 0 l 3.24,76.32 v 0 c -0.216,1.728 0.648,3.312 2.16,4.248 1.512,1.008 3.528,1.08 5.184,0.288 1.584,-0.792 2.664,-2.304 2.664,-3.96 v 0 l 0.576,-42.696 v 0 c 0.288,-0.432 0.792,-0.72 1.44,-0.792 0.576,-0.072 1.152,0.144 1.512,0.576 v 0 c 2.376,2.376 3.744,5.472 3.816,8.712 v 0 c 0.216,8.712 0.072,17.496 -0.576,26.208 v 0 c -0.144,1.728 0.792,3.456 2.448,4.464 1.656,0.936 3.744,1.08 5.472,0.216 1.728,-0.792 2.88,-2.376 2.952,-4.176 v 0 l 1.44,-31.752 v 0 l -3.384,-34.992 v 0 l 5.4,7.992 v 0 l 0.648,7.56 v 0 l 0.504,7.488 v 0 c 0.072,1.152 0.72,2.16 1.728,2.592 1.008,0.504 2.16,0.432 3.096,-0.216 0.864,-0.72 1.368,-1.8 1.152,-2.88 v 0 l -0.576,-13.68 v 0 c -0.072,-3.24 -0.72,-6.264 -1.944,-8.568 v 0 l -7.776,-11.736 v 0 c -1.728,-3.096 -5.256,-5.112 -9.072,-5.112 v 0 H 342.28 v 0 l -14.256,3.24 v 0 z"
   style="clip-rule:evenodd;fill:#ffffff;fill-rule:evenodd;stroke:#ffffff;stroke-width:0;stroke-linejoin:bevel;stroke-miterlimit:10" />
	<path
   id="path14"
   d="m 91.72,479.408 v 21.96 h 22.104 l 0.648,0.072 c -12.528,0 -22.68,-10.152 -22.68,-22.68 z"
   style="clip-rule:evenodd;fill:#007ac2;fill-rule:evenodd" />
	<path
   id="path16"
   d="m 91.72,241.592 v -21.888 h 22.104 l 0.648,-0.072 c -12.528,0 -22.68,10.152 -22.68,22.68 z"
   style="clip-rule:evenodd;fill:#007ac2;fill-rule:evenodd" />
	<path
   id="path18"
   d="m 489.088,241.592 v -21.96 h -22.104 l -0.576,-0.072 c 12.456,0 22.608,10.152 22.608,22.68 z"
   style="clip-rule:evenodd;fill:#007ac2;fill-rule:evenodd" />
	<path
   id="path20"
   d="m 488.8,479.408 v 21.96 h -22.104 l -0.648,0.072 c 12.528,0 22.68,-10.152 22.68,-22.68 z"
   style="clip-rule:evenodd;fill:#007ac2;fill-rule:evenodd" />
	
		<rect
   id="rect22"
   height="281.88"
   width="397.15201"
   style="clip-rule:evenodd;fill:none;fill-rule:evenodd;stroke:#007ac2;stroke-width:1.00010002;stroke-miterlimit:10"
   y="219.56"
   x="92.080002" />
	<path
   id="path24"
   d="m 103.024,468.824 335.88,-239.616 h 27.792 c 5.544,0.792 7.776,2.592 10.008,7.272 l 0.576,13.896 -334.728,239.616 -26.424,0.504 c -4.608,-0.072 -9.288,-1.512 -11.16,-5.328 l -1.944,-4.104 z"
   style="clip-rule:evenodd;fill:#ef3e42;fill-rule:evenodd" />
</g>
</svg>