<?xml version="1.0" encoding="UTF-8"?>
<svg xmlns="http://www.w3.org/2000/svg" version="1.1" viewBox="0 0 595 842">
  <defs>
    <style>
      .cls-1 {
        stroke: #0079c1;
        stroke-miterlimit: 10;
        stroke-width: 1.4px;
      }

      .cls-1, .cls-2 {
        fill: #0079c1;
      }

      .cls-3 {
        fill: #fff;
      }

      .cls-3, .cls-2 {
        fill-rule: evenodd;
      }
    </style>
  </defs>
  <!-- Generator: Adobe Illustrator 28.7.1, SVG Export Plug-In . SVG Version: 1.2.0 Build 142)  -->
  <g>
    <g id="Layer_1">
      <g>
        <rect class="cls-1" x="95.5" y="130.5" width="387.5" height="581.5"/>
        <polygon class="cls-3" points="483 153.2 481.5 146.3 478.5 139.9 475.6 136.4 471.6 133.4 467.2 132 460.3 130.5 115.6 131 110.7 132 106.3 133.4 102.8 136.4 99.4 139.9 96.9 143.8 95.5 150.7 95.5 694.3 98.4 700.7 100.9 704.6 104.3 708.1 108.7 710 113.2 711.5 117.6 712 462.7 712 469.1 710 473.6 708.1 477 704.6 479.9 700.7 481.5 696.7 482.5 691.8 483 153.2"/>
        <polygon class="cls-2" points="471.6 153.2 471.1 150.2 468.6 145.8 466.2 143.8 461.7 141.8 117.6 141.8 113.2 142.8 108.3 147.3 106.3 153.2 106.3 689.4 109.2 696.7 111.7 699.2 116.1 700.7 461.7 700.7 466.2 699.2 470.7 694.3 471.6 691.3 471.6 153.2"/>
        <polygon class="cls-3" points="395.8 702.5 394.8 545.1 393.3 533.6 389.4 517.4 383 501.5 375.1 487.1 364.7 473.3 300.2 408.5 269.8 439.1 269.8 357 351.9 357 320.9 387.7 381.5 449 393.8 462.8 404.1 478.7 412 495.5 420.4 519.3 423.4 537.6 424.8 702.5 395.8 702.5"/>
        <polygon class="cls-3" points="225.4 695.6 225.9 260.2 269.8 260.2 211.7 201.9 153.6 260.2 196.9 260.2 196.9 702.5 225.9 702.5 225.4 695.6"/>
      </g>
    </g>
  </g>
</svg>