<?xml version="1.0" encoding="UTF-8"?>
<svg xmlns="http://www.w3.org/2000/svg" version="1.1" viewBox="0 0 595 842">
  <defs>
    <style>
      .cls-1 {
        stroke: #0079c1;
        stroke-miterlimit: 10;
        stroke-width: 1.4px;
      }

      .cls-1, .cls-2 {
        fill: #0079c1;
      }

      .cls-3 {
        fill: #fff;
      }

      .cls-3, .cls-2 {
        fill-rule: evenodd;
      }
    </style>
  </defs>
  <!-- Generator: Adobe Illustrator 28.7.1, SVG Export Plug-In . SVG Version: 1.2.0 Build 142)  -->
  <g>
    <g id="Layer_1">
      <g>
        <rect class="cls-1" x="95.5" y="130.5" width="387.5" height="581.5"/>
        <polygon class="cls-3" points="95.5 153.2 97 146.3 99.9 139.9 102.9 136.4 106.8 133.4 111.2 132 118.1 130.5 462.8 131 467.7 132 472.2 133.4 475.6 136.4 479 139.9 481.5 143.8 483 150.7 483 694.3 480 700.7 477.6 704.6 474.1 708.1 469.7 710 465.3 711.5 460.8 712 115.7 712 109.3 710 104.8 708.1 101.4 704.6 98.5 700.7 97 696.7 96 691.8 95.5 153.2"/>
        <polygon class="cls-2" points="106.8 153.2 107.3 150.2 109.8 145.8 112.2 143.8 116.7 141.8 460.8 141.8 465.3 142.8 470.2 147.3 472.2 153.2 472.2 689.4 469.2 696.7 466.7 699.2 462.3 700.7 116.7 700.7 112.2 699.2 107.8 694.3 106.8 691.3 106.8 153.2"/>
        <polygon class="cls-3" points="182.7 702.5 183.7 545.1 185.1 533.6 189.1 517.4 195.5 501.5 203.3 487.1 213.7 473.3 278.2 408.5 308.7 439.1 308.7 357 226.5 357 257.5 387.7 196.9 449 184.6 462.8 174.3 478.7 166.4 495.5 158 519.3 155.1 537.6 153.6 702.5 182.7 702.5"/>
        <polygon class="cls-3" points="353 695.6 352.5 260.2 308.7 260.2 366.8 201.9 424.9 260.2 381.5 260.2 381.5 702.5 352.5 702.5 353 695.6"/>
      </g>
    </g>
  </g>
</svg>