<?xml version="1.0" encoding="UTF-8"?>
<svg id="_2" data-name="2" xmlns="http://www.w3.org/2000/svg" version="1.1" xmlns:cc="http://creativecommons.org/ns#" xmlns:dc="http://purl.org/dc/elements/1.1/" xmlns:rdf="http://www.w3.org/1999/02/22-rdf-syntax-ns#" xmlns:svg="http://www.w3.org/2000/svg" viewBox="0 0 284.2 397.7">
  <defs>
    <style>
      .cls-1, .cls-2 {
        fill-rule: evenodd;
      }

      .cls-1, .cls-2, .cls-3 {
        stroke-width: 0px;
      }

      .cls-1, .cls-3 {
        fill: #fff;
      }

      .cls-4 {
        fill: none;
        stroke: #007ac2;
        stroke-miterlimit: 10;
        stroke-width: .5px;
      }

      .cls-2 {
        fill: #007ac2;
      }
    </style>
  </defs>
  <rect id="white_background" data-name="white background" class="cls-3" width="284.2" height="397.7"/>
  <g id="g48">
    <g id="g42">
      <path id="path38" class="cls-2" d="M142.1,397.2h141.6V.5h-141.6v-.2h141.6v.2h.2v396.7h-.2v.2h-141.6v-.2ZM142.1,397.2h124.8c9.4,0,17-7.6,17-17V17.5c0-9.4-7.6-17-17-17h-124.8,141.6-141.6v.2h141.3v396.3h-141.3v.2ZM142.1,397.2h141.6-141.6,124.5-124.5ZM283.6,397.2V.5h0v396.7ZM283.6,380.2V17.5h0v362.7ZM.5,397.2h141.6v.2H.5v-.2h-.2V.5h.2v-.2h141.6v.2H.5v396.7ZM142.1.5v.2H.7v396.3h141.4v.2H.5h141.6H17.7c-9.4,0-17-7.6-17-17V17.5C.8,8,8.4.5,17.7.5h124.3ZM142.1.5H.5h141.6ZM.5.5v396.7H.5S.5.5.5.5ZM17.5,397.2h124.6H17.5Z"/>
      <path id="path40" class="cls-4" d="M17.8.5H.5v396.7h283.2V.5H17.8M142.1,397v.2h124.8c.3,0,.6,0,.8,0h0c.3,0,.6,0,.8,0,.2,0,.5,0,.7,0,0,0,.2,0,.3,0h-127.5ZM283.3,384.6c0,.2,0,.3-.1.5-.2.5-.3,1-.5,1.5,0,.2-.2.4-.2.6,0,.2-.2.4-.3.6-.2.4-.4.8-.7,1.2-.1.2-.2.4-.4.6-.2.3-.4.6-.6.8-.2.2-.3.4-.5.6-.2.2-.3.4-.5.6-.2.2-.3.4-.5.6,0,0,0,0,0,0-.2.2-.4.3-.6.5-.2.2-.4.4-.6.5-.2.2-.4.3-.6.5-.7.5-1.5,1-2.3,1.5-.3.2-.6.3-.9.5-.2,0-.4.2-.5.2,0,0,0,0,0,0-.2,0-.4.1-.5.2-.2,0-.4.1-.6.2-.2,0-.4.1-.6.2-.2,0-.4.1-.6.2-.4,0-.8.2-1.3.2h13.8v-12.7c0,.1,0,.2,0,.4ZM283.6,14c0-.2,0-.4-.1-.6V.7h-13.8c-.3,0-.6,0-1-.1-.3,0-.5,0-.8,0h0c-.3,0-.6,0-.8,0h-124.8v.2H15.1c-.2,0-.5,0-.8.1-.2,0-.5.1-.7.2-.2,0-.4,0-.5.1-.1,0-.3,0-.4.1-.2,0-.5.2-.7.2-.2,0-.5.2-.7.3-.8.3-1.5.7-2.2,1.1-.2.1-.4.2-.5.3-1,.6-1.9,1.4-2.7,2.2s-.4.4-.6.6c-.2.2-.4.5-.6.7-.1.2-.3.3-.4.5-.1.2-.3.4-.4.6-.2.3-.3.5-.5.8-.1.2-.3.5-.4.7-.4.7-.7,1.4-1,2.1,0,.2-.1.4-.2.6,0,.2-.1.3-.2.5,0,.2-.1.4-.1.5,0,0,0,.1,0,.2,0,.2-.1.5-.2.7,0,0,0,0,0,0,0,.3-.1.5-.1.8,0,.3,0,.6-.1.8,0,.2,0,.4,0,.5,0,.1,0,.3,0,.4,0,.3,0,.5,0,.8v362.7c0,.4,0,.8,0,1.2,0,.2,0,.4,0,.6,0,.3,0,.6.1.8,0,.3,0,.6.1.8,0,0,0,0,0,0,0,.2,0,.4.2.7,0,.4.2.9.4,1.3,0,.2.1.4.2.6,0,.2.2.5.3.7.2.5.5,1.1.8,1.5,0,.2.2.4.3.6.1.2.2.3.3.5.1.2.3.4.4.6.4.6.8,1.1,1.3,1.6.1.1.2.2.3.4.8.8,1.7,1.6,2.6,2.2.2.1.4.3.6.4.4.3.8.5,1.3.7.4.2.9.4,1.3.6.2,0,.5.2.7.3.3.1.6.2.9.3.2,0,.4.1.5.2.2,0,.5.1.7.2s.5.1.8.1h254.6c.4,0,.8-.2,1.3-.2.2,0,.4,0,.6-.2.2,0,.4-.1.6-.2.2,0,.4-.1.6-.2.2,0,.3-.1.5-.2,0,0,0,0,0,0,.2,0,.4-.1.5-.2.3-.1.6-.3.9-.5.8-.4,1.6-.9,2.3-1.5.2-.2.4-.3.6-.5.2-.2.4-.4.6-.5.2-.2.4-.3.6-.5,0,0,0,0,0,0,.2-.2.4-.4.5-.6.2-.2.4-.4.5-.6.2-.2.3-.4.5-.6.2-.3.4-.5.6-.8.1-.2.2-.4.4-.6.2-.4.5-.8.7-1.2,0-.2.2-.4.3-.6,0-.2.2-.4.2-.6.2-.5.4-1,.5-1.5,0-.2,0-.3.1-.5,0-.1,0-.2,0-.4,0-.3.2-.7.2-1V14.4c0-.1,0-.2,0-.4ZM275.2,380.2c0,4.7-3.8,8.5-8.6,8.5H17.5c-4.7,0-8.5-3.8-8.5-8.5V17.5c0-4.7,3.8-8.5,8.5-8.5h249.1c4.8,0,8.6,3.8,8.6,8.5v362.7ZM13.6,396.7c-.2,0-.4,0-.5-.2-.3,0-.6-.2-.9-.3-.2,0-.5-.2-.7-.3-.5-.2-.9-.4-1.3-.6-.5-.2-.9-.5-1.3-.7-.2-.1-.4-.3-.6-.4-.9-.6-1.8-1.4-2.6-2.2-.1-.1-.2-.2-.3-.4-.5-.5-.9-1-1.3-1.6-.1-.2-.3-.4-.4-.6-.1-.2-.2-.3-.3-.5-.1-.2-.2-.4-.3-.6-.3-.5-.5-1-.8-1.5,0-.2-.2-.5-.3-.7,0-.2-.1-.4-.2-.6-.1-.4-.3-.8-.4-1.3,0-.2-.1-.4-.2-.7,0,0,0,0,0,0,0-.3-.1-.5-.1-.8,0-.3,0-.6-.1-.8,0-.2,0-.4,0-.6,0-.4,0-.8,0-1.2V17.5c0-.3,0-.5,0-.8,0-.1,0-.3,0-.4,0-.2,0-.4,0-.5,0-.3,0-.6.1-.8,0-.3,0-.6.1-.8,0,0,0,0,0,0,0-.2,0-.5.2-.7,0,0,0-.1,0-.2,0-.2,0-.4.1-.5,0-.2.1-.4.2-.5,0-.2.1-.4.2-.6.3-.7.6-1.4,1-2.1.1-.2.3-.5.4-.7.2-.3.3-.5.5-.8.1-.2.3-.4.4-.6.1-.2.3-.3.4-.5.2-.2.4-.5.6-.7.2-.2.4-.4.6-.6.8-.8,1.7-1.5,2.7-2.2.2-.1.4-.2.5-.3.7-.4,1.5-.8,2.2-1.1.2-.1.5-.2.7-.3.2,0,.5-.2.7-.2.1,0,.3,0,.4-.1.2,0,.4-.1.5-.1.2,0,.5-.1.7-.2.2,0,.5,0,.8-.1H.7v396.3h14.4c-.2,0-.5,0-.8-.1s-.5-.1-.7-.2ZM17.8.5c-.3,0-.6,0-.8,0h0c-.3,0-.6,0-.8,0-.3,0-.7,0-1,.1h127v-.2H17.8ZM15.1,397c0,0,.2,0,.3,0,.2,0,.5,0,.7,0,.3,0,.5,0,.8,0h0c.2,0,.4,0,.6,0h124.6v-.2H15.1ZM.7.7v396.3h282.8V.7H.7ZM266.6,388.7H17.5c-4.7,0-8.5-3.8-8.5-8.5V17.5c0-4.7,3.8-8.5,8.5-8.5h249.1c4.8,0,8.6,3.8,8.6,8.5v362.7c0,4.7-3.8,8.5-8.6,8.5ZM.2.5v396.7h.2V.5h-.2ZM283.6.2H.5v397.2h283.2V14.4c0-.1,0-.2,0-.4,0-.2,0-.4-.1-.6V.7h-13.8c-.3,0-.6,0-1-.1-.3,0-.5,0-.8,0h0c-.3,0-.6,0-.8,0h16.7v-.2ZM275.2,17.5v362.7c0,4.7-3.8,8.5-8.6,8.5H17.5c-4.7,0-8.5-3.8-8.5-8.5V17.5c0-4.7,3.8-8.5,8.5-8.5h249.1c4.8,0,8.6,3.8,8.6,8.5ZM266.9.5c.3,0,.6,0,.8,0h0c.3,0,.6,0,.8,0,.3,0,.7,0,1,.1.4,0,.8.1,1.3.2.2,0,.4,0,.6.2.2,0,.3,0,.5.1.4.1.9.3,1.3.5.6.2,1.2.5,1.8.8.2.1.5.3.7.4s.5.3.7.4c.2.1.4.3.7.5.4.3.9.7,1.3,1,.2.2.4.4.6.6.2.2.4.4.6.6.2.2.3.4.5.5.4.5.8,1,1.1,1.5.1.2.2.4.4.6.2.4.5.8.7,1.2,0,.2.2.4.3.6.2.4.3.8.5,1.2,0,.2.1.4.2.6,0,.2,0,.3.1.5,0,.2.2.5.2.8,0,.2.1.4.1.6,0,.1,0,.2,0,.4,0,.2,0,.3,0,.5,0,.2,0,.5,0,.7,0,.1,0,.3,0,.4V.5h-16.9ZM283.8,382.1c0,.2,0,.5,0,.7,0,.2,0,.4,0,.5v13.9h.2v-15.5c0,.1,0,.3,0,.4ZM14.3,396.8c.2,0,.5.1.8.1,0,0,.2,0,.3,0,.2,0,.5,0,.7,0,.3,0,.6,0,.8,0h0c.2,0,.4,0,.6,0h249.5c.3,0,.6,0,.9,0h0c.3,0,.6,0,.8,0,.2,0,.5,0,.7,0,0,0,.2,0,.3,0,.4,0,.8-.1,1.3-.2.2,0,.4,0,.6-.2.2,0,.4-.1.6-.2.2,0,.4-.1.6-.2.2,0,.4-.1.5-.2,0,0,0,0,0,0,.2,0,.4-.1.5-.2.3-.1.6-.3,1-.5.8-.4,1.6-.9,2.3-1.5.2-.1.4-.3.6-.5.2-.2.4-.3.6-.5.2-.2.4-.3.5-.5s0,0,0,0c.2-.2.4-.4.5-.6.2-.2.4-.4.5-.6.2-.2.3-.4.5-.6.2-.3.4-.5.6-.8.1-.2.2-.4.4-.6.2-.4.5-.8.7-1.2,0-.2.2-.4.3-.6,0-.2.2-.4.2-.6.2-.5.4-1,.6-1.5,0-.2,0-.3.1-.5s0-.2,0-.4c0-.3.2-.7.2-1,0-.2,0-.4,0-.5,0-.2,0-.4,0-.7,0-.1,0-.3,0-.4,0-.2,0-.5,0-.7,0-.2,0-.5,0-.8V17.5c0-.3,0-.5,0-.8s0-.5,0-.8c0-.1,0-.3,0-.4,0-.2,0-.4,0-.7,0-.2,0-.4,0-.5,0-.1,0-.2,0-.4,0-.2,0-.4-.1-.6,0-.3-.1-.5-.2-.8,0-.2,0-.3-.1-.5,0-.2-.1-.4-.2-.6-.2-.4-.3-.8-.5-1.2,0-.2-.2-.4-.3-.6-.2-.4-.4-.8-.7-1.2l-.4-.6c-.3-.5-.7-1-1.1-1.5-.1-.2-.3-.4-.5-.6-.2-.2-.4-.4-.6-.6-.2-.2-.4-.4-.6-.6-.4-.4-.8-.7-1.3-1-.2-.2-.4-.3-.7-.5-.2-.2-.5-.3-.7-.4s-.5-.3-.7-.4c-.6-.3-1.1-.6-1.8-.8-.4-.2-.9-.3-1.3-.5-.2,0-.3-.1-.5-.1-.2,0-.4-.1-.6-.2-.4-.1-.8-.2-1.3-.2-.3,0-.6,0-1-.1-.3,0-.5,0-.8,0h0c-.3,0-.6,0-.9,0H17.8c-.3,0-.6,0-.8,0h0c-.3,0-.6,0-.8,0-.3,0-.7,0-1,.1-.2,0-.5,0-.8.1s-.5,0-.7.2c-.2,0-.4,0-.5.2-.1,0-.3,0-.4.1-.2,0-.5.2-.7.2-.2,0-.5.2-.7.3-.8.3-1.5.7-2.2,1.1-.2.1-.4.2-.5.3-1,.6-1.9,1.4-2.7,2.2s-.4.4-.6.6c-.2.2-.4.5-.6.7-.1.2-.3.3-.4.5-.2.2-.3.4-.4.6-.2.3-.4.5-.5.8-.1.2-.3.5-.4.7-.4.7-.7,1.4-1,2.1,0,.2-.2.4-.2.6,0,.2-.1.4-.2.5,0,.2-.1.4-.1.5,0,0,0,.1,0,.2,0,.2-.1.5-.2.7,0,0,0,0,0,0,0,.3-.1.6-.2.8,0,.3,0,.6-.1.8,0,.2,0,.4,0,.5,0,.1,0,.3,0,.4,0,.3,0,.5,0,.8v362.7c0,.4,0,.8,0,1.2,0,.2,0,.4,0,.6,0,.3,0,.6.1.9,0,.3,0,.6.2.8,0,0,0,0,0,0,0,.2,0,.4.1.7.1.4.2.9.4,1.3s.1.4.2.6c0,.2.2.5.3.7.2.5.5,1,.8,1.5,0,.2.2.4.3.6.1.2.2.3.3.5.1.2.3.4.4.6.4.6.8,1.1,1.3,1.6.1.1.2.2.3.4.8.8,1.7,1.6,2.6,2.2.2.1.4.3.6.4.4.3.8.5,1.3.7.4.2.9.4,1.3.6.2,0,.5.2.7.3.3.1.6.2.9.3h.5c.2.2.5.3.7.3"/>
    </g>
    <path class="cls-2" d="M275.2,17.5v362.7c0,4.7-3.8,8.5-8.6,8.5H17.5c-4.7,0-8.5-3.8-8.5-8.5V17.5c0-4.7,3.8-8.5,8.5-8.5h249.1c4.8,0,8.6,3.8,8.6,8.5Z"/>
  </g>
  <polygon id="polygon8" class="cls-1" points="39.2 86.4 90.1 34.9 141.4 86.4 141.4 120.6 107.5 86.4 107.5 362.6 73.4 362.6 73.4 86.4 39.2 120.6 39.2 86.4"/>
  <path class="cls-1" d="M244.9,269.6v93h-34v-104.6c0-22.7-11.3-43.9-30.2-56.6l-14.2-10.9.2,49.7-24.3-24-.8-72.5,72.7-.2,24.3,24h-48.1q0,0,0,0c34,22.8,54.4,61,54.4,101.9Z"/>
</svg>