<?xml version="1.0" encoding="UTF-8" standalone="no"?>
<svg
   xmlns:dc="http://purl.org/dc/elements/1.1/"
   xmlns:cc="http://creativecommons.org/ns#"
   xmlns:rdf="http://www.w3.org/1999/02/22-rdf-syntax-ns#"
   xmlns:svg="http://www.w3.org/2000/svg"
   xmlns="http://www.w3.org/2000/svg"
   xml:space="preserve"
   viewBox="0 0 496.06397 496.06399"
   height="496.064"
   width="496.064"
   y="0px"
   x="0px"
   id="Layer_1"
   version="1.1"><metadata
   id="metadata25"><rdf:RDF><cc:Work
       rdf:about=""><dc:format>image/svg+xml</dc:format><dc:type
         rdf:resource="http://purl.org/dc/dcmitype/StillImage" /></cc:Work></rdf:RDF></metadata><defs
   id="defs23" />
<g
   transform="translate(-49.608002,-172.641)"
   id="LWPOLYLINE_925_">
	<rect
   id="rect2"
   height="496.06299"
   width="496.06299"
   style="fill:#ffd200"
   y="172.642"
   x="49.608002" />
</g>
<g
   transform="translate(-49.608002,-172.641)"
   id="LWPOLYLINE_929_">
	<path
   id="path5"
   d="m 529.136,668.704 h -463 c -9.13,0 -16.527,-7.406 -16.527,-16.536 v -462.99 c 0,-9.13 7.397,-16.537 16.527,-16.537 h 463 c 9.11,0 16.536,7.407 16.536,16.537 v 462.99 c 0,9.13 -7.426,16.536 -16.536,16.536 z" />
</g>
<g
   transform="translate(-49.608002,-172.641)"
   id="LWPOLYLINE_943_">
	<path
   id="path8"
   d="M 268.701,660.437 H 66.136 c -4.564,0 -8.269,-3.714 -8.269,-8.269 v -462.99 c 0,-4.555 3.704,-8.269 8.269,-8.269 h 463 c 4.555,0 8.268,3.713 8.268,8.269 v 462.99 c 0,4.555 -3.713,8.269 -8.268,8.269 H 438.184 293.496 Z"
   style="fill:#ffd200" />
</g>
<g
   transform="translate(-49.608002,-172.641)"
   id="LWPOLYLINE_4328_">
	<polygon
   id="polygon11"
   points="500.196,284.264 450.586,234.654 400.976,284.264 438.184,284.264 438.184,660.437 462.988,660.437 462.988,284.264 " />
</g>
<g
   transform="translate(-49.608002,-172.641)"
   id="LWPOLYLINE_4329_">
	<polygon
   id="polygon14"
   points="330.704,284.264 281.094,234.654 231.493,284.264 268.701,284.264 268.701,660.437 293.496,660.437 293.496,284.264 " />
</g>
<g
   transform="translate(-49.608002,-172.641)"
   id="LWPOLYLINE_4330_">
	<path
   id="path17"
   d="M 124.015,660.437 V 536.469 c 0,-28.5 11.321,-55.831 31.475,-76.004 l 49.696,-49.687 26.308,26.298 v -70.147 h -70.156 l 26.308,26.317 -49.687,49.687 C 113.144,467.738 99.21,501.385 99.21,536.469 v 123.968 z" />
</g>
</svg>