<?xml version="1.0" encoding="UTF-8"?>
<svg xmlns="http://www.w3.org/2000/svg" version="1.1" viewBox="0 0 595.3 841.9">
  <defs>
    <style>
      .cls-1 {
        fill: #eff9fe;
      }

      .cls-2 {
        fill: #0079c1;
      }
    </style>
  </defs>
  <!-- Generator: Adobe Illustrator 28.7.1, SVG Export Plug-In . SVG Version: 1.2.0 Build 142)  -->
  <g>
    <g id="Layer_1">
      <g id="LWPOLYLINE">
        <rect class="cls-2" x="49.6" y="180.9" width="493.8" height="487.8"/>
      </g>
      <g id="LWPOLYLINE-2" data-name="LWPOLYLINE">
        <path class="cls-1" d="M529.1,668.7H66.1c-9.1,0-16.5-7.4-16.5-16.5V189.2c0-9.1,7.4-16.5,16.5-16.5h463c9.1,0,16.5,7.4,16.5,16.5v463c0,9.1-7.4,16.5-16.5,16.5Z"/>
      </g>
      <g id="LWPOLYLINE-3" data-name="LWPOLYLINE">
        <path class="cls-2" d="M268.7,660.4H66.1c-4.6,0-8.3-3.7-8.3-8.3V189.2c0-4.6,3.7-8.3,8.3-8.3h463c4.6,0,8.3,3.7,8.3,8.3v463c0,4.6-3.7,8.3-8.3,8.3h-260.4Z"/>
      </g>
      <g id="LWPOLYLINE-4" data-name="LWPOLYLINE">
        <polygon class="cls-1" points="463 660.4 463 284.3 500.2 284.3 450.6 234.7 401 284.3 438.2 284.3 438.2 660.4 463 660.4"/>
      </g>
      <g id="LWPOLYLINE-5" data-name="LWPOLYLINE">
        <polygon class="cls-1" points="293.5 660.4 293.5 284.3 330.7 284.3 281.1 234.7 231.5 284.3 268.7 284.3 268.7 660.4 293.5 660.4"/>
      </g>
      <g id="LWPOLYLINE-6" data-name="LWPOLYLINE">
        <path class="cls-1" d="M124,660.4v-124c0-28.5,11.3-55.8,31.5-76l49.7-49.7,26.3,26.3v-70.1h-70.2l26.3,26.3-49.7,49.7c-24.8,24.8-38.7,58.5-38.7,93.5v124h24.8Z"/>
      </g>
    </g>
  </g>
</svg>