<?xml version="1.0" encoding="UTF-8" standalone="no"?>
<svg
   xmlns:dc="http://purl.org/dc/elements/1.1/"
   xmlns:cc="http://creativecommons.org/ns#"
   xmlns:rdf="http://www.w3.org/1999/02/22-rdf-syntax-ns#"
   xmlns:svg="http://www.w3.org/2000/svg"
   xmlns="http://www.w3.org/2000/svg"
   xml:space="preserve"
   viewBox="0 0 239.2435 239.2435"
   height="239.2435"
   width="239.2435"
   y="0px"
   x="0px"
   id="Layer_1"
   version="1.1"><metadata
   id="metadata19"><rdf:RDF><cc:Work
       rdf:about=""><dc:format>image/svg+xml</dc:format><dc:type
         rdf:resource="http://purl.org/dc/dcmitype/StillImage" /></cc:Work></rdf:RDF></metadata><defs
   id="defs17" />
<g
   transform="translate(-188.35024,-235.62225)"
   id="g12">
	
		<rect
   id="rect2"
   height="238.536"
   width="238.536"
   style="clip-rule:evenodd;fill:#0079c1;fill-rule:evenodd;stroke:#0079c1;stroke-width:0.70749998;stroke-miterlimit:10"
   y="235.976"
   x="188.70399" />
	<polygon
   id="polygon4"
   points="191.584,242.672 194.032,239.864 197.272,237.632 200.944,236.408 204.544,235.976 411.4,235.976 415.216,236.408 418.672,237.632 421.912,239.864 424.36,242.672 426.232,246.128 427.24,251.816 427.24,458.456 426.232,464.144 424.36,467.6 421.912,470.408 418.672,472.64 415.216,473.864 411.4,474.512 204.544,474.512 198.856,473.432 195.616,471.632 192.808,468.968 190.576,465.944 189.136,462.272 188.704,458.456 188.704,249.8 189.784,246.128 "
   style="clip-rule:evenodd;fill:#ffffff;fill-rule:evenodd" />
	<polygon
   id="polygon6"
   points="198.496,246.776 200.728,244.904 204.544,243.896 411.4,243.896 413.992,244.328 416.44,245.768 418.312,247.784 419.32,251.816 419.104,459.824 418.312,462.488 416.44,464.504 413.992,465.944 411.4,466.376 204.544,466.376 201.952,465.944 199.504,464.504 197.704,462.488 196.84,459.824 196.624,251.816 197.272,249.008 "
   style="clip-rule:evenodd;fill:#0079c1;fill-rule:evenodd" />
	<polygon
   id="polygon8"
   points="278.272,291.632 278.272,263.84 337.672,263.84 337.672,291.632 315.928,291.632 315.928,446.648 300.16,446.648 300.16,291.632 "
   style="clip-rule:evenodd;fill:#ffffff;fill-rule:evenodd" />
	<rect
   id="rect10"
   height="19.944"
   width="51.695999"
   style="clip-rule:evenodd;fill:#ef3e42;fill-rule:evenodd"
   y="267.65601"
   x="282.16" />
</g>
</svg>