<?xml version="1.0" encoding="UTF-8"?>
<svg xmlns="http://www.w3.org/2000/svg" version="1.1" viewBox="0 0 239 239">
  <defs>
    <style>
      .cls-1 {
        fill: #ef4043;
      }

      .cls-2, .cls-3 {
        fill-rule: evenodd;
      }

      .cls-2, .cls-4 {
        fill: #0e79bf;
      }

      .cls-3 {
        fill: #fff;
      }

      .cls-4 {
        stroke: #0e79bf;
        stroke-miterlimit: 10;
        stroke-width: .7px;
      }
    </style>
  </defs>
  <!-- Generator: Adobe Illustrator 28.7.1, SVG Export Plug-In . SVG Version: 1.2.0 Build 142)  -->
  <g>
    <g id="Layer_1">
      <g>
        <rect class="cls-4" x=".6" y="0" width="238.5" height="238.5"/>
        <polygon class="cls-3" points=".6 13.8 1.7 10.1 3.5 6.6 6 3.8 9.2 1.6 12.9 .4 16.5 0 223.3 0 227.1 .4 230.6 1.6 233.8 3.8 236.3 6.6 238.2 10.1 239.2 15.8 239.2 222.4 238.2 228.1 236.3 231.6 233.8 234.4 230.6 236.6 227.1 237.8 223.3 238.5 16.5 238.5 10.8 237.4 7.5 235.6 4.7 232.9 2.5 229.9 1.1 226.2 .6 222.4 .6 13.8"/>
        <polygon class="cls-2" points="8.5 15.8 9.2 13 10.4 10.7 12.6 8.9 16.5 7.9 223.3 7.9 225.9 8.3 228.4 9.7 230.2 11.8 231.2 15.8 231 223.8 230.2 226.5 228.4 228.5 225.9 229.9 223.3 230.3 16.5 230.3 13.9 229.9 11.4 228.5 9.6 226.5 8.8 223.8 8.5 15.8"/>
        <polygon class="cls-3" points="112.1 210.6 112.1 55.6 90.2 55.6 90.2 27.8 149.6 27.8 149.6 55.6 127.8 55.6 127.8 210.6 112.1 210.6"/>
        <rect class="cls-1" x="94.1" y="31.6" width="51.7" height="19.9"/>
      </g>
    </g>
  </g>
</svg>