<?xml version="1.0" encoding="UTF-8"?>
<svg xmlns="http://www.w3.org/2000/svg" version="1.1" viewBox="0 0 239 239">
  <defs>
    <style>
      .cls-1 {
        fill: #0e79bf;
      }

      .cls-2 {
        fill: #ef4043;
      }

      .cls-3, .cls-4 {
        fill: #fff;
      }

      .cls-4 {
        fill-rule: evenodd;
      }
    </style>
  </defs>
  <!-- Generator: Adobe Illustrator 28.7.1, SVG Export Plug-In . SVG Version: 1.2.0 Build 142)  -->
  <g>
    <g id="Layer_1">
      <g id="LWPOLYLINE">
        <rect class="cls-1" x="-.1" y="-.8" width="240" height="240"/>
      </g>
      <g id="LWPOLYLINE-2" data-name="LWPOLYLINE">
        <path class="cls-3" d="M223.9-.8H15.9C7.1-.8-.1,6.4-.1,15.2v208c0,8.9,7.2,16,16,16h208c8.9,0,16-7.1,16-16V15.2c0-8.9-7.1-16-16-16Z"/>
      </g>
      <g id="LWPOLYLINE-3" data-name="LWPOLYLINE">
        <path class="cls-1" d="M223.9,7.2H15.9c-4.4,0-8,3.6-8,8v208c0,4.4,3.6,8,8,8h208c4.4,0,8-3.6,8-8V15.2c0-4.4-3.6-8-8-8Z"/>
      </g>
      <g id="LWPOLYLINE-4" data-name="LWPOLYLINE">
        <polygon class="cls-3" points="118.6 215.2 134.6 215.2 134.6 135.2 156.6 135.2 156.6 107.2 130.6 107.2 130.6 91.2 122.6 91.2 122.6 107.2 96.6 107.2 96.6 135.2 118.6 135.2 118.6 215.2"/>
      </g>
      <g id="LWPOLYLINE-5" data-name="LWPOLYLINE">
        <path class="cls-3" d="M140,30.5l5.6,9.7c2.5-1.2,5.2-2,8-2.2,12.7-1.2,24,8.2,25.2,20.9h-.9c1.1,11.9-7.2,22.5-18.9,24.2-12.2,1.8-23.5-6.6-25.3-18.8l-3.9.3c-.2,2.3-1.6,4.3-3.6,5.2l1.1,4.4h1.8v2.1h-5.7v-2.1h1.8l-1-3.9c-1.5.2-2.9-.2-4.2-.9-3-1.9-3.9-5.8-2-8.8l-20.8-23.3-1.1,3.2c10.6,5.6,15.2,18.2,10.7,29.3l-.8-.3c-3,7.2-9.4,12.3-17.1,13.6-12.1,1.9-23.6-6.4-25.5-18.5-1.9-12.1,6.4-23.6,18.5-25.5v-.9c3.9-.6,8-.2,11.8,1.3l5.6-15.6.6.2,1.4-3.9-1.4-1.4v-2c.1,0,1.6-1.4,1.6-1.4h1.9c0,0,6.8.6,6.8.6v.9c0,0-6.8-.7-6.8-.7h-1.5c0,0-1,1-1,1v1.2c0,0,.7.8.7.8l.2-.5,1.3.8-1.8,5.1.5.2-1.1,3.2h37.3l.2-.4.6.3.7-1.3-6.2-3.8-.4-.4-.4-.8v-.5c.1,0,.5-.3.5-.3l.5-.2h1c0,0,1.9,0,1.9,0h2.6c0,0,3.8-.4,3.8-.4l1.9-.4h1.1c0,0,.4,0,.4,0l.4.5v.9s-.1.5-.1.5l-.5,1-.7,1.1-.8.9-1.2,1.1-1.1.8-.6.2h-.6c0,0-.9,1.8-.9,1.8l.6.4-.7,1.6Z"/>
      </g>
      <g id="LWPOLYLINE-6" data-name="LWPOLYLINE">
        <path class="cls-1" d="M155.9,58c1,0,1.9.6,2.4,1.4.9,1.4.5,3.3-.9,4.2-1.4.9-3.3.5-4.2-.9l-15.2,1.3c1.6,9.8,10.9,16.4,20.7,14.8,9.8-1.6,16.4-10.8,14.9-20.7-1.6-9.8-10.9-16.4-20.7-14.9-1.6.3-3.2.7-4.6,1.4l7.7,13.3Z"/>
      </g>
      <g id="LWPOLYLINE-7" data-name="LWPOLYLINE">
        <path class="cls-1" d="M129.5,62.2l3.1-.3c-.3-8.3,3.8-16.1,10.9-20.5l-4.7-8.1-11.5,25.7c1.1.8,1.8,1.9,2.2,3.2Z"/>
      </g>
      <g id="LWPOLYLINE-8" data-name="LWPOLYLINE">
        <rect class="cls-2" x="100.6" y="111.2" width="52" height="20"/>
      </g>
      <g id="LWPOLYLINE-9" data-name="LWPOLYLINE">
        <path class="cls-1" d="M152.5,60.2c.1-.5.4-1,.8-1.4l-7.5-13c-5.3,3.4-8.5,9.3-8.3,15.6l15.1-1.3Z"/>
      </g>
      <g id="LWPOLYLINE-10" data-name="LWPOLYLINE">
        <path class="cls-1" d="M120.1,58.6l-21.8-24.4,1.2-3.4h37.1l-12,27c-.6-.1-1.3-.1-1.9,0l-.9-4.2h1.8v-2.1h-5.6v2.1h1.7l1,4.8c-.2.1-.4.2-.6.3Z"/>
      </g>
      <g id="LWPOLYLINE-11" data-name="LWPOLYLINE">
        <path class="cls-1" d="M91.6,53.1l-1.5,2.6-1.6,2.7-.8.8c.4.5.6,1.1.6,1.7,0,1.7-1.2,3.1-2.9,3.2-1.7,0-3.1-1.2-3.2-2.9s1.2-3.1,2.9-3.2l1.2-1.3,1.4-2.4,1.4-2.4,2.7-7.7c-9.2-3.6-19.7.9-23.3,10.1-3.6,9.2.9,19.7,10.1,23.3,9.2,3.6,19.7-.9,23.3-10.1,3.3-8.3,0-17.7-7.7-22.2l-2.7,7.6Z"/>
      </g>
      <polyline class="cls-4" points="54.9 183.3 54.9 183.3 119 183.3 119 183.3 119 183.3 119 167.1 119 167.1 119 167.1 54.9 167.1"/>
    </g>
  </g>
</svg>