<?xml version="1.0" encoding="UTF-8"?>
<svg xmlns="http://www.w3.org/2000/svg" version="1.1" viewBox="0 0 239 239">
  <defs>
    <style>
      .cls-1 {
        fill: #ef4043;
      }

      .cls-2, .cls-3 {
        fill-rule: evenodd;
      }

      .cls-2, .cls-4 {
        fill: #0e79bf;
      }

      .cls-3 {
        fill: #fff;
      }

      .cls-4 {
        stroke: #0e79bf;
        stroke-miterlimit: 10;
        stroke-width: .6px;
      }
    </style>
  </defs>
  <!-- Generator: Adobe Illustrator 28.7.1, SVG Export Plug-In . SVG Version: 1.2.0 Build 142)  -->
  <g>
    <g id="Layer_1">
      <g>
        <rect class="cls-4" x="-.3" y="-1" width="240.5" height="240.5"/>
        <polygon class="cls-3" points="-.1 13.1 .7 9.4 2.5 6 5.2 3.1 8.3 .8 12 -.4 15.9 -1 223.9 -1 227.8 -.4 231.5 .8 234.6 3.1 237.3 6 239.1 9.4 240.1 15.2 240.1 223.3 239.1 229 237.3 232.5 234.6 235.4 231.5 237.6 227.8 238.8 223.9 239.5 15.9 239.5 10.1 238.4 6.6 236.6 3.8 233.9 1.5 230.8 .3 227.1 -.3 223.3 -.1 13.1"/>
        <polygon class="cls-2" points="7.9 15.2 8.3 12.3 9.7 10.1 11.7 8.2 15.9 7 223.9 7 226.8 7.6 229 9.1 230.9 11.1 231.9 15.2 231.9 224.7 230.9 227.4 229 229.4 226.8 230.8 223.9 231.2 15.9 231.2 13 230.8 10.5 229.4 8.9 227.4 7.9 224.7 7.9 15.2"/>
        <polygon class="cls-3" points="80.3 27.4 96.4 27.4 96.4 111.9 160.6 111.9 160.6 89.8 188.8 89.8 188.8 150.1 160.6 150.1 160.6 128.1 96.4 128.1 96.4 212.5 80.3 212.5 80.3 27.4"/>
        <rect class="cls-1" x="164.7" y="93.7" width="20" height="52.4"/>
      </g>
    </g>
  </g>
</svg>