<?xml version="1.0" encoding="UTF-8" standalone="no"?>
<svg
   xmlns:dc="http://purl.org/dc/elements/1.1/"
   xmlns:cc="http://creativecommons.org/ns#"
   xmlns:rdf="http://www.w3.org/1999/02/22-rdf-syntax-ns#"
   xmlns:svg="http://www.w3.org/2000/svg"
   xmlns="http://www.w3.org/2000/svg"
   xml:space="preserve"
   viewBox="0 0 241.04919 241.04919"
   height="241.04919"
   width="241.04919"
   y="0px"
   x="0px"
   id="Layer_1"
   version="1.1"><metadata
   id="metadata19"><rdf:RDF><cc:Work
       rdf:about=""><dc:format>image/svg+xml</dc:format><dc:type
         rdf:resource="http://purl.org/dc/dcmitype/StillImage" /></cc:Work></rdf:RDF></metadata><defs
   id="defs17" />
<g
   transform="translate(-145.5794,-233.7474)"
   id="g12">
	
		<rect
   id="rect2"
   height="240.48"
   width="240.48"
   style="clip-rule:evenodd;fill:#0079c1;fill-rule:evenodd;stroke:#0079c1;stroke-width:0.56919998;stroke-miterlimit:10"
   y="234.032"
   x="145.864" />
	<polygon
   id="polygon4"
   points="148.744,241.016 151.408,238.136 154.504,235.904 158.176,234.68 162.064,234.032 370.144,234.032 374.032,234.68 377.704,235.904 380.8,238.136 383.464,241.016 385.264,244.472 386.344,250.232 386.344,458.312 385.264,464.072 383.464,467.528 380.8,470.408 377.704,472.64 374.032,473.864 370.144,474.512 162.064,474.512 156.304,473.432 152.848,471.632 149.968,468.968 147.736,465.872 146.512,462.2 145.864,458.312 146.08,248.144 146.944,244.472 "
   style="clip-rule:evenodd;fill:#ffffff;fill-rule:evenodd" />
	<polygon
   id="polygon6"
   points="155.944,245.12 157.96,243.248 162.064,242.024 370.144,242.024 373.024,242.672 375.256,244.112 377.128,246.128 378.136,250.232 378.136,459.752 377.128,462.416 375.256,464.432 373.024,465.872 370.144,466.304 162.064,466.304 159.184,465.872 156.736,464.432 155.08,462.416 154.072,459.752 154.072,250.232 154.504,247.352 "
   style="clip-rule:evenodd;fill:#0079c1;fill-rule:evenodd" />
	<polygon
   id="polygon8"
   points="242.632,346.928 306.784,346.928 306.784,324.824 335.008,324.824 335.008,385.16 306.784,385.16 306.784,363.128 242.632,363.128 242.632,447.512 226.504,447.512 226.504,262.472 242.632,262.472 "
   style="clip-rule:evenodd;fill:#ffffff;fill-rule:evenodd" />
	<rect
   id="rect10"
   height="52.416"
   width="20.016001"
   style="clip-rule:evenodd;fill:#ef3e42;fill-rule:evenodd"
   y="328.71201"
   x="310.888" />
</g>
</svg>