<?xml version="1.0" encoding="UTF-8"?>
<svg xmlns="http://www.w3.org/2000/svg" version="1.1" viewBox="0 0 239 239">
  <defs>
    <style>
      .cls-1 {
        stroke: #0e79bf;
        stroke-miterlimit: 10;
        stroke-width: .6px;
      }

      .cls-1, .cls-2 {
        fill: #0e79bf;
      }

      .cls-3 {
        fill: #fff;
      }

      .cls-3, .cls-2 {
        fill-rule: evenodd;
      }

      .cls-4 {
        fill: #ef4043;
      }
    </style>
  </defs>
  <!-- Generator: Adobe Illustrator 28.7.1, SVG Export Plug-In . SVG Version: 1.2.0 Build 142)  -->
  <g>
    <g id="Layer_1">
      <g id="Layer_1-2" data-name="Layer_1">
        <g>
          <rect class="cls-1" x="-.3" y="-1" width="240.5" height="240.5"/>
          <polygon class="cls-3" points="240 13.1 239.2 9.4 237.4 6 234.7 3.1 231.6 .8 227.9 -.4 224 -1 16 -1 12.1 -.4 8.4 .8 5.3 3.1 2.6 6 .8 9.4 -.2 15.2 -.2 223.3 .8 229 2.6 232.5 5.3 235.4 8.4 237.6 12.1 238.8 16 239.5 224 239.5 229.8 238.4 233.3 236.6 236.1 233.9 238.4 230.8 239.6 227.1 240.2 223.3 240 13.1"/>
          <polygon class="cls-2" points="232 15.2 231.6 12.3 230.2 10.1 228.2 8.2 224 7 16 7 13.1 7.6 10.9 9.1 9 11.1 8 15.2 8 224.7 9 227.4 10.9 229.4 13.1 230.8 16 231.2 224 231.2 226.9 230.8 229.4 229.4 231 227.4 232 224.7 232 15.2"/>
          <polygon class="cls-3" points="159.6 27.4 143.5 27.4 143.5 111.9 79.3 111.9 79.3 89.8 51.1 89.8 51.1 150.1 79.3 150.1 79.3 128.1 143.5 128.1 143.5 212.5 159.6 212.5 159.6 27.4"/>
          <rect class="cls-4" x="55.2" y="93.7" width="20" height="52.4"/>
        </g>
      </g>
    </g>
  </g>
</svg>