<?xml version="1.0" encoding="UTF-8" standalone="no"?>
<svg
   xmlns:dc="http://purl.org/dc/elements/1.1/"
   xmlns:cc="http://creativecommons.org/ns#"
   xmlns:rdf="http://www.w3.org/1999/02/22-rdf-syntax-ns#"
   xmlns:svg="http://www.w3.org/2000/svg"
   xmlns="http://www.w3.org/2000/svg"
   xml:space="preserve"
   viewBox="0 0 496.06397 496.03701"
   height="496.03702"
   width="496.064"
   y="0px"
   x="0px"
   id="Layer_1"
   version="1.1"><metadata
   id="metadata22"><rdf:RDF><cc:Work
       rdf:about=""><dc:format>image/svg+xml</dc:format><dc:type
         rdf:resource="http://purl.org/dc/dcmitype/StillImage" /></cc:Work></rdf:RDF></metadata><defs
   id="defs20" />
<g
   transform="translate(-49.609,-172.92599)"
   id="LWPOLYLINE_1303_">
	<rect
   id="rect2"
   height="496.03699"
   width="496.06299"
   style="fill:#0079c1"
   y="172.92599"
   x="49.609001" />
</g>
<g
   transform="translate(-49.609,-172.92599)"
   id="LWPOLYLINE_1312_">
	<path
   id="path5"
   d="m 93.706,668.963 h 407.869 c 24.346,0 44.098,-19.75 44.098,-44.096 V 217.023 c 0,-24.396 -19.752,-44.097 -44.098,-44.097 H 93.706 c -24.345,0 -44.097,19.701 -44.097,44.097 v 407.844 c 0,24.346 19.751,44.096 44.097,44.096 z"
   style="fill:#ffffff" />
</g>
<g
   transform="translate(-49.609,-172.92599)"
   id="LWPOLYLINE_1315_">
	<path
   id="path8"
   d="m 93.706,646.916 h 407.869 c 12.148,0 22.049,-9.902 22.049,-22.049 V 217.023 c 0,-12.198 -9.9,-22.048 -22.049,-22.048 H 93.706 c -12.172,0 -22.048,9.85 -22.048,22.048 v 407.844 c -0.001,12.147 9.875,22.049 22.048,22.049 z"
   style="fill:#0079c1" />
</g>
<g
   transform="translate(-49.609,-172.92599)"
   id="LWPOLYLINE_1299_">
	<path
   id="path11"
   d="m 165.363,619.355 v -396.82 h 181.874 c 63.9,0 115.754,51.803 115.754,115.703 0,63.951 -51.854,115.754 -115.754,115.754 H 239.75 v 165.363 z"
   style="fill:#ffffff" />
</g>
<g
   transform="translate(-49.609,-172.92599)"
   id="LWPOLYLINE_1304_">
	<path
   id="path14"
   d="m 239.75,296.897 h 107.486 c 22.84,0 41.34,18.527 41.34,41.34 0,22.814 -18.5,41.341 -41.34,41.341 H 239.75 Z"
   style="fill:#0079c1" />
</g>
</svg>