<?xml version="1.0" encoding="UTF-8" standalone="no"?>
<svg
   xmlns:dc="http://purl.org/dc/elements/1.1/"
   xmlns:cc="http://creativecommons.org/ns#"
   xmlns:rdf="http://www.w3.org/1999/02/22-rdf-syntax-ns#"
   xmlns:svg="http://www.w3.org/2000/svg"
   xmlns="http://www.w3.org/2000/svg"
   xml:space="preserve"
   viewBox="0 0 496.06296 496.06399"
   height="496.064"
   width="496.06299"
   y="0px"
   x="0px"
   id="Layer_1"
   version="1.1"><metadata
   id="metadata25"><rdf:RDF><cc:Work
       rdf:about=""><dc:format>image/svg+xml</dc:format><dc:type
         rdf:resource="http://purl.org/dc/dcmitype/StillImage" /></cc:Work></rdf:RDF></metadata><defs
   id="defs23" />
<g
   transform="translate(-49.609,-172.91299)"
   id="LWPOLYLINE_1308_">
	<rect
   id="rect2"
   height="496.06299"
   width="496.06299"
   style="fill:#0079c1"
   y="172.91299"
   x="49.609001" />
</g>
<g
   transform="translate(-49.609,-172.91299)"
   id="LWPOLYLINE_1291_">
	<path
   id="path5"
   d="m 99.195,668.977 h 396.866 c 27.408,0 49.611,-22.203 49.611,-49.611 v -396.84 c 0,-27.409 -22.203,-49.612 -49.611,-49.612 H 99.195 c -27.383,0 -49.586,22.203 -49.586,49.612 v 396.84 c 0,27.407 22.203,49.611 49.586,49.611 z"
   style="fill:#ffffff" />
</g>
<g
   transform="translate(-49.609,-172.91299)"
   id="LWPOLYLINE_1307_">
	<path
   id="path8"
   d="m 99.195,644.171 h 396.866 c 13.68,0 24.807,-11.127 24.807,-24.806 v -396.84 c 0,-13.73 -11.127,-24.806 -24.807,-24.806 H 99.195 c -13.705,0 -24.78,11.076 -24.78,24.806 v 396.84 c 0,13.679 11.075,24.806 24.78,24.806 z"
   style="fill:#0079c1" />
</g>
<g
   transform="translate(-49.609,-172.91299)"
   id="LWPOLYLINE_1296_">
	<path
   id="path11"
   d="m 246.089,495.847 h 90.112 c 43.945,-5.461 77.021,-42.721 77.225,-87.024 0,-48.08 -38.943,-87.024 -87.023,-87.024 H 190.149 v 297.566 h 55.94 z"
   style="fill:#ffffff" />
</g>
<g
   transform="translate(-49.609,-172.91299)"
   id="LWPOLYLINE_1300_">
	<path
   id="path14"
   d="M 246.089,439.805 V 377.74 h 80.313 c 16.689,0 30.42,13.219 31.084,29.858 0.637,16.69 -11.996,30.931 -28.635,32.207 z"
   style="fill:#0079c1" />
</g>
<g
   transform="translate(-49.609,-172.91299)"
   id="LWPOLYLINE_1301_">
	<polygon
   id="polygon17"
   points="504.328,280.864 504.328,315.572 297.615,248.913 90.952,315.521 90.952,280.864 297.615,214.256 "
   style="fill:#ffffff" />
</g>
</svg>