<?xml version="1.0" encoding="UTF-8" standalone="no"?>
<svg
   xmlns:dc="http://purl.org/dc/elements/1.1/"
   xmlns:cc="http://creativecommons.org/ns#"
   xmlns:rdf="http://www.w3.org/1999/02/22-rdf-syntax-ns#"
   xmlns:svg="http://www.w3.org/2000/svg"
   xmlns="http://www.w3.org/2000/svg"
   id="svg17"
   xml:space="preserve"
   viewBox="0 0 362.448 151.416"
   height="151.416"
   width="362.448"
   y="0px"
   x="0px"
   version="1.1"><metadata
   id="metadata23"><rdf:RDF><cc:Work
       rdf:about=""><dc:format>image/svg+xml</dc:format><dc:type
         rdf:resource="http://purl.org/dc/dcmitype/StillImage" /></cc:Work></rdf:RDF></metadata><defs
   id="defs21" />
<g
   transform="translate(-116.344,-316.976)"
   id="Kuvataso_1">
</g>
<g
   transform="translate(-116.344,-316.976)"
   id="_x30_">
</g>
<g
   transform="translate(-116.344,-316.976)"
   id="HAT">
</g>
<g
   transform="translate(-116.344,-316.976)"
   id="HATKEL">
</g>
<g
   transform="translate(-116.344,-316.976)"
   id="HATPUN">
	<g
   id="g14">
		<rect
   id="rect6"
   height="151.056"
   width="362.37601"
   style="clip-rule:evenodd;fill:#ffd520;fill-rule:evenodd"
   y="317.336"
   x="116.344" />
		<path
   id="path8"
   d="m 134.632,316.976 h 325.944 c 10.08,0 18.216,8.784 18.216,19.512 V 448.88 c 0,10.728 -8.136,19.512 -18.216,19.512 H 134.632 c -10.008,0 -18.216,-8.784 -18.216,-19.512 V 336.488 c 0,-10.728 8.208,-19.512 18.216,-19.512 z"
   style="clip-rule:evenodd;fill:#ef3e42;fill-rule:evenodd" />
		<path
   id="path10"
   d="m 135.64,325.904 h 323.568 c 5.688,0 10.368,4.68 10.368,10.368 v 112.896 c 0,5.688 -4.68,10.368 -10.368,10.368 H 135.64 c -5.688,0 -10.368,-4.68 -10.368,-10.368 V 336.272 c 0,-5.688 4.68,-10.368 10.368,-10.368 z"
   style="clip-rule:evenodd;fill:#ffd200;fill-rule:evenodd" />
		<polygon
   id="polygon12"
   points="255.088,344.12 206.992,392.576 255.088,440.96 255.088,404.6 388,404.6 388,380.552 255.088,380.552 "
   style="clip-rule:evenodd;fill-rule:evenodd" />
	</g>
</g>
</svg>