<?xml version="1.0" encoding="UTF-8"?>
<svg id="svg17" xmlns="http://www.w3.org/2000/svg" version="1.1" xmlns:cc="http://creativecommons.org/ns#" xmlns:dc="http://purl.org/dc/elements/1.1/" xmlns:rdf="http://www.w3.org/1999/02/22-rdf-syntax-ns#" xmlns:svg="http://www.w3.org/2000/svg" viewBox="0 0 362.4 151.4">
  <defs>
    <style>
      .cls-1 {
        fill: #fff;
      }

      .cls-1, .cls-2 {
        fill-rule: evenodd;
      }

      .cls-1, .cls-2, .cls-3 {
        stroke-width: 0px;
      }

      .cls-2, .cls-3 {
        fill: #0079c1;
      }
    </style>
  </defs>
  <g id="HATPUN">
    <g id="g14">
      <rect id="rect6" class="cls-3" y=".4" width="362.4" height="151.1"/>
      <path id="path8" class="cls-1" d="M18.3,0h325.9c10.1,0,18.2,8.8,18.2,19.5v112.4c0,10.7-8.1,19.5-18.2,19.5H18.3C8.3,151.4,0,142.6,0,131.9V19.5C0,8.8,8.3,0,18.3,0Z"/>
      <path id="path10" class="cls-2" d="M19.3,8.9h323.6c5.7,0,10.4,4.7,10.4,10.4v112.9c0,5.7-4.7,10.4-10.4,10.4H19.3c-5.7,0-10.4-4.7-10.4-10.4V19.3c0-5.7,4.7-10.4,10.4-10.4Z"/>
      <polygon id="polygon12" class="cls-1" points="138.7 27.1 90.6 75.6 138.7 124 138.7 87.6 271.7 87.6 271.7 63.6 138.7 63.6 138.7 27.1"/>
    </g>
  </g>
</svg>