<?xml version="1.0" encoding="utf-8"?>
<!-- Generator: Adobe Illustrator 28.1.0, SVG Export Plug-In . SVG Version: 6.00 Build 0)  -->
<svg version="1.1" xmlns="http://www.w3.org/2000/svg" xmlns:xlink="http://www.w3.org/1999/xlink" x="0px" y="0px"
	 viewBox="0 0 595 842" style="enable-background:new 0 0 595 842;" xml:space="preserve">
<style type="text/css">
	.st0{fill-rule:evenodd;clip-rule:evenodd;fill:#FFD520;}
	.st1{fill-rule:evenodd;clip-rule:evenodd;fill:#EF3E42;}
	.st2{fill-rule:evenodd;clip-rule:evenodd;fill:#FFD200;}
	.st3{fill-rule:evenodd;clip-rule:evenodd;}
</style>
<g id="Kuvataso_1">
</g>
<g id="_x30_">
</g>
<g id="HAT">
</g>
<g id="HATKEL">
</g>
<g id="HATPUN">
	<rect x="116.3" y="288.5" class="st0" width="362.4" height="151.1"/>
	<path class="st1" d="M134.6,288.2h325.9c10.1,0,18.2,8.8,18.2,19.5v112.5c0,10.7-8.1,19.4-18.2,19.4H134.6
		c-10,0-18.2-8.8-18.2-19.4V307.7C116.4,297,124.6,288.2,134.6,288.2z"/>
	<path class="st2" d="M135.6,297.1h323.6c5.7,0,10.4,4.7,10.4,10.4v113c0,5.6-4.7,10.3-10.4,10.3H135.6c-5.7,0-10.4-4.7-10.4-10.3
		v-113C125.3,301.8,130,297.1,135.6,297.1z"/>
	<polygon class="st3" points="155.4,362.9 203.7,314.7 203.7,351 258,351 258,375.5 203.7,375.5 203.7,411.7 	"/>
</g>
</svg>
