<?xml version="1.0" encoding="UTF-8" standalone="no"?>
<svg
   xmlns:dc="http://purl.org/dc/elements/1.1/"
   xmlns:cc="http://creativecommons.org/ns#"
   xmlns:rdf="http://www.w3.org/1999/02/22-rdf-syntax-ns#"
   xmlns:svg="http://www.w3.org/2000/svg"
   xmlns="http://www.w3.org/2000/svg"
   height="151.40001"
   width="362.39999"
   id="svg17"
   xml:space="preserve"
   viewBox="0 0 362.39999 151.40001"
   y="0px"
   x="0px"
   version="1.1"><metadata
   id="metadata23"><rdf:RDF><cc:Work
       rdf:about=""><dc:format>image/svg+xml</dc:format><dc:type
         rdf:resource="http://purl.org/dc/dcmitype/StillImage" /></cc:Work></rdf:RDF></metadata><defs
   id="defs21" />
<style
   id="style2"
   type="text/css">
	.st0{fill-rule:evenodd;clip-rule:evenodd;fill:#FFD520;}
	.st1{fill-rule:evenodd;clip-rule:evenodd;fill:#EF3E42;}
	.st2{fill-rule:evenodd;clip-rule:evenodd;fill:#FFD200;}
	.st3{fill-rule:evenodd;clip-rule:evenodd;}
</style>
<g
   transform="translate(-116.3,-288.2)"
   id="Kuvataso_1">
</g>
<g
   transform="translate(-116.3,-288.2)"
   id="_x30_">
</g>
<g
   transform="translate(-116.3,-288.2)"
   id="HAT">
</g>
<g
   transform="translate(-116.3,-288.2)"
   id="HATKEL">
</g>
<g
   transform="translate(-116.3,-288.2)"
   id="HATPUN">
	<rect
   style="clip-rule:evenodd;fill:#ffd520;fill-rule:evenodd"
   id="rect8"
   height="151.10001"
   width="362.39999"
   class="st0"
   y="288.5"
   x="116.3" />
	<path
   style="clip-rule:evenodd;fill:#ef3e42;fill-rule:evenodd"
   id="path10"
   d="m 134.6,288.2 h 325.9 c 10.1,0 18.2,8.8 18.2,19.5 v 112.5 c 0,10.7 -8.1,19.4 -18.2,19.4 H 134.6 c -10,0 -18.2,-8.8 -18.2,-19.4 V 307.7 c 0,-10.7 8.2,-19.5 18.2,-19.5 z"
   class="st1" />
	<path
   style="clip-rule:evenodd;fill:#ffd200;fill-rule:evenodd"
   id="path12"
   d="m 135.6,297.1 h 323.6 c 5.7,0 10.4,4.7 10.4,10.4 v 113 c 0,5.6 -4.7,10.3 -10.4,10.3 H 135.6 c -5.7,0 -10.4,-4.7 -10.4,-10.3 v -113 c 0.1,-5.7 4.8,-10.4 10.4,-10.4 z"
   class="st2" />
	<polygon
   style="clip-rule:evenodd;fill-rule:evenodd"
   id="polygon14"
   points="203.7,351 258,351 258,375.5 203.7,375.5 203.7,411.7 155.4,362.9 203.7,314.7 "
   class="st3" />
</g>
</svg>