<?xml version="1.0" encoding="UTF-8" standalone="no"?>
<svg
   xmlns:dc="http://purl.org/dc/elements/1.1/"
   xmlns:cc="http://creativecommons.org/ns#"
   xmlns:rdf="http://www.w3.org/1999/02/22-rdf-syntax-ns#"
   xmlns:svg="http://www.w3.org/2000/svg"
   xmlns="http://www.w3.org/2000/svg"
   height="112.60001"
   width="360.39999"
   xml:space="preserve"
   viewBox="0 0 360.39999 112.60001"
   y="0px"
   x="0px"
   id="Layer_1"
   version="1.1"><metadata
   id="metadata23"><rdf:RDF><cc:Work
       rdf:about=""><dc:format>image/svg+xml</dc:format><dc:type
         rdf:resource="http://purl.org/dc/dcmitype/StillImage" /></cc:Work></rdf:RDF></metadata><defs
   id="defs21" />
<style
   id="style2"
   type="text/css">
	.st0{fill-rule:evenodd;clip-rule:evenodd;fill:#FFD520;}
	.st1{fill-rule:evenodd;clip-rule:evenodd;fill:#EF3E42;}
	.st2{fill-rule:evenodd;clip-rule:evenodd;}
</style>
<g
   transform="translate(-127.5,-299.29999)"
   id="Kuvataso_1">
</g>
<g
   transform="translate(-127.5,-299.29999)"
   id="_x30_">
</g>
<g
   transform="translate(-127.5,-299.29999)"
   id="HAT">
</g>
<g
   transform="translate(-127.5,-299.29999)"
   id="HATKEL">
</g>
<rect
   style="clip-rule:evenodd;fill:#ffd520;fill-rule:evenodd"
   id="rect8"
   height="112.6"
   width="360.39999"
   class="st0"
   y="0"
   x="0" />
<polygon
   transform="translate(-127.5,-299.29999)"
   style="clip-rule:evenodd;fill:#ef3e42;fill-rule:evenodd"
   id="polygon10"
   points="132.3,304.2 136.3,301.1 142.7,299.3 148.8,299.3 466.2,299.3 476,299.8 483,304.2 486.6,309.6 487.9,316 487.9,394.8 486.1,403 483,407 477.5,410.6 471.1,411.9 142.7,411.9 136.3,409.8 131.1,405.8 128.1,399.7 127.5,394.8 127.5,314.5 128.7,309.6 "
   class="st1" />
<polygon
   transform="translate(-127.5,-299.29999)"
   style="clip-rule:evenodd;fill:#ffd520;fill-rule:evenodd"
   id="polygon12"
   points="140.9,308.4 146.7,307.2 471.1,307.5 475.7,309.1 478.7,312.7 479.3,316 479.3,394.8 478.7,398.5 476.6,401.2 472,403.4 144.3,403.4 140.9,402.7 137.9,400.6 136,396 135.7,316 137.9,310.6 "
   class="st0" />
<polygon
   transform="translate(-127.5,-299.29999)"
   style="clip-rule:evenodd;fill-rule:evenodd"
   id="polygon14"
   points="147,352.7 177.8,321.9 208.9,352.7 185.5,352.7 185.5,389.3 171.4,389.3 171.4,352.7 "
   class="st2" />
<polygon
   transform="translate(-127.5,-299.29999)"
   style="clip-rule:evenodd;fill-rule:evenodd"
   id="polygon16"
   points="406.1,352.7 436.9,321.9 468.1,352.7 444.5,352.7 444.5,389.3 430.5,389.3 430.5,352.7 "
   class="st2" />
</svg>