<?xml version="1.0" encoding="utf-8"?>
<!-- Generator: Adobe Illustrator 28.1.0, SVG Export Plug-In . SVG Version: 6.00 Build 0)  -->
<svg version="1.1" id="Layer_1" xmlns="http://www.w3.org/2000/svg" xmlns:xlink="http://www.w3.org/1999/xlink" x="0px" y="0px"
	 viewBox="0 0 595 842" style="enable-background:new 0 0 595 842;" xml:space="preserve">
<style type="text/css">
	.st0{fill-rule:evenodd;clip-rule:evenodd;fill:#FFD520;}
	.st1{fill-rule:evenodd;clip-rule:evenodd;fill:#EF3E42;}
	.st2{fill-rule:evenodd;clip-rule:evenodd;}
</style>
<g id="Kuvataso_1">
</g>
<g id="_x30_">
</g>
<g id="HAT">
</g>
<g id="HATKEL">
</g>
<rect x="127.5" y="299.3" class="st0" width="360.4" height="112.6"/>
<polygon class="st1" points="127.5,314.5 128.7,309.6 132.3,304.2 136.3,301.1 142.7,299.3 148.8,299.3 466.2,299.3 476,299.8 
	483,304.2 486.6,309.6 487.9,316 487.9,394.8 486.1,403 483,407 477.5,410.6 471.1,411.9 142.7,411.9 136.3,409.8 131.1,405.8 
	128.1,399.7 127.5,394.8 "/>
<polygon class="st0" points="135.7,316 137.9,310.6 140.9,308.4 146.7,307.2 471.1,307.5 475.7,309.1 478.7,312.7 479.3,316 
	479.3,394.8 478.7,398.5 476.6,401.2 472,403.4 144.3,403.4 140.9,402.7 137.9,400.6 136,396 "/>
<polygon class="st2" points="171.4,389.3 171.4,352.7 147,352.7 177.8,321.9 208.9,352.7 185.5,352.7 185.5,389.3 "/>
<polygon class="st2" points="430.5,389.3 430.5,352.7 406.1,352.7 436.9,321.9 468.1,352.7 444.5,352.7 444.5,389.3 "/>
</svg>
