<?xml version="1.0" encoding="UTF-8" standalone="no"?>
<svg
   xmlns:dc="http://purl.org/dc/elements/1.1/"
   xmlns:cc="http://creativecommons.org/ns#"
   xmlns:rdf="http://www.w3.org/1999/02/22-rdf-syntax-ns#"
   xmlns:svg="http://www.w3.org/2000/svg"
   xmlns="http://www.w3.org/2000/svg"
   height="113.4"
   width="361.70001"
   id="svg21"
   xml:space="preserve"
   viewBox="0 0 361.70001 113.4"
   y="0px"
   x="0px"
   version="1.1"><metadata
   id="metadata27"><rdf:RDF><cc:Work
       rdf:about=""><dc:format>image/svg+xml</dc:format><dc:type
         rdf:resource="http://purl.org/dc/dcmitype/StillImage" /></cc:Work></rdf:RDF></metadata><defs
   id="defs25" />
<style
   id="style2"
   type="text/css">
	.st0{fill-rule:evenodd;clip-rule:evenodd;fill:#FFD520;}
	.st1{fill-rule:evenodd;clip-rule:evenodd;fill:#EF3E42;stroke:#EF3E42;stroke-width:0.5;stroke-miterlimit:10;}
	.st2{fill-rule:evenodd;clip-rule:evenodd;}
</style>
<g
   transform="translate(-131.05,-281.85)"
   id="Kuvataso_1">
</g>
<g
   transform="translate(-131.05,-281.85)"
   id="_x30_">
</g>
<g
   transform="translate(-131.05,-281.85)"
   id="HAT">
</g>
<g
   transform="translate(-131.05,-281.85)"
   id="HATKEL">
</g>
<g
   transform="translate(-131.05,-281.85)"
   id="HATPUN">
	<rect
   style="clip-rule:evenodd;fill:#ffd520;fill-rule:evenodd"
   id="rect8"
   height="112.9"
   width="361.20001"
   class="st0"
   y="282.10001"
   x="131.3" />
	<polygon
   style="clip-rule:evenodd;fill:#ef3e42;fill-rule:evenodd;stroke:#ef3e42;stroke-width:0.5;stroke-miterlimit:10"
   id="polygon10"
   points="136.2,287 140.2,283.9 146.7,282.1 152.8,282.1 470.7,282.1 480.5,282.7 487.6,287 491.2,292.5 492.5,298.9 492.5,377.8 490.6,386.1 487.6,390.1 482,393.7 475.6,395 146.7,395 140.2,392.8 135.4,388.8 132.3,382.7 131.3,377.8 131.3,297.4 132.5,292.5 "
   class="st1" />
	<polygon
   style="clip-rule:evenodd;fill:#ffd520;fill-rule:evenodd"
   id="polygon12"
   points="144.8,291.3 150.6,290 475.6,290.3 480.2,291.8 483.3,295.5 484.2,298.9 484.2,377.8 483.3,381.5 481.2,384.2 476.8,386.4 148.2,386.4 144.8,385.7 142,383.6 139.9,379 139.9,298.9 142,293.4 "
   class="st0" />
	<polygon
   style="clip-rule:evenodd;fill:#ffd520;fill-rule:evenodd"
   id="polygon14"
   points="282.2,321.2 284.2,325.2 284.2,352.8 282.7,355.8 280.3,357.9 277.3,358.5 273.9,357.9 271.4,355.8 270.5,353.6 270.2,352.8 270.2,325.2 271.4,322.2 272.9,320.6 276,319.4 279.4,319.4 "
   class="st0" />
	<polygon
   style="clip-rule:evenodd;fill:#ffd520;fill-rule:evenodd"
   id="polygon16"
   points="324.3,321.2 326.4,325.2 326.4,352.8 324.9,355.8 322.4,357.9 319.4,358.5 316,357.9 313.6,355.8 312.6,353.6 312.3,352.8 312.3,325.2 313.6,322.2 315.1,320.6 318.2,319.4 321.5,319.4 "
   class="st0" />
	<polygon
   style="clip-rule:evenodd;fill-rule:evenodd"
   id="polygon18"
   points="371.1,324 371.1,326.4 376,324.6 379.9,324 383.9,324.9 387.3,327.1 392.5,324.9 396.1,324.3 402.3,324.3 406.9,326.8 409.3,329.8 410.5,333.5 410.5,366.5 402,366.5 402,335.6 400.7,332.8 399.2,331.6 395.2,331 392.8,332.2 390.6,335.6 390.6,366.5 382.4,366.5 382.4,336.5 381.4,333.8 379.3,331.6 377.5,331 374.8,331.3 372.9,332.2 371.4,334.7 371.1,336.5 371.1,366.5 362.5,366.5 362.5,324 "
   class="st2" />
</g>
</svg>