<?xml version="1.0" encoding="utf-8"?>
<!-- Generator: Adobe Illustrator 28.1.0, SVG Export Plug-In . SVG Version: 6.00 Build 0)  -->
<svg version="1.1" xmlns="http://www.w3.org/2000/svg" xmlns:xlink="http://www.w3.org/1999/xlink" x="0px" y="0px"
	 viewBox="0 0 595 842" style="enable-background:new 0 0 595 842;" xml:space="preserve">
<style type="text/css">
	.st0{fill-rule:evenodd;clip-rule:evenodd;fill:#0079C1;}
	.st1{fill-rule:evenodd;clip-rule:evenodd;fill:#FFFFFF;stroke:#0079C1;stroke-width:0.5;stroke-miterlimit:10;}
	.st2{fill-rule:evenodd;clip-rule:evenodd;fill:#FFFFFF;}
</style>
<g id="Kuvataso_1">
</g>
<g id="_x30_">
</g>
<g id="HAT">
</g>
<g id="HATKEL">
</g>
<g id="HATPUN">
	<rect x="131.3" y="282.1" class="st0" width="361.2" height="112.9"/>
	<polygon class="st1" points="131.3,297.4 132.5,292.5 136.2,287 140.2,283.9 146.7,282.1 152.8,282.1 470.7,282.1 480.5,282.7 
		487.6,287 491.2,292.5 492.5,298.9 492.5,377.8 490.6,386.1 487.6,390.1 482,393.7 475.6,395 146.7,395 140.2,392.8 135.4,388.8 
		132.3,382.7 131.3,377.8 	"/>
	<polygon class="st0" points="139.9,298.9 142,293.4 144.8,291.3 150.6,290 475.6,290.3 480.2,291.8 483.3,295.5 484.2,298.9 
		484.2,377.8 483.3,381.5 481.2,384.2 476.8,386.4 148.2,386.4 144.8,385.7 142,383.6 139.9,379 	"/>
	<polygon class="st2" points="362.5,366.5 362.5,324 371.1,324 371.1,326.4 376,324.6 379.9,324 383.9,324.9 387.3,327.1 
		392.5,324.9 396.1,324.3 402.3,324.3 406.9,326.8 409.3,329.8 410.5,333.5 410.5,366.5 402,366.5 402,335.6 400.7,332.8 
		399.2,331.6 395.2,331 392.8,332.2 390.6,335.6 390.6,366.5 382.4,366.5 382.4,336.5 381.4,333.8 379.3,331.6 377.5,331 
		374.8,331.3 372.9,332.2 371.4,334.7 371.1,336.5 371.1,366.5 	"/>
</g>
</svg>
