<?xml version="1.0" encoding="UTF-8" standalone="no"?>
<svg
   xmlns:dc="http://purl.org/dc/elements/1.1/"
   xmlns:cc="http://creativecommons.org/ns#"
   xmlns:rdf="http://www.w3.org/1999/02/22-rdf-syntax-ns#"
   xmlns:svg="http://www.w3.org/2000/svg"
   xmlns="http://www.w3.org/2000/svg"
   height="317.48999"
   width="396.85001"
   xml:space="preserve"
   viewBox="0 0 396.84999 317.48998"
   y="0px"
   x="0px"
   id="Layer_1"
   version="1.1"><metadata
   id="metadata45"><rdf:RDF><cc:Work
       rdf:about=""><dc:format>image/svg+xml</dc:format><dc:type
         rdf:resource="http://purl.org/dc/dcmitype/StillImage" /></cc:Work></rdf:RDF></metadata><defs
   id="defs43" />
<style
   id="style2"
   type="text/css">
	.st0{fill:#FFCD00;}
	.st1{fill:#E4002B;}
	.st2{fill:#101820;}
</style>
<g
   transform="translate(-14.17,-53.86)"
   id="LWPOLYLINE_182_">
	<rect
   style="fill:#ffcd00"
   id="rect4"
   height="317.48999"
   width="396.85001"
   class="st0"
   y="53.860001"
   x="14.17" />
</g>
<g
   transform="translate(-14.17,-53.86)"
   id="LWPOLYLINE_184_">
	<path
   style="fill:#e4002b"
   id="path7"
   d="M 45.92,53.86 H 379.3 c 17.54,0.01 31.73,14.22 31.72,31.75 V 339.6 c 0,17.54 -14.2,31.75 -31.72,31.75 H 45.92 c -17.54,0 -31.75,-14.22 -31.75,-31.75 v -254 c 0,-17.53 14.22,-31.74 31.75,-31.74 z"
   class="st1" />
</g>
<g
   transform="translate(-14.17,-53.86)"
   id="LWPOLYLINE_183_">
	<path
   style="fill:#ffcd00"
   id="path10"
   d="M 45.92,69.73 H 379.3 c 8.76,0.01 15.86,7.12 15.85,15.87 v 253.99 c 0,8.77 -7.1,15.87 -15.85,15.88 H 45.92 c -8.77,0 -15.87,-7.11 -15.87,-15.88 V 85.6 c 0,-8.76 7.1,-15.87 15.87,-15.87 z"
   class="st0" />
</g>
<g
   transform="translate(-14.17,-53.86)"
   id="LWPOLYLINE_185_">
	<polygon
   style="fill:#101820"
   id="polygon13"
   points="205.31,129.26 205.31,117.35 153.72,117.35 153.72,129.26 173.56,129.26 173.56,196.72 185.47,196.72 185.47,129.26 "
   class="st2" />
</g>
<g
   transform="translate(-14.17,-53.86)"
   id="LWPOLYLINE_186_">
	<path
   style="fill:#101820"
   id="path16"
   d="m 296.2,159.95 v 36.78 h -11.9 v -79.37 h 27.38 c 0.53,0 1.05,0.02 1.58,0.06 11.15,0.88 19.47,10.62 18.6,21.76 0.73,9.32 -5.01,17.93 -13.9,20.83 l -12.76,-0.06 z"
   class="st2" />
</g>
<g
   transform="translate(-14.17,-53.86)"
   id="LWPOLYLINE_188_">
	<path
   style="fill:#101820"
   id="path19"
   d="m 212.76,143.15 v 27.78 c 0,14.25 11.54,25.8 25.79,25.8 14.25,0 25.8,-11.55 25.8,-25.8 v -27.78 c 0,-14.25 -11.55,-25.79 -25.8,-25.79 -14.24,-0.01 -25.79,11.54 -25.79,25.79 z"
   class="st2" />
</g>
<g
   transform="translate(-14.17,-53.86)"
   id="LWPOLYLINE_190_">
	<path
   style="fill:#101820"
   id="path22"
   d="m 132.14,175.65 c -2,5.51 -7.21,9.17 -13.07,9.17 -7.68,0 -13.89,-6.22 -13.89,-13.89 H 93.27 c 0,14.25 11.56,25.8 25.8,25.8 h 3.17 c 12.49,0 22.61,-10.13 22.61,-22.63 0,-9.61 -6.07,-18.17 -15.15,-21.35 L 113.28,147 c -3.66,-1.28 -6.11,-4.74 -6.11,-8.62 0,-5.04 4.09,-9.13 9.12,-9.13 h 5.56 c 5.03,0 9.12,4.09 9.12,9.13 h 11.91 c 0,-11.62 -9.42,-21.03 -21.03,-21.03 h -5.56 c -11.61,0 -21.03,9.41 -21.03,21.03 0,8.94 5.66,16.9 14.09,19.85 l 16.43,5.75 c 2.41,0.84 4.44,2.53 5.74,4.73 1.21,2.11 1.44,4.65 0.62,6.94 z"
   class="st2" />
</g>
<g
   transform="translate(-14.17,-53.86)"
   id="LWPOLYLINE_196_">
	<path
   style="fill:#101820"
   id="path25"
   d="m 297.57,307.84 v -42.07 c 0,-4.38 3.54,-7.94 7.93,-7.94 4.39,0 7.94,3.56 7.94,7.94 v 42.07 h 11.9 v -42.07 c 0,-4.38 3.55,-7.94 7.94,-7.94 4.38,0 7.93,3.56 7.93,7.94 v 42.07 h 11.9 v -44.45 c 0,-8.32 -6.75,-15.08 -15.08,-15.08 h -2.38 c -5.31,0 -10.52,1.4 -15.11,4.05 -2.79,-2.6 -6.46,-4.05 -10.29,-4.05 h -3.32 c -3.28,0.53 -6.44,1.59 -9.37,3.15 v -3.15 h -11.91 v 59.53 z"
   class="st2" />
</g>
<g
   transform="translate(-14.17,-53.86)"
   id="LWPOLYLINE_187_">
	<path
   style="fill:#ffcd00"
   id="path28"
   d="m 311.69,149.1 c 4.59,0 8.33,-3.73 8.33,-8.33 v -3.18 c 0,-4.6 -3.74,-8.33 -8.33,-8.33 H 296.2 v 19.84 z"
   class="st0" />
</g>
<g
   transform="translate(-14.17,-53.86)"
   id="LWPOLYLINE_189_">
	<path
   style="fill:#ffcd00"
   id="path31"
   d="m 252.44,143.15 c 0,-7.67 -6.21,-13.89 -13.89,-13.89 -7.66,0 -13.89,6.22 -13.89,13.89 v 27.78 c 0,7.68 6.22,13.89 13.89,13.89 7.68,0 13.89,-6.22 13.89,-13.89 z"
   class="st0" />
</g>
<g
   transform="translate(-14.17,-53.86)"
   id="LWPOLYLINE_193_">
	<path
   style="fill:#ffcd00"
   id="path34"
   d="m 230.29,250.3 c 0,-5.48 -4.44,-9.93 -9.92,-9.93 -5.48,0 -9.93,4.44 -9.93,9.93 v 35.72 c 0,5.47 4.44,9.92 9.93,9.92 5.47,0 9.92,-4.44 9.92,-9.92 z"
   class="st0" />
</g>
<g
   transform="translate(-14.17,-53.86)"
   id="LWPOLYLINE_195_">
	<path
   style="fill:#ffcd00"
   id="path37"
   d="m 167.29,250.3 c 0,-5.48 -4.44,-9.93 -9.93,-9.93 -5.47,0 -9.92,4.44 -9.92,9.93 v 35.72 c 0,5.47 4.44,9.92 9.92,9.92 5.48,0 9.93,-4.44 9.93,-9.92 z"
   class="st0" />
</g>
</svg>