<?xml version="1.0" encoding="utf-8"?>
<!-- Generator: Adobe Illustrator 27.0.1, SVG Export Plug-In . SVG Version: 6.00 Build 0)  -->
<svg version="1.1" id="Layer_1" xmlns="http://www.w3.org/2000/svg" xmlns:xlink="http://www.w3.org/1999/xlink" x="0px" y="0px"
	 viewBox="0 0 425.2 425.2" style="enable-background:new 0 0 425.2 425.2;" xml:space="preserve">
<style type="text/css">
	.st0{fill:#FFCD00;}
	.st1{fill:#E4002B;}
	.st2{fill:#101820;}
</style>
<g id="LWPOLYLINE_182_">
	<rect x="14.17" y="53.86" class="st0" width="396.85" height="317.49"/>
</g>
<g id="LWPOLYLINE_184_">
	<path class="st1" d="M45.92,53.86H379.3c17.54,0.01,31.73,14.22,31.72,31.75v253.99c0,17.54-14.2,31.75-31.72,31.75H45.92
		c-17.54,0-31.75-14.22-31.75-31.75V85.6C14.17,68.07,28.39,53.86,45.92,53.86z"/>
</g>
<g id="LWPOLYLINE_183_">
	<path class="st0" d="M45.92,69.73H379.3c8.76,0.01,15.86,7.12,15.85,15.87v253.99c0,8.77-7.1,15.87-15.85,15.88H45.92
		c-8.77,0-15.87-7.11-15.87-15.88V85.6C30.05,76.84,37.15,69.73,45.92,69.73z"/>
</g>
<g id="LWPOLYLINE_185_">
	<polygon class="st2" points="185.47,196.72 185.47,129.26 205.31,129.26 205.31,117.35 153.72,117.35 153.72,129.26 173.56,129.26 
		173.56,196.72 	"/>
</g>
<g id="LWPOLYLINE_186_">
	<path class="st2" d="M296.2,159.95v36.78h-11.9v-79.37h27.38c0.53,0,1.05,0.02,1.58,0.06c11.15,0.88,19.47,10.62,18.6,21.76
		c0.73,9.32-5.01,17.93-13.9,20.83l-12.76-0.06H296.2z"/>
</g>
<g id="LWPOLYLINE_188_">
	<path class="st2" d="M212.76,143.15v27.78c0,14.25,11.54,25.8,25.79,25.8c14.25,0,25.8-11.55,25.8-25.8v-27.78
		c0-14.25-11.55-25.79-25.8-25.79C224.31,117.35,212.76,128.9,212.76,143.15z"/>
</g>
<g id="LWPOLYLINE_190_">
	<path class="st2" d="M132.14,175.65c-2,5.51-7.21,9.17-13.07,9.17c-7.68,0-13.89-6.22-13.89-13.89H93.27
		c0,14.25,11.56,25.8,25.8,25.8h3.17c12.49,0,22.61-10.13,22.61-22.63c0-9.61-6.07-18.17-15.15-21.35L113.28,147
		c-3.66-1.28-6.11-4.74-6.11-8.62c0-5.04,4.09-9.13,9.12-9.13h5.56c5.03,0,9.12,4.09,9.12,9.13h11.91
		c0-11.62-9.42-21.03-21.03-21.03h-5.56c-11.61,0-21.03,9.41-21.03,21.03c0,8.94,5.66,16.9,14.09,19.85l16.43,5.75
		c2.41,0.84,4.44,2.53,5.74,4.73C132.73,170.82,132.96,173.36,132.14,175.65z"/>
</g>
<g id="LWPOLYLINE_196_">
	<path class="st2" d="M297.57,307.84v-42.07c0-4.38,3.54-7.94,7.93-7.94c4.39,0,7.94,3.56,7.94,7.94v42.07h11.9v-42.07
		c0-4.38,3.55-7.94,7.94-7.94c4.38,0,7.93,3.56,7.93,7.94v42.07h11.9v-44.45c0-8.32-6.75-15.08-15.08-15.08h-2.38
		c-5.31,0-10.52,1.4-15.11,4.05c-2.79-2.6-6.46-4.05-10.29-4.05h-3.32c-3.28,0.53-6.44,1.59-9.37,3.15v-3.15h-11.91v59.53H297.57z"
		/>
</g>
<g id="LWPOLYLINE_187_">
	<path class="st0" d="M311.69,149.1c4.59,0,8.33-3.73,8.33-8.33v-3.18c0-4.6-3.74-8.33-8.33-8.33H296.2v19.84H311.69z"/>
</g>
<g id="LWPOLYLINE_189_">
	<path class="st0" d="M252.44,143.15c0-7.67-6.21-13.89-13.89-13.89c-7.66,0-13.89,6.22-13.89,13.89v27.78
		c0,7.68,6.22,13.89,13.89,13.89c7.68,0,13.89-6.22,13.89-13.89V143.15z"/>
</g>
<g id="LWPOLYLINE_193_">
	<path class="st0" d="M230.29,250.3c0-5.48-4.44-9.93-9.92-9.93c-5.48,0-9.93,4.44-9.93,9.93v35.72c0,5.47,4.44,9.92,9.93,9.92
		c5.47,0,9.92-4.44,9.92-9.92V250.3z"/>
</g>
<g id="LWPOLYLINE_195_">
	<path class="st0" d="M167.29,250.3c0-5.48-4.44-9.93-9.93-9.93c-5.47,0-9.92,4.44-9.92,9.93v35.72c0,5.47,4.44,9.92,9.92,9.92
		c5.48,0,9.93-4.44,9.93-9.92V250.3z"/>
</g>
</svg>
