<?xml version="1.0" encoding="UTF-8" standalone="no"?>
<svg
   xmlns:dc="http://purl.org/dc/elements/1.1/"
   xmlns:cc="http://creativecommons.org/ns#"
   xmlns:rdf="http://www.w3.org/1999/02/22-rdf-syntax-ns#"
   xmlns:svg="http://www.w3.org/2000/svg"
   xmlns="http://www.w3.org/2000/svg"
   height="198.42999"
   width="396.85001"
   xml:space="preserve"
   viewBox="0 0 396.84999 198.42999"
   y="0px"
   x="0px"
   id="Layer_1"
   version="1.1"><metadata
   id="metadata36"><rdf:RDF><cc:Work
       rdf:about=""><dc:format>image/svg+xml</dc:format><dc:type
         rdf:resource="http://purl.org/dc/dcmitype/StillImage" /></cc:Work></rdf:RDF></metadata><defs
   id="defs34" />
<style
   id="style2"
   type="text/css">
	.st0{fill:#FFCD00;}
	.st1{fill:#E4002B;}
	.st2{fill:#101820;}
</style>
<g
   transform="translate(-14.17,-113.38)"
   id="LWPOLYLINE_10_">
	<rect
   style="fill:#ffcd00"
   id="rect4"
   height="198.42"
   width="396.85001"
   class="st0"
   y="113.39"
   x="14.17" />
</g>
<g
   transform="translate(-14.17,-113.38)"
   id="LWPOLYLINE_12_">
	<path
   style="fill:#e4002b"
   id="path7"
   d="m 40.63,311.81 h 343.94 c 14.61,0 26.45,-11.84 26.45,-26.46 V 139.84 c 0,-14.61 -11.85,-26.46 -26.45,-26.46 H 40.63 c -14.61,0 -26.46,11.85 -26.46,26.46 v 145.51 c 0,14.62 11.85,26.46 26.46,26.46 z"
   class="st1" />
</g>
<g
   transform="translate(-14.17,-113.38)"
   id="LWPOLYLINE_11_">
	<path
   style="fill:#ffcd00"
   id="path10"
   d="m 40.63,298.58 h 343.94 c 7.3,0 13.23,-5.93 13.23,-13.23 V 139.84 c 0,-7.31 -5.93,-13.23 -13.23,-13.23 H 40.63 c -7.3,0 -13.23,5.92 -13.23,13.23 v 145.51 c 0.01,7.31 5.93,13.23 13.23,13.23 z"
   class="st0" />
</g>
<g
   transform="translate(-14.17,-113.38)"
   id="LWPOLYLINE_13_">
	<polygon
   style="fill:#101820"
   id="polygon13"
   points="30.71,265.51 83.62,212.6 30.71,159.69 "
   class="st2" />
</g>
<g
   transform="translate(-14.17,-113.38)"
   id="LWPOLYLINE_14_">
	<polygon
   style="fill:#101820"
   id="polygon16"
   points="394.49,159.69 394.49,265.51 341.57,212.6 "
   class="st2" />
</g>
<g
   transform="translate(-14.17,-113.38)"
   id="LWPOLYLINE_53_">
	<path
   style="fill:#101820"
   id="path19"
   d="m 309.83,207.76 c 0,-3.07 -2.49,-5.56 -5.56,-5.56 h -0.79 c -5.25,0 -9.52,4.26 -9.52,9.52 v 40.48 h -11.91 v -44.45 c 0,-3.07 -2.48,-5.56 -5.55,-5.56 h -0.79 c -5.26,0 -9.52,4.26 -9.52,9.52 v 40.48 h -11.91 v -59.53 h 11.91 v 4.76 c 3.88,-2.42 8.23,-4 12.77,-4.66 0.56,-0.08 1.11,-0.1 1.68,-0.07 4.44,0.3 8.49,2.65 10.95,6.36 4.45,-3.32 9.66,-5.49 15.15,-6.29 0.56,-0.08 1.12,-0.1 1.68,-0.07 7.5,0.5 13.33,6.73 13.33,14.26 v 45.24 h -11.9 v -44.43 z"
   class="st2" />
</g>
<g
   transform="translate(-14.17,-113.38)"
   id="LWPOLYLINE_48_">
	<polygon
   style="fill:#ffcd00"
   id="polygon22"
   points="132.83,224.43 116.96,224.43 132.83,196.54 "
   class="st0" />
</g>
<g
   transform="translate(-14.17,-113.38)"
   id="LWPOLYLINE_49_">
	<path
   style="fill:#ffcd00"
   id="path25"
   d="m 202.58,235.84 c 0,4.11 3.33,7.44 7.44,7.44 4.11,0 7.44,-3.33 7.44,-7.44 v -4.17 c 0,-4.11 -3.33,-7.44 -7.44,-7.44 -4.11,0 -7.44,3.33 -7.44,7.44 z"
   class="st0" />
</g>
<g
   transform="translate(-14.17,-113.38)"
   id="LWPOLYLINE_51_">
	<path
   style="fill:#ffcd00"
   id="path28"
   d="m 204.07,207.56 v 2.38 c 0,3.29 2.66,5.95 5.95,5.95 3.29,0 5.95,-2.66 5.95,-5.95 v -2.38 c 0,-3.29 -2.66,-5.96 -5.95,-5.96 -3.29,0.01 -5.95,2.67 -5.95,5.96 z"
   class="st0" />
</g>
</svg>