<?xml version="1.0" encoding="utf-8"?>
<!-- Generator: Adobe Illustrator 27.0.1, SVG Export Plug-In . SVG Version: 6.00 Build 0)  -->
<svg version="1.1" id="Layer_1" xmlns="http://www.w3.org/2000/svg" xmlns:xlink="http://www.w3.org/1999/xlink" x="0px" y="0px"
	 viewBox="0 0 425.2 425.2" style="enable-background:new 0 0 425.2 425.2;" xml:space="preserve">
<style type="text/css">
	.st0{fill:#FFCD00;}
	.st1{fill:#E4002B;}
	.st2{fill:#101820;}
</style>
<g id="LWPOLYLINE_38_">
	<rect x="14.17" y="80.31" class="st0" width="396.85" height="264.57"/>
</g>
<g id="LWPOLYLINE_40_">
	<path class="st1" d="M40.63,344.88h343.94c14.61,0,26.45-11.84,26.45-26.46V106.77c0-14.61-11.85-26.46-26.45-26.46H40.63
		c-14.61,0-26.46,11.85-26.46,26.46v211.65C14.17,333.04,26.02,344.88,40.63,344.88z"/>
</g>
<g id="LWPOLYLINE_39_">
	<path class="st0" d="M40.63,331.65h343.94c7.3,0,13.23-5.92,13.23-13.23V106.77c0-7.3-5.93-13.23-13.23-13.23H40.63
		c-7.3,0-13.23,5.93-13.23,13.23v211.65C27.41,325.73,33.33,331.65,40.63,331.65z"/>
</g>
<g id="LWPOLYLINE_41_">
	<polygon class="st2" points="265.55,96.85 159.65,96.85 212.6,149.79 	"/>
</g>
<g id="LWPOLYLINE_42_">
	<polygon class="st2" points="159.65,328.34 265.55,328.34 212.6,275.4 	"/>
</g>
<g id="LWPOLYLINE_49_">
	<path class="st2" d="M349.63,206.65c0-3.83-3.11-6.94-6.94-6.94h-0.99c-6.58,0-11.91,5.33-11.91,11.9v50.6h-14.88v-55.56
		c0-3.83-3.11-6.94-6.94-6.94h-0.99c-6.58,0-11.91,5.33-11.91,11.9v50.6h-14.88v-74.41h14.88v5.96c4.87-3.02,10.3-5.01,15.97-5.83
		c0.69-0.1,1.4-0.13,2.1-0.08c5.54,0.37,10.61,3.31,13.69,7.94c5.56-4.16,12.07-6.86,18.94-7.87c0.69-0.1,1.4-0.13,2.1-0.08
		c9.37,0.62,16.66,8.42,16.66,17.82v56.54h-14.88V206.65z"/>
</g>
<g id="LWPOLYLINE_46_">
	<polygon class="st0" points="77.55,227.48 97.39,192.62 97.39,227.48 	"/>
</g>
</svg>
