<?xml version="1.0" encoding="UTF-8" standalone="no"?>
<svg
   xmlns:dc="http://purl.org/dc/elements/1.1/"
   xmlns:cc="http://creativecommons.org/ns#"
   xmlns:rdf="http://www.w3.org/1999/02/22-rdf-syntax-ns#"
   xmlns:svg="http://www.w3.org/2000/svg"
   xmlns="http://www.w3.org/2000/svg"
   height="264.57001"
   width="396.85001"
   xml:space="preserve"
   viewBox="0 0 396.84999 264.57"
   y="0px"
   x="0px"
   id="Layer_1"
   version="1.1"><metadata
   id="metadata30"><rdf:RDF><cc:Work
       rdf:about=""><dc:format>image/svg+xml</dc:format><dc:type
         rdf:resource="http://purl.org/dc/dcmitype/StillImage" /></cc:Work></rdf:RDF></metadata><defs
   id="defs28" />
<style
   id="style2"
   type="text/css">
	.st0{fill:#FFCD00;}
	.st1{fill:#E4002B;}
	.st2{fill:#101820;}
</style>
<g
   transform="translate(-14.17,-80.309998)"
   id="LWPOLYLINE_38_">
	<rect
   style="fill:#ffcd00"
   id="rect4"
   height="264.57001"
   width="396.85001"
   class="st0"
   y="80.309998"
   x="14.17" />
</g>
<g
   transform="translate(-14.17,-80.309998)"
   id="LWPOLYLINE_40_">
	<path
   style="fill:#e4002b"
   id="path7"
   d="m 40.63,344.88 h 343.94 c 14.61,0 26.45,-11.84 26.45,-26.46 V 106.77 c 0,-14.61 -11.85,-26.46 -26.45,-26.46 H 40.63 c -14.61,0 -26.46,11.85 -26.46,26.46 v 211.65 c 0,14.62 11.85,26.46 26.46,26.46 z"
   class="st1" />
</g>
<g
   transform="translate(-14.17,-80.309998)"
   id="LWPOLYLINE_39_">
	<path
   style="fill:#ffcd00"
   id="path10"
   d="m 40.63,331.65 h 343.94 c 7.3,0 13.23,-5.92 13.23,-13.23 V 106.77 c 0,-7.3 -5.93,-13.23 -13.23,-13.23 H 40.63 c -7.3,0 -13.23,5.93 -13.23,13.23 v 211.65 c 0.01,7.31 5.93,13.23 13.23,13.23 z"
   class="st0" />
</g>
<g
   transform="translate(-14.17,-80.309998)"
   id="LWPOLYLINE_41_">
	<polygon
   style="fill:#101820"
   id="polygon13"
   points="212.6,149.79 265.55,96.85 159.65,96.85 "
   class="st2" />
</g>
<g
   transform="translate(-14.17,-80.309998)"
   id="LWPOLYLINE_42_">
	<polygon
   style="fill:#101820"
   id="polygon16"
   points="212.6,275.4 159.65,328.34 265.55,328.34 "
   class="st2" />
</g>
<g
   transform="translate(-14.17,-80.309998)"
   id="LWPOLYLINE_49_">
	<path
   style="fill:#101820"
   id="path19"
   d="m 349.63,206.65 c 0,-3.83 -3.11,-6.94 -6.94,-6.94 h -0.99 c -6.58,0 -11.91,5.33 -11.91,11.9 v 50.6 h -14.88 v -55.56 c 0,-3.83 -3.11,-6.94 -6.94,-6.94 h -0.99 c -6.58,0 -11.91,5.33 -11.91,11.9 v 50.6 H 280.19 V 187.8 h 14.88 v 5.96 c 4.87,-3.02 10.3,-5.01 15.97,-5.83 0.69,-0.1 1.4,-0.13 2.1,-0.08 5.54,0.37 10.61,3.31 13.69,7.94 5.56,-4.16 12.07,-6.86 18.94,-7.87 0.69,-0.1 1.4,-0.13 2.1,-0.08 9.37,0.62 16.66,8.42 16.66,17.82 v 56.54 h -14.88 v -55.55 z"
   class="st2" />
</g>
<g
   transform="translate(-14.17,-80.309998)"
   id="LWPOLYLINE_46_">
	<polygon
   style="fill:#ffcd00"
   id="polygon22"
   points="97.39,227.48 77.55,227.48 97.39,192.62 "
   class="st0" />
</g>
</svg>