<?xml version="1.0" encoding="UTF-8" standalone="no"?>
<svg
   xmlns:dc="http://purl.org/dc/elements/1.1/"
   xmlns:cc="http://creativecommons.org/ns#"
   xmlns:rdf="http://www.w3.org/1999/02/22-rdf-syntax-ns#"
   xmlns:svg="http://www.w3.org/2000/svg"
   xmlns="http://www.w3.org/2000/svg"
   id="svg20"
   xml:space="preserve"
   viewBox="0 0 363.672 363.384"
   height="363.384"
   width="363.672"
   y="0px"
   x="0px"
   version="1.1"><metadata
   id="metadata26"><rdf:RDF><cc:Work
       rdf:about=""><dc:format>image/svg+xml</dc:format><dc:type
         rdf:resource="http://purl.org/dc/dcmitype/StillImage" /></cc:Work></rdf:RDF></metadata><defs
   id="defs24" />
<g
   transform="translate(-109,-197.528)"
   id="Kuvataso_1">
</g>
<g
   transform="translate(-109,-197.528)"
   id="_x30_">
</g>
<g
   transform="translate(-109,-197.528)"
   id="KUVA">
</g>
<g
   transform="translate(-109,-197.528)"
   id="HAT">
</g>
<g
   transform="translate(-109,-197.528)"
   id="HATKEL">
</g>
<g
   transform="translate(-109,-197.528)"
   id="HATPUN">
	<g
   id="g17">
		<polygon
   id="polygon7"
   points="472.672,197.528 472.672,560.912 109,560.912 109,197.816 "
   style="clip-rule:evenodd;fill:#ffd200;fill-rule:evenodd" />
		<polygon
   id="polygon9"
   points="121.312,555.368 116.704,551.048 111.52,543.344 109,530.672 109,227.696 110.584,218.48 113.032,212.576 116.704,207.392 121.312,203.36 126.856,200.264 136.144,197.816 445.6,197.816 451.72,199.04 460.072,203.36 464.68,207.392 468.352,212.576 471.808,221.504 472.672,227.696 472.672,530.672 471.16,540.248 466.84,548.528 460.072,555.368 451.72,559.616 445.6,560.912 136.144,560.912 129.952,559.616 "
   style="clip-rule:evenodd;fill:#ef3e42;fill-rule:evenodd" />
		<polygon
   id="polygon11"
   points="130.312,542.984 126.856,539.6 124.12,533.192 124.12,229.568 124.768,223.088 126.856,218.768 130.312,215.672 136.72,212.936 444.664,212.936 448.984,214.448 454.528,218.768 456.688,223.088 457.264,227.696 457.264,533.192 455.752,537.8 451.144,542.984 446.824,545.144 444.664,545.792 139.24,546.08 134.56,545.144 "
   style="clip-rule:evenodd;fill:#ffd200;fill-rule:evenodd" />
		<polygon
   id="polygon13"
   points="365.824,446 434.224,378.32 365.824,309.92 365.824,355.496 308.872,355.496 308.872,401.072 365.824,401.072 "
   style="clip-rule:evenodd;fill-rule:evenodd" />
		<polygon
   id="polygon15"
   points="215.92,310.208 147.808,378.032 215.92,446 215.92,400.784 272.872,400.784 272.872,355.208 215.92,355.208 "
   style="clip-rule:evenodd;fill-rule:evenodd" />
	</g>
</g>
</svg>