<?xml version="1.0" encoding="utf-8"?>
<!-- Generator: Adobe Illustrator 28.1.0, SVG Export Plug-In . SVG Version: 6.00 Build 0)  -->
<svg version="1.1" xmlns="http://www.w3.org/2000/svg" xmlns:xlink="http://www.w3.org/1999/xlink" x="0px" y="0px"
	 viewBox="0 0 595 842" style="enable-background:new 0 0 595 842;" xml:space="preserve">
<style type="text/css">
	.st0{fill-rule:evenodd;clip-rule:evenodd;fill:#0079C1;}
	.st1{fill-rule:evenodd;clip-rule:evenodd;fill:#FFFFFF;stroke:#0079C1;stroke-miterlimit:10;}
	.st2{fill-rule:evenodd;clip-rule:evenodd;fill:#FFFFFF;}
</style>
<g id="Kuvataso_1">
</g>
<g id="_x30_">
</g>
<g id="KUVA">
</g>
<g id="HAT">
</g>
<g id="HATKEL">
</g>
<g id="HATPUN">
	<polygon class="st0" points="109,560.9 109,197.8 472.7,197.5 472.7,560.9 	"/>
	<polygon class="st1" points="136.1,560.9 130,559.6 121.3,555.4 116.7,551 111.5,543.3 109,530.7 109,227.7 110.6,218.5 113,212.6 
		116.7,207.4 121.3,203.4 126.9,200.3 136.1,197.8 445.6,197.8 451.7,199 460.1,203.4 464.7,207.4 468.4,212.6 471.8,221.5 
		472.7,227.7 472.7,530.7 471.2,540.2 466.8,548.5 460.1,555.4 451.7,559.6 445.6,560.9 	"/>
	<polygon class="st0" points="139.2,546.1 134.6,545.1 130.3,543 126.9,539.6 124.1,533.2 124.1,229.6 124.8,223.1 126.9,218.8 
		130.3,215.7 136.7,212.9 444.7,212.9 449,214.4 454.5,218.8 456.7,223.1 457.3,227.7 457.3,533.2 455.8,537.8 451.1,543 
		446.8,545.1 444.7,545.8 	"/>
	<polygon class="st2" points="308.9,401.1 365.8,401.1 365.8,446 434.2,378.3 365.8,309.9 365.8,355.5 308.9,355.5 	"/>
	<polygon class="st2" points="272.9,355.2 215.9,355.2 215.9,310.2 147.8,378 215.9,446 215.9,400.8 272.9,400.8 	"/>
</g>
</svg>
