<?xml version="1.0" encoding="UTF-8" standalone="no"?>
<svg
   xmlns:dc="http://purl.org/dc/elements/1.1/"
   xmlns:cc="http://creativecommons.org/ns#"
   xmlns:rdf="http://www.w3.org/1999/02/22-rdf-syntax-ns#"
   xmlns:svg="http://www.w3.org/2000/svg"
   xmlns="http://www.w3.org/2000/svg"
   id="svg20"
   xml:space="preserve"
   viewBox="0 0 363.384 363.672"
   height="363.672"
   width="363.384"
   y="0px"
   x="0px"
   version="1.1"><metadata
   id="metadata26"><rdf:RDF><cc:Work
       rdf:about=""><dc:format>image/svg+xml</dc:format><dc:type
         rdf:resource="http://purl.org/dc/dcmitype/StillImage" /></cc:Work></rdf:RDF></metadata><defs
   id="defs24" />
<g
   transform="translate(-109.144,-197.384)"
   id="Kuvataso_1">
</g>
<g
   transform="translate(-109.144,-197.384)"
   id="_x30_">
</g>
<g
   transform="translate(-109.144,-197.384)"
   id="KUVA">
</g>
<g
   transform="translate(-109.144,-197.384)"
   id="HAT">
</g>
<g
   transform="translate(-109.144,-197.384)"
   id="HATKEL">
</g>
<g
   transform="translate(-109.144,-197.384)"
   id="HATPUN">
	<g
   id="g17">
		<polygon
   id="polygon7"
   points="472.528,561.056 109.144,561.056 109.144,197.384 472.24,197.384 "
   style="clip-rule:evenodd;fill:#ffd200;fill-rule:evenodd" />
		<polygon
   id="polygon9"
   points="114.688,209.696 119.008,205.088 126.712,199.832 139.384,197.384 442.36,197.384 451.576,198.896 457.48,201.344 462.664,205.088 466.696,209.696 469.792,215.24 472.24,224.456 472.24,533.912 471.016,540.104 466.696,548.384 462.664,552.992 457.48,556.736 448.552,560.12 442.36,561.056 139.384,561.056 129.808,559.472 121.528,555.152 114.688,548.384 110.44,540.104 109.144,533.912 109.144,224.456 110.44,218.336 "
   style="clip-rule:evenodd;fill:#ef3e42;fill-rule:evenodd" />
		<polygon
   id="polygon11"
   points="127.072,218.624 130.456,215.24 136.864,212.432 440.488,212.432 446.968,213.08 451.288,215.24 454.384,218.624 457.12,225.104 457.12,532.976 455.608,537.296 451.288,542.84 446.968,545 442.36,545.648 136.864,545.648 132.256,544.064 127.072,539.456 124.912,535.136 124.264,532.976 123.976,227.552 124.912,222.944 "
   style="clip-rule:evenodd;fill:#ffd200;fill-rule:evenodd" />
		<polygon
   id="polygon13"
   points="224.056,454.136 291.808,522.536 360.136,454.136 314.56,454.136 314.56,397.256 269.056,397.256 269.056,454.136 "
   style="clip-rule:evenodd;fill-rule:evenodd" />
		<polygon
   id="polygon15"
   points="359.848,304.232 292.096,236.192 224.056,304.232 269.344,304.232 269.344,361.184 314.848,361.184 314.848,304.232 "
   style="clip-rule:evenodd;fill-rule:evenodd" />
	</g>
</g>
</svg>