<?xml version="1.0" encoding="utf-8"?>
<!-- Generator: Adobe Illustrator 28.1.0, SVG Export Plug-In . SVG Version: 6.00 Build 0)  -->
<svg version="1.1" xmlns="http://www.w3.org/2000/svg" xmlns:xlink="http://www.w3.org/1999/xlink" x="0px" y="0px"
	 viewBox="0 0 595 842" style="enable-background:new 0 0 595 842;" xml:space="preserve">
<style type="text/css">
	.st0{fill-rule:evenodd;clip-rule:evenodd;fill:#0079C1;}
	.st1{fill-rule:evenodd;clip-rule:evenodd;fill:#FFFFFF;stroke:#0079C1;stroke-miterlimit:10;}
	.st2{fill-rule:evenodd;clip-rule:evenodd;fill:#FFFFFF;}
</style>
<g id="Kuvataso_1">
</g>
<g id="_x30_">
</g>
<g id="KUVA">
</g>
<g id="HAT">
</g>
<g id="HATKEL">
</g>
<g id="HATPUN">
	<polygon class="st0" points="109.1,197.4 472.2,197.4 472.5,561.1 109.1,561.1 	"/>
	<polygon class="st1" points="109.1,224.5 110.4,218.3 114.7,209.7 119,205.1 126.7,199.8 139.4,197.4 442.4,197.4 451.6,198.9 
		457.5,201.3 462.7,205.1 466.7,209.7 469.8,215.2 472.2,224.5 472.2,533.9 471,540.1 466.7,548.4 462.7,553 457.5,556.7 
		448.6,560.1 442.4,561.1 139.4,561.1 129.8,559.5 121.5,555.2 114.7,548.4 110.4,540.1 109.1,533.9 	"/>
	<polygon class="st0" points="124,227.6 124.9,222.9 127.1,218.6 130.5,215.2 136.9,212.4 440.5,212.4 447,213.1 451.3,215.2 
		454.4,218.6 457.1,225.1 457.1,533 455.6,537.3 451.3,542.8 447,545 442.4,545.6 136.9,545.6 132.3,544.1 127.1,539.5 124.9,535.1 
		124.3,533 	"/>
	<polygon class="st2" points="269.1,397.3 269.1,454.1 224.1,454.1 291.8,522.5 360.1,454.1 314.6,454.1 314.6,397.3 	"/>
	<polygon class="st2" points="314.8,361.2 314.8,304.2 359.8,304.2 292.1,236.2 224.1,304.2 269.3,304.2 269.3,361.2 	"/>
</g>
</svg>
