<?xml version="1.0" encoding="UTF-8" standalone="no"?>
<svg
   xmlns:dc="http://purl.org/dc/elements/1.1/"
   xmlns:cc="http://creativecommons.org/ns#"
   xmlns:rdf="http://www.w3.org/1999/02/22-rdf-syntax-ns#"
   xmlns:svg="http://www.w3.org/2000/svg"
   xmlns="http://www.w3.org/2000/svg"
   height="364.70001"
   width="364.10001"
   id="svg20"
   xml:space="preserve"
   viewBox="0 0 364.10001 364.70001"
   y="0px"
   x="0px"
   version="1.1"><metadata
   id="metadata26"><rdf:RDF><cc:Work
       rdf:about=""><dc:format>image/svg+xml</dc:format><dc:type
         rdf:resource="http://purl.org/dc/dcmitype/StillImage" /></cc:Work></rdf:RDF></metadata><defs
   id="defs24" />
<style
   id="style2"
   type="text/css">
	.st0{fill-rule:evenodd;clip-rule:evenodd;fill:#0079C1;}
	.st1{fill-rule:evenodd;clip-rule:evenodd;fill:#FFFFFF;stroke:#0079C1;stroke-miterlimit:10;}
	.st2{fill-rule:evenodd;clip-rule:evenodd;fill:#FFFFFF;}
</style>
<g
   transform="translate(-108.6,-196.9)"
   id="Kuvataso_1">
</g>
<g
   transform="translate(-108.6,-196.9)"
   id="_x30_">
</g>
<g
   transform="translate(-108.6,-196.9)"
   id="KUVA">
</g>
<g
   transform="translate(-108.6,-196.9)"
   id="HAT">
</g>
<g
   transform="translate(-108.6,-196.9)"
   id="HATKEL">
</g>
<g
   transform="translate(-108.6,-196.9)"
   id="HATPUN">
	<polygon
   style="clip-rule:evenodd;fill:#0079c1;fill-rule:evenodd"
   id="polygon9"
   points="472.5,561.1 109.1,561.1 109.1,197.4 472.2,197.4 "
   class="st0" />
	<polygon
   style="clip-rule:evenodd;fill:#ffffff;fill-rule:evenodd;stroke:#0079c1;stroke-miterlimit:10"
   id="polygon11"
   points="114.7,209.7 119,205.1 126.7,199.8 139.4,197.4 442.4,197.4 451.6,198.9 457.5,201.3 462.7,205.1 466.7,209.7 469.8,215.2 472.2,224.5 472.2,533.9 471,540.1 466.7,548.4 462.7,553 457.5,556.7 448.6,560.1 442.4,561.1 139.4,561.1 129.8,559.5 121.5,555.2 114.7,548.4 110.4,540.1 109.1,533.9 109.1,224.5 110.4,218.3 "
   class="st1" />
	<polygon
   style="clip-rule:evenodd;fill:#0079c1;fill-rule:evenodd"
   id="polygon13"
   points="127.1,218.6 130.5,215.2 136.9,212.4 440.5,212.4 447,213.1 451.3,215.2 454.4,218.6 457.1,225.1 457.1,533 455.6,537.3 451.3,542.8 447,545 442.4,545.6 136.9,545.6 132.3,544.1 127.1,539.5 124.9,535.1 124.3,533 124,227.6 124.9,222.9 "
   class="st0" />
	<polygon
   style="clip-rule:evenodd;fill:#ffffff;fill-rule:evenodd"
   id="polygon15"
   points="224.1,454.1 291.8,522.5 360.1,454.1 314.6,454.1 314.6,397.3 269.1,397.3 269.1,454.1 "
   class="st2" />
	<polygon
   style="clip-rule:evenodd;fill:#ffffff;fill-rule:evenodd"
   id="polygon17"
   points="359.8,304.2 292.1,236.2 224.1,304.2 269.3,304.2 269.3,361.2 314.8,361.2 314.8,304.2 "
   class="st2" />
</g>
</svg>