<?xml version="1.0" encoding="UTF-8" standalone="no"?>
<svg
   xmlns:dc="http://purl.org/dc/elements/1.1/"
   xmlns:cc="http://creativecommons.org/ns#"
   xmlns:rdf="http://www.w3.org/1999/02/22-rdf-syntax-ns#"
   xmlns:svg="http://www.w3.org/2000/svg"
   xmlns="http://www.w3.org/2000/svg"
   id="svg18"
   xml:space="preserve"
   viewBox="0 0 358.63199 358.84799"
   height="358.84799"
   width="358.63199"
   y="0px"
   x="0px"
   version="1.1"><metadata
   id="metadata24"><rdf:RDF><cc:Work
       rdf:about=""><dc:format>image/svg+xml</dc:format><dc:type
         rdf:resource="http://purl.org/dc/dcmitype/StillImage" /></cc:Work></rdf:RDF></metadata><defs
   id="defs22" />
<g
   transform="translate(-123.904,-222.296)"
   id="Kuvataso_1">
</g>
<g
   transform="translate(-123.904,-222.296)"
   id="_x30_">
</g>
<g
   transform="translate(-123.904,-222.296)"
   id="KUVA">
</g>
<g
   transform="translate(-123.904,-222.296)"
   id="HAT">
</g>
<g
   transform="translate(-123.904,-222.296)"
   id="HATKEL">
</g>
<g
   transform="translate(-123.904,-222.296)"
   id="HATPUN">
	<g
   id="g15">
		<polygon
   id="polygon7"
   points="482.536,581.144 123.904,581.144 123.904,222.296 482.248,222.296 "
   style="clip-rule:evenodd;fill:#ffd200;fill-rule:evenodd" />
		<polygon
   id="polygon9"
   points="129.376,234.464 133.696,229.856 141.544,224.672 153.712,222.296 452.728,222.296 461.872,223.808 467.632,226.256 472.816,229.856 477.064,234.464 480.088,239.936 482.536,249.008 482.536,554.432 481.312,560.48 477.064,568.688 472.816,573.296 467.632,576.896 459.136,580.28 452.728,581.144 153.712,581.144 144.28,579.632 136.072,575.384 129.376,568.688 125.128,560.48 123.904,554.432 123.904,249.008 125.128,242.96 "
   style="clip-rule:evenodd;fill:#ef3e42;fill-rule:evenodd" />
		<polygon
   id="polygon11"
   points="141.544,243.248 144.928,239.936 151.264,237.2 450.928,237.2 457.336,237.776 461.584,239.936 464.896,243.248 467.632,249.656 467.632,553.496 466.12,557.744 461.584,563.216 457.336,565.376 452.728,565.952 151.264,565.952 146.728,564.44 141.544,559.904 139.456,555.656 138.808,553.496 138.808,252.032 139.456,247.496 "
   style="clip-rule:evenodd;fill:#ffd200;fill-rule:evenodd" />
		<polygon
   id="polygon13"
   points="319.312,467.168 386.488,401 319.312,333.824 319.312,378.536 219.088,378.536 219.088,423.104 319.312,423.104 "
   style="clip-rule:evenodd;fill-rule:evenodd" />
	</g>
</g>
</svg>