<?xml version="1.0" encoding="UTF-8"?>
<svg id="Layer_1" data-name="Layer 1" xmlns="http://www.w3.org/2000/svg" version="1.1" viewBox="0 0 425.2 425.2">
  <defs>
    <style>
      .cls-1 {
        fill: #ffd200;
      }

      .cls-1, .cls-2, .cls-3 {
        fill-rule: evenodd;
        stroke-width: 0px;
      }

      .cls-2 {
        fill: #231f20;
      }

      .cls-3 {
        fill: #ef3e42;
      }
    </style>
  </defs>
  <polygon class="cls-1" points="391.9 27.2 33.6 27.2 33.3 386.1 391.9 386.1 391.9 27.2"/>
  <polygon class="cls-3" points="391.9 53.9 390.7 47.9 386.4 39.4 382.1 34.8 374.3 29.6 362.1 27.2 63.1 27.2 53.9 28.7 48.2 31.2 43 34.8 38.8 39.4 35.7 44.9 33.3 53.9 33.3 359.4 34.5 365.4 38.8 373.6 43 378.2 48.2 381.8 56.7 385.2 63.1 386.1 362.1 386.1 371.5 384.6 379.7 380.3 386.4 373.6 390.7 365.4 391.9 359.4 391.9 53.9"/>
  <polygon class="cls-1" points="377 57 376.4 52.4 374.3 48.2 370.9 44.9 364.6 42.1 64.9 42.1 58.5 42.7 54.2 44.9 50.9 48.2 48.2 54.6 48.2 358.4 49.7 362.7 54.2 368.1 58.5 370.3 63.1 370.9 364.6 370.9 369.1 369.4 374.3 364.8 376.4 360.6 377 358.4 377 57"/>
  <polygon class="cls-2" points="296.7 228 196.5 228 196.5 272.1 129.3 205.9 196.5 138.8 196.5 183.5 296.7 183.5 296.7 228"/>
</svg>