<?xml version="1.0" encoding="UTF-8"?>
<svg id="Layer_1" data-name="Layer 1" xmlns="http://www.w3.org/2000/svg" version="1.1" viewBox="0 0 425.2 425.2">
  <defs>
    <style>
      .cls-1 {
        fill: #fff;
      }

      .cls-1, .cls-2 {
        fill-rule: evenodd;
        stroke-width: 0px;
      }

      .cls-2 {
        fill: #0079c1;
      }
    </style>
  </defs>
  <polygon class="cls-2" points="33.3 27.2 391.6 27.2 391.9 386.1 33.3 386.1 33.3 27.2"/>
  <polygon class="cls-1" points="33.3 53.9 34.5 47.9 38.8 39.4 43.1 34.8 50.9 29.6 63.1 27.2 362.1 27.2 371.3 28.7 377 31.2 382.2 34.8 386.4 39.4 389.5 44.9 391.9 53.9 391.9 359.4 390.7 365.4 386.4 373.6 382.2 378.2 377 381.8 368.5 385.2 362.1 386.1 63.1 386.1 53.7 384.6 45.5 380.3 38.8 373.6 34.5 365.4 33.3 359.4 33.3 53.9"/>
  <polygon class="cls-2" points="48.2 57 48.8 52.4 50.9 48.2 54.3 44.9 60.6 42.1 360.3 42.1 366.7 42.7 371 44.9 374.3 48.2 377 54.6 377 358.4 375.5 362.7 371 368.1 366.7 370.3 362.1 370.9 60.6 370.9 56.1 369.4 50.9 364.8 48.8 360.6 48.2 358.4 48.2 57"/>
  <polygon class="cls-1" points="295.9 228 195.6 228 195.6 272.1 128.5 205.9 195.6 138.8 195.6 183.5 295.9 183.5 295.9 228"/>
</svg>