<?xml version="1.0" encoding="utf-8"?>
<!-- Generator: Adobe Illustrator 28.1.0, SVG Export Plug-In . SVG Version: 6.00 Build 0)  -->
<svg version="1.1" xmlns="http://www.w3.org/2000/svg" xmlns:xlink="http://www.w3.org/1999/xlink" x="0px" y="0px"
	 viewBox="0 0 595 842" style="enable-background:new 0 0 595 842;" xml:space="preserve">
<style type="text/css">
	.st0{fill-rule:evenodd;clip-rule:evenodd;fill:#0079C1;}
	.st1{fill-rule:evenodd;clip-rule:evenodd;fill:#FFFFFF;stroke:#0079C1;stroke-miterlimit:10;}
	.st2{fill-rule:evenodd;clip-rule:evenodd;fill:#FFFFFF;}
</style>
<g id="Kuvataso_1">
</g>
<g id="_x30_">
</g>
<g id="KUVA">
</g>
<g id="HAT">
</g>
<g id="HATKEL">
</g>
<g id="HATPUN">
	<polygon class="st0" points="123.9,222.3 482.2,222.3 482.5,581.1 123.9,581.1 	"/>
	<polygon class="st1" points="123.9,249 125.1,243 129.4,234.5 133.7,229.9 141.5,224.7 153.7,222.3 452.7,222.3 461.9,223.8 
		467.6,226.3 472.8,229.9 477.1,234.5 480.1,239.9 482.5,249 482.5,554.4 481.3,560.5 477.1,568.7 472.8,573.3 467.6,576.9 
		459.1,580.3 452.7,581.1 153.7,581.1 144.3,579.6 136.1,575.4 129.4,568.7 125.1,560.5 123.9,554.4 	"/>
	<polygon class="st0" points="138.8,252 139.5,247.5 141.5,243.2 144.9,239.9 151.3,237.2 450.9,237.2 457.3,237.8 461.6,239.9 
		464.9,243.2 467.6,249.7 467.6,553.5 466.1,557.7 461.6,563.2 457.3,565.4 452.7,566 151.3,566 146.7,564.4 141.5,559.9 
		139.5,555.7 138.8,553.5 	"/>
	<polygon class="st2" points="219.1,423.1 319.3,423.1 319.3,467.2 386.5,401 319.3,333.8 319.3,378.5 219.1,378.5 	"/>
</g>
</svg>
