<?xml version="1.0" encoding="UTF-8" standalone="no"?>
<svg
   xmlns:dc="http://purl.org/dc/elements/1.1/"
   xmlns:cc="http://creativecommons.org/ns#"
   xmlns:rdf="http://www.w3.org/1999/02/22-rdf-syntax-ns#"
   xmlns:svg="http://www.w3.org/2000/svg"
   xmlns="http://www.w3.org/2000/svg"
   height="359.79999"
   width="359.60001"
   id="svg18"
   xml:space="preserve"
   viewBox="0 0 359.60001 359.79999"
   y="0px"
   x="0px"
   version="1.1"><metadata
   id="metadata24"><rdf:RDF><cc:Work
       rdf:about=""><dc:format>image/svg+xml</dc:format><dc:type
         rdf:resource="http://purl.org/dc/dcmitype/StillImage" /></cc:Work></rdf:RDF></metadata><defs
   id="defs22" />
<style
   id="style2"
   type="text/css">
	.st0{fill-rule:evenodd;clip-rule:evenodd;fill:#0079C1;}
	.st1{fill-rule:evenodd;clip-rule:evenodd;fill:#FFFFFF;stroke:#0079C1;stroke-miterlimit:10;}
	.st2{fill-rule:evenodd;clip-rule:evenodd;fill:#FFFFFF;}
</style>
<g
   transform="translate(-123.4,-221.8)"
   id="Kuvataso_1">
</g>
<g
   transform="translate(-123.4,-221.8)"
   id="_x30_">
</g>
<g
   transform="translate(-123.4,-221.8)"
   id="KUVA">
</g>
<g
   transform="translate(-123.4,-221.8)"
   id="HAT">
</g>
<g
   transform="translate(-123.4,-221.8)"
   id="HATKEL">
</g>
<g
   transform="translate(-123.4,-221.8)"
   id="HATPUN">
	<polygon
   style="clip-rule:evenodd;fill:#0079c1;fill-rule:evenodd"
   id="polygon9"
   points="482.5,581.1 123.9,581.1 123.9,222.3 482.2,222.3 "
   class="st0" />
	<polygon
   style="clip-rule:evenodd;fill:#ffffff;fill-rule:evenodd;stroke:#0079c1;stroke-miterlimit:10"
   id="polygon11"
   points="129.4,234.5 133.7,229.9 141.5,224.7 153.7,222.3 452.7,222.3 461.9,223.8 467.6,226.3 472.8,229.9 477.1,234.5 480.1,239.9 482.5,249 482.5,554.4 481.3,560.5 477.1,568.7 472.8,573.3 467.6,576.9 459.1,580.3 452.7,581.1 153.7,581.1 144.3,579.6 136.1,575.4 129.4,568.7 125.1,560.5 123.9,554.4 123.9,249 125.1,243 "
   class="st1" />
	<polygon
   style="clip-rule:evenodd;fill:#0079c1;fill-rule:evenodd"
   id="polygon13"
   points="141.5,243.2 144.9,239.9 151.3,237.2 450.9,237.2 457.3,237.8 461.6,239.9 464.9,243.2 467.6,249.7 467.6,553.5 466.1,557.7 461.6,563.2 457.3,565.4 452.7,566 151.3,566 146.7,564.4 141.5,559.9 139.5,555.7 138.8,553.5 138.8,252 139.5,247.5 "
   class="st0" />
	<polygon
   style="clip-rule:evenodd;fill:#ffffff;fill-rule:evenodd"
   id="polygon15"
   points="319.3,467.2 386.5,401 319.3,333.8 319.3,378.5 219.1,378.5 219.1,423.1 319.3,423.1 "
   class="st2" />
</g>
</svg>