<?xml version="1.0" encoding="UTF-8" standalone="no"?>
<svg
   xmlns:dc="http://purl.org/dc/elements/1.1/"
   xmlns:cc="http://creativecommons.org/ns#"
   xmlns:rdf="http://www.w3.org/1999/02/22-rdf-syntax-ns#"
   xmlns:svg="http://www.w3.org/2000/svg"
   xmlns="http://www.w3.org/2000/svg"
   id="svg18"
   xml:space="preserve"
   viewBox="0 0 358.92001 358.56"
   height="358.56"
   width="358.92001"
   y="0px"
   x="0px"
   version="1.1"><metadata
   id="metadata24"><rdf:RDF><cc:Work
       rdf:about=""><dc:format>image/svg+xml</dc:format><dc:type
         rdf:resource="http://purl.org/dc/dcmitype/StillImage" /></cc:Work></rdf:RDF></metadata><defs
   id="defs22" />
<g
   transform="translate(-123.76,-222.44)"
   id="Kuvataso_1">
</g>
<g
   transform="translate(-123.76,-222.44)"
   id="_x30_">
</g>
<g
   transform="translate(-123.76,-222.44)"
   id="KUVA">
</g>
<g
   transform="translate(-123.76,-222.44)"
   id="HAT">
</g>
<g
   transform="translate(-123.76,-222.44)"
   id="HATKEL">
</g>
<g
   transform="translate(-123.76,-222.44)"
   id="HATPUN">
	<g
   id="g15">
		<polygon
   id="polygon7"
   points="482.68,222.44 482.68,581 123.76,581 123.76,222.728 "
   style="clip-rule:evenodd;fill:#ffd200;fill-rule:evenodd" />
		<polygon
   id="polygon9"
   points="135.928,575.528 131.392,571.28 126.208,563.36 123.76,551.264 123.76,252.248 125.272,243.104 127.72,237.344 131.392,232.16 135.928,227.912 141.4,224.888 150.544,222.44 455.968,222.44 462.016,223.664 470.224,227.912 474.76,232.16 478.432,237.344 481.744,245.84 482.68,252.248 482.68,551.264 481.168,560.624 476.92,568.832 470.224,575.528 462.016,579.776 455.968,581 150.544,581 144.424,579.776 "
   style="clip-rule:evenodd;fill:#ef3e42;fill-rule:evenodd" />
		<polygon
   id="polygon11"
   points="144.784,563.36 141.4,560.048 138.664,553.64 138.664,254.048 139.312,247.64 141.4,243.392 144.784,240.08 151.12,237.344 455.032,237.344 459.28,238.856 464.752,243.392 466.912,247.64 467.488,252.248 467.488,553.64 465.976,558.248 461.44,563.36 457.12,565.52 455.032,566.096 153.568,566.096 149.032,565.52 "
   style="clip-rule:evenodd;fill:#ffd200;fill-rule:evenodd" />
		<polygon
   id="polygon13"
   points="368.704,385.664 302.464,318.488 235.36,385.664 280,385.664 280,485.888 324.64,485.888 324.64,385.664 "
   style="clip-rule:evenodd;fill-rule:evenodd" />
	</g>
</g>
</svg>