<?xml version="1.0" encoding="UTF-8"?>
<svg id="svg18" xmlns="http://www.w3.org/2000/svg" version="1.1" xmlns:cc="http://creativecommons.org/ns#" xmlns:dc="http://purl.org/dc/elements/1.1/" xmlns:rdf="http://www.w3.org/1999/02/22-rdf-syntax-ns#" xmlns:svg="http://www.w3.org/2000/svg" viewBox="0 0 358.9 358.6">
  <defs>
    <style>
      .cls-1 {
        fill: #fff;
      }

      .cls-1, .cls-2 {
        fill-rule: evenodd;
        stroke-width: 0px;
      }

      .cls-2 {
        fill: #0079c1;
      }
    </style>
  </defs>
  <g id="HATPUN">
    <g id="g15">
      <polygon id="polygon7" class="cls-2" points="358.9 0 358.9 358.6 0 358.6 0 .3 358.9 0"/>
      <polygon id="polygon9" class="cls-1" points="12.2 353.1 7.6 348.8 2.4 340.9 0 328.8 0 29.8 1.5 20.7 4 14.9 7.6 9.7 12.2 5.5 17.6 2.4 26.8 0 332.2 0 338.3 1.2 346.5 5.5 351 9.7 354.7 14.9 358 23.4 358.9 29.8 358.9 328.8 357.4 338.2 353.2 346.4 346.5 353.1 338.3 357.3 332.2 358.6 26.8 358.6 20.7 357.3 12.2 353.1"/>
      <polygon id="polygon11" class="cls-2" points="21 340.9 17.6 337.6 14.9 331.2 14.9 31.6 15.6 25.2 17.6 21 21 17.6 27.4 14.9 331.3 14.9 335.5 16.4 341 21 343.2 25.2 343.7 29.8 343.7 331.2 342.2 335.8 337.7 340.9 333.4 343.1 331.3 343.7 29.8 343.7 25.3 343.1 21 340.9"/>
      <polygon id="polygon13" class="cls-1" points="244.9 163.2 178.7 96 111.6 163.2 156.2 163.2 156.2 263.4 200.9 263.4 200.9 163.2 244.9 163.2"/>
    </g>
  </g>
</svg>