<?xml version="1.0" encoding="UTF-8" standalone="no"?>
<svg
   xmlns:dc="http://purl.org/dc/elements/1.1/"
   xmlns:cc="http://creativecommons.org/ns#"
   xmlns:rdf="http://www.w3.org/1999/02/22-rdf-syntax-ns#"
   xmlns:svg="http://www.w3.org/2000/svg"
   xmlns="http://www.w3.org/2000/svg"
   id="svg18"
   xml:space="preserve"
   viewBox="0 0 358.92001 358.56"
   height="358.56"
   width="358.92001"
   y="0px"
   x="0px"
   version="1.1"><metadata
   id="metadata24"><rdf:RDF><cc:Work
       rdf:about=""><dc:format>image/svg+xml</dc:format><dc:type
         rdf:resource="http://purl.org/dc/dcmitype/StillImage" /></cc:Work></rdf:RDF></metadata><defs
   id="defs22" />
<g
   transform="translate(-123.76,-222.44)"
   id="Kuvataso_1">
</g>
<g
   transform="translate(-123.76,-222.44)"
   id="_x30_">
</g>
<g
   transform="translate(-123.76,-222.44)"
   id="KUVA">
</g>
<g
   transform="translate(-123.76,-222.44)"
   id="HAT">
</g>
<g
   transform="translate(-123.76,-222.44)"
   id="HATKEL">
</g>
<g
   transform="translate(-123.76,-222.44)"
   id="HATPUN">
	<g
   id="g15">
		<polygon
   id="polygon7"
   points="123.76,581 123.76,222.44 482.68,222.44 482.68,580.712 "
   style="clip-rule:evenodd;fill:#ffd200;fill-rule:evenodd" />
		<polygon
   id="polygon9"
   points="470.512,227.912 475.12,232.16 480.232,240.08 482.68,252.248 482.68,551.264 481.168,560.336 478.72,566.096 475.12,571.28 470.512,575.528 465.04,578.552 455.968,581 150.544,581 144.424,579.776 136.216,575.528 131.68,571.28 128.08,566.096 124.696,557.6 123.76,551.264 123.76,252.248 125.344,242.816 129.592,234.608 136.216,227.912 144.424,223.664 150.544,222.44 455.968,222.44 462.016,223.664 "
   style="clip-rule:evenodd;fill:#ef3e42;fill-rule:evenodd" />
		<polygon
   id="polygon11"
   points="461.728,240.08 465.04,243.392 467.776,249.8 467.776,549.392 467.2,555.8 465.04,560.048 461.728,563.36 455.32,566.096 151.48,566.096 147.16,564.584 141.688,560.048 139.6,555.8 138.952,551.264 138.952,249.8 140.536,245.192 145.072,240.08 149.32,237.92 151.48,237.344 452.872,237.344 457.48,237.92 "
   style="clip-rule:evenodd;fill:#ffd200;fill-rule:evenodd" />
		<polygon
   id="polygon13"
   points="237.736,417.848 303.976,484.952 371.152,417.848 326.44,417.848 326.44,317.552 281.872,317.552 281.872,417.848 "
   style="clip-rule:evenodd;fill-rule:evenodd" />
	</g>
</g>
</svg>