<?xml version="1.0" encoding="UTF-8"?>
<svg id="svg18" xmlns="http://www.w3.org/2000/svg" version="1.1" xmlns:cc="http://creativecommons.org/ns#" xmlns:dc="http://purl.org/dc/elements/1.1/" xmlns:rdf="http://www.w3.org/1999/02/22-rdf-syntax-ns#" xmlns:svg="http://www.w3.org/2000/svg" viewBox="0 0 358.9 358.6">
  <defs>
    <style>
      .cls-1 {
        fill: #fff;
      }

      .cls-1, .cls-2 {
        fill-rule: evenodd;
        stroke-width: 0px;
      }

      .cls-2 {
        fill: #0079c1;
      }
    </style>
  </defs>
  <g id="HATPUN">
    <g id="g15">
      <polygon id="polygon7" class="cls-2" points="0 358.3 0 0 358.9 0 358.9 358.6 0 358.3"/>
      <polygon id="polygon9" class="cls-1" points="20.7 1.2 26.8 0 332.2 0 338.3 1.2 346.5 5.5 353.2 12.2 357.4 20.4 358.9 29.7 358.9 328.8 358 335.2 354.7 343.7 351 348.8 346.5 353.1 338.3 357.3 332.2 358.6 26.8 358.6 17.6 356.1 12.2 353.1 7.6 348.8 4 343.7 1.5 337.9 0 328.8 0 29.7 2.4 17.6 7.6 9.7 12.2 5.5 20.7 1.2"/>
      <polygon id="polygon11" class="cls-2" points="25.3 15.5 29.8 14.9 331.3 14.9 333.4 15.5 337.7 17.6 342.2 22.8 343.7 27.4 343.7 328.8 343.2 333.4 341 337.6 335.5 342.1 331.3 343.7 27.4 343.7 21 340.9 17.6 337.6 15.6 333.4 14.9 327 14.9 27.4 17.6 21 21 17.6 25.3 15.5"/>
      <polygon id="polygon13" class="cls-1" points="200.9 195.3 200.9 95.1 156.2 95.1 156.2 195.3 111.6 195.3 178.7 262.5 244.9 195.3 200.9 195.3"/>
    </g>
  </g>
</svg>