<?xml version="1.0" encoding="UTF-8"?>
<svg id="svg27" xmlns="http://www.w3.org/2000/svg" version="1.1" xmlns:cc="http://creativecommons.org/ns#" xmlns:dc="http://purl.org/dc/elements/1.1/" xmlns:rdf="http://www.w3.org/1999/02/22-rdf-syntax-ns#" xmlns:svg="http://www.w3.org/2000/svg" viewBox="0 0 358.1 120.1">
  <defs>
    <style>
      .cls-1, .cls-2 {
        fill: #fff;
      }

      .cls-1, .cls-2, .cls-3 {
        fill-rule: evenodd;
      }

      .cls-1, .cls-3, .cls-4 {
        stroke-width: 0px;
      }

      .cls-2 {
        stroke: #fff;
        stroke-miterlimit: 10;
        stroke-width: .2px;
      }

      .cls-3, .cls-4 {
        fill: #0079c1;
      }
    </style>
  </defs>
  <g id="HATPUN">
    <g id="g24">
      <g id="g10">
        <rect id="rect6" class="cls-4" y="0" width="358.1" height="120.1"/>
        <path id="path8" class="cls-1" d="M178.8,0h161.5C350,0,357.9,8.1,357.9,17.9v84.2c0,9.9-7.9,17.9-17.6,17.9h-161.5v-9h160.1c5.8,0,10.4-4.7,10.4-10.4V19.4c0-5.8-4.7-10.4-10.4-10.4h-160.1V0ZM17.8,0h161.1v8.9H18.9c-5.8,0-10.4,4.7-10.4,10.4v81.4c0,5.7,4.7,10.4,10.4,10.4h160v9H17.8C8.1,120.1.2,112,.2,102.2V17.9C.2,8.1,8.1,0,17.8,0h0Z"/>
      </g>
      <g id="g22">
        <polygon id="polygon12" class="cls-1" points="78.5 78.8 80.4 75.7 84.7 71.7 89.9 69.3 95.4 68.3 102.8 69.9 107.8 73 110.5 75.7 112.7 78.8 114.6 84.1 114.8 87.8 227.8 87.8 228.1 84.1 229.9 78.8 233.3 74.2 238 70.8 245.3 68.7 252.7 69.3 258.8 72.1 263.2 77.3 265.7 82.2 266.5 87.8 287.2 87.8 289.1 86.8 289.4 85.6 289.7 54.5 289.4 53.3 288.4 52.1 286.6 51.4 263.2 51.4 261.9 51.1 260.4 50.2 237.3 23.4 235.4 22.2 233 21.2 154.9 21.2 153.4 21.5 152.1 22.5 123.8 49.2 122.3 50.2 65.9 58.8 63.7 60 62.5 62.2 62.5 64.1 62.5 83.7 63.1 85.9 64.9 87.5 66.8 87.8 76 87.8 76.3 84.1 78.5 78.8"/>
        <path id="path14" class="cls-2" d="M95.8,102c8.3,0,15-6.8,15-15s-6.7-15-15-15-15,6.8-15,15,6.8,15,15,15Z"/>
        <path id="path16" class="cls-2" d="M247.2,102.8c8.3,0,15-6.8,15-15s-6.8-15-15-15-15,6.8-15,15,6.8,15,15,15Z"/>
        <polygon id="polygon18" class="cls-3" points="189.3 29.2 191.2 31.1 191.4 32.6 191.4 47.1 190.5 49.6 188.6 51.1 187.1 51.4 142.8 51.4 141.3 51.1 139.8 50.2 138.9 48 138.9 45.6 139.5 44.9 154.6 29.6 155.8 28.9 157.3 28.3 187.1 28.3 189.3 29.2"/>
        <polygon id="polygon20" class="cls-3" points="231.5 28.7 233 29.6 247.5 46.5 248.1 49.6 246.5 51.1 245.3 51.4 201.6 51.4 199.7 50.8 198.5 49 198.5 31.4 199.7 29.2 201.6 28.3 229.3 28.7 231.5 28.7"/>
      </g>
    </g>
  </g>
</svg>