<?xml version="1.0" encoding="UTF-8"?>
<svg id="svg33" xmlns="http://www.w3.org/2000/svg" version="1.1" xmlns:cc="http://creativecommons.org/ns#" xmlns:dc="http://purl.org/dc/elements/1.1/" xmlns:rdf="http://www.w3.org/1999/02/22-rdf-syntax-ns#" xmlns:svg="http://www.w3.org/2000/svg" viewBox="0 0 358.1 120.1">
  <defs>
    <style>
      .cls-1, .cls-2 {
        fill: #fff;
      }

      .cls-1, .cls-2, .cls-3 {
        fill-rule: evenodd;
      }

      .cls-1, .cls-3, .cls-4 {
        stroke-width: 0px;
      }

      .cls-2 {
        stroke: #fff;
        stroke-miterlimit: 10;
        stroke-width: .2px;
      }

      .cls-3, .cls-4 {
        fill: #0079c1;
      }
    </style>
  </defs>
  <g id="HATPUN">
    <g id="g30">
      <g id="g10">
        <rect id="rect6" class="cls-4" y="0" width="358.1" height="120.1"/>
        <path id="path8" class="cls-1" d="M178.8,0h161.5C350,0,357.9,8.1,357.9,17.9v84.2c0,9.9-7.9,17.9-17.6,17.9h-161.5v-9h160.1c5.8,0,10.4-4.7,10.4-10.4V19.4c0-5.8-4.7-10.4-10.4-10.4h-160.1V0ZM17.8,0h161.1v8.9H18.9c-5.8,0-10.4,4.7-10.4,10.4v81.4c0,5.7,4.7,10.4,10.4,10.4h160v9H17.8C8.1,120.1.2,112,.2,102.2V17.9C.2,8.1,8.1,0,17.8,0Z"/>
      </g>
      <g id="g28">
        <polygon id="polygon12" class="cls-1" points="207 81.1 208.5 78.1 211.6 74.2 215.9 71.4 218.9 70.2 222.3 69.9 225.6 70.2 230.2 72 234.1 75.4 236.9 79.3 238.1 82.7 238.4 86 262.4 86 264.6 85.5 266.1 82.7 266.1 27.6 266.1 26.1 265.5 25.1 262.8 23.3 99.2 23.3 96.5 24.5 95.6 26.4 86.8 63.2 86.8 86 106.8 86 107.1 82.7 108.1 79.3 109.9 76.6 112 74.2 116.3 71.4 121.2 70.2 126.1 70.2 130.6 72 134.6 75.4 137.3 79.3 138.2 82.7 138.8 86 206.4 86 207 81.1"/>
        <polygon id="polygon14" class="cls-3" points="119.7 27.2 116 59.3 91.7 59.3 99.2 27.2 119.7 27.2"/>
        <polygon id="polygon16" class="cls-3" points="151.6 51.3 151.6 27.2 125.4 27.2 122.4 51.3 151.6 51.3"/>
        <rect id="rect18" class="cls-4" x="157.1" y="27.2" width="30.4" height="24.1"/>
        <rect id="rect20" class="cls-4" x="193.3" y="27.2" width="30.5" height="24.1"/>
        <rect id="rect22" class="cls-4" x="229.2" y="27.2" width="30.5" height="24.1"/>
        <path id="path24" class="cls-2" d="M122.8,96.6c6.3,0,11.5-5.2,11.5-11.5s-5.2-11.5-11.5-11.5-11.5,5.2-11.5,11.5,5.2,11.5,11.5,11.5Z"/>
        <path id="path26" class="cls-2" d="M222.7,96.6c6.3,0,11.5-5.2,11.5-11.5s-5.2-11.5-11.5-11.5-11.5,5.2-11.5,11.5,5.2,11.5,11.5,11.5Z"/>
      </g>
    </g>
  </g>
</svg>