<?xml version="1.0" encoding="UTF-8" standalone="no"?>
<svg
   xmlns:dc="http://purl.org/dc/elements/1.1/"
   xmlns:cc="http://creativecommons.org/ns#"
   xmlns:rdf="http://www.w3.org/1999/02/22-rdf-syntax-ns#"
   xmlns:svg="http://www.w3.org/2000/svg"
   xmlns="http://www.w3.org/2000/svg"
   id="svg23"
   xml:space="preserve"
   viewBox="0 0 362.30399 120.88802"
   height="120.88802"
   width="362.30399"
   y="0px"
   x="0px"
   version="1.1"><metadata
   id="metadata29"><rdf:RDF><cc:Work
       rdf:about=""><dc:format>image/svg+xml</dc:format><dc:type
         rdf:resource="http://purl.org/dc/dcmitype/StillImage" /></cc:Work></rdf:RDF></metadata><defs
   id="defs27" />
<g
   transform="translate(-117.568,-258.368)"
   id="Kuvataso_1">
</g>
<g
   transform="translate(-117.568,-258.368)"
   id="_x30_">
</g>
<g
   transform="translate(-117.568,-258.368)"
   id="HATKEL">
</g>
<g
   transform="translate(-117.568,-258.368)"
   id="HATPUN">
</g>
<g
   transform="translate(-117.568,-258.368)"
   id="HAT">
	<g
   id="g20">
		<rect
   id="rect6"
   height="120.888"
   width="362.30399"
   style="clip-rule:evenodd;fill:#ffd200;fill-rule:evenodd"
   y="258.36801"
   x="117.568" />
		<polygon
   id="polygon8"
   points="122.464,263.552 126.496,260.528 132.904,258.368 139.024,258.368 458.056,258.368 467.848,258.944 474.904,263.552 478.648,269.384 479.872,276.44 479.872,360.824 478,369.464 474.904,373.712 469.432,377.744 462.952,379.256 132.904,378.968 126.496,376.808 121.528,372.488 118.216,366.368 117.568,360.824 117.568,274.64 118.792,269.384 "
   style="clip-rule:evenodd;fill:#ef3e42;fill-rule:evenodd" />
		<polygon
   id="polygon10"
   points="131.104,268.16 136.936,266.936 462.952,267.296 467.56,268.808 470.656,272.768 471.232,276.44 471.232,360.824 470.656,364.856 468.496,367.88 464.176,370.04 134.416,370.04 131.104,369.104 128.008,366.944 126.136,362.408 126.136,276.44 128.008,270.608 "
   style="clip-rule:evenodd;fill:#ffd200;fill-rule:evenodd" />
		<polygon
   id="polygon12"
   points="228.304,332.6 232.336,335.696 234.496,338.432 236.296,343.328 236.584,348.584 236.008,351.968 234.496,354.992 231.4,359.024 226.792,361.76 223.696,362.984 218.512,363.272 213.616,361.76 210.52,360.248 208.072,357.8 205.048,353.48 204.112,350.096 203.752,345.2 204.4,341.816 206.848,337.208 209.296,334.472 212.104,332.6 215.128,331.088 218.512,330.44 223.696,330.8 "
   style="clip-rule:evenodd;fill-rule:evenodd" />
		<polygon
   id="polygon14"
   points="357.112,332.6 361.072,335.696 362.944,338.432 365.104,343.328 365.104,348.584 364.456,351.968 362.944,354.992 359.848,359.024 355.6,361.76 352.216,362.984 346.96,363.272 342.064,361.76 339.04,360.248 336.592,357.8 333.784,353.48 332.56,350.096 332.56,345.2 333.208,341.816 335.368,337.208 337.816,334.472 340.552,332.6 343.648,331.088 346.96,330.44 352.216,330.8 "
   style="clip-rule:evenodd;fill-rule:evenodd" />
		<polygon
   id="polygon16"
   points="205.336,289.976 206.848,287.816 209.008,286.592 214.84,285.656 229.24,284.72 238.744,285.368 244.288,285.944 245.8,286.88 247.024,289.328 247.672,297.032 247.672,329.576 268.192,329.576 268.192,323.744 256.24,323.744 256.24,279.536 405.928,279.536 405.928,323.744 385.048,323.744 385.048,329.576 400.096,329.576 400.096,346.712 369.712,346.712 369.424,343.04 367.552,337.856 364.168,333.248 359.848,329.864 354.664,327.416 350.992,326.768 347.32,326.768 343.648,327.416 338.392,329.864 334.072,333.248 331.048,337.856 329.536,341.24 328.6,346.712 240.616,346.712 239.968,341.24 237.52,335.984 235.36,333.248 231.112,329.576 225.856,327.056 222.184,326.48 218.512,326.48 214.84,327.056 211.168,328.64 208.072,330.44 205.336,333.248 202.888,335.984 201.304,339.368 200.08,343.04 199.792,346.712 192.736,346.712 192.736,314.816 "
   style="clip-rule:evenodd;fill-rule:evenodd" />
		<polygon
   id="polygon18"
   points="234.784,314.816 234.784,293.936 212.392,293.936 201.664,314.816 "
   style="clip-rule:evenodd;fill:#ffd200;fill-rule:evenodd" />
	</g>
</g>
</svg>