<?xml version="1.0" encoding="UTF-8"?>
<svg id="Layer_1" data-name="Layer 1" xmlns="http://www.w3.org/2000/svg" version="1.1" xmlns:cc="http://creativecommons.org/ns#" xmlns:dc="http://purl.org/dc/elements/1.1/" xmlns:rdf="http://www.w3.org/1999/02/22-rdf-syntax-ns#" xmlns:svg="http://www.w3.org/2000/svg" viewBox="0 0 361.1 121.4">
  <defs>
    <style>
      .cls-1 {
        fill: #fff;
        stroke: #fff;
      }

      .cls-1, .cls-2 {
        stroke-miterlimit: 10;
        stroke-width: .2px;
      }

      .cls-2 {
        fill: #0079c1;
        stroke: #0079c1;
      }
    </style>
  </defs>
  <g id="g1746">
    <g id="g256">
      <polygon id="polygon2" class="cls-1" points="101 86.6 101 86.6 100.9 85.1 144.4 86.6 101 86.6"/>
      <polygon id="polygon4" class="cls-1" points="60.7 86.6 60.7 86.6 75.9 85.1 75.8 86.6 60.7 86.6"/>
      <polygon id="polygon6" class="cls-1" points="169.7 86.6 169.7 86.6 206.9 85.1 206.8 86.6 169.7 86.6"/>
      <polygon id="polygon8" class="cls-1" points="100.9 85.1 100.9 85.1 144.5 85.1 144.4 86.6 100.9 85.1"/>
      <polygon id="polygon10" class="cls-1" points="232.1 86.6 232.1 86.6 231.9 85.1 262.5 86.6 232.1 86.6"/>
      <polygon id="polygon12" class="cls-1" points="169.7 86.6 169.7 86.6 169.5 85.1 206.9 85.1 169.7 86.6"/>
      <polygon id="polygon14" class="cls-1" points="287.8 86.6 287.8 86.6 287.7 85.1 300.1 86.6 287.8 86.6"/>
      <polygon id="polygon16" class="cls-1" points="231.9 85.1 231.9 85.1 262.7 85.1 262.5 86.6 231.9 85.1"/>
      <polygon id="polygon18" class="cls-1" points="100.9 85.1 100.9 85.1 100.6 83.7 144.5 85.1 100.9 85.1"/>
      <polygon id="polygon20" class="cls-1" points="60.7 86.6 60.7 86.6 76.2 83.7 75.9 85.1 60.7 86.6"/>
      <polygon id="polygon22" class="cls-1" points="100.6 83.7 100.6 83.7 144.8 83.7 144.5 85.1 100.6 83.7"/>
      <polygon id="polygon24" class="cls-1" points="169.5 85.1 169.5 85.1 207.2 83.7 206.9 85.1 169.5 85.1"/>
      <polygon id="polygon26" class="cls-1" points="231.9 85.1 231.9 85.1 231.7 83.7 262.7 85.1 231.9 85.1"/>
      <polygon id="polygon28" class="cls-1" points="169.5 85.1 169.5 85.1 169.2 83.7 207.2 83.7 169.5 85.1"/>
      <polygon id="polygon30" class="cls-1" points="231.7 83.7 231.7 83.7 263 83.7 262.7 85.1 231.7 83.7"/>
      <polygon id="polygon32" class="cls-1" points="287.7 85.1 287.7 85.1 287.4 83.7 300.1 86.6 287.7 85.1"/>
      <polygon id="polygon34" class="cls-1" points="100.6 83.7 100.6 83.7 100.1 82.3 144.8 83.7 100.6 83.7"/>
      <polygon id="polygon36" class="cls-1" points="60.7 86.6 60.7 86.6 76.7 82.3 76.2 83.7 60.7 86.6"/>
      <polygon id="polygon38" class="cls-1" points="231.7 83.7 231.7 83.7 231.1 82.3 263 83.7 231.7 83.7"/>
      <polygon id="polygon40" class="cls-1" points="169.2 83.7 169.2 83.7 168.7 82.3 207.2 83.7 169.2 83.7"/>
      <polygon id="polygon42" class="cls-1" points="100.1 82.3 100.1 82.3 145.3 82.3 144.8 83.7 100.1 82.3"/>
      <polygon id="polygon44" class="cls-1" points="168.7 82.3 168.7 82.3 207.7 82.3 207.2 83.7 168.7 82.3"/>
      <polygon id="polygon46" class="cls-1" points="231.1 82.3 231.1 82.3 263.5 82.3 263 83.7 231.1 82.3"/>
      <polygon id="polygon48" class="cls-1" points="287.4 83.7 287.4 83.7 286.9 82.3 300.1 86.6 287.4 83.7"/>
      <polygon id="polygon50" class="cls-1" points="168.7 82.3 168.7 82.3 200.9 82.3 207.7 82.3 168.7 82.3"/>
      <polygon id="polygon52" class="cls-1" points="200.9 82.3 200.9 82.3 168.7 82.3 187.9 82.3 200.9 82.3"/>
      <polygon id="polygon54" class="cls-1" points="100.1 82.3 100.1 82.3 99.5 80.9 145.3 82.3 100.1 82.3"/>
      <polygon id="polygon56" class="cls-1" points="60.7 86.6 60.7 86.6 77.4 80.9 76.7 82.3 60.7 86.6"/>
      <polygon id="polygon58" class="cls-1" points="99.5 80.9 99.5 80.9 145.9 80.9 145.3 82.3 99.5 80.9"/>
      <polygon id="polygon60" class="cls-1" points="200.9 82.3 200.9 82.3 208.3 80.9 207.7 82.3 200.9 82.3"/>
      <polygon id="polygon62" class="cls-1" points="168.7 82.3 168.7 82.3 168.1 80.9 187.9 82.3 168.7 82.3"/>
      <polygon id="polygon64" class="cls-1" points="231.1 82.3 231.1 82.3 230.5 80.9 263.5 82.3 231.1 82.3"/>
      <polygon id="polygon66" class="cls-1" points="286.9 82.3 286.9 82.3 286.3 80.9 300.1 86.6 286.9 82.3"/>
      <polygon id="polygon68" class="cls-1" points="230.5 80.9 230.5 80.9 264.1 80.9 263.5 82.3 230.5 80.9"/>
      <polygon id="polygon70" class="cls-1" points="99.5 80.9 99.5 80.9 98.7 79.6 145.9 80.9 99.5 80.9"/>
      <polygon id="polygon72" class="cls-1" points="60.7 86.6 60.7 86.6 78.1 79.6 77.4 80.9 60.7 86.6"/>
      <polygon id="polygon74" class="cls-1" points="168.1 80.9 168.1 80.9 167.3 79.6 187.9 82.3 168.1 80.9"/>
      <polygon id="polygon76" class="cls-1" points="230.5 80.9 230.5 80.9 229.7 79.6 264.1 80.9 230.5 80.9"/>
      <polygon id="polygon78" class="cls-1" points="200.9 82.3 200.9 82.3 209.1 79.6 208.3 80.9 200.9 82.3"/>
      <polygon id="polygon80" class="cls-1" points="98.7 79.6 98.7 79.6 146.7 79.6 145.9 80.9 98.7 79.6"/>
      <polygon id="polygon82" class="cls-1" points="286.3 80.9 286.3 80.9 285.5 79.6 300.1 86.6 286.3 80.9"/>
      <polygon id="polygon84" class="cls-1" points="229.7 79.6 229.7 79.6 264.9 79.6 264.1 80.9 229.7 79.6"/>
      <polygon id="polygon86" class="cls-1" points="98.7 79.6 98.7 79.6 97.7 78.4 146.7 79.6 98.7 79.6"/>
      <polygon id="polygon88" class="cls-1" points="60.7 86.6 60.7 86.6 79.1 78.4 78.1 79.6 60.7 86.6"/>
      <polygon id="polygon90" class="cls-1" points="97.7 78.4 97.7 78.4 147.6 78.4 146.7 79.6 97.7 78.4"/>
      <polygon id="polygon92" class="cls-1" points="200.9 82.3 200.9 82.3 210.1 78.4 209.1 79.6 200.9 82.3"/>
      <polygon id="polygon94" class="cls-1" points="167.3 79.6 167.3 79.6 166.3 78.4 187.9 82.3 167.3 79.6"/>
      <polygon id="polygon96" class="cls-1" points="229.7 79.6 229.7 79.6 228.8 78.4 264.9 79.6 229.7 79.6"/>
      <polygon id="polygon98" class="cls-1" points="285.5 79.6 285.5 79.6 284.6 78.4 300.1 86.6 285.5 79.6"/>
      <polygon id="polygon100" class="cls-1" points="228.8 78.4 228.8 78.4 265.9 78.4 264.9 79.6 228.8 78.4"/>
      <polygon id="polygon102" class="cls-1" points="97.7 78.4 97.7 78.4 96.7 77.4 147.6 78.4 97.7 78.4"/>
      <polygon id="polygon104" class="cls-1" points="60.7 86.6 60.7 86.6 80.2 77.4 79.1 78.4 60.7 86.6"/>
      <polygon id="polygon106" class="cls-1" points="96.7 77.4 96.7 77.4 148.7 77.4 147.6 78.4 96.7 77.4"/>
      <polygon id="polygon108" class="cls-1" points="200.9 82.3 200.9 82.3 211.1 77.4 210.1 78.4 200.9 82.3"/>
      <polygon id="polygon110" class="cls-1" points="166.3 78.4 166.3 78.4 165.3 77.4 187.9 82.3 166.3 78.4"/>
      <polygon id="polygon112" class="cls-1" points="228.8 78.4 228.8 78.4 227.7 77.4 265.9 78.4 228.8 78.4"/>
      <polygon id="polygon114" class="cls-1" points="284.6 78.4 284.6 78.4 283.5 77.4 300.1 86.6 284.6 78.4"/>
      <polygon id="polygon116" class="cls-1" points="227.7 77.4 227.7 77.4 266.9 77.4 265.9 78.4 227.7 77.4"/>
      <polygon id="polygon118" class="cls-1" points="96.7 77.4 96.7 77.4 118.3 76.6 148.7 77.4 96.7 77.4"/>
      <polygon id="polygon120" class="cls-1" points="118.3 76.6 118.3 76.6 96.7 77.4 99.3 76.6 118.3 76.6"/>
      <polygon id="polygon122" class="cls-1" points="96.7 77.4 96.7 77.4 95.5 76.5 99.3 76.6 96.7 77.4"/>
      <polygon id="polygon124" class="cls-1" points="60.7 86.6 60.7 86.6 81.3 76.5 80.2 77.4 60.7 86.6"/>
      <polygon id="polygon126" class="cls-1" points="227.7 77.4 227.7 77.4 226.5 76.5 266.9 77.4 227.7 77.4"/>
      <polygon id="polygon128" class="cls-1" points="165.3 77.4 165.3 77.4 164 76.5 187.9 82.3 165.3 77.4"/>
      <polygon id="polygon130" class="cls-1" points="118.3 76.6 118.3 76.6 149.9 76.5 148.7 77.4 118.3 76.6"/>
      <polygon id="polygon132" class="cls-1" points="200.9 82.3 200.9 82.3 212.4 76.5 211.1 77.4 200.9 82.3"/>
      <polygon id="polygon134" class="cls-1" points="283.5 77.4 283.5 77.4 282.3 76.5 300.1 86.6 283.5 77.4"/>
      <polygon id="polygon136" class="cls-1" points="226.5 76.5 226.5 76.5 268.2 76.5 266.9 77.4 226.5 76.5"/>
      <polygon id="polygon138" class="cls-1" points="95.5 76.5 95.5 76.5 94.2 75.7 99.3 76.6 95.5 76.5"/>
      <polygon id="polygon140" class="cls-1" points="60.7 86.6 60.7 86.6 82.6 75.7 81.3 76.5 60.7 86.6"/>
      <polygon id="polygon142" class="cls-1" points="164 76.5 164 76.5 162.7 75.7 187.9 82.3 164 76.5"/>
      <polygon id="polygon144" class="cls-1" points="226.5 76.5 226.5 76.5 225.2 75.7 268.2 76.5 226.5 76.5"/>
      <polygon id="polygon146" class="cls-1" points="118.3 76.6 118.3 76.6 151.2 75.7 149.9 76.5 118.3 76.6"/>
      <polygon id="polygon148" class="cls-1" points="200.9 82.3 200.9 82.3 213.7 75.7 212.4 76.5 200.9 82.3"/>
      <polygon id="polygon150" class="cls-1" points="225.2 75.7 225.2 75.7 269.5 75.7 268.2 76.5 225.2 75.7"/>
      <polygon id="polygon152" class="cls-1" points="282.3 76.5 282.3 76.5 281 75.7 300.1 86.6 282.3 76.5"/>
      <polygon id="polygon154" class="cls-1" points="94.2 75.7 94.2 75.7 92.8 75.1 99.3 76.6 94.2 75.7"/>
      <polygon id="polygon156" class="cls-1" points="118.3 76.6 118.3 76.6 152.6 75.1 151.2 75.7 118.3 76.6"/>
      <polygon id="polygon158" class="cls-1" points="162.7 75.7 162.7 75.7 161.4 75.1 187.9 82.3 162.7 75.7"/>
      <polygon id="polygon160" class="cls-1" points="225.2 75.7 225.2 75.7 223.8 75.1 269.5 75.7 225.2 75.7"/>
      <polygon id="polygon162" class="cls-1" points="223.8 75.1 223.8 75.1 270.8 75.1 269.5 75.7 223.8 75.1"/>
      <polygon id="polygon164" class="cls-1" points="92.8 75.1 92.8 75.1 91.4 74.7 99.3 76.6 92.8 75.1"/>
      <polygon id="polygon166" class="cls-1" points="223.8 75.1 223.8 75.1 222.4 74.7 270.8 75.1 223.8 75.1"/>
      <polygon id="polygon168" class="cls-1" points="161.4 75.1 161.4 75.1 159.9 74.7 187.9 82.3 161.4 75.1"/>
      <polygon id="polygon170" class="cls-1" points="118.3 76.6 118.3 76.6 154 74.7 152.6 75.1 118.3 76.6"/>
      <polygon id="polygon172" class="cls-1" points="222.4 74.7 222.4 74.7 272.3 74.7 270.8 75.1 222.4 74.7"/>
      <polygon id="polygon174" class="cls-1" points="222.4 74.7 222.4 74.7 220.9 74.4 272.3 74.7 222.4 74.7"/>
      <polygon id="polygon176" class="cls-1" points="118.3 76.6 118.3 76.6 155.5 74.4 154 74.7 118.3 76.6"/>
      <polygon id="polygon178" class="cls-1" points="220.9 74.4 220.9 74.4 273.7 74.4 272.3 74.7 220.9 74.4"/>
      <polygon id="polygon180" class="cls-1" points="118.3 76.6 118.3 76.6 157 74.3 155.5 74.4 118.3 76.6"/>
      <polygon id="polygon182" class="cls-1" points="220.9 74.4 220.9 74.4 219.4 74.3 273.7 74.4 220.9 74.4"/>
      <polygon id="polygon184" class="cls-1" points="219.4 74.3 219.4 74.3 275.2 74.3 273.7 74.4 219.4 74.3"/>
      <polygon id="polygon186" class="cls-1" points="118.3 76.6 118.3 76.6 118.3 72.9 157 74.3 118.3 76.6"/>
      <polygon id="polygon188" class="cls-1" points="86.9 74.4 86.9 74.4 60.7 65.3 88.4 74.3 86.9 74.4"/>
      <polygon id="polygon190" class="cls-1" points="85.4 74.7 85.4 74.7 60.7 65.3 86.9 74.4 85.4 74.7"/>
      <polygon id="polygon192" class="cls-1" points="84 75.1 84 75.1 60.7 65.3 85.4 74.7 84 75.1"/>
      <polygon id="polygon194" class="cls-1" points="82.6 75.7 82.6 75.7 60.7 65.3 84 75.1 82.6 75.7"/>
      <polygon id="polygon196" class="cls-1" points="60.7 86.6 60.7 86.6 60.7 65.3 82.6 75.7 60.7 86.6"/>
      <polygon id="polygon198" class="cls-1" points="60.7 65.3 60.7 65.3 67.8 65 88.4 74.3 60.7 65.3"/>
      <polygon id="polygon200" class="cls-1" points="88.4 74.3 88.4 74.3 67.8 65 89.9 74.4 88.4 74.3"/>
      <polygon id="polygon202" class="cls-1" points="89.9 74.4 89.9 74.4 67.8 65 91.4 74.7 89.9 74.4"/>
      <polygon id="polygon204" class="cls-1" points="91.4 74.7 91.4 74.7 67.8 65 99.3 76.6 91.4 74.7"/>
      <polygon id="polygon206" class="cls-1" points="90.5 65 90.5 65 99.3 76.6 67.8 65 90.5 65"/>
      <polygon id="polygon208" class="cls-1" points="90.5 65 90.5 65 90.5 49.2 99.3 76.6 90.5 65"/>
      <polygon id="polygon210" class="cls-1" points="60.7 65.3 60.7 65.3 72.9 49.2 67.8 65 60.7 65.3"/>
      <polygon id="polygon212" class="cls-1" points="60.7 65.3 60.7 65.3 68.6 42.9 72.9 49.2 60.7 65.3"/>
      <polygon id="polygon214" class="cls-1" points="68.6 42.9 68.6 42.9 99.3 42.9 72.9 49.2 68.6 42.9"/>
      <polygon id="polygon216" class="cls-1" points="72.9 49.2 72.9 49.2 99.3 42.9 90.5 49.2 72.9 49.2"/>
      <polygon id="polygon218" class="cls-1" points="90.5 49.2 90.5 49.2 99.3 42.9 99.3 76.6 90.5 49.2"/>
      <polygon id="polygon220" class="cls-1" points="106.9 72.9 106.9 72.9 106.9 30.6 118.3 72.9 106.9 72.9"/>
      <polygon id="polygon222" class="cls-1" points="187.9 30.6 187.9 30.6 118.3 72.9 106.9 30.6 187.9 30.6"/>
      <polygon id="polygon224" class="cls-1" points="118.3 72.9 118.3 72.9 187.9 30.6 157 74.3 118.3 72.9"/>
      <polygon id="polygon226" class="cls-1" points="157 74.3 157 74.3 187.9 30.6 158.5 74.4 157 74.3"/>
      <polygon id="polygon228" class="cls-1" points="158.5 74.4 158.5 74.4 187.9 30.6 159.9 74.7 158.5 74.4"/>
      <polygon id="polygon230" class="cls-1" points="159.9 74.7 159.9 74.7 187.9 30.6 187.9 82.3 159.9 74.7"/>
      <polygon id="polygon232" class="cls-1" points="219.4 74.3 219.4 74.3 200.9 30.6 275.2 74.3 219.4 74.3"/>
      <polygon id="polygon234" class="cls-1" points="217.9 74.4 217.9 74.4 200.9 30.6 219.4 74.3 217.9 74.4"/>
      <polygon id="polygon236" class="cls-1" points="216.5 74.7 216.5 74.7 200.9 30.6 217.9 74.4 216.5 74.7"/>
      <polygon id="polygon238" class="cls-1" points="215 75.1 215 75.1 200.9 30.6 216.5 74.7 215 75.1"/>
      <polygon id="polygon240" class="cls-1" points="213.7 75.7 213.7 75.7 200.9 30.6 215 75.1 213.7 75.7"/>
      <polygon id="polygon242" class="cls-1" points="200.9 82.3 200.9 82.3 200.9 30.6 213.7 75.7 200.9 82.3"/>
      <polygon id="polygon244" class="cls-1" points="300.1 30.6 300.1 30.6 275.2 74.3 200.9 30.6 300.1 30.6"/>
      <polygon id="polygon246" class="cls-1" points="275.2 74.3 275.2 74.3 300.1 30.6 276.7 74.4 275.2 74.3"/>
      <polygon id="polygon248" class="cls-1" points="276.7 74.4 276.7 74.4 300.1 30.6 278.2 74.7 276.7 74.4"/>
      <polygon id="polygon250" class="cls-1" points="278.2 74.7 278.2 74.7 300.1 30.6 279.6 75.1 278.2 74.7"/>
      <polygon id="polygon252" class="cls-1" points="279.6 75.1 279.6 75.1 300.1 30.6 281 75.7 279.6 75.1"/>
      <polygon id="polygon254" class="cls-1" points="281 75.7 281 75.7 300.1 30.6 300.1 86.6 281 75.7"/>
    </g>
    <g id="g350">
      <polygon id="polygon258" class="cls-1" points="97.8 88.2 97.8 88.2 97.9 86.9 97.8 85.7 97.8 88.2"/>
      <polygon id="polygon260" class="cls-1" points="97.8 85.7 97.8 85.7 97.5 84.5 97.8 88.2 97.8 85.7"/>
      <polygon id="polygon262" class="cls-1" points="97.5 89.4 97.5 89.4 97.8 88.2 97.5 84.5 97.5 89.4"/>
      <polygon id="polygon264" class="cls-1" points="97.5 84.5 97.5 84.5 97.1 83.3 97.5 89.4 97.5 84.5"/>
      <polygon id="polygon266" class="cls-1" points="97.1 90.6 97.1 90.6 97.5 89.4 97.1 83.3 97.1 90.6"/>
      <polygon id="polygon268" class="cls-1" points="97.1 83.3 97.1 83.3 96.6 82.1 97.1 90.6 97.1 83.3"/>
      <polygon id="polygon270" class="cls-1" points="96.6 91.8 96.6 91.8 97.1 90.6 96.6 82.1 96.6 91.8"/>
      <polygon id="polygon272" class="cls-1" points="96.6 82.1 96.6 82.1 95.9 81.1 96.6 91.8 96.6 82.1"/>
      <polygon id="polygon274" class="cls-1" points="95.9 92.8 95.9 92.8 96.6 91.8 95.9 81.1 95.9 92.8"/>
      <polygon id="polygon276" class="cls-1" points="95.9 81.1 95.9 81.1 95.1 80.2 95.9 92.8 95.9 81.1"/>
      <polygon id="polygon278" class="cls-1" points="95.1 93.7 95.1 93.7 95.9 92.8 95.1 80.2 95.1 93.7"/>
      <polygon id="polygon280" class="cls-1" points="95.1 80.2 95.1 80.2 94.1 79.3 95.1 93.7 95.1 80.2"/>
      <polygon id="polygon282" class="cls-1" points="94.1 94.6 94.1 94.6 95.1 93.7 94.1 79.3 94.1 94.6"/>
      <polygon id="polygon284" class="cls-1" points="94.1 79.3 94.1 79.3 93.1 78.7 94.1 94.6 94.1 79.3"/>
      <polygon id="polygon286" class="cls-1" points="93.1 95.2 93.1 95.2 94.1 94.6 93.1 78.7 93.1 95.2"/>
      <polygon id="polygon288" class="cls-1" points="93.1 78.7 93.1 78.7 91.9 78.1 93.1 95.2 93.1 78.7"/>
      <polygon id="polygon290" class="cls-1" points="91.9 95.8 91.9 95.8 93.1 95.2 91.9 78.1 91.9 95.8"/>
      <polygon id="polygon292" class="cls-1" points="91.9 78.1 91.9 78.1 90.7 77.6 91.9 95.8 91.9 78.1"/>
      <polygon id="polygon294" class="cls-1" points="90.7 96.2 90.7 96.2 91.9 95.8 90.7 77.6 90.7 96.2"/>
      <polygon id="polygon296" class="cls-1" points="90.7 77.6 90.7 77.6 89.5 77.4 90.7 96.2 90.7 77.6"/>
      <polygon id="polygon298" class="cls-1" points="89.5 96.4 89.5 96.4 90.7 96.2 89.5 77.4 89.5 96.4"/>
      <polygon id="polygon300" class="cls-1" points="89.5 77.4 89.5 77.4 88.2 77.4 89.5 96.4 89.5 77.4"/>
      <polygon id="polygon302" class="cls-1" points="88.2 96.5 88.2 96.5 89.5 96.4 88.2 77.4 88.2 96.5"/>
      <polygon id="polygon304" class="cls-1" points="88.2 77.4 88.2 77.4 87 77.4 88.2 96.5 88.2 77.4"/>
      <polygon id="polygon306" class="cls-1" points="87 96.4 87 96.4 88.2 96.5 87 77.4 87 96.4"/>
      <polygon id="polygon308" class="cls-1" points="87 77.4 87 77.4 85.8 77.6 87 96.4 87 77.4"/>
      <polygon id="polygon310" class="cls-1" points="85.8 96.2 85.8 96.2 87 96.4 85.8 77.6 85.8 96.2"/>
      <polygon id="polygon312" class="cls-1" points="85.8 77.6 85.8 77.6 84.6 78.1 85.8 96.2 85.8 77.6"/>
      <polygon id="polygon314" class="cls-1" points="84.6 95.8 84.6 95.8 85.8 96.2 84.6 78.1 84.6 95.8"/>
      <polygon id="polygon316" class="cls-1" points="84.6 78.1 84.6 78.1 83.5 78.7 84.6 95.8 84.6 78.1"/>
      <polygon id="polygon318" class="cls-1" points="83.5 95.2 83.5 95.2 84.6 95.8 83.5 78.7 83.5 95.2"/>
      <polygon id="polygon320" class="cls-1" points="83.5 78.7 83.5 78.7 82.4 79.3 83.5 95.2 83.5 78.7"/>
      <polygon id="polygon322" class="cls-1" points="82.4 94.6 82.4 94.6 83.5 95.2 82.4 79.3 82.4 94.6"/>
      <polygon id="polygon324" class="cls-1" points="82.4 79.3 82.4 79.3 81.5 80.2 82.4 94.6 82.4 79.3"/>
      <polygon id="polygon326" class="cls-1" points="81.5 93.7 81.5 93.7 82.4 94.6 81.5 80.2 81.5 93.7"/>
      <polygon id="polygon328" class="cls-1" points="81.5 80.2 81.5 80.2 80.7 81.1 81.5 93.7 81.5 80.2"/>
      <polygon id="polygon330" class="cls-1" points="80.7 92.8 80.7 92.8 81.5 93.7 80.7 81.1 80.7 92.8"/>
      <polygon id="polygon332" class="cls-1" points="80.7 81.1 80.7 81.1 79.9 82.1 80.7 92.8 80.7 81.1"/>
      <polygon id="polygon334" class="cls-1" points="79.9 91.8 79.9 91.8 80.7 92.8 79.9 82.1 79.9 91.8"/>
      <polygon id="polygon336" class="cls-1" points="79.9 82.1 79.9 82.1 79.4 83.3 79.9 91.8 79.9 82.1"/>
      <polygon id="polygon338" class="cls-1" points="79.4 90.6 79.4 90.6 79.9 91.8 79.4 83.3 79.4 90.6"/>
      <polygon id="polygon340" class="cls-1" points="79.4 83.3 79.4 83.3 79 84.5 79.4 90.6 79.4 83.3"/>
      <polygon id="polygon342" class="cls-1" points="79 89.4 79 89.4 79.4 90.6 79 84.5 79 89.4"/>
      <polygon id="polygon344" class="cls-1" points="79 84.5 79 84.5 78.7 85.7 79 89.4 79 84.5"/>
      <polygon id="polygon346" class="cls-1" points="78.7 88.2 78.7 88.2 79 89.4 78.7 85.7 78.7 88.2"/>
      <polygon id="polygon348" class="cls-1" points="78.7 85.7 78.7 85.7 78.7 86.9 78.7 88.2 78.7 85.7"/>
    </g>
    <g id="g444">
      <polygon id="polygon352" class="cls-1" points="166.3 88.2 166.3 88.2 166.4 86.9 166.3 85.7 166.3 88.2"/>
      <polygon id="polygon354" class="cls-1" points="166.3 85.7 166.3 85.7 166.1 84.5 166.3 88.2 166.3 85.7"/>
      <polygon id="polygon356" class="cls-1" points="166.1 89.4 166.1 89.4 166.3 88.2 166.1 84.5 166.1 89.4"/>
      <polygon id="polygon358" class="cls-1" points="166.1 84.5 166.1 84.5 165.7 83.3 166.1 89.4 166.1 84.5"/>
      <polygon id="polygon360" class="cls-1" points="165.7 90.6 165.7 90.6 166.1 89.4 165.7 83.3 165.7 90.6"/>
      <polygon id="polygon362" class="cls-1" points="165.7 83.3 165.7 83.3 165.1 82.1 165.7 90.6 165.7 83.3"/>
      <polygon id="polygon364" class="cls-1" points="165.1 91.8 165.1 91.8 165.7 90.6 165.1 82.1 165.1 91.8"/>
      <polygon id="polygon366" class="cls-1" points="165.1 82.1 165.1 82.1 164.5 81.1 165.1 91.8 165.1 82.1"/>
      <polygon id="polygon368" class="cls-1" points="164.5 92.8 164.5 92.8 165.1 91.8 164.5 81.1 164.5 92.8"/>
      <polygon id="polygon370" class="cls-1" points="164.5 81.1 164.5 81.1 163.6 80.2 164.5 92.8 164.5 81.1"/>
      <polygon id="polygon372" class="cls-1" points="163.6 93.7 163.6 93.7 164.5 92.8 163.6 80.2 163.6 93.7"/>
      <polygon id="polygon374" class="cls-1" points="163.6 80.2 163.6 80.2 162.7 79.3 163.6 93.7 163.6 80.2"/>
      <polygon id="polygon376" class="cls-1" points="162.7 94.6 162.7 94.6 163.6 93.7 162.7 79.3 162.7 94.6"/>
      <polygon id="polygon378" class="cls-1" points="162.7 79.3 162.7 79.3 161.7 78.7 162.7 94.6 162.7 79.3"/>
      <polygon id="polygon380" class="cls-1" points="161.7 95.2 161.7 95.2 162.7 94.6 161.7 78.7 161.7 95.2"/>
      <polygon id="polygon382" class="cls-1" points="161.7 78.7 161.7 78.7 160.5 78.1 161.7 95.2 161.7 78.7"/>
      <polygon id="polygon384" class="cls-1" points="160.5 95.8 160.5 95.8 161.7 95.2 160.5 78.1 160.5 95.8"/>
      <polygon id="polygon386" class="cls-1" points="160.5 78.1 160.5 78.1 159.3 77.6 160.5 95.8 160.5 78.1"/>
      <polygon id="polygon388" class="cls-1" points="159.3 96.2 159.3 96.2 160.5 95.8 159.3 77.6 159.3 96.2"/>
      <polygon id="polygon390" class="cls-1" points="159.3 77.6 159.3 77.6 158.1 77.4 159.3 96.2 159.3 77.6"/>
      <polygon id="polygon392" class="cls-1" points="158.1 96.4 158.1 96.4 159.3 96.2 158.1 77.4 158.1 96.4"/>
      <polygon id="polygon394" class="cls-1" points="158.1 77.4 158.1 77.4 156.8 77.4 158.1 96.4 158.1 77.4"/>
      <polygon id="polygon396" class="cls-1" points="156.8 96.5 156.8 96.5 158.1 96.4 156.8 77.4 156.8 96.5"/>
      <polygon id="polygon398" class="cls-1" points="156.8 77.4 156.8 77.4 155.6 77.4 156.8 96.5 156.8 77.4"/>
      <polygon id="polygon400" class="cls-1" points="155.6 96.4 155.6 96.4 156.8 96.5 155.6 77.4 155.6 96.4"/>
      <polygon id="polygon402" class="cls-1" points="155.6 77.4 155.6 77.4 154.3 77.6 155.6 96.4 155.6 77.4"/>
      <polygon id="polygon404" class="cls-1" points="154.3 96.2 154.3 96.2 155.6 96.4 154.3 77.6 154.3 96.2"/>
      <polygon id="polygon406" class="cls-1" points="154.3 77.6 154.3 77.6 153.2 78.1 154.3 96.2 154.3 77.6"/>
      <polygon id="polygon408" class="cls-1" points="153.2 95.8 153.2 95.8 154.3 96.2 153.2 78.1 153.2 95.8"/>
      <polygon id="polygon410" class="cls-1" points="153.2 78.1 153.2 78.1 152 78.7 153.2 95.8 153.2 78.1"/>
      <polygon id="polygon412" class="cls-1" points="152 95.2 152 95.2 153.2 95.8 152 78.7 152 95.2"/>
      <polygon id="polygon414" class="cls-1" points="152 78.7 152 78.7 151 79.3 152 95.2 152 78.7"/>
      <polygon id="polygon416" class="cls-1" points="151 94.6 151 94.6 152 95.2 151 79.3 151 94.6"/>
      <polygon id="polygon418" class="cls-1" points="151 79.3 151 79.3 150.1 80.2 151 94.6 151 79.3"/>
      <polygon id="polygon420" class="cls-1" points="150.1 93.7 150.1 93.7 151 94.6 150.1 80.2 150.1 93.7"/>
      <polygon id="polygon422" class="cls-1" points="150.1 80.2 150.1 80.2 149.2 81.1 150.1 93.7 150.1 80.2"/>
      <polygon id="polygon424" class="cls-1" points="149.2 92.8 149.2 92.8 150.1 93.7 149.2 81.1 149.2 92.8"/>
      <polygon id="polygon426" class="cls-1" points="149.2 81.1 149.2 81.1 148.6 82.1 149.2 92.8 149.2 81.1"/>
      <polygon id="polygon428" class="cls-1" points="148.6 91.8 148.6 91.8 149.2 92.8 148.6 82.1 148.6 91.8"/>
      <polygon id="polygon430" class="cls-1" points="148.6 82.1 148.6 82.1 148 83.3 148.6 91.8 148.6 82.1"/>
      <polygon id="polygon432" class="cls-1" points="148 90.6 148 90.6 148.6 91.8 148 83.3 148 90.6"/>
      <polygon id="polygon434" class="cls-1" points="148 83.3 148 83.3 147.6 84.5 148 90.6 148 83.3"/>
      <polygon id="polygon436" class="cls-1" points="147.6 89.4 147.6 89.4 148 90.6 147.6 84.5 147.6 89.4"/>
      <polygon id="polygon438" class="cls-1" points="147.6 84.5 147.6 84.5 147.3 85.7 147.6 89.4 147.6 84.5"/>
      <polygon id="polygon440" class="cls-1" points="147.3 88.2 147.3 88.2 147.6 89.4 147.3 85.7 147.3 88.2"/>
      <polygon id="polygon442" class="cls-1" points="147.3 85.7 147.3 85.7 147.3 86.9 147.3 88.2 147.3 85.7"/>
    </g>
    <g id="g538">
      <polygon id="polygon446" class="cls-1" points="209.9 85.4 209.9 85.4 209.8 86.6 209.9 87.9 209.9 85.4"/>
      <polygon id="polygon448" class="cls-1" points="209.9 87.9 209.9 87.9 210.1 89.2 209.9 85.4 209.9 87.9"/>
      <polygon id="polygon450" class="cls-1" points="210.1 84.2 210.1 84.2 209.9 85.4 210.1 89.2 210.1 84.2"/>
      <polygon id="polygon452" class="cls-1" points="210.1 89.2 210.1 89.2 210.6 90.3 210.1 84.2 210.1 89.2"/>
      <polygon id="polygon454" class="cls-1" points="210.6 83 210.6 83 210.1 84.2 210.6 90.3 210.6 83"/>
      <polygon id="polygon456" class="cls-1" points="210.6 90.3 210.6 90.3 211.1 91.5 210.6 83 210.6 90.3"/>
      <polygon id="polygon458" class="cls-1" points="211.1 81.8 211.1 81.8 210.6 83 211.1 91.5 211.1 81.8"/>
      <polygon id="polygon460" class="cls-1" points="211.1 91.5 211.1 91.5 211.8 92.5 211.1 81.8 211.1 91.5"/>
      <polygon id="polygon462" class="cls-1" points="211.8 80.8 211.8 80.8 211.1 81.8 211.8 92.5 211.8 80.8"/>
      <polygon id="polygon464" class="cls-1" points="211.8 92.5 211.8 92.5 212.6 93.4 211.8 80.8 211.8 92.5"/>
      <polygon id="polygon466" class="cls-1" points="212.6 79.9 212.6 79.9 211.8 80.8 212.6 93.4 212.6 79.9"/>
      <polygon id="polygon468" class="cls-1" points="212.6 93.4 212.6 93.4 213.6 94.3 212.6 79.9 212.6 93.4"/>
      <polygon id="polygon470" class="cls-1" points="213.6 79 213.6 79 212.6 79.9 213.6 94.3 213.6 79"/>
      <polygon id="polygon472" class="cls-1" points="213.6 94.3 213.6 94.3 214.6 94.9 213.6 79 213.6 94.3"/>
      <polygon id="polygon474" class="cls-1" points="214.6 78.4 214.6 78.4 213.6 79 214.6 94.9 214.6 78.4"/>
      <polygon id="polygon476" class="cls-1" points="214.6 94.9 214.6 94.9 215.7 95.5 214.6 78.4 214.6 94.9"/>
      <polygon id="polygon478" class="cls-1" points="215.7 77.8 215.7 77.8 214.6 78.4 215.7 95.5 215.7 77.8"/>
      <polygon id="polygon480" class="cls-1" points="215.7 95.5 215.7 95.5 217 95.9 215.7 77.8 215.7 95.5"/>
      <polygon id="polygon482" class="cls-1" points="217 77.4 217 77.4 215.7 77.8 217 95.9 217 77.4"/>
      <polygon id="polygon484" class="cls-1" points="217 95.9 217 95.9 218.2 96.1 217 77.4 217 95.9"/>
      <polygon id="polygon486" class="cls-1" points="218.2 77.1 218.2 77.1 217 77.4 218.2 96.1 218.2 77.1"/>
      <polygon id="polygon488" class="cls-1" points="218.2 96.1 218.2 96.1 219.4 96.2 218.2 77.1 218.2 96.1"/>
      <polygon id="polygon490" class="cls-1" points="219.4 77.1 219.4 77.1 218.2 77.1 219.4 96.2 219.4 77.1"/>
      <polygon id="polygon492" class="cls-1" points="219.4 96.2 219.4 96.2 220.6 96.1 219.4 77.1 219.4 96.2"/>
      <polygon id="polygon494" class="cls-1" points="220.6 77.1 220.6 77.1 219.4 77.1 220.6 96.1 220.6 77.1"/>
      <polygon id="polygon496" class="cls-1" points="220.6 96.1 220.6 96.1 221.9 95.9 220.6 77.1 220.6 96.1"/>
      <polygon id="polygon498" class="cls-1" points="221.9 77.4 221.9 77.4 220.6 77.1 221.9 95.9 221.9 77.4"/>
      <polygon id="polygon500" class="cls-1" points="221.9 95.9 221.9 95.9 223.1 95.5 221.9 77.4 221.9 95.9"/>
      <polygon id="polygon502" class="cls-1" points="223.1 77.8 223.1 77.8 221.9 77.4 223.1 95.5 223.1 77.8"/>
      <polygon id="polygon504" class="cls-1" points="223.1 95.5 223.1 95.5 224.2 94.9 223.1 77.8 223.1 95.5"/>
      <polygon id="polygon506" class="cls-1" points="224.2 78.4 224.2 78.4 223.1 77.8 224.2 94.9 224.2 78.4"/>
      <polygon id="polygon508" class="cls-1" points="224.2 94.9 224.2 94.9 225.2 94.3 224.2 78.4 224.2 94.9"/>
      <polygon id="polygon510" class="cls-1" points="225.2 79 225.2 79 224.2 78.4 225.2 94.3 225.2 79"/>
      <polygon id="polygon512" class="cls-1" points="225.2 94.3 225.2 94.3 226.2 93.4 225.2 79 225.2 94.3"/>
      <polygon id="polygon514" class="cls-1" points="226.2 79.9 226.2 79.9 225.2 79 226.2 93.4 226.2 79.9"/>
      <polygon id="polygon516" class="cls-1" points="226.2 93.4 226.2 93.4 227 92.5 226.2 79.9 226.2 93.4"/>
      <polygon id="polygon518" class="cls-1" points="227 80.8 227 80.8 226.2 79.9 227 92.5 227 80.8"/>
      <polygon id="polygon520" class="cls-1" points="227 92.5 227 92.5 227.7 91.5 227 80.8 227 92.5"/>
      <polygon id="polygon522" class="cls-1" points="227.7 81.8 227.7 81.8 227 80.8 227.7 91.5 227.7 81.8"/>
      <polygon id="polygon524" class="cls-1" points="227.7 91.5 227.7 91.5 228.3 90.3 227.7 81.8 227.7 91.5"/>
      <polygon id="polygon526" class="cls-1" points="228.3 83 228.3 83 227.7 81.8 228.3 90.3 228.3 83"/>
      <polygon id="polygon528" class="cls-1" points="228.3 90.3 228.3 90.3 228.7 89.2 228.3 83 228.3 90.3"/>
      <polygon id="polygon530" class="cls-1" points="228.7 84.2 228.7 84.2 228.3 83 228.7 89.2 228.7 84.2"/>
      <polygon id="polygon532" class="cls-1" points="228.7 89.2 228.7 89.2 228.9 87.9 228.7 84.2 228.7 89.2"/>
      <polygon id="polygon534" class="cls-1" points="228.9 85.4 228.9 85.4 228.7 84.2 228.9 87.9 228.9 85.4"/>
      <polygon id="polygon536" class="cls-1" points="228.9 87.9 228.9 87.9 229 86.6 228.9 85.4 228.9 87.9"/>
    </g>
    <g id="g632">
      <polygon id="polygon540" class="cls-1" points="284.6 87.9 284.6 87.9 284.7 86.6 284.6 85.4 284.6 87.9"/>
      <polygon id="polygon542" class="cls-1" points="284.6 85.4 284.6 85.4 284.4 84.2 284.6 87.9 284.6 85.4"/>
      <polygon id="polygon544" class="cls-1" points="284.4 89.2 284.4 89.2 284.6 87.9 284.4 84.2 284.4 89.2"/>
      <polygon id="polygon546" class="cls-1" points="284.4 84.2 284.4 84.2 284 83 284.4 89.2 284.4 84.2"/>
      <polygon id="polygon548" class="cls-1" points="284 90.3 284 90.3 284.4 89.2 284 83 284 90.3"/>
      <polygon id="polygon550" class="cls-1" points="284 83 284 83 283.4 81.8 284 90.3 284 83"/>
      <polygon id="polygon552" class="cls-1" points="283.4 91.5 283.4 91.5 284 90.3 283.4 81.8 283.4 91.5"/>
      <polygon id="polygon554" class="cls-1" points="283.4 81.8 283.4 81.8 282.8 80.8 283.4 91.5 283.4 81.8"/>
      <polygon id="polygon556" class="cls-1" points="282.8 92.5 282.8 92.5 283.4 91.5 282.8 80.8 282.8 92.5"/>
      <polygon id="polygon558" class="cls-1" points="282.8 80.8 282.8 80.8 281.9 79.9 282.8 92.5 282.8 80.8"/>
      <polygon id="polygon560" class="cls-1" points="281.9 93.4 281.9 93.4 282.8 92.5 281.9 79.9 281.9 93.4"/>
      <polygon id="polygon562" class="cls-1" points="281.9 79.9 281.9 79.9 281 79 281.9 93.4 281.9 79.9"/>
      <polygon id="polygon564" class="cls-1" points="281 94.3 281 94.3 281.9 93.4 281 79 281 94.3"/>
      <polygon id="polygon566" class="cls-1" points="281 79 281 79 279.9 78.4 281 94.3 281 79"/>
      <polygon id="polygon568" class="cls-1" points="279.9 94.9 279.9 94.9 281 94.3 279.9 78.4 279.9 94.9"/>
      <polygon id="polygon570" class="cls-1" points="279.9 78.4 279.9 78.4 278.8 77.8 279.9 94.9 279.9 78.4"/>
      <polygon id="polygon572" class="cls-1" points="278.8 95.5 278.8 95.5 279.9 94.9 278.8 77.8 278.8 95.5"/>
      <polygon id="polygon574" class="cls-1" points="278.8 77.8 278.8 77.8 277.6 77.4 278.8 95.5 278.8 77.8"/>
      <polygon id="polygon576" class="cls-1" points="277.6 95.9 277.6 95.9 278.8 95.5 277.6 77.4 277.6 95.9"/>
      <polygon id="polygon578" class="cls-1" points="277.6 77.4 277.6 77.4 276.4 77.1 277.6 95.9 277.6 77.4"/>
      <polygon id="polygon580" class="cls-1" points="276.4 96.1 276.4 96.1 277.6 95.9 276.4 77.1 276.4 96.1"/>
      <polygon id="polygon582" class="cls-1" points="276.4 77.1 276.4 77.1 275.1 77.1 276.4 96.1 276.4 77.1"/>
      <polygon id="polygon584" class="cls-1" points="275.1 96.2 275.1 96.2 276.4 96.1 275.1 77.1 275.1 96.2"/>
      <polygon id="polygon586" class="cls-1" points="275.1 77.1 275.1 77.1 273.9 77.1 275.1 96.2 275.1 77.1"/>
      <polygon id="polygon588" class="cls-1" points="273.9 96.1 273.9 96.1 275.1 96.2 273.9 77.1 273.9 96.1"/>
      <polygon id="polygon590" class="cls-1" points="273.9 77.1 273.9 77.1 272.6 77.4 273.9 96.1 273.9 77.1"/>
      <polygon id="polygon592" class="cls-1" points="272.6 95.9 272.6 95.9 273.9 96.1 272.6 77.4 272.6 95.9"/>
      <polygon id="polygon594" class="cls-1" points="272.6 77.4 272.6 77.4 271.5 77.8 272.6 95.9 272.6 77.4"/>
      <polygon id="polygon596" class="cls-1" points="271.5 95.5 271.5 95.5 272.6 95.9 271.5 77.8 271.5 95.5"/>
      <polygon id="polygon598" class="cls-1" points="271.5 77.8 271.5 77.8 270.3 78.4 271.5 95.5 271.5 77.8"/>
      <polygon id="polygon600" class="cls-1" points="270.3 94.9 270.3 94.9 271.5 95.5 270.3 78.4 270.3 94.9"/>
      <polygon id="polygon602" class="cls-1" points="270.3 78.4 270.3 78.4 269.3 79 270.3 94.9 270.3 78.4"/>
      <polygon id="polygon604" class="cls-1" points="269.3 94.3 269.3 94.3 270.3 94.9 269.3 79 269.3 94.3"/>
      <polygon id="polygon606" class="cls-1" points="269.3 79 269.3 79 268.4 79.9 269.3 94.3 269.3 79"/>
      <polygon id="polygon608" class="cls-1" points="268.4 93.4 268.4 93.4 269.3 94.3 268.4 79.9 268.4 93.4"/>
      <polygon id="polygon610" class="cls-1" points="268.4 79.9 268.4 79.9 267.5 80.8 268.4 93.4 268.4 79.9"/>
      <polygon id="polygon612" class="cls-1" points="267.5 92.5 267.5 92.5 268.4 93.4 267.5 80.8 267.5 92.5"/>
      <polygon id="polygon614" class="cls-1" points="267.5 80.8 267.5 80.8 266.9 81.8 267.5 92.5 267.5 80.8"/>
      <polygon id="polygon616" class="cls-1" points="266.9 91.5 266.9 91.5 267.5 92.5 266.9 81.8 266.9 91.5"/>
      <polygon id="polygon618" class="cls-1" points="266.9 81.8 266.9 81.8 266.3 83 266.9 91.5 266.9 81.8"/>
      <polygon id="polygon620" class="cls-1" points="266.3 90.3 266.3 90.3 266.9 91.5 266.3 83 266.3 90.3"/>
      <polygon id="polygon622" class="cls-1" points="266.3 83 266.3 83 265.9 84.2 266.3 90.3 266.3 83"/>
      <polygon id="polygon624" class="cls-1" points="265.9 89.2 265.9 89.2 266.3 90.3 265.9 84.2 265.9 89.2"/>
      <polygon id="polygon626" class="cls-1" points="265.9 84.2 265.9 84.2 265.6 85.4 265.9 89.2 265.9 84.2"/>
      <polygon id="polygon628" class="cls-1" points="265.6 87.9 265.6 87.9 265.9 89.2 265.6 85.4 265.6 87.9"/>
      <polygon id="polygon630" class="cls-1" points="265.6 85.4 265.6 85.4 265.6 86.6 265.6 87.9 265.6 85.4"/>
    </g>
    <g id="g1380">
      <polygon id="polygon634" class="cls-2" points="342.3 111.6 342.3 111.6 343.6 111.6 18.7 111.6 342.3 111.6"/>
      <polygon id="polygon636" class="cls-2" points="343.6 111.6 343.6 111.6 17.5 111.6 18.7 111.6 343.6 111.6"/>
      <polygon id="polygon638" class="cls-2" points="343.6 111.6 343.6 111.6 344.8 111.3 17.5 111.6 343.6 111.6"/>
      <polygon id="polygon640" class="cls-2" points="344.8 111.3 344.8 111.3 16.2 111.3 17.5 111.6 344.8 111.3"/>
      <polygon id="polygon642" class="cls-2" points="344.8 111.3 344.8 111.3 346.1 110.8 16.2 111.3 344.8 111.3"/>
      <polygon id="polygon644" class="cls-2" points="346.1 110.8 346.1 110.8 15 110.8 16.2 111.3 346.1 110.8"/>
      <polygon id="polygon646" class="cls-2" points="346.1 110.8 346.1 110.8 347.1 110.2 15 110.8 346.1 110.8"/>
      <polygon id="polygon648" class="cls-2" points="347.1 110.2 347.1 110.2 13.9 110.2 15 110.8 347.1 110.2"/>
      <polygon id="polygon650" class="cls-2" points="347.1 110.2 347.1 110.2 348.2 109.5 13.9 110.2 347.1 110.2"/>
      <polygon id="polygon652" class="cls-2" points="348.2 109.5 348.2 109.5 12.8 109.5 13.9 110.2 348.2 109.5"/>
      <polygon id="polygon654" class="cls-2" points="348.2 109.5 348.2 109.5 349.1 108.5 12.8 109.5 348.2 109.5"/>
      <polygon id="polygon656" class="cls-2" points="349.1 108.5 349.1 108.5 11.9 108.5 12.8 109.5 349.1 108.5"/>
      <polygon id="polygon658" class="cls-2" points="349.1 108.5 349.1 108.5 349.9 107.5 11.9 108.5 349.1 108.5"/>
      <polygon id="polygon660" class="cls-2" points="349.9 107.5 349.9 107.5 11.2 107.5 11.9 108.5 349.9 107.5"/>
      <polygon id="polygon662" class="cls-2" points="349.9 107.5 349.9 107.5 350.5 106.4 11.2 107.5 349.9 107.5"/>
      <polygon id="polygon664" class="cls-2" points="350.5 106.4 350.5 106.4 10.5 106.4 11.2 107.5 350.5 106.4"/>
      <polygon id="polygon666" class="cls-2" points="350.5 106.4 350.5 106.4 351 105.1 10.5 106.4 350.5 106.4"/>
      <polygon id="polygon668" class="cls-2" points="351 105.1 351 105.1 10.1 105.1 10.5 106.4 351 105.1"/>
      <polygon id="polygon670" class="cls-2" points="351 105.1 351 105.1 351.2 103.9 10.1 105.1 351 105.1"/>
      <polygon id="polygon672" class="cls-2" points="351.2 103.9 351.2 103.9 9.8 103.9 10.1 105.1 351.2 103.9"/>
      <polygon id="polygon674" class="cls-2" points="351.2 103.9 351.2 103.9 351.3 102.6 9.8 103.9 351.2 103.9"/>
      <polygon id="polygon676" class="cls-2" points="351.3 102.6 351.3 102.6 9.7 102.6 9.8 103.9 351.3 102.6"/>
      <polygon id="polygon678" class="cls-2" points="351.3 102.6 351.3 102.6 88.2 96.5 9.7 102.6 351.3 102.6"/>
      <polygon id="polygon680" class="cls-2" points="351.3 102.6 351.3 102.6 156.8 96.5 88.2 96.5 351.3 102.6"/>
      <polygon id="polygon682" class="cls-2" points="156.8 96.5 156.8 96.5 155.6 96.4 88.2 96.5 156.8 96.5"/>
      <polygon id="polygon684" class="cls-2" points="88.2 96.5 88.2 96.5 87 96.4 9.7 102.6 88.2 96.5"/>
      <polygon id="polygon686" class="cls-2" points="155.6 96.4 155.6 96.4 89.5 96.4 88.2 96.5 155.6 96.4"/>
      <polygon id="polygon688" class="cls-2" points="351.3 102.6 351.3 102.6 158.1 96.4 156.8 96.5 351.3 102.6"/>
      <polygon id="polygon690" class="cls-2" points="351.3 102.6 351.3 102.6 275.1 96.2 158.1 96.4 351.3 102.6"/>
      <polygon id="polygon692" class="cls-2" points="275.1 96.2 275.1 96.2 219.4 96.2 158.1 96.4 275.1 96.2"/>
      <polygon id="polygon694" class="cls-2" points="155.6 96.4 155.6 96.4 154.3 96.2 89.5 96.4 155.6 96.4"/>
      <polygon id="polygon696" class="cls-2" points="87 96.4 87 96.4 85.8 96.2 9.7 102.6 87 96.4"/>
      <polygon id="polygon698" class="cls-2" points="154.3 96.2 154.3 96.2 90.7 96.2 89.5 96.4 154.3 96.2"/>
      <polygon id="polygon700" class="cls-2" points="219.4 96.2 219.4 96.2 159.3 96.2 158.1 96.4 219.4 96.2"/>
      <polygon id="polygon702" class="cls-2" points="275.1 96.2 275.1 96.2 273.9 96.1 219.4 96.2 275.1 96.2"/>
      <polygon id="polygon704" class="cls-2" points="219.4 96.2 219.4 96.2 218.2 96.1 159.3 96.2 219.4 96.2"/>
      <polygon id="polygon706" class="cls-2" points="273.9 96.1 273.9 96.1 220.6 96.1 219.4 96.2 273.9 96.1"/>
      <polygon id="polygon708" class="cls-2" points="351.3 102.6 351.3 102.6 276.4 96.1 275.1 96.2 351.3 102.6"/>
      <polygon id="polygon710" class="cls-2" points="218.2 96.1 218.2 96.1 217 95.9 159.3 96.2 218.2 96.1"/>
      <polygon id="polygon712" class="cls-2" points="273.9 96.1 273.9 96.1 272.6 95.9 220.6 96.1 273.9 96.1"/>
      <polygon id="polygon714" class="cls-2" points="351.3 102.6 351.3 102.6 277.6 95.9 276.4 96.1 351.3 102.6"/>
      <polygon id="polygon716" class="cls-2" points="272.6 95.9 272.6 95.9 221.9 95.9 220.6 96.1 272.6 95.9"/>
      <polygon id="polygon718" class="cls-2" points="85.8 96.2 85.8 96.2 84.6 95.8 9.7 102.6 85.8 96.2"/>
      <polygon id="polygon720" class="cls-2" points="154.3 96.2 154.3 96.2 153.2 95.8 90.7 96.2 154.3 96.2"/>
      <polygon id="polygon722" class="cls-2" points="153.2 95.8 153.2 95.8 91.9 95.8 90.7 96.2 153.2 95.8"/>
      <polygon id="polygon724" class="cls-2" points="217 95.9 217 95.9 160.5 95.8 159.3 96.2 217 95.9"/>
      <polygon id="polygon726" class="cls-2" points="272.6 95.9 272.6 95.9 271.5 95.5 221.9 95.9 272.6 95.9"/>
      <polygon id="polygon728" class="cls-2" points="217 95.9 217 95.9 215.7 95.5 160.5 95.8 217 95.9"/>
      <polygon id="polygon730" class="cls-2" points="271.5 95.5 271.5 95.5 223.1 95.5 221.9 95.9 271.5 95.5"/>
      <polygon id="polygon732" class="cls-2" points="351.3 102.6 351.3 102.6 278.8 95.5 277.6 95.9 351.3 102.6"/>
      <polygon id="polygon734" class="cls-2" points="84.6 95.8 84.6 95.8 83.5 95.2 9.7 102.6 84.6 95.8"/>
      <polygon id="polygon736" class="cls-2" points="153.2 95.8 153.2 95.8 152 95.2 91.9 95.8 153.2 95.8"/>
      <polygon id="polygon738" class="cls-2" points="152 95.2 152 95.2 93.1 95.2 91.9 95.8 152 95.2"/>
      <polygon id="polygon740" class="cls-2" points="215.7 95.5 215.7 95.5 161.7 95.2 160.5 95.8 215.7 95.5"/>
      <polygon id="polygon742" class="cls-2" points="271.5 95.5 271.5 95.5 270.3 94.9 223.1 95.5 271.5 95.5"/>
      <polygon id="polygon744" class="cls-2" points="215.7 95.5 215.7 95.5 214.6 94.9 161.7 95.2 215.7 95.5"/>
      <polygon id="polygon746" class="cls-2" points="270.3 94.9 270.3 94.9 224.2 94.9 223.1 95.5 270.3 94.9"/>
      <polygon id="polygon748" class="cls-2" points="351.3 102.6 351.3 102.6 279.9 94.9 278.8 95.5 351.3 102.6"/>
      <polygon id="polygon750" class="cls-2" points="83.5 95.2 83.5 95.2 82.4 94.6 9.7 102.6 83.5 95.2"/>
      <polygon id="polygon752" class="cls-2" points="152 95.2 152 95.2 151 94.6 93.1 95.2 152 95.2"/>
      <polygon id="polygon754" class="cls-2" points="214.6 94.9 214.6 94.9 162.7 94.6 161.7 95.2 214.6 94.9"/>
      <polygon id="polygon756" class="cls-2" points="151 94.6 151 94.6 94.1 94.6 93.1 95.2 151 94.6"/>
      <polygon id="polygon758" class="cls-2" points="214.6 94.9 214.6 94.9 213.6 94.3 162.7 94.6 214.6 94.9"/>
      <polygon id="polygon760" class="cls-2" points="270.3 94.9 270.3 94.9 269.3 94.3 224.2 94.9 270.3 94.9"/>
      <polygon id="polygon762" class="cls-2" points="351.3 102.6 351.3 102.6 281 94.3 279.9 94.9 351.3 102.6"/>
      <polygon id="polygon764" class="cls-2" points="269.3 94.3 269.3 94.3 225.2 94.3 224.2 94.9 269.3 94.3"/>
      <polygon id="polygon766" class="cls-2" points="151 94.6 151 94.6 150.1 93.7 94.1 94.6 151 94.6"/>
      <polygon id="polygon768" class="cls-2" points="82.4 94.6 82.4 94.6 81.5 93.7 9.7 102.6 82.4 94.6"/>
      <polygon id="polygon770" class="cls-2" points="213.6 94.3 213.6 94.3 163.6 93.7 162.7 94.6 213.6 94.3"/>
      <polygon id="polygon772" class="cls-2" points="150.1 93.7 150.1 93.7 95.1 93.7 94.1 94.6 150.1 93.7"/>
      <polygon id="polygon774" class="cls-2" points="213.6 94.3 213.6 94.3 212.6 93.4 163.6 93.7 213.6 94.3"/>
      <polygon id="polygon776" class="cls-2" points="269.3 94.3 269.3 94.3 268.4 93.4 225.2 94.3 269.3 94.3"/>
      <polygon id="polygon778" class="cls-2" points="268.4 93.4 268.4 93.4 226.2 93.4 225.2 94.3 268.4 93.4"/>
      <polygon id="polygon780" class="cls-2" points="351.3 102.6 351.3 102.6 281.9 93.4 281 94.3 351.3 102.6"/>
      <polygon id="polygon782" class="cls-2" points="81.5 93.7 81.5 93.7 80.7 92.8 9.7 102.6 81.5 93.7"/>
      <polygon id="polygon784" class="cls-2" points="150.1 93.7 150.1 93.7 149.2 92.8 95.1 93.7 150.1 93.7"/>
      <polygon id="polygon786" class="cls-2" points="212.6 93.4 212.6 93.4 164.5 92.8 163.6 93.7 212.6 93.4"/>
      <polygon id="polygon788" class="cls-2" points="149.2 92.8 149.2 92.8 95.9 92.8 95.1 93.7 149.2 92.8"/>
      <polygon id="polygon790" class="cls-2" points="268.4 93.4 268.4 93.4 267.5 92.5 226.2 93.4 268.4 93.4"/>
      <polygon id="polygon792" class="cls-2" points="212.6 93.4 212.6 93.4 211.8 92.5 164.5 92.8 212.6 93.4"/>
      <polygon id="polygon794" class="cls-2" points="267.5 92.5 267.5 92.5 227 92.5 226.2 93.4 267.5 92.5"/>
      <polygon id="polygon796" class="cls-2" points="351.3 102.6 351.3 102.6 282.8 92.5 281.9 93.4 351.3 102.6"/>
      <polygon id="polygon798" class="cls-2" points="80.7 92.8 80.7 92.8 79.9 91.8 9.7 102.6 80.7 92.8"/>
      <polygon id="polygon800" class="cls-2" points="149.2 92.8 149.2 92.8 148.6 91.8 95.9 92.8 149.2 92.8"/>
      <polygon id="polygon802" class="cls-2" points="148.6 91.8 148.6 91.8 96.6 91.8 95.9 92.8 148.6 91.8"/>
      <polygon id="polygon804" class="cls-2" points="211.8 92.5 211.8 92.5 165.1 91.8 164.5 92.8 211.8 92.5"/>
      <polygon id="polygon806" class="cls-2" points="211.8 92.5 211.8 92.5 211.1 91.5 165.1 91.8 211.8 92.5"/>
      <polygon id="polygon808" class="cls-2" points="267.5 92.5 267.5 92.5 266.9 91.5 227 92.5 267.5 92.5"/>
      <polygon id="polygon810" class="cls-2" points="351.3 102.6 351.3 102.6 283.4 91.5 282.8 92.5 351.3 102.6"/>
      <polygon id="polygon812" class="cls-2" points="266.9 91.5 266.9 91.5 227.7 91.5 227 92.5 266.9 91.5"/>
      <polygon id="polygon814" class="cls-2" points="148.6 91.8 148.6 91.8 148 90.6 96.6 91.8 148.6 91.8"/>
      <polygon id="polygon816" class="cls-2" points="79.9 91.8 79.9 91.8 79.4 90.6 9.7 102.6 79.9 91.8"/>
      <polygon id="polygon818" class="cls-2" points="211.1 91.5 211.1 91.5 165.7 90.6 165.1 91.8 211.1 91.5"/>
      <polygon id="polygon820" class="cls-2" points="148 90.6 148 90.6 97.1 90.6 96.6 91.8 148 90.6"/>
      <polygon id="polygon822" class="cls-2" points="211.1 91.5 211.1 91.5 210.6 90.3 165.7 90.6 211.1 91.5"/>
      <polygon id="polygon824" class="cls-2" points="266.9 91.5 266.9 91.5 266.3 90.3 227.7 91.5 266.9 91.5"/>
      <polygon id="polygon826" class="cls-2" points="266.3 90.3 266.3 90.3 228.3 90.3 227.7 91.5 266.3 90.3"/>
      <polygon id="polygon828" class="cls-2" points="351.3 102.6 351.3 102.6 284 90.3 283.4 91.5 351.3 102.6"/>
      <polygon id="polygon830" class="cls-2" points="79.4 90.6 79.4 90.6 79 89.4 9.7 102.6 79.4 90.6"/>
      <polygon id="polygon832" class="cls-2" points="148 90.6 148 90.6 147.6 89.4 97.1 90.6 148 90.6"/>
      <polygon id="polygon834" class="cls-2" points="210.6 90.3 210.6 90.3 166.1 89.4 165.7 90.6 210.6 90.3"/>
      <polygon id="polygon836" class="cls-2" points="147.6 89.4 147.6 89.4 97.5 89.4 97.1 90.6 147.6 89.4"/>
      <polygon id="polygon838" class="cls-2" points="210.6 90.3 210.6 90.3 210.1 89.2 166.1 89.4 210.6 90.3"/>
      <polygon id="polygon840" class="cls-2" points="266.3 90.3 266.3 90.3 265.9 89.2 228.3 90.3 266.3 90.3"/>
      <polygon id="polygon842" class="cls-2" points="265.9 89.2 265.9 89.2 228.7 89.2 228.3 90.3 265.9 89.2"/>
      <polygon id="polygon844" class="cls-2" points="351.3 102.6 351.3 102.6 284.4 89.2 284 90.3 351.3 102.6"/>
      <polygon id="polygon846" class="cls-2" points="147.6 89.4 147.6 89.4 147.3 88.2 97.5 89.4 147.6 89.4"/>
      <polygon id="polygon848" class="cls-2" points="79 89.4 79 89.4 78.7 88.2 9.7 102.6 79 89.4"/>
      <polygon id="polygon850" class="cls-2" points="210.1 89.2 210.1 89.2 166.3 88.2 166.1 89.4 210.1 89.2"/>
      <polygon id="polygon852" class="cls-2" points="147.3 88.2 147.3 88.2 97.8 88.2 97.5 89.4 147.3 88.2"/>
      <polygon id="polygon854" class="cls-2" points="265.9 89.2 265.9 89.2 265.6 87.9 228.7 89.2 265.9 89.2"/>
      <polygon id="polygon856" class="cls-2" points="210.1 89.2 210.1 89.2 209.9 87.9 166.3 88.2 210.1 89.2"/>
      <polygon id="polygon858" class="cls-2" points="351.3 102.6 351.3 102.6 284.6 87.9 284.4 89.2 351.3 102.6"/>
      <polygon id="polygon860" class="cls-2" points="265.6 87.9 265.6 87.9 228.9 87.9 228.7 89.2 265.6 87.9"/>
      <polygon id="polygon862" class="cls-2" points="147.3 88.2 147.3 88.2 147.3 86.9 97.8 88.2 147.3 88.2"/>
      <polygon id="polygon864" class="cls-2" points="78.7 88.2 78.7 88.2 78.7 86.9 9.7 102.6 78.7 88.2"/>
      <polygon id="polygon866" class="cls-2" points="209.9 87.9 209.9 87.9 166.4 86.9 166.3 88.2 209.9 87.9"/>
      <polygon id="polygon868" class="cls-2" points="147.3 86.9 147.3 86.9 97.9 86.9 97.8 88.2 147.3 86.9"/>
      <polygon id="polygon870" class="cls-2" points="209.9 87.9 209.9 87.9 209.8 86.6 166.4 86.9 209.9 87.9"/>
      <polygon id="polygon872" class="cls-2" points="265.6 87.9 265.6 87.9 265.6 86.6 228.9 87.9 265.6 87.9"/>
      <polygon id="polygon874" class="cls-2" points="78.7 86.9 78.7 86.9 75.8 86.6 9.7 102.6 78.7 86.9"/>
      <polygon id="polygon876" class="cls-2" points="60.7 86.6 60.7 86.6 9.7 102.6 75.8 86.6 60.7 86.6"/>
      <polygon id="polygon878" class="cls-2" points="351.3 102.6 351.3 102.6 287.8 86.6 284.6 87.9 351.3 102.6"/>
      <polygon id="polygon880" class="cls-2" points="265.6 86.6 265.6 86.6 262.5 86.6 228.9 87.9 265.6 86.6"/>
      <polygon id="polygon882" class="cls-2" points="232.1 86.6 232.1 86.6 228.9 87.9 262.5 86.6 232.1 86.6"/>
      <polygon id="polygon884" class="cls-2" points="209.8 86.6 209.8 86.6 206.8 86.6 166.4 86.9 209.8 86.6"/>
      <polygon id="polygon886" class="cls-2" points="169.7 86.6 169.7 86.6 166.4 86.9 206.8 86.6 169.7 86.6"/>
      <polygon id="polygon888" class="cls-2" points="147.3 86.9 147.3 86.9 101 86.6 97.9 86.9 147.3 86.9"/>
      <polygon id="polygon890" class="cls-2" points="101 86.6 101 86.6 147.3 86.9 144.4 86.6 101 86.6"/>
      <polygon id="polygon892" class="cls-2" points="232.1 86.6 232.1 86.6 229 86.6 228.9 87.9 232.1 86.6"/>
      <polygon id="polygon894" class="cls-2" points="287.8 86.6 287.8 86.6 284.7 86.6 284.6 87.9 287.8 86.6"/>
      <polygon id="polygon896" class="cls-2" points="351.3 102.6 351.3 102.6 300.1 86.6 287.8 86.6 351.3 102.6"/>
      <polygon id="polygon898" class="cls-2" points="147.3 86.9 147.3 86.9 147.3 85.7 144.4 86.6 147.3 86.9"/>
      <polygon id="polygon900" class="cls-2" points="78.7 86.9 78.7 86.9 78.7 85.7 75.8 86.6 78.7 86.9"/>
      <polygon id="polygon902" class="cls-2" points="169.7 86.6 169.7 86.6 166.3 85.7 166.4 86.9 169.7 86.6"/>
      <polygon id="polygon904" class="cls-2" points="101 86.6 101 86.6 97.8 85.7 97.9 86.9 101 86.6"/>
      <polygon id="polygon906" class="cls-2" points="265.6 86.6 265.6 86.6 265.6 85.4 262.5 86.6 265.6 86.6"/>
      <polygon id="polygon908" class="cls-2" points="209.8 86.6 209.8 86.6 209.9 85.4 206.8 86.6 209.8 86.6"/>
      <polygon id="polygon910" class="cls-2" points="287.8 86.6 287.8 86.6 284.6 85.4 284.7 86.6 287.8 86.6"/>
      <polygon id="polygon912" class="cls-2" points="232.1 86.6 232.1 86.6 228.9 85.4 229 86.6 232.1 86.6"/>
      <polygon id="polygon914" class="cls-2" points="147.3 85.7 147.3 85.7 144.5 85.1 144.4 86.6 147.3 85.7"/>
      <polygon id="polygon916" class="cls-2" points="209.9 85.4 209.9 85.4 206.9 85.1 206.8 86.6 209.9 85.4"/>
      <polygon id="polygon918" class="cls-2" points="78.7 85.7 78.7 85.7 75.9 85.1 75.8 86.6 78.7 85.7"/>
      <polygon id="polygon920" class="cls-2" points="101 86.6 101 86.6 100.9 85.1 97.8 85.7 101 86.6"/>
      <polygon id="polygon922" class="cls-2" points="169.7 86.6 169.7 86.6 169.5 85.1 166.3 85.7 169.7 86.6"/>
      <polygon id="polygon924" class="cls-2" points="232.1 86.6 232.1 86.6 231.9 85.1 228.9 85.4 232.1 86.6"/>
      <polygon id="polygon926" class="cls-2" points="287.8 86.6 287.8 86.6 287.7 85.1 284.6 85.4 287.8 86.6"/>
      <polygon id="polygon928" class="cls-2" points="265.6 85.4 265.6 85.4 262.7 85.1 262.5 86.6 265.6 85.4"/>
      <polygon id="polygon930" class="cls-2" points="78.7 85.7 78.7 85.7 79 84.5 75.9 85.1 78.7 85.7"/>
      <polygon id="polygon932" class="cls-2" points="147.3 85.7 147.3 85.7 147.6 84.5 144.5 85.1 147.3 85.7"/>
      <polygon id="polygon934" class="cls-2" points="169.5 85.1 169.5 85.1 166.1 84.5 166.3 85.7 169.5 85.1"/>
      <polygon id="polygon936" class="cls-2" points="100.9 85.1 100.9 85.1 97.5 84.5 97.8 85.7 100.9 85.1"/>
      <polygon id="polygon938" class="cls-2" points="209.9 85.4 209.9 85.4 210.1 84.2 206.9 85.1 209.9 85.4"/>
      <polygon id="polygon940" class="cls-2" points="265.6 85.4 265.6 85.4 265.9 84.2 262.7 85.1 265.6 85.4"/>
      <polygon id="polygon942" class="cls-2" points="287.7 85.1 287.7 85.1 284.4 84.2 284.6 85.4 287.7 85.1"/>
      <polygon id="polygon944" class="cls-2" points="231.9 85.1 231.9 85.1 228.7 84.2 228.9 85.4 231.9 85.1"/>
      <polygon id="polygon946" class="cls-2" points="147.6 84.5 147.6 84.5 144.8 83.7 144.5 85.1 147.6 84.5"/>
      <polygon id="polygon948" class="cls-2" points="79 84.5 79 84.5 76.2 83.7 75.9 85.1 79 84.5"/>
      <polygon id="polygon950" class="cls-2" points="210.1 84.2 210.1 84.2 207.2 83.7 206.9 85.1 210.1 84.2"/>
      <polygon id="polygon952" class="cls-2" points="100.9 85.1 100.9 85.1 100.6 83.7 97.5 84.5 100.9 85.1"/>
      <polygon id="polygon954" class="cls-2" points="169.5 85.1 169.5 85.1 169.2 83.7 166.1 84.5 169.5 85.1"/>
      <polygon id="polygon956" class="cls-2" points="231.9 85.1 231.9 85.1 231.7 83.7 228.7 84.2 231.9 85.1"/>
      <polygon id="polygon958" class="cls-2" points="265.9 84.2 265.9 84.2 263 83.7 262.7 85.1 265.9 84.2"/>
      <polygon id="polygon960" class="cls-2" points="287.7 85.1 287.7 85.1 287.4 83.7 284.4 84.2 287.7 85.1"/>
      <polygon id="polygon962" class="cls-2" points="79 84.5 79 84.5 79.4 83.3 76.2 83.7 79 84.5"/>
      <polygon id="polygon964" class="cls-2" points="147.6 84.5 147.6 84.5 148 83.3 144.8 83.7 147.6 84.5"/>
      <polygon id="polygon966" class="cls-2" points="169.2 83.7 169.2 83.7 165.7 83.3 166.1 84.5 169.2 83.7"/>
      <polygon id="polygon968" class="cls-2" points="100.6 83.7 100.6 83.7 97.1 83.3 97.5 84.5 100.6 83.7"/>
      <polygon id="polygon970" class="cls-2" points="265.9 84.2 265.9 84.2 266.3 83 263 83.7 265.9 84.2"/>
      <polygon id="polygon972" class="cls-2" points="210.1 84.2 210.1 84.2 210.6 83 207.2 83.7 210.1 84.2"/>
      <polygon id="polygon974" class="cls-2" points="231.7 83.7 231.7 83.7 228.3 83 228.7 84.2 231.7 83.7"/>
      <polygon id="polygon976" class="cls-2" points="287.4 83.7 287.4 83.7 284 83 284.4 84.2 287.4 83.7"/>
      <polygon id="polygon978" class="cls-2" points="169.2 83.7 169.2 83.7 168.7 82.3 165.7 83.3 169.2 83.7"/>
      <polygon id="polygon980" class="cls-2" points="231.7 83.7 231.7 83.7 231.1 82.3 228.3 83 231.7 83.7"/>
      <polygon id="polygon982" class="cls-2" points="100.6 83.7 100.6 83.7 100.1 82.3 97.1 83.3 100.6 83.7"/>
      <polygon id="polygon984" class="cls-2" points="148 83.3 148 83.3 145.3 82.3 144.8 83.7 148 83.3"/>
      <polygon id="polygon986" class="cls-2" points="79.4 83.3 79.4 83.3 76.7 82.3 76.2 83.7 79.4 83.3"/>
      <polygon id="polygon988" class="cls-2" points="210.6 83 210.6 83 207.7 82.3 207.2 83.7 210.6 83"/>
      <polygon id="polygon990" class="cls-2" points="266.3 83 266.3 83 263.5 82.3 263 83.7 266.3 83"/>
      <polygon id="polygon992" class="cls-2" points="287.4 83.7 287.4 83.7 286.9 82.3 284 83 287.4 83.7"/>
      <polygon id="polygon994" class="cls-2" points="148 83.3 148 83.3 148.6 82.1 145.3 82.3 148 83.3"/>
      <polygon id="polygon996" class="cls-2" points="79.4 83.3 79.4 83.3 79.9 82.1 76.7 82.3 79.4 83.3"/>
      <polygon id="polygon998" class="cls-2" points="168.7 82.3 168.7 82.3 165.1 82.1 165.7 83.3 168.7 82.3"/>
      <polygon id="polygon1000" class="cls-2" points="100.1 82.3 100.1 82.3 96.6 82.1 97.1 83.3 100.1 82.3"/>
      <polygon id="polygon1002" class="cls-2" points="266.3 83 266.3 83 266.9 81.8 263.5 82.3 266.3 83"/>
      <polygon id="polygon1004" class="cls-2" points="210.6 83 210.6 83 211.1 81.8 207.7 82.3 210.6 83"/>
      <polygon id="polygon1006" class="cls-2" points="231.1 82.3 231.1 82.3 227.7 81.8 228.3 83 231.1 82.3"/>
      <polygon id="polygon1008" class="cls-2" points="286.9 82.3 286.9 82.3 283.4 81.8 284 83 286.9 82.3"/>
      <polygon id="polygon1010" class="cls-2" points="79.9 82.1 79.9 82.1 80.7 81.1 76.7 82.3 79.9 82.1"/>
      <polygon id="polygon1012" class="cls-2" points="148.6 82.1 148.6 82.1 149.2 81.1 145.3 82.3 148.6 82.1"/>
      <polygon id="polygon1014" class="cls-2" points="168.7 82.3 168.7 82.3 164.5 81.1 165.1 82.1 168.7 82.3"/>
      <polygon id="polygon1016" class="cls-2" points="100.1 82.3 100.1 82.3 95.9 81.1 96.6 82.1 100.1 82.3"/>
      <polygon id="polygon1018" class="cls-2" points="211.1 81.8 211.1 81.8 208.3 80.9 207.7 82.3 211.1 81.8"/>
      <polygon id="polygon1020" class="cls-2" points="149.2 81.1 149.2 81.1 145.9 80.9 145.3 82.3 149.2 81.1"/>
      <polygon id="polygon1022" class="cls-2" points="80.7 81.1 80.7 81.1 77.4 80.9 76.7 82.3 80.7 81.1"/>
      <polygon id="polygon1024" class="cls-2" points="168.7 82.3 168.7 82.3 168.1 80.9 164.5 81.1 168.7 82.3"/>
      <polygon id="polygon1026" class="cls-2" points="231.1 82.3 231.1 82.3 230.5 80.9 227.7 81.8 231.1 82.3"/>
      <polygon id="polygon1028" class="cls-2" points="100.1 82.3 100.1 82.3 99.5 80.9 95.9 81.1 100.1 82.3"/>
      <polygon id="polygon1030" class="cls-2" points="286.9 82.3 286.9 82.3 286.3 80.9 283.4 81.8 286.9 82.3"/>
      <polygon id="polygon1032" class="cls-2" points="266.9 81.8 266.9 81.8 264.1 80.9 263.5 82.3 266.9 81.8"/>
      <polygon id="polygon1034" class="cls-2" points="266.9 81.8 266.9 81.8 267.5 80.8 264.1 80.9 266.9 81.8"/>
      <polygon id="polygon1036" class="cls-2" points="211.1 81.8 211.1 81.8 211.8 80.8 208.3 80.9 211.1 81.8"/>
      <polygon id="polygon1038" class="cls-2" points="230.5 80.9 230.5 80.9 227 80.8 227.7 81.8 230.5 80.9"/>
      <polygon id="polygon1040" class="cls-2" points="286.3 80.9 286.3 80.9 282.8 80.8 283.4 81.8 286.3 80.9"/>
      <polygon id="polygon1042" class="cls-2" points="149.2 81.1 149.2 81.1 150.1 80.2 145.9 80.9 149.2 81.1"/>
      <polygon id="polygon1044" class="cls-2" points="80.7 81.1 80.7 81.1 81.5 80.2 77.4 80.9 80.7 81.1"/>
      <polygon id="polygon1046" class="cls-2" points="99.5 80.9 99.5 80.9 95.1 80.2 95.9 81.1 99.5 80.9"/>
      <polygon id="polygon1048" class="cls-2" points="168.1 80.9 168.1 80.9 163.6 80.2 164.5 81.1 168.1 80.9"/>
      <polygon id="polygon1050" class="cls-2" points="267.5 80.8 267.5 80.8 268.4 79.9 264.1 80.9 267.5 80.8"/>
      <polygon id="polygon1052" class="cls-2" points="211.8 80.8 211.8 80.8 212.6 79.9 208.3 80.9 211.8 80.8"/>
      <polygon id="polygon1054" class="cls-2" points="286.3 80.9 286.3 80.9 281.9 79.9 282.8 80.8 286.3 80.9"/>
      <polygon id="polygon1056" class="cls-2" points="230.5 80.9 230.5 80.9 226.2 79.9 227 80.8 230.5 80.9"/>
      <polygon id="polygon1058" class="cls-2" points="99.5 80.9 99.5 80.9 98.7 79.6 95.1 80.2 99.5 80.9"/>
      <polygon id="polygon1060" class="cls-2" points="230.5 80.9 230.5 80.9 229.7 79.6 226.2 79.9 230.5 80.9"/>
      <polygon id="polygon1062" class="cls-2" points="168.1 80.9 168.1 80.9 167.3 79.6 163.6 80.2 168.1 80.9"/>
      <polygon id="polygon1064" class="cls-2" points="81.5 80.2 81.5 80.2 78.1 79.6 77.4 80.9 81.5 80.2"/>
      <polygon id="polygon1066" class="cls-2" points="212.6 79.9 212.6 79.9 209.1 79.6 208.3 80.9 212.6 79.9"/>
      <polygon id="polygon1068" class="cls-2" points="150.1 80.2 150.1 80.2 146.7 79.6 145.9 80.9 150.1 80.2"/>
      <polygon id="polygon1070" class="cls-2" points="286.3 80.9 286.3 80.9 285.5 79.6 281.9 79.9 286.3 80.9"/>
      <polygon id="polygon1072" class="cls-2" points="268.4 79.9 268.4 79.9 264.9 79.6 264.1 80.9 268.4 79.9"/>
      <polygon id="polygon1074" class="cls-2" points="81.5 80.2 81.5 80.2 82.4 79.3 78.1 79.6 81.5 80.2"/>
      <polygon id="polygon1076" class="cls-2" points="150.1 80.2 150.1 80.2 151 79.3 146.7 79.6 150.1 80.2"/>
      <polygon id="polygon1078" class="cls-2" points="167.3 79.6 167.3 79.6 162.7 79.3 163.6 80.2 167.3 79.6"/>
      <polygon id="polygon1080" class="cls-2" points="98.7 79.6 98.7 79.6 94.1 79.3 95.1 80.2 98.7 79.6"/>
      <polygon id="polygon1082" class="cls-2" points="212.6 79.9 212.6 79.9 213.6 79 209.1 79.6 212.6 79.9"/>
      <polygon id="polygon1084" class="cls-2" points="268.4 79.9 268.4 79.9 269.3 79 264.9 79.6 268.4 79.9"/>
      <polygon id="polygon1086" class="cls-2" points="285.5 79.6 285.5 79.6 281 79 281.9 79.9 285.5 79.6"/>
      <polygon id="polygon1088" class="cls-2" points="229.7 79.6 229.7 79.6 225.2 79 226.2 79.9 229.7 79.6"/>
      <polygon id="polygon1090" class="cls-2" points="82.4 79.3 82.4 79.3 83.5 78.7 78.1 79.6 82.4 79.3"/>
      <polygon id="polygon1092" class="cls-2" points="151 79.3 151 79.3 152 78.7 146.7 79.6 151 79.3"/>
      <polygon id="polygon1094" class="cls-2" points="98.7 79.6 98.7 79.6 93.1 78.7 94.1 79.3 98.7 79.6"/>
      <polygon id="polygon1096" class="cls-2" points="167.3 79.6 167.3 79.6 161.7 78.7 162.7 79.3 167.3 79.6"/>
      <polygon id="polygon1098" class="cls-2" points="83.5 78.7 83.5 78.7 79.1 78.4 78.1 79.6 83.5 78.7"/>
      <polygon id="polygon1100" class="cls-2" points="213.6 79 213.6 79 210.1 78.4 209.1 79.6 213.6 79"/>
      <polygon id="polygon1102" class="cls-2" points="152 78.7 152 78.7 147.6 78.4 146.7 79.6 152 78.7"/>
      <polygon id="polygon1104" class="cls-2" points="229.7 79.6 229.7 79.6 228.8 78.4 225.2 79 229.7 79.6"/>
      <polygon id="polygon1106" class="cls-2" points="98.7 79.6 98.7 79.6 97.7 78.4 93.1 78.7 98.7 79.6"/>
      <polygon id="polygon1108" class="cls-2" points="167.3 79.6 167.3 79.6 166.3 78.4 161.7 78.7 167.3 79.6"/>
      <polygon id="polygon1110" class="cls-2" points="285.5 79.6 285.5 79.6 284.6 78.4 281 79 285.5 79.6"/>
      <polygon id="polygon1112" class="cls-2" points="269.3 79 269.3 79 265.9 78.4 264.9 79.6 269.3 79"/>
      <polygon id="polygon1114" class="cls-2" points="213.6 79 213.6 79 214.6 78.4 210.1 78.4 213.6 79"/>
      <polygon id="polygon1116" class="cls-2" points="269.3 79 269.3 79 270.3 78.4 265.9 78.4 269.3 79"/>
      <polygon id="polygon1118" class="cls-2" points="284.6 78.4 284.6 78.4 279.9 78.4 281 79 284.6 78.4"/>
      <polygon id="polygon1120" class="cls-2" points="228.8 78.4 228.8 78.4 224.2 78.4 225.2 79 228.8 78.4"/>
      <polygon id="polygon1122" class="cls-2" points="152 78.7 152 78.7 153.2 78.1 147.6 78.4 152 78.7"/>
      <polygon id="polygon1124" class="cls-2" points="83.5 78.7 83.5 78.7 84.6 78.1 79.1 78.4 83.5 78.7"/>
      <polygon id="polygon1126" class="cls-2" points="166.3 78.4 166.3 78.4 160.5 78.1 161.7 78.7 166.3 78.4"/>
      <polygon id="polygon1128" class="cls-2" points="97.7 78.4 97.7 78.4 91.9 78.1 93.1 78.7 97.7 78.4"/>
      <polygon id="polygon1130" class="cls-2" points="270.3 78.4 270.3 78.4 271.5 77.8 265.9 78.4 270.3 78.4"/>
      <polygon id="polygon1132" class="cls-2" points="214.6 78.4 214.6 78.4 215.7 77.8 210.1 78.4 214.6 78.4"/>
      <polygon id="polygon1134" class="cls-2" points="228.8 78.4 228.8 78.4 223.1 77.8 224.2 78.4 228.8 78.4"/>
      <polygon id="polygon1136" class="cls-2" points="284.6 78.4 284.6 78.4 278.8 77.8 279.9 78.4 284.6 78.4"/>
      <polygon id="polygon1138" class="cls-2" points="84.6 78.1 84.6 78.1 85.8 77.6 79.1 78.4 84.6 78.1"/>
      <polygon id="polygon1140" class="cls-2" points="153.2 78.1 153.2 78.1 154.3 77.6 147.6 78.4 153.2 78.1"/>
      <polygon id="polygon1142" class="cls-2" points="166.3 78.4 166.3 78.4 159.3 77.6 160.5 78.1 166.3 78.4"/>
      <polygon id="polygon1144" class="cls-2" points="97.7 78.4 97.7 78.4 90.7 77.6 91.9 78.1 97.7 78.4"/>
      <polygon id="polygon1146" class="cls-2" points="154.3 77.6 154.3 77.6 155.6 77.4 147.6 78.4 154.3 77.6"/>
      <polygon id="polygon1148" class="cls-2" points="85.8 77.6 85.8 77.6 87 77.4 79.1 78.4 85.8 77.6"/>
      <polygon id="polygon1150" class="cls-2" points="166.3 78.4 166.3 78.4 158.1 77.4 159.3 77.6 166.3 78.4"/>
      <polygon id="polygon1152" class="cls-2" points="97.7 78.4 97.7 78.4 89.5 77.4 90.7 77.6 97.7 78.4"/>
      <polygon id="polygon1154" class="cls-2" points="87 77.4 87 77.4 80.2 77.4 79.1 78.4 87 77.4"/>
      <polygon id="polygon1156" class="cls-2" points="155.6 77.4 155.6 77.4 148.7 77.4 147.6 78.4 155.6 77.4"/>
      <polygon id="polygon1158" class="cls-2" points="215.7 77.8 215.7 77.8 211.1 77.4 210.1 78.4 215.7 77.8"/>
      <polygon id="polygon1160" class="cls-2" points="97.7 78.4 97.7 78.4 96.7 77.4 89.5 77.4 97.7 78.4"/>
      <polygon id="polygon1162" class="cls-2" points="166.3 78.4 166.3 78.4 165.3 77.4 158.1 77.4 166.3 78.4"/>
      <polygon id="polygon1164" class="cls-2" points="228.8 78.4 228.8 78.4 227.7 77.4 223.1 77.8 228.8 78.4"/>
      <polygon id="polygon1166" class="cls-2" points="284.6 78.4 284.6 78.4 283.5 77.4 278.8 77.8 284.6 78.4"/>
      <polygon id="polygon1168" class="cls-2" points="271.5 77.8 271.5 77.8 266.9 77.4 265.9 78.4 271.5 77.8"/>
      <polygon id="polygon1170" class="cls-2" points="271.5 77.8 271.5 77.8 272.6 77.4 266.9 77.4 271.5 77.8"/>
      <polygon id="polygon1172" class="cls-2" points="215.7 77.8 215.7 77.8 217 77.4 211.1 77.4 215.7 77.8"/>
      <polygon id="polygon1174" class="cls-2" points="227.7 77.4 227.7 77.4 221.9 77.4 223.1 77.8 227.7 77.4"/>
      <polygon id="polygon1176" class="cls-2" points="283.5 77.4 283.5 77.4 277.6 77.4 278.8 77.8 283.5 77.4"/>
      <polygon id="polygon1178" class="cls-2" points="87 77.4 87 77.4 88.2 77.4 80.2 77.4 87 77.4"/>
      <polygon id="polygon1180" class="cls-2" points="96.7 77.4 96.7 77.4 88.2 77.4 89.5 77.4 96.7 77.4"/>
      <polygon id="polygon1182" class="cls-2" points="155.6 77.4 155.6 77.4 156.8 77.4 148.7 77.4 155.6 77.4"/>
      <polygon id="polygon1184" class="cls-2" points="165.3 77.4 165.3 77.4 156.8 77.4 158.1 77.4 165.3 77.4"/>
      <polygon id="polygon1186" class="cls-2" points="217 77.4 217 77.4 218.2 77.1 211.1 77.4 217 77.4"/>
      <polygon id="polygon1188" class="cls-2" points="272.6 77.4 272.6 77.4 273.9 77.1 266.9 77.4 272.6 77.4"/>
      <polygon id="polygon1190" class="cls-2" points="283.5 77.4 283.5 77.4 276.4 77.1 277.6 77.4 283.5 77.4"/>
      <polygon id="polygon1192" class="cls-2" points="227.7 77.4 227.7 77.4 220.6 77.1 221.9 77.4 227.7 77.4"/>
      <polygon id="polygon1194" class="cls-2" points="273.9 77.1 273.9 77.1 275.1 77.1 266.9 77.4 273.9 77.1"/>
      <polygon id="polygon1196" class="cls-2" points="283.5 77.4 283.5 77.4 275.1 77.1 276.4 77.1 283.5 77.4"/>
      <polygon id="polygon1198" class="cls-2" points="218.2 77.1 218.2 77.1 219.4 77.1 211.1 77.4 218.2 77.1"/>
      <polygon id="polygon1200" class="cls-2" points="227.7 77.4 227.7 77.4 219.4 77.1 220.6 77.1 227.7 77.4"/>
      <polygon id="polygon1202" class="cls-2" points="96.7 77.4 96.7 77.4 95.5 76.5 88.2 77.4 96.7 77.4"/>
      <polygon id="polygon1204" class="cls-2" points="227.7 77.4 227.7 77.4 226.5 76.5 219.4 77.1 227.7 77.4"/>
      <polygon id="polygon1206" class="cls-2" points="165.3 77.4 165.3 77.4 164 76.5 156.8 77.4 165.3 77.4"/>
      <polygon id="polygon1208" class="cls-2" points="95.5 76.5 95.5 76.5 81.3 76.5 88.2 77.4 95.5 76.5"/>
      <polygon id="polygon1210" class="cls-2" points="88.2 77.4 88.2 77.4 81.3 76.5 80.2 77.4 88.2 77.4"/>
      <polygon id="polygon1212" class="cls-2" points="226.5 76.5 226.5 76.5 212.4 76.5 219.4 77.1 226.5 76.5"/>
      <polygon id="polygon1214" class="cls-2" points="219.4 77.1 219.4 77.1 212.4 76.5 211.1 77.4 219.4 77.1"/>
      <polygon id="polygon1216" class="cls-2" points="164 76.5 164 76.5 149.9 76.5 156.8 77.4 164 76.5"/>
      <polygon id="polygon1218" class="cls-2" points="156.8 77.4 156.8 77.4 149.9 76.5 148.7 77.4 156.8 77.4"/>
      <polygon id="polygon1220" class="cls-2" points="283.5 77.4 283.5 77.4 282.3 76.5 275.1 77.1 283.5 77.4"/>
      <polygon id="polygon1222" class="cls-2" points="282.3 76.5 282.3 76.5 268.2 76.5 275.1 77.1 282.3 76.5"/>
      <polygon id="polygon1224" class="cls-2" points="275.1 77.1 275.1 77.1 268.2 76.5 266.9 77.4 275.1 77.1"/>
      <polygon id="polygon1226" class="cls-2" points="95.5 76.5 95.5 76.5 94.2 75.7 81.3 76.5 95.5 76.5"/>
      <polygon id="polygon1228" class="cls-2" points="164 76.5 164 76.5 162.7 75.7 149.9 76.5 164 76.5"/>
      <polygon id="polygon1230" class="cls-2" points="226.5 76.5 226.5 76.5 225.2 75.7 212.4 76.5 226.5 76.5"/>
      <polygon id="polygon1232" class="cls-2" points="94.2 75.7 94.2 75.7 82.6 75.7 81.3 76.5 94.2 75.7"/>
      <polygon id="polygon1234" class="cls-2" points="225.2 75.7 225.2 75.7 213.7 75.7 212.4 76.5 225.2 75.7"/>
      <polygon id="polygon1236" class="cls-2" points="162.7 75.7 162.7 75.7 151.2 75.7 149.9 76.5 162.7 75.7"/>
      <polygon id="polygon1238" class="cls-2" points="282.3 76.5 282.3 76.5 269.5 75.7 268.2 76.5 282.3 76.5"/>
      <polygon id="polygon1240" class="cls-2" points="282.3 76.5 282.3 76.5 281 75.7 269.5 75.7 282.3 76.5"/>
      <polygon id="polygon1242" class="cls-2" points="94.2 75.7 94.2 75.7 84 75.1 82.6 75.7 94.2 75.7"/>
      <polygon id="polygon1244" class="cls-2" points="225.2 75.7 225.2 75.7 215 75.1 213.7 75.7 225.2 75.7"/>
      <polygon id="polygon1246" class="cls-2" points="162.7 75.7 162.7 75.7 152.6 75.1 151.2 75.7 162.7 75.7"/>
      <polygon id="polygon1248" class="cls-2" points="162.7 75.7 162.7 75.7 161.4 75.1 152.6 75.1 162.7 75.7"/>
      <polygon id="polygon1250" class="cls-2" points="94.2 75.7 94.2 75.7 92.8 75.1 84 75.1 94.2 75.7"/>
      <polygon id="polygon1252" class="cls-2" points="225.2 75.7 225.2 75.7 223.8 75.1 215 75.1 225.2 75.7"/>
      <polygon id="polygon1254" class="cls-2" points="281 75.7 281 75.7 279.6 75.1 269.5 75.7 281 75.7"/>
      <polygon id="polygon1256" class="cls-2" points="279.6 75.1 279.6 75.1 270.8 75.1 269.5 75.7 279.6 75.1"/>
      <polygon id="polygon1258" class="cls-2" points="92.8 75.1 92.8 75.1 91.4 74.7 84 75.1 92.8 75.1"/>
      <polygon id="polygon1260" class="cls-2" points="161.4 75.1 161.4 75.1 159.9 74.7 152.6 75.1 161.4 75.1"/>
      <polygon id="polygon1262" class="cls-2" points="223.8 75.1 223.8 75.1 222.4 74.7 215 75.1 223.8 75.1"/>
      <polygon id="polygon1264" class="cls-2" points="91.4 74.7 91.4 74.7 85.4 74.7 84 75.1 91.4 74.7"/>
      <polygon id="polygon1266" class="cls-2" points="222.4 74.7 222.4 74.7 216.5 74.7 215 75.1 222.4 74.7"/>
      <polygon id="polygon1268" class="cls-2" points="159.9 74.7 159.9 74.7 154 74.7 152.6 75.1 159.9 74.7"/>
      <polygon id="polygon1270" class="cls-2" points="279.6 75.1 279.6 75.1 278.2 74.7 270.8 75.1 279.6 75.1"/>
      <polygon id="polygon1272" class="cls-2" points="278.2 74.7 278.2 74.7 272.3 74.7 270.8 75.1 278.2 74.7"/>
      <polygon id="polygon1274" class="cls-2" points="91.4 74.7 91.4 74.7 89.9 74.4 85.4 74.7 91.4 74.7"/>
      <polygon id="polygon1276" class="cls-2" points="159.9 74.7 159.9 74.7 158.5 74.4 154 74.7 159.9 74.7"/>
      <polygon id="polygon1278" class="cls-2" points="222.4 74.7 222.4 74.7 220.9 74.4 216.5 74.7 222.4 74.7"/>
      <polygon id="polygon1280" class="cls-2" points="220.9 74.4 220.9 74.4 217.9 74.4 216.5 74.7 220.9 74.4"/>
      <polygon id="polygon1282" class="cls-2" points="89.9 74.4 89.9 74.4 86.9 74.4 85.4 74.7 89.9 74.4"/>
      <polygon id="polygon1284" class="cls-2" points="158.5 74.4 158.5 74.4 155.5 74.4 154 74.7 158.5 74.4"/>
      <polygon id="polygon1286" class="cls-2" points="278.2 74.7 278.2 74.7 276.7 74.4 272.3 74.7 278.2 74.7"/>
      <polygon id="polygon1288" class="cls-2" points="276.7 74.4 276.7 74.4 273.7 74.4 272.3 74.7 276.7 74.4"/>
      <polygon id="polygon1290" class="cls-2" points="89.9 74.4 89.9 74.4 88.4 74.3 86.9 74.4 89.9 74.4"/>
      <polygon id="polygon1292" class="cls-2" points="158.5 74.4 158.5 74.4 157 74.3 155.5 74.4 158.5 74.4"/>
      <polygon id="polygon1294" class="cls-2" points="220.9 74.4 220.9 74.4 219.4 74.3 217.9 74.4 220.9 74.4"/>
      <polygon id="polygon1296" class="cls-2" points="276.7 74.4 276.7 74.4 275.2 74.3 273.7 74.4 276.7 74.4"/>
      <polygon id="polygon1298" class="cls-2" points="118.3 76.6 118.3 76.6 106.9 72.9 99.3 76.6 118.3 76.6"/>
      <polygon id="polygon1300" class="cls-2" points="118.3 76.6 118.3 76.6 118.3 72.9 106.9 72.9 118.3 76.6"/>
      <polygon id="polygon1302" class="cls-2" points="60.7 86.6 60.7 86.6 60.7 65.3 9.7 102.6 60.7 86.6"/>
      <polygon id="polygon1304" class="cls-2" points="72.9 49.2 72.9 49.2 90.5 65 90.5 49.2 72.9 49.2"/>
      <polygon id="polygon1306" class="cls-2" points="90.5 65 90.5 65 72.9 49.2 67.8 65 90.5 65"/>
      <polygon id="polygon1308" class="cls-2" points="60.7 65.3 60.7 65.3 68.6 42.9 9.7 102.6 60.7 65.3"/>
      <polygon id="polygon1310" class="cls-2" points="106.9 72.9 106.9 72.9 99.3 42.9 99.3 76.6 106.9 72.9"/>
      <polygon id="polygon1312" class="cls-2" points="200.9 82.3 200.9 82.3 200.9 30.6 187.9 82.3 200.9 82.3"/>
      <polygon id="polygon1314" class="cls-2" points="351.3 102.6 351.3 102.6 300.1 30.6 300.1 86.6 351.3 102.6"/>
      <polygon id="polygon1316" class="cls-2" points="99.3 42.9 99.3 42.9 106.9 30.6 68.6 42.9 99.3 42.9"/>
      <polygon id="polygon1318" class="cls-2" points="106.9 72.9 106.9 72.9 106.9 30.6 99.3 42.9 106.9 72.9"/>
      <polygon id="polygon1320" class="cls-2" points="200.9 30.6 200.9 30.6 187.9 30.6 187.9 82.3 200.9 30.6"/>
      <polygon id="polygon1322" class="cls-2" points="187.9 30.6 187.9 30.6 351.3 18.7 106.9 30.6 187.9 30.6"/>
      <polygon id="polygon1324" class="cls-2" points="200.9 30.6 200.9 30.6 351.3 18.7 187.9 30.6 200.9 30.6"/>
      <polygon id="polygon1326" class="cls-2" points="300.1 30.6 300.1 30.6 351.3 18.7 200.9 30.6 300.1 30.6"/>
      <polygon id="polygon1328" class="cls-2" points="351.3 102.6 351.3 102.6 351.3 18.7 300.1 30.6 351.3 102.6"/>
      <polygon id="polygon1330" class="cls-2" points="351.3 18.7 351.3 18.7 9.7 18.7 106.9 30.6 351.3 18.7"/>
      <polygon id="polygon1332" class="cls-2" points="106.9 30.6 106.9 30.6 9.7 18.7 68.6 42.9 106.9 30.6"/>
      <polygon id="polygon1334" class="cls-2" points="68.6 42.9 68.6 42.9 9.7 18.7 9.7 102.6 68.6 42.9"/>
      <polygon id="polygon1336" class="cls-2" points="351.3 18.7 351.3 18.7 351.2 17.5 9.7 18.7 351.3 18.7"/>
      <polygon id="polygon1338" class="cls-2" points="351.2 17.5 351.2 17.5 9.8 17.5 9.7 18.7 351.2 17.5"/>
      <polygon id="polygon1340" class="cls-2" points="351.2 17.5 351.2 17.5 351 16.2 9.8 17.5 351.2 17.5"/>
      <polygon id="polygon1342" class="cls-2" points="351 16.2 351 16.2 10.1 16.2 9.8 17.5 351 16.2"/>
      <polygon id="polygon1344" class="cls-2" points="351 16.2 351 16.2 350.5 15 10.1 16.2 351 16.2"/>
      <polygon id="polygon1346" class="cls-2" points="350.5 15 350.5 15 10.5 15 10.1 16.2 350.5 15"/>
      <polygon id="polygon1348" class="cls-2" points="350.5 15 350.5 15 11.2 13.9 10.5 15 350.5 15"/>
      <polygon id="polygon1350" class="cls-2" points="350.5 15 350.5 15 349.9 13.9 11.2 13.9 350.5 15"/>
      <polygon id="polygon1352" class="cls-2" points="349.9 13.9 349.9 13.9 349.1 12.8 11.2 13.9 349.9 13.9"/>
      <polygon id="polygon1354" class="cls-2" points="349.1 12.8 349.1 12.8 11.9 12.8 11.2 13.9 349.1 12.8"/>
      <polygon id="polygon1356" class="cls-2" points="349.1 12.8 349.1 12.8 348.2 12 11.9 12.8 349.1 12.8"/>
      <polygon id="polygon1358" class="cls-2" points="348.2 12 348.2 12 12.8 12 11.9 12.8 348.2 12"/>
      <polygon id="polygon1360" class="cls-2" points="348.2 12 348.2 12 347.1 11.2 12.8 12 348.2 12"/>
      <polygon id="polygon1362" class="cls-2" points="347.1 11.2 347.1 11.2 13.9 11.2 12.8 12 347.1 11.2"/>
      <polygon id="polygon1364" class="cls-2" points="347.1 11.2 347.1 11.2 346.1 10.5 13.9 11.2 347.1 11.2"/>
      <polygon id="polygon1366" class="cls-2" points="346.1 10.5 346.1 10.5 15 10.5 13.9 11.2 346.1 10.5"/>
      <polygon id="polygon1368" class="cls-2" points="346.1 10.5 346.1 10.5 344.8 10.1 15 10.5 346.1 10.5"/>
      <polygon id="polygon1370" class="cls-2" points="344.8 10.1 344.8 10.1 16.2 10.1 15 10.5 344.8 10.1"/>
      <polygon id="polygon1372" class="cls-2" points="344.8 10.1 344.8 10.1 343.6 9.8 16.2 10.1 344.8 10.1"/>
      <polygon id="polygon1374" class="cls-2" points="343.6 9.8 343.6 9.8 17.5 9.8 16.2 10.1 343.6 9.8"/>
      <polygon id="polygon1376" class="cls-2" points="18.7 9.7 18.7 9.7 17.5 9.8 342.3 9.7 18.7 9.7"/>
      <polygon id="polygon1378" class="cls-2" points="343.6 9.8 343.6 9.8 342.3 9.7 17.5 9.8 343.6 9.8"/>
    </g>
    <g id="g1510">
      <polygon id="polygon1382" class="cls-2" points="360.3 120.6 360.3 120.6 344 120.6 342.3 120.6 360.3 120.6"/>
      <polygon id="polygon1384" class="cls-2" points="18.7 120.6 18.7 120.6 16.9 120.6 .7 120.6 18.7 120.6"/>
      <polygon id="polygon1386" class="cls-2" points="360.3 120.6 360.3 120.6 345.8 120.3 344 120.6 360.3 120.6"/>
      <polygon id="polygon1388" class="cls-2" points="16.9 120.6 16.9 120.6 15.2 120.3 .7 120.6 16.9 120.6"/>
      <polygon id="polygon1390" class="cls-2" points="360.3 120.6 360.3 120.6 347.5 119.8 345.8 120.3 360.3 120.6"/>
      <polygon id="polygon1392" class="cls-2" points="15.2 120.3 15.2 120.3 13.5 119.8 .7 120.6 15.2 120.3"/>
      <polygon id="polygon1394" class="cls-2" points="360.3 120.6 360.3 120.6 349.2 119.3 347.5 119.8 360.3 120.6"/>
      <polygon id="polygon1396" class="cls-2" points="13.5 119.8 13.5 119.8 11.8 119.3 .7 120.6 13.5 119.8"/>
      <polygon id="polygon1398" class="cls-2" points="360.3 120.6 360.3 120.6 350.8 118.5 349.2 119.3 360.3 120.6"/>
      <polygon id="polygon1400" class="cls-2" points="11.8 119.3 11.8 119.3 10.3 118.5 .7 120.6 11.8 119.3"/>
      <polygon id="polygon1402" class="cls-2" points="10.3 118.5 10.3 118.5 8.7 117.6 .7 120.6 10.3 118.5"/>
      <polygon id="polygon1404" class="cls-2" points="360.3 120.6 360.3 120.6 352.3 117.6 350.8 118.5 360.3 120.6"/>
      <polygon id="polygon1406" class="cls-2" points="8.7 117.6 8.7 117.6 7.3 116.5 .7 120.6 8.7 117.6"/>
      <polygon id="polygon1408" class="cls-2" points="360.3 120.6 360.3 120.6 353.7 116.5 352.3 117.6 360.3 120.6"/>
      <polygon id="polygon1410" class="cls-2" points="7.3 116.5 7.3 116.5 6 115.4 .7 120.6 7.3 116.5"/>
      <polygon id="polygon1412" class="cls-2" points="360.3 120.6 360.3 120.6 355 115.4 353.7 116.5 360.3 120.6"/>
      <polygon id="polygon1414" class="cls-2" points="6 115.4 6 115.4 4.9 114.1 .7 120.6 6 115.4"/>
      <polygon id="polygon1416" class="cls-2" points="360.3 120.6 360.3 120.6 356.2 114.1 355 115.4 360.3 120.6"/>
      <polygon id="polygon1418" class="cls-2" points="4.9 114.1 4.9 114.1 3.8 112.6 .7 120.6 4.9 114.1"/>
      <polygon id="polygon1420" class="cls-2" points="360.3 120.6 360.3 120.6 357.2 112.6 356.2 114.1 360.3 120.6"/>
      <polygon id="polygon1422" class="cls-2" points="3.8 112.6 3.8 112.6 2.8 111.1 .7 120.6 3.8 112.6"/>
      <polygon id="polygon1424" class="cls-2" points="360.3 120.6 360.3 120.6 358.2 111.1 357.2 112.6 360.3 120.6"/>
      <polygon id="polygon1426" class="cls-2" points="2.8 111.1 2.8 111.1 2.1 109.5 .7 120.6 2.8 111.1"/>
      <polygon id="polygon1428" class="cls-2" points="360.3 120.6 360.3 120.6 358.9 109.5 358.2 111.1 360.3 120.6"/>
      <polygon id="polygon1430" class="cls-2" points="2.1 109.5 2.1 109.5 1.5 107.9 .7 120.6 2.1 109.5"/>
      <polygon id="polygon1432" class="cls-2" points="360.3 120.6 360.3 120.6 359.5 107.9 358.9 109.5 360.3 120.6"/>
      <polygon id="polygon1434" class="cls-2" points="1.5 107.9 1.5 107.9 1.1 106.2 .7 120.6 1.5 107.9"/>
      <polygon id="polygon1436" class="cls-2" points="360.3 120.6 360.3 120.6 360 106.2 359.5 107.9 360.3 120.6"/>
      <polygon id="polygon1438" class="cls-2" points="1.1 106.2 1.1 106.2 .8 104.4 .7 120.6 1.1 106.2"/>
      <polygon id="polygon1440" class="cls-2" points="360.3 120.6 360.3 120.6 360.2 104.4 360 106.2 360.3 120.6"/>
      <polygon id="polygon1442" class="cls-2" points=".8 104.4 .8 104.4 .7 102.6 .7 120.6 .8 104.4"/>
      <polygon id="polygon1444" class="cls-2" points="360.3 120.6 360.3 120.6 360.3 102.6 360.2 104.4 360.3 120.6"/>
      <polygon id="polygon1446" class="cls-2" points="345.8 1.1 345.8 1.1 360.3 .7 344 .8 345.8 1.1"/>
      <polygon id="polygon1448" class="cls-2" points="347.5 1.5 347.5 1.5 360.3 .7 345.8 1.1 347.5 1.5"/>
      <polygon id="polygon1450" class="cls-2" points="349.2 2.1 349.2 2.1 360.3 .7 347.5 1.5 349.2 2.1"/>
      <polygon id="polygon1452" class="cls-2" points="350.8 2.9 350.8 2.9 360.3 .7 349.2 2.1 350.8 2.9"/>
      <polygon id="polygon1454" class="cls-2" points="352.3 3.8 352.3 3.8 360.3 .7 350.8 2.9 352.3 3.8"/>
      <polygon id="polygon1456" class="cls-2" points="353.7 4.9 353.7 4.9 360.3 .7 352.3 3.8 353.7 4.9"/>
      <polygon id="polygon1458" class="cls-2" points="355 6 355 6 360.3 .7 353.7 4.9 355 6"/>
      <polygon id="polygon1460" class="cls-2" points="356.2 7.3 356.2 7.3 360.3 .7 355 6 356.2 7.3"/>
      <polygon id="polygon1462" class="cls-2" points="357.2 8.7 357.2 8.7 360.3 .7 356.2 7.3 357.2 8.7"/>
      <polygon id="polygon1464" class="cls-2" points="358.2 10.3 358.2 10.3 360.3 .7 357.2 8.7 358.2 10.3"/>
      <polygon id="polygon1466" class="cls-2" points="358.9 11.8 358.9 11.8 360.3 .7 358.2 10.3 358.9 11.8"/>
      <polygon id="polygon1468" class="cls-2" points="359.5 13.5 359.5 13.5 360.3 .7 358.9 11.8 359.5 13.5"/>
      <polygon id="polygon1470" class="cls-2" points="360 15.2 360 15.2 360.3 .7 359.5 13.5 360 15.2"/>
      <polygon id="polygon1472" class="cls-2" points="360.2 16.9 360.2 16.9 360.3 .7 360 15.2 360.2 16.9"/>
      <polygon id="polygon1474" class="cls-2" points="360.3 18.7 360.3 18.7 360.3 .7 360.2 16.9 360.3 18.7"/>
      <polygon id="polygon1476" class="cls-2" points=".7 .7 .7 .7 16.9 .8 18.7 .7 .7 .7"/>
      <polygon id="polygon1478" class="cls-2" points="16.9 .8 16.9 .8 .7 .7 15.2 1.1 16.9 .8"/>
      <polygon id="polygon1480" class="cls-2" points="15.2 1.1 15.2 1.1 .7 .7 13.5 1.5 15.2 1.1"/>
      <polygon id="polygon1482" class="cls-2" points="13.5 1.5 13.5 1.5 .7 .7 11.8 2.1 13.5 1.5"/>
      <polygon id="polygon1484" class="cls-2" points="11.8 2.1 11.8 2.1 .7 .7 10.3 2.9 11.8 2.1"/>
      <polygon id="polygon1486" class="cls-2" points="10.3 2.9 10.3 2.9 .7 .7 8.7 3.8 10.3 2.9"/>
      <polygon id="polygon1488" class="cls-2" points="8.7 3.8 8.7 3.8 .7 .7 7.3 4.9 8.7 3.8"/>
      <polygon id="polygon1490" class="cls-2" points="7.3 4.9 7.3 4.9 .7 .7 6 6 7.3 4.9"/>
      <polygon id="polygon1492" class="cls-2" points="6 6 6 6 .7 .7 4.9 7.3 6 6"/>
      <polygon id="polygon1494" class="cls-2" points="4.9 7.3 4.9 7.3 .7 .7 3.8 8.7 4.9 7.3"/>
      <polygon id="polygon1496" class="cls-2" points="3.8 8.7 3.8 8.7 .7 .7 2.8 10.3 3.8 8.7"/>
      <polygon id="polygon1498" class="cls-2" points="2.8 10.3 2.8 10.3 .7 .7 2.1 11.8 2.8 10.3"/>
      <polygon id="polygon1500" class="cls-2" points="2.1 11.8 2.1 11.8 .7 .7 1.5 13.5 2.1 11.8"/>
      <polygon id="polygon1502" class="cls-2" points="1.5 13.5 1.5 13.5 .7 .7 1.1 15.2 1.5 13.5"/>
      <polygon id="polygon1504" class="cls-2" points="1.1 15.2 1.1 15.2 .7 .7 .8 16.9 1.1 15.2"/>
      <polygon id="polygon1506" class="cls-2" points=".8 16.9 .8 16.9 .7 .7 .7 18.7 .8 16.9"/>
      <polygon id="polygon1508" class="cls-2" points="360.3 .7 360.3 .7 342.3 .7 344 .8 360.3 .7"/>
    </g>
    <g id="g1744">
      <polygon id="polygon1512" class="cls-1" points="342.3 120.6 342.3 120.6 16.9 120.6 18.7 120.6 342.3 120.6"/>
      <polygon id="polygon1514" class="cls-1" points="342.3 120.6 342.3 120.6 344 120.6 16.9 120.6 342.3 120.6"/>
      <polygon id="polygon1516" class="cls-1" points="344 120.6 344 120.6 15.2 120.3 16.9 120.6 344 120.6"/>
      <polygon id="polygon1518" class="cls-1" points="344 120.6 344 120.6 345.8 120.3 15.2 120.3 344 120.6"/>
      <polygon id="polygon1520" class="cls-1" points="345.8 120.3 345.8 120.3 13.5 119.8 15.2 120.3 345.8 120.3"/>
      <polygon id="polygon1522" class="cls-1" points="345.8 120.3 345.8 120.3 347.5 119.8 13.5 119.8 345.8 120.3"/>
      <polygon id="polygon1524" class="cls-1" points="347.5 119.8 347.5 119.8 11.8 119.3 13.5 119.8 347.5 119.8"/>
      <polygon id="polygon1526" class="cls-1" points="347.5 119.8 347.5 119.8 349.2 119.3 11.8 119.3 347.5 119.8"/>
      <polygon id="polygon1528" class="cls-1" points="349.2 119.3 349.2 119.3 10.3 118.5 11.8 119.3 349.2 119.3"/>
      <polygon id="polygon1530" class="cls-1" points="349.2 119.3 349.2 119.3 350.8 118.5 10.3 118.5 349.2 119.3"/>
      <polygon id="polygon1532" class="cls-1" points="350.8 118.5 350.8 118.5 352.3 117.6 10.3 118.5 350.8 118.5"/>
      <polygon id="polygon1534" class="cls-1" points="352.3 117.6 352.3 117.6 8.7 117.6 10.3 118.5 352.3 117.6"/>
      <polygon id="polygon1536" class="cls-1" points="352.3 117.6 352.3 117.6 353.7 116.5 8.7 117.6 352.3 117.6"/>
      <polygon id="polygon1538" class="cls-1" points="353.7 116.5 353.7 116.5 7.3 116.5 8.7 117.6 353.7 116.5"/>
      <polygon id="polygon1540" class="cls-1" points="353.7 116.5 353.7 116.5 355 115.4 7.3 116.5 353.7 116.5"/>
      <polygon id="polygon1542" class="cls-1" points="355 115.4 355 115.4 6 115.4 7.3 116.5 355 115.4"/>
      <polygon id="polygon1544" class="cls-1" points="355 115.4 355 115.4 356.2 114.1 6 115.4 355 115.4"/>
      <polygon id="polygon1546" class="cls-1" points="356.2 114.1 356.2 114.1 4.9 114.1 6 115.4 356.2 114.1"/>
      <polygon id="polygon1548" class="cls-1" points="356.2 114.1 356.2 114.1 357.2 112.6 4.9 114.1 356.2 114.1"/>
      <polygon id="polygon1550" class="cls-1" points="357.2 112.6 357.2 112.6 3.8 112.6 4.9 114.1 357.2 112.6"/>
      <polygon id="polygon1552" class="cls-1" points="357.2 112.6 357.2 112.6 18.7 111.6 3.8 112.6 357.2 112.6"/>
      <polygon id="polygon1554" class="cls-1" points="18.7 111.6 18.7 111.6 357.2 112.6 342.3 111.6 18.7 111.6"/>
      <polygon id="polygon1556" class="cls-1" points="18.7 111.6 18.7 111.6 17.5 111.6 3.8 112.6 18.7 111.6"/>
      <polygon id="polygon1558" class="cls-1" points="357.2 112.6 357.2 112.6 343.6 111.6 342.3 111.6 357.2 112.6"/>
      <polygon id="polygon1560" class="cls-1" points="17.5 111.6 17.5 111.6 16.2 111.3 3.8 112.6 17.5 111.6"/>
      <polygon id="polygon1562" class="cls-1" points="357.2 112.6 357.2 112.6 344.8 111.3 343.6 111.6 357.2 112.6"/>
      <polygon id="polygon1564" class="cls-1" points="357.2 112.6 357.2 112.6 358.2 111.1 344.8 111.3 357.2 112.6"/>
      <polygon id="polygon1566" class="cls-1" points="16.2 111.3 16.2 111.3 2.8 111.1 3.8 112.6 16.2 111.3"/>
      <polygon id="polygon1568" class="cls-1" points="16.2 111.3 16.2 111.3 15 110.8 2.8 111.1 16.2 111.3"/>
      <polygon id="polygon1570" class="cls-1" points="358.2 111.1 358.2 111.1 346.1 110.8 344.8 111.3 358.2 111.1"/>
      <polygon id="polygon1572" class="cls-1" points="15 110.8 15 110.8 13.9 110.2 2.8 111.1 15 110.8"/>
      <polygon id="polygon1574" class="cls-1" points="358.2 111.1 358.2 111.1 347.1 110.2 346.1 110.8 358.2 111.1"/>
      <polygon id="polygon1576" class="cls-1" points="358.2 111.1 358.2 111.1 358.9 109.5 347.1 110.2 358.2 111.1"/>
      <polygon id="polygon1578" class="cls-1" points="13.9 110.2 13.9 110.2 2.1 109.5 2.8 111.1 13.9 110.2"/>
      <polygon id="polygon1580" class="cls-1" points="13.9 110.2 13.9 110.2 12.8 109.5 2.1 109.5 13.9 110.2"/>
      <polygon id="polygon1582" class="cls-1" points="358.9 109.5 358.9 109.5 348.2 109.5 347.1 110.2 358.9 109.5"/>
      <polygon id="polygon1584" class="cls-1" points="12.8 109.5 12.8 109.5 11.9 108.5 2.1 109.5 12.8 109.5"/>
      <polygon id="polygon1586" class="cls-1" points="358.9 109.5 358.9 109.5 349.1 108.5 348.2 109.5 358.9 109.5"/>
      <polygon id="polygon1588" class="cls-1" points="358.9 109.5 358.9 109.5 359.5 107.9 349.1 108.5 358.9 109.5"/>
      <polygon id="polygon1590" class="cls-1" points="11.9 108.5 11.9 108.5 1.5 107.9 2.1 109.5 11.9 108.5"/>
      <polygon id="polygon1592" class="cls-1" points="11.9 108.5 11.9 108.5 11.2 107.5 1.5 107.9 11.9 108.5"/>
      <polygon id="polygon1594" class="cls-1" points="359.5 107.9 359.5 107.9 349.9 107.5 349.1 108.5 359.5 107.9"/>
      <polygon id="polygon1596" class="cls-1" points="359.5 107.9 359.5 107.9 350.5 106.4 349.9 107.5 359.5 107.9"/>
      <polygon id="polygon1598" class="cls-1" points="11.2 107.5 11.2 107.5 10.5 106.4 1.5 107.9 11.2 107.5"/>
      <polygon id="polygon1600" class="cls-1" points="359.5 107.9 359.5 107.9 360 106.2 350.5 106.4 359.5 107.9"/>
      <polygon id="polygon1602" class="cls-1" points="10.5 106.4 10.5 106.4 1.1 106.2 1.5 107.9 10.5 106.4"/>
      <polygon id="polygon1604" class="cls-1" points="10.5 106.4 10.5 106.4 10.1 105.1 1.1 106.2 10.5 106.4"/>
      <polygon id="polygon1606" class="cls-1" points="360 106.2 360 106.2 351 105.1 350.5 106.4 360 106.2"/>
      <polygon id="polygon1608" class="cls-1" points="360 106.2 360 106.2 360.2 104.4 351 105.1 360 106.2"/>
      <polygon id="polygon1610" class="cls-1" points="10.1 105.1 10.1 105.1 .8 104.4 1.1 106.2 10.1 105.1"/>
      <polygon id="polygon1612" class="cls-1" points="10.1 105.1 10.1 105.1 9.8 103.9 .8 104.4 10.1 105.1"/>
      <polygon id="polygon1614" class="cls-1" points="360.2 104.4 360.2 104.4 351.2 103.9 351 105.1 360.2 104.4"/>
      <polygon id="polygon1616" class="cls-1" points="360.2 104.4 360.2 104.4 360.3 102.6 351.2 103.9 360.2 104.4"/>
      <polygon id="polygon1618" class="cls-1" points="9.8 103.9 9.8 103.9 9.7 102.6 .8 104.4 9.8 103.9"/>
      <polygon id="polygon1620" class="cls-1" points="9.7 102.6 9.7 102.6 .7 102.6 .8 104.4 9.7 102.6"/>
      <polygon id="polygon1622" class="cls-1" points="360.3 102.6 360.3 102.6 351.3 102.6 351.2 103.9 360.3 102.6"/>
      <polygon id="polygon1624" class="cls-1" points="360.3 102.6 360.3 102.6 360.3 18.7 351.3 102.6 360.3 102.6"/>
      <polygon id="polygon1626" class="cls-1" points="9.7 102.6 9.7 102.6 9.7 18.7 .7 102.6 9.7 102.6"/>
      <polygon id="polygon1628" class="cls-1" points="9.7 18.7 9.7 18.7 .7 18.7 .7 102.6 9.7 18.7"/>
      <polygon id="polygon1630" class="cls-1" points="360.3 18.7 360.3 18.7 351.3 18.7 351.3 102.6 360.3 18.7"/>
      <polygon id="polygon1632" class="cls-1" points="9.7 18.7 9.7 18.7 9.8 17.5 .7 18.7 9.7 18.7"/>
      <polygon id="polygon1634" class="cls-1" points="360.3 18.7 360.3 18.7 351.2 17.5 351.3 18.7 360.3 18.7"/>
      <polygon id="polygon1636" class="cls-1" points="360.3 18.7 360.3 18.7 360.2 16.9 351.2 17.5 360.3 18.7"/>
      <polygon id="polygon1638" class="cls-1" points="9.8 17.5 9.8 17.5 .8 16.9 .7 18.7 9.8 17.5"/>
      <polygon id="polygon1640" class="cls-1" points="9.8 17.5 9.8 17.5 10.1 16.2 .8 16.9 9.8 17.5"/>
      <polygon id="polygon1642" class="cls-1" points="360.2 16.9 360.2 16.9 351 16.2 351.2 17.5 360.2 16.9"/>
      <polygon id="polygon1644" class="cls-1" points="360.2 16.9 360.2 16.9 360 15.2 351 16.2 360.2 16.9"/>
      <polygon id="polygon1646" class="cls-1" points="10.1 16.2 10.1 16.2 1.1 15.2 .8 16.9 10.1 16.2"/>
      <polygon id="polygon1648" class="cls-1" points="10.1 16.2 10.1 16.2 10.5 15 1.1 15.2 10.1 16.2"/>
      <polygon id="polygon1650" class="cls-1" points="360 15.2 360 15.2 350.5 15 351 16.2 360 15.2"/>
      <polygon id="polygon1652" class="cls-1" points="360 15.2 360 15.2 349.9 13.9 350.5 15 360 15.2"/>
      <polygon id="polygon1654" class="cls-1" points="10.5 15 10.5 15 11.2 13.9 1.1 15.2 10.5 15"/>
      <polygon id="polygon1656" class="cls-1" points="360 15.2 360 15.2 359.5 13.5 349.9 13.9 360 15.2"/>
      <polygon id="polygon1658" class="cls-1" points="11.2 13.9 11.2 13.9 1.5 13.5 1.1 15.2 11.2 13.9"/>
      <polygon id="polygon1660" class="cls-1" points="11.2 13.9 11.2 13.9 11.9 12.8 1.5 13.5 11.2 13.9"/>
      <polygon id="polygon1662" class="cls-1" points="359.5 13.5 359.5 13.5 349.1 12.8 349.9 13.9 359.5 13.5"/>
      <polygon id="polygon1664" class="cls-1" points="11.9 12.8 11.9 12.8 12.8 12 1.5 13.5 11.9 12.8"/>
      <polygon id="polygon1666" class="cls-1" points="359.5 13.5 359.5 13.5 348.2 12 349.1 12.8 359.5 13.5"/>
      <polygon id="polygon1668" class="cls-1" points="359.5 13.5 359.5 13.5 358.9 11.8 348.2 12 359.5 13.5"/>
      <polygon id="polygon1670" class="cls-1" points="12.8 12 12.8 12 2.1 11.8 1.5 13.5 12.8 12"/>
      <polygon id="polygon1672" class="cls-1" points="12.8 12 12.8 12 13.9 11.2 2.1 11.8 12.8 12"/>
      <polygon id="polygon1674" class="cls-1" points="358.9 11.8 358.9 11.8 347.1 11.2 348.2 12 358.9 11.8"/>
      <polygon id="polygon1676" class="cls-1" points="13.9 11.2 13.9 11.2 15 10.5 2.1 11.8 13.9 11.2"/>
      <polygon id="polygon1678" class="cls-1" points="358.9 11.8 358.9 11.8 346.1 10.5 347.1 11.2 358.9 11.8"/>
      <polygon id="polygon1680" class="cls-1" points="358.9 11.8 358.9 11.8 358.2 10.3 346.1 10.5 358.9 11.8"/>
      <polygon id="polygon1682" class="cls-1" points="15 10.5 15 10.5 2.8 10.3 2.1 11.8 15 10.5"/>
      <polygon id="polygon1684" class="cls-1" points="15 10.5 15 10.5 16.2 10.1 2.8 10.3 15 10.5"/>
      <polygon id="polygon1686" class="cls-1" points="358.2 10.3 358.2 10.3 344.8 10.1 346.1 10.5 358.2 10.3"/>
      <polygon id="polygon1688" class="cls-1" points="16.2 10.1 16.2 10.1 17.5 9.8 2.8 10.3 16.2 10.1"/>
      <polygon id="polygon1690" class="cls-1" points="358.2 10.3 358.2 10.3 343.6 9.8 344.8 10.1 358.2 10.3"/>
      <polygon id="polygon1692" class="cls-1" points="17.5 9.8 17.5 9.8 18.7 9.7 2.8 10.3 17.5 9.8"/>
      <polygon id="polygon1694" class="cls-1" points="358.2 10.3 358.2 10.3 342.3 9.7 343.6 9.8 358.2 10.3"/>
      <polygon id="polygon1696" class="cls-1" points="342.3 9.7 342.3 9.7 357.2 8.7 18.7 9.7 342.3 9.7"/>
      <polygon id="polygon1698" class="cls-1" points="358.2 10.3 358.2 10.3 357.2 8.7 342.3 9.7 358.2 10.3"/>
      <polygon id="polygon1700" class="cls-1" points="357.2 8.7 357.2 8.7 3.8 8.7 18.7 9.7 357.2 8.7"/>
      <polygon id="polygon1702" class="cls-1" points="18.7 9.7 18.7 9.7 3.8 8.7 2.8 10.3 18.7 9.7"/>
      <polygon id="polygon1704" class="cls-1" points="357.2 8.7 357.2 8.7 356.2 7.3 3.8 8.7 357.2 8.7"/>
      <polygon id="polygon1706" class="cls-1" points="356.2 7.3 356.2 7.3 4.9 7.3 3.8 8.7 356.2 7.3"/>
      <polygon id="polygon1708" class="cls-1" points="356.2 7.3 356.2 7.3 355 6 4.9 7.3 356.2 7.3"/>
      <polygon id="polygon1710" class="cls-1" points="355 6 355 6 6 6 4.9 7.3 355 6"/>
      <polygon id="polygon1712" class="cls-1" points="355 6 355 6 353.7 4.9 6 6 355 6"/>
      <polygon id="polygon1714" class="cls-1" points="353.7 4.9 353.7 4.9 7.3 4.9 6 6 353.7 4.9"/>
      <polygon id="polygon1716" class="cls-1" points="353.7 4.9 353.7 4.9 352.3 3.8 7.3 4.9 353.7 4.9"/>
      <polygon id="polygon1718" class="cls-1" points="352.3 3.8 352.3 3.8 8.7 3.8 7.3 4.9 352.3 3.8"/>
      <polygon id="polygon1720" class="cls-1" points="352.3 3.8 352.3 3.8 350.8 2.9 8.7 3.8 352.3 3.8"/>
      <polygon id="polygon1722" class="cls-1" points="350.8 2.9 350.8 2.9 10.3 2.9 8.7 3.8 350.8 2.9"/>
      <polygon id="polygon1724" class="cls-1" points="350.8 2.9 350.8 2.9 11.8 2.1 10.3 2.9 350.8 2.9"/>
      <polygon id="polygon1726" class="cls-1" points="350.8 2.9 350.8 2.9 349.2 2.1 11.8 2.1 350.8 2.9"/>
      <polygon id="polygon1728" class="cls-1" points="349.2 2.1 349.2 2.1 347.5 1.5 11.8 2.1 349.2 2.1"/>
      <polygon id="polygon1730" class="cls-1" points="347.5 1.5 347.5 1.5 13.5 1.5 11.8 2.1 347.5 1.5"/>
      <polygon id="polygon1732" class="cls-1" points="347.5 1.5 347.5 1.5 15.2 1.1 13.5 1.5 347.5 1.5"/>
      <polygon id="polygon1734" class="cls-1" points="347.5 1.5 347.5 1.5 345.8 1.1 15.2 1.1 347.5 1.5"/>
      <polygon id="polygon1736" class="cls-1" points="345.8 1.1 345.8 1.1 16.9 .8 15.2 1.1 345.8 1.1"/>
      <polygon id="polygon1738" class="cls-1" points="345.8 1.1 345.8 1.1 344 .8 16.9 .8 345.8 1.1"/>
      <polygon id="polygon1740" class="cls-1" points="18.7 .7 18.7 .7 344 .8 342.3 .7 18.7 .7"/>
      <polygon id="polygon1742" class="cls-1" points="344 .8 344 .8 18.7 .7 16.9 .8 344 .8"/>
    </g>
  </g>
</svg>