<?xml version="1.0" encoding="UTF-8"?>
<svg xmlns="http://www.w3.org/2000/svg" version="1.1" viewBox="0 0 360 120">
  <defs>
    <style>
      .cls-1 {
        fill: #010101;
        stroke: #010101;
      }

      .cls-1, .cls-2, .cls-3 {
        stroke-miterlimit: 10;
        stroke-width: .2px;
      }

      .cls-2 {
        fill: #fed520;
        stroke: #fed520;
      }

      .cls-3 {
        fill: #ef4043;
        stroke: #ef4043;
      }
    </style>
  </defs>
  <!-- Generator: Adobe Illustrator 28.7.1, SVG Export Plug-In . SVG Version: 1.2.0 Build 142)  -->
  <g>
    <g id="Layer_1">
      <g>
        <g>
          <polygon class="cls-1" points="100.5 84.6 144 86.1 100.7 86.1 100.7 86.1 100.5 84.6"/>
          <polygon class="cls-1" points="75.6 84.6 75.4 86.1 60.3 86.1 60.3 86.1 75.6 84.6"/>
          <polygon class="cls-1" points="206.5 84.6 206.5 86.1 169.3 86.1 169.3 86.1 206.5 84.6"/>
          <polygon class="cls-1" points="144.1 84.6 144 86.1 100.5 84.6 100.5 84.6 144.1 84.6"/>
          <polygon class="cls-1" points="231.6 84.6 262.2 86.1 231.7 86.1 231.7 86.1 231.6 84.6"/>
          <polygon class="cls-1" points="169.2 84.6 206.5 84.6 169.3 86.1 169.3 86.1 169.2 84.6"/>
          <polygon class="cls-1" points="287.4 84.6 299.8 86.1 287.5 86.1 287.5 86.1 287.4 84.6"/>
          <polygon class="cls-1" points="262.3 84.6 262.2 86.1 231.6 84.6 231.6 84.6 262.3 84.6"/>
          <polygon class="cls-1" points="100.3 83.1 144.1 84.6 100.5 84.6 100.5 84.6 100.3 83.1"/>
          <polygon class="cls-1" points="75.8 83.1 75.6 84.6 60.3 86.1 60.3 86.1 75.8 83.1"/>
          <polygon class="cls-1" points="144.5 83.1 144.1 84.6 100.3 83.1 100.3 83.1 144.5 83.1"/>
          <polygon class="cls-1" points="206.8 83.1 206.5 84.6 169.2 84.6 169.2 84.6 206.8 83.1"/>
          <polygon class="cls-1" points="231.3 83.1 262.3 84.6 231.6 84.6 231.6 84.6 231.3 83.1"/>
          <polygon class="cls-1" points="168.9 83.1 206.8 83.1 169.2 84.6 169.2 84.6 168.9 83.1"/>
          <polygon class="cls-1" points="262.6 83.1 262.3 84.6 231.3 83.1 231.3 83.1 262.6 83.1"/>
          <polygon class="cls-1" points="287 83.1 299.8 86.1 287.4 84.6 287.4 84.6 287 83.1"/>
          <polygon class="cls-1" points="99.7 81.7 144.5 83.1 100.3 83.1 100.3 83.1 99.7 81.7"/>
          <polygon class="cls-1" points="76.3 81.7 75.8 83.1 60.3 86.1 60.3 86.1 76.3 81.7"/>
          <polygon class="cls-1" points="230.8 81.7 262.6 83.1 231.3 83.1 231.3 83.1 230.8 81.7"/>
          <polygon class="cls-1" points="168.4 81.7 206.8 83.1 168.9 83.1 168.9 83.1 168.4 81.7"/>
          <polygon class="cls-1" points="144.9 81.7 144.5 83.1 99.7 81.7 99.7 81.7 144.9 81.7"/>
          <polygon class="cls-1" points="207.3 81.7 206.8 83.1 168.4 81.7 168.4 81.7 207.3 81.7"/>
          <polygon class="cls-1" points="263.1 81.7 262.6 83.1 230.8 81.7 230.8 81.7 263.1 81.7"/>
          <polygon class="cls-1" points="286.6 81.7 299.8 86.1 287 83.1 287 83.1 286.6 81.7"/>
          <polygon class="cls-1" points="200.5 81.7 207.3 81.7 168.4 81.7 168.4 81.7 200.5 81.7"/>
          <polygon class="cls-1" points="168.4 81.7 187.5 81.7 200.5 81.7 200.5 81.7 168.4 81.7"/>
          <polygon class="cls-1" points="99.2 80.3 144.9 81.7 99.7 81.7 99.7 81.7 99.2 80.3"/>
          <polygon class="cls-1" points="77 80.3 76.3 81.7 60.3 86.1 60.3 86.1 77 80.3"/>
          <polygon class="cls-1" points="145.5 80.3 144.9 81.7 99.2 80.3 99.2 80.3 145.5 80.3"/>
          <polygon class="cls-1" points="208 80.3 207.3 81.7 200.5 81.7 200.5 81.7 208 80.3"/>
          <polygon class="cls-1" points="167.7 80.3 187.5 81.7 168.4 81.7 168.4 81.7 167.7 80.3"/>
          <polygon class="cls-1" points="230.1 80.3 263.1 81.7 230.8 81.7 230.8 81.7 230.1 80.3"/>
          <polygon class="cls-1" points="285.9 80.3 299.8 86.1 286.6 81.7 286.6 81.7 285.9 80.3"/>
          <polygon class="cls-1" points="263.8 80.3 263.1 81.7 230.1 80.3 230.1 80.3 263.8 80.3"/>
          <polygon class="cls-1" points="98.4 79 145.5 80.3 99.2 80.3 99.2 80.3 98.4 79"/>
          <polygon class="cls-1" points="77.8 79 77 80.3 60.3 86.1 60.3 86.1 77.8 79"/>
          <polygon class="cls-1" points="166.9 79 187.5 81.7 167.7 80.3 167.7 80.3 166.9 79"/>
          <polygon class="cls-1" points="229.3 79 263.8 80.3 230.1 80.3 230.1 80.3 229.3 79"/>
          <polygon class="cls-1" points="208.8 79 208 80.3 200.5 81.7 200.5 81.7 208.8 79"/>
          <polygon class="cls-1" points="146.3 79 145.5 80.3 98.4 79 98.4 79 146.3 79"/>
          <polygon class="cls-1" points="285.1 79 299.8 86.1 285.9 80.3 285.9 80.3 285.1 79"/>
          <polygon class="cls-1" points="264.6 79 263.8 80.3 229.3 79 229.3 79 264.6 79"/>
          <polygon class="cls-1" points="97.4 77.9 146.3 79 98.4 79 98.4 79 97.4 77.9"/>
          <polygon class="cls-1" points="78.7 77.9 77.8 79 60.3 86.1 60.3 86.1 78.7 77.9"/>
          <polygon class="cls-1" points="147.3 77.9 146.3 79 97.4 77.9 97.4 77.9 147.3 77.9"/>
          <polygon class="cls-1" points="209.7 77.9 208.8 79 200.5 81.7 200.5 81.7 209.7 77.9"/>
          <polygon class="cls-1" points="166 77.9 187.5 81.7 166.9 79 166.9 79 166 77.9"/>
          <polygon class="cls-1" points="228.4 77.9 264.6 79 229.3 79 229.3 79 228.4 77.9"/>
          <polygon class="cls-1" points="284.2 77.9 299.8 86.1 285.1 79 285.1 79 284.2 77.9"/>
          <polygon class="cls-1" points="265.5 77.9 264.6 79 228.4 77.9 228.4 77.9 265.5 77.9"/>
          <polygon class="cls-1" points="96.3 76.9 147.3 77.9 97.4 77.9 97.4 77.9 96.3 76.9"/>
          <polygon class="cls-1" points="79.8 76.9 78.7 77.9 60.3 86.1 60.3 86.1 79.8 76.9"/>
          <polygon class="cls-1" points="148.3 76.9 147.3 77.9 96.3 76.9 96.3 76.9 148.3 76.9"/>
          <polygon class="cls-1" points="210.8 76.9 209.7 77.9 200.5 81.7 200.5 81.7 210.8 76.9"/>
          <polygon class="cls-1" points="164.9 76.9 187.5 81.7 166 77.9 166 77.9 164.9 76.9"/>
          <polygon class="cls-1" points="227.3 76.9 265.5 77.9 228.4 77.9 228.4 77.9 227.3 76.9"/>
          <polygon class="cls-1" points="283.1 76.9 299.8 86.1 284.2 77.9 284.2 77.9 283.1 76.9"/>
          <polygon class="cls-1" points="266.6 76.9 265.5 77.9 227.3 76.9 227.3 76.9 266.6 76.9"/>
          <polygon class="cls-1" points="118 76 148.3 76.9 96.3 76.9 96.3 76.9 118 76"/>
          <polygon class="cls-1" points="96.3 76.9 99 76 118 76 118 76 96.3 76.9"/>
          <polygon class="cls-1" points="95.1 75.9 99 76 96.3 76.9 96.3 76.9 95.1 75.9"/>
          <polygon class="cls-1" points="81 75.9 79.8 76.9 60.3 86.1 60.3 86.1 81 75.9"/>
          <polygon class="cls-1" points="226.1 75.9 266.6 76.9 227.3 76.9 227.3 76.9 226.1 75.9"/>
          <polygon class="cls-1" points="163.7 75.9 187.5 81.7 164.9 76.9 164.9 76.9 163.7 75.9"/>
          <polygon class="cls-1" points="149.6 75.9 148.3 76.9 118 76 118 76 149.6 75.9"/>
          <polygon class="cls-1" points="212 75.9 210.8 76.9 200.5 81.7 200.5 81.7 212 75.9"/>
          <polygon class="cls-1" points="281.9 75.9 299.8 86.1 283.1 76.9 283.1 76.9 281.9 75.9"/>
          <polygon class="cls-1" points="267.8 75.9 266.6 76.9 226.1 75.9 226.1 75.9 267.8 75.9"/>
          <polygon class="cls-1" points="93.8 75.1 99 76 95.1 75.9 95.1 75.9 93.8 75.1"/>
          <polygon class="cls-1" points="82.3 75.1 81 75.9 60.3 86.1 60.3 86.1 82.3 75.1"/>
          <polygon class="cls-1" points="162.4 75.1 187.5 81.7 163.7 75.9 163.7 75.9 162.4 75.1"/>
          <polygon class="cls-1" points="224.8 75.1 267.8 75.9 226.1 75.9 226.1 75.9 224.8 75.1"/>
          <polygon class="cls-1" points="150.9 75.1 149.6 75.9 118 76 118 76 150.9 75.1"/>
          <polygon class="cls-1" points="213.3 75.1 212 75.9 200.5 81.7 200.5 81.7 213.3 75.1"/>
          <polygon class="cls-1" points="269.1 75.1 267.8 75.9 224.8 75.1 224.8 75.1 269.1 75.1"/>
          <polygon class="cls-1" points="280.6 75.1 299.8 86.1 281.9 75.9 281.9 75.9 280.6 75.1"/>
          <polygon class="cls-1" points="92.5 74.6 99 76 93.8 75.1 93.8 75.1 92.5 74.6"/>
          <polygon class="cls-1" points="152.2 74.6 150.9 75.1 118 76 118 76 152.2 74.6"/>
          <polygon class="cls-1" points="161 74.6 187.5 81.7 162.4 75.1 162.4 75.1 161 74.6"/>
          <polygon class="cls-1" points="223.4 74.6 269.1 75.1 224.8 75.1 224.8 75.1 223.4 74.6"/>
          <polygon class="cls-1" points="270.5 74.6 269.1 75.1 223.4 74.6 223.4 74.6 270.5 74.6"/>
          <polygon class="cls-1" points="91 74.1 99 76 92.5 74.6 92.5 74.6 91 74.1"/>
          <polygon class="cls-1" points="222 74.1 270.5 74.6 223.4 74.6 223.4 74.6 222 74.1"/>
          <polygon class="cls-1" points="159.6 74.1 187.5 81.7 161 74.6 161 74.6 159.6 74.1"/>
          <polygon class="cls-1" points="153.7 74.1 152.2 74.6 118 76 118 76 153.7 74.1"/>
          <polygon class="cls-1" points="271.9 74.1 270.5 74.6 222 74.1 222 74.1 271.9 74.1"/>
          <polygon class="cls-1" points="220.6 73.8 271.9 74.1 222 74.1 222 74.1 220.6 73.8"/>
          <polygon class="cls-1" points="155.1 73.8 153.7 74.1 118 76 118 76 155.1 73.8"/>
          <polygon class="cls-1" points="273.3 73.8 271.9 74.1 220.6 73.8 220.6 73.8 273.3 73.8"/>
          <polygon class="cls-1" points="156.6 73.8 155.1 73.8 118 76 118 76 156.6 73.8"/>
          <polygon class="cls-1" points="219.1 73.8 273.3 73.8 220.6 73.8 220.6 73.8 219.1 73.8"/>
          <polygon class="cls-1" points="274.9 73.8 273.3 73.8 219.1 73.8 219.1 73.8 274.9 73.8"/>
          <polygon class="cls-1" points="118 72.3 156.6 73.8 118 76 118 76 118 72.3"/>
          <polygon class="cls-1" points="60.3 64.8 88.1 73.8 86.6 73.8 86.6 73.8 60.3 64.8"/>
          <polygon class="cls-1" points="60.3 64.8 86.6 73.8 85.1 74.1 85.1 74.1 60.3 64.8"/>
          <polygon class="cls-1" points="60.3 64.8 85.1 74.1 83.6 74.6 83.6 74.6 60.3 64.8"/>
          <polygon class="cls-1" points="60.3 64.8 83.6 74.6 82.3 75.1 82.3 75.1 60.3 64.8"/>
          <polygon class="cls-1" points="60.3 64.8 82.3 75.1 60.3 86.1 60.3 86.1 60.3 64.8"/>
          <polygon class="cls-1" points="67.4 64.4 88.1 73.8 60.3 64.8 60.3 64.8 67.4 64.4"/>
          <polygon class="cls-1" points="67.4 64.4 89.5 73.8 88.1 73.8 88.1 73.8 67.4 64.4"/>
          <polygon class="cls-1" points="67.4 64.4 91 74.1 89.5 73.8 89.5 73.8 67.4 64.4"/>
          <polygon class="cls-1" points="67.4 64.4 99 76 91 74.1 91 74.1 67.4 64.4"/>
          <polygon class="cls-1" points="99 76 67.4 64.4 90.1 64.4 90.1 64.4 99 76"/>
          <polygon class="cls-1" points="90.1 48.6 99 76 90.1 64.4 90.1 64.4 90.1 48.6"/>
          <polygon class="cls-1" points="72.5 48.6 67.4 64.4 60.3 64.8 60.3 64.8 72.5 48.6"/>
          <polygon class="cls-1" points="68.3 42.3 72.5 48.6 60.3 64.8 60.3 64.8 68.3 42.3"/>
          <polygon class="cls-1" points="99 42.3 72.5 48.6 68.3 42.3 68.3 42.3 99 42.3"/>
          <polygon class="cls-1" points="99 42.3 90.1 48.6 72.5 48.6 72.5 48.6 99 42.3"/>
          <polygon class="cls-1" points="99 42.3 99 76 90.1 48.6 90.1 48.6 99 42.3"/>
          <polygon class="cls-1" points="106.5 30.1 118 72.3 106.5 72.3 106.5 72.3 106.5 30.1"/>
          <polygon class="cls-1" points="118 72.3 106.5 30.1 187.5 30.1 187.5 30.1 118 72.3"/>
          <polygon class="cls-1" points="187.5 30.1 156.6 73.8 118 72.3 118 72.3 187.5 30.1"/>
          <polygon class="cls-1" points="187.5 30.1 158.1 73.8 156.6 73.8 156.6 73.8 187.5 30.1"/>
          <polygon class="cls-1" points="187.5 30.1 159.6 74.1 158.1 73.8 158.1 73.8 187.5 30.1"/>
          <polygon class="cls-1" points="187.5 30.1 187.5 81.7 159.6 74.1 159.6 74.1 187.5 30.1"/>
          <polygon class="cls-1" points="200.5 30.1 274.9 73.8 219.1 73.8 219.1 73.8 200.5 30.1"/>
          <polygon class="cls-1" points="200.5 30.1 219.1 73.8 217.5 73.8 217.5 73.8 200.5 30.1"/>
          <polygon class="cls-1" points="200.5 30.1 217.5 73.8 216.1 74.1 216.1 74.1 200.5 30.1"/>
          <polygon class="cls-1" points="200.5 30.1 216.1 74.1 214.7 74.6 214.7 74.6 200.5 30.1"/>
          <polygon class="cls-1" points="200.5 30.1 214.7 74.6 213.3 75.1 213.3 75.1 200.5 30.1"/>
          <polygon class="cls-1" points="200.5 30.1 213.3 75.1 200.5 81.7 200.5 81.7 200.5 30.1"/>
          <polygon class="cls-1" points="274.9 73.8 200.5 30.1 299.8 30.1 299.8 30.1 274.9 73.8"/>
          <polygon class="cls-1" points="299.8 30.1 276.4 73.8 274.9 73.8 274.9 73.8 299.8 30.1"/>
          <polygon class="cls-1" points="299.8 30.1 277.8 74.1 276.4 73.8 276.4 73.8 299.8 30.1"/>
          <polygon class="cls-1" points="299.8 30.1 279.2 74.6 277.8 74.1 277.8 74.1 299.8 30.1"/>
          <polygon class="cls-1" points="299.8 30.1 280.6 75.1 279.2 74.6 279.2 74.6 299.8 30.1"/>
          <polygon class="cls-1" points="299.8 30.1 299.8 86.1 280.6 75.1 280.6 75.1 299.8 30.1"/>
        </g>
        <g>
          <polygon class="cls-1" points="97.5 86.4 97.4 85.2 97.4 87.6 97.4 87.6 97.5 86.4"/>
          <polygon class="cls-1" points="97.2 83.9 97.4 87.6 97.4 85.2 97.4 85.2 97.2 83.9"/>
          <polygon class="cls-1" points="97.4 87.6 97.2 83.9 97.2 88.8 97.2 88.8 97.4 87.6"/>
          <polygon class="cls-1" points="96.7 82.7 97.2 88.8 97.2 83.9 97.2 83.9 96.7 82.7"/>
          <polygon class="cls-1" points="97.2 88.8 96.7 82.7 96.7 90 96.7 90 97.2 88.8"/>
          <polygon class="cls-1" points="96.2 81.6 96.7 90 96.7 82.7 96.7 82.7 96.2 81.6"/>
          <polygon class="cls-1" points="96.7 90 96.2 81.6 96.2 91.2 96.2 91.2 96.7 90"/>
          <polygon class="cls-1" points="95.5 80.5 96.2 91.2 96.2 81.6 96.2 81.6 95.5 80.5"/>
          <polygon class="cls-1" points="96.2 91.2 95.5 80.5 95.5 92.2 95.5 92.2 96.2 91.2"/>
          <polygon class="cls-1" points="94.7 79.6 95.5 92.2 95.5 80.5 95.5 80.5 94.7 79.6"/>
          <polygon class="cls-1" points="95.5 92.2 94.7 79.6 94.7 93.1 94.7 93.1 95.5 92.2"/>
          <polygon class="cls-1" points="93.8 78.7 94.7 93.1 94.7 79.6 94.7 79.6 93.8 78.7"/>
          <polygon class="cls-1" points="94.7 93.1 93.8 78.7 93.8 94 93.8 94 94.7 93.1"/>
          <polygon class="cls-1" points="92.7 78.1 93.8 94 93.8 78.7 93.8 78.7 92.7 78.1"/>
          <polygon class="cls-1" points="93.8 94 92.7 78.1 92.7 94.7 92.7 94.7 93.8 94"/>
          <polygon class="cls-1" points="91.5 77.5 92.7 94.7 92.7 78.1 92.7 78.1 91.5 77.5"/>
          <polygon class="cls-1" points="92.7 94.7 91.5 77.5 91.5 95.2 91.5 95.2 92.7 94.7"/>
          <polygon class="cls-1" points="90.4 77.1 91.5 95.2 91.5 77.5 91.5 77.5 90.4 77.1"/>
          <polygon class="cls-1" points="91.5 95.2 90.4 77.1 90.4 95.7 90.4 95.7 91.5 95.2"/>
          <polygon class="cls-1" points="89.2 76.9 90.4 95.7 90.4 77.1 90.4 77.1 89.2 76.9"/>
          <polygon class="cls-1" points="90.4 95.7 89.2 76.9 89.2 95.9 89.2 95.9 90.4 95.7"/>
          <polygon class="cls-1" points="87.9 76.8 89.2 95.9 89.2 76.9 89.2 76.9 87.9 76.8"/>
          <polygon class="cls-1" points="89.2 95.9 87.9 76.8 87.9 96 87.9 96 89.2 95.9"/>
          <polygon class="cls-1" points="86.6 76.9 87.9 96 87.9 76.8 87.9 76.8 86.6 76.9"/>
          <polygon class="cls-1" points="87.9 96 86.6 76.9 86.6 95.9 86.6 95.9 87.9 96"/>
          <polygon class="cls-1" points="85.4 77.1 86.6 95.9 86.6 76.9 86.6 76.9 85.4 77.1"/>
          <polygon class="cls-1" points="86.6 95.9 85.4 77.1 85.4 95.7 85.4 95.7 86.6 95.9"/>
          <polygon class="cls-1" points="84.2 77.5 85.4 95.7 85.4 77.1 85.4 77.1 84.2 77.5"/>
          <polygon class="cls-1" points="85.4 95.7 84.2 77.5 84.2 95.2 84.2 95.2 85.4 95.7"/>
          <polygon class="cls-1" points="83.1 78.1 84.2 95.2 84.2 77.5 84.2 77.5 83.1 78.1"/>
          <polygon class="cls-1" points="84.2 95.2 83.1 78.1 83.1 94.7 83.1 94.7 84.2 95.2"/>
          <polygon class="cls-1" points="82 78.7 83.1 94.7 83.1 78.1 83.1 78.1 82 78.7"/>
          <polygon class="cls-1" points="83.1 94.7 82 78.7 82 94 82 94 83.1 94.7"/>
          <polygon class="cls-1" points="81.1 79.6 82 94 82 78.7 82 78.7 81.1 79.6"/>
          <polygon class="cls-1" points="82 94 81.1 79.6 81.1 93.1 81.1 93.1 82 94"/>
          <polygon class="cls-1" points="80.3 80.5 81.1 93.1 81.1 79.6 81.1 79.6 80.3 80.5"/>
          <polygon class="cls-1" points="81.1 93.1 80.3 80.5 80.3 92.2 80.3 92.2 81.1 93.1"/>
          <polygon class="cls-1" points="79.6 81.6 80.3 92.2 80.3 80.5 80.3 80.5 79.6 81.6"/>
          <polygon class="cls-1" points="80.3 92.2 79.6 81.6 79.6 91.2 79.6 91.2 80.3 92.2"/>
          <polygon class="cls-1" points="79 82.7 79.6 91.2 79.6 81.6 79.6 81.6 79 82.7"/>
          <polygon class="cls-1" points="79.6 91.2 79 82.7 79 90 79 90 79.6 91.2"/>
          <polygon class="cls-1" points="78.7 83.9 79 90 79 82.7 79 82.7 78.7 83.9"/>
          <polygon class="cls-1" points="79 90 78.7 83.9 78.7 88.8 78.7 88.8 79 90"/>
          <polygon class="cls-1" points="78.4 85.2 78.7 88.8 78.7 83.9 78.7 83.9 78.4 85.2"/>
          <polygon class="cls-1" points="78.7 88.8 78.4 85.2 78.4 87.6 78.4 87.6 78.7 88.8"/>
          <polygon class="cls-1" points="78.3 86.4 78.4 87.6 78.4 85.2 78.4 85.2 78.3 86.4"/>
        </g>
        <g>
          <polygon class="cls-1" points="166.1 86.4 166 85.2 166 87.6 166 87.6 166.1 86.4"/>
          <polygon class="cls-1" points="165.8 83.9 166 87.6 166 85.2 166 85.2 165.8 83.9"/>
          <polygon class="cls-1" points="166 87.6 165.8 83.9 165.8 88.8 165.8 88.8 166 87.6"/>
          <polygon class="cls-1" points="165.3 82.7 165.8 88.8 165.8 83.9 165.8 83.9 165.3 82.7"/>
          <polygon class="cls-1" points="165.8 88.8 165.3 82.7 165.3 90 165.3 90 165.8 88.8"/>
          <polygon class="cls-1" points="164.8 81.6 165.3 90 165.3 82.7 165.3 82.7 164.8 81.6"/>
          <polygon class="cls-1" points="165.3 90 164.8 81.6 164.8 91.2 164.8 91.2 165.3 90"/>
          <polygon class="cls-1" points="164.1 80.5 164.8 91.2 164.8 81.6 164.8 81.6 164.1 80.5"/>
          <polygon class="cls-1" points="164.8 91.2 164.1 80.5 164.1 92.2 164.1 92.2 164.8 91.2"/>
          <polygon class="cls-1" points="163.3 79.6 164.1 92.2 164.1 80.5 164.1 80.5 163.3 79.6"/>
          <polygon class="cls-1" points="164.1 92.2 163.3 79.6 163.3 93.1 163.3 93.1 164.1 92.2"/>
          <polygon class="cls-1" points="162.3 78.7 163.3 93.1 163.3 79.6 163.3 79.6 162.3 78.7"/>
          <polygon class="cls-1" points="163.3 93.1 162.3 78.7 162.3 94 162.3 94 163.3 93.1"/>
          <polygon class="cls-1" points="161.3 78.1 162.3 94 162.3 78.7 162.3 78.7 161.3 78.1"/>
          <polygon class="cls-1" points="162.3 94 161.3 78.1 161.3 94.7 161.3 94.7 162.3 94"/>
          <polygon class="cls-1" points="160.2 77.5 161.3 94.7 161.3 78.1 161.3 78.1 160.2 77.5"/>
          <polygon class="cls-1" points="161.3 94.7 160.2 77.5 160.2 95.2 160.2 95.2 161.3 94.7"/>
          <polygon class="cls-1" points="158.9 77.1 160.2 95.2 160.2 77.5 160.2 77.5 158.9 77.1"/>
          <polygon class="cls-1" points="160.2 95.2 158.9 77.1 158.9 95.7 158.9 95.7 160.2 95.2"/>
          <polygon class="cls-1" points="157.7 76.9 158.9 95.7 158.9 77.1 158.9 77.1 157.7 76.9"/>
          <polygon class="cls-1" points="158.9 95.7 157.7 76.9 157.7 95.9 157.7 95.9 158.9 95.7"/>
          <polygon class="cls-1" points="156.5 76.8 157.7 95.9 157.7 76.9 157.7 76.9 156.5 76.8"/>
          <polygon class="cls-1" points="157.7 95.9 156.5 76.8 156.5 96 156.5 96 157.7 95.9"/>
          <polygon class="cls-1" points="155.3 76.9 156.5 96 156.5 76.8 156.5 76.8 155.3 76.9"/>
          <polygon class="cls-1" points="156.5 96 155.3 76.9 155.3 95.9 155.3 95.9 156.5 96"/>
          <polygon class="cls-1" points="154 77.1 155.3 95.9 155.3 76.9 155.3 76.9 154 77.1"/>
          <polygon class="cls-1" points="155.3 95.9 154 77.1 154 95.7 154 95.7 155.3 95.9"/>
          <polygon class="cls-1" points="152.8 77.5 154 95.7 154 77.1 154 77.1 152.8 77.5"/>
          <polygon class="cls-1" points="154 95.7 152.8 77.5 152.8 95.2 152.8 95.2 154 95.7"/>
          <polygon class="cls-1" points="151.7 78.1 152.8 95.2 152.8 77.5 152.8 77.5 151.7 78.1"/>
          <polygon class="cls-1" points="152.8 95.2 151.7 78.1 151.7 94.7 151.7 94.7 152.8 95.2"/>
          <polygon class="cls-1" points="150.7 78.7 151.7 94.7 151.7 78.1 151.7 78.1 150.7 78.7"/>
          <polygon class="cls-1" points="151.7 94.7 150.7 78.7 150.7 94 150.7 94 151.7 94.7"/>
          <polygon class="cls-1" points="149.7 79.6 150.7 94 150.7 78.7 150.7 78.7 149.7 79.6"/>
          <polygon class="cls-1" points="150.7 94 149.7 79.6 149.7 93.1 149.7 93.1 150.7 94"/>
          <polygon class="cls-1" points="148.9 80.5 149.7 93.1 149.7 79.6 149.7 79.6 148.9 80.5"/>
          <polygon class="cls-1" points="149.7 93.1 148.9 80.5 148.9 92.2 148.9 92.2 149.7 93.1"/>
          <polygon class="cls-1" points="148.2 81.6 148.9 92.2 148.9 80.5 148.9 80.5 148.2 81.6"/>
          <polygon class="cls-1" points="148.9 92.2 148.2 81.6 148.2 91.2 148.2 91.2 148.9 92.2"/>
          <polygon class="cls-1" points="147.6 82.7 148.2 91.2 148.2 81.6 148.2 81.6 147.6 82.7"/>
          <polygon class="cls-1" points="148.2 91.2 147.6 82.7 147.6 90 147.6 90 148.2 91.2"/>
          <polygon class="cls-1" points="147.2 83.9 147.6 90 147.6 82.7 147.6 82.7 147.2 83.9"/>
          <polygon class="cls-1" points="147.6 90 147.2 83.9 147.2 88.8 147.2 88.8 147.6 90"/>
          <polygon class="cls-1" points="147 85.2 147.2 88.8 147.2 83.9 147.2 83.9 147 85.2"/>
          <polygon class="cls-1" points="147.2 88.8 147 85.2 147 87.6 147 87.6 147.2 88.8"/>
          <polygon class="cls-1" points="146.9 86.4 147 87.6 147 85.2 147 85.2 146.9 86.4"/>
        </g>
        <g>
          <polygon class="cls-1" points="209.5 86.1 209.5 87.3 209.5 84.9 209.5 84.9 209.5 86.1"/>
          <polygon class="cls-1" points="209.8 88.6 209.5 84.9 209.5 87.3 209.5 87.3 209.8 88.6"/>
          <polygon class="cls-1" points="209.5 84.9 209.8 88.6 209.8 83.6 209.8 83.6 209.5 84.9"/>
          <polygon class="cls-1" points="210.2 89.8 209.8 83.6 209.8 88.6 209.8 88.6 210.2 89.8"/>
          <polygon class="cls-1" points="209.8 83.6 210.2 89.8 210.2 82.4 210.2 82.4 209.8 83.6"/>
          <polygon class="cls-1" points="210.8 90.9 210.2 82.4 210.2 89.8 210.2 89.8 210.8 90.9"/>
          <polygon class="cls-1" points="210.2 82.4 210.8 90.9 210.8 81.3 210.8 81.3 210.2 82.4"/>
          <polygon class="cls-1" points="211.4 91.9 210.8 81.3 210.8 90.9 210.8 90.9 211.4 91.9"/>
          <polygon class="cls-1" points="210.8 81.3 211.4 91.9 211.4 80.3 211.4 80.3 210.8 81.3"/>
          <polygon class="cls-1" points="212.3 92.9 211.4 80.3 211.4 91.9 211.4 91.9 212.3 92.9"/>
          <polygon class="cls-1" points="211.4 80.3 212.3 92.9 212.3 79.3 212.3 79.3 211.4 80.3"/>
          <polygon class="cls-1" points="213.2 93.7 212.3 79.3 212.3 92.9 212.3 92.9 213.2 93.7"/>
          <polygon class="cls-1" points="212.3 79.3 213.2 93.7 213.2 78.5 213.2 78.5 212.3 79.3"/>
          <polygon class="cls-1" points="214.2 94.4 213.2 78.5 213.2 93.7 213.2 93.7 214.2 94.4"/>
          <polygon class="cls-1" points="213.2 78.5 214.2 94.4 214.2 77.8 214.2 77.8 213.2 78.5"/>
          <polygon class="cls-1" points="215.4 94.9 214.2 77.8 214.2 94.4 214.2 94.4 215.4 94.9"/>
          <polygon class="cls-1" points="214.2 77.8 215.4 94.9 215.4 77.2 215.4 77.2 214.2 77.8"/>
          <polygon class="cls-1" points="216.6 95.4 215.4 77.2 215.4 94.9 215.4 94.9 216.6 95.4"/>
          <polygon class="cls-1" points="215.4 77.2 216.6 95.4 216.6 76.8 216.6 76.8 215.4 77.2"/>
          <polygon class="cls-1" points="217.8 95.6 216.6 76.8 216.6 95.4 216.6 95.4 217.8 95.6"/>
          <polygon class="cls-1" points="216.6 76.8 217.8 95.6 217.8 76.6 217.8 76.6 216.6 76.8"/>
          <polygon class="cls-1" points="219.1 95.7 217.8 76.6 217.8 95.6 217.8 95.6 219.1 95.7"/>
          <polygon class="cls-1" points="217.8 76.6 219.1 95.7 219.1 76.5 219.1 76.5 217.8 76.6"/>
          <polygon class="cls-1" points="220.3 95.6 219.1 76.5 219.1 95.7 219.1 95.7 220.3 95.6"/>
          <polygon class="cls-1" points="219.1 76.5 220.3 95.6 220.3 76.6 220.3 76.6 219.1 76.5"/>
          <polygon class="cls-1" points="221.6 95.4 220.3 76.6 220.3 95.6 220.3 95.6 221.6 95.4"/>
          <polygon class="cls-1" points="220.3 76.6 221.6 95.4 221.6 76.8 221.6 76.8 220.3 76.6"/>
          <polygon class="cls-1" points="222.7 94.9 221.6 76.8 221.6 95.4 221.6 95.4 222.7 94.9"/>
          <polygon class="cls-1" points="221.6 76.8 222.7 94.9 222.7 77.2 222.7 77.2 221.6 76.8"/>
          <polygon class="cls-1" points="223.9 94.4 222.7 77.2 222.7 94.9 222.7 94.9 223.9 94.4"/>
          <polygon class="cls-1" points="222.7 77.2 223.9 94.4 223.9 77.8 223.9 77.8 222.7 77.2"/>
          <polygon class="cls-1" points="224.9 93.7 223.9 77.8 223.9 94.4 223.9 94.4 224.9 93.7"/>
          <polygon class="cls-1" points="223.9 77.8 224.9 93.7 224.9 78.5 224.9 78.5 223.9 77.8"/>
          <polygon class="cls-1" points="225.8 92.9 224.9 78.5 224.9 93.7 224.9 93.7 225.8 92.9"/>
          <polygon class="cls-1" points="224.9 78.5 225.8 92.9 225.8 79.3 225.8 79.3 224.9 78.5"/>
          <polygon class="cls-1" points="226.7 91.9 225.8 79.3 225.8 92.9 225.8 92.9 226.7 91.9"/>
          <polygon class="cls-1" points="225.8 79.3 226.7 91.9 226.7 80.3 226.7 80.3 225.8 79.3"/>
          <polygon class="cls-1" points="227.3 90.9 226.7 80.3 226.7 91.9 226.7 91.9 227.3 90.9"/>
          <polygon class="cls-1" points="226.7 80.3 227.3 90.9 227.3 81.3 227.3 81.3 226.7 80.3"/>
          <polygon class="cls-1" points="227.9 89.8 227.3 81.3 227.3 90.9 227.3 90.9 227.9 89.8"/>
          <polygon class="cls-1" points="227.3 81.3 227.9 89.8 227.9 82.4 227.9 82.4 227.3 81.3"/>
          <polygon class="cls-1" points="228.3 88.6 227.9 82.4 227.9 89.8 227.9 89.8 228.3 88.6"/>
          <polygon class="cls-1" points="227.9 82.4 228.3 88.6 228.3 83.6 228.3 83.6 227.9 82.4"/>
          <polygon class="cls-1" points="228.6 87.3 228.3 83.6 228.3 88.6 228.3 88.6 228.6 87.3"/>
          <polygon class="cls-1" points="228.3 83.6 228.6 87.3 228.6 84.9 228.6 84.9 228.3 83.6"/>
          <polygon class="cls-1" points="228.6 86.1 228.6 84.9 228.6 87.3 228.6 87.3 228.6 86.1"/>
        </g>
        <g>
          <polygon class="cls-1" points="284.4 86.1 284.3 84.9 284.3 87.3 284.3 87.3 284.4 86.1"/>
          <polygon class="cls-1" points="284.1 83.6 284.3 87.3 284.3 84.9 284.3 84.9 284.1 83.6"/>
          <polygon class="cls-1" points="284.3 87.3 284.1 83.6 284.1 88.6 284.1 88.6 284.3 87.3"/>
          <polygon class="cls-1" points="283.6 82.4 284.1 88.6 284.1 83.6 284.1 83.6 283.6 82.4"/>
          <polygon class="cls-1" points="284.1 88.6 283.6 82.4 283.6 89.8 283.6 89.8 284.1 88.6"/>
          <polygon class="cls-1" points="283.1 81.3 283.6 89.8 283.6 82.4 283.6 82.4 283.1 81.3"/>
          <polygon class="cls-1" points="283.6 89.8 283.1 81.3 283.1 90.9 283.1 90.9 283.6 89.8"/>
          <polygon class="cls-1" points="282.4 80.3 283.1 90.9 283.1 81.3 283.1 81.3 282.4 80.3"/>
          <polygon class="cls-1" points="283.1 90.9 282.4 80.3 282.4 91.9 282.4 91.9 283.1 90.9"/>
          <polygon class="cls-1" points="281.5 79.3 282.4 91.9 282.4 80.3 282.4 80.3 281.5 79.3"/>
          <polygon class="cls-1" points="282.4 91.9 281.5 79.3 281.5 92.9 281.5 92.9 282.4 91.9"/>
          <polygon class="cls-1" points="280.6 78.5 281.5 92.9 281.5 79.3 281.5 79.3 280.6 78.5"/>
          <polygon class="cls-1" points="281.5 92.9 280.6 78.5 280.6 93.7 280.6 93.7 281.5 92.9"/>
          <polygon class="cls-1" points="279.5 77.8 280.6 93.7 280.6 78.5 280.6 78.5 279.5 77.8"/>
          <polygon class="cls-1" points="280.6 93.7 279.5 77.8 279.5 94.4 279.5 94.4 280.6 93.7"/>
          <polygon class="cls-1" points="278.5 77.2 279.5 94.4 279.5 77.8 279.5 77.8 278.5 77.2"/>
          <polygon class="cls-1" points="279.5 94.4 278.5 77.2 278.5 94.9 278.5 94.9 279.5 94.4"/>
          <polygon class="cls-1" points="277.2 76.8 278.5 94.9 278.5 77.2 278.5 77.2 277.2 76.8"/>
          <polygon class="cls-1" points="278.5 94.9 277.2 76.8 277.2 95.4 277.2 95.4 278.5 94.9"/>
          <polygon class="cls-1" points="276 76.6 277.2 95.4 277.2 76.8 277.2 76.8 276 76.6"/>
          <polygon class="cls-1" points="277.2 95.4 276 76.6 276 95.6 276 95.6 277.2 95.4"/>
          <polygon class="cls-1" points="274.8 76.5 276 95.6 276 76.6 276 76.6 274.8 76.5"/>
          <polygon class="cls-1" points="276 95.6 274.8 76.5 274.8 95.7 274.8 95.7 276 95.6"/>
          <polygon class="cls-1" points="273.6 76.6 274.8 95.7 274.8 76.5 274.8 76.5 273.6 76.6"/>
          <polygon class="cls-1" points="274.8 95.7 273.6 76.6 273.6 95.6 273.6 95.6 274.8 95.7"/>
          <polygon class="cls-1" points="272.3 76.8 273.6 95.6 273.6 76.6 273.6 76.6 272.3 76.8"/>
          <polygon class="cls-1" points="273.6 95.6 272.3 76.8 272.3 95.4 272.3 95.4 273.6 95.6"/>
          <polygon class="cls-1" points="271.1 77.2 272.3 95.4 272.3 76.8 272.3 76.8 271.1 77.2"/>
          <polygon class="cls-1" points="272.3 95.4 271.1 77.2 271.1 94.9 271.1 94.9 272.3 95.4"/>
          <polygon class="cls-1" points="270 77.8 271.1 94.9 271.1 77.2 271.1 77.2 270 77.8"/>
          <polygon class="cls-1" points="271.1 94.9 270 77.8 270 94.4 270 94.4 271.1 94.9"/>
          <polygon class="cls-1" points="268.9 78.5 270 94.4 270 77.8 270 77.8 268.9 78.5"/>
          <polygon class="cls-1" points="270 94.4 268.9 78.5 268.9 93.7 268.9 93.7 270 94.4"/>
          <polygon class="cls-1" points="268 79.3 268.9 93.7 268.9 78.5 268.9 78.5 268 79.3"/>
          <polygon class="cls-1" points="268.9 93.7 268 79.3 268 92.9 268 92.9 268.9 93.7"/>
          <polygon class="cls-1" points="267.1 80.3 268 92.9 268 79.3 268 79.3 267.1 80.3"/>
          <polygon class="cls-1" points="268 92.9 267.1 80.3 267.1 91.9 267.1 91.9 268 92.9"/>
          <polygon class="cls-1" points="266.5 81.3 267.1 91.9 267.1 80.3 267.1 80.3 266.5 81.3"/>
          <polygon class="cls-1" points="267.1 91.9 266.5 81.3 266.5 90.9 266.5 90.9 267.1 91.9"/>
          <polygon class="cls-1" points="265.9 82.4 266.5 90.9 266.5 81.3 266.5 81.3 265.9 82.4"/>
          <polygon class="cls-1" points="266.5 90.9 265.9 82.4 265.9 89.8 265.9 89.8 266.5 90.9"/>
          <polygon class="cls-1" points="265.5 83.6 265.9 89.8 265.9 82.4 265.9 82.4 265.5 83.6"/>
          <polygon class="cls-1" points="265.9 89.8 265.5 83.6 265.5 88.6 265.5 88.6 265.9 89.8"/>
          <polygon class="cls-1" points="265.3 84.9 265.5 88.6 265.5 83.6 265.5 83.6 265.3 84.9"/>
          <polygon class="cls-1" points="265.5 88.6 265.3 84.9 265.3 87.3 265.3 87.3 265.5 88.6"/>
          <polygon class="cls-1" points="265.2 86.1 265.3 87.3 265.3 84.9 265.3 84.9 265.2 86.1"/>
        </g>
        <g>
          <polygon class="cls-2" points="343.3 111 18.4 111.1 342 111.1 342 111.1 343.3 111"/>
          <polygon class="cls-2" points="17.1 111 18.4 111.1 343.3 111 343.3 111 17.1 111"/>
          <polygon class="cls-2" points="344.5 110.7 17.1 111 343.3 111 343.3 111 344.5 110.7"/>
          <polygon class="cls-2" points="15.9 110.7 17.1 111 344.5 110.7 344.5 110.7 15.9 110.7"/>
          <polygon class="cls-2" points="345.7 110.3 15.9 110.7 344.5 110.7 344.5 110.7 345.7 110.3"/>
          <polygon class="cls-2" points="14.6 110.3 15.9 110.7 345.7 110.3 345.7 110.3 14.6 110.3"/>
          <polygon class="cls-2" points="346.8 109.6 14.6 110.3 345.7 110.3 345.7 110.3 346.8 109.6"/>
          <polygon class="cls-2" points="13.5 109.6 14.6 110.3 346.8 109.6 346.8 109.6 13.5 109.6"/>
          <polygon class="cls-2" points="347.9 108.9 13.5 109.6 346.8 109.6 346.8 109.6 347.9 108.9"/>
          <polygon class="cls-2" points="12.5 108.9 13.5 109.6 347.9 108.9 347.9 108.9 12.5 108.9"/>
          <polygon class="cls-2" points="348.7 108 12.5 108.9 347.9 108.9 347.9 108.9 348.7 108"/>
          <polygon class="cls-2" points="11.5 108 12.5 108.9 348.7 108 348.7 108 11.5 108"/>
          <polygon class="cls-2" points="349.5 107 11.5 108 348.7 108 348.7 108 349.5 107"/>
          <polygon class="cls-2" points="10.8 107 11.5 108 349.5 107 349.5 107 10.8 107"/>
          <polygon class="cls-2" points="350.1 105.8 10.8 107 349.5 107 349.5 107 350.1 105.8"/>
          <polygon class="cls-2" points="10.2 105.8 10.8 107 350.1 105.8 350.1 105.8 10.2 105.8"/>
          <polygon class="cls-2" points="350.6 104.6 10.2 105.8 350.1 105.8 350.1 105.8 350.6 104.6"/>
          <polygon class="cls-2" points="9.7 104.6 10.2 105.8 350.6 104.6 350.6 104.6 9.7 104.6"/>
          <polygon class="cls-2" points="350.8 103.4 9.7 104.6 350.6 104.6 350.6 104.6 350.8 103.4"/>
          <polygon class="cls-2" points="9.5 103.4 9.7 104.6 350.8 103.4 350.8 103.4 9.5 103.4"/>
          <polygon class="cls-2" points="351 102.1 9.5 103.4 350.8 103.4 350.8 103.4 351 102.1"/>
          <polygon class="cls-2" points="9.4 102.1 9.5 103.4 351 102.1 351 102.1 9.4 102.1"/>
          <polygon class="cls-2" points="87.9 96 9.4 102.1 351 102.1 351 102.1 87.9 96"/>
          <polygon class="cls-2" points="156.5 96 87.9 96 351 102.1 351 102.1 156.5 96"/>
          <polygon class="cls-2" points="155.3 95.9 87.9 96 156.5 96 156.5 96 155.3 95.9"/>
          <polygon class="cls-2" points="86.6 95.9 9.4 102.1 87.9 96 87.9 96 86.6 95.9"/>
          <polygon class="cls-2" points="89.2 95.9 87.9 96 155.3 95.9 155.3 95.9 89.2 95.9"/>
          <polygon class="cls-2" points="157.7 95.9 156.5 96 351 102.1 351 102.1 157.7 95.9"/>
          <polygon class="cls-2" points="274.8 95.7 157.7 95.9 351 102.1 351 102.1 274.8 95.7"/>
          <polygon class="cls-2" points="219.1 95.7 157.7 95.9 274.8 95.7 274.8 95.7 219.1 95.7"/>
          <polygon class="cls-2" points="154 95.7 89.2 95.9 155.3 95.9 155.3 95.9 154 95.7"/>
          <polygon class="cls-2" points="85.4 95.7 9.4 102.1 86.6 95.9 86.6 95.9 85.4 95.7"/>
          <polygon class="cls-2" points="90.4 95.7 89.2 95.9 154 95.7 154 95.7 90.4 95.7"/>
          <polygon class="cls-2" points="158.9 95.7 157.7 95.9 219.1 95.7 219.1 95.7 158.9 95.7"/>
          <polygon class="cls-2" points="273.6 95.6 219.1 95.7 274.8 95.7 274.8 95.7 273.6 95.6"/>
          <polygon class="cls-2" points="217.8 95.6 158.9 95.7 219.1 95.7 219.1 95.7 217.8 95.6"/>
          <polygon class="cls-2" points="220.3 95.6 219.1 95.7 273.6 95.6 273.6 95.6 220.3 95.6"/>
          <polygon class="cls-2" points="276 95.6 274.8 95.7 351 102.1 351 102.1 276 95.6"/>
          <polygon class="cls-2" points="216.6 95.4 158.9 95.7 217.8 95.6 217.8 95.6 216.6 95.4"/>
          <polygon class="cls-2" points="272.3 95.4 220.3 95.6 273.6 95.6 273.6 95.6 272.3 95.4"/>
          <polygon class="cls-2" points="277.2 95.4 276 95.6 351 102.1 351 102.1 277.2 95.4"/>
          <polygon class="cls-2" points="221.6 95.4 220.3 95.6 272.3 95.4 272.3 95.4 221.6 95.4"/>
          <polygon class="cls-2" points="84.2 95.2 9.4 102.1 85.4 95.7 85.4 95.7 84.2 95.2"/>
          <polygon class="cls-2" points="152.8 95.2 90.4 95.7 154 95.7 154 95.7 152.8 95.2"/>
          <polygon class="cls-2" points="91.5 95.2 90.4 95.7 152.8 95.2 152.8 95.2 91.5 95.2"/>
          <polygon class="cls-2" points="160.2 95.2 158.9 95.7 216.6 95.4 216.6 95.4 160.2 95.2"/>
          <polygon class="cls-2" points="271.1 94.9 221.6 95.4 272.3 95.4 272.3 95.4 271.1 94.9"/>
          <polygon class="cls-2" points="215.4 94.9 160.2 95.2 216.6 95.4 216.6 95.4 215.4 94.9"/>
          <polygon class="cls-2" points="222.7 94.9 221.6 95.4 271.1 94.9 271.1 94.9 222.7 94.9"/>
          <polygon class="cls-2" points="278.5 94.9 277.2 95.4 351 102.1 351 102.1 278.5 94.9"/>
          <polygon class="cls-2" points="83.1 94.7 9.4 102.1 84.2 95.2 84.2 95.2 83.1 94.7"/>
          <polygon class="cls-2" points="151.7 94.7 91.5 95.2 152.8 95.2 152.8 95.2 151.7 94.7"/>
          <polygon class="cls-2" points="92.7 94.7 91.5 95.2 151.7 94.7 151.7 94.7 92.7 94.7"/>
          <polygon class="cls-2" points="161.3 94.7 160.2 95.2 215.4 94.9 215.4 94.9 161.3 94.7"/>
          <polygon class="cls-2" points="270 94.4 222.7 94.9 271.1 94.9 271.1 94.9 270 94.4"/>
          <polygon class="cls-2" points="214.2 94.4 161.3 94.7 215.4 94.9 215.4 94.9 214.2 94.4"/>
          <polygon class="cls-2" points="223.9 94.4 222.7 94.9 270 94.4 270 94.4 223.9 94.4"/>
          <polygon class="cls-2" points="279.5 94.4 278.5 94.9 351 102.1 351 102.1 279.5 94.4"/>
          <polygon class="cls-2" points="82 94 9.4 102.1 83.1 94.7 83.1 94.7 82 94"/>
          <polygon class="cls-2" points="150.7 94 92.7 94.7 151.7 94.7 151.7 94.7 150.7 94"/>
          <polygon class="cls-2" points="162.3 94 161.3 94.7 214.2 94.4 214.2 94.4 162.3 94"/>
          <polygon class="cls-2" points="93.8 94 92.7 94.7 150.7 94 150.7 94 93.8 94"/>
          <polygon class="cls-2" points="213.2 93.7 162.3 94 214.2 94.4 214.2 94.4 213.2 93.7"/>
          <polygon class="cls-2" points="268.9 93.7 223.9 94.4 270 94.4 270 94.4 268.9 93.7"/>
          <polygon class="cls-2" points="280.6 93.7 279.5 94.4 351 102.1 351 102.1 280.6 93.7"/>
          <polygon class="cls-2" points="224.9 93.7 223.9 94.4 268.9 93.7 268.9 93.7 224.9 93.7"/>
          <polygon class="cls-2" points="149.7 93.1 93.8 94 150.7 94 150.7 94 149.7 93.1"/>
          <polygon class="cls-2" points="81.1 93.1 9.4 102.1 82 94 82 94 81.1 93.1"/>
          <polygon class="cls-2" points="163.3 93.1 162.3 94 213.2 93.7 213.2 93.7 163.3 93.1"/>
          <polygon class="cls-2" points="94.7 93.1 93.8 94 149.7 93.1 149.7 93.1 94.7 93.1"/>
          <polygon class="cls-2" points="212.3 92.9 163.3 93.1 213.2 93.7 213.2 93.7 212.3 92.9"/>
          <polygon class="cls-2" points="268 92.9 224.9 93.7 268.9 93.7 268.9 93.7 268 92.9"/>
          <polygon class="cls-2" points="225.8 92.9 224.9 93.7 268 92.9 268 92.9 225.8 92.9"/>
          <polygon class="cls-2" points="281.5 92.9 280.6 93.7 351 102.1 351 102.1 281.5 92.9"/>
          <polygon class="cls-2" points="80.3 92.2 9.4 102.1 81.1 93.1 81.1 93.1 80.3 92.2"/>
          <polygon class="cls-2" points="148.9 92.2 94.7 93.1 149.7 93.1 149.7 93.1 148.9 92.2"/>
          <polygon class="cls-2" points="164.1 92.2 163.3 93.1 212.3 92.9 212.3 92.9 164.1 92.2"/>
          <polygon class="cls-2" points="95.5 92.2 94.7 93.1 148.9 92.2 148.9 92.2 95.5 92.2"/>
          <polygon class="cls-2" points="267.1 91.9 225.8 92.9 268 92.9 268 92.9 267.1 91.9"/>
          <polygon class="cls-2" points="211.4 91.9 164.1 92.2 212.3 92.9 212.3 92.9 211.4 91.9"/>
          <polygon class="cls-2" points="226.7 91.9 225.8 92.9 267.1 91.9 267.1 91.9 226.7 91.9"/>
          <polygon class="cls-2" points="282.4 91.9 281.5 92.9 351 102.1 351 102.1 282.4 91.9"/>
          <polygon class="cls-2" points="79.6 91.2 9.4 102.1 80.3 92.2 80.3 92.2 79.6 91.2"/>
          <polygon class="cls-2" points="148.2 91.2 95.5 92.2 148.9 92.2 148.9 92.2 148.2 91.2"/>
          <polygon class="cls-2" points="96.2 91.2 95.5 92.2 148.2 91.2 148.2 91.2 96.2 91.2"/>
          <polygon class="cls-2" points="164.8 91.2 164.1 92.2 211.4 91.9 211.4 91.9 164.8 91.2"/>
          <polygon class="cls-2" points="210.8 90.9 164.8 91.2 211.4 91.9 211.4 91.9 210.8 90.9"/>
          <polygon class="cls-2" points="266.5 90.9 226.7 91.9 267.1 91.9 267.1 91.9 266.5 90.9"/>
          <polygon class="cls-2" points="283.1 90.9 282.4 91.9 351 102.1 351 102.1 283.1 90.9"/>
          <polygon class="cls-2" points="227.3 90.9 226.7 91.9 266.5 90.9 266.5 90.9 227.3 90.9"/>
          <polygon class="cls-2" points="147.6 90 96.2 91.2 148.2 91.2 148.2 91.2 147.6 90"/>
          <polygon class="cls-2" points="79 90 9.4 102.1 79.6 91.2 79.6 91.2 79 90"/>
          <polygon class="cls-2" points="165.3 90 164.8 91.2 210.8 90.9 210.8 90.9 165.3 90"/>
          <polygon class="cls-2" points="96.7 90 96.2 91.2 147.6 90 147.6 90 96.7 90"/>
          <polygon class="cls-2" points="210.2 89.8 165.3 90 210.8 90.9 210.8 90.9 210.2 89.8"/>
          <polygon class="cls-2" points="265.9 89.8 227.3 90.9 266.5 90.9 266.5 90.9 265.9 89.8"/>
          <polygon class="cls-2" points="227.9 89.8 227.3 90.9 265.9 89.8 265.9 89.8 227.9 89.8"/>
          <polygon class="cls-2" points="283.6 89.8 283.1 90.9 351 102.1 351 102.1 283.6 89.8"/>
          <polygon class="cls-2" points="78.7 88.8 9.4 102.1 79 90 79 90 78.7 88.8"/>
          <polygon class="cls-2" points="147.2 88.8 96.7 90 147.6 90 147.6 90 147.2 88.8"/>
          <polygon class="cls-2" points="165.8 88.8 165.3 90 210.2 89.8 210.2 89.8 165.8 88.8"/>
          <polygon class="cls-2" points="97.2 88.8 96.7 90 147.2 88.8 147.2 88.8 97.2 88.8"/>
          <polygon class="cls-2" points="209.8 88.6 165.8 88.8 210.2 89.8 210.2 89.8 209.8 88.6"/>
          <polygon class="cls-2" points="265.5 88.6 227.9 89.8 265.9 89.8 265.9 89.8 265.5 88.6"/>
          <polygon class="cls-2" points="228.3 88.6 227.9 89.8 265.5 88.6 265.5 88.6 228.3 88.6"/>
          <polygon class="cls-2" points="284.1 88.6 283.6 89.8 351 102.1 351 102.1 284.1 88.6"/>
          <polygon class="cls-2" points="147 87.6 97.2 88.8 147.2 88.8 147.2 88.8 147 87.6"/>
          <polygon class="cls-2" points="78.4 87.6 9.4 102.1 78.7 88.8 78.7 88.8 78.4 87.6"/>
          <polygon class="cls-2" points="166 87.6 165.8 88.8 209.8 88.6 209.8 88.6 166 87.6"/>
          <polygon class="cls-2" points="97.4 87.6 97.2 88.8 147 87.6 147 87.6 97.4 87.6"/>
          <polygon class="cls-2" points="265.3 87.3 228.3 88.6 265.5 88.6 265.5 88.6 265.3 87.3"/>
          <polygon class="cls-2" points="209.5 87.3 166 87.6 209.8 88.6 209.8 88.6 209.5 87.3"/>
          <polygon class="cls-2" points="284.3 87.3 284.1 88.6 351 102.1 351 102.1 284.3 87.3"/>
          <polygon class="cls-2" points="228.6 87.3 228.3 88.6 265.3 87.3 265.3 87.3 228.6 87.3"/>
          <polygon class="cls-2" points="146.9 86.4 97.4 87.6 147 87.6 147 87.6 146.9 86.4"/>
          <polygon class="cls-2" points="78.3 86.4 9.4 102.1 78.4 87.6 78.4 87.6 78.3 86.4"/>
          <polygon class="cls-2" points="166.1 86.4 166 87.6 209.5 87.3 209.5 87.3 166.1 86.4"/>
          <polygon class="cls-2" points="97.5 86.4 97.4 87.6 146.9 86.4 146.9 86.4 97.5 86.4"/>
          <polygon class="cls-2" points="209.5 86.1 166.1 86.4 209.5 87.3 209.5 87.3 209.5 86.1"/>
          <polygon class="cls-2" points="265.2 86.1 228.6 87.3 265.3 87.3 265.3 87.3 265.2 86.1"/>
          <polygon class="cls-2" points="75.4 86.1 9.4 102.1 78.3 86.4 78.3 86.4 75.4 86.1"/>
          <polygon class="cls-2" points="9.4 102.1 75.4 86.1 60.3 86.1 60.3 86.1 9.4 102.1"/>
          <polygon class="cls-2" points="287.5 86.1 284.3 87.3 351 102.1 351 102.1 287.5 86.1"/>
          <polygon class="cls-2" points="262.2 86.1 228.6 87.3 265.2 86.1 265.2 86.1 262.2 86.1"/>
          <polygon class="cls-2" points="228.6 87.3 262.2 86.1 231.7 86.1 231.7 86.1 228.6 87.3"/>
          <polygon class="cls-2" points="206.5 86.1 166.1 86.4 209.5 86.1 209.5 86.1 206.5 86.1"/>
          <polygon class="cls-2" points="166.1 86.4 206.5 86.1 169.3 86.1 169.3 86.1 166.1 86.4"/>
          <polygon class="cls-2" points="100.7 86.1 97.5 86.4 146.9 86.4 146.9 86.4 100.7 86.1"/>
          <polygon class="cls-2" points="146.9 86.4 144 86.1 100.7 86.1 100.7 86.1 146.9 86.4"/>
          <polygon class="cls-2" points="228.6 86.1 228.6 87.3 231.7 86.1 231.7 86.1 228.6 86.1"/>
          <polygon class="cls-2" points="284.4 86.1 284.3 87.3 287.5 86.1 287.5 86.1 284.4 86.1"/>
          <polygon class="cls-2" points="299.8 86.1 287.5 86.1 351 102.1 351 102.1 299.8 86.1"/>
          <polygon class="cls-2" points="147 85.2 144 86.1 146.9 86.4 146.9 86.4 147 85.2"/>
          <polygon class="cls-2" points="78.4 85.2 75.4 86.1 78.3 86.4 78.3 86.4 78.4 85.2"/>
          <polygon class="cls-2" points="166 85.2 166.1 86.4 169.3 86.1 169.3 86.1 166 85.2"/>
          <polygon class="cls-2" points="97.4 85.2 97.5 86.4 100.7 86.1 100.7 86.1 97.4 85.2"/>
          <polygon class="cls-2" points="265.3 84.9 262.2 86.1 265.2 86.1 265.2 86.1 265.3 84.9"/>
          <polygon class="cls-2" points="209.5 84.9 206.5 86.1 209.5 86.1 209.5 86.1 209.5 84.9"/>
          <polygon class="cls-2" points="284.3 84.9 284.4 86.1 287.5 86.1 287.5 86.1 284.3 84.9"/>
          <polygon class="cls-2" points="228.6 84.9 228.6 86.1 231.7 86.1 231.7 86.1 228.6 84.9"/>
          <polygon class="cls-2" points="144.1 84.6 144 86.1 147 85.2 147 85.2 144.1 84.6"/>
          <polygon class="cls-2" points="206.5 84.6 206.5 86.1 209.5 84.9 209.5 84.9 206.5 84.6"/>
          <polygon class="cls-2" points="75.6 84.6 75.4 86.1 78.4 85.2 78.4 85.2 75.6 84.6"/>
          <polygon class="cls-2" points="100.5 84.6 97.4 85.2 100.7 86.1 100.7 86.1 100.5 84.6"/>
          <polygon class="cls-2" points="169.2 84.6 166 85.2 169.3 86.1 169.3 86.1 169.2 84.6"/>
          <polygon class="cls-2" points="231.6 84.6 228.6 84.9 231.7 86.1 231.7 86.1 231.6 84.6"/>
          <polygon class="cls-2" points="287.4 84.6 284.3 84.9 287.5 86.1 287.5 86.1 287.4 84.6"/>
          <polygon class="cls-2" points="262.3 84.6 262.2 86.1 265.3 84.9 265.3 84.9 262.3 84.6"/>
          <polygon class="cls-2" points="78.7 83.9 75.6 84.6 78.4 85.2 78.4 85.2 78.7 83.9"/>
          <polygon class="cls-2" points="147.2 83.9 144.1 84.6 147 85.2 147 85.2 147.2 83.9"/>
          <polygon class="cls-2" points="165.8 83.9 166 85.2 169.2 84.6 169.2 84.6 165.8 83.9"/>
          <polygon class="cls-2" points="97.2 83.9 97.4 85.2 100.5 84.6 100.5 84.6 97.2 83.9"/>
          <polygon class="cls-2" points="209.8 83.6 206.5 84.6 209.5 84.9 209.5 84.9 209.8 83.6"/>
          <polygon class="cls-2" points="265.5 83.6 262.3 84.6 265.3 84.9 265.3 84.9 265.5 83.6"/>
          <polygon class="cls-2" points="284.1 83.6 284.3 84.9 287.4 84.6 287.4 84.6 284.1 83.6"/>
          <polygon class="cls-2" points="228.3 83.6 228.6 84.9 231.6 84.6 231.6 84.6 228.3 83.6"/>
          <polygon class="cls-2" points="144.5 83.1 144.1 84.6 147.2 83.9 147.2 83.9 144.5 83.1"/>
          <polygon class="cls-2" points="75.8 83.1 75.6 84.6 78.7 83.9 78.7 83.9 75.8 83.1"/>
          <polygon class="cls-2" points="206.8 83.1 206.5 84.6 209.8 83.6 209.8 83.6 206.8 83.1"/>
          <polygon class="cls-2" points="100.3 83.1 97.2 83.9 100.5 84.6 100.5 84.6 100.3 83.1"/>
          <polygon class="cls-2" points="168.9 83.1 165.8 83.9 169.2 84.6 169.2 84.6 168.9 83.1"/>
          <polygon class="cls-2" points="231.3 83.1 228.3 83.6 231.6 84.6 231.6 84.6 231.3 83.1"/>
          <polygon class="cls-2" points="262.6 83.1 262.3 84.6 265.5 83.6 265.5 83.6 262.6 83.1"/>
          <polygon class="cls-2" points="287 83.1 284.1 83.6 287.4 84.6 287.4 84.6 287 83.1"/>
          <polygon class="cls-2" points="79 82.7 75.8 83.1 78.7 83.9 78.7 83.9 79 82.7"/>
          <polygon class="cls-2" points="147.6 82.7 144.5 83.1 147.2 83.9 147.2 83.9 147.6 82.7"/>
          <polygon class="cls-2" points="165.3 82.7 165.8 83.9 168.9 83.1 168.9 83.1 165.3 82.7"/>
          <polygon class="cls-2" points="96.7 82.7 97.2 83.9 100.3 83.1 100.3 83.1 96.7 82.7"/>
          <polygon class="cls-2" points="265.9 82.4 262.6 83.1 265.5 83.6 265.5 83.6 265.9 82.4"/>
          <polygon class="cls-2" points="210.2 82.4 206.8 83.1 209.8 83.6 209.8 83.6 210.2 82.4"/>
          <polygon class="cls-2" points="227.9 82.4 228.3 83.6 231.3 83.1 231.3 83.1 227.9 82.4"/>
          <polygon class="cls-2" points="283.6 82.4 284.1 83.6 287 83.1 287 83.1 283.6 82.4"/>
          <polygon class="cls-2" points="168.4 81.7 165.3 82.7 168.9 83.1 168.9 83.1 168.4 81.7"/>
          <polygon class="cls-2" points="230.8 81.7 227.9 82.4 231.3 83.1 231.3 83.1 230.8 81.7"/>
          <polygon class="cls-2" points="99.7 81.7 96.7 82.7 100.3 83.1 100.3 83.1 99.7 81.7"/>
          <polygon class="cls-2" points="144.9 81.7 144.5 83.1 147.6 82.7 147.6 82.7 144.9 81.7"/>
          <polygon class="cls-2" points="76.3 81.7 75.8 83.1 79 82.7 79 82.7 76.3 81.7"/>
          <polygon class="cls-2" points="207.3 81.7 206.8 83.1 210.2 82.4 210.2 82.4 207.3 81.7"/>
          <polygon class="cls-2" points="263.1 81.7 262.6 83.1 265.9 82.4 265.9 82.4 263.1 81.7"/>
          <polygon class="cls-2" points="286.6 81.7 283.6 82.4 287 83.1 287 83.1 286.6 81.7"/>
          <polygon class="cls-2" points="148.2 81.6 144.9 81.7 147.6 82.7 147.6 82.7 148.2 81.6"/>
          <polygon class="cls-2" points="79.6 81.6 76.3 81.7 79 82.7 79 82.7 79.6 81.6"/>
          <polygon class="cls-2" points="164.8 81.6 165.3 82.7 168.4 81.7 168.4 81.7 164.8 81.6"/>
          <polygon class="cls-2" points="96.2 81.6 96.7 82.7 99.7 81.7 99.7 81.7 96.2 81.6"/>
          <polygon class="cls-2" points="266.5 81.3 263.1 81.7 265.9 82.4 265.9 82.4 266.5 81.3"/>
          <polygon class="cls-2" points="210.8 81.3 207.3 81.7 210.2 82.4 210.2 82.4 210.8 81.3"/>
          <polygon class="cls-2" points="227.3 81.3 227.9 82.4 230.8 81.7 230.8 81.7 227.3 81.3"/>
          <polygon class="cls-2" points="283.1 81.3 283.6 82.4 286.6 81.7 286.6 81.7 283.1 81.3"/>
          <polygon class="cls-2" points="80.3 80.5 76.3 81.7 79.6 81.6 79.6 81.6 80.3 80.5"/>
          <polygon class="cls-2" points="148.9 80.5 144.9 81.7 148.2 81.6 148.2 81.6 148.9 80.5"/>
          <polygon class="cls-2" points="164.1 80.5 164.8 81.6 168.4 81.7 168.4 81.7 164.1 80.5"/>
          <polygon class="cls-2" points="95.5 80.5 96.2 81.6 99.7 81.7 99.7 81.7 95.5 80.5"/>
          <polygon class="cls-2" points="208 80.3 207.3 81.7 210.8 81.3 210.8 81.3 208 80.3"/>
          <polygon class="cls-2" points="145.5 80.3 144.9 81.7 148.9 80.5 148.9 80.5 145.5 80.3"/>
          <polygon class="cls-2" points="77 80.3 76.3 81.7 80.3 80.5 80.3 80.5 77 80.3"/>
          <polygon class="cls-2" points="167.7 80.3 164.1 80.5 168.4 81.7 168.4 81.7 167.7 80.3"/>
          <polygon class="cls-2" points="230.1 80.3 227.3 81.3 230.8 81.7 230.8 81.7 230.1 80.3"/>
          <polygon class="cls-2" points="99.2 80.3 95.5 80.5 99.7 81.7 99.7 81.7 99.2 80.3"/>
          <polygon class="cls-2" points="285.9 80.3 283.1 81.3 286.6 81.7 286.6 81.7 285.9 80.3"/>
          <polygon class="cls-2" points="263.8 80.3 263.1 81.7 266.5 81.3 266.5 81.3 263.8 80.3"/>
          <polygon class="cls-2" points="267.1 80.3 263.8 80.3 266.5 81.3 266.5 81.3 267.1 80.3"/>
          <polygon class="cls-2" points="211.4 80.3 208 80.3 210.8 81.3 210.8 81.3 211.4 80.3"/>
          <polygon class="cls-2" points="226.7 80.3 227.3 81.3 230.1 80.3 230.1 80.3 226.7 80.3"/>
          <polygon class="cls-2" points="282.4 80.3 283.1 81.3 285.9 80.3 285.9 80.3 282.4 80.3"/>
          <polygon class="cls-2" points="149.7 79.6 145.5 80.3 148.9 80.5 148.9 80.5 149.7 79.6"/>
          <polygon class="cls-2" points="81.1 79.6 77 80.3 80.3 80.5 80.3 80.5 81.1 79.6"/>
          <polygon class="cls-2" points="94.7 79.6 95.5 80.5 99.2 80.3 99.2 80.3 94.7 79.6"/>
          <polygon class="cls-2" points="163.3 79.6 164.1 80.5 167.7 80.3 167.7 80.3 163.3 79.6"/>
          <polygon class="cls-2" points="268 79.3 263.8 80.3 267.1 80.3 267.1 80.3 268 79.3"/>
          <polygon class="cls-2" points="212.3 79.3 208 80.3 211.4 80.3 211.4 80.3 212.3 79.3"/>
          <polygon class="cls-2" points="281.5 79.3 282.4 80.3 285.9 80.3 285.9 80.3 281.5 79.3"/>
          <polygon class="cls-2" points="225.8 79.3 226.7 80.3 230.1 80.3 230.1 80.3 225.8 79.3"/>
          <polygon class="cls-2" points="98.4 79 94.7 79.6 99.2 80.3 99.2 80.3 98.4 79"/>
          <polygon class="cls-2" points="229.3 79 225.8 79.3 230.1 80.3 230.1 80.3 229.3 79"/>
          <polygon class="cls-2" points="166.9 79 163.3 79.6 167.7 80.3 167.7 80.3 166.9 79"/>
          <polygon class="cls-2" points="77.8 79 77 80.3 81.1 79.6 81.1 79.6 77.8 79"/>
          <polygon class="cls-2" points="208.8 79 208 80.3 212.3 79.3 212.3 79.3 208.8 79"/>
          <polygon class="cls-2" points="146.3 79 145.5 80.3 149.7 79.6 149.7 79.6 146.3 79"/>
          <polygon class="cls-2" points="285.1 79 281.5 79.3 285.9 80.3 285.9 80.3 285.1 79"/>
          <polygon class="cls-2" points="264.6 79 263.8 80.3 268 79.3 268 79.3 264.6 79"/>
          <polygon class="cls-2" points="82 78.7 77.8 79 81.1 79.6 81.1 79.6 82 78.7"/>
          <polygon class="cls-2" points="150.7 78.7 146.3 79 149.7 79.6 149.7 79.6 150.7 78.7"/>
          <polygon class="cls-2" points="162.3 78.7 163.3 79.6 166.9 79 166.9 79 162.3 78.7"/>
          <polygon class="cls-2" points="93.8 78.7 94.7 79.6 98.4 79 98.4 79 93.8 78.7"/>
          <polygon class="cls-2" points="213.2 78.5 208.8 79 212.3 79.3 212.3 79.3 213.2 78.5"/>
          <polygon class="cls-2" points="268.9 78.5 264.6 79 268 79.3 268 79.3 268.9 78.5"/>
          <polygon class="cls-2" points="280.6 78.5 281.5 79.3 285.1 79 285.1 79 280.6 78.5"/>
          <polygon class="cls-2" points="224.9 78.5 225.8 79.3 229.3 79 229.3 79 224.9 78.5"/>
          <polygon class="cls-2" points="83.1 78.1 77.8 79 82 78.7 82 78.7 83.1 78.1"/>
          <polygon class="cls-2" points="151.7 78.1 146.3 79 150.7 78.7 150.7 78.7 151.7 78.1"/>
          <polygon class="cls-2" points="92.7 78.1 93.8 78.7 98.4 79 98.4 79 92.7 78.1"/>
          <polygon class="cls-2" points="161.3 78.1 162.3 78.7 166.9 79 166.9 79 161.3 78.1"/>
          <polygon class="cls-2" points="78.7 77.9 77.8 79 83.1 78.1 83.1 78.1 78.7 77.9"/>
          <polygon class="cls-2" points="209.7 77.9 208.8 79 213.2 78.5 213.2 78.5 209.7 77.9"/>
          <polygon class="cls-2" points="147.3 77.9 146.3 79 151.7 78.1 151.7 78.1 147.3 77.9"/>
          <polygon class="cls-2" points="228.4 77.9 224.9 78.5 229.3 79 229.3 79 228.4 77.9"/>
          <polygon class="cls-2" points="97.4 77.9 92.7 78.1 98.4 79 98.4 79 97.4 77.9"/>
          <polygon class="cls-2" points="166 77.9 161.3 78.1 166.9 79 166.9 79 166 77.9"/>
          <polygon class="cls-2" points="284.2 77.9 280.6 78.5 285.1 79 285.1 79 284.2 77.9"/>
          <polygon class="cls-2" points="265.5 77.9 264.6 79 268.9 78.5 268.9 78.5 265.5 77.9"/>
          <polygon class="cls-2" points="214.2 77.8 209.7 77.9 213.2 78.5 213.2 78.5 214.2 77.8"/>
          <polygon class="cls-2" points="270 77.8 265.5 77.9 268.9 78.5 268.9 78.5 270 77.8"/>
          <polygon class="cls-2" points="279.5 77.8 280.6 78.5 284.2 77.9 284.2 77.9 279.5 77.8"/>
          <polygon class="cls-2" points="223.9 77.8 224.9 78.5 228.4 77.9 228.4 77.9 223.9 77.8"/>
          <polygon class="cls-2" points="152.8 77.5 147.3 77.9 151.7 78.1 151.7 78.1 152.8 77.5"/>
          <polygon class="cls-2" points="84.2 77.5 78.7 77.9 83.1 78.1 83.1 78.1 84.2 77.5"/>
          <polygon class="cls-2" points="160.2 77.5 161.3 78.1 166 77.9 166 77.9 160.2 77.5"/>
          <polygon class="cls-2" points="91.5 77.5 92.7 78.1 97.4 77.9 97.4 77.9 91.5 77.5"/>
          <polygon class="cls-2" points="271.1 77.2 265.5 77.9 270 77.8 270 77.8 271.1 77.2"/>
          <polygon class="cls-2" points="215.4 77.2 209.7 77.9 214.2 77.8 214.2 77.8 215.4 77.2"/>
          <polygon class="cls-2" points="222.7 77.2 223.9 77.8 228.4 77.9 228.4 77.9 222.7 77.2"/>
          <polygon class="cls-2" points="278.5 77.2 279.5 77.8 284.2 77.9 284.2 77.9 278.5 77.2"/>
          <polygon class="cls-2" points="85.4 77.1 78.7 77.9 84.2 77.5 84.2 77.5 85.4 77.1"/>
          <polygon class="cls-2" points="154 77.1 147.3 77.9 152.8 77.5 152.8 77.5 154 77.1"/>
          <polygon class="cls-2" points="158.9 77.1 160.2 77.5 166 77.9 166 77.9 158.9 77.1"/>
          <polygon class="cls-2" points="90.4 77.1 91.5 77.5 97.4 77.9 97.4 77.9 90.4 77.1"/>
          <polygon class="cls-2" points="155.3 76.9 147.3 77.9 154 77.1 154 77.1 155.3 76.9"/>
          <polygon class="cls-2" points="86.6 76.9 78.7 77.9 85.4 77.1 85.4 77.1 86.6 76.9"/>
          <polygon class="cls-2" points="157.7 76.9 158.9 77.1 166 77.9 166 77.9 157.7 76.9"/>
          <polygon class="cls-2" points="89.2 76.9 90.4 77.1 97.4 77.9 97.4 77.9 89.2 76.9"/>
          <polygon class="cls-2" points="79.8 76.9 78.7 77.9 86.6 76.9 86.6 76.9 79.8 76.9"/>
          <polygon class="cls-2" points="148.3 76.9 147.3 77.9 155.3 76.9 155.3 76.9 148.3 76.9"/>
          <polygon class="cls-2" points="210.8 76.9 209.7 77.9 215.4 77.2 215.4 77.2 210.8 76.9"/>
          <polygon class="cls-2" points="96.3 76.9 89.2 76.9 97.4 77.9 97.4 77.9 96.3 76.9"/>
          <polygon class="cls-2" points="164.9 76.9 157.7 76.9 166 77.9 166 77.9 164.9 76.9"/>
          <polygon class="cls-2" points="227.3 76.9 222.7 77.2 228.4 77.9 228.4 77.9 227.3 76.9"/>
          <polygon class="cls-2" points="283.1 76.9 278.5 77.2 284.2 77.9 284.2 77.9 283.1 76.9"/>
          <polygon class="cls-2" points="266.6 76.9 265.5 77.9 271.1 77.2 271.1 77.2 266.6 76.9"/>
          <polygon class="cls-2" points="272.3 76.8 266.6 76.9 271.1 77.2 271.1 77.2 272.3 76.8"/>
          <polygon class="cls-2" points="216.6 76.8 210.8 76.9 215.4 77.2 215.4 77.2 216.6 76.8"/>
          <polygon class="cls-2" points="221.6 76.8 222.7 77.2 227.3 76.9 227.3 76.9 221.6 76.8"/>
          <polygon class="cls-2" points="277.2 76.8 278.5 77.2 283.1 76.9 283.1 76.9 277.2 76.8"/>
          <polygon class="cls-2" points="87.9 76.8 79.8 76.9 86.6 76.9 86.6 76.9 87.9 76.8"/>
          <polygon class="cls-2" points="87.9 76.8 89.2 76.9 96.3 76.9 96.3 76.9 87.9 76.8"/>
          <polygon class="cls-2" points="156.5 76.8 148.3 76.9 155.3 76.9 155.3 76.9 156.5 76.8"/>
          <polygon class="cls-2" points="156.5 76.8 157.7 76.9 164.9 76.9 164.9 76.9 156.5 76.8"/>
          <polygon class="cls-2" points="217.8 76.6 210.8 76.9 216.6 76.8 216.6 76.8 217.8 76.6"/>
          <polygon class="cls-2" points="273.6 76.6 266.6 76.9 272.3 76.8 272.3 76.8 273.6 76.6"/>
          <polygon class="cls-2" points="276 76.6 277.2 76.8 283.1 76.9 283.1 76.9 276 76.6"/>
          <polygon class="cls-2" points="220.3 76.6 221.6 76.8 227.3 76.9 227.3 76.9 220.3 76.6"/>
          <polygon class="cls-2" points="274.8 76.5 266.6 76.9 273.6 76.6 273.6 76.6 274.8 76.5"/>
          <polygon class="cls-2" points="274.8 76.5 276 76.6 283.1 76.9 283.1 76.9 274.8 76.5"/>
          <polygon class="cls-2" points="219.1 76.5 210.8 76.9 217.8 76.6 217.8 76.6 219.1 76.5"/>
          <polygon class="cls-2" points="219.1 76.5 220.3 76.6 227.3 76.9 227.3 76.9 219.1 76.5"/>
          <polygon class="cls-2" points="95.1 75.9 87.9 76.8 96.3 76.9 96.3 76.9 95.1 75.9"/>
          <polygon class="cls-2" points="226.1 75.9 219.1 76.5 227.3 76.9 227.3 76.9 226.1 75.9"/>
          <polygon class="cls-2" points="163.7 75.9 156.5 76.8 164.9 76.9 164.9 76.9 163.7 75.9"/>
          <polygon class="cls-2" points="81 75.9 87.9 76.8 95.1 75.9 95.1 75.9 81 75.9"/>
          <polygon class="cls-2" points="81 75.9 79.8 76.9 87.9 76.8 87.9 76.8 81 75.9"/>
          <polygon class="cls-2" points="212 75.9 219.1 76.5 226.1 75.9 226.1 75.9 212 75.9"/>
          <polygon class="cls-2" points="212 75.9 210.8 76.9 219.1 76.5 219.1 76.5 212 75.9"/>
          <polygon class="cls-2" points="149.6 75.9 156.5 76.8 163.7 75.9 163.7 75.9 149.6 75.9"/>
          <polygon class="cls-2" points="149.6 75.9 148.3 76.9 156.5 76.8 156.5 76.8 149.6 75.9"/>
          <polygon class="cls-2" points="281.9 75.9 274.8 76.5 283.1 76.9 283.1 76.9 281.9 75.9"/>
          <polygon class="cls-2" points="267.8 75.9 274.8 76.5 281.9 75.9 281.9 75.9 267.8 75.9"/>
          <polygon class="cls-2" points="267.8 75.9 266.6 76.9 274.8 76.5 274.8 76.5 267.8 75.9"/>
          <polygon class="cls-2" points="93.8 75.1 81 75.9 95.1 75.9 95.1 75.9 93.8 75.1"/>
          <polygon class="cls-2" points="162.4 75.1 149.6 75.9 163.7 75.9 163.7 75.9 162.4 75.1"/>
          <polygon class="cls-2" points="224.8 75.1 212 75.9 226.1 75.9 226.1 75.9 224.8 75.1"/>
          <polygon class="cls-2" points="82.3 75.1 81 75.9 93.8 75.1 93.8 75.1 82.3 75.1"/>
          <polygon class="cls-2" points="213.3 75.1 212 75.9 224.8 75.1 224.8 75.1 213.3 75.1"/>
          <polygon class="cls-2" points="150.9 75.1 149.6 75.9 162.4 75.1 162.4 75.1 150.9 75.1"/>
          <polygon class="cls-2" points="269.1 75.1 267.8 75.9 281.9 75.9 281.9 75.9 269.1 75.1"/>
          <polygon class="cls-2" points="280.6 75.1 269.1 75.1 281.9 75.9 281.9 75.9 280.6 75.1"/>
          <polygon class="cls-2" points="83.6 74.6 82.3 75.1 93.8 75.1 93.8 75.1 83.6 74.6"/>
          <polygon class="cls-2" points="214.7 74.6 213.3 75.1 224.8 75.1 224.8 75.1 214.7 74.6"/>
          <polygon class="cls-2" points="152.2 74.6 150.9 75.1 162.4 75.1 162.4 75.1 152.2 74.6"/>
          <polygon class="cls-2" points="161 74.6 152.2 74.6 162.4 75.1 162.4 75.1 161 74.6"/>
          <polygon class="cls-2" points="92.5 74.6 83.6 74.6 93.8 75.1 93.8 75.1 92.5 74.6"/>
          <polygon class="cls-2" points="223.4 74.6 214.7 74.6 224.8 75.1 224.8 75.1 223.4 74.6"/>
          <polygon class="cls-2" points="279.2 74.6 269.1 75.1 280.6 75.1 280.6 75.1 279.2 74.6"/>
          <polygon class="cls-2" points="270.5 74.6 269.1 75.1 279.2 74.6 279.2 74.6 270.5 74.6"/>
          <polygon class="cls-2" points="91 74.1 83.6 74.6 92.5 74.6 92.5 74.6 91 74.1"/>
          <polygon class="cls-2" points="159.6 74.1 152.2 74.6 161 74.6 161 74.6 159.6 74.1"/>
          <polygon class="cls-2" points="222 74.1 214.7 74.6 223.4 74.6 223.4 74.6 222 74.1"/>
          <polygon class="cls-2" points="85.1 74.1 83.6 74.6 91 74.1 91 74.1 85.1 74.1"/>
          <polygon class="cls-2" points="216.1 74.1 214.7 74.6 222 74.1 222 74.1 216.1 74.1"/>
          <polygon class="cls-2" points="153.7 74.1 152.2 74.6 159.6 74.1 159.6 74.1 153.7 74.1"/>
          <polygon class="cls-2" points="277.8 74.1 270.5 74.6 279.2 74.6 279.2 74.6 277.8 74.1"/>
          <polygon class="cls-2" points="271.9 74.1 270.5 74.6 277.8 74.1 277.8 74.1 271.9 74.1"/>
          <polygon class="cls-2" points="89.5 73.8 85.1 74.1 91 74.1 91 74.1 89.5 73.8"/>
          <polygon class="cls-2" points="158.1 73.8 153.7 74.1 159.6 74.1 159.6 74.1 158.1 73.8"/>
          <polygon class="cls-2" points="220.6 73.8 216.1 74.1 222 74.1 222 74.1 220.6 73.8"/>
          <polygon class="cls-2" points="217.5 73.8 216.1 74.1 220.6 73.8 220.6 73.8 217.5 73.8"/>
          <polygon class="cls-2" points="86.6 73.8 85.1 74.1 89.5 73.8 89.5 73.8 86.6 73.8"/>
          <polygon class="cls-2" points="155.1 73.8 153.7 74.1 158.1 73.8 158.1 73.8 155.1 73.8"/>
          <polygon class="cls-2" points="276.4 73.8 271.9 74.1 277.8 74.1 277.8 74.1 276.4 73.8"/>
          <polygon class="cls-2" points="273.3 73.8 271.9 74.1 276.4 73.8 276.4 73.8 273.3 73.8"/>
          <polygon class="cls-2" points="88.1 73.8 86.6 73.8 89.5 73.8 89.5 73.8 88.1 73.8"/>
          <polygon class="cls-2" points="156.6 73.8 155.1 73.8 158.1 73.8 158.1 73.8 156.6 73.8"/>
          <polygon class="cls-2" points="219.1 73.8 217.5 73.8 220.6 73.8 220.6 73.8 219.1 73.8"/>
          <polygon class="cls-2" points="274.9 73.8 273.3 73.8 276.4 73.8 276.4 73.8 274.9 73.8"/>
          <polygon class="cls-2" points="106.5 72.3 99 76 118 76 118 76 106.5 72.3"/>
          <polygon class="cls-2" points="118 72.3 106.5 72.3 118 76 118 76 118 72.3"/>
          <polygon class="cls-2" points="60.3 64.8 9.4 102.1 60.3 86.1 60.3 86.1 60.3 64.8"/>
          <polygon class="cls-2" points="90.1 64.4 90.1 48.6 72.5 48.6 72.5 48.6 90.1 64.4"/>
          <polygon class="cls-2" points="72.5 48.6 67.4 64.4 90.1 64.4 90.1 64.4 72.5 48.6"/>
          <polygon class="cls-2" points="68.3 42.3 9.4 102.1 60.3 64.8 60.3 64.8 68.3 42.3"/>
          <polygon class="cls-2" points="99 42.3 99 76 106.5 72.3 106.5 72.3 99 42.3"/>
          <polygon class="cls-2" points="200.5 30.1 187.5 81.7 200.5 81.7 200.5 81.7 200.5 30.1"/>
          <polygon class="cls-2" points="299.8 30.1 299.8 86.1 351 102.1 351 102.1 299.8 30.1"/>
          <polygon class="cls-2" points="106.5 30.1 68.3 42.3 99 42.3 99 42.3 106.5 30.1"/>
          <polygon class="cls-2" points="106.5 30.1 99 42.3 106.5 72.3 106.5 72.3 106.5 30.1"/>
          <polygon class="cls-2" points="187.5 30.1 187.5 81.7 200.5 30.1 200.5 30.1 187.5 30.1"/>
          <polygon class="cls-2" points="351 18.2 106.5 30.1 187.5 30.1 187.5 30.1 351 18.2"/>
          <polygon class="cls-2" points="351 18.2 187.5 30.1 200.5 30.1 200.5 30.1 351 18.2"/>
          <polygon class="cls-2" points="351 18.2 200.5 30.1 299.8 30.1 299.8 30.1 351 18.2"/>
          <polygon class="cls-2" points="351 18.2 299.8 30.1 351 102.1 351 102.1 351 18.2"/>
          <polygon class="cls-2" points="9.4 18.2 106.5 30.1 351 18.2 351 18.2 9.4 18.2"/>
          <polygon class="cls-2" points="9.4 18.2 68.3 42.3 106.5 30.1 106.5 30.1 9.4 18.2"/>
          <polygon class="cls-2" points="9.4 18.2 9.4 102.1 68.3 42.3 68.3 42.3 9.4 18.2"/>
          <polygon class="cls-2" points="350.8 16.9 9.4 18.2 351 18.2 351 18.2 350.8 16.9"/>
          <polygon class="cls-2" points="9.5 16.9 9.4 18.2 350.8 16.9 350.8 16.9 9.5 16.9"/>
          <polygon class="cls-2" points="350.6 15.7 9.5 16.9 350.8 16.9 350.8 16.9 350.6 15.7"/>
          <polygon class="cls-2" points="9.7 15.7 9.5 16.9 350.6 15.7 350.6 15.7 9.7 15.7"/>
          <polygon class="cls-2" points="350.1 14.4 9.7 15.7 350.6 15.7 350.6 15.7 350.1 14.4"/>
          <polygon class="cls-2" points="10.2 14.4 9.7 15.7 350.1 14.4 350.1 14.4 10.2 14.4"/>
          <polygon class="cls-2" points="10.8 13.3 10.2 14.4 350.1 14.4 350.1 14.4 10.8 13.3"/>
          <polygon class="cls-2" points="349.5 13.3 10.8 13.3 350.1 14.4 350.1 14.4 349.5 13.3"/>
          <polygon class="cls-2" points="348.7 12.3 10.8 13.3 349.5 13.3 349.5 13.3 348.7 12.3"/>
          <polygon class="cls-2" points="11.5 12.3 10.8 13.3 348.7 12.3 348.7 12.3 11.5 12.3"/>
          <polygon class="cls-2" points="347.9 11.4 11.5 12.3 348.7 12.3 348.7 12.3 347.9 11.4"/>
          <polygon class="cls-2" points="12.5 11.4 11.5 12.3 347.9 11.4 347.9 11.4 12.5 11.4"/>
          <polygon class="cls-2" points="346.8 10.6 12.5 11.4 347.9 11.4 347.9 11.4 346.8 10.6"/>
          <polygon class="cls-2" points="13.5 10.6 12.5 11.4 346.8 10.6 346.8 10.6 13.5 10.6"/>
          <polygon class="cls-2" points="345.7 10 13.5 10.6 346.8 10.6 346.8 10.6 345.7 10"/>
          <polygon class="cls-2" points="14.6 10 13.5 10.6 345.7 10 345.7 10 14.6 10"/>
          <polygon class="cls-2" points="344.5 9.6 14.6 10 345.7 10 345.7 10 344.5 9.6"/>
          <polygon class="cls-2" points="15.9 9.6 14.6 10 344.5 9.6 344.5 9.6 15.9 9.6"/>
          <polygon class="cls-2" points="343.3 9.3 15.9 9.6 344.5 9.6 344.5 9.6 343.3 9.3"/>
          <polygon class="cls-2" points="17.1 9.3 15.9 9.6 343.3 9.3 343.3 9.3 17.1 9.3"/>
          <polygon class="cls-2" points="17.1 9.3 342 9.2 18.4 9.2 18.4 9.2 17.1 9.3"/>
          <polygon class="cls-2" points="342 9.2 17.1 9.3 343.3 9.3 343.3 9.3 342 9.2"/>
        </g>
        <g>
          <polygon class="cls-2" points="343.7 120 342 120.1 360 120.1 360 120.1 343.7 120"/>
          <polygon class="cls-2" points="16.6 120 .4 120.1 18.4 120.1 18.4 120.1 16.6 120"/>
          <polygon class="cls-2" points="345.5 119.7 343.7 120 360 120.1 360 120.1 345.5 119.7"/>
          <polygon class="cls-2" points="14.9 119.7 .4 120.1 16.6 120 16.6 120 14.9 119.7"/>
          <polygon class="cls-2" points="347.1 119.3 345.5 119.7 360 120.1 360 120.1 347.1 119.3"/>
          <polygon class="cls-2" points="13.1 119.3 .4 120.1 14.9 119.7 14.9 119.7 13.1 119.3"/>
          <polygon class="cls-2" points="348.8 118.7 347.1 119.3 360 120.1 360 120.1 348.8 118.7"/>
          <polygon class="cls-2" points="11.5 118.7 .4 120.1 13.1 119.3 13.1 119.3 11.5 118.7"/>
          <polygon class="cls-2" points="350.5 118 348.8 118.7 360 120.1 360 120.1 350.5 118"/>
          <polygon class="cls-2" points="9.9 118 .4 120.1 11.5 118.7 11.5 118.7 9.9 118"/>
          <polygon class="cls-2" points="8.4 117 .4 120.1 9.9 118 9.9 118 8.4 117"/>
          <polygon class="cls-2" points="352 117 350.5 118 360 120.1 360 120.1 352 117"/>
          <polygon class="cls-2" points="6.9 116 .4 120.1 8.4 117 8.4 117 6.9 116"/>
          <polygon class="cls-2" points="353.3 116 352 117 360 120.1 360 120.1 353.3 116"/>
          <polygon class="cls-2" points="5.6 114.8 .4 120.1 6.9 116 6.9 116 5.6 114.8"/>
          <polygon class="cls-2" points="354.6 114.8 353.3 116 360 120.1 360 120.1 354.6 114.8"/>
          <polygon class="cls-2" points="4.5 113.5 .4 120.1 5.6 114.8 5.6 114.8 4.5 113.5"/>
          <polygon class="cls-2" points="355.9 113.5 354.6 114.8 360 120.1 360 120.1 355.9 113.5"/>
          <polygon class="cls-2" points="3.4 112.1 .4 120.1 4.5 113.5 4.5 113.5 3.4 112.1"/>
          <polygon class="cls-2" points="356.9 112.1 355.9 113.5 360 120.1 360 120.1 356.9 112.1"/>
          <polygon class="cls-2" points="2.5 110.6 .4 120.1 3.4 112.1 3.4 112.1 2.5 110.6"/>
          <polygon class="cls-2" points="357.8 110.6 356.9 112.1 360 120.1 360 120.1 357.8 110.6"/>
          <polygon class="cls-2" points="1.8 109 .4 120.1 2.5 110.6 2.5 110.6 1.8 109"/>
          <polygon class="cls-2" points="358.6 109 357.8 110.6 360 120.1 360 120.1 358.6 109"/>
          <polygon class="cls-2" points="1.2 107.3 .4 120.1 1.8 109 1.8 109 1.2 107.3"/>
          <polygon class="cls-2" points="359.2 107.3 358.6 109 360 120.1 360 120.1 359.2 107.3"/>
          <polygon class="cls-2" points=".7 105.6 .4 120.1 1.2 107.3 1.2 107.3 .7 105.6"/>
          <polygon class="cls-2" points="359.6 105.6 359.2 107.3 360 120.1 360 120.1 359.6 105.6"/>
          <polygon class="cls-2" points=".5 103.9 .4 120.1 .7 105.6 .7 105.6 .5 103.9"/>
          <polygon class="cls-2" points="359.8 103.9 359.6 105.6 360 120.1 360 120.1 359.8 103.9"/>
          <polygon class="cls-2" points=".4 102.1 .4 120.1 .5 103.9 .5 103.9 .4 102.1"/>
          <polygon class="cls-2" points="360 102.1 359.8 103.9 360 120.1 360 120.1 360 102.1"/>
          <polygon class="cls-2" points="360 .2 343.7 .3 345.5 .6 345.5 .6 360 .2"/>
          <polygon class="cls-2" points="360 .2 345.5 .6 347.1 1 347.1 1 360 .2"/>
          <polygon class="cls-2" points="360 .2 347.1 1 348.8 1.6 348.8 1.6 360 .2"/>
          <polygon class="cls-2" points="360 .2 348.8 1.6 350.5 2.4 350.5 2.4 360 .2"/>
          <polygon class="cls-2" points="360 .2 350.5 2.4 352 3.2 352 3.2 360 .2"/>
          <polygon class="cls-2" points="360 .2 352 3.2 353.3 4.3 353.3 4.3 360 .2"/>
          <polygon class="cls-2" points="360 .2 353.3 4.3 354.6 5.4 354.6 5.4 360 .2"/>
          <polygon class="cls-2" points="360 .2 354.6 5.4 355.9 6.7 355.9 6.7 360 .2"/>
          <polygon class="cls-2" points="360 .2 355.9 6.7 356.9 8.2 356.9 8.2 360 .2"/>
          <polygon class="cls-2" points="360 .2 356.9 8.2 357.8 9.7 357.8 9.7 360 .2"/>
          <polygon class="cls-2" points="360 .2 357.8 9.7 358.6 11.3 358.6 11.3 360 .2"/>
          <polygon class="cls-2" points="360 .2 358.6 11.3 359.2 12.9 359.2 12.9 360 .2"/>
          <polygon class="cls-2" points="360 .2 359.2 12.9 359.6 14.7 359.6 14.7 360 .2"/>
          <polygon class="cls-2" points="360 .2 359.6 14.7 359.8 16.4 359.8 16.4 360 .2"/>
          <polygon class="cls-2" points="360 .2 359.8 16.4 360 18.2 360 18.2 360 .2"/>
          <polygon class="cls-2" points="16.6 .3 18.4 .2 .4 .2 .4 .2 16.6 .3"/>
          <polygon class="cls-2" points=".4 .2 14.9 .6 16.6 .3 16.6 .3 .4 .2"/>
          <polygon class="cls-2" points=".4 .2 13.1 1 14.9 .6 14.9 .6 .4 .2"/>
          <polygon class="cls-2" points=".4 .2 11.5 1.6 13.1 1 13.1 1 .4 .2"/>
          <polygon class="cls-2" points=".4 .2 9.9 2.4 11.5 1.6 11.5 1.6 .4 .2"/>
          <polygon class="cls-2" points=".4 .2 8.4 3.2 9.9 2.4 9.9 2.4 .4 .2"/>
          <polygon class="cls-2" points=".4 .2 6.9 4.3 8.4 3.2 8.4 3.2 .4 .2"/>
          <polygon class="cls-2" points=".4 .2 5.6 5.4 6.9 4.3 6.9 4.3 .4 .2"/>
          <polygon class="cls-2" points=".4 .2 4.5 6.7 5.6 5.4 5.6 5.4 .4 .2"/>
          <polygon class="cls-2" points=".4 .2 3.4 8.2 4.5 6.7 4.5 6.7 .4 .2"/>
          <polygon class="cls-2" points=".4 .2 2.5 9.7 3.4 8.2 3.4 8.2 .4 .2"/>
          <polygon class="cls-2" points=".4 .2 1.8 11.3 2.5 9.7 2.5 9.7 .4 .2"/>
          <polygon class="cls-2" points=".4 .2 1.2 12.9 1.8 11.3 1.8 11.3 .4 .2"/>
          <polygon class="cls-2" points=".4 .2 .7 14.7 1.2 12.9 1.2 12.9 .4 .2"/>
          <polygon class="cls-2" points=".4 .2 .5 16.4 .7 14.7 .7 14.7 .4 .2"/>
          <polygon class="cls-2" points=".4 .2 .4 18.2 .5 16.4 .5 16.4 .4 .2"/>
          <polygon class="cls-2" points="342 .2 343.7 .3 360 .2 360 .2 342 .2"/>
        </g>
        <g>
          <polygon class="cls-3" points="16.6 120 18.4 120.1 342 120.1 342 120.1 16.6 120"/>
          <polygon class="cls-3" points="343.7 120 16.6 120 342 120.1 342 120.1 343.7 120"/>
          <polygon class="cls-3" points="14.9 119.7 16.6 120 343.7 120 343.7 120 14.9 119.7"/>
          <polygon class="cls-3" points="345.5 119.7 14.9 119.7 343.7 120 343.7 120 345.5 119.7"/>
          <polygon class="cls-3" points="13.1 119.3 14.9 119.7 345.5 119.7 345.5 119.7 13.1 119.3"/>
          <polygon class="cls-3" points="347.1 119.3 13.1 119.3 345.5 119.7 345.5 119.7 347.1 119.3"/>
          <polygon class="cls-3" points="11.5 118.7 13.1 119.3 347.1 119.3 347.1 119.3 11.5 118.7"/>
          <polygon class="cls-3" points="348.8 118.7 11.5 118.7 347.1 119.3 347.1 119.3 348.8 118.7"/>
          <polygon class="cls-3" points="9.9 118 11.5 118.7 348.8 118.7 348.8 118.7 9.9 118"/>
          <polygon class="cls-3" points="350.5 118 9.9 118 348.8 118.7 348.8 118.7 350.5 118"/>
          <polygon class="cls-3" points="352 117 9.9 118 350.5 118 350.5 118 352 117"/>
          <polygon class="cls-3" points="8.4 117 9.9 118 352 117 352 117 8.4 117"/>
          <polygon class="cls-3" points="353.3 116 8.4 117 352 117 352 117 353.3 116"/>
          <polygon class="cls-3" points="6.9 116 8.4 117 353.3 116 353.3 116 6.9 116"/>
          <polygon class="cls-3" points="354.6 114.8 6.9 116 353.3 116 353.3 116 354.6 114.8"/>
          <polygon class="cls-3" points="5.6 114.8 6.9 116 354.6 114.8 354.6 114.8 5.6 114.8"/>
          <polygon class="cls-3" points="355.9 113.5 5.6 114.8 354.6 114.8 354.6 114.8 355.9 113.5"/>
          <polygon class="cls-3" points="4.5 113.5 5.6 114.8 355.9 113.5 355.9 113.5 4.5 113.5"/>
          <polygon class="cls-3" points="356.9 112.1 4.5 113.5 355.9 113.5 355.9 113.5 356.9 112.1"/>
          <polygon class="cls-3" points="3.4 112.1 4.5 113.5 356.9 112.1 356.9 112.1 3.4 112.1"/>
          <polygon class="cls-3" points="18.4 111.1 3.4 112.1 356.9 112.1 356.9 112.1 18.4 111.1"/>
          <polygon class="cls-3" points="356.9 112.1 342 111.1 18.4 111.1 18.4 111.1 356.9 112.1"/>
          <polygon class="cls-3" points="17.1 111 3.4 112.1 18.4 111.1 18.4 111.1 17.1 111"/>
          <polygon class="cls-3" points="343.3 111 342 111.1 356.9 112.1 356.9 112.1 343.3 111"/>
          <polygon class="cls-3" points="15.9 110.7 3.4 112.1 17.1 111 17.1 111 15.9 110.7"/>
          <polygon class="cls-3" points="344.5 110.7 343.3 111 356.9 112.1 356.9 112.1 344.5 110.7"/>
          <polygon class="cls-3" points="357.8 110.6 344.5 110.7 356.9 112.1 356.9 112.1 357.8 110.6"/>
          <polygon class="cls-3" points="2.5 110.6 3.4 112.1 15.9 110.7 15.9 110.7 2.5 110.6"/>
          <polygon class="cls-3" points="14.6 110.3 2.5 110.6 15.9 110.7 15.9 110.7 14.6 110.3"/>
          <polygon class="cls-3" points="345.7 110.3 344.5 110.7 357.8 110.6 357.8 110.6 345.7 110.3"/>
          <polygon class="cls-3" points="13.5 109.6 2.5 110.6 14.6 110.3 14.6 110.3 13.5 109.6"/>
          <polygon class="cls-3" points="346.8 109.6 345.7 110.3 357.8 110.6 357.8 110.6 346.8 109.6"/>
          <polygon class="cls-3" points="358.6 109 346.8 109.6 357.8 110.6 357.8 110.6 358.6 109"/>
          <polygon class="cls-3" points="1.8 109 2.5 110.6 13.5 109.6 13.5 109.6 1.8 109"/>
          <polygon class="cls-3" points="12.5 108.9 1.8 109 13.5 109.6 13.5 109.6 12.5 108.9"/>
          <polygon class="cls-3" points="347.9 108.9 346.8 109.6 358.6 109 358.6 109 347.9 108.9"/>
          <polygon class="cls-3" points="11.5 108 1.8 109 12.5 108.9 12.5 108.9 11.5 108"/>
          <polygon class="cls-3" points="348.7 108 347.9 108.9 358.6 109 358.6 109 348.7 108"/>
          <polygon class="cls-3" points="359.2 107.3 348.7 108 358.6 109 358.6 109 359.2 107.3"/>
          <polygon class="cls-3" points="1.2 107.3 1.8 109 11.5 108 11.5 108 1.2 107.3"/>
          <polygon class="cls-3" points="10.8 107 1.2 107.3 11.5 108 11.5 108 10.8 107"/>
          <polygon class="cls-3" points="349.5 107 348.7 108 359.2 107.3 359.2 107.3 349.5 107"/>
          <polygon class="cls-3" points="350.1 105.8 349.5 107 359.2 107.3 359.2 107.3 350.1 105.8"/>
          <polygon class="cls-3" points="10.2 105.8 1.2 107.3 10.8 107 10.8 107 10.2 105.8"/>
          <polygon class="cls-3" points="359.6 105.6 350.1 105.8 359.2 107.3 359.2 107.3 359.6 105.6"/>
          <polygon class="cls-3" points=".7 105.6 1.2 107.3 10.2 105.8 10.2 105.8 .7 105.6"/>
          <polygon class="cls-3" points="9.7 104.6 .7 105.6 10.2 105.8 10.2 105.8 9.7 104.6"/>
          <polygon class="cls-3" points="350.6 104.6 350.1 105.8 359.6 105.6 359.6 105.6 350.6 104.6"/>
          <polygon class="cls-3" points="359.8 103.9 350.6 104.6 359.6 105.6 359.6 105.6 359.8 103.9"/>
          <polygon class="cls-3" points=".5 103.9 .7 105.6 9.7 104.6 9.7 104.6 .5 103.9"/>
          <polygon class="cls-3" points="9.5 103.4 .5 103.9 9.7 104.6 9.7 104.6 9.5 103.4"/>
          <polygon class="cls-3" points="350.8 103.4 350.6 104.6 359.8 103.9 359.8 103.9 350.8 103.4"/>
          <polygon class="cls-3" points="360 102.1 350.8 103.4 359.8 103.9 359.8 103.9 360 102.1"/>
          <polygon class="cls-3" points="9.4 102.1 .5 103.9 9.5 103.4 9.5 103.4 9.4 102.1"/>
          <polygon class="cls-3" points=".4 102.1 .5 103.9 9.4 102.1 9.4 102.1 .4 102.1"/>
          <polygon class="cls-3" points="351 102.1 350.8 103.4 360 102.1 360 102.1 351 102.1"/>
          <polygon class="cls-3" points="360 18.2 351 102.1 360 102.1 360 102.1 360 18.2"/>
          <polygon class="cls-3" points="9.4 18.2 .4 102.1 9.4 102.1 9.4 102.1 9.4 18.2"/>
          <polygon class="cls-3" points=".4 18.2 .4 102.1 9.4 18.2 9.4 18.2 .4 18.2"/>
          <polygon class="cls-3" points="351 18.2 351 102.1 360 18.2 360 18.2 351 18.2"/>
          <polygon class="cls-3" points="9.5 16.9 .4 18.2 9.4 18.2 9.4 18.2 9.5 16.9"/>
          <polygon class="cls-3" points="350.8 16.9 351 18.2 360 18.2 360 18.2 350.8 16.9"/>
          <polygon class="cls-3" points="359.8 16.4 350.8 16.9 360 18.2 360 18.2 359.8 16.4"/>
          <polygon class="cls-3" points=".5 16.4 .4 18.2 9.5 16.9 9.5 16.9 .5 16.4"/>
          <polygon class="cls-3" points="9.7 15.7 .5 16.4 9.5 16.9 9.5 16.9 9.7 15.7"/>
          <polygon class="cls-3" points="350.6 15.7 350.8 16.9 359.8 16.4 359.8 16.4 350.6 15.7"/>
          <polygon class="cls-3" points="359.6 14.7 350.6 15.7 359.8 16.4 359.8 16.4 359.6 14.7"/>
          <polygon class="cls-3" points=".7 14.7 .5 16.4 9.7 15.7 9.7 15.7 .7 14.7"/>
          <polygon class="cls-3" points="10.2 14.4 .7 14.7 9.7 15.7 9.7 15.7 10.2 14.4"/>
          <polygon class="cls-3" points="350.1 14.4 350.6 15.7 359.6 14.7 359.6 14.7 350.1 14.4"/>
          <polygon class="cls-3" points="349.5 13.3 350.1 14.4 359.6 14.7 359.6 14.7 349.5 13.3"/>
          <polygon class="cls-3" points="10.8 13.3 .7 14.7 10.2 14.4 10.2 14.4 10.8 13.3"/>
          <polygon class="cls-3" points="359.2 12.9 349.5 13.3 359.6 14.7 359.6 14.7 359.2 12.9"/>
          <polygon class="cls-3" points="1.2 12.9 .7 14.7 10.8 13.3 10.8 13.3 1.2 12.9"/>
          <polygon class="cls-3" points="11.5 12.3 1.2 12.9 10.8 13.3 10.8 13.3 11.5 12.3"/>
          <polygon class="cls-3" points="348.7 12.3 349.5 13.3 359.2 12.9 359.2 12.9 348.7 12.3"/>
          <polygon class="cls-3" points="12.5 11.4 1.2 12.9 11.5 12.3 11.5 12.3 12.5 11.4"/>
          <polygon class="cls-3" points="347.9 11.4 348.7 12.3 359.2 12.9 359.2 12.9 347.9 11.4"/>
          <polygon class="cls-3" points="358.6 11.3 347.9 11.4 359.2 12.9 359.2 12.9 358.6 11.3"/>
          <polygon class="cls-3" points="1.8 11.3 1.2 12.9 12.5 11.4 12.5 11.4 1.8 11.3"/>
          <polygon class="cls-3" points="13.5 10.6 1.8 11.3 12.5 11.4 12.5 11.4 13.5 10.6"/>
          <polygon class="cls-3" points="346.8 10.6 347.9 11.4 358.6 11.3 358.6 11.3 346.8 10.6"/>
          <polygon class="cls-3" points="14.6 10 1.8 11.3 13.5 10.6 13.5 10.6 14.6 10"/>
          <polygon class="cls-3" points="345.7 10 346.8 10.6 358.6 11.3 358.6 11.3 345.7 10"/>
          <polygon class="cls-3" points="357.8 9.7 345.7 10 358.6 11.3 358.6 11.3 357.8 9.7"/>
          <polygon class="cls-3" points="2.5 9.7 1.8 11.3 14.6 10 14.6 10 2.5 9.7"/>
          <polygon class="cls-3" points="15.9 9.6 2.5 9.7 14.6 10 14.6 10 15.9 9.6"/>
          <polygon class="cls-3" points="344.5 9.6 345.7 10 357.8 9.7 357.8 9.7 344.5 9.6"/>
          <polygon class="cls-3" points="17.1 9.3 2.5 9.7 15.9 9.6 15.9 9.6 17.1 9.3"/>
          <polygon class="cls-3" points="343.3 9.3 344.5 9.6 357.8 9.7 357.8 9.7 343.3 9.3"/>
          <polygon class="cls-3" points="18.4 9.2 2.5 9.7 17.1 9.3 17.1 9.3 18.4 9.2"/>
          <polygon class="cls-3" points="342 9.2 343.3 9.3 357.8 9.7 357.8 9.7 342 9.2"/>
          <polygon class="cls-3" points="356.9 8.2 18.4 9.2 342 9.2 342 9.2 356.9 8.2"/>
          <polygon class="cls-3" points="356.9 8.2 342 9.2 357.8 9.7 357.8 9.7 356.9 8.2"/>
          <polygon class="cls-3" points="3.4 8.2 18.4 9.2 356.9 8.2 356.9 8.2 3.4 8.2"/>
          <polygon class="cls-3" points="3.4 8.2 2.5 9.7 18.4 9.2 18.4 9.2 3.4 8.2"/>
          <polygon class="cls-3" points="355.9 6.7 3.4 8.2 356.9 8.2 356.9 8.2 355.9 6.7"/>
          <polygon class="cls-3" points="4.5 6.7 3.4 8.2 355.9 6.7 355.9 6.7 4.5 6.7"/>
          <polygon class="cls-3" points="354.6 5.4 4.5 6.7 355.9 6.7 355.9 6.7 354.6 5.4"/>
          <polygon class="cls-3" points="5.6 5.4 4.5 6.7 354.6 5.4 354.6 5.4 5.6 5.4"/>
          <polygon class="cls-3" points="353.3 4.3 5.6 5.4 354.6 5.4 354.6 5.4 353.3 4.3"/>
          <polygon class="cls-3" points="6.9 4.3 5.6 5.4 353.3 4.3 353.3 4.3 6.9 4.3"/>
          <polygon class="cls-3" points="352 3.2 6.9 4.3 353.3 4.3 353.3 4.3 352 3.2"/>
          <polygon class="cls-3" points="8.4 3.2 6.9 4.3 352 3.2 352 3.2 8.4 3.2"/>
          <polygon class="cls-3" points="350.5 2.4 8.4 3.2 352 3.2 352 3.2 350.5 2.4"/>
          <polygon class="cls-3" points="9.9 2.4 8.4 3.2 350.5 2.4 350.5 2.4 9.9 2.4"/>
          <polygon class="cls-3" points="11.5 1.6 9.9 2.4 350.5 2.4 350.5 2.4 11.5 1.6"/>
          <polygon class="cls-3" points="348.8 1.6 11.5 1.6 350.5 2.4 350.5 2.4 348.8 1.6"/>
          <polygon class="cls-3" points="347.1 1 11.5 1.6 348.8 1.6 348.8 1.6 347.1 1"/>
          <polygon class="cls-3" points="13.1 1 11.5 1.6 347.1 1 347.1 1 13.1 1"/>
          <polygon class="cls-3" points="14.9 .6 13.1 1 347.1 1 347.1 1 14.9 .6"/>
          <polygon class="cls-3" points="345.5 .6 14.9 .6 347.1 1 347.1 1 345.5 .6"/>
          <polygon class="cls-3" points="16.6 .3 14.9 .6 345.5 .6 345.5 .6 16.6 .3"/>
          <polygon class="cls-3" points="343.7 .3 16.6 .3 345.5 .6 345.5 .6 343.7 .3"/>
          <polygon class="cls-3" points="343.7 .3 342 .2 18.4 .2 18.4 .2 343.7 .3"/>
          <polygon class="cls-3" points="18.4 .2 16.6 .3 343.7 .3 343.7 .3 18.4 .2"/>
        </g>
      </g>
    </g>
  </g>
</svg>