<?xml version="1.0" encoding="UTF-8" standalone="no"?>
<svg
   xmlns:dc="http://purl.org/dc/elements/1.1/"
   xmlns:cc="http://creativecommons.org/ns#"
   xmlns:rdf="http://www.w3.org/1999/02/22-rdf-syntax-ns#"
   xmlns:svg="http://www.w3.org/2000/svg"
   xmlns="http://www.w3.org/2000/svg"
   id="svg23"
   xml:space="preserve"
   viewBox="0 0 357.69601 119.37601"
   height="119.37601"
   width="357.69601"
   y="0px"
   x="0px"
   version="1.1"><metadata
   id="metadata29"><rdf:RDF><cc:Work
       rdf:about=""><dc:format>image/svg+xml</dc:format><dc:type
         rdf:resource="http://purl.org/dc/dcmitype/StillImage" /></cc:Work></rdf:RDF></metadata><defs
   id="defs27" />
<g
   transform="translate(-135.92799,-269.02399)"
   id="Kuvataso_1">
</g>
<g
   transform="translate(-135.92799,-269.02399)"
   id="_x30_">
</g>
<g
   transform="translate(-135.92799,-269.02399)"
   id="HAT">
</g>
<g
   transform="translate(-135.92799,-269.02399)"
   id="HATKEL">
</g>
<g
   transform="translate(-135.92799,-269.02399)"
   id="HATPUN">
	<g
   id="g20">
		<rect
   id="rect6"
   height="119.376"
   width="357.69601"
   style="clip-rule:evenodd;fill:#ffd200;fill-rule:evenodd"
   y="269.02399"
   x="135.92799" />
		<polygon
   id="polygon8"
   points="140.752,274.496 144.712,271.184 151.048,269.024 157.096,269.024 472.096,269.024 481.816,269.96 488.728,274.496 492.4,280.256 493.624,286.952 493.624,370.544 491.824,379.04 488.728,383.288 483.328,386.888 476.92,388.4 151.048,388.4 144.712,386.312 139.528,381.776 136.504,375.656 135.928,370.544 135.928,285.44 137.08,280.256 "
   style="clip-rule:evenodd;fill:#ef3e42;fill-rule:evenodd" />
		<polygon
   id="polygon10"
   points="149.248,278.744 155.008,277.52 476.92,278.168 481.456,279.32 484.552,283.28 485.128,286.952 485.128,370.544 484.552,374.144 482.392,377.168 477.856,379.328 152.56,379.328 149.248,378.752 146.224,376.304 144.352,371.768 144.064,286.952 146.224,281.192 "
   style="clip-rule:evenodd;fill:#ffd200;fill-rule:evenodd" />
		<polygon
   id="polygon12"
   points="240.112,343.544 242.2,345.704 244.936,349.664 246.16,353.84 245.872,358.736 244.072,362.984 241.336,366.584 237.376,369.32 231.328,370.544 226.504,369.608 222.544,367.52 218.296,362.984 216.496,357.224 216.784,352.328 219.232,346.928 223.768,342.68 228.016,340.88 231.328,340.52 235.864,341.456 "
   style="clip-rule:evenodd;fill-rule:evenodd" />
		<polygon
   id="polygon14"
   points="389.08,343.544 391.528,345.704 393.904,349.664 395.128,353.84 394.84,358.736 393.328,362.984 390.304,366.584 386.344,369.32 380.296,370.544 375.76,369.608 371.512,367.52 367.552,362.984 365.464,357.224 365.752,352.328 368.2,346.928 373.024,342.68 377.272,340.88 380.296,340.52 385.12,341.456 "
   style="clip-rule:evenodd;fill-rule:evenodd" />
		<polygon
   id="polygon16"
   points="200.44,354.776 198.928,352.976 199.216,331.16 199.504,329.648 201.016,327.848 202.528,327.2 257.104,318.704 258.904,318.128 286.768,291.2 288.856,289.976 425.728,289.976 427.6,291.2 428.176,293 428.176,352.688 427.6,354.488 425.152,355.712 399.376,355.712 399.088,351.752 397.864,348.44 396.064,345.056 393.904,342.032 390.88,339.656 387.568,337.784 382.096,336.632 376.696,336.92 371.224,338.72 368.2,340.88 365.464,343.544 363.664,346.64 361.504,351.752 361.216,355.712 250.408,355.712 250.12,351.752 247.96,346.64 245.872,343.544 243.424,340.88 238.6,337.784 235,336.92 229.24,336.632 223.768,337.784 219.232,340.88 216.496,343.544 214.336,346.64 212.536,351.752 212.248,355.712 202.888,355.712 "
   style="clip-rule:evenodd;fill-rule:evenodd" />
		<polygon
   id="polygon18"
   points="324.856,298.4 326.08,301.496 326.08,316.328 324.856,318.416 321.832,319.64 277.984,319.64 275.536,319.064 274.024,317.192 273.736,315.68 274.024,313.88 289.216,298.4 289.792,297.824 292.24,297.248 322.768,297.248 "
   style="clip-rule:evenodd;fill:#ffd200;fill-rule:evenodd" />
	</g>
</g>
</svg>