<?xml version="1.0" encoding="UTF-8"?>
<svg id="svg23" xmlns="http://www.w3.org/2000/svg" version="1.1" xmlns:cc="http://creativecommons.org/ns#" xmlns:dc="http://purl.org/dc/elements/1.1/" xmlns:rdf="http://www.w3.org/1999/02/22-rdf-syntax-ns#" xmlns:svg="http://www.w3.org/2000/svg" viewBox="0 0 357.7 119.4">
  <defs>
    <style>
      .cls-1 {
        fill: #fff;
      }

      .cls-1, .cls-2 {
        fill-rule: evenodd;
      }

      .cls-1, .cls-2, .cls-3 {
        stroke-width: 0px;
      }

      .cls-2, .cls-3 {
        fill: #0079c1;
      }
    </style>
  </defs>
  <g id="HATPUN">
    <g id="g20">
      <rect id="rect6" class="cls-3" y="0" width="357.7" height="119.4"/>
      <polygon id="polygon8" class="cls-1" points="4.8 5.5 8.8 2.2 15.1 0 21.2 0 336.2 0 345.9 .9 352.8 5.5 356.5 11.2 357.7 17.9 357.7 101.5 355.9 110 352.8 114.3 347.4 117.9 341 119.4 15.1 119.4 8.8 117.3 3.6 112.8 .6 106.6 0 101.5 0 16.4 1.2 11.2 4.8 5.5"/>
      <polygon id="polygon10" class="cls-2" points="13.3 9.7 19.1 8.5 341 9.1 345.5 10.3 348.6 14.3 349.2 17.9 349.2 101.5 348.6 105.1 346.5 108.1 341.9 110.3 16.6 110.3 13.3 109.7 10.3 107.3 8.4 102.7 8.1 17.9 10.3 12.2 13.3 9.7"/>
      <polygon id="polygon12" class="cls-1" points="104.2 74.5 106.3 76.7 109 80.6 110.2 84.8 109.9 89.7 108.1 94 105.4 97.6 101.4 100.3 95.4 101.5 90.6 100.6 86.6 98.5 82.4 94 80.6 88.2 80.9 83.3 83.3 77.9 87.8 73.7 92.1 71.9 95.4 71.5 99.9 72.4 104.2 74.5"/>
      <polygon id="polygon14" class="cls-1" points="253.2 74.5 255.6 76.7 258 80.6 259.2 84.8 258.9 89.7 257.4 94 254.4 97.6 250.4 100.3 244.4 101.5 239.8 100.6 235.6 98.5 231.6 94 229.5 88.2 229.8 83.3 232.3 77.9 237.1 73.7 241.3 71.9 244.4 71.5 249.2 72.4 253.2 74.5"/>
      <polygon id="polygon16" class="cls-1" points="64.5 85.8 63 84 63.3 62.1 63.6 60.6 65.1 58.8 66.6 58.2 121.2 49.7 123 49.1 150.8 22.2 152.9 21 289.8 21 291.7 22.2 292.2 24 292.2 83.7 291.7 85.5 289.2 86.7 263.4 86.7 263.2 82.7 261.9 79.4 260.1 76 258 73 255 70.6 251.6 68.8 246.2 67.6 240.8 67.9 235.3 69.7 232.3 71.9 229.5 74.5 227.7 77.6 225.6 82.7 225.3 86.7 114.5 86.7 114.2 82.7 112 77.6 109.9 74.5 107.5 71.9 102.7 68.8 99.1 67.9 93.3 67.6 87.8 68.8 83.3 71.9 80.6 74.5 78.4 77.6 76.6 82.7 76.3 86.7 67 86.7 64.5 85.8"/>
      <polygon id="polygon18" class="cls-2" points="188.9 29.4 190.2 32.5 190.2 47.3 188.9 49.4 185.9 50.6 142.1 50.6 139.6 50 138.1 48.2 137.8 46.7 138.1 44.9 153.3 29.4 153.9 28.8 156.3 28.2 186.8 28.2 188.9 29.4"/>
    </g>
  </g>
</svg>