<?xml version="1.0" encoding="UTF-8" standalone="no"?>
<svg
   xmlns:dc="http://purl.org/dc/elements/1.1/"
   xmlns:cc="http://creativecommons.org/ns#"
   xmlns:rdf="http://www.w3.org/1999/02/22-rdf-syntax-ns#"
   xmlns:svg="http://www.w3.org/2000/svg"
   xmlns="http://www.w3.org/2000/svg"
   id="svg26"
   xml:space="preserve"
   viewBox="0 0 357.26401 119.16001"
   height="119.16001"
   width="357.26401"
   y="0px"
   x="0px"
   version="1.1"><metadata
   id="metadata32"><rdf:RDF><cc:Work
       rdf:about=""><dc:format>image/svg+xml</dc:format><dc:type
         rdf:resource="http://purl.org/dc/dcmitype/StillImage" /></cc:Work></rdf:RDF></metadata><defs
   id="defs30" />
<g
   transform="translate(-127.576,-302.07199)"
   id="Kuvataso_1">
</g>
<g
   transform="translate(-127.576,-302.07199)"
   id="HATKEL">
</g>
<g
   transform="translate(-127.576,-302.07199)"
   id="HATPUN">
</g>
<g
   transform="translate(-127.576,-302.07199)"
   id="HAT">
	<g
   id="g23">
		<rect
   id="rect5"
   height="119.16"
   width="357.26401"
   style="clip-rule:evenodd;fill:#ffd200;fill-rule:evenodd"
   y="302.07199"
   x="127.576" />
		<polygon
   id="polygon7"
   points="132.472,307.544 136.36,304.16 142.696,302.072 148.744,302.072 463.384,302.072 473.032,303.008 480.016,307.544 483.616,313.232 484.84,319.928 484.84,403.448 483.04,411.872 480.016,416.12 474.544,419.792 468.208,421.232 142.696,421.232 136.36,419.144 131.536,414.608 128.512,408.56 127.576,403.448 127.576,318.416 128.8,313.232 "
   style="clip-rule:evenodd;fill:#ef3e42;fill-rule:evenodd" />
		<polygon
   id="polygon9"
   points="140.896,311.72 146.656,310.568 468.208,311.144 472.744,312.368 475.768,316.256 476.632,319.928 476.632,403.448 475.768,407.048 473.608,410.072 469.432,412.232 144.208,412.232 140.896,411.584 138.16,409.208 136.072,404.6 136.072,319.928 138.16,314.168 "
   style="clip-rule:evenodd;fill:#ffd200;fill-rule:evenodd" />
		<rect
   id="rect11"
   height="10.584"
   width="120.096"
   style="clip-rule:evenodd;fill-rule:evenodd"
   y="392.86401"
   x="248.896" />
		<polygon
   id="polygon13"
   points="315.424,392.216 318.448,390.992 320.824,389.192 322.696,386.456 323.848,383.792 324.496,380.768 323.848,377.384 322.696,374.648 320.824,371.984 318.448,370.112 315.424,368.96 312.4,368.6 309.376,368.96 306.352,370.112 303.904,371.984 301.816,374.648 300.592,377.384 300.304,380.768 300.592,383.792 302.392,387.68 303.904,389.192 306.352,390.992 309.376,392.216 312.4,392.864 "
   style="clip-rule:evenodd;fill-rule:evenodd" />
		<polygon
   id="polygon15"
   points="316,376.808 317.512,379.544 317.224,382.568 315.424,384.944 312.4,385.88 310.24,385.592 308.44,384.368 307.576,382.568 307.576,379.832 308.44,376.808 310.24,375.584 312.4,375.296 314.488,375.584 "
   style="clip-rule:evenodd;fill:#ffd200;fill-rule:evenodd" />
		<polygon
   id="polygon17"
   points="252.28,384.944 252.856,384.656 254.944,384.944 256.456,385.88 257.392,388.904 257.104,390.416 256.168,391.64 254.656,392.504 253.144,392.504 251.632,392.216 250.408,390.992 249.544,389.48 248.032,389.48 248.032,380.768 244.072,380.768 244.072,376.52 256.168,376.52 254.656,376.232 253.432,375.296 252.568,374.072 252.28,372.56 252.28,333.824 252.568,331.448 253.792,329.288 255.592,327.488 257.68,326.264 274.672,323.24 289.144,321.44 303.616,320.504 319.672,320.504 332.992,321.44 347.464,323.24 362.008,325.976 364.096,326.264 366.544,327.2 368.056,328.712 369.28,330.8 369.856,332.96 369.856,372.56 369.568,375.008 368.344,377.384 366.544,378.896 364.456,380.12 362.008,380.768 325.72,380.768 325.36,377.096 323.848,373.784 321.76,371.048 319.024,368.96 315.712,367.736 312.4,367.088 309.088,367.736 305.704,368.96 303.04,371.048 300.88,373.784 299.368,377.096 299.08,380.768 252.28,380.768 "
   style="clip-rule:evenodd;fill-rule:evenodd" />
		<polygon
   id="polygon19"
   points="285.832,333.824 285.832,346.568 284.32,347.792 271,347.792 269.488,346.568 269.488,333.824 271,332.6 284.32,332.6 "
   style="clip-rule:evenodd;fill:#ffd200;fill-rule:evenodd" />
		<polygon
   id="polygon21"
   points="351.136,333.824 351.136,346.568 349.912,347.792 313.912,347.792 312.4,346.568 312.4,333.824 313.912,332.6 349.912,332.6 "
   style="clip-rule:evenodd;fill:#ffd200;fill-rule:evenodd" />
	</g>
</g>
</svg>