<?xml version="1.0" encoding="UTF-8"?>
<svg id="Layer_1" data-name="Layer 1" xmlns="http://www.w3.org/2000/svg" version="1.1" viewBox="0 0 425.2 425.2">
  <defs>
    <style>
      .cls-1, .cls-2 {
        fill: #fff;
      }

      .cls-1, .cls-2, .cls-3 {
        fill-rule: evenodd;
      }

      .cls-1, .cls-4, .cls-3 {
        stroke-width: 0px;
      }

      .cls-2 {
        stroke: #000;
        stroke-miterlimit: 10;
        stroke-width: .5px;
      }

      .cls-4, .cls-3 {
        fill: #005eb8;
      }
    </style>
  </defs>
  <rect class="cls-4" x="38.3" y="149.4" width="360.5" height="120.2"/>
  <polygon class="cls-1" points="38.3 165.9 39.5 160.7 43.2 155 47.2 151.6 53.3 149.4 59.3 149.4 376.8 149.4 386.9 150.4 393.9 155 397.6 160.7 398.8 167.5 398.8 251.7 396.7 260.2 393.9 264.5 388.4 268.2 382 269.7 53.3 269.7 47.2 267.5 42 263 38.9 256.9 38.3 251.7 38.3 165.9"/>
  <polygon class="cls-3" points="46.5 167.5 48.7 161.7 51.7 159.2 57.5 158 382 158.6 386.3 159.9 389.6 163.8 390.3 167.5 390.3 251.7 389.6 255.3 387.5 258.4 382.9 260.5 55.1 260.5 51.7 259.9 48.7 257.5 46.5 252.9 46.5 167.5"/>
  <g>
    <polygon class="cls-2" points="178.4 231.8 182.7 225.7 191.5 232.2 205.9 211.4 227.8 211.4 228.1 204.1 209.5 204.1 209.5 197.1 228.8 197.1 229.6 180 226.9 177.9 225.7 174.8 226.3 170.2 227.8 168.4 230.6 166.9 233.9 166.6 237.3 167.8 239.4 170.5 240.1 173.9 239.1 176.9 237.9 178.8 237 179.7 234.5 218.8 209.5 218.8 193.4 242.2 178.4 231.8"/>
    <polygon class="cls-2" points="200.1 238.9 204.9 231.8 206.2 235.5 208.3 238.9 211 241.9 215.9 245.3 221.4 247.1 227.5 247.4 233.3 246.2 238.5 243.1 241.6 240.4 244.9 235.5 246.8 230 247 223.9 245.8 218.2 243.1 212.9 240.4 209.9 238.8 208.7 239.4 200.5 243.1 202.9 246.5 205.9 249.2 209.3 251.7 213.3 253.2 217.5 254.1 221.8 254.4 226.3 254.1 230.9 251.9 237.3 248.6 243.1 245.8 246.5 242.2 249.2 236.4 252.6 230 254.4 225.4 254.7 218.7 253.8 212.3 251.4 208.6 249.2 205.2 246.2 202.3 242.5 200.1 238.9"/>
  </g>
</svg>