<?xml version="1.0" encoding="UTF-8"?>
<svg id="Layer_2" data-name="Layer 2" xmlns="http://www.w3.org/2000/svg" version="1.1" xmlns:cc="http://creativecommons.org/ns#" xmlns:dc="http://purl.org/dc/elements/1.1/" xmlns:rdf="http://www.w3.org/1999/02/22-rdf-syntax-ns#" xmlns:svg="http://www.w3.org/2000/svg" viewBox="0 0 361.1 121.4">
  <defs>
    <style>
      .cls-1, .cls-2, .cls-3 {
        stroke-width: 0px;
      }

      .cls-1, .cls-3, .cls-4 {
        fill-rule: evenodd;
      }

      .cls-1, .cls-4 {
        fill: #fff;
      }

      .cls-2, .cls-3 {
        fill: #005eb8;
      }

      .cls-4 {
        stroke: #101820;
        stroke-miterlimit: 10;
        stroke-width: .5px;
      }
    </style>
  </defs>
  <rect class="cls-2" x="2" y=".2" width="360.1" height="121"/>
  <polygon class="cls-1" points="2 16.8 3.3 11.6 6.9 5.8 10.9 2.4 17.3 .2 23.3 .2 340.4 .2 350.2 1.1 357.2 5.8 360.8 11.6 362.1 18.4 362.1 103.1 360.3 111.7 357.2 116 351.7 119.7 345.3 121.2 17.3 121.2 10.9 119.1 6 114.4 2.6 108.4 2 103.1 2 16.8"/>
  <polygon class="cls-3" points="10.6 18.4 12.4 12.5 15.4 10 21.3 8.8 345.3 9.4 349.9 10.7 352.9 14.6 353.6 18.4 353.6 103.1 352.9 106.9 350.8 109.9 346.6 112 18.8 112 15.4 111.4 12.4 109 10.6 104.4 10.6 18.4"/>
  <polygon class="cls-4" points="157.6 68.5 153.9 72.1 156 74.9 157.6 78.2 158.8 82.9 158.8 87.2 157.6 92.7 155.7 92.4 153 97.3 148.7 101.1 143.9 103.1 138.4 104.1 133.2 103.1 127.9 100.7 124.6 97.7 121.2 92.1 120.4 88.7 120 83.2 121.6 78 124.3 73.1 128.6 69.7 134.4 67.2 133.8 65.4 139.6 64.8 145.4 66 148.7 67.5 151.8 63.2 146.6 61 144.4 50 149 48.7 153.6 48.2 158.8 48.2 161.5 48.4 164.3 49.1 167 49.7 168.9 46.9 173.7 41.4 176.1 38.9 178.6 36.5 178.6 33.1 176.1 33.1 174.9 33.1 173.4 31 172.8 25.1 171.6 25.1 172.5 21.7 174.4 18.6 177.7 17.1 181.1 16.8 184.3 18.4 187.1 22 187.7 26.3 187.3 31.2 189.5 33.1 194.1 37.7 196.5 41.1 200.8 46 203.6 52.8 205.1 56.8 205.7 59.5 205.3 62.6 209.3 60.5 211.5 61.4 216 62 219.4 62.6 225.2 61.4 232.2 60.2 233.7 64.1 234 66.9 234 68.5 238.3 72.4 240.4 75.8 242.2 81.3 242 86.3 242 91.2 239.8 91.2 237.4 96.1 233.4 100.4 228.3 103.1 220.6 104.1 215.1 102.9 210.3 100.1 206.3 96.1 204.4 92.7 175.2 92.7 171.3 90.9 168.5 87.5 166.7 83.5 166.4 80.4 167 77.7 157.6 68.5"/>
  <g>
    <polygon class="cls-3" points="173.1 52.1 179.5 47.9 185.2 55.5 181.3 58.6 177.3 55.2 173.1 52.1"/>
    <polygon class="cls-3" points="199 86.6 195.9 82.6 202.9 82.6 202.6 86.6 199 86.6"/>
    <polygon class="cls-3" points="212.7 90.3 216 88.4 219 91.5 223.3 92.1 227.3 90.3 228.8 87.2 229.1 84.1 227.6 81 231 78.9 231.9 80.1 232.2 81.6 232.8 82.9 233.1 84.4 232.8 87.2 232.5 88.4 232.2 90 231 91.5 228.8 94.3 225.5 96.1 223 96.1 220.3 96.1 217.5 95.2 216.3 94.6 215.1 93.6 212.7 90.3"/>
    <polygon class="cls-3" points="144.4 81.3 147.1 78.6 148.7 80.4 149 82.6 149.3 85.4 149 88.7 147.8 91.5 146.3 93.1 144.4 94.6 142.6 95.5 141.1 95.8 137.2 96.1 134.4 95.2 131.9 93.6 129.8 91.8 128.6 89.3 127.7 86.3 127.7 85 128.3 82.3 129.2 79.5 131 77.4 133.2 75.8 136.2 74.6 138.9 74.3 140.5 74.6 143.2 75.2 140.8 78.6 138.7 78.2 135.6 79.2 133.2 81 131.7 84.1 131.9 86.6 132.9 89.3 135.3 91.5 138.4 92.1 140.5 92.1 142.3 91.2 144.1 89.7 145.1 87.8 145.4 85.7 145.4 83.5 144.4 81.3"/>
  </g>
</svg>