<?xml version="1.0" encoding="UTF-8"?>
<svg id="Layer_2" data-name="Layer 2" xmlns="http://www.w3.org/2000/svg" version="1.1" viewBox="0 0 357.7 119.4">
  <defs>
    <style>
      .cls-1 {
        fill: #fff;
      }

      .cls-1, .cls-2, .cls-3 {
        stroke-width: 0px;
      }

      .cls-1, .cls-3 {
        fill-rule: evenodd;
      }

      .cls-2, .cls-3 {
        fill: #005eb8;
      }
    </style>
  </defs>
  <rect class="cls-2" x=".4" y=".5" width="358.1" height="120"/>
  <path class="cls-1" d="M179.3.5h161.5c9.6,0,17.6,8.1,17.6,17.9v84.2c0,9.9-7.9,17.9-17.6,17.9h-161.5v-9h160.1c5.8,0,10.4-4.7,10.4-10.4V19.9c0-5.8-4.7-10.4-10.4-10.4h-160.1V.5h0ZM18.2.5h161.1v8.9H19.3c-5.8,0-10.4,4.7-10.4,10.4v81.3c0,5.7,4.7,10.4,10.4,10.4h160v9H18.2c-9.7,0-17.6-8.1-17.6-17.9V18.4C.7,8.6,8.5.5,18.2.5Z"/>
  <polygon class="cls-1" points="140.5 54.6 144.5 56.4 148.1 58.8 151.1 61.8 153.9 66.4 156.6 71.2 157.8 75.1 158.1 79.6 158.1 83.9 157.2 88 156.6 90.1 153.9 89.6 152.1 93.2 148.1 98.3 143 101.9 136.9 104.4 130.6 105.2 124.9 104.7 119.1 102.6 114.3 98.9 111.2 95.9 108.8 92.6 107 88.6 105.8 82.4 105.8 78.1 107 72.4 109.1 67.6 112.1 63.3 115.1 60.6 118.8 58.5 117.3 56.1 121.5 54.3 126.7 53.3 132.1 52.8 136.3 53.3 140 39.7 132.7 41.9 131.2 39.2 130.3 36.4 130.6 33.4 131.5 30.4 142.3 31.6 143.6 26.8 160.8 19.2 162.3 22.2 152.1 27.6 153.2 30.1 148.4 32.2 146 39.2 147.5 41 162.7 41 173.5 64.6 170.7 67.9 172.2 69.7 188.6 69.7 197.3 48.5 192.5 46.4 191.2 42.5 191.9 41 211.5 41 212.8 42.5 210.6 50 242.1 50 243.3 51.8 241.8 57.3 245.1 59.7 249.3 64.6 252.4 70 253.8 75.7 254.2 82.1 253.5 86 252.4 89.8 249.9 89.3 248.1 92.9 244.8 96.8 239.3 101.4 231.8 104.4 225.7 105 219.7 104.1 213.9 101.6 209.1 98 205.2 93.2 202.5 87.5 174.7 90.5 172.2 89.8 169.5 87.8 168 86 167.1 82.6 167.1 80.3 167.7 78.1 145.1 51.8 141.8 51.8 140.5 54.6"/>
  <polygon class="cls-3" points="208.8 74.8 210 71.8 211.8 68.7 213.9 66.4 216.7 64.2 222.7 75.4 208.8 74.8"/>
  <polygon class="cls-3" points="134.2 61.8 130.6 61.5 126.9 61.8 123.3 63.1 120 64.9 117.3 67.2 114.8 70 112.8 74.8 111.8 78.5 111.8 82.1 112.8 85.6 114 89.3 114.8 90.8 117.3 93.5 121.8 96.8 125.1 98.3 128.7 98.9 130.6 98.9 136 98.3 139.3 96.8 143.9 93.5 146.3 90.8 147.2 89.3 148.7 85.6 149 83.9 149.3 80.3 149.6 77.5 148.7 74.8 146.3 70 143.9 66.9 142.7 65.7 139.3 63.6 137.8 63.1 133 76.3 134.8 78.5 135.1 82.1 133.3 84.2 130.6 84.7 128.2 84.2 126.9 82.6 126.1 80.3 126.4 78.8 127.6 77.2 128.7 76 130.6 75.7 134.2 61.8"/>
  <polygon class="cls-3" points="209.1 86.8 211.3 91.1 216.1 95.6 221.2 98 223 98.6 224.8 98.9 226.7 98.9 232.1 98 238.8 94.7 241.1 92 244.2 87.1 245.1 83.9 245.4 78.5 244.8 74.8 243.3 71.2 241.1 68.2 238.8 65.7 235.4 63.6 232.1 62.1 228.5 61.5 224.8 61.5 223.3 61.8 219.7 62.7 226.7 75.1 229.7 76.3 231.5 78.8 231.5 80.6 230.5 83.3 227.8 85 209.1 86.8"/>
</svg>