<?xml version="1.0" encoding="UTF-8"?>
<svg id="Layer_1" data-name="Layer 1" xmlns="http://www.w3.org/2000/svg" version="1.1" viewBox="0 0 425.2 425.2">
  <defs>
    <style>
      .cls-1, .cls-2, .cls-3, .cls-4 {
        fill-rule: evenodd;
      }

      .cls-1, .cls-5, .cls-3 {
        stroke-width: 0px;
      }

      .cls-1, .cls-4 {
        fill: #fff;
      }

      .cls-2, .cls-5, .cls-3 {
        fill: #005eb8;
      }

      .cls-2, .cls-4 {
        stroke: #101820;
        stroke-miterlimit: 10;
        stroke-width: .5px;
      }
    </style>
  </defs>
  <rect class="cls-5" x="37.9" y="152.6" width="358.1" height="120"/>
  <path class="cls-1" d="M216.7,152.6h161.5c9.6,0,17.6,8.1,17.6,17.9v84.2c0,9.9-7.9,17.9-17.6,17.9h-161.5v-9h160.1c5.8,0,10.4-4.7,10.4-10.4v-81.3c0-5.8-4.7-10.4-10.4-10.4h-160.1v-8.9ZM55.7,152.6h161.1v8.9H56.8c-5.8,0-10.4,4.7-10.4,10.4v81.3c0,5.7,4.7,10.4,10.4,10.4h160v9H55.7c-9.7,0-17.6-8.1-17.6-17.9v-84.2c0-9.9,7.8-17.9,17.6-17.9Z"/>
  <polygon class="cls-4" points="178 206.7 182 208.5 185.6 210.9 188.6 213.9 191.3 218.5 194.1 223.3 195.2 227.2 195.6 231.7 195.6 236 194.6 240.1 194.1 242.2 191.3 241.7 189.5 245.3 185.6 250.4 180.5 254 174.4 256.5 168.1 257.3 162.3 256.8 156.6 254.7 151.7 251 148.7 248 146.3 244.7 144.5 240.7 143.2 234.5 143.2 230.2 144.5 224.5 146.5 219.7 149.6 215.4 152.6 212.7 156.3 210.6 154.8 208.2 159 206.4 164.1 205.4 169.6 204.9 173.8 205.4 177.4 191.8 170.2 194 168.6 191.3 167.7 188.5 168.1 185.5 168.9 182.5 179.8 183.7 181 178.9 198.2 171.3 199.8 174.3 189.5 179.7 190.7 182.2 185.9 184.3 183.5 191.3 185 193.1 200.1 193.1 210.9 216.7 208.2 220 209.7 221.8 226 221.8 234.7 200.6 229.9 198.5 228.7 194.6 229.3 193.1 249 193.1 250.2 194.6 248.1 202.1 279.5 202.1 280.8 203.9 279.2 209.4 282.6 211.8 286.8 216.7 289.8 222.1 291.3 227.8 291.6 234.2 291 238.1 289.8 241.9 287.4 241.4 285.6 245 282.3 248.9 276.8 253.5 269.2 256.5 263.2 257.1 257.1 256.2 251.4 253.7 246.6 250.1 242.7 245.3 239.9 239.6 212.1 242.6 209.7 241.9 207 239.9 205.4 238.1 204.6 234.7 204.6 232.4 205.2 230.2 182.5 203.9 179.2 203.9 178 206.7"/>
  <polygon class="cls-3" points="246.3 226.9 247.5 223.9 249.3 220.8 251.4 218.5 254.1 216.3 260.2 227.5 246.3 226.9"/>
  <polygon class="cls-2" points="171.7 213.9 168.1 213.6 164.4 213.9 160.8 215.2 157.5 217 154.8 219.3 152.3 222.1 150.2 226.9 149.3 230.6 149.3 234.2 150.2 237.7 151.4 241.4 152.3 242.9 154.8 245.6 159.3 248.9 162.6 250.4 166.2 251 168.1 251 173.5 250.4 176.8 248.9 181.3 245.6 183.8 242.9 184.6 241.4 186.1 237.7 186.5 236 186.8 232.4 187.1 229.6 186.1 226.9 183.8 222.1 181.3 219 180.2 217.8 176.8 215.7 175.3 215.2 170.4 228.4 172.2 230.6 172.6 234.2 170.7 236.3 168.1 236.8 165.6 236.3 164.4 234.7 163.5 232.4 163.8 230.9 165 229.3 166.2 228.1 168.1 227.8 171.7 213.9"/>
  <polygon class="cls-2" points="246.6 238.9 248.7 243.2 253.5 247.7 258.6 250.1 260.4 250.7 262.2 251 264.1 251 269.5 250.1 276.2 246.8 278.6 244.1 281.6 239.2 282.6 236 282.8 230.6 282.3 226.9 280.8 223.3 278.6 220.3 276.2 217.8 272.8 215.7 269.5 214.2 265.9 213.6 262.2 213.6 260.7 213.9 257.1 214.8 264.1 227.2 267.1 228.4 268.9 230.9 268.9 232.7 268 235.4 265.3 237.1 246.6 238.9"/>
</svg>