<?xml version="1.0" encoding="UTF-8"?>
<svg id="Layer_1" data-name="Layer 1" xmlns="http://www.w3.org/2000/svg" version="1.1" viewBox="0 0 425.2 425.2">
  <defs>
    <style>
      .cls-1, .cls-2, .cls-3, .cls-4 {
        stroke-width: 0px;
      }

      .cls-1, .cls-2, .cls-5 {
        fill-rule: evenodd;
      }

      .cls-1, .cls-4 {
        fill: #ffd200;
      }

      .cls-2 {
        fill: #ffd520;
      }

      .cls-3 {
        fill: #ef3e42;
      }

      .cls-5 {
        fill: #231f20;
        stroke: #000;
        stroke-miterlimit: 10;
        stroke-width: .5px;
      }
    </style>
  </defs>
  <rect class="cls-4" x="32.8" y="152.7" width="359.7" height="119.9"/>
  <path class="cls-3" d="M374,152.8H51c-5,0-9.6,2-12.9,5.3-3.4,3.2-5.4,7.8-5.4,12.7h0v83.8h0c0,4.9,2,9.4,5.4,12.7,3.3,3.2,7.8,5.3,13,5.3h323c5,0,9.6-2,13-5.3s5.4-7.8,5.4-12.7h0v-83.8h0c0-4.9-2.1-9.4-5.4-12.7s-7.9-5.3-13-5.3h0Z"/>
  <path class="cls-4" d="M374.9,161.2H50.1c-2.6,0-5,.9-6.7,2.4-1.7,1.5-2.7,3.6-2.7,5.9h0v86.1h0c0,2.3,1.1,4.4,2.7,5.9,1.7,1.5,4.1,2.4,6.7,2.4h324.8c2.6,0,5-.9,6.7-2.4s2.8-3.6,2.8-5.9h0v-86.1h0c0-2.3-1.1-4.4-2.8-5.9s-4.1-2.4-6.7-2.4h0Z"/>
  <polygon class="cls-5" points="180.8 201.6 176 200.1 170.8 199.5 168.3 199.5 165.6 199.8 165.9 201 159.5 202.6 154 205.9 152.2 207.1 147.9 211.7 146.6 213.5 144.6 217.5 143.3 221.5 142.4 225.7 142.4 230 143 234.3 144.6 238.6 146.4 242.2 148.8 245.9 151.8 248.9 155.5 251.4 158.2 252.9 162.6 254.4 165.6 255.3 169.8 255.6 175.1 255.3 181.1 253.8 186 250.4 190.9 245.9 194.2 241.6 195.2 238.6 196.4 239.1 197.9 234.9 198.6 228.5 198.3 223.9 197.3 219.6 195.8 215.7 193.4 211.7 190.6 208.3 189.1 206.8 186.7 205 183.6 203.1 185.1 199.2 210.7 227.5 209.4 230.9 209.4 233.9 210.4 236.1 212.5 238.6 215.6 240.1 218 240.1 219.2 244.7 217.1 244.7 217.1 247.4 224.4 247.4 224.4 244.7 222 244.7 220.4 239.5 222.2 237.9 223.8 236.4 225 233.1 230.2 232.7 230.5 234.6 231.1 236.7 233 240.7 235.1 244.3 238.2 247.7 241.2 250.4 247 253.8 253.1 255.3 259.5 255.6 265.9 254.4 269.8 252.9 274.7 250.1 278.4 246.2 281.1 242.8 283.9 236.7 285.1 230.6 285.1 226.3 286.3 226 285.4 221.8 283.9 217.5 282.1 213.5 279.3 209.9 276.2 206.8 272.6 204.1 266.5 201.3 262.2 200.1 257.7 199.8 253.1 200.1 248.8 201 244.6 202.8 237.8 191 238.7 189.1 238.2 189.1 239 187 240.9 187 242.4 186.1 243 185.8 245.8 182.4 247 180.6 247 179.4 246.1 178.4 245.1 178.4 240 179.7 235.1 179.7 233.6 179.4 231.8 179.1 229.9 179.4 229 179.9 228.7 180.9 229 181.2 230.8 182.7 232.6 184.3 234.8 185.5 236.9 186.4 236 187.9 235.7 187.9 235.4 188.2 189.1 188.2 190.6 183.9 190 183.6 192.2 177.9 191.9 177.5 191.9 177.2 190.9 176.6 190.6 177.2 190 176.9 189.4 176 189.4 175.7 189.4 175.1 189.7 174.8 190.9 173.9 192.7 173.9 201.3 174.8 201.6 172 197 171.5 191.5 171.1 189.7 171.5 188.5 172 187.5 173 186.7 174.2 186.7 175.1 186.7 176 187.3 177.5 187.8 178.7 189.1 179.1 187.5 183 187.3 182.7 180.8 201.6"/>
  <polygon class="cls-1" points="187.8 191.5 233.8 191.5 218.6 224.5 216.5 224.5 215 219.3 217.4 219.3 217.4 216.6 210.4 216.6 210.4 219.3 212.5 219.3 214 225.1 213.1 225.5 187 195.9 187.8 191.5"/>
  <polygon class="cls-2" points="236.3 194 242.1 204.1 240.2 205.6 238.4 207.1 236.9 208.7 235.4 210.2 233.8 212 232.6 214.1 231.8 216.3 230.8 218.1 229.9 220.6 229.3 222.7 229 224.8 228.7 227.3 228.7 229.4 224.7 230 223.8 228.2 223.2 227.3 222 226 236.6 193.7 236.3 194"/>
  <polygon class="cls-1" points="245.4 209.5 242.4 212 239.7 214.7 238.7 216.3 237.5 218.4 236.3 221.5 235.4 225.1 235.1 229.1 252.8 227.3 253.1 226.3 254.3 225.1 245.4 209.5"/>
  <polygon class="cls-1" points="247.6 208.3 251.3 206.8 255.2 206.2 259.2 205.9 262.9 206.5 268.3 209 271.7 211.1 274.4 213.9 277.2 217.5 279 222.4 279.9 226.3 279.6 232.1 278.7 235.8 277.2 239.5 274.7 242.8 271.4 245.9 267.1 248.6 263.4 250.1 258.9 250.7 255.5 250.7 251.6 250.1 247.6 248.3 244.2 246.2 241.5 244 239 241.3 237.2 237.6 235.7 233.9 235.4 232.1 253.1 230.3 254.3 231.9 255.8 232.7 257.7 233.1 259.5 232.7 261 231.5 261.9 230 262.2 229.1 261.9 227.3 261.3 225.7 260.1 224.5 259.2 223.9 258 223.6 256.4 223.9 247.6 208.3"/>
  <polygon class="cls-1" points="181.4 209 180.6 212.3 179 215.4 177.5 218.4 176 221.5 174.2 224.2 172.9 225.7 173.5 227.3 173.5 228.8 172.6 230.3 171.4 231.5 169.8 231.9 168 231.5 166.8 230.3 166.2 228.8 166.2 227.3 166.8 225.7 167.5 225.1 169 224.5 170.5 224.5 173.2 221.1 175.1 218.4 178.7 207.5 177.2 207.1 173.2 205.9 169.3 205.6 165 206.2 159.8 208 156.4 210.2 152.2 214.1 150 217.5 148.5 221.1 147.3 227 147.6 230.6 148.5 234.6 149.7 238.3 151.8 241.6 154.6 244.3 157.7 246.8 162.8 249.2 169.3 250.1 174.4 249.9 180.3 248 184.8 244.7 188.8 240.1 190.3 236.4 191.2 233.7 191.9 230.9 192.2 228.8 192.2 227 191.9 224.5 190.3 219.3 188.5 215.9 186.3 213.5 184.5 211.4 181.4 209"/>
</svg>