<?xml version="1.0" encoding="UTF-8"?>
<svg id="Layer_2" data-name="Layer 2" xmlns="http://www.w3.org/2000/svg" version="1.1" xmlns:cc="http://creativecommons.org/ns#" xmlns:dc="http://purl.org/dc/elements/1.1/" xmlns:rdf="http://www.w3.org/1999/02/22-rdf-syntax-ns#" xmlns:svg="http://www.w3.org/2000/svg" viewBox="0 0 361.1 121.4">
  <defs>
    <style>
      .cls-1 {
        fill: #fdffff;
        stroke: #000;
        stroke-miterlimit: 10;
        stroke-width: .5px;
      }

      .cls-1, .cls-2 {
        fill-rule: evenodd;
      }

      .cls-3, .cls-4, .cls-2 {
        stroke-width: 0px;
      }

      .cls-3, .cls-2 {
        fill: #005eb8;
      }

      .cls-4 {
        fill: #fff;
      }
    </style>
  </defs>
  <rect class="cls-3" x="1.2" y="1.6" width="359.7" height="119.9"/>
  <path class="cls-4" d="M342.4,1.7H19.4c-5,0-9.6,2-12.9,5.3-3.4,3.2-5.4,7.8-5.4,12.7h0v83.8h0c0,4.9,2,9.4,5.4,12.7,3.3,3.2,7.8,5.3,13,5.3h323c5,0,9.6-2,13-5.3s5.4-7.8,5.4-12.7h0V19.6h0c0-4.9-2.1-9.4-5.4-12.7s-7.9-5.3-13-5.3h0Z"/>
  <path class="cls-3" d="M343.3,10.1H18.5c-2.6,0-5,.9-6.7,2.4-1.7,1.5-2.7,3.6-2.7,5.9h0v86.1h0c0,2.3,1.1,4.4,2.7,5.9,1.7,1.5,4.1,2.4,6.7,2.4h324.8c2.6,0,5-.9,6.7-2.4s2.8-3.6,2.8-5.9h0V18.5h0c0-2.3-1.1-4.4-2.8-5.9s-4.1-2.4-6.7-2.4h0Z"/>
  <polygon class="cls-1" points="149.2 50.5 144.4 49 139.2 48.4 136.7 48.4 134 48.7 134.3 49.9 127.9 51.5 122.4 54.8 120.6 56 116.3 60.6 115 62.4 113 66.4 111.7 70.4 110.8 74.6 110.8 78.9 111.4 83.2 113 87.5 114.8 91.1 117.2 94.8 120.2 97.8 123.9 100.3 126.6 101.8 131 103.3 134 104.2 138.2 104.5 143.5 104.2 149.5 102.7 154.4 99.3 159.3 94.8 162.6 90.5 163.6 87.5 164.8 88 166.3 83.8 167 77.4 166.7 72.8 165.7 68.5 164.2 64.6 161.8 60.6 159 57.2 157.5 55.7 155.1 53.9 152 52 153.5 48.1 179.1 76.4 177.8 79.8 177.8 82.8 178.8 85 180.9 87.5 184 89 186.4 89 187.6 93.6 185.5 93.6 185.5 96.3 192.8 96.3 192.8 93.6 190.4 93.6 188.8 88.4 190.6 86.8 192.2 85.3 193.4 82 198.6 81.6 198.9 83.5 199.5 85.6 201.4 89.6 203.5 93.2 206.6 96.6 209.6 99.3 215.4 102.7 221.5 104.2 227.9 104.5 234.3 103.3 238.2 101.8 243.1 99 246.8 95.1 249.5 91.7 252.3 85.6 253.5 79.5 253.5 75.2 254.7 74.9 253.8 70.7 252.3 66.4 250.5 62.4 247.7 58.8 244.6 55.7 241 53 234.9 50.2 230.6 49 226.1 48.7 221.5 49 217.2 49.9 213 51.7 206.2 39.9 207.1 38 206.6 38 207.4 35.9 209.3 35.9 210.8 35 211.4 34.7 214.2 31.3 215.4 29.5 215.4 28.3 214.5 27.3 213.5 27.3 208.4 28.6 203.5 28.6 202 28.3 200.2 28 198.3 28.3 197.4 28.8 197.1 29.8 197.4 30.1 199.2 31.6 201 33.2 203.2 34.4 205.3 35.3 204.4 36.8 204.1 36.8 203.8 37.1 157.5 37.1 159 32.8 158.4 32.5 160.6 26.8 160.3 26.4 160.3 26.1 159.3 25.5 159 26.1 158.4 25.8 157.8 24.9 157.8 24.6 157.8 24 158.1 23.7 159.3 22.8 161.1 22.8 169.7 23.7 170 20.9 165.4 20.4 159.9 20 158.1 20.4 156.9 20.9 155.9 21.9 155.1 23.1 155.1 24 155.1 24.9 155.7 26.4 156.2 27.6 157.5 28 155.9 31.9 155.7 31.6 149.2 50.5"/>
  <polygon class="cls-2" points="156.2 40.4 202.2 40.4 187 73.4 184.9 73.4 183.4 68.2 185.8 68.2 185.8 65.5 178.8 65.5 178.8 68.2 180.9 68.2 182.4 74 181.5 74.4 155.4 44.8 156.2 40.4"/>
  <polygon class="cls-2" points="204.7 42.9 210.5 53 208.6 54.5 206.8 56 205.3 57.6 203.8 59.1 202.2 60.9 201 63 200.2 65.2 199.2 67 198.3 69.5 197.7 71.6 197.4 73.7 197.1 76.2 197.1 78.3 193.1 78.9 192.2 77.1 191.6 76.2 190.4 74.9 205 42.6 204.7 42.9"/>
  <polygon class="cls-2" points="213.8 58.4 210.8 60.9 208.1 63.6 207.1 65.2 205.9 67.3 204.7 70.4 203.8 74 203.5 78 221.2 76.2 221.5 75.2 222.7 74 213.8 58.4"/>
  <polygon class="cls-2" points="216 57.2 219.7 55.7 223.6 55.1 227.6 54.8 231.3 55.4 236.7 57.9 240.1 60 242.8 62.8 245.6 66.4 247.4 71.3 248.3 75.2 248 81 247.1 84.7 245.6 88.4 243.1 91.7 239.8 94.8 235.5 97.5 231.8 99 227.3 99.6 223.9 99.6 220 99 216 97.2 212.6 95.1 209.9 92.9 207.4 90.2 205.6 86.5 204.1 82.8 203.8 81 221.5 79.2 222.7 80.8 224.2 81.6 226.1 82 227.9 81.6 229.4 80.4 230.3 78.9 230.6 78 230.3 76.2 229.7 74.6 228.5 73.4 227.6 72.8 226.4 72.5 224.8 72.8 216 57.2"/>
  <polygon class="cls-2" points="149.8 57.9 149 61.2 147.4 64.3 145.9 67.3 144.4 70.4 142.6 73.1 141.3 74.6 141.9 76.2 141.9 77.7 141 79.2 139.8 80.4 138.2 80.8 136.4 80.4 135.2 79.2 134.6 77.7 134.6 76.2 135.2 74.6 135.9 74 137.4 73.4 138.9 73.4 141.6 70 143.5 67.3 147.1 56.4 145.6 56 141.6 54.8 137.7 54.5 133.4 55.1 128.2 56.9 124.8 59.1 120.6 63 118.4 66.4 116.9 70 115.7 75.9 116 79.5 116.9 83.5 118.1 87.2 120.2 90.5 123 93.2 126.1 95.7 131.2 98.1 137.7 99 142.8 98.8 148.7 96.9 153.2 93.6 157.2 89 158.7 85.3 159.6 82.6 160.3 79.8 160.6 77.7 160.6 75.9 160.3 73.4 158.7 68.2 156.9 64.8 154.7 62.4 152.9 60.3 149.8 57.9"/>
</svg>