<?xml version="1.0" encoding="UTF-8" standalone="no"?>
<svg
   xmlns:dc="http://purl.org/dc/elements/1.1/"
   xmlns:cc="http://creativecommons.org/ns#"
   xmlns:rdf="http://www.w3.org/1999/02/22-rdf-syntax-ns#"
   xmlns:svg="http://www.w3.org/2000/svg"
   xmlns="http://www.w3.org/2000/svg"
   xml:space="preserve"
   viewBox="0 0 397.34901 165.856"
   height="165.856"
   width="397.349"
   y="0px"
   x="0px"
   id="Layer_1"
   version="1.1"><metadata
   id="metadata28"><rdf:RDF><cc:Work
       rdf:about=""><dc:format>image/svg+xml</dc:format><dc:type
         rdf:resource="http://purl.org/dc/dcmitype/StillImage" /></cc:Work></rdf:RDF></metadata><defs
   id="defs26" />
<g
   transform="translate(-13.924,-129.67)"
   id="LWPOLYLINE">
	
		<rect
   id="rect2"
   height="165.356"
   width="396.849"
   style="fill:#005eb8;stroke:#005eb8;stroke-width:0.5;stroke-miterlimit:10"
   y="129.92"
   x="14.174" />
</g>
<g
   transform="translate(-13.924,-129.67)"
   id="LWPOLYLINE_11_">
	<path
   id="path5"
   d="m 40.627,129.92 h 343.941 c 14.608,0 26.454,11.846 26.454,26.458 v 112.44 c 0,14.612 -11.846,26.458 -26.454,26.458 H 40.627 c -14.608,0 -26.453,-11.846 -26.453,-26.458 v -112.44 c 0,-14.612 11.845,-26.458 26.453,-26.458 z"
   style="fill:#ffffff" />
</g>
<g
   transform="translate(-13.924,-129.67)"
   id="LWPOLYLINE_12_">
	<path
   id="path8"
   d="M 212.597,265.513 H 397.791 V 156.378 c 0,-7.304 -5.919,-13.231 -13.223,-13.231 H 40.627 c -7.304,0 -13.227,5.928 -13.227,13.231 v 112.44 c 0,7.309 5.923,13.227 13.227,13.227 h 171.97 z"
   style="fill:#005eb8" />
</g>
<g
   transform="translate(-13.924,-129.67)"
   id="LWPOLYLINE_13_">
	<path
   id="path11"
   d="m 249.027,262.868 c 0.383,1.806 2.152,2.954 3.948,2.571 l 9.138,-1.942 c 1.805,-0.383 2.954,-2.152 2.571,-3.958 l -3.201,-15.027 -15.657,3.328 3.201,15.028"
   style="fill:#ffffff" />
</g>
<g
   transform="translate(-13.924,-129.67)"
   id="LWPOLYLINE_15_">
	<path
   id="path14"
   d="m 231.492,182.103 c 2.607,-0.556 5.289,0.492 6.83,2.672 L 252,204.115 c 0.401,0.565 0.839,1.108 1.304,1.623 l 6.813,7.441 c 1.203,1.317 2.033,2.927 2.397,4.673 l 3.967,18.635 c 0.256,1.24 -0.219,2.521 -1.222,3.301 -1.741,1.341 -3.766,2.28 -5.918,2.735 l -93.488,19.875 c -2.152,0.46 -4.382,0.424 -6.521,-0.096 -1.23,-0.301 -2.184,-1.281 -2.453,-2.521 l -3.962,-18.635 c -0.369,-1.741 -0.269,-3.552 0.297,-5.243 l 3.191,-9.57 c 0.219,-0.661 0.396,-1.331 0.533,-2.011 l 4.633,-23.234 c 0.52,-2.612 2.544,-4.669 5.151,-5.221 z"
   style="fill:#ffffff" />
</g>
<g
   transform="translate(-13.924,-129.67)"
   id="LWPOLYLINE_16_">
	<path
   id="path17"
   d="m 183.553,276.788 c 0.384,1.801 -0.766,3.569 -2.571,3.952 l -9.13,1.943 c -1.801,0.383 -3.57,-0.767 -3.953,-2.572 l -3.196,-15.027 15.659,-3.328 3.191,15.032"
   style="fill:#ffffff" />
</g>
<g
   transform="translate(-13.924,-129.67)"
   id="LWPOLYLINE_14_">
	<path
   id="path20"
   d="m 230.725,189.078 c 1.305,-0.273 2.645,0.251 3.42,1.341 l 13.168,18.62 -84.092,17.873 4.459,-22.368 c 0.26,-1.304 1.272,-2.334 2.576,-2.608 z"
   style="fill:#005eb8" />
</g>
</svg>