<?xml version="1.0" encoding="UTF-8" standalone="no"?>
<svg
   xmlns:dc="http://purl.org/dc/elements/1.1/"
   xmlns:cc="http://creativecommons.org/ns#"
   xmlns:rdf="http://www.w3.org/1999/02/22-rdf-syntax-ns#"
   xmlns:svg="http://www.w3.org/2000/svg"
   xmlns="http://www.w3.org/2000/svg"
   height="165.86"
   width="397.35001"
   xml:space="preserve"
   viewBox="0 0 397.34999 165.86"
   y="0px"
   x="0px"
   id="Layer_1"
   version="1.1"><metadata
   id="metadata33"><rdf:RDF><cc:Work
       rdf:about=""><dc:format>image/svg+xml</dc:format><dc:type
         rdf:resource="http://purl.org/dc/dcmitype/StillImage" /></cc:Work></rdf:RDF></metadata><defs
   id="defs31" />
<style
   id="style2"
   type="text/css">
	.st0{fill:#FFCE0D;stroke:#FFCE0D;stroke-width:0.5;stroke-miterlimit:10;}
	.st1{fill:#E4002B;}
	.st2{fill:#FFCE0A;}
	.st3{fill:#FFCE0C;}
	.st4{fill:#101820;}
</style>
<g
   transform="translate(-13.92,-129.67)"
   id="LWPOLYLINE">
	<rect
   style="fill:#ffce0d;stroke:#ffce0d;stroke-width:0.5;stroke-miterlimit:10"
   id="rect4"
   height="165.36"
   width="396.85001"
   class="st0"
   y="129.92"
   x="14.17" />
</g>
<g
   transform="translate(-13.92,-129.67)"
   id="LWPOLYLINE_11_">
	<path
   style="fill:#e4002b"
   id="path7"
   d="m 40.63,129.92 h 343.94 c 14.61,0 26.45,11.85 26.45,26.46 v 112.44 c 0,14.61 -11.85,26.46 -26.45,26.46 H 40.63 c -14.61,0 -26.45,-11.85 -26.45,-26.46 V 156.38 c -0.01,-14.61 11.84,-26.46 26.45,-26.46 z"
   class="st1" />
</g>
<g
   transform="translate(-13.92,-129.67)"
   id="LWPOLYLINE_12_">
	<path
   style="fill:#ffce0a"
   id="path10"
   d="M 212.6,265.51 H 397.79 V 156.38 c 0,-7.3 -5.92,-13.23 -13.22,-13.23 H 40.63 c -7.3,0 -13.23,5.93 -13.23,13.23 v 112.44 c 0,7.31 5.92,13.23 13.23,13.23 H 212.6 Z"
   class="st2" />
</g>
<g
   transform="translate(-13.92,-129.67)"
   id="LWPOLYLINE_13_">
	<path
   id="path13"
   d="m 249.03,262.87 c 0.38,1.81 2.15,2.95 3.95,2.57 l 9.14,-1.94 c 1.8,-0.38 2.95,-2.15 2.57,-3.96 l -3.2,-15.03 -15.66,3.33 3.2,15.03" />
</g>
<g
   transform="translate(-13.92,-129.67)"
   id="LWPOLYLINE_15_">
	<path
   id="path16"
   d="m 231.49,182.1 c 2.61,-0.56 5.29,0.49 6.83,2.67 L 252,204.12 c 0.4,0.57 0.84,1.11 1.3,1.62 l 6.81,7.44 c 1.2,1.32 2.03,2.93 2.4,4.67 l 3.97,18.63 c 0.26,1.24 -0.22,2.52 -1.22,3.3 -1.74,1.34 -3.77,2.28 -5.92,2.74 l -93.49,19.88 c -2.15,0.46 -4.38,0.42 -6.52,-0.1 -1.23,-0.3 -2.18,-1.28 -2.45,-2.52 l -3.96,-18.63 c -0.37,-1.74 -0.27,-3.55 0.3,-5.24 l 3.19,-9.57 c 0.22,-0.66 0.4,-1.33 0.53,-2.01 l 4.63,-23.23 c 0.52,-2.61 2.54,-4.67 5.15,-5.22 z" />
</g>
<g
   transform="translate(-13.92,-129.67)"
   id="LWPOLYLINE_16_">
	<path
   id="path19"
   d="m 183.55,276.79 c 0.38,1.8 -0.77,3.57 -2.57,3.95 l -9.13,1.94 c -1.8,0.38 -3.57,-0.77 -3.95,-2.57 l -3.2,-15.03 15.66,-3.33 3.19,15.04" />
</g>
<g
   transform="translate(-13.92,-129.67)"
   id="LWPOLYLINE_14_">
	<path
   style="fill:#ffce0c"
   id="path22"
   d="m 230.73,189.08 c 1.3,-0.27 2.64,0.25 3.42,1.34 l 13.17,18.62 -84.09,17.87 4.46,-22.37 c 0.26,-1.3 1.27,-2.33 2.58,-2.61 z"
   class="st3" />
</g>
<g
   transform="translate(-13.92,-129.67)"
   id="LWPOLYLINE_24_">
	<path
   style="fill:#101820"
   id="path25"
   d="M 387.69,282.05 H 212.6 v -16.54 h 185.2 v 6.61 c -0.01,5.48 -4.53,9.93 -10.11,9.93 z"
   class="st4" />
</g>
</svg>