<?xml version="1.0" encoding="UTF-8" standalone="no"?>
<svg
   xmlns:dc="http://purl.org/dc/elements/1.1/"
   xmlns:cc="http://creativecommons.org/ns#"
   xmlns:rdf="http://www.w3.org/1999/02/22-rdf-syntax-ns#"
   xmlns:svg="http://www.w3.org/2000/svg"
   xmlns="http://www.w3.org/2000/svg"
   xml:space="preserve"
   viewBox="0 0 397.34901 165.856"
   height="165.856"
   width="397.349"
   y="0px"
   x="0px"
   id="Layer_1"
   version="1.1"><metadata
   id="metadata28"><rdf:RDF><cc:Work
       rdf:about=""><dc:format>image/svg+xml</dc:format><dc:type
         rdf:resource="http://purl.org/dc/dcmitype/StillImage" /></cc:Work></rdf:RDF></metadata><defs
   id="defs26" />
<g
   transform="translate(-13.924,-129.67)"
   id="LWPOLYLINE">
	
		<rect
   id="rect2"
   height="165.356"
   width="396.849"
   style="fill:#005eb8;stroke:#005eb8;stroke-width:0.5;stroke-miterlimit:10"
   y="129.92"
   x="14.174" />
</g>
<g
   transform="translate(-13.924,-129.67)"
   id="LWPOLYLINE_8_">
	<path
   id="path5"
   d="m 40.627,129.92 h 343.941 c 14.608,0 26.454,11.846 26.454,26.459 v 112.439 c 0,14.612 -11.846,26.458 -26.454,26.458 H 40.627 c -14.608,0 -26.453,-11.846 -26.453,-26.458 V 156.379 c 0,-14.613 11.845,-26.459 26.453,-26.459 z"
   style="fill:#ffffff" />
</g>
<g
   transform="translate(-13.924,-129.67)"
   id="LWPOLYLINE_9_">
	<path
   id="path8"
   d="M 212.597,265.513 H 397.791 V 156.379 c 0,-7.305 -5.919,-13.232 -13.223,-13.232 H 40.627 c -7.304,0 -13.227,5.928 -13.227,13.232 v 112.439 c 0,7.309 5.923,13.227 13.227,13.227 h 171.97 z"
   style="fill:#005eb8" />
</g>
<g
   transform="translate(-13.924,-129.67)"
   id="LWPOLYLINE_10_">
	<path
   id="path11"
   d="m 309.092,262.175 c 0,1.842 1.496,3.338 3.338,3.338 h 9.337 c 1.843,0 3.338,-1.496 3.338,-3.338 V 246.81 h -16.013 v 15.365"
   style="fill:#ffffff" />
</g>
<g
   transform="translate(-13.924,-129.67)"
   id="LWPOLYLINE_11_">
	<path
   id="path14"
   d="m 308.737,179.526 c 2.663,0 5.07,1.587 6.128,4.035 l 9.355,21.763 c 0.273,0.638 0.593,1.258 0.939,1.855 l 5.116,8.699 c 0.902,1.541 1.377,3.287 1.377,5.07 v 19.049 c 0,1.268 -0.729,2.426 -1.879,2.973 -1.979,0.957 -4.149,1.45 -6.355,1.45 h -95.574 c -2.207,0 -4.377,-0.493 -6.365,-1.45 -1.14,-0.547 -1.869,-1.705 -1.869,-2.973 v -19.049 c 0,-1.783 0.474,-3.529 1.377,-5.07 l 5.106,-8.699 c 0.355,-0.598 0.675,-1.218 0.948,-1.855 l 9.355,-21.763 c 1.049,-2.448 3.466,-4.035 6.128,-4.035 z"
   style="fill:#ffffff" />
</g>
<g
   transform="translate(-13.924,-129.67)"
   id="LWPOLYLINE_12_">
	<path
   id="path17"
   d="m 242.161,262.175 c 0,1.842 -1.486,3.338 -3.329,3.338 h -9.337 c -1.842,0 -3.338,-1.496 -3.338,-3.338 V 246.81 h 16.004 v 15.365"
   style="fill:#ffffff" />
</g>
<g
   transform="translate(-13.924,-129.67)"
   id="LWPOLYLINE_15_">
	<path
   id="path20"
   d="m 306.54,186.197 c 1.331,0 2.534,0.793 3.063,2.015 l 9.01,20.955 H 232.65 l 9.009,-20.955 c 0.521,-1.222 1.732,-2.015 3.064,-2.015 z"
   style="fill:#005eb8" />
</g>
</svg>