<?xml version="1.0" encoding="UTF-8" standalone="no"?>
<svg
   xmlns:dc="http://purl.org/dc/elements/1.1/"
   xmlns:cc="http://creativecommons.org/ns#"
   xmlns:rdf="http://www.w3.org/1999/02/22-rdf-syntax-ns#"
   xmlns:svg="http://www.w3.org/2000/svg"
   xmlns="http://www.w3.org/2000/svg"
   xml:space="preserve"
   viewBox="0 0 356.68799 119.59202"
   height="119.59202"
   width="356.68799"
   y="0px"
   x="0px"
   id="Kuvataso_1"
   version="1.1"><metadata
   id="metadata33"><rdf:RDF><cc:Work
       rdf:about=""><dc:format>image/svg+xml</dc:format><dc:type
         rdf:resource="http://purl.org/dc/dcmitype/StillImage" /></cc:Work></rdf:RDF></metadata><defs
   id="defs31" />
<g
   transform="translate(-125.776,-273.41599)"
   id="g26">
	<rect
   id="rect2"
   height="119.592"
   width="356.68799"
   style="clip-rule:evenodd;fill:#ffd520;fill-rule:evenodd"
   y="273.41599"
   x="125.776" />
	<path
   id="path4"
   d="m 303.904,273.416 h 160.848 c 9.648,0 17.496,7.992 17.496,17.856 v 83.88 c 0,9.864 -7.848,17.856 -17.496,17.856 H 303.904 v -8.928 h 159.408 c 5.76,0 10.368,-4.608 10.368,-10.368 v -81 c 0,-5.688 -4.608,-10.368 -10.368,-10.368 H 303.904 Z m -160.416,0 h 160.416 v 8.928 H 144.568 c -5.688,0 -10.368,4.68 -10.368,10.368 v 81 c 0,5.76 4.68,10.368 10.368,10.368 h 159.336 v 8.928 H 143.488 c -9.648,0 -17.496,-7.992 -17.496,-17.856 v -83.88 c 0,-9.864 7.848,-17.856 17.496,-17.856 z"
   style="clip-rule:evenodd;fill:#ef3e42;fill-rule:evenodd" />
	<path
   id="path6"
   d="m 249.616,292.856 4.464,-0.144 c -10.368,36.864 -5.112,56.232 -0.144,79.92 -1.44,0 -3.24,0 -4.32,0 -9.72,-18.576 -10.728,-28.8 -10.656,-41.472 0.144,-18.648 7.776,-32.256 10.656,-38.304 z"
   style="clip-rule:evenodd;fill-rule:evenodd;stroke:#000000;stroke-width:0.21600001;stroke-miterlimit:10" />
	<path
   id="path8"
   d="m 427.456,293.936 -4.464,-0.144 c 10.368,36.936 5.112,56.232 0.144,79.92 1.44,0 3.24,0 4.32,0 9.72,-18.576 10.728,-28.8 10.656,-41.472 -0.072,-18.648 -7.776,-32.256 -10.656,-38.304 z"
   style="clip-rule:evenodd;fill-rule:evenodd;stroke:#000000;stroke-width:0.21600001;stroke-miterlimit:10" />
	<polygon
   id="polygon10"
   points="288.64,345.056 300.16,302.864 309.304,302.864 293.032,362.192 284.032,362.12 267.976,303.008 277.048,303.008 "
   style="clip-rule:evenodd;fill-rule:evenodd;stroke:#000000;stroke-width:0.21600001;stroke-miterlimit:10" />
	<g
   id="g16">
		<path
   id="path12"
   d="m 336.52,320.504 11.52,41.976 h 9.072 l -16.056,-59.184 h -4.536 z m 0,31.608 v -8.856 h 6.408 l 2.448,8.856 z m -20.808,10.224 h 9.144 l 11.592,-42.048 0.072,0.216 v -17.208 h -5.112 z m 20.808,-19.08 v 8.856 h -8.928 l 2.52,-8.856 z"
   style="clip-rule:evenodd;fill-rule:evenodd" />
		<path
   id="path14"
   d="m 315.712,362.336 h 9.144 l 11.592,-42.048 11.592,42.192 h 9.072 l -16.056,-59.184 h -9.648 z m 14.4,-19.08 h 12.816 l 2.448,8.856 h -17.784 z"
   style="clip-rule:evenodd;fill:none;fill-rule:evenodd;stroke:#000000;stroke-width:0.21600001;stroke-miterlimit:10" />
	</g>
	<g
   id="g22">
		<path
   id="path18"
   d="m 188.704,319.28 11.52,41.976 h 9.144 L 193.24,302.072 h -4.536 z m 0,31.608 v -8.856 h 6.408 l 2.448,8.856 z m -20.736,10.224 h 9.072 l 11.592,-42.048 0.072,0.216 v -17.208 h -5.04 z m 20.736,-19.08 v 8.856 h -8.856 l 2.448,-8.856 z"
   style="clip-rule:evenodd;fill-rule:evenodd" />
		<path
   id="path20"
   d="m 167.968,361.112 h 9.072 l 11.592,-42.048 11.592,42.192 h 9.144 L 193.24,302.072 h -9.576 z m 14.328,-19.08 h 12.816 l 2.448,8.856 h -17.712 z"
   style="clip-rule:evenodd;fill:none;fill-rule:evenodd;stroke:#000000;stroke-width:0.21600001;stroke-miterlimit:10" />
	</g>
	<polygon
   id="polygon24"
   points="378.928,331.736 398.152,303.008 408.592,303.008 391.528,328.496 408.448,362.12 398.656,362.12 386.056,336.632 378.928,347.576 378.928,362.192 370.216,362.192 370.216,303.008 378.928,303.008 "
   style="clip-rule:evenodd;fill-rule:evenodd;stroke:#000000;stroke-width:0.21600001;stroke-miterlimit:10" />
</g>
</svg>