<?xml version="1.0" encoding="UTF-8" standalone="no"?>
<svg
   xmlns:dc="http://purl.org/dc/elements/1.1/"
   xmlns:cc="http://creativecommons.org/ns#"
   xmlns:rdf="http://www.w3.org/1999/02/22-rdf-syntax-ns#"
   xmlns:svg="http://www.w3.org/2000/svg"
   xmlns="http://www.w3.org/2000/svg"
   height="132.29001"
   width="396.85001"
   xml:space="preserve"
   viewBox="0 0 396.84999 132.29"
   y="0px"
   x="0px"
   id="Layer_1"
   version="1.1"><metadata
   id="metadata21"><rdf:RDF><cc:Work
       rdf:about=""><dc:format>image/svg+xml</dc:format><dc:type
         rdf:resource="http://purl.org/dc/dcmitype/StillImage" /></cc:Work></rdf:RDF></metadata><defs
   id="defs19" />
<style
   id="style2"
   type="text/css">
	.st0{fill:#FFCD00;}
	.st1{fill:#E4002B;}
	.st2{fill:#101820;}
</style>
<g
   transform="translate(-14.17,-146.45)"
   id="LWPOLYLINE_42_">
	<rect
   style="fill:#ffcd00"
   id="rect4"
   height="132.28999"
   width="396.85001"
   class="st0"
   y="146.45"
   x="14.17" />
</g>
<g
   transform="translate(-14.17,-146.45)"
   id="LWPOLYLINE_44_">
	<path
   style="fill:#e4002b"
   id="path7"
   d="m 411.02,252.28 c 0,14.61 -11.85,26.46 -26.45,26.46 H 40.63 c -14.61,0 -26.45,-11.85 -26.45,-26.46 v -79.37 c 0,-14.61 11.84,-26.46 26.45,-26.46 h 343.94 c 14.61,0 26.45,11.85 26.45,26.46 z"
   class="st1" />
</g>
<g
   transform="translate(-14.17,-146.45)"
   id="LWPOLYLINE_43_">
	<path
   style="fill:#ffcd00"
   id="path10"
   d="m 397.79,252.28 c 0,7.31 -5.92,13.23 -13.22,13.23 H 40.63 c -7.3,0 -13.23,-5.92 -13.23,-13.23 v -79.37 c 0,-7.3 5.92,-13.23 13.23,-13.23 h 343.94 c 7.3,0 13.22,5.92 13.22,13.23 z"
   class="st0" />
</g>
<g
   transform="translate(-14.17,-146.45)"
   id="LWPOLYLINE_3_">
	<rect
   style="fill:#101820"
   id="rect13"
   height="7.9400001"
   width="26.450001"
   class="st2"
   y="208.63"
   x="185.5" />
</g>
</svg>