<?xml version="1.0" encoding="UTF-8"?>
<svg xmlns="http://www.w3.org/2000/svg" version="1.1" viewBox="0 0 425.2 425.2">
  <defs>
    <style>
      .cls-1 {
        fill: #e4002b;
      }

      .cls-2 {
        fill: #ffcd00;
      }

      .cls-3 {
        fill: #101820;
      }
    </style>
  </defs>
  <!-- Generator: Adobe Illustrator 28.7.1, SVG Export Plug-In . SVG Version: 1.2.0 Build 142)  -->
  <g>
    <g id="Layer_1">
      <g id="LWPOLYLINE">
        <rect class="cls-2" x="14.2" y="113.4" width="396.8" height="198.4"/>
      </g>
      <g id="LWPOLYLINE-2" data-name="LWPOLYLINE">
        <path class="cls-1" d="M14.2,139.8c0-14.6,11.8-26.5,26.5-26.5h343.9c14.6,0,26.5,11.8,26.5,26.5v145.5c0,14.6-11.8,26.5-26.5,26.5H40.6c-14.6,0-26.5-11.8-26.5-26.5v-145.5Z"/>
      </g>
      <g id="LWPOLYLINE-3" data-name="LWPOLYLINE">
        <path class="cls-2" d="M397.8,285.4c0,7.3-5.9,13.2-13.2,13.2H40.6c-7.3,0-13.2-5.9-13.2-13.2v-145.5c0-7.3,5.9-13.2,13.2-13.2h343.9c7.3,0,13.2,5.9,13.2,13.2v145.5h0Z"/>
      </g>
      <g id="LWPOLYLINE-4" data-name="LWPOLYLINE">
        <rect class="cls-3" x="184.5" y="168.9" width="26.5" height="7.9"/>
      </g>
      <g id="LWPOLYLINE-5" data-name="LWPOLYLINE">
        <rect class="cls-3" x="184.5" y="248.3" width="26.5" height="7.9"/>
      </g>
      <g id="LWPOLYLINE-6" data-name="LWPOLYLINE">
        <path class="cls-3" d="M296.4,288c7.4-23.2,7.4-48.2,0-71.4h4.2c13.3,22,13.3,49.5,0,71.4h-4.2Z"/>
      </g>
      <g id="LWPOLYLINE-7" data-name="LWPOLYLINE">
        <path class="cls-3" d="M128.9,288.6c-7.3-23.2-7.3-48.2,0-71.4h-4.2c-13.3,22-13.3,49.5,0,71.4h4.2Z"/>
      </g>
      <g id="LWPOLYLINE-8" data-name="LWPOLYLINE">
        <path class="cls-2" d="M150.1,240.4v2.6c0,3.7,3,6.6,6.6,6.6s6.6-3,6.6-6.6v-2.6c0-3.6-3-6.6-6.6-6.6s-6.6,3-6.6,6.6Z"/>
      </g>
      <g id="LWPOLYLINE-9" data-name="LWPOLYLINE">
        <path class="cls-2" d="M150.1,161v2.6c0,3.7,3,6.6,6.6,6.6s6.6-3,6.6-6.6v-2.6c0-3.6-3-6.6-6.6-6.6s-6.6,3-6.6,6.6Z"/>
      </g>
    </g>
  </g>
</svg>