<?xml version="1.0" encoding="UTF-8"?>
<svg xmlns="http://www.w3.org/2000/svg" version="1.1" viewBox="0 0 400 170">
  <defs>
    <style>
      .cls-1, .cls-2 {
        fill: #2160ad;
      }

      .cls-3, .cls-4 {
        fill: #fff;
      }

      .cls-4 {
        fill-rule: evenodd;
      }

      .cls-2 {
        stroke: #2160ad;
        stroke-miterlimit: 10;
        stroke-width: .5px;
      }
    </style>
  </defs>
  <!-- Generator: Adobe Illustrator 28.7.1, SVG Export Plug-In . SVG Version: 1.2.0 Build 142)  -->
  <g>
    <g id="Layer_1">
      <g id="LWPOLYLINE">
        <rect class="cls-2" width="400" height="170"/>
      </g>
      <g id="LWPOLYLINE-2">
        <path class="cls-3" d="M26.7,0h346.7c14.7,0,26.7,12.2,26.7,27.2v115.6c0,15-11.9,27.2-26.7,27.2H26.7c-14.8,0-26.7-12.2-26.7-27.2V27.2C0,12.2,11.9,0,26.7,0Z"/>
      </g>
      <g id="LWPOLYLINE-3">
        <path class="cls-1" d="M26.7,13.6h346.7c7.4,0,13.3,6.1,13.3,13.6v115.6c0,7.5-6,13.6-13.3,13.6H26.7c-7.4,0-13.3-6.1-13.3-13.6V27.2c0-7.5,6-13.6,13.3-13.6Z"/>
      </g>
      <g>
        <path class="cls-4" d="M147.6,139.4c-6.3-10.7-9.5-21.4-9.5-32.2s.7-10.1,2-15c1.3-4.8,3.9-10.7,7.6-17.2h-4.1c-3.3,4.6-6,9.4-8.2,14.9-2.2,5.3-3.3,11.1-3.3,17.3s1,11.1,3.1,16.7c2,5.6,4.8,10.8,8.4,15.5h4.1"/>
        <polyline class="cls-4" points="220.8 110.3 220.8 104.3 203.1 104.3 203.1 110.3 220.8 110.3"/>
        <path class="cls-4" d="M280.5,75.1h-4.1c6.4,10.7,9.5,21.4,9.5,32.3s-.7,10.1-2,15c-1.3,4.8-3.8,10.7-7.6,17.1h4.1c3.3-4.6,6.1-9.4,8.2-14.8,2.2-5.3,3.2-11.1,3.2-17.3s-1-11.1-3-16.7c-2.1-5.6-4.8-10.8-8.4-15.5"/>
      </g>
      <polyline class="cls-4" points="219.1 51.3 219.1 45.3 201.4 45.3 201.4 51.3 219.1 51.3"/>
    </g>
  </g>
</svg>