<?xml version="1.0" encoding="UTF-8"?>
<svg xmlns="http://www.w3.org/2000/svg" version="1.1" viewBox="0 0 360 120">
  <defs>
    <style>
      .cls-1, .cls-2 {
        fill: #fff;
      }

      .cls-3 {
        fill: #2060ad;
      }

      .cls-2 {
        fill-rule: evenodd;
      }
    </style>
  </defs>
  <!-- Generator: Adobe Illustrator 28.7.1, SVG Export Plug-In . SVG Version: 1.2.0 Build 142)  -->
  <g>
    <g id="Layer_1">
      <g>
        <rect class="cls-3" x=".4" y=".2" width="359.7" height="119.9"/>
        <path class="cls-1" d="M341.6.3H18.5C13.5.3,9,2.4,5.7,5.6,2.3,8.8.3,13.4.3,18.3H.3v83.8H.3c0,4.9,2,9.4,5.4,12.7,3.3,3.2,7.8,5.3,13,5.3h323c5,0,9.6-2,13-5.3,3.3-3.2,5.4-7.8,5.4-12.7h0V18.3h0c0-4.9-2.1-9.4-5.4-12.7-3.3-3.2-7.9-5.3-13-5.3h0Z"/>
        <path class="cls-3" d="M342.5,8.8H17.7c-2.6,0-5,.9-6.7,2.4-1.7,1.5-2.7,3.6-2.7,5.9h0v86.1h0c0,2.3,1.1,4.4,2.7,5.9,1.7,1.5,4.1,2.4,6.7,2.4h324.8c2.6,0,5-.9,6.7-2.4,1.7-1.5,2.8-3.6,2.8-5.9h0V17.1h0c0-2.3-1.1-4.4-2.8-5.9s-4.1-2.4-6.7-2.4h0Z"/>
        <g>
          <polygon class="cls-2" points="61.8 21.7 57.2 21.7 53.5 28.2 49.5 38.6 47.3 46.1 46.1 53.2 45.8 62.5 46.1 70.2 47.3 79.5 49.5 86.5 52.9 95.8 57.2 103.9 61.8 103.9 59.4 94.3 56 74.8 55.7 65.2 56 53.5 57.2 40.9 59.4 32.8 61.8 21.7"/>
          <polygon class="cls-2" points="302.7 103.9 307.6 103.9 311.1 97.4 315.4 86.9 317.2 79.5 318.5 72 319.1 63 318.5 55.3 317.2 46.1 315.4 38.6 311.7 29.4 307.6 21.7 302.7 21.7 305.5 31.3 308.6 50.4 309.2 60.3 308.6 72 307.3 84.7 305.5 92.7 302.7 103.9"/>
          <rect class="cls-1" x="167.5" y="57.2" width="36.4" height="8.9"/>
        </g>
      </g>
    </g>
  </g>
</svg>