<?xml version="1.0" encoding="UTF-8" standalone="no"?>
<svg
   xmlns:dc="http://purl.org/dc/elements/1.1/"
   xmlns:cc="http://creativecommons.org/ns#"
   xmlns:rdf="http://www.w3.org/1999/02/22-rdf-syntax-ns#"
   xmlns:svg="http://www.w3.org/2000/svg"
   xmlns="http://www.w3.org/2000/svg"
   xml:space="preserve"
   enable-background="new 0 0 595.28 841.89"
   viewBox="0 0 496.06397 496.104"
   height="496.104"
   width="496.064"
   y="0px"
   x="0px"
   id="Layer_1"
   version="1.0"><metadata
   id="metadata79"><rdf:RDF><cc:Work
       rdf:about=""><dc:format>image/svg+xml</dc:format><dc:type
         rdf:resource="http://purl.org/dc/dcmitype/StillImage" /></cc:Work></rdf:RDF></metadata><defs
   id="defs77" />
<g
   transform="translate(-50.03,-173.758)"
   id="LWPOLYLINE_231_">
	<rect
   style="fill:#ffd200"
   id="rect2"
   height="496.104"
   width="496.06299"
   y="173.758"
   x="50.030998" />
</g>
<g
   transform="translate(-50.03,-173.758)"
   id="LWPOLYLINE_233_">
	<path
   style="fill:#ef3e42"
   id="path5"
   d="M 521.329,669.862 H 74.795 c -13.697,0 -24.765,-11.128 -24.765,-24.806 V 198.563 c 0,-13.697 11.067,-24.805 24.765,-24.805 h 446.534 c 13.718,0 24.765,11.108 24.765,24.805 v 446.493 c 0,13.678 -11.047,24.806 -24.765,24.806 z" />
</g>
<g
   transform="translate(-50.03,-173.758)"
   id="LWPOLYLINE_232_">
	<path
   style="fill:#ffd200"
   id="path8"
   d="M 521.329,657.439 H 74.795 c -6.818,0 -12.382,-5.585 -12.382,-12.383 V 198.563 c 0,-6.859 5.564,-12.423 12.382,-12.423 h 446.534 c 6.839,0 12.383,5.564 12.383,12.423 v 446.493 c 0,6.798 -5.544,12.383 -12.383,12.383 z" />
</g>
<g
   transform="translate(-50.03,-173.758)"
   id="LWPOLYLINE_235_">
	<path
   id="path11"
   d="m 194.37,276.682 c -5.564,5.18 -8.68,12.382 -8.68,19.889 v 6.98 c 0,15.012 12.221,27.233 27.233,27.233 15.195,0 27.416,-12.221 27.416,-27.233 v -6.98 c 0,-7.506 -3.278,-14.709 -8.64,-19.889 3.925,-4.512 6.029,-10.298 6.029,-16.328 v -3.925 c 0,-13.697 -11.087,-24.825 -24.805,-24.825 -13.677,0 -24.785,11.128 -24.785,24.825 v 3.925 c 0.001,6.029 2.307,11.816 6.232,16.328 z" />
</g>
<g
   transform="translate(-50.03,-173.758)"
   id="LWPOLYLINE_237_">
	<rect
   id="rect14"
   height="14.932"
   width="32.271"
   y="273.728"
   x="265.12399" />
</g>
<g
   transform="translate(-50.03,-173.758)"
   id="LWPOLYLINE_238_">
	<path
   id="path17"
   d="m 322.2,246.171 c 5.867,-2.995 10.258,-8.235 12.22,-14.567 h 15.013 v 99.18 h -14.851 v -76.398 l -10.905,2.043 z" />
</g>
<g
   transform="translate(-50.03,-173.758)"
   id="LWPOLYLINE_234_">
	<path
   style="fill:#ffd200"
   id="path20"
   d="m 200.562,303.551 c 0,6.879 5.543,12.423 12.362,12.423 6.879,0 12.382,-5.544 12.382,-12.423 v -6.98 c 0,-6.859 -5.503,-12.423 -12.382,-12.423 -6.818,0 -12.362,5.564 -12.362,12.423 z" />
</g>
<g
   transform="translate(-50.03,-173.758)"
   id="LWPOLYLINE_239_">
	<path
   id="path23"
   d="m 371.284,231.604 v 14.891 h 32.817 c -1.538,7.972 -3.966,15.741 -7.203,23.146 -6.069,15.114 -9.145,31.158 -9.145,47.385 v 13.839 h 14.81 v -18.796 c 0,-16.57 3.156,-32.959 9.308,-48.376 3.398,-10.339 5.382,-21.204 6.069,-32.089 z" />
</g>
<g
   transform="translate(-50.03,-173.758)"
   id="LWPOLYLINE_236_">
	<path
   style="fill:#ffd200"
   id="path26"
   d="m 202.989,256.429 v 3.925 c 0,5.544 4.552,9.934 9.934,9.934 5.564,0 9.955,-4.39 9.955,-9.934 v -3.925 c 0,-5.503 -4.391,-9.934 -9.955,-9.934 -5.381,0 -9.934,4.431 -9.934,9.934 z" />
</g>
<g
   transform="translate(-50.03,-173.758)"
   id="LWPOLYLINE_240_">
	<path
   id="path29"
   d="m 154.067,369.853 c -22.155,30.268 -22.155,71.34 0,101.527 -2.751,-2.266 -5.24,-4.693 -7.506,-7.445 -23.956,-28.002 -20.516,-70.127 7.506,-94.082 z" />
</g>
<g
   transform="translate(-50.03,-173.758)"
   id="LWPOLYLINE_242_">
	<path
   id="path32"
   d="m 188.806,417.217 c -5.382,5.241 -8.498,12.423 -8.498,19.929 v 6.96 c 0,15.053 12.099,27.273 27.233,27.273 15.013,0 27.233,-12.221 27.233,-27.273 v -6.96 c 0,-7.506 -3.076,-14.688 -8.619,-19.929 4.066,-4.471 6.191,-10.258 6.191,-16.287 v -3.925 c 0,-13.697 -11.107,-24.825 -24.805,-24.825 -13.697,0 -24.765,11.128 -24.765,24.825 v 3.925 c 10e-4,6.029 2.125,11.816 6.03,16.287 z" />
</g>
<g
   transform="translate(-50.03,-173.758)"
   id="LWPOLYLINE_241_">
	<path
   style="fill:#ffd200"
   id="path35"
   d="m 195.159,444.106 c 0,6.879 5.544,12.463 12.382,12.463 6.879,0 12.423,-5.584 12.423,-12.463 v -6.96 c 0,-6.879 -5.543,-12.423 -12.423,-12.423 -6.838,0 -12.382,5.544 -12.382,12.423 z" />
</g>
<g
   transform="translate(-50.03,-173.758)"
   id="LWPOLYLINE_244_">
	<rect
   id="rect38"
   height="14.932"
   width="32.271"
   y="414.30399"
   x="259.57999" />
</g>
<g
   transform="translate(-50.03,-173.758)"
   id="LWPOLYLINE_243_">
	<path
   style="fill:#ffd200"
   id="path41"
   d="m 197.587,397.005 v 3.925 c 0,5.463 4.411,9.934 9.954,9.934 5.382,0 9.955,-4.471 9.955,-9.934 v -3.925 c 0,-5.543 -4.573,-9.934 -9.955,-9.934 -5.543,0 -9.954,4.39 -9.954,9.934 z" />
</g>
<g
   transform="translate(-50.03,-173.758)"
   id="LWPOLYLINE_245_">
	<path
   id="path44"
   d="m 316.656,386.747 c 5.867,-3.035 10.258,-8.295 12.221,-14.567 h 15.174 v 99.2 h -15.013 v -76.418 l -10.905,2.043 z" />
</g>
<g
   transform="translate(-50.03,-173.758)"
   id="LWPOLYLINE_246_">
	<path
   id="path47"
   d="m 368.815,444.106 c 0,15.053 12.1,27.273 27.273,27.273 14.973,0 27.233,-12.221 27.233,-27.273 v -5.989 c 0,-8.012 -3.602,-15.659 -9.631,-20.9 4.573,-4.876 7.162,-11.452 7.162,-18.25 v -1.963 c 0,-13.697 -11.087,-24.825 -24.765,-24.825 -13.677,0 -24.805,11.128 -24.805,24.825 v 1.963 h 14.851 v -1.963 c 0,-5.543 4.37,-9.934 9.954,-9.934 5.342,0 9.955,4.391 9.955,9.934 v 1.963 c 0,6.515 -5.423,11.896 -11.897,11.896 h -1.982 v 13.859 h 3.925 c 6.799,0 12.383,5.544 12.383,12.423 v 6.96 c 0,6.879 -5.584,12.463 -12.383,12.463 -6.879,0 -12.423,-5.584 -12.423,-12.463 h -14.85 z" />
</g>
<g
   transform="translate(-50.03,-173.758)"
   id="LWPOLYLINE_247_">
	<path
   id="path50"
   d="m 448.087,471.38 c 22.216,-30.187 22.216,-71.259 0,-101.527 2.792,2.327 5.22,4.754 7.486,7.425 23.955,28.043 20.557,70.228 -7.486,94.102 z" />
</g>
<g
   transform="translate(-50.03,-173.758)"
   id="LWPOLYLINE_249_">
	<path
   style="fill:#ef3e42"
   id="path53"
   d="m 187.815,557.813 c -5.402,5.221 -8.619,12.383 -8.619,19.869 v 7 c 0,15.053 12.22,27.273 27.395,27.273 14.972,0 27.233,-12.221 27.233,-27.273 v -7 c 0,-7.486 -3.116,-14.648 -8.68,-19.869 4.087,-4.491 6.191,-10.278 6.191,-16.308 v -3.925 c 0,-13.677 -11.047,-24.846 -24.744,-24.846 -13.698,0 -24.805,11.169 -24.805,24.846 v 3.925 c 0,6.03 2.124,11.817 6.029,16.308 z" />
</g>
<g
   transform="translate(-50.03,-173.758)"
   id="LWPOLYLINE_248_">
	<path
   style="fill:#ffd200"
   id="path56"
   d="m 194.168,584.683 c 0,6.879 5.543,12.383 12.423,12.383 6.818,0 12.382,-5.504 12.382,-12.383 v -7 c 0,-6.839 -5.564,-12.383 -12.382,-12.383 -6.879,0 -12.423,5.544 -12.423,12.383 z" />
</g>
<g
   transform="translate(-50.03,-173.758)"
   id="LWPOLYLINE_250_">
	<path
   style="fill:#ffd200"
   id="path59"
   d="m 196.636,537.581 v 3.925 c 0,5.463 4.391,9.914 9.955,9.914 5.382,0 9.934,-4.451 9.934,-9.914 v -3.925 c 0,-5.544 -4.552,-9.954 -9.934,-9.954 -5.564,0 -9.955,4.41 -9.955,9.954 z" />
</g>
<g
   transform="translate(-50.03,-173.758)"
   id="LWPOLYLINE_251_">
	<rect
   style="fill:#ef3e42"
   id="rect62"
   height="14.891"
   width="32.312"
   y="554.90002"
   x="258.58801" />
</g>
<g
   transform="translate(-50.03,-173.758)"
   id="LWPOLYLINE_252_">
	<path
   style="fill:#ef3e42"
   id="path65"
   d="m 315.685,527.303 c 5.888,-2.994 10.278,-8.336 12.221,-14.567 h 15.013 v 99.221 h -14.851 v -76.398 l -10.946,2.023 z" />
</g>
<g
   transform="translate(-50.03,-173.758)"
   id="LWPOLYLINE_253_">
	<polygon
   style="fill:#ef3e42"
   id="polygon68"
   points="416.483,577.237 424.253,577.237 424.253,592.128 416.483,592.128 416.483,611.956 401.431,611.956 401.431,592.128 364.77,592.128 364.77,577.237 401.431,512.735 416.483,512.735 " />
</g>
<g
   transform="translate(-50.03,-173.758)"
   id="LWPOLYLINE_254_">
	<polygon
   style="fill:#ffd200"
   id="polygon71"
   points="401.431,577.237 381.684,577.237 401.431,542.356 " />
</g>
</svg>