<?xml version="1.0" encoding="UTF-8"?>
<svg xmlns="http://www.w3.org/2000/svg" version="1.1" xmlns:cc="http://creativecommons.org/ns#" xmlns:dc="http://purl.org/dc/elements/1.1/" xmlns:rdf="http://www.w3.org/1999/02/22-rdf-syntax-ns#" xmlns:svg="http://www.w3.org/2000/svg" xmlns:xlink="http://www.w3.org/1999/xlink" viewBox="0 0 359.1 193.1">
  <defs>
    <style>
      .cls-1 {
        clip-path: url(#clippath-6);
      }

      .cls-2 {
        clip-path: url(#clippath-4);
      }

      .cls-3 {
        fill: red;
        stroke: #fff;
        stroke-miterlimit: 10;
      }

      .cls-3, .cls-4 {
        fill-rule: evenodd;
      }

      .cls-5 {
        clip-path: url(#clippath-9);
      }

      .cls-4 {
        fill: #fff;
      }

      .cls-6 {
        fill: none;
      }

      .cls-7 {
        clip-path: url(#clippath-2);
      }

      .cls-8 {
        fill: #005eb8;
      }

      .cls-9 {
        clip-path: url(#clippath);
      }
    </style>
    <clipPath id="clippath">
      <rect class="cls-6" x=".2" width="358.3" height="193"/>
    </clipPath>
    <clipPath id="clippath-2">
      <rect class="cls-6" x=".2" width="358.3" height="193"/>
    </clipPath>
    <clipPath id="clippath-4">
      <rect class="cls-6" x=".2" width="358.3" height="193"/>
    </clipPath>
    <clipPath id="clippath-6">
      <rect class="cls-6" x=".2" width="358.3" height="193"/>
    </clipPath>
    <clipPath id="clippath-9">
      <rect class="cls-6" x=".2" width="358.3" height="193"/>
    </clipPath>
  </defs>
  <!-- Generator: Adobe Illustrator 28.7.1, SVG Export Plug-In . SVG Version: 1.2.0 Build 142)  -->
  <g>
    <g id="svg17">
      <rect id="rect6" class="cls-8" x=".2" width="358.3" height="193"/>
      <path id="path10" class="cls-4" d="M179.5.4h157.8c12,0,21.8,9.9,21.8,21.8v149.1c0,12-9.9,21.8-21.8,21.8h-157.8v-9.2h157.8c6.9,0,12.6-5.5,12.6-12.1V20.5c0-6.6-5.7-12.1-12.6-12.1h-157.8V.4h0ZM21.8.4h157.7v8.1H21.8c-6.9,0-12.6,5.5-12.6,12.1v151.3c0,6.6,5.7,12.1,12.6,12.1h157.7v9.2H21.8c-12,0-21.8-9.9-21.8-21.8V22.2C0,10.2,9.9.4,21.8.4Z"/>
      <g class="cls-9">
        <path class="cls-4" d="M131.4,121.9c-5.5-8.8-8.3-17.7-8.3-26.6s.6-8.3,1.7-12.4c1.1-4,3.4-8.8,6.6-14.2h-3.6c-2.9,3.8-5.2,7.8-7.1,12.3-1.9,4.4-2.9,9.2-2.9,14.3s.9,9.2,2.7,13.8c1.7,4.6,4.2,8.9,7.3,12.8h3.6"/>
      </g>
      <g class="cls-7">
        <polyline class="cls-4" points="195.1 97.9 195.1 92.9 179.7 92.9 179.7 97.9 195.1 97.9"/>
      </g>
      <g class="cls-2">
        <path class="cls-4" d="M247,68.8h-3.6c5.6,8.8,8.3,17.7,8.3,26.7s-.6,8.3-1.7,12.4c-1.1,4-3.3,8.8-6.6,14.1h3.6c2.9-3.8,5.3-7.8,7.1-12.2,1.9-4.4,2.8-9.2,2.8-14.3s-.9-9.2-2.6-13.8c-1.8-4.6-4.2-8.9-7.3-12.8"/>
      </g>
      <g class="cls-1">
        <polyline class="cls-4" points="193.6 49.2 193.6 44.2 178.2 44.2 178.2 49.2 193.6 49.2"/>
      </g>
      <g class="cls-5">
        <polyline class="cls-3" points="193.9 149.3 193.9 144.3 178.1 144.3 178.1 149.3 193.9 149.3"/>
      </g>
    </g>
  </g>
</svg>