<?xml version="1.0" encoding="UTF-8"?>
<svg id="svg17" xmlns="http://www.w3.org/2000/svg" version="1.1" xmlns:cc="http://creativecommons.org/ns#" xmlns:dc="http://purl.org/dc/elements/1.1/" xmlns:rdf="http://www.w3.org/1999/02/22-rdf-syntax-ns#" xmlns:svg="http://www.w3.org/2000/svg" xmlns:xlink="http://www.w3.org/1999/xlink" viewBox="0 0 359.1 193.1">
  <defs>
    <style>
      .cls-1 {
        fill: #fff;
      }

      .cls-1, .cls-2 {
        fill-rule: evenodd;
      }

      .cls-1, .cls-3, .cls-4 {
        stroke-width: 0px;
      }

      .cls-5 {
        clip-path: url(#clippath-2);
      }

      .cls-6 {
        clip-path: url(#clippath-6);
      }

      .cls-2 {
        fill: red;
        stroke: #fff;
        stroke-miterlimit: 10;
      }

      .cls-3 {
        fill: none;
      }

      .cls-7 {
        clip-path: url(#clippath-7);
      }

      .cls-8 {
        clip-path: url(#clippath-1);
      }

      .cls-9 {
        clip-path: url(#clippath-4);
      }

      .cls-4 {
        fill: #005eb8;
      }

      .cls-10 {
        clip-path: url(#clippath-9);
      }

      .cls-11 {
        clip-path: url(#clippath);
      }

      .cls-12 {
        clip-path: url(#clippath-3);
      }

      .cls-13 {
        clip-path: url(#clippath-8);
      }

      .cls-14 {
        clip-path: url(#clippath-5);
      }

      .cls-15 {
        clip-path: url(#clippath-10);
      }
    </style>
    <clipPath id="clippath">
      <rect class="cls-3" x=".2" width="358.3" height="193"/>
    </clipPath>
    <clipPath id="clippath-1">
      <rect class="cls-3" x=".2" width="358.3" height="193"/>
    </clipPath>
    <clipPath id="clippath-2">
      <rect class="cls-3" x=".2" width="358.3" height="193"/>
    </clipPath>
    <clipPath id="clippath-3">
      <rect class="cls-3" x=".2" width="358.3" height="193"/>
    </clipPath>
    <clipPath id="clippath-4">
      <rect class="cls-3" x=".2" width="358.3" height="193"/>
    </clipPath>
    <clipPath id="clippath-5">
      <rect class="cls-3" x=".2" width="358.3" height="193"/>
    </clipPath>
    <clipPath id="clippath-6">
      <rect class="cls-3" x=".2" width="358.3" height="193"/>
    </clipPath>
    <clipPath id="clippath-7">
      <rect class="cls-3" x=".2" width="358.3" height="193"/>
    </clipPath>
    <clipPath id="clippath-8">
      <rect class="cls-3" x=".2" width="358.3" height="193"/>
    </clipPath>
    <clipPath id="clippath-9">
      <rect class="cls-3" x=".2" width="358.3" height="193"/>
    </clipPath>
    <clipPath id="clippath-10">
      <rect class="cls-3" x=".2" width="358.3" height="193"/>
    </clipPath>
  </defs>
  <g id="HATPUN">
    <g id="g14">
      <rect id="rect6" class="cls-4" x=".2" width="358.3" height="193"/>
      <path id="path8" class="cls-4" d="M340.9,8.6H16.1c-2.6,0-5,.9-6.7,2.4s-2.8,3.6-2.8,5.9h0v86.1h0c0,2.2,1.1,4.3,2.8,5.8,1.7,1.5,4.1,2.5,6.7,2.5h324.8c2.6,0,5-1,6.7-2.5s2.7-3.6,2.7-5.8h0V17h0c0-2.3-1-4.4-2.7-5.9s-4.1-2.4-6.7-2.4h0Z"/>
      <path id="path10" class="cls-1" d="M179.5.4h157.8c12,0,21.8,9.9,21.8,21.8v149.1c0,12-9.9,21.8-21.8,21.8h-157.8v-9.2h157.8c6.9,0,12.6-5.5,12.6-12.1V20.5c0-6.6-5.7-12.1-12.6-12.1h-157.8V.4h0ZM21.8.4h157.7v8.1H21.8c-6.9,0-12.6,5.5-12.6,12.1v151.3c0,6.6,5.7,12.1,12.6,12.1h157.7v9.2H21.8c-12,0-21.8-9.9-21.8-21.8V22.2C0,10.2,9.9.4,21.8.4Z"/>
    </g>
  </g>
  <g>
    <g class="cls-11">
      <path class="cls-1" d="M131.4,121.9c-5.5-8.8-8.3-17.7-8.3-26.6s.6-8.3,1.7-12.4c1.1-4,3.4-8.8,6.6-14.2h-3.6c-2.9,3.8-5.2,7.8-7.1,12.3-1.9,4.4-2.9,9.2-2.9,14.3s.9,9.2,2.7,13.8c1.7,4.6,4.2,8.9,7.3,12.8h3.6"/>
    </g>
    <g class="cls-8">
      <path class="cls-1" d="M161.6,110l-11.1-15.6,10.3-13.8h-6l-7.2,10.2c-.4-.7-2.6-4.1-6.6-10.2h-6.3l10,14-10.9,15.3h6.1l7.8-11.6,7.7,11.6h6.2"/>
    </g>
    <g class="cls-5">
      <polyline class="cls-1" points="195.1 97.9 195.1 92.9 179.7 92.9 179.7 97.9 195.1 97.9"/>
    </g>
    <g class="cls-12">
      <path class="cls-1" d="M241,110l-11-15.6,10.2-13.8h-6l-7.2,10.2c-.4-.7-2.6-4.1-6.6-10.2h-6.3l10,14-10.9,15.3h6.1l7.8-11.6,7.7,11.6h6.2"/>
    </g>
    <g class="cls-9">
      <path class="cls-1" d="M247,68.8h-3.6c5.6,8.8,8.3,17.7,8.3,26.7s-.6,8.3-1.7,12.4c-1.1,4-3.3,8.8-6.6,14.1h3.6c2.9-3.8,5.3-7.8,7.1-12.2,1.9-4.4,2.8-9.2,2.8-14.3s-.9-9.2-2.6-13.8c-1.8-4.6-4.2-8.9-7.3-12.8"/>
    </g>
  </g>
  <g>
    <g class="cls-14">
      <path class="cls-1" d="M160.1,61.4l-11.1-15.6,10.3-13.8h-6l-7.2,10.2c-.4-.7-2.6-4.1-6.6-10.2h-6.3l10,14.1-10.9,15.3h6.1l7.8-11.6,7.7,11.6h6.2"/>
    </g>
    <g class="cls-6">
      <polyline class="cls-1" points="193.6 49.2 193.6 44.2 178.2 44.2 178.2 49.2 193.6 49.2"/>
    </g>
    <g class="cls-7">
      <path class="cls-1" d="M239.5,61.4l-11-15.6,10.2-13.8h-6l-7.2,10.2c-.4-.7-2.6-4.1-6.6-10.2h-6.3l10,14.1-10.9,15.3h6.1l7.8-11.6,7.7,11.6h6.2"/>
    </g>
  </g>
  <g>
    <g class="cls-13">
      <path class="cls-2" d="M159.5,161.5l-11.4-15.6,10.6-13.8h-6.2l-7.4,10.2c-.4-.7-2.7-4.1-6.8-10.2h-6.5l10.3,14.1-11.2,15.3h6.3l8-11.6,7.9,11.6h6.4"/>
    </g>
    <g class="cls-10">
      <polyline class="cls-2" points="193.9 149.3 193.9 144.3 178.1 144.3 178.1 149.3 193.9 149.3"/>
    </g>
    <g class="cls-15">
      <path class="cls-2" d="M241,161.5l-11.3-15.6,10.5-13.8h-6.2l-7.4,10.2c-.4-.7-2.7-4.1-6.8-10.2h-6.5l10.3,14.1-11.2,15.3h6.3l8-11.6,7.9,11.6h6.4"/>
    </g>
  </g>
</svg>