<?xml version="1.0" encoding="UTF-8"?>
<svg id="Layer_2" data-name="Layer 2" xmlns="http://www.w3.org/2000/svg" version="1.1" xmlns:cc="http://creativecommons.org/ns#" xmlns:dc="http://purl.org/dc/elements/1.1/" xmlns:rdf="http://www.w3.org/1999/02/22-rdf-syntax-ns#" xmlns:svg="http://www.w3.org/2000/svg" viewBox="0 0 361.1 121.4">
  <defs>
    <style>
      .cls-1, .cls-2 {
        stroke-width: 0px;
      }

      .cls-1, .cls-3 {
        fill: #005eb8;
      }

      .cls-2 {
        fill: #fff;
      }

      .cls-3 {
        stroke: #005eb8;
        stroke-miterlimit: 10;
        stroke-width: .5px;
      }
    </style>
  </defs>
  <g id="LWPOLYLINE">
    <rect class="cls-3" y="0" width="361.1" height="121.4"/>
  </g>
  <g id="LWPOLYLINE-2" data-name="LWPOLYLINE">
    <path class="cls-2" d="M361.1,97.1c0,13.4-10.8,24.3-24.1,24.3H24.1C10.8,121.4,0,110.5,0,97.1V24.3C0,10.9,10.8,0,24.1,0h313c13.3,0,24.1,10.9,24.1,24.3v72.8h0Z"/>
  </g>
  <g id="LWPOLYLINE-3" data-name="LWPOLYLINE">
    <path class="cls-1" d="M349.1,97.1c0,6.7-5.4,12.1-12,12.1H24.1c-6.6,0-12-5.4-12-12.1V24.3c0-6.7,5.4-12.1,12-12.1h313c6.6,0,12,5.4,12,12.1v72.8Z"/>
  </g>
</svg>