<?xml version="1.0" encoding="UTF-8"?>
<svg id="Layer_1" data-name="Layer 1" xmlns="http://www.w3.org/2000/svg" version="1.1" viewBox="0 0 400 170">
  <defs>
    <style>
      .cls-1 {
        fill: #121921;
      }

      .cls-1, .cls-2, .cls-3 {
        stroke-width: 0px;
      }

      .cls-2 {
        fill: #ffce04;
      }

      .cls-3 {
        fill: #e31e2e;
      }
    </style>
  </defs>
  <g id="LWPOLYLINE">
    <rect class="cls-2" width="400" height="170"/>
  </g>
  <g id="LWPOLYLINE-2" data-name="LWPOLYLINE">
    <path class="cls-3" d="M400,142.8c0,15-11.9,27.2-26.7,27.2H26.7C11.9,170,0,157.8,0,142.8V27.2C0,12.2,12,0,26.7,0h346.7C388.1,0,400,12.2,400,27.2v115.6h0Z"/>
  </g>
  <g id="LWPOLYLINE-3" data-name="LWPOLYLINE">
    <path class="cls-2" d="M386.7,142.8c0,7.5-6,13.6-13.3,13.6H26.7c-7.4,0-13.3-6.1-13.3-13.6V27.2c0-7.5,6-13.6,13.3-13.6h346.7c7.4,0,13.3,6.1,13.3,13.6v115.6Z"/>
  </g>
  <g id="LWPOLYLINE-4" data-name="LWPOLYLINE">
    <rect class="cls-1" x="178.7" y="112.5" width="20" height="6.1"/>
  </g>
  <g id="LWPOLYLINE-5" data-name="LWPOLYLINE">
    <polygon class="cls-1" points="337.8 22.8 322.7 80.5 331.4 80.5 346.6 22.8 337.8 22.8"/>
  </g>
  <g id="LWPOLYLINE-6" data-name="LWPOLYLINE">
    <rect class="cls-1" x="279.7" y="39.7" width="6.8" height="34.6"/>
  </g>
  <g id="LWPOLYLINE-7" data-name="LWPOLYLINE">
    <rect class="cls-1" x="279.7" y="28.2" width="6.8" height="6.9"/>
  </g>
  <g id="LWPOLYLINE-8" data-name="LWPOLYLINE">
    <path class="cls-1" d="M264.8,48.5c0-1.8-1.4-3.2-3.2-3.2h-.5c-3,0-5.4,2.5-5.4,5.5v23.5h-6.8v-25.8c0-1.8-1.4-3.2-3.2-3.2h-.5c-3,0-5.4,2.5-5.4,5.5v23.5h-6.8v-34.6h6.8v2.8c2.2-1.4,4.7-2.3,7.3-2.7.3,0,.6,0,1,0,2.5.2,4.8,1.5,6.2,3.7,2.5-1.9,5.5-3.2,8.6-3.7.3,0,.6,0,1,0,4.3.3,7.6,3.9,7.6,8.3v26.3h-6.8v-25.8h0Z"/>
  </g>
  <g id="LWPOLYLINE-9" data-name="LWPOLYLINE">
    <path class="cls-1" d="M302.3,74.3h-6.8v-34.6h6.8v2.8c2.2-1.4,4.7-2.3,7.3-2.7.3,0,.6,0,1,0,4.3.3,7.6,3.9,7.6,8.3v26.3h-6.8v-25.8c0-1.8-1.4-3.2-3.2-3.2h-.5c-3,0-5.4,2.5-5.4,5.5v23.5h0Z"/>
  </g>
  <g id="LWPOLYLINE-10" data-name="LWPOLYLINE">
    <path class="cls-1" d="M373.7,48.7v-.2c0-4.6-3.6-8.3-8.1-8.3-2.7.3-5.4,1.3-7.7,2.8v-14.3h-6.8v46.1h6.8v-24.4c0-2.5,2-4.6,4.5-4.6s4.5,2.1,4.5,4.6v24.4h6.8v-26.1Z"/>
  </g>
</svg>