<?xml version="1.0" encoding="UTF-8"?>
<svg id="Layer_1" data-name="Layer 1" xmlns="http://www.w3.org/2000/svg" version="1.1" viewBox="0 0 400 300">
  <defs>
    <style>
      .cls-1 {
        fill: #ffcd00;
      }

      .cls-1, .cls-2, .cls-3 {
        stroke-width: 0px;
      }

      .cls-2 {
        fill: #e4002b;
      }

      .cls-3 {
        fill: #101820;
      }
    </style>
  </defs>
  <g id="LWPOLYLINE">
    <rect class="cls-1" x=".8" y="-.1" width="399.2" height="300.2"/>
  </g>
  <g id="LWPOLYLINE-2" data-name="LWPOLYLINE">
    <path class="cls-2" d="M400,273.4c0,14.7-11.9,26.7-26.6,26.7H27.4c-14.7,0-26.6-11.9-26.6-26.7V26.6C.8,11.8,12.7-.1,27.4-.1h346c14.7,0,26.6,12,26.6,26.7v246.8h0Z"/>
  </g>
  <g id="LWPOLYLINE-3" data-name="LWPOLYLINE">
    <path class="cls-1" d="M386.7,273.4c0,7.4-6,13.3-13.3,13.3H27.4c-7.3,0-13.3-6-13.3-13.3V26.6c0-7.4,6-13.3,13.3-13.3h346c7.3,0,13.3,6,13.3,13.3v246.8Z"/>
  </g>
  <g id="LWPOLYLINE-4" data-name="LWPOLYLINE">
    <polygon class="cls-3" points="47.9 77.2 127.2 77.2 133.9 143.4 120.6 222.8 54.5 222.8 41.3 143.4 47.9 77.2"/>
  </g>
  <g id="LWPOLYLINE-5" data-name="LWPOLYLINE">
    <rect class="cls-3" x="233.3" y="146" width="26.5" height="7.9"/>
  </g>
  <g id="LWPOLYLINE-6" data-name="LWPOLYLINE">
    <path class="cls-3" d="M173.6,185.7h4.2c-7.3-23.2-7.3-48.2,0-71.4h-4.2c-13.3,22-13.3,49.5,0,71.4Z"/>
  </g>
  <g id="LWPOLYLINE-7" data-name="LWPOLYLINE">
    <path class="cls-3" d="M349.4,185.7h-4.2c7.3-23.2,7.3-48.2,0-71.4h4.2c13.3,22,13.3,49.5,0,71.4Z"/>
  </g>
  <g id="LWPOLYLINE-8" data-name="LWPOLYLINE">
    <rect class="cls-3" x="233.3" y="66.7" width="26.5" height="7.9"/>
  </g>
  <g id="LWPOLYLINE-9" data-name="LWPOLYLINE">
    <path class="cls-1" d="M59.8,90.5h55.4l5.3,52.9h-13.2c0-11-8.9-19.8-19.8-19.8s-19.8,8.9-19.8,19.8h-13.2l5.3-52.9Z"/>
  </g>
  <g id="LWPOLYLINE-10" data-name="LWPOLYLINE">
    <path class="cls-1" d="M97.5,143.4h-19.8c0-5.5,4.4-9.9,9.9-9.9s9.9,4.4,9.9,9.9Z"/>
  </g>
  <g id="LWPOLYLINE-11" data-name="LWPOLYLINE">
    <rect class="cls-2" x="233.3" y="225.4" width="26.5" height="7.9"/>
  </g>
</svg>