<?xml version="1.0" encoding="utf-8"?>
<!-- Generator: Adobe Illustrator 27.0.1, SVG Export Plug-In . SVG Version: 6.00 Build 0)  -->
<svg version="1.1" id="Layer_1" xmlns="http://www.w3.org/2000/svg" xmlns:xlink="http://www.w3.org/1999/xlink" x="0px" y="0px"
	 viewBox="0 0 425.2 425.2" style="enable-background:new 0 0 425.2 425.2;" xml:space="preserve">
<style type="text/css">
	.st0{fill:#FFCD00;}
	.st1{fill:#E4002B;}
	.st2{fill:#101820;}
</style>
<g id="LWPOLYLINE_30_">
	<rect x="14.17" y="129.92" class="st0" width="396.85" height="165.36"/>
</g>
<g id="LWPOLYLINE_32_">
	<path class="st1" d="M40.63,129.92h343.94c14.61,0,26.45,11.84,26.45,26.46v112.44c0,14.61-11.85,26.46-26.45,26.46H40.63
		c-14.61,0-26.46-11.85-26.46-26.46V156.38C14.17,141.77,26.02,129.92,40.63,129.92z"/>
</g>
<g id="LWPOLYLINE_31_">
	<path class="st0" d="M40.63,143.15h343.94c7.3,0,13.23,5.93,13.23,13.23v112.44c0,7.31-5.92,13.23-13.23,13.23H40.63
		c-7.3,0-13.23-5.92-13.23-13.23V156.38C27.4,149.07,33.33,143.15,40.63,143.15z"/>
</g>
<g id="LWPOLYLINE_33_">
	<path class="st2" d="M47.25,255.12v-85.04c0-3.92,3.17-7.09,7.08-7.09h58.82c3.92,0,7.09,3.17,7.09,7.09v85.04
		c0,3.91-3.17,7.09-7.09,7.09H54.33C50.42,262.2,47.25,259.03,47.25,255.12z"/>
</g>
<g id="LWPOLYLINE_34_">
	<polygon class="st0" points="83.74,198.75 90.83,170.08 76.65,170.08 	"/>
</g>
<g id="LWPOLYLINE_35_">
	<path class="st0" d="M57.88,206.91l17.27-12.53c3.45,4.75,10.09,5.8,14.85,2.36c0.9-0.66,1.7-1.45,2.36-2.36l17.26,12.53
		c-1.97,2.72-4.36,5.11-7.08,7.09C88.24,224.37,68.25,221.19,57.88,206.91z"/>
</g>
<g id="LWPOLYLINE_37_">
	<path class="st0" d="M67.8,251.93v-25.51c0-1.76,1.43-3.19,3.19-3.19H96.5c1.76,0,3.19,1.43,3.19,3.19v25.51
		c0,1.76-1.43,3.19-3.19,3.19H70.99C69.22,255.12,67.8,253.69,67.8,251.93z"/>
</g>
<g id="LWPOLYLINE_36_">
	<path class="st2" d="M69.39,251.93v-25.51c0-0.88,0.72-1.6,1.6-1.6H96.5c0.88,0,1.59,0.71,1.59,1.6v25.51
		c0,0.88-0.71,1.59-1.59,1.59H70.99C70.11,253.52,69.39,252.81,69.39,251.93z"/>
</g>
<g id="LWPOLYLINE_38_">
	<path class="st0" d="M75.22,251.96h4.78v-10.63h6.91c4.11,0,7.44-3.33,7.44-7.44c0-4.11-3.33-7.44-7.44-7.44h-11.7V251.96z"/>
</g>
<g id="LWPOLYLINE_39_">
	<path class="st2" d="M80.01,231.23v5.31h7.12c1.46-0.12,2.56-1.4,2.44-2.86c-0.11-1.38-1.26-2.45-2.65-2.45H80.01z"/>
</g>
</svg>
