<?xml version="1.0" encoding="UTF-8" standalone="no"?>
<svg
   xmlns:dc="http://purl.org/dc/elements/1.1/"
   xmlns:cc="http://creativecommons.org/ns#"
   xmlns:rdf="http://www.w3.org/1999/02/22-rdf-syntax-ns#"
   xmlns:svg="http://www.w3.org/2000/svg"
   xmlns="http://www.w3.org/2000/svg"
   height="165.36"
   width="396.85001"
   xml:space="preserve"
   viewBox="0 0 396.84999 165.36"
   y="0px"
   x="0px"
   id="Layer_1"
   version="1.1"><metadata
   id="metadata39"><rdf:RDF><cc:Work
       rdf:about=""><dc:format>image/svg+xml</dc:format><dc:type
         rdf:resource="http://purl.org/dc/dcmitype/StillImage" /></cc:Work></rdf:RDF></metadata><defs
   id="defs37" />
<style
   id="style2"
   type="text/css">
	.st0{fill:#FFCD00;}
	.st1{fill:#E4002B;}
	.st2{fill:#101820;}
</style>
<g
   transform="translate(-14.17,-129.92)"
   id="LWPOLYLINE_30_">
	<rect
   style="fill:#ffcd00"
   id="rect4"
   height="165.36"
   width="396.85001"
   class="st0"
   y="129.92"
   x="14.17" />
</g>
<g
   transform="translate(-14.17,-129.92)"
   id="LWPOLYLINE_32_">
	<path
   style="fill:#e4002b"
   id="path7"
   d="m 40.63,129.92 h 343.94 c 14.61,0 26.45,11.84 26.45,26.46 v 112.44 c 0,14.61 -11.85,26.46 -26.45,26.46 H 40.63 c -14.61,0 -26.46,-11.85 -26.46,-26.46 V 156.38 c 0,-14.61 11.85,-26.46 26.46,-26.46 z"
   class="st1" />
</g>
<g
   transform="translate(-14.17,-129.92)"
   id="LWPOLYLINE_31_">
	<path
   style="fill:#ffcd00"
   id="path10"
   d="m 40.63,143.15 h 343.94 c 7.3,0 13.23,5.93 13.23,13.23 v 112.44 c 0,7.31 -5.92,13.23 -13.23,13.23 H 40.63 c -7.3,0 -13.23,-5.92 -13.23,-13.23 V 156.38 c 0,-7.31 5.93,-13.23 13.23,-13.23 z"
   class="st0" />
</g>
<g
   transform="translate(-14.17,-129.92)"
   id="LWPOLYLINE_33_">
	<path
   style="fill:#101820"
   id="path13"
   d="m 47.25,255.12 v -85.04 c 0,-3.92 3.17,-7.09 7.08,-7.09 h 58.82 c 3.92,0 7.09,3.17 7.09,7.09 v 85.04 c 0,3.91 -3.17,7.09 -7.09,7.09 H 54.33 c -3.91,-0.01 -7.08,-3.18 -7.08,-7.09 z"
   class="st2" />
</g>
<g
   transform="translate(-14.17,-129.92)"
   id="LWPOLYLINE_34_">
	<polygon
   style="fill:#ffcd00"
   id="polygon16"
   points="76.65,170.08 83.74,198.75 90.83,170.08 "
   class="st0" />
</g>
<g
   transform="translate(-14.17,-129.92)"
   id="LWPOLYLINE_35_">
	<path
   style="fill:#ffcd00"
   id="path19"
   d="m 57.88,206.91 17.27,-12.53 c 3.45,4.75 10.09,5.8 14.85,2.36 0.9,-0.66 1.7,-1.45 2.36,-2.36 l 17.26,12.53 c -1.97,2.72 -4.36,5.11 -7.08,7.09 -14.3,10.37 -34.29,7.19 -44.66,-7.09 z"
   class="st0" />
</g>
<g
   transform="translate(-14.17,-129.92)"
   id="LWPOLYLINE_37_">
	<path
   style="fill:#ffcd00"
   id="path22"
   d="m 67.8,251.93 v -25.51 c 0,-1.76 1.43,-3.19 3.19,-3.19 H 96.5 c 1.76,0 3.19,1.43 3.19,3.19 v 25.51 c 0,1.76 -1.43,3.19 -3.19,3.19 H 70.99 c -1.77,0 -3.19,-1.43 -3.19,-3.19 z"
   class="st0" />
</g>
<g
   transform="translate(-14.17,-129.92)"
   id="LWPOLYLINE_36_">
	<path
   style="fill:#101820"
   id="path25"
   d="m 69.39,251.93 v -25.51 c 0,-0.88 0.72,-1.6 1.6,-1.6 H 96.5 c 0.88,0 1.59,0.71 1.59,1.6 v 25.51 c 0,0.88 -0.71,1.59 -1.59,1.59 H 70.99 c -0.88,0 -1.6,-0.71 -1.6,-1.59 z"
   class="st2" />
</g>
<g
   transform="translate(-14.17,-129.92)"
   id="LWPOLYLINE_38_">
	<path
   style="fill:#ffcd00"
   id="path28"
   d="M 75.22,251.96 H 80 v -10.63 h 6.91 c 4.11,0 7.44,-3.33 7.44,-7.44 0,-4.11 -3.33,-7.44 -7.44,-7.44 h -11.7 v 25.51 z"
   class="st0" />
</g>
<g
   transform="translate(-14.17,-129.92)"
   id="LWPOLYLINE_39_">
	<path
   style="fill:#101820"
   id="path31"
   d="m 80.01,231.23 v 5.31 h 7.12 c 1.46,-0.12 2.56,-1.4 2.44,-2.86 -0.11,-1.38 -1.26,-2.45 -2.65,-2.45 z"
   class="st2" />
</g>
</svg>