<?xml version="1.0" encoding="UTF-8"?>
<svg id="Layer_1" data-name="Layer 1" xmlns="http://www.w3.org/2000/svg" version="1.1" viewBox="0 0 400 170">
  <defs>
    <style>
      .cls-1 {
        fill: #121921;
      }

      .cls-1, .cls-2, .cls-3 {
        stroke-width: 0px;
      }

      .cls-2 {
        fill: #ffce04;
      }

      .cls-3 {
        fill: #e31e2e;
      }
    </style>
  </defs>
  <g id="LWPOLYLINE">
    <rect class="cls-2" width="400" height="170"/>
  </g>
  <g id="LWPOLYLINE-2" data-name="LWPOLYLINE">
    <path class="cls-3" d="M26.7,0h346.7c14.7,0,26.7,12.2,26.7,27.2v115.6c0,15-11.9,27.2-26.7,27.2H26.7C11.9,170,0,157.8,0,142.8V27.2c0-15,11.9-27.2,26.7-27.2Z"/>
  </g>
  <g id="LWPOLYLINE-3" data-name="LWPOLYLINE">
    <path class="cls-2" d="M26.7,13.6h346.7c7.4,0,13.3,6.1,13.3,13.6v115.6c0,7.5-6,13.6-13.3,13.6H26.7c-7.4,0-13.3-6.1-13.3-13.6V27.2c0-7.5,6-13.6,13.3-13.6Z"/>
  </g>
  <g id="LWPOLYLINE-4" data-name="LWPOLYLINE">
    <path class="cls-1" d="M33.3,128.7V41.3c0-4,3.2-7.3,7.1-7.3h59.3c4,0,7.1,3.3,7.1,7.3v87.4c0,4-3.2,7.3-7.1,7.3h-59.3c-3.9,0-7.1-3.3-7.1-7.3Z"/>
  </g>
  <g id="LWPOLYLINE-5" data-name="LWPOLYLINE">
    <polygon class="cls-2" points="70.1 70.8 77.3 41.3 63 41.3 70.1 70.8"/>
  </g>
  <g id="LWPOLYLINE-6" data-name="LWPOLYLINE">
    <path class="cls-2" d="M44.1,79.2l17.4-12.9c3.5,4.9,10.2,6,15,2.4.9-.7,1.7-1.5,2.4-2.4l17.4,12.9c-2,2.8-4.4,5.3-7.1,7.3-14.4,10.7-34.6,7.4-45-7.3Z"/>
  </g>
  <g id="LWPOLYLINE-7" data-name="LWPOLYLINE">
    <path class="cls-2" d="M54.1,125.4v-26.2c0-1.8,1.4-3.3,3.2-3.3h25.7c1.8,0,3.2,1.5,3.2,3.3v26.2c0,1.8-1.4,3.3-3.2,3.3h-25.7c-1.8,0-3.2-1.5-3.2-3.3Z"/>
  </g>
  <g id="LWPOLYLINE-8" data-name="LWPOLYLINE">
    <path class="cls-1" d="M55.7,125.4v-26.2c0-.9.7-1.6,1.6-1.6h25.7c.9,0,1.6.7,1.6,1.6v26.2c0,.9-.7,1.6-1.6,1.6h-25.7c-.9,0-1.6-.7-1.6-1.6Z"/>
  </g>
  <g id="LWPOLYLINE-9" data-name="LWPOLYLINE">
    <path class="cls-2" d="M61.5,125.5h4.8v-10.9h7c4.1,0,7.5-3.4,7.5-7.6s-3.4-7.6-7.5-7.6h-11.8v26.2h0Z"/>
  </g>
  <g id="LWPOLYLINE-10" data-name="LWPOLYLINE">
    <path class="cls-1" d="M66.4,104.2v5.5h7.2c1.5-.1,2.6-1.4,2.5-2.9-.1-1.4-1.3-2.5-2.7-2.5h-7Z"/>
  </g>
  <g id="LWPOLYLINE-11" data-name="LWPOLYLINE">
    <polygon class="cls-1" points="341.3 58 325.3 119 334.6 119 350.6 58 341.3 58"/>
  </g>
  <g id="LWPOLYLINE-12" data-name="LWPOLYLINE">
    <rect class="cls-1" x="279.9" y="75.8" width="7.2" height="36.6"/>
  </g>
  <g id="LWPOLYLINE-13" data-name="LWPOLYLINE">
    <rect class="cls-1" x="279.9" y="63.6" width="7.2" height="7.3"/>
  </g>
  <g id="LWPOLYLINE-14" data-name="LWPOLYLINE">
    <path class="cls-1" d="M264.1,85.1c0-1.9-1.5-3.4-3.3-3.4h-.5c-3.2,0-5.7,2.6-5.7,5.9v24.9h-7.2v-27.3c0-1.9-1.5-3.4-3.3-3.4h-.5c-3.2,0-5.7,2.6-5.7,5.9v24.9h-7.2v-36.6h7.2v2.9c2.3-1.5,5-2.5,7.7-2.9.3,0,.7,0,1,0,2.7.2,5.1,1.6,6.6,3.9,2.7-2,5.8-3.4,9.1-3.9.3,0,.7,0,1,0,4.5.3,8,4.1,8,8.8v27.8h-7.2v-27.3h0Z"/>
  </g>
  <g id="LWPOLYLINE-15" data-name="LWPOLYLINE">
    <path class="cls-1" d="M303.8,112.4h-7.2v-36.6h7.2v2.9c2.3-1.5,5-2.5,7.7-2.9.3,0,.7,0,1,0,4.5.3,8,4.1,8,8.8v27.8h-7.2v-27.3c0-1.9-1.5-3.4-3.3-3.4h-.5c-3.2,0-5.7,2.6-5.7,5.9v24.9Z"/>
  </g>
  <g id="LWPOLYLINE-16" data-name="LWPOLYLINE">
    <path class="cls-1" d="M379.3,85.3v-.2c0-4.8-3.9-8.8-8.6-8.8-2.9.4-5.7,1.4-8.1,2.9v-15.1h-7.2v48.8h7.2v-25.9c0-2.7,2.1-4.9,4.8-4.9s4.8,2.2,4.8,4.9v25.9h7.2v-27.6h0Z"/>
  </g>
</svg>