<?xml version="1.0" encoding="UTF-8" standalone="no"?>
<svg
   xmlns:dc="http://purl.org/dc/elements/1.1/"
   xmlns:cc="http://creativecommons.org/ns#"
   xmlns:rdf="http://www.w3.org/1999/02/22-rdf-syntax-ns#"
   xmlns:svg="http://www.w3.org/2000/svg"
   xmlns="http://www.w3.org/2000/svg"
   height="231.5"
   width="396.85001"
   xml:space="preserve"
   viewBox="0 0 396.84999 231.49999"
   y="0px"
   x="0px"
   id="Layer_1"
   version="1.1"><metadata
   id="metadata51"><rdf:RDF><cc:Work
       rdf:about=""><dc:format>image/svg+xml</dc:format><dc:type
         rdf:resource="http://purl.org/dc/dcmitype/StillImage" /></cc:Work></rdf:RDF></metadata><defs
   id="defs49" />
<style
   id="style2"
   type="text/css">
	.st0{fill:#FFFFFF;}
	.st1{fill:#005EB8;}
</style>
<g
   transform="translate(-14.17,-96.849998)"
   id="LWPOLYLINE_00000019643051328786576550000001678856814923318701_">
	<path
   style="fill:#ffffff"
   id="path4"
   d="m 48.3,222.05 v -85.04 c 0,-3.91 3.17,-7.09 7.1,-7.09 h 58.82 c 3.91,0 7.08,3.17 7.08,7.09 v 85.04 c 0,3.91 -3.17,7.09 -7.08,7.09 H 55.4 c -3.93,-0.01 -7.1,-3.18 -7.1,-7.09 z"
   class="st0" />
</g>
<g
   transform="translate(-14.17,-96.849998)"
   id="LWPOLYLINE_3_">
	<rect
   style="fill:#005eb8"
   id="rect7"
   height="231.5"
   width="396.85001"
   class="st1"
   y="96.849998"
   x="14.17" />
</g>
<g
   transform="translate(-14.17,-96.849998)"
   id="LWPOLYLINE_1_">
	<path
   style="fill:#ffffff"
   id="path10"
   d="m 411.02,301.89 c 0,14.61 -11.85,26.46 -26.45,26.46 H 40.64 c -14.62,0 -26.46,-11.85 -26.46,-26.46 V 123.31 c 0,-14.61 11.84,-26.46 26.46,-26.46 h 343.93 c 14.61,0 26.45,11.84 26.45,26.46 z"
   class="st0" />
</g>
<g
   transform="translate(-14.17,-96.849998)"
   id="LWPOLYLINE_2_">
	<path
   style="fill:#005eb8"
   id="path13"
   d="m 397.8,301.89 c 0,7.31 -5.93,13.23 -13.23,13.23 H 40.64 c -7.3,0 -13.23,-5.92 -13.23,-13.23 V 123.31 c 0,-7.3 5.93,-13.23 13.23,-13.23 h 343.93 c 7.3,0 13.23,5.92 13.23,13.23 z"
   class="st1" />
</g>
<g
   transform="translate(-14.17,-96.849998)"
   id="LWPOLYLINE_63_">
	<path
   style="fill:#ffffff"
   id="path16"
   d="m 47.25,222.05 v -85.04 c 0,-3.91 3.17,-7.09 7.09,-7.09 h 58.82 c 3.92,0 7.09,3.17 7.09,7.09 v 85.04 c 0,3.91 -3.17,7.09 -7.09,7.09 H 54.33 c -3.91,-0.01 -7.08,-3.18 -7.08,-7.09 z"
   class="st0" />
</g>
<g
   transform="translate(-14.17,-96.849998)"
   id="LWPOLYLINE_7_">
	<rect
   style="fill:#ffffff"
   id="rect19"
   height="7.9400001"
   width="26.450001"
   class="st0"
   y="268.16"
   x="179.27" />
</g>
<g
   transform="translate(-14.17,-96.849998)"
   id="LWPOLYLINE_60_">
	<path
   style="fill:#ffffff"
   id="path22"
   d="m 47.46,221.92 v -85.04 c 0,-3.91 3.17,-7.09 7.1,-7.09 h 58.82 c 3.91,0 7.08,3.17 7.08,7.09 v 85.04 c 0,3.91 -3.17,7.09 -7.08,7.09 H 54.56 c -3.93,0 -7.1,-3.18 -7.1,-7.09 z"
   class="st0" />
</g>
<g
   transform="translate(-14.17,-96.849998)"
   id="LWPOLYLINE_61_">
	<path
   style="fill:#005eb8"
   id="path25"
   d="m 51,221.92 v -85.04 c 0,-1.96 1.59,-3.54 3.56,-3.54 h 58.82 c 1.96,0 3.54,1.59 3.54,3.54 v 85.04 c 0,1.96 -1.59,3.54 -3.54,3.54 H 54.56 c -1.97,0 -3.56,-1.58 -3.56,-3.54 z"
   class="st1" />
</g>
<g
   transform="translate(-14.17,-96.849998)"
   id="LWPOLYLINE_62_">
	<polygon
   style="fill:#ffffff"
   id="polygon28"
   points="76.88,136.88 83.97,165.56 91.05,136.88 "
   class="st0" />
</g>
<g
   transform="translate(-14.17,-96.849998)"
   id="LWPOLYLINE_00000051376048274046011440000010596067854409802912_">
	<path
   style="fill:#ffffff"
   id="path31"
   d="m 58.1,173.72 17.26,-12.54 c 3.45,4.75 10.09,5.81 14.84,2.35 0.9,-0.66 1.7,-1.45 2.35,-2.35 l 17.28,12.54 c -1.98,2.71 -4.36,5.1 -7.08,7.08 -14.3,10.37 -34.28,7.2 -44.65,-7.08 z"
   class="st0" />
</g>
<g
   transform="translate(-14.17,-96.849998)"
   id="LWPOLYLINE_65_">
	<path
   style="fill:#ffffff"
   id="path34"
   d="m 68.02,218.73 v -25.51 c 0,-1.76 1.42,-3.19 3.19,-3.19 h 25.51 c 1.76,0 3.19,1.42 3.19,3.19 v 25.51 c 0,1.76 -1.42,3.19 -3.19,3.19 H 71.2 c -1.76,0 -3.18,-1.42 -3.18,-3.19 z"
   class="st0" />
</g>
<g
   transform="translate(-14.17,-96.849998)"
   id="LWPOLYLINE_64_">
	<path
   style="fill:#005eb8"
   id="path37"
   d="m 69.62,218.73 v -25.51 c 0,-0.88 0.71,-1.59 1.59,-1.59 h 25.51 c 0.88,0 1.6,0.72 1.6,1.59 v 25.51 c 0,0.88 -0.73,1.59 -1.6,1.59 H 71.2 c -0.87,0.01 -1.58,-0.7 -1.58,-1.59 z"
   class="st1" />
</g>
<g
   transform="translate(-14.17,-96.849998)"
   id="LWPOLYLINE_66_">
	<path
   style="fill:#ffffff"
   id="path40"
   d="m 75.44,218.76 h 4.79 v -10.63 h 6.91 c 4.1,0 7.44,-3.33 7.44,-7.44 0,-4.11 -3.34,-7.44 -7.44,-7.44 h -11.7 z"
   class="st0" />
</g>
<g
   transform="translate(-14.17,-96.849998)"
   id="LWPOLYLINE_67_">
	<path
   style="fill:#005eb8"
   id="path43"
   d="m 80.23,198.04 v 5.31 h 7.11 c 1.46,-0.12 2.56,-1.4 2.44,-2.86 -0.1,-1.38 -1.26,-2.45 -2.64,-2.45 z"
   class="st1" />
</g>
</svg>