<?xml version="1.0" encoding="utf-8"?>
<!-- Generator: Adobe Illustrator 27.0.1, SVG Export Plug-In . SVG Version: 6.00 Build 0)  -->
<svg version="1.1" id="Layer_1" xmlns="http://www.w3.org/2000/svg" xmlns:xlink="http://www.w3.org/1999/xlink" x="0px" y="0px"
	 viewBox="0 0 425.2 425.2" style="enable-background:new 0 0 425.2 425.2;" xml:space="preserve">
<style type="text/css">
	.st0{fill:#FFFFFF;}
	.st1{fill:#005EB8;}
</style>
<g id="LWPOLYLINE_00000019643051328786576550000001678856814923318701_">
	<path class="st0" d="M48.3,222.05v-85.04c0-3.91,3.17-7.09,7.1-7.09h58.82c3.91,0,7.08,3.17,7.08,7.09v85.04
		c0,3.91-3.17,7.09-7.08,7.09H55.4C51.47,229.13,48.3,225.96,48.3,222.05z"/>
</g>
<g id="LWPOLYLINE_3_">
	<rect x="14.17" y="96.85" class="st1" width="396.85" height="231.5"/>
</g>
<g id="LWPOLYLINE_1_">
	<path class="st0" d="M411.02,301.89c0,14.61-11.85,26.46-26.45,26.46H40.64c-14.62,0-26.46-11.85-26.46-26.46V123.31
		c0-14.61,11.84-26.46,26.46-26.46h343.93c14.61,0,26.45,11.84,26.45,26.46V301.89z"/>
</g>
<g id="LWPOLYLINE_2_">
	<path class="st1" d="M397.8,301.89c0,7.31-5.93,13.23-13.23,13.23H40.64c-7.3,0-13.23-5.92-13.23-13.23V123.31
		c0-7.3,5.93-13.23,13.23-13.23h343.93c7.3,0,13.23,5.92,13.23,13.23V301.89z"/>
</g>
<g id="LWPOLYLINE_63_">
	<path class="st0" d="M47.25,222.05v-85.04c0-3.91,3.17-7.09,7.09-7.09h58.82c3.92,0,7.09,3.17,7.09,7.09v85.04
		c0,3.91-3.17,7.09-7.09,7.09H54.33C50.42,229.13,47.25,225.96,47.25,222.05z"/>
</g>
<g id="LWPOLYLINE_7_">
	<rect x="179.27" y="268.16" class="st0" width="26.45" height="7.94"/>
</g>
<g id="LWPOLYLINE_60_">
	<path class="st0" d="M47.46,221.92v-85.04c0-3.91,3.17-7.09,7.1-7.09h58.82c3.91,0,7.08,3.17,7.08,7.09v85.04
		c0,3.91-3.17,7.09-7.08,7.09H54.56C50.63,229.01,47.46,225.83,47.46,221.92z"/>
</g>
<g id="LWPOLYLINE_61_">
	<path class="st1" d="M51,221.92v-85.04c0-1.96,1.59-3.54,3.56-3.54h58.82c1.96,0,3.54,1.59,3.54,3.54v85.04
		c0,1.96-1.59,3.54-3.54,3.54H54.56C52.59,225.46,51,223.88,51,221.92z"/>
</g>
<g id="LWPOLYLINE_62_">
	<polygon class="st0" points="83.97,165.56 91.05,136.88 76.88,136.88 	"/>
</g>
<g id="LWPOLYLINE_00000051376048274046011440000010596067854409802912_">
	<path class="st0" d="M58.1,173.72l17.26-12.54c3.45,4.75,10.09,5.81,14.84,2.35c0.9-0.66,1.7-1.45,2.35-2.35l17.28,12.54
		c-1.98,2.71-4.36,5.1-7.08,7.08C88.45,191.17,68.47,188,58.1,173.72z"/>
</g>
<g id="LWPOLYLINE_65_">
	<path class="st0" d="M68.02,218.73v-25.51c0-1.76,1.42-3.19,3.19-3.19h25.51c1.76,0,3.19,1.42,3.19,3.19v25.51
		c0,1.76-1.42,3.19-3.19,3.19H71.2C69.44,221.92,68.02,220.5,68.02,218.73z"/>
</g>
<g id="LWPOLYLINE_64_">
	<path class="st1" d="M69.62,218.73v-25.51c0-0.88,0.71-1.59,1.59-1.59h25.51c0.88,0,1.6,0.72,1.6,1.59v25.51
		c0,0.88-0.73,1.59-1.6,1.59H71.2C70.33,220.33,69.62,219.62,69.62,218.73z"/>
</g>
<g id="LWPOLYLINE_66_">
	<path class="st0" d="M75.44,218.76h4.79v-10.63h6.91c4.1,0,7.44-3.33,7.44-7.44c0-4.11-3.34-7.44-7.44-7.44H75.44V218.76z"/>
</g>
<g id="LWPOLYLINE_67_">
	<path class="st1" d="M80.23,198.04v5.31h7.11c1.46-0.12,2.56-1.4,2.44-2.86c-0.1-1.38-1.26-2.45-2.64-2.45H80.23z"/>
</g>
</svg>
