<?xml version="1.0" encoding="UTF-8"?>
<svg id="Layer_1" data-name="Layer 1" xmlns="http://www.w3.org/2000/svg" version="1.1" viewBox="0 0 400 350">
  <defs>
    <style>
      .cls-1 {
        fill: #ffcd00;
      }

      .cls-1, .cls-2, .cls-3 {
        stroke-width: 0px;
      }

      .cls-2 {
        fill: #e4002b;
      }

      .cls-3 {
        fill: #101820;
      }
    </style>
  </defs>
  <g id="LWPOLYLINE">
    <rect class="cls-1" width="400" height="350"/>
  </g>
  <g id="LWPOLYLINE-2" data-name="LWPOLYLINE">
    <path class="cls-2" d="M400,323.6c0,14.6-11.9,26.4-26.7,26.4H26.7C11.9,350,0,338.2,0,323.6V26.4C0,11.8,12,0,26.7,0h346.7c14.7,0,26.7,11.8,26.7,26.4v297.2h0Z"/>
  </g>
  <g id="LWPOLYLINE-3" data-name="LWPOLYLINE">
    <path class="cls-1" d="M386.7,323.6c0,7.3-6,13.2-13.3,13.2H26.7c-7.4,0-13.3-5.9-13.3-13.2V26.4c0-7.3,6-13.2,13.3-13.2h346.7c7.4,0,13.3,5.9,13.3,13.2v297.2Z"/>
  </g>
  <g id="LWPOLYLINE-4" data-name="LWPOLYLINE">
    <path class="cls-1" d="M137,149.9c0,3.7,3,6.6,6.7,6.6s6.7-3,6.7-6.6v-3.7c0-3.6-3-6.6-6.7-6.6s-6.7,3-6.7,6.6v3.7Z"/>
  </g>
  <g id="LWPOLYLINE-5" data-name="LWPOLYLINE">
    <path class="cls-1" d="M138.3,124.8v2.1c0,2.9,2.4,5.3,5.3,5.3s5.3-2.4,5.3-5.3v-2.1c0-2.9-2.4-5.3-5.3-5.3-2.9,0-5.3,2.4-5.3,5.3Z"/>
  </g>
  <g id="LWPOLYLINE-6" data-name="LWPOLYLINE">
    <path class="cls-1" d="M250.3,149.9c0,3.7,3,6.6,6.7,6.6s6.7-3,6.7-6.6v-2.6c0-3.6-3-6.6-6.7-6.6s-6.7,3-6.7,6.6v2.6Z"/>
  </g>
  <g id="LWPOLYLINE-7" data-name="LWPOLYLINE">
    <path class="cls-1" d="M137,205.4v2.6c0,3.7,3,6.6,6.7,6.6s6.7-3,6.7-6.6v-2.6c0-3.6-3-6.6-6.7-6.6s-6.7,3-6.7,6.6Z"/>
  </g>
  <g id="LWPOLYLINE-8" data-name="LWPOLYLINE">
    <polygon class="cls-1" points="166.4 61.4 177.1 42.9 177.1 61.4 166.4 61.4"/>
  </g>
  <g id="LWPOLYLINE-9" data-name="LWPOLYLINE">
    <path class="cls-1" d="M137,284.6v2.6c0,3.7,3,6.6,6.7,6.6s6.7-3,6.7-6.6v-2.6c0-3.6-3-6.6-6.7-6.6-3.7,0-6.7,3-6.7,6.6Z"/>
  </g>
  <g id="LWPOLYLINE-10" data-name="LWPOLYLINE">
    <rect class="cls-2" x="186.7" y="292.5" width="26.7" height="7.9"/>
  </g>
  <g id="LWPOLYLINE-11" data-name="LWPOLYLINE">
    <rect class="cls-3" x="189.2" y="130.8" width="26.7" height="7.9"/>
  </g>
  <g id="LWPOLYLINE-12" data-name="LWPOLYLINE">
    <rect class="cls-3" x="188.6" y="210.1" width="26.7" height="7.9"/>
  </g>
  <g id="LWPOLYLINE-13" data-name="LWPOLYLINE">
    <path class="cls-3" d="M282.3,250.8c7.2-21.5,7.2-44.6,0-66.1h4.1c13,20.3,13,45.8,0,66.1h-4.1Z"/>
  </g>
  <g id="LWPOLYLINE-14" data-name="LWPOLYLINE">
    <path class="cls-3" d="M117.8,251.4c-7.2-21.5-7.2-44.6,0-66.1h-4.1c-13,20.3-13,45.8,0,66.1h4.1Z"/>
  </g>
  <g id="LWPOLYLINE-15" data-name="LWPOLYLINE">
    <polygon class="cls-3" points="337.8 21.9 321.8 81.1 331 81.1 347.1 21.9 337.8 21.9"/>
  </g>
  <g id="LWPOLYLINE-16" data-name="LWPOLYLINE">
    <rect class="cls-3" x="276.3" y="39.2" width="7.2" height="35.5"/>
  </g>
  <g id="LWPOLYLINE-17" data-name="LWPOLYLINE">
    <rect class="cls-3" x="276.3" y="27.4" width="7.2" height="7.1"/>
  </g>
  <g id="LWPOLYLINE-18" data-name="LWPOLYLINE">
    <path class="cls-3" d="M260.6,48.2c0-1.8-1.5-3.3-3.3-3.3h-.5c-3.2,0-5.7,2.5-5.7,5.7v24.2h-7.2v-26.5c0-1.8-1.5-3.3-3.3-3.3h-.5c-3.2,0-5.7,2.5-5.7,5.7v24.2h-7.2v-35.5h7.2v2.8c2.3-1.4,5-2.4,7.7-2.8.3,0,.7,0,1,0,2.7.2,5.1,1.6,6.6,3.8,2.7-2,5.8-3.3,9.1-3.8.3,0,.7,0,1,0,4.5.3,8,4,8,8.5v27h-7.2v-26.5Z"/>
  </g>
  <g id="LWPOLYLINE-19" data-name="LWPOLYLINE">
    <path class="cls-3" d="M300.3,74.7h-7.2v-35.5h7.2v2.8c2.3-1.4,5-2.4,7.7-2.8.3,0,.7,0,1,0,4.5.3,8,4,8,8.5v27h-7.2v-26.5c0-1.8-1.5-3.3-3.3-3.3h-.5c-3.2,0-5.7,2.5-5.7,5.7v24.2Z"/>
  </g>
  <g id="LWPOLYLINE-20" data-name="LWPOLYLINE">
    <path class="cls-3" d="M375.7,48.4v-.2c0-4.7-3.9-8.5-8.6-8.5-2.9.3-5.7,1.3-8.1,2.8v-14.7h-7.2v47.4h7.2v-25.1c0-2.6,2.1-4.7,4.8-4.7s4.8,2.1,4.8,4.7v25.1h7.2v-26.8h0Z"/>
  </g>
  <g id="LWPOLYLINE-21" data-name="LWPOLYLINE">
    <path class="cls-3" d="M33.6,123.6V38.7c0-3.9,3.2-7.1,7.1-7.1h59.3c4,0,7.1,3.2,7.1,7.1v84.9c0,3.9-3.2,7.1-7.1,7.1h-59.3c-3.9,0-7.1-3.2-7.1-7.1Z"/>
  </g>
  <g id="LWPOLYLINE-22" data-name="LWPOLYLINE">
    <polygon class="cls-1" points="70.4 67.3 77.5 38.7 63.3 38.7 70.4 67.3"/>
  </g>
  <g id="LWPOLYLINE-23" data-name="LWPOLYLINE">
    <path class="cls-1" d="M44.3,75.4l17.4-12.5c3.5,4.7,10.2,5.8,15,2.4.9-.7,1.7-1.4,2.4-2.4l17.4,12.5c-2,2.7-4.4,5.1-7.1,7.1-14.4,10.4-34.6,7.2-45-7.1Z"/>
  </g>
  <g id="LWPOLYLINE-24" data-name="LWPOLYLINE">
    <path class="cls-1" d="M54.3,120.4v-25.5c0-1.8,1.4-3.2,3.2-3.2h25.7c1.8,0,3.2,1.4,3.2,3.2v25.5c0,1.8-1.4,3.2-3.2,3.2h-25.7c-1.8,0-3.2-1.4-3.2-3.2Z"/>
  </g>
  <g id="LWPOLYLINE-25" data-name="LWPOLYLINE">
    <path class="cls-3" d="M55.9,120.4v-25.5c0-.9.7-1.6,1.6-1.6h25.7c.9,0,1.6.7,1.6,1.6v25.5c0,.9-.7,1.6-1.6,1.6h-25.7c-.9,0-1.6-.7-1.6-1.6Z"/>
  </g>
  <g id="LWPOLYLINE-26" data-name="LWPOLYLINE">
    <path class="cls-1" d="M61.8,120.4h4.8v-10.6h7c4.1,0,7.5-3.3,7.5-7.4s-3.4-7.4-7.5-7.4h-11.8v25.5Z"/>
  </g>
  <g id="LWPOLYLINE-27" data-name="LWPOLYLINE">
    <path class="cls-3" d="M66.6,99.7v5.3h7.2c1.5-.1,2.6-1.4,2.5-2.9-.1-1.4-1.3-2.4-2.7-2.4h-7Z"/>
  </g>
</svg>