<?xml version="1.0" encoding="UTF-8"?>
<svg id="Layer_1" data-name="Layer 1" xmlns="http://www.w3.org/2000/svg" version="1.1" viewBox="0 0 400 170">
  <defs>
    <style>
      .cls-1, .cls-2, .cls-3 {
        isolation: isolate;
      }

      .cls-4 {
        fill: none;
        stroke: #e31e2e;
        stroke-miterlimit: 10;
        stroke-width: 14px;
      }

      .cls-2 {
        font-size: 21.6px;
      }

      .cls-2, .cls-3 {
        fill: #121921;
        font-family: MyriadPro-Semibold, 'Myriad Pro';
        font-weight: 600;
      }

      .cls-5 {
        fill: #ffce04;
      }

      .cls-5, .cls-6 {
        stroke-width: 0px;
      }

      .cls-6 {
        fill: #e31e2e;
      }

      .cls-3 {
        font-size: 24.7px;
      }
    </style>
  </defs>
  <g id="LWPOLYLINE">
    <rect class="cls-5" width="400" height="170"/>
  </g>
  <g id="LWPOLYLINE-2" data-name="LWPOLYLINE">
    <path class="cls-6" d="M26.7,0h346.7c14.7,0,26.7,12.2,26.7,27.2v115.6c0,15-11.9,27.2-26.7,27.2H26.7C11.9,170,0,157.8,0,142.8V27.2C0,12.2,11.9,0,26.7,0Z"/>
  </g>
  <g id="LWPOLYLINE-3" data-name="LWPOLYLINE">
    <path class="cls-5" d="M26.7,13.6h346.7c7.4,0,13.3,6.1,13.3,13.6v115.6c0,7.5-6,13.6-13.3,13.6H26.7c-7.4,0-13.3-6.1-13.3-13.6V27.2c0-7.5,6-13.6,13.3-13.6Z"/>
  </g>
  <line class="cls-4" x1="133.9" y1="7.3" x2="133.9" y2="161.5"/>
  <g class="cls-1">
    <text class="cls-2" transform="translate(30.2 39.5) scale(1 1)"><tspan x="0" y="0">Vyöhyke</tspan></text>
    <text class="cls-3" transform="translate(46.9 69.1) scale(1 1)"><tspan x="0" y="0">Zon </tspan></text>
  </g>
  <g class="cls-1">
    <text class="cls-2" transform="translate(155 39.5) scale(1 1)"><tspan x="0" y="0">Ei koske</tspan></text>
    <text class="cls-2" transform="translate(155 69.1) scale(1 1)"><tspan x="0" y="0">P-tunnuksella:</tspan></text>
    <text class="cls-3" transform="translate(286.4 69.1) scale(1 1)"><tspan x="0" y="0"> </tspan></text>
  </g>
  <g class="cls-1">
    <text class="cls-2" transform="translate(153.7 114.5) scale(1 1)"><tspan x="0" y="0">Gäller ej</tspan></text>
    <text class="cls-2" transform="translate(153.7 140.4) scale(1 1)"><tspan x="0" y="0">med P-tecknet: </tspan></text>
  </g>
</svg>