<?xml version="1.0" encoding="UTF-8"?>
<svg id="Layer_1" data-name="Layer 1" xmlns="http://www.w3.org/2000/svg" version="1.1" viewBox="0 0 400 170">
  <defs>
    <style>
      .cls-1, .cls-2, .cls-3, .cls-4, .cls-5, .cls-6 {
        isolation: isolate;
      }

      .cls-7 {
        fill: none;
        stroke: #fff;
        stroke-miterlimit: 10;
        stroke-width: 14px;
      }

      .cls-8 {
        fill: #005eb8;
      }

      .cls-8, .cls-9 {
        stroke-width: 0px;
      }

      .cls-2, .cls-3, .cls-9 {
        fill: #fff;
      }

      .cls-2, .cls-3, .cls-4, .cls-5, .cls-6 {
        font-family: MyriadPro-Semibold, 'Myriad Pro';
        font-weight: 600;
      }

      .cls-2, .cls-4 {
        font-size: 24.7px;
      }

      .cls-3, .cls-5, .cls-6 {
        font-size: 21.6px;
      }

      .cls-4, .cls-6 {
        fill: #fffef2;
      }

      .cls-5 {
        fill: #101820;
      }
    </style>
  </defs>
  <g id="LWPOLYLINE">
    <rect class="cls-8" width="400" height="170"/>
  </g>
  <g id="LWPOLYLINE-2" data-name="LWPOLYLINE">
    <path class="cls-9" d="M26.7,0h346.7c14.7,0,26.7,12.2,26.7,27.2v115.6c0,15-11.9,27.2-26.7,27.2H26.7C11.9,170,0,157.8,0,142.8V27.2C0,12.2,11.9,0,26.7,0Z"/>
  </g>
  <g id="LWPOLYLINE-3" data-name="LWPOLYLINE">
    <path class="cls-8" d="M26.7,13.6h346.7c7.4,0,13.3,6.1,13.3,13.6v115.6c0,7.5-6,13.6-13.3,13.6H26.7c-7.4,0-13.3-6.1-13.3-13.6V27.2c0-7.5,6-13.6,13.3-13.6Z"/>
  </g>
  <line class="cls-7" x1="133.9" y1="7.3" x2="133.9" y2="161.5"/>
  <g class="cls-1">
    <text class="cls-6" transform="translate(28.1 43.1) scale(1 1)"><tspan x="0" y="0">Vyöhyke</tspan></text>
    <text class="cls-4" transform="translate(44.8 72.8) scale(1 1)"><tspan x="0" y="0">Zon </tspan></text>
  </g>
  <g class="cls-1">
    <text class="cls-3" transform="translate(213.5 38.7) scale(1 1)"><tspan x="0" y="0">Kertamaksu</tspan></text>
    <text class="cls-3" transform="translate(181.8 68.3) scale(1 1)"><tspan x="0" y="0">Engångsbetalning</tspan></text>
    <text class="cls-2" transform="translate(349.5 68.3) scale(1 1)"><tspan x="0" y="0"> </tspan></text>
  </g>
  <g class="cls-1">
    <text class="cls-3" transform="translate(159.1 115.4) scale(1 1)"><tspan x="0" y="0">Enint.</tspan></text>
    <text class="cls-3" transform="translate(159.1 141.3) scale(1 1)"><tspan x="0" y="0">Max.</tspan></text>
    <text class="cls-5" transform="translate(202.8 141.3) scale(1 1)"><tspan x="0" y="0"> </tspan></text>
  </g>
</svg>