<?xml version="1.0" encoding="UTF-8"?>
<svg id="Layer_1" data-name="Layer 1" xmlns="http://www.w3.org/2000/svg" version="1.1" viewBox="0 0 400 170">
  <defs>
    <style>
      .cls-1 {
        fill-rule: evenodd;
      }

      .cls-1, .cls-2, .cls-3 {
        stroke-width: 0px;
      }

      .cls-1, .cls-3 {
        fill: #fff;
      }

      .cls-4 {
        fill: #000;
        font-family: MyriadPro-Bold, 'Myriad Pro';
        font-size: 21.6px;
        font-weight: 700;
        isolation: isolate;
      }

      .cls-2 {
        fill: #2060ad;
      }
    </style>
  </defs>
  <g id="LWPOLYLINE">
    <rect class="cls-2" width="400" height="170"/>
  </g>
  <g id="LWPOLYLINE-2" data-name="LWPOLYLINE">
    <path class="cls-3" d="M26.7,0h346.7c14.7,0,26.7,12.2,26.7,27.2v115.6c0,15-11.9,27.2-26.7,27.2H26.7C11.9,170,0,157.8,0,142.8V27.2C0,12.2,11.9,0,26.7,0Z"/>
  </g>
  <g id="LWPOLYLINE-3" data-name="LWPOLYLINE">
    <path class="cls-2" d="M26.7,13.6h346.7c7.4,0,13.3,6.1,13.3,13.6v115.6c0,7.5-6,13.6-13.3,13.6H26.7c-7.4,0-13.3-6.1-13.3-13.6V27.2c0-7.5,6-13.6,13.3-13.6Z"/>
  </g>
  <text class="cls-4" transform="translate(19.6 75.1) scale(1 1)"><tspan x="0" y="0"> </tspan></text>
  <g>
    <path class="cls-1" d="M76.3,124v-9.6h7.1c2.9,0,4.9.4,6.1,1.3,1.1.9,1.7,2,1.7,3.6s-.6,2.6-1.6,3.5c-1.1.9-2.9,1.3-5.7,1.3h-7.6M76.3,111.1v-8.5h6.1c1.6,0,2.8.1,3.8.2,1,.2,1.8.6,2.6,1.2.7.7,1.1,1.6,1.1,3s-.4,2.2-1.1,2.8c-.7.6-1.6,1-2.5,1.1-.9.2-2.1.3-3.4.3h-6.7M89.6,112.4c1.4-.7,2.5-1.6,3.2-2.6.7-1,1.1-2.2,1.1-3.4,0-1.8-.7-3.4-2.3-4.9-1.5-1.5-4.1-2.2-7.8-2.2h-11.5v28.1h11.7c2.7,0,4.9-.3,6.4-1,1.6-.6,2.8-1.6,3.7-2.9.9-1.3,1.3-2.7,1.3-4.3s-.5-3-1.4-4.2c-.9-1.2-2.4-2.1-4.3-2.6"/>
    <polyline class="cls-1" points="104.2 127.4 104.2 107 100.4 107 100.4 127.4 104.2 127.4"/>
    <polyline class="cls-1" points="104.2 103.2 104.2 99.3 100.4 99.3 100.4 103.2 104.2 103.2"/>
    <polyline class="cls-1" points="113.7 127.4 113.7 99.3 109.9 99.3 109.9 127.4 113.7 127.4"/>
    <path class="cls-1" d="M123.2,128.4v-21.4h-3.8v21.3c0,1.8-.2,3-.6,3.5-.3.5-.9.8-1.7.8s-1.1-.1-1.8-.3l-.7,3c1,.2,1.9.3,2.9.3,1.7,0,3-.4,3.8-1.1s1.3-1.6,1.6-2.5c.2-1,.3-2.1.3-3.5"/>
    <polyline class="cls-1" points="123.2 103.2 123.2 99.3 119.4 99.3 119.4 103.2 123.2 103.2"/>
    <path class="cls-1" d="M144.3,115.2h-12.5c.2-1.7.8-3.2,2-4.2,1.1-1.1,2.6-1.6,4.3-1.6s2.8.5,4,1.4c1.3.9,1.9,2.4,2.1,4.5M148.1,118c0-3.2-.6-5.6-1.6-7.2-1.1-1.5-2.3-2.6-3.8-3.3-1.5-.7-3-1-4.7-1-3.3,0-5.8,1-7.7,3-1.8,2-2.7,4.6-2.7,7.8s.9,5.8,2.8,7.6c1.9,1.9,4.5,2.8,7.8,2.8s4.5-.6,6.2-1.7c1.7-1.2,2.8-2.8,3.4-4.9l-3.8-.5c-.5,1.4-1.3,2.4-2.2,3.2-1,.7-2.2,1-3.6,1s-3.4-.6-4.7-1.8c-1.3-1.2-1.9-2.9-2.1-5.1h16.6"/>
    <path class="cls-1" d="M161.3,127.3l-.6-3.1c-.6.1-1.1.2-1.7.2-.9,0-1.5-.2-1.7-.7-.2-.4-.3-1.1-.3-2.1v-11.9h3.7v-2.6h-3.7v-7.1l-3.8,2.1v5h-2.7v2.6h2.7v11.7c0,1.4,0,2.6.2,3.4.2.8.7,1.5,1.4,2,.8.6,1.9.8,3.6.8.8,0,1.7-.1,2.8-.3"/>
    <path class="cls-1" d="M173.1,127.3l-.5-3.1c-.6.1-1.1.2-1.7.2-.9,0-1.5-.2-1.7-.7-.2-.4-.3-1.1-.3-2.1v-11.9h3.7v-2.6h-3.7v-7.1l-3.8,2.1v5h-2.7v2.6h2.7v11.7c0,1.4,0,2.6.2,3.4.2.8.7,1.5,1.4,2,.8.6,1.9.8,3.6.8.8,0,1.7-.1,2.8-.3"/>
    <path class="cls-1" d="M190.6,118.4c0,2.4-.7,4.2-2.1,5.2s-3,1.5-4.9,1.5-2.6-.3-3.3-.9c-.8-.6-1.2-1.4-1.2-2.3,0-1.9,1.4-3,4.2-3.3,2.9-.4,5.3-.8,7.2-1.4v1.2M195.5,127.4c-.6-.9-.9-1.9-1-2.9-.1-1-.2-2.9-.2-5.7v-4.6c0-1.6-.2-2.9-.4-3.9s-1.1-1.9-2.3-2.6c-1.3-.7-3.2-1.1-5.9-1.1s-5.2.5-6.9,1.6c-1.7,1-2.7,2.6-3.1,4.7l3.7.5c.4-1.5,1-2.5,1.9-3.1.9-.5,2.2-.8,3.8-.8s2.3.2,3,.5c.7.3,1.3.6,1.6,1.1s.6.9.6,1.3c0,.5.1,1.2.1,2.2-.8.3-1.9.6-3.2.7l-3.5.5c-3.2.4-5.5,1.1-6.8,2.1-1.3,1.1-1.9,2.5-1.9,4.2s.7,3.2,2,4.2,3.2,1.6,5.5,1.6,5.6-1,8.2-3c.1,1.1.4,1.9.7,2.5h3.9"/>
    <path class="cls-1" d="M218,127.4v-20.3h-3.8v10.8c0,2.9-.6,4.7-1.9,5.6-1.2.9-2.6,1.3-4,1.3s-2.1-.3-2.8-.7c-.8-.5-1.3-1.2-1.4-1.9-.2-.8-.3-2.1-.3-3.9v-11.3h-3.7v12.6c0,1.8.2,3.4.7,4.5.4,1.2,1.3,2.1,2.6,2.7,1.3.7,2.7,1,4.3,1,2.9,0,5.3-1.2,6.9-3.5h.1v3h3.4"/>
    <path class="cls-1" d="M232.4,127.3l-.6-3.1c-.6.1-1.1.2-1.7.2-.9,0-1.5-.2-1.7-.7-.2-.4-.3-1.1-.3-2.1v-11.9h3.7v-2.6h-3.7v-7.1l-3.8,2.1v5h-2.7v2.6h2.7v11.7c0,1.4.1,2.6.3,3.4.2.8.6,1.5,1.4,2,.7.6,1.9.8,3.5.8.8,0,1.7-.1,2.8-.3"/>
    <path class="cls-1" d="M244.7,125c-1.9,0-3.4-.6-4.7-1.9-1.3-1.3-1.9-3.3-1.9-5.8s.6-4.6,1.8-5.9c1.2-1.3,2.8-2,4.7-2s3.4.7,4.6,1.9c1.3,1.3,1.9,3.2,1.9,5.8s-.6,4.3-1.7,5.8c-1.1,1.4-2.7,2.1-4.8,2.1M244.7,106.6c-2.9,0-5.4.9-7.4,2.6-2,1.7-3,4.4-3,8s1,6.4,3,8,4.5,2.5,7.3,2.5,5-.8,7.2-2.5c2.1-1.6,3.2-4.5,3.2-8.5s-1-5.8-3-7.6c-1.9-1.8-4.4-2.7-7.4-2.7"/>
    <path class="cls-1" d="M289.3,127.4v-14c0-2.3-.6-4-1.7-5.1-1.2-1.1-2.9-1.7-5.2-1.7s-5.2,1.2-6.8,3.6c-.4-1.2-1.2-2.1-2.3-2.6-1.1-.6-2.4-.9-4-.9-2.9,0-5.1,1.1-6.6,3.3h-.1v-2.9h-3.4v20.3h3.8v-10.5c0-2.8.5-4.7,1.6-5.8,1.1-1,2.4-1.5,4-1.5s2.2.4,2.8,1c.7.7,1,1.9,1,3.6v13.2h3.8v-11.8c0-2.1.6-3.6,1.6-4.6,1.1-.9,2.3-1.4,3.8-1.4s2.1.3,2.7.8c.6.6.9,1.1,1.1,1.8.1.7.2,1.5.2,2.4v12.8h3.8"/>
    <path class="cls-1" d="M309.1,118.4c0,2.4-.7,4.2-2.1,5.2-1.4,1-3,1.5-4.9,1.5s-2.5-.3-3.3-.9c-.8-.6-1.2-1.4-1.2-2.3,0-1.9,1.4-3,4.3-3.3,2.8-.4,5.2-.8,7.2-1.4v1.2M314,127.4c-.6-.9-.9-1.9-1.1-2.9-.1-1-.2-2.9-.2-5.7v-4.6c0-1.6-.1-2.9-.4-3.9-.3-1-1.1-1.9-2.3-2.6-1.2-.7-3.2-1.1-5.8-1.1s-5.2.5-6.9,1.6c-1.7,1-2.7,2.6-3.1,4.7l3.7.5c.3-1.5,1-2.5,1.9-3.1.9-.5,2.2-.8,3.8-.8s2.3.2,3,.5c.8.3,1.3.6,1.7,1.1.3.5.6.9.6,1.3,0,.5.1,1.2.1,2.2-.9.3-1.9.6-3.3.7l-3.5.5c-3.2.4-5.4,1.1-6.8,2.1-1.3,1.1-1.9,2.5-1.9,4.2s.7,3.2,2.1,4.2c1.3,1.1,3.2,1.6,5.5,1.6s5.7-1,8.2-3c.2,1.1.4,1.9.8,2.5h3.9"/>
    <path class="cls-1" d="M327.2,127.3l-.6-3.1c-.6.1-1.1.2-1.7.2-.9,0-1.5-.2-1.7-.7-.2-.4-.3-1.1-.3-2.1v-11.9h3.7v-2.6h-3.7v-7.1l-3.8,2.1v5h-2.7v2.6h2.7v11.7c0,1.4.1,2.6.3,3.4.2.8.6,1.5,1.3,2,.8.6,1.9.8,3.6.8.8,0,1.7-.1,2.8-.3"/>
  </g>
  <g>
    <polyline class="cls-1" points="70 73.4 70 70.1 54.9 70.1 54.9 45.4 50.8 45.4 50.8 73.4 70 73.4"/>
    <polyline class="cls-1" points="77.9 73.4 77.9 53.1 74.2 53.1 74.2 73.4 77.9 73.4"/>
    <polyline class="cls-1" points="77.9 49.3 77.9 45.4 74.2 45.4 74.2 49.3 77.9 49.3"/>
    <path class="cls-1" d="M93,71.1c-1.8,0-3.2-.7-4.3-2-1.1-1.3-1.7-3.2-1.7-5.7s.6-4.3,1.7-5.8c1.2-1.5,2.6-2.2,4.4-2.2s3.2.7,4.3,2c1.1,1.3,1.7,3.2,1.7,5.7s-.6,4.6-1.7,6c-1.2,1.3-2.6,2-4.4,2M87.2,55.8h0v-2.6h-3.4v28.1h3.8v-9.9h.1c1.4,1.7,3.3,2.6,5.7,2.6s5-1,6.8-2.9c1.9-1.9,2.8-4.6,2.8-7.9s-.9-5.6-2.6-7.5-3.9-2.9-6.9-2.9c-2.8,0-4.9,1-6.3,3.1"/>
    <path class="cls-1" d="M116.7,71.1c-1.8,0-3.2-.7-4.3-2-1.1-1.3-1.7-3.2-1.7-5.7s.6-4.3,1.7-5.8,2.6-2.2,4.4-2.2,3.1.7,4.2,2c1.1,1.3,1.7,3.2,1.7,5.7s-.6,4.6-1.7,6c-1.1,1.3-2.6,2-4.3,2M110.9,55.8h0v-2.6h-3.4v28.1h3.8v-9.9h.1c1.4,1.7,3.3,2.6,5.7,2.6s5-1,6.9-2.9c1.9-1.9,2.8-4.6,2.8-7.9s-.8-5.6-2.5-7.5-4-2.9-6.9-2.9c-2.8,0-4.9,1-6.3,3.1"/>
    <path class="cls-1" d="M149,73.4v-20.3h-3.8v10.8c0,2.9-.6,4.7-1.8,5.6-1.3.9-2.6,1.4-4,1.4s-2.1-.3-2.9-.8c-.8-.5-1.3-1.2-1.4-1.9-.2-.8-.3-2.1-.3-3.9v-11.3h-3.8v12.6c0,1.8.2,3.4.7,4.5.4,1.2,1.3,2.1,2.6,2.7,1.3.7,2.8,1,4.3,1,2.9,0,5.2-1.2,6.9-3.5h.1v3h3.3"/>
    <path class="cls-1" d="M169,64.5c0,2.4-.7,4.2-2.1,5.2-1.4,1-3,1.5-4.9,1.5s-2.6-.3-3.3-.9c-.7-.6-1.1-1.4-1.1-2.3,0-1.9,1.4-3,4.2-3.3s5.3-.8,7.2-1.4v1.2M174,73.4c-.6-.9-.9-1.9-1-2.9-.1-1-.2-2.9-.2-5.7v-4.6c0-1.6-.2-2.9-.4-3.9s-1.1-1.9-2.3-2.6c-1.3-.7-3.2-1.1-5.9-1.1s-5.2.5-6.9,1.6-2.7,2.6-3.1,4.7l3.7.5c.4-1.5,1-2.5,1.9-3.1.9-.6,2.2-.9,3.8-.9s2.3.2,3,.5c.8.3,1.3.6,1.7,1.1.3.5.6.9.6,1.4,0,.4.1,1.1.1,2.2-.8.3-1.9.5-3.2.7l-3.5.5c-3.2.4-5.5,1.1-6.8,2.2-1.3,1.1-1.9,2.4-1.9,4.1s.7,3.2,2,4.3,3.2,1.6,5.5,1.6,5.6-1,8.1-3c.2,1,.4,1.8.8,2.5h3.9"/>
    <path class="cls-1" d="M196.4,73.4v-20.3h-3.7v10.8c0,2.9-.6,4.7-1.9,5.6-1.2.9-2.6,1.4-4,1.4s-2.1-.3-2.8-.8-1.3-1.2-1.5-1.9c-.2-.8-.3-2.1-.3-3.9v-11.3h-3.7v12.6c0,1.8.2,3.4.7,4.5.4,1.2,1.3,2.1,2.6,2.7,1.3.7,2.7,1,4.3,1,2.9,0,5.3-1.2,6.9-3.5h.1v3h3.3"/>
    <path class="cls-1" d="M210.9,73.4l-.6-3.1c-.6.1-1.1.2-1.7.2-.9,0-1.5-.2-1.7-.7-.2-.4-.3-1.1-.3-2.1v-11.9h3.7v-2.6h-3.7v-7.1l-3.8,2.1v5h-2.7v2.6h2.7v11.7c0,1.4.1,2.6.3,3.4.2.8.6,1.5,1.3,2,.8.6,1.9.8,3.6.8s1.7-.1,2.8-.3"/>
    <path class="cls-1" d="M223.1,71.1c-1.8,0-3.4-.7-4.7-2-1.2-1.3-1.8-3.3-1.8-5.8s.6-4.5,1.8-5.9,2.8-2,4.7-2,3.4.7,4.7,1.9c1.3,1.3,1.9,3.2,1.9,5.8s-.6,4.3-1.7,5.8c-1.1,1.4-2.7,2.2-4.9,2.2M223.1,52.7c-2.9,0-5.4.9-7.4,2.6-1.9,1.7-2.9,4.4-2.9,8s1,6.4,3,8,4.5,2.5,7.3,2.5,5.1-.8,7.2-2.5c2.1-1.6,3.2-4.4,3.2-8.5s-.9-5.8-2.9-7.6c-1.9-1.8-4.4-2.7-7.4-2.7"/>
    <path class="cls-1" d="M267.8,73.4v-14c0-2.3-.6-4-1.7-5.1-1.2-1.2-2.9-1.7-5.2-1.7s-5.2,1.2-6.8,3.6c-.4-1.2-1.2-2.1-2.3-2.6-1.1-.6-2.4-.9-4-.9-2.9,0-5.1,1.1-6.6,3.3h-.1v-2.9h-3.4v20.3h3.8v-10.5c0-2.8.5-4.7,1.6-5.8,1.1-1,2.3-1.5,3.9-1.5s2.2.4,2.9,1c.7.6,1,1.8,1,3.6v13.2h3.8v-11.8c0-2.1.6-3.6,1.6-4.6,1.1-.9,2.3-1.4,3.8-1.4s2.1.3,2.7.8c.6.5.9,1.1,1.1,1.8.1.7.2,1.5.2,2.4v12.8h3.8"/>
    <path class="cls-1" d="M287.6,64.5c0,2.4-.7,4.2-2.2,5.2-1.4,1-3,1.5-4.9,1.5s-2.5-.3-3.3-.9c-.8-.6-1.2-1.4-1.2-2.3,0-1.9,1.4-3,4.3-3.3,2.8-.4,5.2-.8,7.2-1.4v1.2M292.5,73.4c-.6-.9-.9-1.9-1.1-2.9-.1-1-.2-2.9-.2-5.7v-4.6c0-1.6-.1-2.9-.4-3.9-.3-1-1-1.9-2.3-2.6-1.2-.7-3.2-1.1-5.8-1.1s-5.2.5-6.9,1.6-2.7,2.6-3.1,4.7l3.7.5c.3-1.5,1-2.5,1.9-3.1.9-.6,2.2-.9,3.8-.9s2.3.2,3,.5c.8.3,1.3.6,1.7,1.1.3.5.5.9.6,1.4,0,.4.1,1.1.1,2.2-.9.3-1.9.5-3.3.7l-3.5.5c-3.2.4-5.4,1.1-6.8,2.2-1.3,1.1-1.9,2.4-1.9,4.1s.7,3.2,2.1,4.3c1.3,1.1,3.2,1.6,5.5,1.6s5.7-1,8.2-3c.2,1,.4,1.8.8,2.5h3.9"/>
    <path class="cls-1" d="M311.3,64.5c0,2.4-.7,4.2-2.1,5.2-1.4,1-3,1.5-4.9,1.5s-2.6-.3-3.3-.9c-.8-.6-1.2-1.4-1.2-2.3,0-1.9,1.4-3,4.3-3.3,2.8-.4,5.2-.8,7.2-1.4v1.2M316.3,73.4c-.6-.9-.9-1.9-1.1-2.9s-.2-2.9-.2-5.7v-4.6c0-1.6-.2-2.9-.4-3.9s-1.1-1.9-2.3-2.6c-1.3-.7-3.2-1.1-5.9-1.1s-5.2.5-6.8,1.6c-1.7,1.1-2.7,2.6-3.1,4.7l3.7.5c.3-1.5,1-2.5,1.9-3.1.9-.6,2.2-.9,3.8-.9s2.3.2,3,.5c.7.3,1.3.6,1.6,1.1.3.5.6.9.6,1.4.1.4.1,1.1.1,2.2-.8.3-1.9.5-3.2.7l-3.5.5c-3.2.4-5.5,1.1-6.8,2.2-1.3,1.1-1.9,2.4-1.9,4.1s.7,3.2,2,4.3c1.4,1.1,3.2,1.6,5.5,1.6s5.6-1,8.2-3c.1,1,.4,1.8.8,2.5h3.9"/>
    <path class="cls-1" d="M329.4,73.4l-.5-3.1c-.6.1-1.1.2-1.7.2-.9,0-1.5-.2-1.8-.7-.2-.4-.3-1.1-.3-2.1v-11.9h3.8v-2.6h-3.8v-7.1l-3.7,2.1v5h-2.8v2.6h2.8v11.7c0,1.4,0,2.6.2,3.4s.6,1.5,1.4,2c.8.6,1.9.8,3.6.8s1.7-.1,2.8-.3"/>
    <path class="cls-1" d="M341.3,73.4l-.5-3.1c-.6.1-1.1.2-1.7.2-.9,0-1.5-.2-1.8-.7-.2-.4-.3-1.1-.3-2.1v-11.9h3.8v-2.6h-3.8v-7.1l-3.7,2.1v5h-2.8v2.6h2.8v11.7c0,1.4,0,2.6.2,3.4s.6,1.5,1.4,2c.7.6,1.9.8,3.5.8s1.7-.1,2.8-.3"/>
    <polyline class="cls-1" points="348.2 73.4 348.2 53.1 344.5 53.1 344.5 73.4 348.2 73.4"/>
    <polyline class="cls-1" points="348.2 49.3 348.2 45.4 344.5 45.4 344.5 49.3 348.2 49.3"/>
  </g>
</svg>