<?xml version="1.0" encoding="UTF-8"?>
<svg id="Layer_2" data-name="Layer 2" xmlns="http://www.w3.org/2000/svg" version="1.1" xmlns:cc="http://creativecommons.org/ns#" xmlns:dc="http://purl.org/dc/elements/1.1/" xmlns:rdf="http://www.w3.org/1999/02/22-rdf-syntax-ns#" xmlns:svg="http://www.w3.org/2000/svg" viewBox="0 0 361.1 121.4">
  <defs>
    <style>
      .cls-1 {
        fill-rule: evenodd;
      }

      .cls-1, .cls-2, .cls-3 {
        stroke-width: 0px;
      }

      .cls-1, .cls-3 {
        fill: #fff;
      }

      .cls-2, .cls-4 {
        fill: #005eb8;
      }

      .cls-4 {
        stroke: #005eb8;
        stroke-miterlimit: 10;
        stroke-width: .5px;
      }
    </style>
  </defs>
  <g id="LWPOLYLINE">
    <rect class="cls-4" width="361.1" height="121.4"/>
  </g>
  <g id="LWPOLYLINE-2">
    <path class="cls-3" d="M361.1,97.1c0,13.4-10.8,24.3-24.1,24.3H24.1c-13.3,0-24.1-10.9-24.1-24.3V24.3C0,10.9,10.8,0,24.1,0h313c13.3,0,24.1,10.9,24.1,24.3v72.8h-.1Z"/>
  </g>
  <g id="LWPOLYLINE-3">
    <path class="cls-2" d="M349.1,97.1c0,6.7-5.4,12.1-12,12.1H24.1c-6.6,0-12-5.4-12-12.1V24.3c0-6.7,5.4-12.1,12-12.1h313c6.6,0,12,5.4,12,12.1,0,0,0,72.8,0,72.8Z"/>
  </g>
  <g>
    <path class="cls-1" d="M105.5,87.2v-7.4h5.6c2.3,0,3.9.3,4.8,1,.9.7,1.3,1.5,1.3,2.8s-.5,2-1.3,2.7c-.9.7-2.3,1-4.5,1h-6M105.5,77.3v-6.5h4.8c1.3,0,2.2,0,3,.2.8.2,1.4.5,2.1.9.6.5.9,1.2.9,2.3s-.3,1.7-.9,2.1c-.6.5-1.3.8-2,.8-.7.2-1.7.2-2.7.2h-5.3M116,78.3c1.1-.5,2-1.2,2.5-2s.9-1.7.9-2.6c0-1.4-.6-2.6-1.8-3.8-1.2-1.2-3.2-1.7-6.2-1.7h-9.1v21.6h9.2c2.1,0,3.9-.2,5.1-.8,1.3-.5,2.2-1.2,2.9-2.2.7-1,1-2.1,1-3.3s-.4-2.3-1.1-3.2-1.9-1.6-3.4-2"/>
    <polyline class="cls-1" points="127.6 89.8 127.6 74.2 124.6 74.2 124.6 89.8 127.6 89.8"/>
    <polyline class="cls-1" points="127.6 71.3 127.6 68.3 124.6 68.3 124.6 71.3 127.6 71.3"/>
    <polyline class="cls-1" points="135.1 89.8 135.1 68.3 132.1 68.3 132.1 89.8 135.1 89.8"/>
    <path class="cls-1" d="M142.6,90.6v-16.4h-3v16.3c0,1.4-.2,2.3-.5,2.7-.2.4-.7.6-1.3.6s-.9,0-1.4-.2l-.6,2.3c.8.2,1.5.2,2.3.2,1.3,0,2.4-.3,3-.8s1-1.2,1.3-1.9c.2-.8.2-1.6.2-2.7"/>
    <polyline class="cls-1" points="142.6 71.3 142.6 68.3 139.6 68.3 139.6 71.3 142.6 71.3"/>
    <path class="cls-1" d="M159.2,80.5h-9.9c.2-1.3.6-2.5,1.6-3.2.9-.8,2.1-1.2,3.4-1.2s2.2.4,3.2,1.1c1,.7,1.5,1.8,1.7,3.5M162.2,82.6c0-2.5-.5-4.3-1.3-5.5-.9-1.2-1.8-2-3-2.5-1.2-.5-2.4-.8-3.7-.8-2.6,0-4.6.8-6.1,2.3-1.4,1.5-2.1,3.5-2.1,6s.7,4.4,2.2,5.8c1.5,1.5,3.6,2.1,6.2,2.1s3.6-.5,4.9-1.3c1.3-.9,2.2-2.1,2.7-3.8l-3-.4c-.4,1.1-1,1.8-1.7,2.5-.8.5-1.7.8-2.8.8s-2.7-.5-3.7-1.4c-1-.9-1.5-2.2-1.7-3.9h13.1"/>
    <path class="cls-1" d="M172.6,89.7l-.5-2.4c-.5,0-.9.2-1.3.2-.7,0-1.2-.2-1.3-.5-.2-.3-.2-.8-.2-1.6v-9.1h2.9v-2h-2.9v-5.4l-3,1.6v3.8h-2.1v2h2.1v9c0,1.1,0,2,.2,2.6s.6,1.2,1.1,1.5c.6.5,1.5.6,2.8.6s1.3,0,2.2-.2"/>
    <path class="cls-1" d="M182,89.7l-.4-2.4c-.5,0-.9.2-1.3.2-.7,0-1.2-.2-1.3-.5-.2-.3-.2-.8-.2-1.6v-9.1h2.9v-2h-2.9v-5.4l-3,1.6v3.8h-2.1v2h2.1v9c0,1.1,0,2,.2,2.6s.6,1.2,1.1,1.5c.6.5,1.5.6,2.8.6s1.3,0,2.2-.2"/>
    <path class="cls-1" d="M195.8,82.9c0,1.8-.6,3.2-1.7,4s-2.4,1.2-3.9,1.2-2.1-.2-2.6-.7c-.6-.5-.9-1.1-.9-1.8,0-1.5,1.1-2.3,3.3-2.5,2.3-.3,4.2-.6,5.7-1.1v.9M199.6,89.8c-.5-.7-.7-1.5-.8-2.2s-.2-2.2-.2-4.4v-3.5c0-1.2-.2-2.2-.3-3s-.9-1.5-1.8-2c-1-.5-2.5-.8-4.7-.8s-4.1.4-5.4,1.2c-1.3.8-2.1,2-2.4,3.6l2.9.4c.3-1.2.8-1.9,1.5-2.4.7-.4,1.7-.6,3-.6s1.8.2,2.4.4,1,.5,1.3.8.5.7.5,1,0,.9,0,1.7c-.6.2-1.5.5-2.5.5l-2.8.4c-2.5.3-4.3.8-5.4,1.6-1,.8-1.5,1.9-1.5,3.2s.6,2.5,1.6,3.2,2.5,1.2,4.3,1.2,4.4-.8,6.5-2.3c0,.8.3,1.5.6,1.9h3.1"/>
    <path class="cls-1" d="M217.4,89.8v-15.6h-3v8.3c0,2.2-.5,3.6-1.5,4.3-.9.7-2.1,1-3.2,1s-1.7-.2-2.2-.5c-.6-.4-1-.9-1.1-1.5-.2-.6-.2-1.6-.2-3v-8.7h-2.9v9.7c0,1.4.2,2.6.6,3.5.3.9,1,1.6,2.1,2.1,1,.5,2.1.8,3.4.8,2.3,0,4.2-.9,5.4-2.7h0v2.3h2.7"/>
    <path class="cls-1" d="M228.8,89.7l-.5-2.4c-.5,0-.9.2-1.3.2-.7,0-1.2-.2-1.3-.5-.2-.3-.2-.8-.2-1.6v-9.1h2.9v-2h-2.9v-5.4l-3,1.6v3.8h-2.1v2h2.1v9c0,1.1,0,2,.2,2.6s.5,1.2,1.1,1.5c.6.5,1.5.6,2.8.6s1.3,0,2.2-.2"/>
    <path class="cls-1" d="M238.5,88c-1.5,0-2.7-.5-3.7-1.5s-1.5-2.5-1.5-4.4.5-3.5,1.4-4.5,2.2-1.5,3.7-1.5,2.7.5,3.6,1.5c1,1,1.5,2.5,1.5,4.4s-.5,3.3-1.3,4.4c-.9,1.1-2.1,1.6-3.8,1.6M238.5,73.9c-2.3,0-4.3.7-5.8,2s-2.4,3.4-2.4,6.1.8,4.9,2.4,6.1,3.6,1.9,5.8,1.9,3.9-.6,5.7-1.9c1.7-1.2,2.5-3.5,2.5-6.5s-.8-4.4-2.4-5.8c-1.5-1.4-3.5-2.1-5.8-2.1"/>
    <path class="cls-1" d="M273.7,89.8v-10.7c0-1.8-.5-3.1-1.3-3.9-.9-.8-2.3-1.3-4.1-1.3s-4.1.9-5.4,2.8c-.3-.9-.9-1.6-1.8-2-.9-.5-1.9-.7-3.2-.7-2.3,0-4,.8-5.2,2.5h0v-2.2h-2.7v15.6h3v-8.1c0-2.1.4-3.6,1.3-4.4.9-.8,1.9-1.2,3.2-1.2s1.7.3,2.2.8c.6.5.8,1.5.8,2.8v10.1h3v-9.1c0-1.6.5-2.8,1.3-3.5.9-.7,1.8-1.1,3-1.1s1.7.2,2.1.6c.5.5.7.8.9,1.4,0,.5.2,1.2.2,1.8v9.8h3"/>
    <path class="cls-1" d="M289.3,82.9c0,1.8-.6,3.2-1.7,4s-2.4,1.2-3.9,1.2-2-.2-2.6-.7-.9-1.1-.9-1.8c0-1.5,1.1-2.3,3.4-2.5,2.2-.3,4.1-.6,5.7-1.1v.9M293.2,89.8c-.5-.7-.7-1.5-.9-2.2,0-.8-.2-2.2-.2-4.4v-3.5c0-1.2,0-2.2-.3-3s-.9-1.5-1.8-2c-.9-.5-2.5-.8-4.6-.8s-4.1.4-5.4,1.2c-1.3.8-2.1,2-2.4,3.6l2.9.4c.2-1.2.8-1.9,1.5-2.4.7-.4,1.7-.6,3-.6s1.8.2,2.4.4c.6.2,1,.5,1.3.8.2.4.5.7.5,1s0,.9,0,1.7c-.7.2-1.5.5-2.6.5l-2.8.4c-2.5.3-4.3.8-5.4,1.6-1,.8-1.5,1.9-1.5,3.2s.6,2.5,1.7,3.2c1,.8,2.5,1.2,4.3,1.2s4.5-.8,6.5-2.3c.2.8.3,1.5.6,1.9h3.1"/>
    <path class="cls-1" d="M303.6,89.7l-.5-2.4c-.5,0-.9.2-1.3.2-.7,0-1.2-.2-1.3-.5-.2-.3-.2-.8-.2-1.6v-9.1h2.9v-2h-2.9v-5.4l-3,1.6v3.8h-2.1v2h2.1v9c0,1.1,0,2,.2,2.6.2.6.5,1.2,1,1.5.6.5,1.5.6,2.8.6s1.3,0,2.2-.2"/>
  </g>
  <g>
    <polyline class="cls-1" points="117.9 50.2 117.9 47.7 105.9 47.7 105.9 28.7 102.7 28.7 102.7 50.2 117.9 50.2"/>
    <polyline class="cls-1" points="124.1 50.2 124.1 34.6 121.2 34.6 121.2 50.2 124.1 50.2"/>
    <polyline class="cls-1" points="124.1 31.7 124.1 28.7 121.2 28.7 121.2 31.7 124.1 31.7"/>
    <path class="cls-1" d="M136,48.4c-1.4,0-2.5-.5-3.4-1.5-.9-1-1.3-2.5-1.3-4.4s.5-3.3,1.3-4.4c.9-1.2,2.1-1.7,3.5-1.7s2.5.5,3.4,1.5c.9,1,1.3,2.5,1.3,4.4s-.5,3.5-1.3,4.6c-.9,1-2.1,1.5-3.5,1.5M131.4,36.7h0v-2h-2.7v21.6h3v-7.6h0c1.1,1.3,2.6,2,4.5,2s3.9-.8,5.4-2.2c1.5-1.5,2.2-3.5,2.2-6.1s-.7-4.3-2.1-5.8-3.1-2.2-5.4-2.2-3.9.8-5,2.4"/>
    <path class="cls-1" d="M154.7,48.4c-1.4,0-2.5-.5-3.4-1.5-.9-1-1.3-2.5-1.3-4.4s.5-3.3,1.3-4.4,2.1-1.7,3.5-1.7,2.4.5,3.3,1.5,1.3,2.5,1.3,4.4-.5,3.5-1.3,4.6c-.9,1-2.1,1.5-3.4,1.5M150.1,36.7h0v-2h-2.7v21.6h3v-7.6h0c1.1,1.3,2.6,2,4.5,2s3.9-.8,5.4-2.2,2.2-3.5,2.2-6.1-.6-4.3-2-5.8-3.2-2.2-5.4-2.2-3.9.8-5,2.4"/>
    <path class="cls-1" d="M180.2,50.2v-15.6h-3v8.3c0,2.2-.5,3.6-1.4,4.3-1,.7-2.1,1.1-3.2,1.1s-1.7-.2-2.3-.6c-.6-.4-1-.9-1.1-1.5-.2-.6-.2-1.6-.2-3v-8.7h-3v9.7c0,1.4.2,2.6.6,3.5.3.9,1,1.6,2.1,2.1,1,.5,2.2.8,3.4.8,2.3,0,4.1-.9,5.4-2.7h0v2.3h2.6"/>
    <path class="cls-1" d="M196,43.4c0,1.8-.6,3.2-1.7,4-1.1.8-2.4,1.2-3.9,1.2s-2.1-.2-2.6-.7-.9-1.1-.9-1.8c0-1.5,1.1-2.3,3.3-2.5s4.2-.6,5.7-1.1v.9M200,50.2c-.5-.7-.7-1.5-.8-2.2s-.2-2.2-.2-4.4v-3.5c0-1.2-.2-2.2-.3-3s-.9-1.5-1.8-2c-1-.5-2.5-.8-4.7-.8s-4.1.4-5.4,1.2-2.1,2-2.4,3.6l2.9.4c.3-1.2.8-1.9,1.5-2.4s1.7-.7,3-.7,1.8.2,2.4.4c.6.2,1,.5,1.3.8.2.4.5.7.5,1.1s0,.8,0,1.7c-.6.2-1.5.4-2.5.5l-2.8.4c-2.5.3-4.3.8-5.4,1.7-1,.8-1.5,1.8-1.5,3.1s.6,2.5,1.6,3.3,2.5,1.2,4.3,1.2,4.4-.8,6.4-2.3c.2.8.3,1.4.6,1.9h3.1"/>
    <path class="cls-1" d="M217.6,50.2v-15.6h-2.9v8.3c0,2.2-.5,3.6-1.5,4.3-.9.7-2.1,1.1-3.2,1.1s-1.7-.2-2.2-.6-1-.9-1.2-1.5c-.2-.6-.2-1.6-.2-3v-8.7h-2.9v9.7c0,1.4.2,2.6.6,3.5.3.9,1,1.6,2.1,2.1,1,.5,2.1.8,3.4.8,2.3,0,4.2-.9,5.4-2.7h0v2.3h2.6"/>
    <path class="cls-1" d="M229.1,50.2l-.5-2.4c-.5,0-.9.2-1.3.2-.7,0-1.2-.2-1.3-.5-.2-.3-.2-.8-.2-1.6v-9.1h2.9v-2h-2.9v-5.4l-3,1.6v3.8h-2.1v2h2.1v9c0,1.1,0,2,.2,2.6s.5,1.2,1,1.5c.6.5,1.5.6,2.8.6s1.3,0,2.2-.2"/>
    <path class="cls-1" d="M238.7,48.4c-1.4,0-2.7-.5-3.7-1.5-.9-1-1.4-2.5-1.4-4.4s.5-3.5,1.4-4.5,2.2-1.5,3.7-1.5,2.7.5,3.7,1.5c1,1,1.5,2.5,1.5,4.4s-.5,3.3-1.3,4.4c-.9,1.1-2.1,1.7-3.9,1.7M238.7,34.3c-2.3,0-4.3.7-5.8,2-1.5,1.3-2.3,3.4-2.3,6.1s.8,4.9,2.4,6.1,3.6,1.9,5.8,1.9,4-.6,5.7-1.9c1.7-1.2,2.5-3.4,2.5-6.5s-.7-4.4-2.3-5.8c-1.5-1.4-3.5-2.1-5.8-2.1"/>
    <path class="cls-1" d="M274,50.2v-10.7c0-1.8-.5-3.1-1.3-3.9-.9-.9-2.3-1.3-4.1-1.3s-4.1.9-5.4,2.8c-.3-.9-.9-1.6-1.8-2-.9-.5-1.9-.7-3.2-.7-2.3,0-4,.8-5.2,2.5h0v-2.2h-2.7v15.6h3v-8.1c0-2.1.4-3.6,1.3-4.4.9-.8,1.8-1.2,3.1-1.2s1.7.3,2.3.8.8,1.4.8,2.8v10.1h3v-9.1c0-1.6.5-2.8,1.3-3.5.9-.7,1.8-1.1,3-1.1s1.7.2,2.1.6.7.8.9,1.4c0,.5.2,1.2.2,1.8v9.8h3"/>
    <path class="cls-1" d="M289.7,43.4c0,1.8-.6,3.2-1.7,4-1.1.8-2.4,1.2-3.9,1.2s-2-.2-2.6-.7-.9-1.1-.9-1.8c0-1.5,1.1-2.3,3.4-2.5,2.2-.3,4.1-.6,5.7-1.1v.9M293.5,50.2c-.5-.7-.7-1.5-.9-2.2,0-.8-.2-2.2-.2-4.4v-3.5c0-1.2,0-2.2-.3-3s-.8-1.5-1.8-2c-.9-.5-2.5-.8-4.6-.8s-4.1.4-5.4,1.2-2.1,2-2.4,3.6l2.9.4c.2-1.2.8-1.9,1.5-2.4s1.7-.7,3-.7,1.8.2,2.4.4c.6.2,1,.5,1.3.8.2.4.4.7.5,1.1,0,.3,0,.8,0,1.7-.7.2-1.5.4-2.6.5l-2.8.4c-2.5.3-4.3.8-5.4,1.7-1,.8-1.5,1.8-1.5,3.1s.6,2.5,1.7,3.3c1,.8,2.5,1.2,4.3,1.2s4.5-.8,6.5-2.3c.2.8.3,1.4.6,1.9h3.1"/>
    <path class="cls-1" d="M308.4,43.4c0,1.8-.6,3.2-1.7,4s-2.4,1.2-3.9,1.2-2.1-.2-2.6-.7c-.6-.5-.9-1.1-.9-1.8,0-1.5,1.1-2.3,3.4-2.5,2.2-.3,4.1-.6,5.7-1.1v.9M312.3,50.2c-.5-.7-.7-1.5-.9-2.2s-.2-2.2-.2-4.4v-3.5c0-1.2-.2-2.2-.3-3s-.9-1.5-1.8-2c-1-.5-2.5-.8-4.7-.8s-4.1.4-5.4,1.2c-1.3.8-2.1,2-2.4,3.6l2.9.4c.2-1.2.8-1.9,1.5-2.4s1.7-.7,3-.7,1.8.2,2.4.4,1,.5,1.3.8c.2.4.5.7.5,1.1,0,.3,0,.8,0,1.7-.6.2-1.5.4-2.5.5l-2.8.4c-2.5.3-4.3.8-5.4,1.7-1,.8-1.5,1.8-1.5,3.1s.6,2.5,1.6,3.3c1.1.8,2.5,1.2,4.3,1.2s4.4-.8,6.5-2.3c0,.8.3,1.4.6,1.9h3.1"/>
    <path class="cls-1" d="M322.7,50.2l-.4-2.4c-.5,0-.9.2-1.3.2-.7,0-1.2-.2-1.4-.5-.2-.3-.2-.8-.2-1.6v-9.1h3v-2h-3v-5.4l-2.9,1.6v3.8h-2.2v2h2.2v9c0,1.1,0,2,.2,2.6s.5,1.2,1.1,1.5c.6.5,1.5.6,2.8.6s1.3,0,2.2-.2"/>
    <path class="cls-1" d="M332,50.2l-.4-2.4c-.5,0-.9.2-1.3.2-.7,0-1.2-.2-1.4-.5-.2-.3-.2-.8-.2-1.6v-9.1h3v-2h-3v-5.4l-2.9,1.6v3.8h-2.2v2h2.2v9c0,1.1,0,2,.2,2.6s.5,1.2,1.1,1.5c.6.5,1.5.6,2.8.6s1.3,0,2.2-.2"/>
    <polyline class="cls-1" points="337.5 50.2 337.5 34.6 334.6 34.6 334.6 50.2 337.5 50.2"/>
    <polyline class="cls-1" points="337.5 31.7 337.5 28.7 334.6 28.7 334.6 31.7 337.5 31.7"/>
  </g>
  <polygon id="polygon15" class="cls-1" points="48 69.1 91.8 69.1 91.8 52.6 48 52.6 48 36 18.7 60.9 48 85.4 48 69.1"/>
</svg>