<?xml version="1.0" encoding="UTF-8" standalone="no"?>
<svg
   xmlns:dc="http://purl.org/dc/elements/1.1/"
   xmlns:cc="http://creativecommons.org/ns#"
   xmlns:rdf="http://www.w3.org/1999/02/22-rdf-syntax-ns#"
   xmlns:svg="http://www.w3.org/2000/svg"
   xmlns="http://www.w3.org/2000/svg"
   id="svg17"
   xml:space="preserve"
   viewBox="0 0 361.36801 363.02399"
   height="363.02399"
   width="361.36801"
   y="0px"
   x="0px"
   version="1.1"><metadata
   id="metadata23"><rdf:RDF><cc:Work
       rdf:about=""><dc:format>image/svg+xml</dc:format><dc:type
         rdf:resource="http://purl.org/dc/dcmitype/StillImage" /></cc:Work></rdf:RDF></metadata><defs
   id="defs21" />
<g
   transform="translate(-123.04,-206.24)"
   id="Kuvataso_1">
</g>
<g
   transform="translate(-123.04,-206.24)"
   id="_x30_">
</g>
<g
   transform="translate(-123.04,-206.24)"
   id="HATPUN">
</g>
<g
   transform="translate(-123.04,-206.24)"
   id="HATKEL">
</g>
<g
   transform="translate(-123.04,-206.24)"
   id="HAT">
	<g
   id="g14">
		<rect
   id="rect6"
   height="363.02399"
   width="361.36801"
   style="clip-rule:evenodd;fill:#ffd200;fill-rule:evenodd"
   y="206.24001"
   x="123.04" />
		<path
   id="path8"
   d="m 154,206.24 h 300.6 c 16.416,0 29.808,13.392 29.808,29.736 v 303.048 c 0,16.344 -13.392,29.736 -29.808,29.736 H 154 c -16.344,0 -29.808,-13.392 -29.808,-29.736 V 235.976 c 0,-16.344 13.464,-29.736 29.808,-29.736 z"
   style="clip-rule:evenodd;fill:#ef3e42;fill-rule:evenodd" />
		<path
   id="path10"
   d="m 155.008,221.432 h 299.52 c 9.432,0 17.064,7.632 17.064,16.92 v 299.736 c 0,9.288 -7.632,16.92 -17.064,16.92 h -299.52 c -9.36,0 -17.064,-7.632 -17.064,-16.92 V 238.352 c 0,-9.288 7.704,-16.92 17.064,-16.92 z"
   style="clip-rule:evenodd;fill:#ffd200;fill-rule:evenodd" />
		<polygon
   id="polygon12"
   points="319.312,433.616 321.184,422.528 324.856,414.968 332.2,406.328 341.704,400.496 346.96,398.624 352.792,397.76 449.272,397.76 449.272,354.128 351.28,354.128 334.648,356.864 326.656,359.312 319.024,362.696 308.584,369.464 308.584,245.984 286.84,245.984 286.84,371.912 160.264,371.912 160.264,393.728 286.48,393.728 284.68,397.4 282.808,401.144 280.648,406.616 278.848,413.096 276.688,421.952 276.04,433.328 276.04,534.344 319.312,534.344 "
   style="clip-rule:evenodd;fill-rule:evenodd" />
	</g>
</g>
</svg>