<?xml version="1.0" encoding="UTF-8"?>
<svg id="Layer_1" data-name="Layer 1" xmlns="http://www.w3.org/2000/svg" version="1.1" viewBox="0 0 425.2 425.2">
  <defs>
    <style>
      .cls-1 {
        fill: #ffcd00;
      }

      .cls-1, .cls-2, .cls-3 {
        stroke-width: 0px;
      }

      .cls-2 {
        fill: #e4002b;
      }

      .cls-3 {
        fill: #101820;
      }
    </style>
  </defs>
  <g id="LWPOLYLINE">
    <rect class="cls-1" width="425.2" height="425.2"/>
  </g>
  <g id="LWPOLYLINE-2" data-name="LWPOLYLINE">
    <path class="cls-2" d="M391.2,0H34C15.2,0,0,15.2,0,34v357.2c0,18.8,15.2,34,34,34h357.2c18.8,0,34-15.2,34-34V34c0-18.8-15.2-34-34-34Z"/>
  </g>
  <g id="LWPOLYLINE-3" data-name="LWPOLYLINE">
    <path class="cls-1" d="M391.2,17H34c-9.4,0-17,7.6-17,17v357.2c0,9.4,7.6,17,17,17h357.2c9.4,0,17-7.6,17-17V34c0-9.4-7.6-17-17-17Z"/>
  </g>
  <g id="LWPOLYLINE-4" data-name="LWPOLYLINE">
    <path class="cls-3" d="M153.1,170.1H42.5v51h110.6c23.5,0,42.5,19,42.5,42.5v119.1h51v-119.1c0-16.4-4.3-32.6-12.5-46.8h148.6v-25.5h-170.2c-16.7-13.7-37.7-21.3-59.4-21.3"/>
  </g>
</svg>