<?xml version="1.0" encoding="UTF-8" standalone="no"?>
<svg
   xmlns:dc="http://purl.org/dc/elements/1.1/"
   xmlns:cc="http://creativecommons.org/ns#"
   xmlns:rdf="http://www.w3.org/1999/02/22-rdf-syntax-ns#"
   xmlns:svg="http://www.w3.org/2000/svg"
   xmlns="http://www.w3.org/2000/svg"
   id="svg29"
   xml:space="preserve"
   viewBox="0 0 359.85602 119.88"
   height="119.88"
   width="359.85602"
   y="0px"
   x="0px"
   version="1.1"><metadata
   id="metadata35"><rdf:RDF><cc:Work
       rdf:about=""><dc:format>image/svg+xml</dc:format><dc:type
         rdf:resource="http://purl.org/dc/dcmitype/StillImage" /></cc:Work></rdf:RDF></metadata><defs
   id="defs33" />
<g
   transform="translate(-126.28,-210.632)"
   id="Kuvataso_1">
</g>
<g
   transform="translate(-126.28,-210.632)"
   id="_x30_">
</g>
<g
   transform="translate(-126.28,-210.632)"
   id="HATPUN">
</g>
<g
   transform="translate(-126.28,-210.632)"
   id="HATKEL">
</g>
<g
   transform="translate(-126.28,-210.632)"
   id="HAT">
	<rect
   id="rect6"
   height="119.88"
   width="359.71201"
   style="clip-rule:evenodd;fill:#ffd200;fill-rule:evenodd"
   y="210.632"
   x="126.424" />
	<path
   id="path8"
   d="M 467.632,210.776 H 144.64 144.568 c -5.04,0 -9.576,2.016 -12.888,5.256 -3.384,3.24 -5.4,7.776 -5.4,12.672 v 0 83.808 0 c 0,4.896 2.016,9.432 5.4,12.672 3.312,3.24 7.848,5.256 12.96,5.256 v 0 h 322.992 v 0 c 5.04,0 9.648,-2.016 12.96,-5.256 3.312,-3.24 5.4,-7.776 5.4,-12.672 v 0 -83.808 0 c 0,-4.896 -2.088,-9.432 -5.4,-12.672 -3.312,-3.24 -7.92,-5.256 -12.96,-5.256 z"
   style="fill:#ef3e42" />
	<path
   id="path10"
   d="m 468.496,219.2 h -324.72 -0.072 c -2.592,0 -4.968,0.936 -6.696,2.448 -1.656,1.512 -2.736,3.6 -2.736,5.904 v 0 86.112 0 c 0,2.304 1.08,4.392 2.736,5.904 1.728,1.512 4.104,2.448 6.696,2.448 h 0.072 324.72 v 0 c 2.592,0 4.968,-0.936 6.696,-2.448 1.728,-1.512 2.808,-3.6 2.808,-5.904 v 0 -86.112 0 c 0,-2.304 -1.08,-4.392 -2.808,-5.904 -1.728,-1.512 -4.104,-2.448 -6.696,-2.448 z"
   style="fill:#ffd200" />
	<g
   id="g26">
		<polygon
   id="polygon12"
   points="222.976,289.832 226,293.72 232.12,297.104 237.016,298.328 243.712,297.104 248.248,294.656 252.784,289.832 254.944,284.936 300.52,284.936 299.296,289.184 275.968,290.408 286.264,298.328 330.904,298.328 330.904,295.592 325.144,291.632 314.488,289.184 312.688,280.04 372.304,280.04 370.792,289.184 350.704,290.12 360.424,298.328 402.472,298.328 402.472,295.592 396.064,291.632 385.984,289.184 384.184,280.04 420.112,280.04 420.112,275.216 430.12,275.504 430.12,269.096 417.952,268.52 417.952,264.272 434.08,265.136 434.08,260.888 408.52,259.376 408.52,255.416 417.088,255.992 417.088,250.52 286.552,242.024 286.264,249.656 295.696,250.232 295.408,252.968 279.568,252.032 279.28,257.864 294.472,258.44 294.472,262.688 273.52,261.824 273.16,270.32 285.4,270.608 285.4,280.04 255.52,280.04 254.944,276.728 256.744,276.08 255.52,272.768 252.496,267.872 249.76,265.424 246.736,263.336 241.552,261.464 238.528,253.616 237.592,252.392 237.304,251.744 234.28,250.232 233.344,249.008 232.12,247.496 230.896,243.536 229.672,242.6 225.712,242.6 224.776,242.6 224.2,243.824 224.2,245.984 223.624,246.92 224.2,246.56 226.36,250.52 226.936,251.168 228.448,251.456 229.672,251.744 229.384,259.952 225.424,261.464 222.4,260.312 221.464,257.864 220.888,257.216 219.952,256.928 219.304,257.576 219.016,258.152 219.952,260.6 185.536,260.6 184.312,261.176 183.736,262.4 183.736,263.048 184.96,278.528 184.024,279.464 182.512,281.912 181.936,283.136 181.288,285.872 181.288,288.608 182.224,290.984 183.448,293.432 185.536,295.592 187.696,297.104 190.432,298.04 193.168,298.328 195.904,297.68 198.352,296.816 199.576,295.88 201.376,294.08 203.176,291.344 203.824,288.248 203.824,284.936 220.888,284.936 "
   style="clip-rule:evenodd;fill-rule:evenodd" />
		<polygon
   id="polygon14"
   points="195.616,280.976 197.416,282.2 198.928,284.648 199.216,285.872 199.216,287.672 198.64,289.832 197.416,291.344 195.616,292.568 193.744,293.144 190.72,293.144 188.92,292.208 186.76,289.832 186.184,287.672 186.184,285.872 186.76,283.712 187.984,282.2 189.784,280.976 191.656,280.4 193.744,280.4 "
   style="clip-rule:evenodd;fill:#ffd520;fill-rule:evenodd" />
		<polygon
   id="polygon16"
   points="194.968,283.712 195.904,284.648 196.48,286.16 196.48,287.672 195.904,288.896 194.968,290.12 193.456,290.696 191.944,290.696 189.784,289.472 189.208,288.248 188.92,287.672 188.92,286.16 189.208,285.224 189.784,284 190.432,283.712 191.944,283.136 192.592,282.776 "
   style="clip-rule:evenodd;fill-rule:evenodd" />
		<polygon
   id="polygon18"
   points="242.488,271.256 244.864,273.056 247.024,276.08 247.96,279.176 247.96,281.912 247.312,284.288 245.224,287.672 243.064,289.184 239.104,290.696 236.656,290.696 232.696,289.184 230.896,287.672 229.096,285.512 227.872,281.912 227.872,279.176 228.448,276.728 229.96,274.28 231.832,272.48 233.92,271.256 236.656,270.608 239.104,270.608 "
   style="clip-rule:evenodd;fill:#ffd520;fill-rule:evenodd" />
		<polygon
   id="polygon20"
   points="240.04,273.704 242.128,274.856 243.712,276.44 244.576,278.24 245.224,280.688 244.576,282.776 243.712,284.936 242.128,286.448 240.04,287.384 237.88,287.672 235.792,287.384 233.632,286.448 232.12,284.936 231.184,282.776 230.896,279.464 231.472,277.304 232.696,275.504 234.856,274.28 236.656,273.344 237.88,273.344 "
   style="clip-rule:evenodd;fill-rule:evenodd" />
		<rect
   id="rect22"
   height="41.688"
   width="4.5359998"
   style="clip-rule:evenodd;fill:#ffd200;fill-rule:evenodd"
   y="247.496"
   x="304.76801" />
		<rect
   id="rect24"
   height="38.952"
   width="4.2480001"
   style="clip-rule:evenodd;fill:#ffd200;fill-rule:evenodd"
   y="250.23199"
   x="376.26401" />
	</g>
</g>
</svg>