<?xml version="1.0" encoding="UTF-8"?>
<svg id="Layer_1" data-name="Layer 1" xmlns="http://www.w3.org/2000/svg" version="1.1" viewBox="0 0 400 200">
  <defs>
    <style>
      .cls-1 {
        fill: #0b79bf;
      }

      .cls-1, .cls-2 {
        stroke-width: 0px;
      }

      .cls-2 {
        fill: #fff;
      }
    </style>
  </defs>
  <g id="LWPOLYLINE">
    <rect class="cls-1" x="0" y="0" width="399.9" height="200"/>
  </g>
  <g id="LWPOLYLINE-2">
    <path class="cls-2" d="M400,177.1c0,12.6,1.3,22.9-13.4,22.9H13.3C-1.4,200,0,189.7,0,177.1V22.9C0,10.3-1.4,0,13.3,0h373.3C401.3,0,399.9,10.3,399.9,22.9v154.3h.1Z"/>
  </g>
  <g id="LWPOLYLINE-3">
    <path class="cls-1" d="M385.7,175c0,6.2-1,11.1-8.3,11.1H23c-7.4,0-8.8-5-8.8-11.1V27.3c0-6.2,1.4-13.4,8.8-13.4h352.5c7.4,0,10.2,4.9,10.2,11v150Z"/>
  </g>
</svg>