<?xml version="1.0" encoding="UTF-8"?>
<svg id="Layer_1" data-name="Layer 1" xmlns="http://www.w3.org/2000/svg" version="1.1" viewBox="0 0 395 230">
  <defs>
    <style>
      .cls-1 {
        fill: #ffce04;
      }

      .cls-1, .cls-2 {
        stroke-width: 0px;
      }

      .cls-2 {
        fill: #e31e2e;
      }
    </style>
  </defs>
  <g id="LWPOLYLINE">
    <rect class="cls-1" width="395" height="230"/>
  </g>
  <g id="LWPOLYLINE-2" data-name="LWPOLYLINE">
    <path class="cls-2" d="M395,203.7c0,14.5-11.8,26.3-26.3,26.3H26.3C11.8,230,0,218.2,0,203.7V26.3C0,11.8,11.8,0,26.3,0h342.3c14.5,0,26.3,11.8,26.3,26.3v177.4h0Z"/>
  </g>
  <g id="LWPOLYLINE-3" data-name="LWPOLYLINE">
    <path class="cls-1" d="M381.8,203.7c0,7.3-5.9,13.1-13.2,13.1H26.3c-7.3,0-13.2-5.9-13.2-13.1V26.3c0-7.3,5.9-13.1,13.2-13.1h342.3c7.3,0,13.2,5.9,13.2,13.1v177.4Z"/>
  </g>
</svg>