<?xml version="1.0" encoding="UTF-8" standalone="no"?>
<svg
   xmlns:dc="http://purl.org/dc/elements/1.1/"
   xmlns:cc="http://creativecommons.org/ns#"
   xmlns:rdf="http://www.w3.org/1999/02/22-rdf-syntax-ns#"
   xmlns:svg="http://www.w3.org/2000/svg"
   xmlns="http://www.w3.org/2000/svg"
   height="231.5"
   width="396.85001"
   xml:space="preserve"
   viewBox="0 0 396.84999 231.49999"
   y="0px"
   x="0px"
   id="Layer_1"
   version="1.1"><metadata
   id="metadata18"><rdf:RDF><cc:Work
       rdf:about=""><dc:format>image/svg+xml</dc:format><dc:type
         rdf:resource="http://purl.org/dc/dcmitype/StillImage" /></cc:Work></rdf:RDF></metadata><defs
   id="defs16" />
<style
   id="style2"
   type="text/css">
	.st0{fill:#FFCD00;}
	.st1{fill:#E4002B;}
</style>
<g
   transform="translate(-14.17,-96.849998)"
   id="LWPOLYLINE_69_">
	<rect
   style="fill:#ffcd00"
   id="rect4"
   height="231.5"
   width="396.85001"
   class="st0"
   y="96.849998"
   x="14.17" />
</g>
<g
   transform="translate(-14.17,-96.849998)"
   id="LWPOLYLINE_72_">
	<path
   style="fill:#e4002b"
   id="path7"
   d="m 411.02,301.89 c 0,14.61 -11.85,26.46 -26.45,26.46 H 40.63 c -14.61,0 -26.45,-11.84 -26.45,-26.46 V 123.31 c 0,-14.61 11.85,-26.46 26.45,-26.46 h 343.94 c 14.61,0 26.45,11.85 26.45,26.46 z"
   class="st1" />
</g>
<g
   transform="translate(-14.17,-96.849998)"
   id="LWPOLYLINE_71_">
	<path
   style="fill:#ffcd00"
   id="path10"
   d="m 397.79,301.89 c 0,7.31 -5.92,13.23 -13.22,13.23 H 40.63 c -7.3,0 -13.23,-5.92 -13.23,-13.23 V 123.31 c 0,-7.3 5.92,-13.23 13.23,-13.23 h 343.94 c 7.3,0 13.22,5.92 13.22,13.23 z"
   class="st0" />
</g>
</svg>