<?xml version="1.0" encoding="UTF-8"?>
<svg id="Layer_1" data-name="Layer 1" xmlns="http://www.w3.org/2000/svg" version="1.1" viewBox="0 0 400 300">
  <defs>
    <style>
      .cls-1 {
        fill: #e31e2e;
      }

      .cls-1, .cls-2 {
        stroke-width: 0px;
      }

      .cls-2 {
        fill: #ffce04;
      }
    </style>
  </defs>
  <g id="LWPOLYLINE">
    <rect class="cls-2" x=".8" width="399.2" height="300"/>
  </g>
  <g id="LWPOLYLINE-2">
    <path class="cls-1" d="M400,273.3c0,14.7-11.9,26.7-26.6,26.7H27.4c-14.7,0-26.6-11.9-26.6-26.7V26.7C.8,11.9,12.7,0,27.4,0h346c14.7,0,26.6,11.9,26.6,26.7v246.7h0Z"/>
  </g>
  <g id="LWPOLYLINE-3">
    <path class="cls-2" d="M386.7,273.3c0,7.4-6,13.3-13.3,13.3H27.4c-7.3,0-13.3-6-13.3-13.3V26.7c0-7.4,6-13.3,13.3-13.3h346c7.3,0,13.3,6,13.3,13.3v246.7h0Z"/>
  </g>
  <g id="LWPOLYLINE-4">
    <polygon class="cls-2" points="238.3 219.8 231 245.2 245.5 245.2 238.3 219.8"/>
  </g>
  <g id="LWPOLYLINE-5">
    <path class="cls-2" d="M80.7,248.5c0,4.4-3.6,8-8,8h-15.3v-20h15.3c4.4,0,8,3.6,8,8v4Z"/>
  </g>
  <g id="LWPOLYLINE-6">
    <path class="cls-2" d="M57.5,209.9h13.3c3.7,0,6.6,3,6.6,6.7v3.3c0,3.7-3,6.7-6.6,6.7h-13.3s0-16.7,0-16.7Z"/>
  </g>
</svg>