<?xml version="1.0" encoding="UTF-8"?>
<svg id="Layer_1" data-name="Layer 1" xmlns="http://www.w3.org/2000/svg" version="1.1" viewBox="0 0 400 250">
  <defs>
    <style>
      .cls-1 {
        fill: #fff;
      }

      .cls-1, .cls-2 {
        stroke-width: 0px;
      }

      .cls-2 {
        fill: #2060ad;
      }
    </style>
  </defs>
  <g id="LWPOLYLINE">
    <rect class="cls-2" x="0" width="400" height="250"/>
  </g>
  <g id="LWPOLYLINE-2">
    <path class="cls-1" d="M400,227.7c0,12.3-11.9,22.3-26.7,22.3H26.7c-14.7,0-26.7-9.9-26.7-22.3V22.3C0,9.9,11.9,0,26.7,0h346.7c14.7,0,26.7,9.9,26.7,22.3v205.6h0Z"/>
  </g>
  <g id="LWPOLYLINE-3">
    <path class="cls-2" d="M386.7,227.7c0,6.2-6,11.1-13.3,11.1H26.7c-7.3,0-13.3-5-13.3-11.1V22.3c0-6.2,6-11.1,13.3-11.1h346.7c7.3,0,13.3,5,13.3,11.1v205.6h0Z"/>
  </g>
</svg>