<?xml version="1.0" encoding="UTF-8"?>
<svg xmlns="http://www.w3.org/2000/svg" version="1.1" viewBox="0 0 425.2 425.2">
  <defs>
    <style>
      .cls-1 {
        fill: #fff;
      }

      .cls-2 {
        stroke: #005eb8;
        stroke-miterlimit: 10;
        stroke-width: .5px;
      }

      .cls-2, .cls-3 {
        fill: #005eb8;
      }
    </style>
  </defs>
  <!-- Generator: Adobe Illustrator 28.7.1, SVG Export Plug-In . SVG Version: 1.2.0 Build 142)  -->
  <g>
    <g id="Layer_1">
      <g id="LWPOLYLINE">
        <rect class="cls-2" x="14.2" y="146.5" width="396.8" height="132.3"/>
      </g>
      <g id="LWPOLYLINE-2" data-name="LWPOLYLINE">
        <path class="cls-1" d="M411,252.3c0,14.6-11.8,26.5-26.5,26.5H40.6c-14.6,0-26.5-11.8-26.5-26.5v-79.4c0-14.6,11.8-26.5,26.5-26.5h343.9c14.6,0,26.5,11.8,26.5,26.5v79.4Z"/>
      </g>
      <g id="LWPOLYLINE-3" data-name="LWPOLYLINE">
        <path class="cls-3" d="M397.8,252.3c0,7.3-5.9,13.2-13.2,13.2H40.6c-7.3,0-13.2-5.9-13.2-13.2v-79.4c0-7.3,5.9-13.2,13.2-13.2h343.9c7.3,0,13.2,5.9,13.2,13.2v79.4Z"/>
      </g>
    </g>
  </g>
</svg>