<?xml version="1.0" encoding="utf-8"?>
<!-- Generator: Adobe Illustrator 27.0.1, SVG Export Plug-In . SVG Version: 6.00 Build 0)  -->
<svg version="1.1" id="Layer_1" xmlns="http://www.w3.org/2000/svg" xmlns:xlink="http://www.w3.org/1999/xlink" x="0px" y="0px"
	 viewBox="0 0 425.2 425.2" style="enable-background:new 0 0 425.2 425.2;" xml:space="preserve">
<style type="text/css">
	.st0{fill:#005EB8;stroke:#005EB8;stroke-width:0.5;stroke-miterlimit:10;}
	.st1{fill:#FFFFFF;}
	.st2{fill:#005EB8;}
	.st3{fill:none;}
</style>
<g id="LWPOLYLINE_2_">
	<rect x="14.17" y="104.09" class="st0" width="396.85" height="217.02"/>
</g>
<g id="LWPOLYLINE_95_">
	<path class="st1" d="M38.98,104.09h347.24c13.7,0,24.81,11.1,24.81,24.8v167.42c0,13.7-11.11,24.8-24.81,24.8H38.98
		c-13.7,0-24.8-11.1-24.8-24.8V128.89C14.17,115.19,25.28,104.09,38.98,104.09z"/>
</g>
<g id="LWPOLYLINE_96_">
	<path class="st2" d="M38.98,116.49h347.24c6.85,0,12.41,5.55,12.41,12.4v167.42c0,6.85-5.56,12.4-12.41,12.4H38.98
		c-6.85,0-12.4-5.55-12.4-12.4V128.89C26.57,122.04,32.12,116.49,38.98,116.49z"/>
</g>
<g id="LWPOLYLINE">
	<rect x="14.17" y="104.09" class="st3" width="396.85" height="217.02"/>
</g>
<g id="LWPOLYLINE_109_">
	<path class="st2" d="M217.11,220.41h7.45v-0.37c0-2.05-1.67-3.72-3.72-3.72c-2.06,0-3.73,1.67-3.73,3.72V220.41z"/>
</g>
<g id="LWPOLYLINE_122_">
	<path class="st2" d="M218.5,272.5h7.44v-0.37c0-2.06-1.67-3.72-3.72-3.72c-2.05,0-3.72,1.66-3.72,3.72V272.5z"/>
</g>
<g id="LWPOLYLINE_148_">
	<path class="st2" d="M364.44,153.44h7.44v-0.37c0-2.06-1.67-3.72-3.72-3.72c-2.05,0-3.72,1.67-3.72,3.72V153.44z"/>
</g>
</svg>
