<?xml version="1.0" encoding="UTF-8"?>
<svg id="Layer_1" data-name="Layer 1" xmlns="http://www.w3.org/2000/svg" version="1.1" viewBox="0 0 700 200">
  <defs>
    <style>
      .cls-1 {
        fill: #231f20;
      }

      .cls-1, .cls-2 {
        stroke-width: 0px;
      }

      .cls-2 {
        fill: #fecf0c;
      }
    </style>
  </defs>
  <g id="LWPOLYLINE">
    <rect class="cls-2" x="0" y="0" width="701" height="200"/>
  </g>
  <g id="LWPOLYLINE-2">
    <path class="cls-1" d="M701.1,177.2c0,12.6,2.3,22.9-23.4,22.9H23.3C-2.4,200.1,0,189.8,0,177.2V22.9C0,10.3-2.4,0,23.3,0h654.3c25.7,0,23.2,10.3,23.2,22.9v154.3h.2Z"/>
  </g>
  <g id="LWPOLYLINE-3">
    <path class="cls-2" d="M686.6,175.1c0,6.2-1.8,11.1-15.1,11.1H29.7c-13.3,0-15.9-5-15.9-11.1V27.4c0-6.2,2.6-13.4,15.9-13.4h638.5c13.3,0,18.4,4.9,18.4,11v150Z"/>
  </g>
</svg>