<?xml version="1.0" encoding="UTF-8"?>
<svg id="Layer_1" data-name="Layer 1" xmlns="http://www.w3.org/2000/svg" version="1.1" xmlns:cc="http://creativecommons.org/ns#" xmlns:dc="http://purl.org/dc/elements/1.1/" xmlns:rdf="http://www.w3.org/1999/02/22-rdf-syntax-ns#" xmlns:svg="http://www.w3.org/2000/svg" viewBox="0 0 396.8 264.6">
  <defs>
    <style>
      .cls-1 {
        fill: #2060ad;
      }

      .cls-1, .cls-2 {
        stroke-width: 0px;
      }

      .cls-2 {
        fill: #fff;
      }
    </style>
  </defs>
  <g id="LWPOLYLINE">
    <rect id="rect2" class="cls-1" y="0" width="396.8" height="264.6"/>
  </g>
  <g id="LWPOLYLINE-2" data-name="LWPOLYLINE">
    <path id="path5" class="cls-2" d="M26.5,264.6h343.9c14.6,0,26.5-11.8,26.5-26.5V26.5C396.8,11.8,385,0,370.4,0H26.5C11.8,0,0,11.8,0,26.5v211.7c0,14.6,11.8,26.5,26.5,26.5Z"/>
  </g>
  <g id="LWPOLYLINE-3" data-name="LWPOLYLINE">
    <path id="path8" class="cls-1" d="M26.5,251.3h343.9c7.3,0,13.2-5.9,13.2-13.2V26.5c0-7.3-5.9-13.2-13.2-13.2H26.5c-7.3,0-13.2,5.9-13.2,13.2v211.7c0,7.3,5.9,13.2,13.2,13.2Z"/>
  </g>
  <g id="LWPOLYLINE-4" data-name="LWPOLYLINE">
    <polygon id="polygon11" class="cls-2" points="103.6 47 103.6 64.8 97.6 64.8 97.6 25.1 103.6 25.1 103.6 41 117.5 41 117.5 25.1 123.4 25.1 123.4 64.8 117.5 64.8 117.5 47 103.6 47"/>
  </g>
  <g id="LWPOLYLINE-5" data-name="LWPOLYLINE">
    <path id="path14" class="cls-2" d="M130.6,57.5v-22.4h6v21c0,2.2,1.8,4,4,4s4-1.8,4-4v-21h5.9v29.8h-5.9v-2.4c-2.1,1.3-4.4,2.1-6.7,2.4-3.9,0-7.1-3.2-7.1-7.1v-.2Z"/>
  </g>
  <g id="LWPOLYLINE-6" data-name="LWPOLYLINE">
    <path id="path17" class="cls-2" d="M157.5,54.9c0,5.5,4.4,9.9,9.9,9.9s9.9-4.4,9.9-9.9v-9.9c0-5.5-4.4-9.9-9.9-9.9s-9.9,4.4-9.9,9.9v9.9Z"/>
  </g>
  <g id="LWPOLYLINE-7" data-name="LWPOLYLINE">
    <rect id="rect20" class="cls-2" x="184.5" y="25.1" width="5.9" height="39.7"/>
  </g>
  <g id="LWPOLYLINE-8" data-name="LWPOLYLINE">
    <path id="path23" class="cls-2" d="M205.4,35h3.4v6h-3.4v14.5c0,1.9,1.5,3.4,3.4,3.4v6c-5.1,0-9.3-4.2-9.3-9.3v-14.5h-3.4v-6h3.4v-9.9h5.9v9.9Z"/>
  </g>
  <g id="LWPOLYLINE-9" data-name="LWPOLYLINE">
    <path id="path26" class="cls-2" d="M213.9,54.9c0,5.5,4.4,9.9,9.9,9.9s9.9-4.4,9.9-9.9v-9.9c0-5.5-4.4-9.9-9.9-9.9s-9.9,4.4-9.9,9.9v9.9Z"/>
  </g>
  <g id="LWPOLYLINE-10" data-name="LWPOLYLINE">
    <path id="path29" class="cls-2" d="M259.1,64.8h-6v-1.9c-2.4,1.3-5.1,1.9-7.8,1.9-2.4,0-4.6-1.5-5.4-3.8-1-3-.2-6.4,2.1-8.6,2.9-3.1,6.9-5,11.1-5.3v-3.1c0-1.6-1.3-3-3-3s-3,1.3-3,3h-5.9c0-4.9,4-8.9,8.9-8.9s8.9,4,8.9,8.9v20.8h0Z"/>
  </g>
  <g id="LWPOLYLINE-11" data-name="LWPOLYLINE">
    <path id="path32" class="cls-2" d="M272.2,35v29c0,4.8-3.9,8.7-8.7,8.7h-.8l.8-5.9c1.5,0,2.8-1.2,2.8-2.8v-29h6Z"/>
  </g>
  <g id="LWPOLYLINE-12" data-name="LWPOLYLINE">
    <rect id="rect35" class="cls-2" x="266.3" y="25.1" width="6" height="6"/>
  </g>
  <g id="LWPOLYLINE-13" data-name="LWPOLYLINE">
    <path id="path38" class="cls-2" d="M279.4,54.9c0,5.5,4.5,9.9,9.9,9.9s9.9-4.4,9.9-9.9v-9.9c0-5.5-4.4-9.9-9.9-9.9s-9.9,4.4-9.9,9.9v9.9Z"/>
  </g>
  <g id="LWPOLYLINE-14" data-name="LWPOLYLINE">
    <path id="path41" class="cls-2" d="M126,110.5c0,5.5,4.4,9.9,9.9,9.9h.8c4.8,0,8.7-3.9,8.7-8.7s-1.7-6-4.3-7.5l-6.6-3.8c-.6-.4-1-1-1-1.7,0-1.1.9-2,2-2h1.2c1.1,0,2,.9,2,2h5.9c0-4.4-3.6-7.9-7.9-7.9h-1.2c-4.4,0-7.9,3.6-7.9,7.9s1.5,5.4,3.9,6.9l6.6,3.8c.9.5,1.4,1.4,1.4,2.4,0,1.5-1.2,2.8-2.8,2.8h-.8c-2.2,0-4-1.8-4-4h-6,0Z"/>
  </g>
  <g id="LWPOLYLINE-15" data-name="LWPOLYLINE">
    <path id="path44" class="cls-2" d="M170.4,120.4h-6v-1.9c-2.4,1.3-5.1,1.9-7.8,1.9-2.4,0-4.6-1.5-5.4-3.8-1-3-.2-6.4,2.1-8.6,2.9-3.1,6.9-5,11.1-5.3v-3.1c0-1.6-1.3-3-3-3s-3,1.3-3,3h-6c0-4.9,4-8.9,8.9-8.9s8.9,4,8.9,8.9v20.8Z"/>
  </g>
  <g id="LWPOLYLINE-16" data-name="LWPOLYLINE">
    <rect id="rect47" class="cls-2" x="177.6" y="80.7" width="5.9" height="39.7"/>
  </g>
  <g id="LWPOLYLINE-17" data-name="LWPOLYLINE">
    <rect id="rect50" class="cls-2" x="191.5" y="80.7" width="6" height="39.7"/>
  </g>
  <g id="LWPOLYLINE-18" data-name="LWPOLYLINE">
    <rect id="rect53" class="cls-2" x="205.4" y="90.6" width="6" height="29.8"/>
  </g>
  <g id="LWPOLYLINE-19" data-name="LWPOLYLINE">
    <rect id="rect56" class="cls-2" x="205.4" y="80.7" width="6" height="5.9"/>
  </g>
  <g id="LWPOLYLINE-20" data-name="LWPOLYLINE">
    <path id="path59" class="cls-2" d="M226.2,90.6h3.4v5.9h-3.4v14.5c0,1.9,1.5,3.4,3.4,3.4v6c-5.2,0-9.3-4.2-9.3-9.3v-14.5h-3.4v-5.9h3.4v-9.9h6v9.9Z"/>
  </g>
  <g id="LWPOLYLINE-21" data-name="LWPOLYLINE">
    <path id="path62" class="cls-2" d="M242.5,90.6h3.4v5.9h-3.4v14.5c0,1.9,1.5,3.4,3.4,3.4v6c-5.2,0-9.3-4.2-9.3-9.3v-14.5h-3.4v-5.9h3.4v-9.9h6v9.9Z"/>
  </g>
  <g id="LWPOLYLINE-22" data-name="LWPOLYLINE">
    <path id="path65" class="cls-2" d="M251,113v-22.4h6v21c0,2.2,1.8,4,4,4s4-1.8,4-4v-21h6v29.8h-6v-2.4c-2.1,1.3-4.4,2.1-6.7,2.4-3.9,0-7.1-3.2-7.1-7.1v-.2Z"/>
  </g>
  <g id="LWPOLYLINE-23" data-name="LWPOLYLINE">
    <path id="path68" class="cls-2" d="M133.9,209.7h3.4v6h-3.4v14.5c0,1.9,1.5,3.4,3.4,3.4v5.9c-5.2,0-9.3-4.2-9.3-9.3v-14.5h-3.4v-6h3.4v-9.9h5.9v9.9Z"/>
  </g>
  <g id="LWPOLYLINE-24" data-name="LWPOLYLINE">
    <rect id="rect71" class="cls-2" x="143.3" y="209.7" width="5.9" height="29.8"/>
  </g>
  <g id="LWPOLYLINE-25" data-name="LWPOLYLINE">
    <rect id="rect74" class="cls-2" x="143.3" y="199.8" width="5.9" height="5.9"/>
  </g>
  <g id="LWPOLYLINE-26" data-name="LWPOLYLINE">
    <rect id="rect77" class="cls-2" x="157.2" y="199.8" width="6" height="39.7"/>
  </g>
  <g id="LWPOLYLINE-27" data-name="LWPOLYLINE">
    <rect id="rect80" class="cls-2" x="171" y="199.8" width="6" height="39.7"/>
  </g>
  <g id="LWPOLYLINE-28" data-name="LWPOLYLINE">
    <path id="path83" class="cls-2" d="M203.2,239.4h-6v-1.9c-2.4,1.3-5.1,1.9-7.8,1.9-2.4,0-4.6-1.5-5.4-3.8-1-3-.2-6.4,2.1-8.6,2.9-3.1,6.9-5,11.1-5.3v-3.1c0-1.6-1.3-3-3-3s-3,1.3-3,3h-6c0-4.9,4-8.9,8.9-8.9s8.9,4,8.9,8.9v20.8Z"/>
  </g>
  <g id="CIRCLE">
    <path id="path86" class="cls-2" d="M198.2,204.1c0-2.2-1.8-4-4-4s-4,1.8-4,4,1.8,4,4,4c2.2,0,4-1.8,4-4Z"/>
  </g>
  <g id="LWPOLYLINE-29" data-name="LWPOLYLINE">
    <path id="path89" class="cls-2" d="M217.3,209.7h3.4v6h-3.4v14.5c0,1.9,1.5,3.4,3.4,3.4v5.9c-5.1,0-9.3-4.2-9.3-9.3v-14.5h-3.4v-6h3.4v-9.9h6v9.9Z"/>
  </g>
  <g id="LWPOLYLINE-30" data-name="LWPOLYLINE">
    <path id="path92" class="cls-2" d="M239.3,229.5h6c0,5.5-4.4,9.9-9.9,9.9s-9.9-4.4-9.9-9.9v-9.9c0-5.5,4.4-9.9,9.9-9.9s9.9,4.4,9.9,9.9v5.6h-13.9v4.4c0,2.2,1.8,4,4,4s4-1.8,4-4h0Z"/>
  </g>
  <g id="LWPOLYLINE-31" data-name="LWPOLYLINE">
    <path id="path95" class="cls-2" d="M272.2,217v22.4h-6v-21c0-2.2-1.8-4-4-4s-4,1.8-4,4v21h-6v-29.8h6v2.4c2.1-1.3,4.4-2.1,6.7-2.4,3.9,0,7.1,3.2,7.1,7.1v.2Z"/>
  </g>
  <g id="LWPOLYLINE-32" data-name="LWPOLYLINE">
    <path id="path98" class="cls-2" d="M55.8,154.9c-.1-2.6-2.2-4.6-4.7-4.8h-2.5c-2.6.2-4.6,2.4-4.4,5,0,1.4.8,2.7,1.9,3.5l10.6,3.9c2.8,1.7,4.7,4.4,5.4,7.5,1.3,6.2-2.6,12.4-8.9,13.7,0,0-.2,0-.3,0-7.7,1.1-14.9-4.2-16-11.9l5.9-.9c.7,4.5,4.8,7.5,9.3,6.9,3-.7,4.9-3.7,4.2-6.7-.3-1.3-1.1-2.5-2.2-3.3l-10.6-3.9c-3.1-1.8-5-5.1-5.1-8.7-.2-5.9,4.3-10.9,10.2-11.1h2.8c5.8.2,10.4,4.9,10.6,10.7h-6Z"/>
  </g>
  <g id="LWPOLYLINE-33" data-name="LWPOLYLINE">
    <path id="path101" class="cls-2" d="M82.6,173.9h5.9c0,5.5-4.4,9.9-9.9,9.9s-9.9-4.4-9.9-9.9v-9.9c0-5.5,4.4-9.9,9.9-9.9s9.9,4.4,9.9,9.9v5.6h-13.9v4.4c0,2.2,1.8,4,4,4s4-1.8,4-4h0Z"/>
  </g>
  <g id="LWPOLYLINE-34" data-name="LWPOLYLINE">
    <path id="path104" class="cls-2" d="M101.6,163.2v20.6h-6v-29.8h6v1.6c2.1-1,4.4-1.6,6.7-1.6v6.3c-1.6-1.5-4.1-1.5-5.6,0-.7.7-1.1,1.7-1.1,2.8h0Z"/>
  </g>
  <g id="LWPOLYLINE-35" data-name="LWPOLYLINE">
    <polygon id="polygon107" class="cls-2" points="126.2 183.9 134.2 154.1 128.2 154.1 123.3 172.7 118.3 154.1 112.3 154.1 120.3 183.9 126.2 183.9"/>
  </g>
  <g id="LWPOLYLINE-36" data-name="LWPOLYLINE">
    <rect id="rect110" class="cls-2" x="139.3" y="154.1" width="6" height="29.8"/>
  </g>
  <g id="LWPOLYLINE-37" data-name="LWPOLYLINE">
    <rect id="rect113" class="cls-2" x="139.3" y="144.2" width="6" height="6"/>
  </g>
  <g id="LWPOLYLINE-38" data-name="LWPOLYLINE">
    <path id="path116" class="cls-2" d="M172.3,164c0-5.5-4.4-9.9-9.9-9.9s-9.9,4.4-9.9,9.9v9.9c0,5.5,4.4,9.9,9.9,9.9s9.9-4.4,9.9-9.9h-6c0,2.2-1.8,4-4,4s-4-1.8-4-4v-9.9c0-2.2,1.8-4,4-4s4,1.8,4,4h6Z"/>
  </g>
  <g id="LWPOLYLINE-39" data-name="LWPOLYLINE">
    <path id="path119" class="cls-2" d="M192.1,173.9h5.9c0,5.5-4.4,9.9-9.9,9.9s-9.9-4.4-9.9-9.9v-9.9c0-5.5,4.4-9.9,9.9-9.9s9.9,4.4,9.9,9.9v5.6h-13.9v4.4c0,2.2,1.8,4,4,4s4-1.8,4-4h0Z"/>
  </g>
  <g id="LWPOLYLINE-40" data-name="LWPOLYLINE">
    <polygon id="polygon122" class="cls-2" points="205.2 144.2 211.2 144.2 211.2 166.1 219.1 154.1 225 154.1 218.3 164.3 225.1 183.9 219.1 183.9 214.3 170.2 211.2 174.9 211.2 183.9 205.2 183.9 205.2 144.2"/>
  </g>
  <g id="LWPOLYLINE-41" data-name="LWPOLYLINE">
    <path id="path125" class="cls-2" d="M229.4,173.9c0,5.5,4.4,9.9,9.9,9.9s9.9-4.4,9.9-9.9v-9.9c0-5.5-4.4-9.9-9.9-9.9s-9.9,4.4-9.9,9.9v9.9Z"/>
  </g>
  <g id="LWPOLYLINE-42" data-name="LWPOLYLINE">
    <rect id="rect128" class="cls-2" x="241.7" y="144.2" width="6" height="6"/>
  </g>
  <g id="LWPOLYLINE-43" data-name="LWPOLYLINE">
    <rect id="rect131" class="cls-2" x="231" y="144.2" width="6" height="6"/>
  </g>
  <g id="LWPOLYLINE-44" data-name="LWPOLYLINE">
    <path id="path134" class="cls-2" d="M262.4,163.2v20.6h-6v-29.8h6v1.6c2.1-1,4.4-1.6,6.7-1.6v6.3c-1.6-1.5-4.1-1.5-5.6,0-.7.7-1.1,1.7-1.1,2.8h0Z"/>
  </g>
  <g id="LWPOLYLINE-45" data-name="LWPOLYLINE">
    <path id="path137" class="cls-2" d="M293.3,161.4v22.4h-6v-21c0-2.2-1.8-4-4-4s-4,1.8-4,4v21h-5.9v-29.8h5.9v2.4c2.1-1.3,4.4-2.1,6.7-2.4,3.9,0,7.1,3.2,7.1,7.1v.2h0Z"/>
  </g>
  <g id="LWPOLYLINE-46" data-name="LWPOLYLINE">
    <rect id="rect140" class="cls-2" x="300.5" y="154.1" width="6" height="29.8"/>
  </g>
  <g id="LWPOLYLINE-47" data-name="LWPOLYLINE">
    <rect id="rect143" class="cls-2" x="300.5" y="144.2" width="6" height="6"/>
  </g>
  <g id="LWPOLYLINE-48" data-name="LWPOLYLINE">
    <path id="path146" class="cls-2" d="M334.2,161.4v22.4h-6v-21c0-2.2-1.8-4-4-4s-4,1.8-4,4v21h-6v-29.8h6v2.4c2.1-1.3,4.4-2.1,6.7-2.4,3.9,0,7.1,3.2,7.1,7.1v.2Z"/>
  </g>
  <g id="LWPOLYLINE-49" data-name="LWPOLYLINE">
    <path id="path149" class="cls-2" d="M354,182.3c-2.1,1.3-4.4,2.1-6.7,2.4-3.9,0-7.1-3.2-7.1-7.1v-16.5c.7-3.4,3.6-6,7.1-6.1,2.4.3,4.7,1.1,6.7,2.3v-2.3h6v27.4c0,1.4-.3,2.8-.9,4-2.2,4.8-7.9,6.8-12.7,4.6l2.5-5.4c1.8.8,3.9,0,4.7-1.7.2-.5.3-1,.3-1.5h0Z"/>
  </g>
  <g id="LWPOLYLINE-50" data-name="LWPOLYLINE">
    <path id="path152" class="cls-1" d="M163.5,54.9c0,2.2,1.8,4,4,4s4-1.8,4-4v-9.9c0-2.2-1.8-4-4-4s-4,1.8-4,4v9.9Z"/>
  </g>
  <g id="LWPOLYLINE-51" data-name="LWPOLYLINE">
    <path id="path155" class="cls-1" d="M219.9,54.9c0,2.2,1.8,4,4,4s4-1.8,4-4v-9.9c0-2.2-1.8-4-4-4s-4,1.8-4,4v9.9Z"/>
  </g>
  <g id="LWPOLYLINE-52" data-name="LWPOLYLINE">
    <path id="path158" class="cls-1" d="M253.2,50.9c-2,.5-3.8,1.4-5.4,2.7-1.4,1.2-2.2,3-2.2,4.8,0,1.2,1,2.2,2.2,2.1.1,0,.2,0,.3,0,1.8-.3,3.4-.9,5-1.7v-8h0Z"/>
  </g>
  <g id="LWPOLYLINE-53" data-name="LWPOLYLINE">
    <path id="path161" class="cls-1" d="M285.3,54.9c0,2.2,1.8,4,4,4s4-1.8,4-4v-9.9c0-2.2-1.8-4-4-4s-4,1.8-4,4v9.9Z"/>
  </g>
  <g id="LWPOLYLINE-54" data-name="LWPOLYLINE">
    <path id="path164" class="cls-1" d="M164.5,106.5c-2,.5-3.8,1.4-5.4,2.7-1.4,1.2-2.2,3-2.2,4.8,0,1.2,1,2.2,2.2,2.1.1,0,.2,0,.3,0,1.8-.3,3.4-.9,5-1.7v-8Z"/>
  </g>
  <g id="LWPOLYLINE-55" data-name="LWPOLYLINE">
    <path id="path167" class="cls-1" d="M197.2,225.6c-2,.5-3.8,1.4-5.4,2.8-1.4,1.2-2.2,3-2.2,4.8,0,1.2,1,2.2,2.2,2.1,0,0,.2,0,.3,0,1.8-.3,3.4-.9,5-1.7v-8Z"/>
  </g>
  <g id="CIRCLE-2" data-name="CIRCLE">
    <path id="path170" class="cls-1" d="M195.8,204.1c0-.9-.7-1.6-1.6-1.6s-1.6.7-1.6,1.6.7,1.6,1.6,1.6,1.6-.7,1.6-1.6Z"/>
  </g>
  <g id="LWPOLYLINE-56" data-name="LWPOLYLINE">
    <path id="path173" class="cls-1" d="M231.4,220h7.9v-.4c0-2.2-1.8-4-4-4s-4,1.8-4,4v.4Z"/>
  </g>
  <g id="LWPOLYLINE-57" data-name="LWPOLYLINE">
    <path id="path176" class="cls-1" d="M74.6,164.4h7.9v-.4c0-2.2-1.8-4-4-4s-4,1.8-4,4v.4Z"/>
  </g>
  <g id="LWPOLYLINE-58" data-name="LWPOLYLINE">
    <path id="path179" class="cls-1" d="M184.2,164.4h7.9v-.4c0-2.2-1.8-4-4-4s-4,1.8-4,4v.4h0Z"/>
  </g>
  <g id="LWPOLYLINE-59" data-name="LWPOLYLINE">
    <path id="path182" class="cls-1" d="M235.4,173.9c0,2.2,1.8,4,4,4s4-1.8,4-4v-9.9c0-2.2-1.8-4-4-4s-4,1.8-4,4v9.9Z"/>
  </g>
  <g id="LWPOLYLINE-60" data-name="LWPOLYLINE">
    <path id="path185" class="cls-1" d="M346.1,175.9c0,2.2,1.8,4,4,4s4-1.8,4-4v-12.3c0-2.2-1.8-4-4-4s-4,1.8-4,4v12.3Z"/>
  </g>
</svg>