<?xml version="1.0" encoding="UTF-8" standalone="no"?>
<svg
   xmlns:dc="http://purl.org/dc/elements/1.1/"
   xmlns:cc="http://creativecommons.org/ns#"
   xmlns:rdf="http://www.w3.org/1999/02/22-rdf-syntax-ns#"
   xmlns:svg="http://www.w3.org/2000/svg"
   xmlns="http://www.w3.org/2000/svg"
   xml:space="preserve"
   viewBox="0 0 396.84901 264.56798"
   height="264.56799"
   width="396.849"
   y="0px"
   x="0px"
   id="Layer_1"
   version="1.1"><metadata
   id="metadata193"><rdf:RDF><cc:Work
       rdf:about=""><dc:format>image/svg+xml</dc:format><dc:type
         rdf:resource="http://purl.org/dc/dcmitype/StillImage" /></cc:Work></rdf:RDF></metadata><defs
   id="defs191" />
<g
   transform="translate(-14.174,-80.314)"
   id="LWPOLYLINE_100_">
	<rect
   id="rect2"
   height="264.56799"
   width="396.849"
   style="fill:#ffcd00"
   y="80.314003"
   x="14.174" />
</g>
<g
   transform="translate(-14.174,-80.314)"
   id="LWPOLYLINE_101_">
	<path
   id="path5"
   d="m 40.632,344.882 h 343.937 c 14.608,0 26.454,-11.844 26.454,-26.457 V 106.772 c 0,-14.612 -11.846,-26.458 -26.454,-26.458 H 40.632 c -14.613,0 -26.458,11.846 -26.458,26.458 v 211.653 c 0,14.613 11.845,26.457 26.458,26.457 z"
   style="fill:#e4002b" />
</g>
<g
   transform="translate(-14.174,-80.314)"
   id="LWPOLYLINE_102_">
	<path
   id="path8"
   d="m 40.632,331.651 h 343.937 c 7.304,0 13.231,-5.918 13.231,-13.227 V 106.772 c 0,-7.304 -5.928,-13.231 -13.231,-13.231 H 40.632 c -7.304,0 -13.227,5.928 -13.227,13.231 v 211.653 c 10e-4,7.308 5.924,13.226 13.227,13.226 z"
   style="fill:#ffcd00" />
</g>
<g
   transform="translate(-14.174,-80.314)"
   id="LWPOLYLINE_103_">
	<polygon
   id="polygon11"
   points="117.754,127.267 117.754,145.125 111.8,145.125 111.8,105.441 117.754,105.441 117.754,121.317 131.643,121.317 131.643,105.441 137.597,105.441 137.597,145.125 131.643,145.125 131.643,127.267 "
   style="fill:#101820" />
</g>
<g
   transform="translate(-14.174,-80.314)"
   id="LWPOLYLINE_104_">
	<path
   id="path14"
   d="m 144.737,137.786 v -22.424 h 5.955 v 21.033 c 0,2.192 1.778,3.971 3.967,3.971 2.193,0 3.971,-1.778 3.971,-3.971 v -21.033 h 5.95 v 29.764 h -5.95 v -2.38 c -2.052,1.272 -4.354,2.084 -6.748,2.38 -3.943,0 -7.145,-3.2 -7.145,-7.145 z"
   style="fill:#101820" />
</g>
<g
   transform="translate(-14.174,-80.314)"
   id="LWPOLYLINE_105_">
	<path
   id="path17"
   d="m 171.724,135.205 c 0,5.48 4.441,9.921 9.922,9.921 5.481,0 9.921,-4.44 9.921,-9.921 v -9.921 c 0,-5.48 -4.44,-9.922 -9.921,-9.922 -5.481,0 -9.922,4.441 -9.922,9.922 z"
   style="fill:#101820" />
</g>
<g
   transform="translate(-14.174,-80.314)"
   id="LWPOLYLINE_107_">
	<rect
   id="rect20"
   height="39.685001"
   width="5.9499998"
   style="fill:#101820"
   y="105.441"
   x="198.711" />
</g>
<g
   transform="translate(-14.174,-80.314)"
   id="LWPOLYLINE_108_">
	<path
   id="path23"
   d="m 219.543,115.362 h 3.374 v 5.955 h -3.374 v 14.48 c 0,1.865 1.514,3.374 3.374,3.374 v 5.954 c -5.147,0 -9.324,-4.176 -9.324,-9.328 v -14.48 h -3.374 v -5.955 h 3.374 v -9.921 h 5.95 z"
   style="fill:#101820" />
</g>
<g
   transform="translate(-14.174,-80.314)"
   id="LWPOLYLINE_109_">
	<path
   id="path26"
   d="m 228.079,135.205 c 0,5.48 4.443,9.921 9.924,9.921 5.481,0 9.921,-4.44 9.921,-9.921 v -9.921 c 0,-5.48 -4.44,-9.922 -9.921,-9.922 -5.481,0 -9.924,4.441 -9.924,9.922 z"
   style="fill:#101820" />
</g>
<g
   transform="translate(-14.174,-80.314)"
   id="LWPOLYLINE_111_">
	<path
   id="path29"
   d="m 273.32,145.125 h -5.955 v -1.905 c -2.389,1.29 -5.07,1.946 -7.787,1.905 -2.444,0.064 -4.642,-1.477 -5.417,-3.793 -0.967,-3.046 -0.155,-6.374 2.106,-8.627 2.9,-3.113 6.857,-5.015 11.098,-5.334 v -3.082 c 0,-1.642 -1.331,-2.973 -2.973,-2.973 -1.65,0 -2.981,1.331 -2.981,2.973 h -5.946 c 0,-4.934 3.994,-8.928 8.928,-8.928 4.934,0 8.928,3.994 8.928,8.928 v 20.836 z"
   style="fill:#101820" />
</g>
<g
   transform="translate(-14.174,-80.314)"
   id="LWPOLYLINE_113_">
	<path
   id="path32"
   d="m 286.414,115.362 v 28.971 c 0,4.824 -3.911,8.727 -8.727,8.727 h -0.793 l 0.793,-5.95 c 1.532,0 2.772,-1.244 2.772,-2.776 v -28.971 h 5.955 z"
   style="fill:#101820" />
</g>
<g
   transform="translate(-14.174,-80.314)"
   id="LWPOLYLINE_114_">
	<rect
   id="rect35"
   height="5.954"
   width="5.954"
   style="fill:#101820"
   y="105.441"
   x="280.45901" />
</g>
<g
   transform="translate(-14.174,-80.314)"
   id="LWPOLYLINE_115_">
	<path
   id="path38"
   d="m 293.554,135.205 c 0,5.48 4.45,9.921 9.921,9.921 5.48,0 9.922,-4.44 9.922,-9.921 v -9.921 c 0,-5.48 -4.441,-9.922 -9.922,-9.922 -5.471,0 -9.921,4.441 -9.921,9.922 z"
   style="fill:#101820" />
</g>
<g
   transform="translate(-14.174,-80.314)"
   id="LWPOLYLINE_117_">
	<path
   id="path41"
   d="m 140.173,190.765 c 0,5.477 4.445,9.921 9.921,9.921 h 0.798 c 4.819,0 8.728,-3.912 8.728,-8.736 0,-3.104 -1.651,-5.978 -4.332,-7.541 L 148.7,180.57 c -0.606,-0.355 -0.985,-1.008 -0.985,-1.715 0,-1.094 0.89,-1.982 1.983,-1.982 h 1.194 c 1.095,0 1.983,0.889 1.983,1.982 h 5.95 c 0,-4.381 -3.552,-7.933 -7.934,-7.933 h -1.194 c -4.382,0 -7.934,3.552 -7.934,7.933 0,2.827 1.5,5.436 3.939,6.857 l 6.584,3.84 c 0.857,0.501 1.382,1.413 1.382,2.397 0,1.537 -1.245,2.781 -2.777,2.781 h -0.798 c -2.188,0 -3.967,-1.778 -3.967,-3.967 h -5.953 z"
   style="fill:#101820" />
</g>
<g
   transform="translate(-14.174,-80.314)"
   id="LWPOLYLINE_118_">
	<path
   id="path44"
   d="m 184.623,200.687 h -5.954 v -1.906 c -2.39,1.287 -5.07,1.943 -7.787,1.902 -2.444,0.064 -4.642,-1.473 -5.417,-3.793 -0.967,-3.041 -0.155,-6.37 2.111,-8.627 2.895,-3.109 6.857,-5.011 11.093,-5.33 v -3.082 c 0,-1.641 -1.331,-2.977 -2.973,-2.977 -1.646,0 -2.978,1.336 -2.978,2.977 h -5.954 c 0,-4.934 3.998,-8.927 8.932,-8.927 4.929,0 8.927,3.993 8.927,8.927 z"
   style="fill:#101820" />
</g>
<g
   transform="translate(-14.174,-80.314)"
   id="LWPOLYLINE_120_">
	<rect
   id="rect47"
   height="39.685001"
   width="5.9499998"
   style="fill:#101820"
   y="161.00101"
   x="191.767" />
</g>
<g
   transform="translate(-14.174,-80.314)"
   id="LWPOLYLINE_121_">
	<rect
   id="rect50"
   height="39.685001"
   width="5.954"
   style="fill:#101820"
   y="161.00101"
   x="205.65601" />
</g>
<g
   transform="translate(-14.174,-80.314)"
   id="LWPOLYLINE_122_">
	<rect
   id="rect53"
   height="29.763"
   width="5.9549999"
   style="fill:#101820"
   y="170.923"
   x="219.543" />
</g>
<g
   transform="translate(-14.174,-80.314)"
   id="LWPOLYLINE_123_">
	<rect
   id="rect56"
   height="5.9499998"
   width="5.9549999"
   style="fill:#101820"
   y="161.00101"
   x="219.543" />
</g>
<g
   transform="translate(-14.174,-80.314)"
   id="LWPOLYLINE_124_">
	<path
   id="path59"
   d="m 240.382,170.923 h 3.374 v 5.95 h -3.374 v 14.484 c 0,1.86 1.505,3.374 3.374,3.374 v 5.955 c -5.152,0 -9.329,-4.176 -9.329,-9.329 v -14.484 h -3.373 v -5.95 h 3.373 v -9.922 h 5.955 z"
   style="fill:#101820" />
</g>
<g
   transform="translate(-14.174,-80.314)"
   id="LWPOLYLINE_125_">
	<path
   id="path62"
   d="m 256.65,170.923 h 3.374 v 5.95 h -3.374 v 14.484 c 0,1.86 1.514,3.374 3.374,3.374 v 5.955 c -5.151,0 -9.328,-4.176 -9.328,-9.329 v -14.484 h -3.374 v -5.95 h 3.374 v -9.922 h 5.954 z"
   style="fill:#101820" />
</g>
<g
   transform="translate(-14.174,-80.314)"
   id="LWPOLYLINE_126_">
	<path
   id="path65"
   d="m 265.185,193.341 v -22.418 h 5.955 v 21.027 c 0,2.193 1.769,3.972 3.967,3.972 2.188,0 3.967,-1.778 3.967,-3.972 v -21.027 h 5.954 v 29.763 h -5.954 v -2.385 c -2.052,1.273 -4.35,2.084 -6.748,2.385 -3.948,0 -7.141,-3.201 -7.141,-7.144 z"
   style="fill:#101820" />
</g>
<g
   transform="translate(-14.174,-80.314)"
   id="LWPOLYLINE_127_">
	<path
   id="path68"
   d="m 148.111,289.991 h 3.374 v 5.951 h -3.374 v 14.49 c 0,1.859 1.514,3.373 3.374,3.373 v 5.949 c -5.151,0 -9.323,-4.172 -9.323,-9.322 v -14.49 h -3.374 v -5.951 h 3.374 v -9.92 h 5.949 z"
   style="fill:#101820" />
</g>
<g
   transform="translate(-14.174,-80.314)"
   id="LWPOLYLINE_128_">
	<rect
   id="rect71"
   height="29.764"
   width="5.9499998"
   style="fill:#101820"
   y="289.991"
   x="157.44" />
</g>
<g
   transform="translate(-14.174,-80.314)"
   id="LWPOLYLINE_129_">
	<rect
   id="rect74"
   height="5.9489999"
   width="5.9499998"
   style="fill:#101820"
   y="280.07101"
   x="157.44" />
</g>
<g
   transform="translate(-14.174,-80.314)"
   id="LWPOLYLINE_130_">
	<rect
   id="rect77"
   height="39.683998"
   width="5.9549999"
   style="fill:#101820"
   y="280.07101"
   x="171.328" />
</g>
<g
   transform="translate(-14.174,-80.314)"
   id="LWPOLYLINE_131_">
	<rect
   id="rect80"
   height="39.683998"
   width="5.9549999"
   style="fill:#101820"
   y="280.07101"
   x="185.215" />
</g>
<g
   transform="translate(-14.174,-80.314)"
   id="LWPOLYLINE_132_">
	<path
   id="path83"
   d="m 217.364,319.755 h -5.954 v -1.904 c -2.39,1.289 -5.075,1.945 -7.788,1.9 -2.443,0.068 -4.642,-1.473 -5.416,-3.789 -0.967,-3.045 -0.155,-6.373 2.11,-8.631 2.896,-3.109 6.857,-5.01 11.094,-5.324 v -3.084 c 0,-1.645 -1.332,-2.98 -2.978,-2.98 -1.642,0 -2.973,1.336 -2.973,2.98 h -5.955 c 0,-4.932 3.999,-8.932 8.928,-8.932 4.934,0 8.932,4 8.932,8.932 z"
   style="fill:#101820" />
</g>
<g
   transform="translate(-14.174,-80.314)"
   id="CIRCLE_2_">
	<path
   id="path86"
   d="m 212.404,284.435 c 0,-2.189 -1.778,-3.967 -3.972,-3.967 -2.188,0 -3.967,1.777 -3.967,3.967 0,2.193 1.778,3.971 3.967,3.971 2.193,-0.001 3.972,-1.778 3.972,-3.971 z"
   style="fill:#101820" />
</g>
<g
   transform="translate(-14.174,-80.314)"
   id="LWPOLYLINE_134_">
	<path
   id="path89"
   d="m 231.455,289.991 h 3.365 v 5.951 h -3.365 v 14.49 c 0,1.859 1.505,3.373 3.365,3.373 v 5.949 c -5.143,0 -9.321,-4.172 -9.321,-9.322 v -14.49 h -3.374 v -5.951 h 3.374 v -9.92 h 5.956 z"
   style="fill:#101820" />
</g>
<g
   transform="translate(-14.174,-80.314)"
   id="LWPOLYLINE_135_">
	<path
   id="path92"
   d="m 253.477,309.835 h 5.954 c 0,5.48 -4.44,9.92 -9.921,9.92 -5.481,0 -9.921,-4.439 -9.921,-9.92 v -9.922 c 0,-5.477 4.44,-9.922 9.921,-9.922 5.481,0 9.921,4.445 9.921,9.922 v 5.559 h -13.888 v 4.363 c 0,2.193 1.77,3.971 3.967,3.971 2.189,0 3.967,-1.778 3.967,-3.971 z"
   style="fill:#101820" />
</g>
<g
   transform="translate(-14.174,-80.314)"
   id="LWPOLYLINE_137_">
	<path
   id="path95"
   d="m 286.414,297.337 v 22.418 h -5.954 v -21.031 c 0,-2.189 -1.778,-3.967 -3.967,-3.967 -2.189,0 -3.967,1.777 -3.967,3.967 v 21.031 h -5.954 v -29.764 h 5.954 v 2.385 c 2.052,-1.275 4.35,-2.088 6.748,-2.385 3.939,0 7.14,3.197 7.14,7.145 z"
   style="fill:#101820" />
</g>
<g
   transform="translate(-14.174,-80.314)"
   id="LWPOLYLINE_138_">
	<path
   id="path98"
   d="m 70.022,235.21 c -0.127,-2.566 -2.175,-4.623 -4.746,-4.76 h -2.498 c -2.6,0.164 -4.569,2.398 -4.405,4.998 0.087,1.381 0.775,2.652 1.884,3.482 l 10.587,3.875 c 2.758,1.652 4.7,4.369 5.366,7.506 1.327,6.236 -2.649,12.365 -8.887,13.697 -0.086,0.008 -0.173,0.027 -0.26,0.035 -7.705,1.141 -14.877,-4.186 -16.017,-11.891 l 5.886,-0.871 c 0.661,4.455 4.806,7.533 9.261,6.871 3.018,-0.711 4.878,-3.721 4.167,-6.725 -0.311,-1.313 -1.085,-2.471 -2.185,-3.26 l -10.614,-3.889 c -3.059,-1.848 -4.992,-5.107 -5.143,-8.678 -0.246,-5.891 4.322,-10.859 10.209,-11.107 h 2.776 c 5.809,0.211 10.445,4.916 10.573,10.725 z"
   style="fill:#101820" />
</g>
<g
   transform="translate(-14.174,-80.314)"
   id="LWPOLYLINE_139_">
	<path
   id="path101"
   d="m 96.758,254.261 h 5.95 c 0,5.48 -4.44,9.92 -9.921,9.92 -5.481,0 -9.922,-4.439 -9.922,-9.92 v -9.922 c 0,-5.48 4.441,-9.922 9.922,-9.922 5.481,0 9.921,4.441 9.921,9.922 v 5.553 H 88.821 v 4.369 c 0,2.188 1.778,3.965 3.967,3.965 2.193,0 3.97,-1.778 3.97,-3.965 z"
   style="fill:#101820" />
</g>
<g
   transform="translate(-14.174,-80.314)"
   id="LWPOLYLINE_141_">
	<path
   id="path104"
   d="m 115.808,243.546 v 20.635 h -5.955 v -29.764 h 5.955 v 1.592 c 2.093,-1.045 4.404,-1.592 6.743,-1.592 v 6.293 c -1.563,-1.533 -4.076,-1.51 -5.612,0.055 -0.726,0.742 -1.131,1.74 -1.131,2.781 z"
   style="fill:#101820" />
</g>
<g
   transform="translate(-14.174,-80.314)"
   id="LWPOLYLINE_142_">
	<polygon
   id="polygon107"
   points="140.411,264.181 148.348,234.417 142.394,234.417 137.433,253.021 132.472,234.417 126.522,234.417 134.456,264.181 "
   style="fill:#101820" />
</g>
<g
   transform="translate(-14.174,-80.314)"
   id="LWPOLYLINE_143_">
	<rect
   id="rect110"
   height="29.764"
   width="5.954"
   style="fill:#101820"
   y="234.41701"
   x="153.505" />
</g>
<g
   transform="translate(-14.174,-80.314)"
   id="LWPOLYLINE_144_">
	<rect
   id="rect113"
   height="5.9549999"
   width="5.954"
   style="fill:#101820"
   y="224.495"
   x="153.505" />
</g>
<g
   transform="translate(-14.174,-80.314)"
   id="LWPOLYLINE_145_">
	<path
   id="path116"
   d="m 186.447,244.339 c 0,-5.48 -4.445,-9.922 -9.921,-9.922 -5.48,0 -9.922,4.441 -9.922,9.922 v 9.922 c 0,5.48 4.441,9.92 9.922,9.92 5.476,0 9.921,-4.439 9.921,-9.92 h -5.955 c 0,2.188 -1.777,3.965 -3.966,3.965 -2.193,0 -3.972,-1.777 -3.972,-3.965 v -9.922 c 0,-2.193 1.778,-3.967 3.972,-3.967 2.188,0 3.966,1.773 3.966,3.967 z"
   style="fill:#101820" />
</g>
<g
   transform="translate(-14.174,-80.314)"
   id="LWPOLYLINE_146_">
	<path
   id="path119"
   d="m 206.29,254.261 h 5.949 c 0,5.48 -4.44,9.92 -9.921,9.92 -5.476,0 -9.921,-4.439 -9.921,-9.92 v -9.922 c 0,-5.48 4.445,-9.922 9.921,-9.922 5.48,0 9.921,4.441 9.921,9.922 v 5.553 h -13.888 v 4.369 c 0,2.188 1.778,3.965 3.967,3.965 2.193,0 3.972,-1.778 3.972,-3.965 z"
   style="fill:#101820" />
</g>
<g
   transform="translate(-14.174,-80.314)"
   id="LWPOLYLINE_148_">
	<polygon
   id="polygon122"
   points="219.384,224.495 225.338,224.495 225.338,246.427 233.27,234.417 239.224,234.417 232.431,244.608 239.27,264.19 233.27,264.181 228.494,250.521 225.338,255.253 225.338,264.181 219.384,264.181 "
   style="fill:#101820" />
</g>
<g
   transform="translate(-14.174,-80.314)"
   id="LWPOLYLINE_149_">
	<path
   id="path125"
   d="m 243.592,254.261 c 0,5.48 4.44,9.92 9.921,9.92 5.481,0 9.922,-4.439 9.922,-9.92 v -9.922 c 0,-5.48 -4.441,-9.922 -9.922,-9.922 -5.481,0 -9.921,4.441 -9.921,9.922 z"
   style="fill:#101820" />
</g>
<g
   transform="translate(-14.174,-80.314)"
   id="LWPOLYLINE_150_">
	<rect
   id="rect128"
   height="5.9549999"
   width="5.9549999"
   style="fill:#101820"
   y="224.495"
   x="255.89301" />
</g>
<g
   transform="translate(-14.174,-80.314)"
   id="LWPOLYLINE_152_">
	<rect
   id="rect131"
   height="5.9549999"
   width="5.954"
   style="fill:#101820"
   y="224.495"
   x="245.179" />
</g>
<g
   transform="translate(-14.174,-80.314)"
   id="LWPOLYLINE_153_">
	<path
   id="path134"
   d="m 276.529,243.546 v 20.635 h -5.954 v -29.764 h 5.954 v 1.592 c 2.098,-1.045 4.405,-1.592 6.748,-1.592 v 6.293 c -1.568,-1.533 -4.076,-1.51 -5.607,0.055 -0.73,0.742 -1.141,1.74 -1.141,2.781 z"
   style="fill:#101820" />
</g>
<g
   transform="translate(-14.174,-80.314)"
   id="LWPOLYLINE_154_">
	<path
   id="path137"
   d="m 307.488,241.759 v 22.422 h -5.955 V 243.15 c 0,-2.193 -1.777,-3.973 -3.967,-3.973 -2.197,0 -3.976,1.779 -3.976,3.973 v 21.031 h -5.945 v -29.764 h 5.945 v 2.381 c 2.052,-1.273 4.359,-2.084 6.748,-2.381 3.948,0 7.149,3.201 7.149,7.141 v 0.201 z"
   style="fill:#101820" />
</g>
<g
   transform="translate(-14.174,-80.314)"
   id="LWPOLYLINE_155_">
	<rect
   id="rect140"
   height="29.764"
   width="5.9549999"
   style="fill:#101820"
   y="234.41701"
   x="314.62701" />
</g>
<g
   transform="translate(-14.174,-80.314)"
   id="LWPOLYLINE_156_">
	<rect
   id="rect143"
   height="5.9549999"
   width="5.9549999"
   style="fill:#101820"
   y="224.495"
   x="314.62701" />
</g>
<g
   transform="translate(-14.174,-80.314)"
   id="LWPOLYLINE_157_">
	<path
   id="path146"
   d="m 348.358,241.759 v 22.422 h -5.954 V 243.15 c 0,-2.193 -1.77,-3.973 -3.967,-3.973 -2.188,0 -3.967,1.779 -3.967,3.973 v 21.031 h -5.955 v -29.764 h 5.955 v 2.381 c 2.052,-1.273 4.35,-2.084 6.748,-2.381 3.948,0 7.14,3.201 7.14,7.141 z"
   style="fill:#101820" />
</g>
<g
   transform="translate(-14.174,-80.314)"
   id="LWPOLYLINE_158_">
	<path
   id="path149"
   d="m 368.201,262.595 c -2.052,1.271 -4.35,2.084 -6.748,2.379 -3.939,0 -7.14,-3.199 -7.14,-7.145 v -0.195 l 0.018,-16.322 c 0.666,-3.447 3.62,-5.973 7.122,-6.102 2.389,0.301 4.688,1.104 6.748,2.344 v -2.344 h 5.955 v 27.385 c 0,1.391 -0.302,2.768 -0.895,4.029 -2.225,4.766 -7.896,6.822 -12.666,4.598 l 2.526,-5.391 c 1.787,0.83 3.912,0.061 4.741,-1.727 0.229,-0.47 0.339,-0.99 0.339,-1.509 z"
   style="fill:#101820" />
</g>
<g
   transform="translate(-14.174,-80.314)"
   id="LWPOLYLINE_106_">
	<path
   id="path152"
   d="m 177.679,135.205 c 0,2.188 1.773,3.967 3.967,3.967 2.192,0 3.971,-1.778 3.971,-3.967 v -9.921 c 0,-2.193 -1.778,-3.967 -3.971,-3.967 -2.193,0 -3.967,1.773 -3.967,3.967 z"
   style="fill:#ffcd00" />
</g>
<g
   transform="translate(-14.174,-80.314)"
   id="LWPOLYLINE_110_">
	<path
   id="path155"
   d="m 234.027,135.205 c 0,2.188 1.777,3.967 3.976,3.967 2.188,0 3.967,-1.778 3.967,-3.967 v -9.921 c 0,-2.193 -1.778,-3.967 -3.967,-3.967 -2.198,0 -3.976,1.773 -3.976,3.967 z"
   style="fill:#ffcd00" />
</g>
<g
   transform="translate(-14.174,-80.314)"
   id="LWPOLYLINE_112_">
	<path
   id="path158"
   d="m 267.365,131.256 c -1.988,0.474 -3.83,1.418 -5.38,2.749 -1.386,1.222 -2.18,2.991 -2.152,4.843 0.027,1.203 1.021,2.16 2.226,2.133 0.1,-0.004 0.2,-0.014 0.301,-0.027 1.751,-0.282 3.446,-0.861 5.006,-1.7 v -7.998 z"
   style="fill:#ffcd00" />
</g>
<g
   transform="translate(-14.174,-80.314)"
   id="LWPOLYLINE_116_">
	<path
   id="path161"
   d="m 299.508,135.205 c 0,2.188 1.778,3.967 3.967,3.967 2.198,0 3.976,-1.778 3.976,-3.967 v -9.921 c 0,-2.193 -1.777,-3.967 -3.976,-3.967 -2.188,0 -3.967,1.773 -3.967,3.967 z"
   style="fill:#ffcd00" />
</g>
<g
   transform="translate(-14.174,-80.314)"
   id="LWPOLYLINE_119_">
	<path
   id="path164"
   d="m 178.668,186.813 c -1.983,0.479 -3.825,1.422 -5.376,2.749 -1.391,1.222 -2.179,2.991 -2.156,4.842 0.022,1.208 1.025,2.161 2.229,2.134 0.101,0 0.196,-0.009 0.296,-0.027 1.751,-0.282 3.447,-0.857 5.007,-1.7 z"
   style="fill:#ffcd00" />
</g>
<g
   transform="translate(-14.174,-80.314)"
   id="LWPOLYLINE_133_">
	<path
   id="path167"
   d="m 211.41,305.882 c -1.983,0.482 -3.83,1.422 -5.376,2.754 -1.391,1.221 -2.18,2.99 -2.161,4.842 0.027,1.203 1.026,2.16 2.234,2.133 0.096,0 0.196,-0.008 0.296,-0.027 1.751,-0.281 3.442,-0.855 5.007,-1.699 z"
   style="fill:#ffcd00" />
</g>
<g
   transform="translate(-14.174,-80.314)"
   id="CIRCLE_3_">
	<path
   id="path170"
   d="m 210.019,284.435 c 0,-0.877 -0.707,-1.588 -1.587,-1.588 -0.875,0 -1.587,0.711 -1.587,1.588 0,0.879 0.712,1.586 1.587,1.586 0.88,0 1.587,-0.708 1.587,-1.586 z"
   style="fill:#ffcd00" />
</g>
<g
   transform="translate(-14.174,-80.314)"
   id="LWPOLYLINE_136_">
	<path
   id="path173"
   d="m 245.543,300.31 h 7.934 v -0.396 c 0,-2.193 -1.778,-3.971 -3.967,-3.971 -2.197,0 -3.967,1.777 -3.967,3.971 z"
   style="fill:#ffcd00" />
</g>
<g
   transform="translate(-14.174,-80.314)"
   id="LWPOLYLINE_140_">
	<path
   id="path176"
   d="m 88.821,244.735 h 7.938 v -0.396 c 0,-2.193 -1.777,-3.967 -3.971,-3.967 -2.188,0 -3.967,1.773 -3.967,3.967 z"
   style="fill:#ffcd00" />
</g>
<g
   transform="translate(-14.174,-80.314)"
   id="LWPOLYLINE_147_">
	<path
   id="path179"
   d="m 198.351,244.735 h 7.938 v -0.396 c 0,-2.193 -1.778,-3.967 -3.972,-3.967 -2.188,0 -3.967,1.773 -3.967,3.967 v 0.396 z"
   style="fill:#ffcd00" />
</g>
<g
   transform="translate(-14.174,-80.314)"
   id="LWPOLYLINE_151_">
	<path
   id="path182"
   d="m 249.546,254.261 c 0,2.188 1.778,3.965 3.967,3.965 2.189,0 3.967,-1.777 3.967,-3.965 v -9.922 c 0,-2.193 -1.778,-3.967 -3.967,-3.967 -2.189,0 -3.967,1.773 -3.967,3.967 z"
   style="fill:#ffcd00" />
</g>
<g
   transform="translate(-14.174,-80.314)"
   id="LWPOLYLINE_159_">
	<path
   id="path185"
   d="m 360.267,256.243 c 0,2.193 1.778,3.971 3.967,3.971 2.189,0 3.967,-1.777 3.967,-3.971 v -12.301 c 0,-2.193 -1.778,-3.973 -3.967,-3.973 -2.189,0 -3.967,1.779 -3.967,3.973 z"
   style="fill:#ffcd00" />
</g>
</svg>