<?xml version="1.0" encoding="UTF-8" standalone="no"?>
<svg
   xmlns:dc="http://purl.org/dc/elements/1.1/"
   xmlns:cc="http://creativecommons.org/ns#"
   xmlns:rdf="http://www.w3.org/1999/02/22-rdf-syntax-ns#"
   xmlns:svg="http://www.w3.org/2000/svg"
   xmlns="http://www.w3.org/2000/svg"
   xml:space="preserve"
   viewBox="0 0 397.35001 198.92999"
   height="198.92999"
   width="397.35001"
   y="0px"
   x="0px"
   id="Layer_1"
   version="1.1"><metadata
   id="metadata193"><rdf:RDF><cc:Work
       rdf:about=""><dc:format>image/svg+xml</dc:format><dc:type
         rdf:resource="http://purl.org/dc/dcmitype/StillImage" /></cc:Work></rdf:RDF></metadata><defs
   id="defs191" />
<g
   transform="translate(-13.923,-113.133)"
   id="LWPOLYLINE_151_">
	
		<rect
   id="rect2"
   height="198.42999"
   width="396.85001"
   style="fill:#005eb8;stroke:#005eb8;stroke-width:0.5;stroke-miterlimit:10"
   y="113.383"
   x="14.173" />
</g>
<g
   transform="translate(-13.923,-113.133)"
   id="LWPOLYLINE_154_">
	<path
   id="path5"
   d="m 36.848,113.383 h 351.501 c 12.521,0 22.674,10.153 22.674,22.679 v 153.072 c 0,12.527 -10.152,22.68 -22.674,22.68 H 36.848 c -12.521,0 -22.675,-10.152 -22.675,-22.68 V 136.062 c 0,-12.525 10.154,-22.679 22.675,-22.679 z"
   style="fill:#ffffff" />
</g>
<g
   transform="translate(-13.923,-113.133)"
   id="LWPOLYLINE_153_">
	<path
   id="path8"
   d="m 36.848,124.724 h 351.501 c 6.26,0 11.342,5.077 11.342,11.338 v 153.072 c 0,6.266 -5.082,11.338 -11.342,11.338 H 36.848 c -6.261,0 -11.337,-5.072 -11.337,-11.338 V 136.062 c 0,-6.261 5.076,-11.338 11.337,-11.338 z"
   style="fill:#005eb8" />
</g>
<g
   transform="translate(-13.923,-113.133)"
   id="LWPOLYLINE_127_">
	<polygon
   id="polygon11"
   points="60.719,163.274 60.719,178.583 55.615,178.583 55.615,144.566 60.719,144.566 60.719,158.174 72.623,158.174 72.623,144.566 77.727,144.566 77.727,178.583 72.623,178.583 72.623,163.274 "
   style="fill:#ffffff" />
</g>
<g
   transform="translate(-13.923,-113.133)"
   id="LWPOLYLINE_128_">
	<path
   id="path14"
   d="M 83.847,172.291 V 153.07 h 5.104 v 18.028 c 0,1.88 1.524,3.4 3.4,3.4 1.879,0 3.404,-1.521 3.404,-3.4 V 153.07 h 5.1 v 25.513 h -5.1 v -2.04 c -1.759,1.09 -3.732,1.786 -5.784,2.04 -3.38,0 -6.124,-2.74 -6.124,-6.124 z"
   style="fill:#ffffff" />
</g>
<g
   transform="translate(-13.923,-113.133)"
   id="LWPOLYLINE_129_">
	<path
   id="path17"
   d="m 106.979,170.078 c 0,4.698 3.807,8.505 8.504,8.505 4.698,0 8.504,-3.807 8.504,-8.505 v -8.504 c 0,-4.693 -3.806,-8.504 -8.504,-8.504 -4.697,0 -8.504,3.811 -8.504,8.504 z"
   style="fill:#ffffff" />
</g>
<g
   transform="translate(-13.923,-113.133)"
   id="LWPOLYLINE_131_">
	<rect
   id="rect20"
   height="34.016998"
   width="5.0999999"
   style="fill:#ffffff"
   y="144.56599"
   x="130.11099" />
</g>
<g
   transform="translate(-13.923,-113.133)"
   id="LWPOLYLINE_132_">
	<path
   id="path23"
   d="m 147.967,153.07 h 2.892 v 5.104 h -2.892 v 12.416 c 0,1.594 1.297,2.892 2.892,2.892 v 5.101 c -4.413,0 -7.992,-3.576 -7.992,-7.992 v -12.416 h -2.892 v -5.104 h 2.892 v -8.504 h 5.1 z"
   style="fill:#ffffff" />
</g>
<g
   transform="translate(-13.923,-113.133)"
   id="LWPOLYLINE_133_">
	<path
   id="path26"
   d="m 155.283,170.078 c 0,4.698 3.807,8.505 8.504,8.505 4.694,0 8.504,-3.807 8.504,-8.505 v -8.504 c 0,-4.693 -3.81,-8.504 -8.504,-8.504 -4.697,0 -8.504,3.811 -8.504,8.504 z"
   style="fill:#ffffff" />
</g>
<g
   transform="translate(-13.923,-113.133)"
   id="LWPOLYLINE_135_">
	<path
   id="path29"
   d="m 194.059,178.583 h -5.1 v -1.63 c -2.052,1.103 -4.35,1.665 -6.679,1.626 -2.095,0.059 -3.979,-1.259 -4.643,-3.248 -0.829,-2.61 -0.129,-5.464 1.809,-7.398 2.482,-2.665 5.878,-4.295 9.513,-4.564 v -2.642 c 0,-1.411 -1.146,-2.552 -2.552,-2.552 -1.411,0 -2.552,1.141 -2.552,2.552 h -5.104 c 0,-4.229 3.427,-7.656 7.656,-7.656 4.225,0 7.652,3.428 7.652,7.656 z"
   style="fill:#ffffff" />
</g>
<g
   transform="translate(-13.923,-113.133)"
   id="LWPOLYLINE_137_">
	<path
   id="path32"
   d="m 205.287,153.07 v 24.832 c 0,4.131 -3.353,7.484 -7.484,7.484 h -0.68 l 0.68,-5.104 c 1.313,0 2.38,-1.063 2.38,-2.381 V 153.07 Z"
   style="fill:#ffffff" />
</g>
<g
   transform="translate(-13.923,-113.133)"
   id="LWPOLYLINE_138_">
	<rect
   id="rect35"
   height="5.1040001"
   width="5.1040001"
   style="fill:#ffffff"
   y="144.56599"
   x="200.18401" />
</g>
<g
   transform="translate(-13.923,-113.133)"
   id="LWPOLYLINE_139_">
	<path
   id="path38"
   d="m 211.407,170.078 c 0,4.698 3.807,8.505 8.504,8.505 4.695,0 8.502,-3.807 8.502,-8.505 v -8.504 c 0,-4.693 -3.807,-8.504 -8.502,-8.504 -4.697,0 -8.504,3.811 -8.504,8.504 z"
   style="fill:#ffffff" />
</g>
<g
   transform="translate(-13.923,-113.133)"
   id="LWPOLYLINE_141_">
	<path
   id="path41"
   d="m 245.421,170.078 c 0,4.698 3.807,8.505 8.504,8.505 h 0.68 c 4.135,0 7.488,-3.35 7.488,-7.484 0,-2.661 -1.414,-5.124 -3.713,-6.464 l -5.65,-3.291 c -0.523,-0.305 -0.844,-0.863 -0.844,-1.469 0,-0.938 0.766,-1.7 1.703,-1.7 h 1.016 c 0.947,0 1.705,0.762 1.705,1.7 h 5.104 c 0,-3.76 -3.049,-6.805 -6.809,-6.805 h -1.016 c -3.76,0 -6.809,3.045 -6.809,6.805 0,2.423 1.291,4.658 3.385,5.877 l 5.645,3.291 c 0.727,0.426 1.18,1.212 1.18,2.056 0,1.317 -1.063,2.384 -2.385,2.384 h -0.68 c -1.875,0 -3.4,-1.524 -3.4,-3.404 h -5.104 z"
   style="fill:#ffffff" />
</g>
<g
   transform="translate(-13.923,-113.133)"
   id="LWPOLYLINE_142_">
	<path
   id="path44"
   d="m 283.525,178.583 h -5.104 v -1.63 c -2.047,1.103 -4.346,1.665 -6.676,1.626 -2.094,0.059 -3.977,-1.259 -4.643,-3.248 -0.828,-2.61 -0.133,-5.464 1.807,-7.398 2.484,-2.665 5.877,-4.295 9.512,-4.564 v -2.642 c 0,-1.411 -1.141,-2.552 -2.555,-2.552 -1.408,0 -2.549,1.141 -2.549,2.552 h -5.104 c 0,-4.229 3.43,-7.656 7.652,-7.656 4.229,0 7.658,3.428 7.658,7.656 v 17.856 z"
   style="fill:#ffffff" />
</g>
<g
   transform="translate(-13.923,-113.133)"
   id="LWPOLYLINE_144_">
	<rect
   id="rect47"
   height="34.016998"
   width="5.1040001"
   style="fill:#ffffff"
   y="144.56599"
   x="289.646" />
</g>
<g
   transform="translate(-13.923,-113.133)"
   id="LWPOLYLINE_145_">
	<rect
   id="rect50"
   height="34.016998"
   width="5.1040001"
   style="fill:#ffffff"
   y="144.56599"
   x="301.54999" />
</g>
<g
   transform="translate(-13.923,-113.133)"
   id="LWPOLYLINE_146_">
	<rect
   id="rect53"
   height="25.513"
   width="5.1040001"
   style="fill:#ffffff"
   y="153.07001"
   x="313.45499" />
</g>
<g
   transform="translate(-13.923,-113.133)"
   id="LWPOLYLINE_147_">
	<rect
   id="rect56"
   height="5.1040001"
   width="5.1040001"
   style="fill:#ffffff"
   y="144.56599"
   x="313.45499" />
</g>
<g
   transform="translate(-13.923,-113.133)"
   id="LWPOLYLINE_148_">
	<path
   id="path59"
   d="m 331.314,153.07 h 2.893 v 5.104 h -2.893 v 12.416 c 0,1.594 1.297,2.892 2.893,2.892 v 5.101 c -4.416,0 -7.996,-3.576 -7.996,-7.992 v -12.416 h -2.893 v -5.104 h 2.893 v -8.504 h 5.104 v 8.503 z"
   style="fill:#ffffff" />
</g>
<g
   transform="translate(-13.923,-113.133)"
   id="LWPOLYLINE_149_">
	<path
   id="path62"
   d="m 345.257,153.07 h 2.893 v 5.104 h -2.893 v 12.416 c 0,1.594 1.299,2.892 2.893,2.892 v 5.101 c -4.408,0 -7.988,-3.576 -7.988,-7.992 v -12.416 h -2.893 v -5.104 h 2.893 v -8.504 h 5.096 v 8.503 z"
   style="fill:#ffffff" />
</g>
<g
   transform="translate(-13.923,-113.133)"
   id="LWPOLYLINE_150_">
	<path
   id="path65"
   d="M 352.574,172.291 V 153.07 h 5.104 v 18.028 c 0,1.88 1.525,3.4 3.4,3.4 1.885,0 3.4,-1.521 3.4,-3.4 V 153.07 h 5.104 v 25.513 h -5.104 v -2.04 c -1.75,1.09 -3.729,1.786 -5.775,2.04 -3.385,0 -6.129,-2.74 -6.129,-6.124 z"
   style="fill:#ffffff" />
</g>
<g
   transform="translate(-13.923,-113.133)"
   id="LWPOLYLINE_183_">
	<path
   id="path68"
   d="m 90.385,208.179 c -0.109,-2.205 -1.864,-3.963 -4.064,-4.084 h -2.142 c -2.228,0.141 -3.916,2.059 -3.775,4.287 0.074,1.184 0.665,2.273 1.614,2.982 l 9.074,3.324 c 2.361,1.416 4.029,3.744 4.6,6.434 1.137,5.346 -2.274,10.6 -7.617,11.736 -0.074,0.012 -0.148,0.023 -0.223,0.035 C 81.248,233.87 75.1,229.305 74.123,222.7 l 5.045,-0.746 c 0.566,3.818 4.119,6.457 7.938,5.891 2.587,-0.611 4.182,-3.189 3.572,-5.766 -0.266,-1.129 -0.93,-2.121 -1.872,-2.793 l -9.102,-3.334 c -2.622,-1.584 -4.275,-4.381 -4.404,-7.441 -0.211,-5.045 3.705,-9.305 8.75,-9.516 h 2.38 c 4.979,0.18 8.954,4.209 9.063,9.191 z"
   style="fill:#ffffff" />
</g>
<g
   transform="translate(-13.923,-113.133)"
   id="LWPOLYLINE_184_">
	<path
   id="path71"
   d="m 113.302,224.507 h 5.104 c 0,4.697 -3.807,8.504 -8.504,8.504 -4.698,0 -8.504,-3.807 -8.504,-8.504 v -8.504 c 0,-4.697 3.807,-8.504 8.504,-8.504 4.697,0 8.504,3.807 8.504,8.504 v 4.76 h -11.908 v 3.744 c 0,1.875 1.524,3.4 3.404,3.4 1.88,0 3.4,-1.525 3.4,-3.4 z"
   style="fill:#ffffff" />
</g>
<g
   transform="translate(-13.923,-113.133)"
   id="LWPOLYLINE_186_">
	<path
   id="path74"
   d="m 129.63,215.323 v 17.688 h -5.1 v -25.512 h 5.1 v 1.363 c 1.798,-0.898 3.775,-1.363 5.784,-1.363 v 5.393 c -1.34,-1.313 -3.494,-1.293 -4.811,0.047 -0.621,0.636 -0.973,1.492 -0.973,2.384 z"
   style="fill:#ffffff" />
</g>
<g
   transform="translate(-13.923,-113.133)"
   id="LWPOLYLINE_187_">
	<polygon
   id="polygon77"
   points="150.722,233.011 157.522,207.499 152.422,207.499 148.17,223.444 143.918,207.499 138.814,207.499 145.618,233.011 "
   style="fill:#ffffff" />
</g>
<g
   transform="translate(-13.923,-113.133)"
   id="LWPOLYLINE_188_">
	<rect
   id="rect80"
   height="25.511999"
   width="5.1040001"
   style="fill:#ffffff"
   y="207.49899"
   x="161.946" />
</g>
<g
   transform="translate(-13.923,-113.133)"
   id="LWPOLYLINE_189_">
	<rect
   id="rect83"
   height="5.0999999"
   width="5.1040001"
   style="fill:#ffffff"
   y="198.995"
   x="161.946" />
</g>
<g
   transform="translate(-13.923,-113.133)"
   id="LWPOLYLINE_190_">
	<path
   id="path86"
   d="m 190.179,216.003 c 0,-4.697 -3.807,-8.504 -8.504,-8.504 -4.693,0 -8.504,3.807 -8.504,8.504 v 8.504 c 0,4.697 3.811,8.504 8.504,8.504 4.698,0 8.504,-3.807 8.504,-8.504 h -5.1 c 0,1.875 -1.524,3.4 -3.404,3.4 -1.875,0 -3.4,-1.525 -3.4,-3.4 v -8.504 c 0,-1.881 1.524,-3.404 3.4,-3.404 1.88,0 3.404,1.523 3.404,3.404 z"
   style="fill:#ffffff" />
</g>
<g
   transform="translate(-13.923,-113.133)"
   id="LWPOLYLINE_191_">
	<path
   id="path89"
   d="m 207.187,224.507 h 5.104 c 0,4.697 -3.806,8.504 -8.504,8.504 -4.698,0 -8.504,-3.807 -8.504,-8.504 v -8.504 c 0,-4.697 3.806,-8.504 8.504,-8.504 4.698,0 8.504,3.807 8.504,8.504 v 4.76 h -11.904 v 3.744 c 0,1.875 1.52,3.4 3.4,3.4 1.88,0 3.4,-1.525 3.4,-3.4 z"
   style="fill:#ffffff" />
</g>
<g
   transform="translate(-13.923,-113.133)"
   id="LWPOLYLINE_193_">
	<polygon
   id="polygon92"
   points="218.416,198.995 223.513,198.995 223.513,217.788 230.32,207.499 235.425,207.499 229.601,216.229 235.457,233.019 230.32,233.011 226.216,221.298 223.513,225.354 223.513,233.011 218.416,233.011 "
   style="fill:#ffffff" />
</g>
<g
   transform="translate(-13.923,-113.133)"
   id="LWPOLYLINE_194_">
	<path
   id="path95"
   d="m 239.162,224.507 c 0,4.697 3.807,8.504 8.504,8.504 4.697,0 8.504,-3.807 8.504,-8.504 v -8.504 c 0,-4.697 -3.807,-8.504 -8.504,-8.504 -4.697,0 -8.504,3.807 -8.504,8.504 z"
   style="fill:#ffffff" />
</g>
<g
   transform="translate(-13.923,-113.133)"
   id="LWPOLYLINE_195_">
	<rect
   id="rect98"
   height="5.0999999"
   width="5.1040001"
   style="fill:#ffffff"
   y="198.995"
   x="249.705" />
</g>
<g
   transform="translate(-13.923,-113.133)"
   id="LWPOLYLINE_197_">
	<rect
   id="rect101"
   height="5.0999999"
   width="5.1040001"
   style="fill:#ffffff"
   y="198.995"
   x="240.521" />
</g>
<g
   transform="translate(-13.923,-113.133)"
   id="LWPOLYLINE_198_">
	<path
   id="path104"
   d="m 267.392,215.323 v 17.688 h -5.096 v -25.512 h 5.096 v 1.363 c 1.799,-0.898 3.775,-1.363 5.785,-1.363 v 5.393 c -1.338,-1.313 -3.494,-1.293 -4.807,0.047 -0.626,0.636 -0.978,1.492 -0.978,2.384 z"
   style="fill:#ffffff" />
</g>
<g
   transform="translate(-13.923,-113.133)"
   id="LWPOLYLINE_199_">
	<path
   id="path107"
   d="m 293.929,213.79 v 19.221 h -5.104 v -18.033 c 0,-1.875 -1.525,-3.398 -3.4,-3.398 -1.877,0 -3.4,1.523 -3.4,3.398 v 18.033 h -5.104 v -25.512 h 5.104 v 2.039 c 1.758,-1.094 3.729,-1.789 5.783,-2.039 3.377,0 6.121,2.738 6.121,6.119 z"
   style="fill:#ffffff" />
</g>
<g
   transform="translate(-13.923,-113.133)"
   id="LWPOLYLINE_200_">
	<rect
   id="rect110"
   height="25.511999"
   width="5.105"
   style="fill:#ffffff"
   y="207.49899"
   x="300.048" />
</g>
<g
   transform="translate(-13.923,-113.133)"
   id="LWPOLYLINE_201_">
	<rect
   id="rect113"
   height="5.0999999"
   width="5.105"
   style="fill:#ffffff"
   y="198.995"
   x="300.048" />
</g>
<g
   transform="translate(-13.923,-113.133)"
   id="LWPOLYLINE_202_">
	<path
   id="path116"
   d="m 328.968,213.79 v 19.221 h -5.104 v -18.033 c 0,-1.875 -1.523,-3.398 -3.4,-3.398 -1.883,0 -3.406,1.523 -3.406,3.398 v 18.033 h -5.098 v -25.512 h 5.098 v 2.039 c 1.758,-1.094 3.734,-1.789 5.783,-2.039 3.385,0 6.127,2.738 6.127,6.119 z"
   style="fill:#ffffff" />
</g>
<g
   transform="translate(-13.923,-113.133)"
   id="LWPOLYLINE_203_">
	<path
   id="path119"
   d="m 345.978,231.649 c -1.76,1.088 -3.736,1.783 -5.785,2.041 -3.385,0 -6.127,-2.744 -6.127,-6.123 v -0.17 l 0.016,-13.99 c 0.57,-2.955 3.102,-5.119 6.111,-5.229 2.049,0.258 4.018,0.941 5.785,2.008 v -2.008 h 5.096 v 23.471 c 0,1.193 -0.258,2.369 -0.766,3.455 -1.908,4.084 -6.77,5.848 -10.85,3.939 l 2.156,-4.623 c 1.533,0.715 3.354,0.055 4.072,-1.477 0.189,-0.405 0.292,-0.846 0.292,-1.294 z"
   style="fill:#ffffff" />
</g>
<g
   transform="translate(-13.923,-113.133)"
   id="LWPOLYLINE_205_">
	<path
   id="path122"
   d="m 157.323,255.118 h 2.892 v 5.104 h -2.892 v 12.416 c 0,1.596 1.293,2.893 2.892,2.893 v 5.1 c -4.417,0 -7.996,-3.574 -7.996,-7.992 v -12.416 h -2.892 v -5.104 h 2.892 v -8.504 h 5.104 z"
   style="fill:#ffffff" />
</g>
<g
   transform="translate(-13.923,-113.133)"
   id="LWPOLYLINE_206_">
	<rect
   id="rect125"
   height="25.511999"
   width="5.1040001"
   style="fill:#ffffff"
   y="255.118"
   x="165.315" />
</g>
<g
   transform="translate(-13.923,-113.133)"
   id="LWPOLYLINE_207_">
	<rect
   id="rect128"
   height="5.1040001"
   width="5.1040001"
   style="fill:#ffffff"
   y="246.614"
   x="165.315" />
</g>
<g
   transform="translate(-13.923,-113.133)"
   id="LWPOLYLINE_208_">
	<rect
   id="rect131"
   height="34.015999"
   width="5.0999999"
   style="fill:#ffffff"
   y="246.614"
   x="177.22301" />
</g>
<g
   transform="translate(-13.923,-113.133)"
   id="LWPOLYLINE_209_">
	<rect
   id="rect134"
   height="34.015999"
   width="5.1040001"
   style="fill:#ffffff"
   y="246.614"
   x="189.127" />
</g>
<g
   transform="translate(-13.923,-113.133)"
   id="LWPOLYLINE_210_">
	<path
   id="path137"
   d="m 216.679,280.63 h -5.1 v -1.629 c -2.051,1.102 -4.35,1.664 -6.679,1.625 -2.095,0.059 -3.979,-1.258 -4.643,-3.246 -0.829,-2.611 -0.129,-5.465 1.809,-7.398 2.482,-2.666 5.878,-4.295 9.512,-4.564 v -2.643 c 0,-1.41 -1.141,-2.553 -2.552,-2.553 -1.411,0 -2.552,1.143 -2.552,2.553 h -5.1 c 0,-4.229 3.423,-7.656 7.652,-7.656 4.229,0 7.652,3.428 7.652,7.656 v 17.855 z"
   style="fill:#ffffff" />
</g>
<g
   transform="translate(-13.923,-113.133)"
   id="CIRCLE_2_">
	<path
   id="path140"
   d="m 212.427,250.354 c 0,-1.875 -1.52,-3.4 -3.4,-3.4 -1.88,0 -3.4,1.525 -3.4,3.4 0,1.885 1.52,3.404 3.4,3.404 1.88,0 3.4,-1.519 3.4,-3.404 z"
   style="fill:#ffffff" />
</g>
<g
   transform="translate(-13.923,-113.133)"
   id="LWPOLYLINE_212_">
	<path
   id="path143"
   d="m 228.757,255.118 h 2.893 v 5.104 h -2.893 v 12.416 c 0,1.596 1.297,2.893 2.893,2.893 v 5.1 c -4.416,0 -7.996,-3.574 -7.996,-7.992 v -12.416 h -2.891 v -5.104 h 2.891 v -8.504 h 5.104 v 8.503 z"
   style="fill:#ffffff" />
</g>
<g
   transform="translate(-13.923,-113.133)"
   id="LWPOLYLINE_213_">
	<path
   id="path146"
   d="m 247.634,272.126 h 5.104 c 0,4.697 -3.807,8.504 -8.504,8.504 -4.697,0 -8.504,-3.807 -8.504,-8.504 v -8.504 c 0,-4.693 3.807,-8.504 8.504,-8.504 4.697,0 8.504,3.811 8.504,8.504 v 4.764 h -11.904 v 3.74 c 0,1.881 1.523,3.404 3.4,3.404 1.875,0 3.4,-1.523 3.4,-3.404 z"
   style="fill:#ffffff" />
</g>
<g
   transform="translate(-13.923,-113.133)"
   id="LWPOLYLINE_215_">
	<path
   id="path149"
   d="m 275.867,261.415 v 19.215 h -5.098 v -18.027 c 0,-1.875 -1.523,-3.4 -3.408,-3.4 -1.875,0 -3.398,1.525 -3.398,3.4 v 18.027 h -5.105 v -25.512 h 5.105 v 2.045 c 1.758,-1.096 3.727,-1.791 5.783,-2.045 3.385,0 6.121,2.74 6.121,6.125 z"
   style="fill:#ffffff" />
</g>
<g
   transform="translate(-13.923,-113.133)"
   id="LWPOLYLINE_130_">
	<path
   id="path152"
   d="m 112.083,170.078 c 0,1.88 1.52,3.404 3.4,3.404 1.88,0 3.4,-1.524 3.4,-3.404 v -8.504 c 0,-1.88 -1.52,-3.399 -3.4,-3.399 -1.88,0 -3.4,1.52 -3.4,3.399 z"
   style="fill:#005eb8" />
</g>
<g
   transform="translate(-13.923,-113.133)"
   id="LWPOLYLINE_134_">
	<path
   id="path155"
   d="m 160.383,170.078 c 0,1.88 1.524,3.404 3.404,3.404 1.876,0 3.4,-1.524 3.4,-3.404 v -8.504 c 0,-1.88 -1.524,-3.399 -3.4,-3.399 -1.88,0 -3.404,1.52 -3.404,3.399 z"
   style="fill:#005eb8" />
</g>
<g
   transform="translate(-13.923,-113.133)"
   id="LWPOLYLINE_136_">
	<path
   id="path158"
   d="m 188.959,166.69 c -1.704,0.414 -3.283,1.219 -4.612,2.36 -1.192,1.047 -1.868,2.563 -1.849,4.15 0.023,1.032 0.879,1.853 1.911,1.829 0.086,0 0.172,-0.008 0.254,-0.023 1.505,-0.242 2.955,-0.734 4.295,-1.458 v -6.858 z"
   style="fill:#005eb8" />
</g>
<g
   transform="translate(-13.923,-113.133)"
   id="LWPOLYLINE_140_">
	<path
   id="path161"
   d="m 216.511,170.078 c 0,1.88 1.523,3.404 3.4,3.404 1.879,0 3.406,-1.524 3.406,-3.404 v -8.504 c 0,-1.88 -1.527,-3.399 -3.406,-3.399 -1.877,0 -3.4,1.52 -3.4,3.399 z"
   style="fill:#005eb8" />
</g>
<g
   transform="translate(-13.923,-113.133)"
   id="LWPOLYLINE_143_">
	<path
   id="path164"
   d="m 278.421,166.69 c -1.703,0.414 -3.283,1.219 -4.611,2.36 -1.188,1.047 -1.867,2.563 -1.852,4.15 0.023,1.032 0.883,1.853 1.914,1.829 0.086,0 0.172,-0.008 0.258,-0.023 1.5,-0.242 2.947,-0.734 4.291,-1.458 z"
   style="fill:#005eb8" />
</g>
<g
   transform="translate(-13.923,-113.133)"
   id="LWPOLYLINE_185_">
	<path
   id="path167"
   d="m 106.498,216.339 h 6.804 v -0.336 c 0,-1.881 -1.52,-3.404 -3.4,-3.404 -1.88,0 -3.404,1.523 -3.404,3.404 z"
   style="fill:#005eb8" />
</g>
<g
   transform="translate(-13.923,-113.133)"
   id="LWPOLYLINE_192_">
	<path
   id="path170"
   d="m 200.387,216.339 h 6.8 v -0.336 c 0,-1.881 -1.52,-3.404 -3.4,-3.404 -1.88,0 -3.4,1.523 -3.4,3.404 z"
   style="fill:#005eb8" />
</g>
<g
   transform="translate(-13.923,-113.133)"
   id="LWPOLYLINE_196_">
	<path
   id="path173"
   d="m 244.265,224.507 c 0,1.875 1.523,3.4 3.4,3.4 1.883,0 3.398,-1.525 3.398,-3.4 v -8.504 c 0,-1.881 -1.516,-3.404 -3.398,-3.404 -1.877,0 -3.4,1.523 -3.4,3.404 z"
   style="fill:#005eb8" />
</g>
<g
   transform="translate(-13.923,-113.133)"
   id="LWPOLYLINE_204_">
	<path
   id="path176"
   d="m 339.169,226.206 c 0,1.881 1.523,3.4 3.4,3.4 1.883,0 3.408,-1.52 3.408,-3.4 v -10.547 c 0,-1.877 -1.525,-3.4 -3.408,-3.4 -1.877,0 -3.4,1.523 -3.4,3.4 z"
   style="fill:#005eb8" />
</g>
<g
   transform="translate(-13.923,-113.133)"
   id="LWPOLYLINE_211_">
	<path
   id="path179"
   d="m 211.579,268.739 c -1.704,0.414 -3.283,1.219 -4.611,2.359 -1.192,1.047 -1.868,2.564 -1.849,4.15 0.023,1.031 0.879,1.854 1.911,1.83 0.086,0 0.172,-0.008 0.254,-0.023 1.505,-0.244 2.955,-0.736 4.295,-1.459 z"
   style="fill:#005eb8" />
</g>
<g
   transform="translate(-13.923,-113.133)"
   id="CIRCLE_3_">
	<path
   id="path182"
   d="m 210.387,250.354 c 0,-0.75 -0.609,-1.359 -1.36,-1.359 -0.751,0 -1.36,0.609 -1.36,1.359 0,0.754 0.609,1.363 1.36,1.363 0.751,0 1.36,-0.609 1.36,-1.363 z"
   style="fill:#005eb8" />
</g>
<g
   transform="translate(-13.923,-113.133)"
   id="LWPOLYLINE_214_">
	<path
   id="path185"
   d="m 240.833,263.962 h 6.801 v -0.34 c 0,-1.879 -1.525,-3.4 -3.4,-3.4 -1.877,0 -3.4,1.521 -3.4,3.4 v 0.34 z"
   style="fill:#005eb8" />
</g>
</svg>