<?xml version="1.0" encoding="iso-8859-1"?>
<!-- Generator: Adobe Illustrator 16.0.0, SVG Export Plug-In . SVG Version: 6.00 Build 0)  -->
<!DOCTYPE svg PUBLIC "-//W3C//DTD SVG 1.1//EN" "http://www.w3.org/Graphics/SVG/1.1/DTD/svg11.dtd">
<svg version="1.1" id="Layer_1" xmlns="http://www.w3.org/2000/svg" xmlns:xlink="http://www.w3.org/1999/xlink" x="0px" y="0px"
	 width="425.197px" height="425.196px" viewBox="0 0 425.197 425.196" style="enable-background:new 0 0 425.197 425.196;"
	 xml:space="preserve">
<g id="LWPOLYLINE_179_">
	
		<rect x="14.174" y="155.905" style="fill:#005EB8;stroke:#005EB8;stroke-width:0.5;stroke-miterlimit:10;" width="396.849" height="113.386"/>
</g>
<g id="LWPOLYLINE_182_">
	<path style="fill:#FFFFFF;" d="M36.849,155.905h351.499c12.521,0,22.675,10.153,22.675,22.675v68.032
		c0,12.525-10.153,22.679-22.675,22.679H36.849c-12.521,0-22.675-10.153-22.675-22.679V178.58
		C14.174,166.059,24.328,155.905,36.849,155.905z"/>
</g>
<g id="LWPOLYLINE_181_">
	<path style="fill:#005EB8;" d="M36.849,167.242h351.499c6.261,0,11.342,5.077,11.342,11.338v68.032
		c0,6.265-5.081,11.341-11.342,11.341H36.849c-6.261,0-11.338-5.076-11.338-11.341V178.58
		C25.511,172.319,30.588,167.242,36.849,167.242z"/>
</g>
<g id="LWPOLYLINE_155_">
	<polygon style="fill:#FFFFFF;" points="72.624,229.604 72.624,214.3 60.719,214.3 60.719,229.604 55.616,229.604 55.616,195.588 
		60.719,195.588 60.719,209.196 72.624,209.196 72.624,195.588 77.727,195.588 77.727,229.604 	"/>
</g>
<g id="LWPOLYLINE_156_">
	<path style="fill:#FFFFFF;" d="M83.847,223.312v-19.22h5.104v18.032c0,1.876,1.524,3.399,3.399,3.399
		c1.88,0,3.404-1.523,3.404-3.399v-18.032h5.101v25.512h-5.101v-2.04c-1.759,1.095-3.732,1.79-5.784,2.04
		c-3.38,0-6.124-2.739-6.124-6.12V223.312z"/>
</g>
<g id="LWPOLYLINE_157_">
	<path style="fill:#FFFFFF;" d="M106.979,221.1c0,4.698,3.807,8.504,8.505,8.504c4.697,0,8.504-3.806,8.504-8.504v-8.504
		c0-4.697-3.807-8.504-8.504-8.504c-4.698,0-8.505,3.807-8.505,8.504V221.1z"/>
</g>
<g id="LWPOLYLINE_159_">
	<rect x="130.112" y="195.588" style="fill:#FFFFFF;" width="5.1" height="34.016"/>
</g>
<g id="LWPOLYLINE_160_">
	<path style="fill:#FFFFFF;" d="M147.967,204.092h2.893v5.104h-2.893v12.416c0,1.598,1.298,2.892,2.893,2.892v5.1
		c-4.413,0-7.992-3.579-7.992-7.991v-12.416h-2.893v-5.104h2.893v-8.504h5.1V204.092z"/>
</g>
<g id="LWPOLYLINE_161_">
	<path style="fill:#FFFFFF;" d="M155.284,221.1c0,4.698,3.807,8.504,8.504,8.504c4.693,0,8.504-3.806,8.504-8.504v-8.504
		c0-4.697-3.811-8.504-8.504-8.504c-4.697,0-8.504,3.807-8.504,8.504V221.1z"/>
</g>
<g id="LWPOLYLINE_163_">
	<path style="fill:#FFFFFF;" d="M194.059,229.604h-5.1v-1.633c-2.052,1.109-4.35,1.672-6.679,1.633
		c-2.095,0.055-3.979-1.266-4.644-3.251c-0.828-2.61-0.129-5.464,1.81-7.395c2.482-2.665,5.878-4.299,9.513-4.568v-2.642
		c0-1.411-1.146-2.552-2.552-2.552c-1.411,0-2.553,1.141-2.553,2.552h-5.104c0-4.225,3.428-7.656,7.656-7.656
		c4.225,0,7.651,3.432,7.651,7.656V229.604z"/>
</g>
<g id="LWPOLYLINE_165_">
	<path style="fill:#FFFFFF;" d="M205.288,204.092v24.832c0,4.135-3.354,7.484-7.484,7.484h-0.68l0.68-5.101
		c1.313,0,2.38-1.066,2.38-2.384v-24.832H205.288z"/>
</g>
<g id="LWPOLYLINE_166_">
	<rect x="200.183" y="195.588" style="fill:#FFFFFF;" width="5.104" height="5.104"/>
</g>
<g id="LWPOLYLINE_167_">
	<path style="fill:#FFFFFF;" d="M211.408,221.1c0,4.698,3.807,8.504,8.504,8.504c4.695,0,8.502-3.806,8.502-8.504v-8.504
		c0-4.697-3.807-8.504-8.502-8.504c-4.697,0-8.504,3.807-8.504,8.504V221.1z"/>
</g>
<g id="LWPOLYLINE_169_">
	<path style="fill:#FFFFFF;" d="M245.421,221.1c0,4.698,3.807,8.504,8.504,8.504h0.681c4.135,0,7.487-3.349,7.487-7.479
		c0-2.665-1.414-5.128-3.712-6.468l-5.651-3.291c-0.524-0.301-0.845-0.863-0.845-1.47c0-0.938,0.767-1.699,1.704-1.699h1.017
		c0.945,0,1.703,0.762,1.703,1.699h5.104c0-3.755-3.048-6.804-6.808-6.804h-1.017c-3.76,0-6.808,3.049-6.808,6.804
		c0,2.42,1.29,4.663,3.385,5.878l5.643,3.291c0.728,0.426,1.181,1.211,1.181,2.06c0,1.313-1.063,2.38-2.384,2.38h-0.681
		c-1.876,0-3.399-1.524-3.399-3.404H245.421z"/>
</g>
<g id="LWPOLYLINE_170_">
	<path style="fill:#FFFFFF;" d="M283.526,229.604h-5.104v-1.633c-2.048,1.109-4.346,1.672-6.675,1.633
		c-2.095,0.055-3.979-1.266-4.643-3.251c-0.829-2.61-0.133-5.464,1.806-7.395c2.485-2.665,5.877-4.299,9.512-4.568v-2.642
		c0-1.411-1.141-2.552-2.556-2.552c-1.407,0-2.548,1.141-2.548,2.552h-5.104c0-4.225,3.432-7.656,7.652-7.656
		c4.229,0,7.66,3.432,7.66,7.656V229.604z"/>
</g>
<g id="LWPOLYLINE_172_">
	<rect x="289.645" y="195.588" style="fill:#FFFFFF;" width="5.104" height="34.016"/>
</g>
<g id="LWPOLYLINE_173_">
	<rect x="301.549" y="195.588" style="fill:#FFFFFF;" width="5.104" height="34.016"/>
</g>
<g id="LWPOLYLINE_174_">
	<rect x="313.454" y="204.092" style="fill:#FFFFFF;" width="5.104" height="25.512"/>
</g>
<g id="LWPOLYLINE_175_">
	<rect x="313.454" y="195.588" style="fill:#FFFFFF;" width="5.104" height="5.104"/>
</g>
<g id="LWPOLYLINE_176_">
	<path style="fill:#FFFFFF;" d="M331.314,204.092h2.892v5.104h-2.892v12.416c0,1.598,1.297,2.892,2.892,2.892v5.1
		c-4.416,0-7.996-3.579-7.996-7.991v-12.416h-2.892v-5.104h2.892v-8.504h5.104V204.092z"/>
</g>
<g id="LWPOLYLINE_177_">
	<path style="fill:#FFFFFF;" d="M345.257,204.092h2.893v5.104h-2.893v12.416c0,1.598,1.298,2.892,2.893,2.892v5.1
		c-4.408,0-7.988-3.579-7.988-7.991v-12.416h-2.893v-5.104h2.893v-8.504h5.096V204.092z"/>
</g>
<g id="LWPOLYLINE_178_">
	<path style="fill:#FFFFFF;" d="M352.574,223.312v-19.22h5.104v18.032c0,1.876,1.524,3.399,3.4,3.399
		c1.884,0,3.399-1.523,3.399-3.399v-18.032h5.104v25.512h-5.104v-2.04c-1.75,1.095-3.728,1.79-5.775,2.04
		c-3.385,0-6.128-2.739-6.128-6.12V223.312z"/>
</g>
<g id="LWPOLYLINE_158_">
	<path style="fill:#005EB8;" d="M112.083,221.1c0,1.88,1.521,3.404,3.4,3.404c1.879,0,3.399-1.524,3.399-3.404v-8.504
		c0-1.876-1.521-3.399-3.399-3.399c-1.88,0-3.4,1.523-3.4,3.399V221.1z"/>
</g>
<g id="LWPOLYLINE_162_">
	<path style="fill:#005EB8;" d="M160.383,221.1c0,1.88,1.524,3.404,3.404,3.404c1.876,0,3.399-1.524,3.399-3.404v-8.504
		c0-1.876-1.523-3.399-3.399-3.399c-1.88,0-3.404,1.523-3.404,3.399V221.1z"/>
</g>
<g id="LWPOLYLINE_164_">
	<path style="fill:#005EB8;" d="M188.959,217.716c-1.704,0.41-3.283,1.219-4.611,2.36c-1.192,1.047-1.868,2.563-1.849,4.15
		c0.023,1.031,0.879,1.853,1.911,1.829c0.086-0.004,0.172-0.012,0.254-0.023c1.505-0.242,2.954-0.739,4.295-1.462V217.716z"/>
</g>
<g id="LWPOLYLINE_168_">
	<path style="fill:#005EB8;" d="M216.511,221.1c0,1.88,1.524,3.404,3.4,3.404c1.88,0,3.406-1.524,3.406-3.404v-8.504
		c0-1.876-1.526-3.399-3.406-3.399c-1.876,0-3.4,1.523-3.4,3.399V221.1z"/>
</g>
<g id="LWPOLYLINE_171_">
	<path style="fill:#005EB8;" d="M278.421,217.716c-1.704,0.41-3.282,1.219-4.611,2.36c-1.188,1.047-1.868,2.563-1.853,4.15
		c0.023,1.031,0.883,1.853,1.915,1.829c0.086-0.004,0.172-0.012,0.258-0.023c1.501-0.242,2.946-0.739,4.291-1.462V217.716z"/>
</g>
</svg>
