<?xml version="1.0" encoding="utf-8"?>
<!-- Generator: Adobe Illustrator 16.0.0, SVG Export Plug-In . SVG Version: 6.00 Build 0)  -->
<!DOCTYPE svg PUBLIC "-//W3C//DTD SVG 1.1//EN" "http://www.w3.org/Graphics/SVG/1.1/DTD/svg11.dtd">
<svg version="1.1" id="Layer_1" xmlns="http://www.w3.org/2000/svg" xmlns:xlink="http://www.w3.org/1999/xlink" x="0px" y="0px"
	 width="425.197px" height="425.196px" viewBox="0 0 425.197 425.196" enable-background="new 0 0 425.197 425.196"
	 xml:space="preserve">
<g id="LWPOLYLINE_69_">
	<path fill="#FFCD00" d="M198.425,46.751L16.368,362.085c-4.52,7.828-1.835,17.839,5.986,22.355
		c2.493,1.438,5.315,2.191,8.185,2.191h364.122c9.041,0,16.363-7.321,16.363-16.362c0-2.87-0.754-5.695-2.192-8.185L226.775,46.751
		c-4.521-7.829-14.528-10.51-22.357-5.993C201.932,42.196,199.863,44.262,198.425,46.751z"/>
</g>
<g id="LWPOLYLINE_70_">
	<path fill="#E4002B" d="M202.479,49.087L20.416,364.427c-3.226,5.59-1.315,12.74,4.281,15.966c1.774,1.027,3.788,1.568,5.842,1.568
		h364.122c6.459,0,11.691-5.232,11.691-11.691c0-2.052-0.541-4.068-1.568-5.843L222.727,49.087
		c-3.232-5.589-10.378-7.507-15.974-4.277C204.979,45.833,203.5,47.313,202.479,49.087z"/>
</g>
<g id="LWPOLYLINE_71_">
	<polygon fill="#101820" points="212.603,92.339 62.936,351.564 362.264,351.564 	"/>
</g>
<g id="LWPOLYLINE_72_">
	<path fill="#FFFFFF" d="M292.897,333.154c0,1.702,1.383,3.082,3.082,3.082h8.616c1.698,0,3.082-1.38,3.082-3.082V318.97h-14.78
		V333.154"/>
</g>
<g id="LWPOLYLINE_74_">
	<path fill="#FFFFFF" d="M262.007,256.861h30.561c2.459,0,4.685,1.466,5.657,3.723l8.637,20.089c0.254,0.593,0.541,1.164,0.87,1.716
		l4.719,8.03c0.829,1.418,1.268,3.034,1.268,4.678v17.586c0,1.171-0.672,2.239-1.727,2.746c-1.835,0.884-3.842,1.339-5.869,1.339
		h-44.115h-44.115c-2.036,0-4.043-0.455-5.872-1.339c-1.055-0.507-1.733-1.575-1.733-2.746v-17.586c0-1.644,0.438-3.26,1.274-4.678
		l4.719-8.03c0.322-0.552,0.609-1.123,0.863-1.716l8.645-20.089c0.973-2.257,3.192-3.723,5.658-3.723H262.007z"/>
</g>
<g id="LWPOLYLINE_76_">
	<path fill="#FFFFFF" d="M262.212,250.69h-0.205h-30.561c-4.932,0-9.384,2.932-11.329,7.455l-4.371,10.168H187.72
		c-1.582,0-3.144-0.356-4.568-1.041c-0.822-0.397-1.342-1.226-1.342-2.137v-13.678c0-1.281,0.342-2.534,0.986-3.637l3.671-6.247
		c0.253-0.432,0.479-0.876,0.678-1.335l6.719-15.623c0.753-1.761,2.486-2.897,4.397-2.897h23.768h23.773
		c1.911,0,3.644,1.137,4.396,2.897l6.72,15.623c0.198,0.459,0.425,0.903,0.678,1.335l3.671,6.247
		C261.781,248.697,262.103,249.677,262.212,250.69z"/>
</g>
<g id="LWPOLYLINE_77_">
	<path fill="#FFFFFF" d="M226.474,215.548v-3.523c0-1.097-0.295-2.175-0.85-3.12l-3.144-5.35c-0.22-0.369-0.411-0.753-0.582-1.146
		l-5.762-13.394c-0.645-1.507-2.131-2.479-3.768-2.479h-20.376h-20.369c-1.644,0-3.124,0.972-3.774,2.479l-5.76,13.394
		c-0.171,0.394-0.363,0.777-0.575,1.146l-3.151,5.35c-0.555,0.945-0.849,2.023-0.849,3.12v11.722
		c0.007,0.781,0.452,1.493,1.157,1.832c1.219,0.586,2.555,0.894,3.911,0.894h23.76l1.849-4.294c1.733-4.023,5.691-6.63,10.068-6.63
		h23.768H226.474z"/>
</g>
<g id="LWPOLYLINE_78_">
	<path fill="#FFFFFF" d="M198,281.06c0,1.322-1.069,2.394-2.391,2.394h-6.705c-1.322,0-2.397-1.071-2.397-2.394v-11.034H198V281.06"
		/>
</g>
<g id="LWPOLYLINE_80_">
	<path fill="#FFFFFF" d="M171.398,237.396c0,1.134-0.918,2.055-2.048,2.055h-5.747c-1.137,0-2.055-0.921-2.055-2.055v-9.459h9.849
		V237.396"/>
</g>
<g id="LWPOLYLINE_81_">
	<path fill="#FFFFFF" d="M231.111,333.154c0,1.702-1.377,3.082-3.075,3.082h-8.623c-1.699,0-3.077-1.38-3.077-3.082V318.97h14.775
		V333.154"/>
</g>
<g id="LWPOLYLINE_73_">
	<path fill="#101820" d="M262.007,263.02h28.533c1.226,0,2.343,0.732,2.829,1.859l8.314,19.342h-39.677h-39.684l8.321-19.342
		c0.486-1.127,1.596-1.859,2.829-1.859H262.007z"/>
</g>
<g id="LWPOLYLINE_75_">
	<path fill="#101820" d="M222.029,226.507h22.198c0.952,0,1.821,0.568,2.198,1.448l6.473,15.044h-30.869h-30.864l6.472-15.044
		c0.377-0.88,1.24-1.448,2.199-1.448H222.029z"/>
</g>
<g id="LWPOLYLINE_79_">
	<path fill="#101820" d="M191.994,190.638h19.027c0.815,0,1.562,0.486,1.883,1.24l5.55,12.897h-26.46h-26.451l5.548-12.897
		c0.322-0.753,1.062-1.24,1.883-1.24H191.994z"/>
</g>
</svg>
