<?xml version="1.0" encoding="iso-8859-1"?>
<!-- Generator: Adobe Illustrator 16.0.0, SVG Export Plug-In . SVG Version: 6.00 Build 0)  -->
<!DOCTYPE svg PUBLIC "-//W3C//DTD SVG 1.1//EN" "http://www.w3.org/Graphics/SVG/1.1/DTD/svg11.dtd">
<svg version="1.1" id="Layer_1" xmlns="http://www.w3.org/2000/svg" xmlns:xlink="http://www.w3.org/1999/xlink" x="0px" y="0px"
	 width="425.197px" height="425.196px" viewBox="0 0 425.197 425.196" style="enable-background:new 0 0 425.197 425.196;"
	 xml:space="preserve">
<g id="LWPOLYLINE_40_">
	
		<rect x="14.172" y="14.173" style="fill:#005EB8;stroke:#005EB8;stroke-width:0.5;stroke-miterlimit:10;" width="396.853" height="396.851"/>
</g>
<g id="LWPOLYLINE_43_">
	<path style="fill:#FFFFFF;" d="M40.63,411.023h343.941c14.608,0,26.453-11.846,26.453-26.458V40.631
		c0-14.612-11.845-26.458-26.453-26.458H40.63c-14.613,0-26.458,11.846-26.458,26.458v343.935
		C14.172,399.178,26.017,411.023,40.63,411.023z"/>
</g>
<g id="LWPOLYLINE_44_">
	<path style="fill:#005EB8;" d="M40.63,397.797h343.941c7.304,0,13.222-5.928,13.222-13.231V40.631
		c0-7.309-5.918-13.231-13.222-13.231H40.63c-7.304,0-13.227,5.923-13.227,13.231v343.935
		C27.404,391.869,33.327,397.797,40.63,397.797z"/>
</g>
<g id="LWPOLYLINE_41_">
	<polygon style="fill:#FFFFFF;" points="212.6,27.399 397.793,351.496 27.404,351.496 	"/>
</g>
<g id="LWPOLYLINE_68_">
	<path style="fill:#101820;" d="M175.24,221.831l-10.906,15.557c-21.273-12.575-48.73-5.526-61.306,15.757
		c-12.584,21.283-5.525,48.731,15.758,61.315c21.274,12.579,48.73,5.525,61.306-15.758c2.472-4.186,4.249-8.74,5.262-13.495H201
		c3.603,0,7.04-1.515,9.466-4.177l52.679-56.167l3,9.853c-22.76,9.647-33.384,35.923-23.735,58.684
		c9.656,22.761,35.928,33.389,58.688,23.736s33.384-35.923,23.736-58.684c-8.18-19.3-28.66-30.339-49.278-26.559l-12.784-41.942
		c-1.915-6.292-7.724-10.587-14.299-10.587H231.23v9.821h17.243c2.253,0,4.25,1.473,4.906,3.629l3.574,11.745l-72.959,12.62
		l-7.523-20.33l16.578-4.55c1.268-0.483,1.906-1.901,1.422-3.169c-0.383-0.994-1.367-1.633-2.435-1.573h-1.294h-35.838v9.688h11.244
		L175.24,221.831z"/>
</g>
<g id="LWPOLYLINE_65_">
	<path style="fill:#FFFFFF;" d="M259.835,214.029l-72.376,12.525l17.134,46.342C204.593,272.896,259.844,214.025,259.835,214.029z"
		/>
</g>
<g id="LWPOLYLINE_66_">
	<path style="fill:#FFFFFF;" d="M166.486,251.439c6.292,6.401,9.876,14.973,10.013,23.946h-26.791L166.486,251.439z"/>
</g>
<g id="LWPOLYLINE_67_">
	<path style="fill:#FFFFFF;" d="M186.32,275.386c-0.146-12.174-5.243-23.764-14.126-32.099l7.187-10.249l15.666,42.348h-8.791
		H186.32z"/>
</g>
<g id="LWPOLYLINE_69_">
	<path style="fill:#FFFFFF;" d="M137.899,275.13c-2.024,2.896-1.322,6.89,1.568,8.919c1.085,0.757,2.361,1.158,3.684,1.158h32.089
		c-0.747,2.735-1.833,5.366-3.219,7.837c-9.456,16.819-30.758,22.793-47.582,13.337c-16.824-9.457-22.797-30.758-13.341-47.578
		c9.456-16.819,30.758-22.792,47.582-13.336L137.899,275.13z"/>
</g>
<g id="LWPOLYLINE_70_">
	<path style="fill:#FFFFFF;" d="M269.027,244.177l9.83,32.226c0.557,2.667,3.164,4.372,5.836,3.816
		c2.663-0.557,4.368-3.174,3.812-5.836c-0.055-0.292-0.146-0.57-0.255-0.844l-9.803-32.171c15.374-2.303,30.43,5.831,36.922,19.966
		c8.062,17.535,0.374,38.28-17.152,46.342c-17.535,8.052-38.28,0.373-46.342-17.162C243.814,272.979,251.5,252.232,269.027,244.177z
		"/>
</g>
<g id="LWPOLYLINE_71_">
	<polygon style="fill:#101820;" points="130.129,338.926 163.122,338.926 165.41,327.025 134.096,327.025 	"/>
</g>
<g id="LWPOLYLINE_73_">
	<polygon style="fill:#101820;" points="328.135,338.926 361.008,338.926 354.169,327.025 322.819,327.025 	"/>
</g>
<g id="LWPOLYLINE_74_">
	<path style="fill:#101820;" d="M334.373,292.579h-5.663c-1.568,4.254-3.729,8.262-6.42,11.904h18.922L334.373,292.579z"/>
</g>
<g id="LWPOLYLINE_76_">
	<polygon style="fill:#101820;" points="262.407,338.926 295.271,338.926 291.468,327.025 260.127,327.025 	"/>
</g>
<g id="LWPOLYLINE_77_">
	<path style="fill:#101820;" d="M96.252,291.991h-5.079l-7.194,12.492h18.912C100.074,300.672,97.839,296.459,96.252,291.991z"/>
</g>
<g id="LWPOLYLINE_78_">
	<polygon style="fill:#101820;" points="64.155,338.926 97.147,338.926 102.645,327.025 71.002,327.025 	"/>
</g>
<g id="LWPOLYLINE_79_">
	<polygon style="fill:#101820;" points="227.282,304.483 198.812,304.483 199.569,292.579 226.515,292.579 	"/>
</g>
<g id="LWPOLYLINE_80_">
	<polygon style="fill:#101820;" points="228.722,327.025 197.39,327.025 196.633,338.926 229.479,338.926 	"/>
</g>
<g id="LWPOLYLINE_72_">
	<path style="fill:#101820;" d="M155.161,304.483c5.48-2.607,10.095-6.738,13.295-11.904h-22.906l-3.967,11.904H155.161z"/>
</g>
<g id="LWPOLYLINE_75_">
	<path style="fill:#101820;" d="M280.453,292.579h-23.727c3.2,5.166,7.814,9.297,13.295,11.904h14.234L280.453,292.579z"/>
</g>
</svg>
