<?xml version="1.0" encoding="utf-8"?>
<!-- Generator: Adobe Illustrator 27.0.1, SVG Export Plug-In . SVG Version: 6.00 Build 0)  -->
<svg version="1.1" id="Layer_1" xmlns="http://www.w3.org/2000/svg" xmlns:xlink="http://www.w3.org/1999/xlink" x="0px" y="0px"
	 viewBox="0 0 425.2 425.2" style="enable-background:new 0 0 425.2 425.2;" xml:space="preserve">
<style type="text/css">
	.st0{fill:#FFCD00;}
	.st1{fill:#E4002B;}
	.st2{fill:#101820;}
</style>
<g id="CIRCLE_3_">
	<path class="st0" d="M410.95,212.6c0-109.55-88.66-198.5-198.35-198.5S14.25,103.05,14.25,212.6c0,109.55,88.66,198.5,198.35,198.5
		S410.95,322.15,410.95,212.6L410.95,212.6z"/>
</g>
<g id="CIRCLE_4_">
	<path class="st1" d="M404.83,212.6c0-106.27-86.12-192.23-192.23-192.23S20.36,106.33,20.36,212.6
		c0,106.26,86.12,192.23,192.23,192.23S404.83,318.86,404.83,212.6L404.83,212.6z"/>
</g>
<g id="CIRCLE_5_">
	<path class="st0" d="M364.54,212.6c0-83.88-68.06-151.94-151.94-151.94S60.67,128.72,60.67,212.6
		c0,83.88,68.05,151.93,151.93,151.93S364.54,296.48,364.54,212.6L364.54,212.6z"/>
</g>
<g id="LWPOLYLINE_44_">
	<path class="st2" d="M71.71,164.69c-10.59,31.04-10.59,64.78,0,95.82l47.91-47.91L71.71,164.69z"/>
</g>
<g id="LWPOLYLINE_45_">
	<path class="st2" d="M353.49,164.69c10.59,31.04,10.59,64.78,0,95.82l-47.91-47.91L353.49,164.69z"/>
</g>
<g id="LWPOLYLINE_54_">
	<path class="st2" d="M232.45,297.97c0-2.84-2.39-5.07-5.38-5.07c-5.67,0-9.55,3.88-9.55,8.96v37.91h-11.2v-41.79
		c0-2.84-2.24-5.07-5.23-5.07c-5.67,0-9.55,3.88-9.55,8.96v37.91h-11.34v-55.82h11.34v4.48c3.59-2.39,7.62-3.88,11.95-4.48
		c0.45,0,0.89,0,1.49,0c4.18,0.3,8.05,2.39,10.3,5.97c4.18-3.13,9.1-5.07,14.18-5.97c0.59,0,1.05,0,1.49,0
		c7.16,0.45,12.54,6.27,12.54,13.43v42.39h-11.05V297.97z"/>
</g>
</svg>
