<?xml version="1.0" encoding="utf-8"?>
<!-- Generator: Adobe Illustrator 14.0.0, SVG Export Plug-In . SVG Version: 6.00 Build 43363)  -->
<!DOCTYPE svg PUBLIC "-//W3C//DTD SVG 1.1//EN" "http://www.w3.org/Graphics/SVG/1.1/DTD/svg11.dtd">
<svg version="1.1" id="Layer_1" xmlns="http://www.w3.org/2000/svg" xmlns:xlink="http://www.w3.org/1999/xlink" x="0px" y="0px"
	 width="595.276px" height="595.276px" viewBox="0 0 595.276 595.276" enable-background="new 0 0 595.276 595.276"
	 xml:space="preserve">
<g>
	<defs>
		<polyline id="SVGID_1_" points="4.067,595.276 591.208,595.276 591.208,-0.12 4.067,-0.12 4.067,595.276 		"/>
	</defs>
	<clipPath id="SVGID_2_">
		<use xlink:href="#SVGID_1_"  overflow="visible"/>
	</clipPath>
	
		<polyline clip-path="url(#SVGID_2_)" fill="none" stroke="#404040" stroke-width="0.12" stroke-linejoin="bevel" stroke-miterlimit="1.414" points="
		269.7,470.576 269.7,393.875 285,393.875 285,397.976 	"/>
	
		<path clip-path="url(#SVGID_2_)" fill="none" stroke="#404040" stroke-width="0.12" stroke-linejoin="bevel" stroke-miterlimit="1.414" d="
		M285,397.976c3.6-1.9,7.4-3.2,11.3-4"/>
	
		<path clip-path="url(#SVGID_2_)" fill="none" stroke="#404040" stroke-width="0.12" stroke-linejoin="bevel" stroke-miterlimit="1.414" d="
		M296.3,393.976c1.7-0.101,3.4-0.2,5.1-0.101"/>
	
		<path clip-path="url(#SVGID_2_)" fill="none" stroke="#404040" stroke-width="0.12" stroke-linejoin="bevel" stroke-miterlimit="1.414" d="
		M301.4,393.875c4.9,0,9.7,1.9,13.3,5.2"/>
	
		<path clip-path="url(#SVGID_2_)" fill="none" stroke="#404040" stroke-width="0.12" stroke-linejoin="bevel" stroke-miterlimit="1.414" d="
		M314.7,399.076c6.7-3.899,14.4-5.7,22.101-5.2"/>
	
		<path clip-path="url(#SVGID_2_)" fill="none" stroke="#404040" stroke-width="0.12" stroke-linejoin="bevel" stroke-miterlimit="1.414" d="
		M336.8,393.875c5.1-0.1,10,1.801,13.699,5.301c3.7,3.5,5.9,8.3,6.101,13.399"/>
	
		<polyline clip-path="url(#SVGID_2_)" fill="none" stroke="#404040" stroke-width="0.12" stroke-linejoin="bevel" stroke-miterlimit="1.414" points="
		356.6,412.576 356.6,470.576 341.3,470.576 341.3,416.375 	"/>
	
		<path clip-path="url(#SVGID_2_)" fill="none" stroke="#404040" stroke-width="0.12" stroke-linejoin="bevel" stroke-miterlimit="1.414" d="
		M341.3,416.375c0-2.699-1.101-5.3-3-7.199c-1.9-1.9-4.5-3-7.2-3c-2.8,0-5.4,1.1-7.3,3c-1.9,1.899-3,4.5-3,7.199"/>
	
		<polyline clip-path="url(#SVGID_2_)" fill="none" stroke="#404040" stroke-width="0.12" stroke-linejoin="bevel" stroke-miterlimit="1.414" points="
		320.8,416.375 320.8,470.576 305.5,470.576 305.5,416.375 	"/>
	
		<path clip-path="url(#SVGID_2_)" fill="none" stroke="#404040" stroke-width="0.12" stroke-linejoin="bevel" stroke-miterlimit="1.414" d="
		M305.5,416.375c0-2.699-1.1-5.3-3-7.199c-1.899-1.9-4.5-3-7.2-3c-2.7,0-5.3,1.1-7.3,3c-1.9,1.899-3,4.5-3,7.199"/>
	
		<polyline clip-path="url(#SVGID_2_)" fill="none" stroke="#404040" stroke-width="0.12" stroke-linejoin="bevel" stroke-miterlimit="1.414" points="
		285,416.375 285,470.576 269.7,470.576 	"/>
	
		<path clip-path="url(#SVGID_2_)" fill="none" stroke="#FFFF00" stroke-width="0.12" stroke-linejoin="bevel" stroke-miterlimit="1.414" d="
		M586.8,295.876c0-35.8-7-71.3-20.801-104.4c-13.699-33.1-33.699-63.1-59.1-88.4c-25.3-25.4-55.4-45.5-88.5-59.2
		c-33-13.7-68.5-20.7-104.3-20.7c-35.8,0-71.3,7-104.4,20.7c-33.1,13.7-63.1,33.8-88.5,59.2c-25.3,25.3-45.4,55.3-59.1,88.4
		c-13.7,33.1-20.8,68.6-20.8,104.4s7.1,71.3,20.8,104.4c13.7,33.1,33.8,63.1,59.1,88.5c25.4,25.3,55.4,45.4,88.5,59.1
		c33.1,13.7,68.6,20.7,104.4,20.7c35.8,0,71.3-7,104.3-20.7c33.1-13.699,63.2-33.8,88.5-59.1c25.4-25.4,45.4-55.4,59.1-88.5
		C579.8,367.176,586.8,331.676,586.8,295.876"/>
	
		<path clip-path="url(#SVGID_2_)" fill="none" stroke="#FF0000" stroke-width="0.12" stroke-linejoin="bevel" stroke-miterlimit="1.414" d="
		M578.3,295.876c0-34.7-6.801-69-20.101-101.1s-32.8-61.2-57.3-85.7c-24.5-24.6-53.7-44-85.7-57.3
		c-32.1-13.3-66.399-20.1-101.1-20.1s-69.1,6.8-101.1,20.1c-32.1,13.3-61.2,32.7-85.7,57.3c-24.6,24.5-44,53.6-57.3,85.7
		s-20.1,66.4-20.1,101.1c0,34.7,6.8,69.1,20.1,101.1c13.3,32.1,32.7,61.2,57.3,85.7c24.5,24.6,53.6,44,85.7,57.3
		c32,13.3,66.4,20.1,101.1,20.1s69-6.8,101.1-20.1c32-13.3,61.2-32.7,85.7-57.3c24.5-24.5,44-53.601,57.3-85.7
		C571.5,364.976,578.3,330.576,578.3,295.876"/>
	
		<path clip-path="url(#SVGID_2_)" fill="none" stroke="#FFFF00" stroke-width="0.12" stroke-linejoin="bevel" stroke-miterlimit="1.414" d="
		M522.9,295.876c0-27.4-5.4-54.6-15.9-79.9c-10.5-25.3-25.899-48.3-45.3-67.7c-19.399-19.4-42.399-34.8-67.699-45.3
		c-25.4-10.5-52.5-15.9-79.9-15.9c-27.4,0-54.6,5.4-79.9,15.9c-25.4,10.5-48.4,25.9-67.8,45.3s-34.7,42.4-45.2,67.7
		c-10.5,25.3-15.9,52.5-15.9,79.9s5.4,54.6,15.9,79.9s25.8,48.4,45.2,67.7c19.4,19.399,42.4,34.8,67.8,45.3
		c25.3,10.5,52.5,15.9,79.9,15.9c27.4,0,54.5-5.4,79.9-15.9c25.3-10.5,48.3-25.9,67.699-45.3c19.4-19.3,34.8-42.4,45.3-67.7
		S522.9,323.276,522.9,295.876"/>
	
		<path clip-path="url(#SVGID_2_)" fill="none" stroke="#404040" stroke-width="0.12" stroke-linejoin="bevel" stroke-miterlimit="1.414" d="
		M120.4,230.076c-7.2,21.2-10.9,43.4-10.9,65.8s3.7,44.6,10.9,65.8"/>
	
		<polyline clip-path="url(#SVGID_2_)" fill="none" stroke="#404040" stroke-width="0.12" stroke-linejoin="bevel" stroke-miterlimit="1.414" points="
		120.4,361.676 186.2,295.876 120.4,230.076 	"/>
	
		<path clip-path="url(#SVGID_2_)" fill="none" stroke="#404040" stroke-width="0.12" stroke-linejoin="bevel" stroke-miterlimit="1.414" d="
		M507.7,230.076c7.2,21.2,10.9,43.4,10.9,65.8s-3.7,44.6-10.9,65.8"/>
	
		<polyline clip-path="url(#SVGID_2_)" fill="none" stroke="#404040" stroke-width="0.12" stroke-linejoin="bevel" stroke-miterlimit="1.414" points="
		507.7,361.676 441.9,295.876 507.7,230.076 	"/>
	<path clip-path="url(#SVGID_2_)" fill-rule="evenodd" clip-rule="evenodd" fill="#FFFF00" d="M49.9,295.876c0-7.8,0.3-15.7,1-23.7
		c0.8-8.1,1.9-16.2,3.4-24.4s3.4-16.4,5.8-24.6c2.3-8.2,5.1-16.4,8.3-24.5c3.2-8.2,6.9-16.2,11-24.1c4.1-8,8.6-15.7,13.5-23.3
		c9.9-15.1,21.4-29.3,34.4-42.2c12.9-12.9,27.1-24.4,42.2-34.3c7.6-5,15.3-9.5,23.2-13.6c7.9-4.1,16-7.7,24.1-11
		c8.2-3.2,16.4-5.9,24.6-8.3c8.2-2.4,16.4-4.3,24.6-5.8s16.3-2.6,24.3-3.3c8.1-0.8,16-1.1,23.8-1.1s15.7,0.3,23.7,1.1
		c8,0.7,16.199,1.8,24.399,3.3c8.101,1.5,16.4,3.4,24.601,5.8c8.199,2.4,16.399,5.1,24.5,8.3c8.199,3.3,16.199,6.9,24.1,11
		s15.7,8.6,23.3,13.6c15.101,9.9,29.3,21.4,42.2,34.3c12.9,12.9,24.4,27.1,34.3,42.2c5,7.6,9.5,15.3,13.601,23.3
		c4.1,7.9,7.699,15.9,10.899,24.1c3.3,8.1,6,16.3,8.4,24.5c2.3,8.2,4.3,16.4,5.8,24.6s2.6,16.3,3.3,24.4
		c0.7,8,1.101,15.9,1.101,23.7s-0.4,15.7-1.101,23.7c-0.7,8.101-1.8,16.2-3.3,24.4s-3.5,16.399-5.8,24.6
		c-2.4,8.2-5.101,16.4-8.4,24.601c-3.2,8.1-6.8,16.1-10.899,24.1c-4.101,7.9-8.601,15.6-13.601,23.2
		c-9.899,15.1-21.399,29.3-34.3,42.2c-12.9,13-27.1,24.399-42.2,34.3c-7.6,5-15.399,9.5-23.3,13.6c-7.9,4.101-15.9,7.7-24.1,11
		c-8.101,3.2-16.301,6-24.5,8.3c-8.2,2.4-16.5,4.301-24.601,5.801c-8.2,1.5-16.399,2.6-24.399,3.3c-8,0.8-15.9,1.1-23.7,1.1
		s-15.7-0.3-23.8-1.1c-8-0.7-16.1-1.8-24.3-3.3s-16.4-3.4-24.6-5.801c-8.2-2.3-16.4-5.1-24.6-8.3c-8.1-3.3-16.2-6.899-24.1-11
		c-7.9-4.1-15.6-8.6-23.2-13.6c-15.1-9.9-29.3-21.3-42.2-34.3c-13-12.9-24.5-27.101-34.4-42.2c-4.9-7.601-9.4-15.3-13.5-23.2
		c-4.1-8-7.8-16-11-24.1c-3.2-8.2-6-16.4-8.3-24.601c-2.4-8.2-4.3-16.399-5.8-24.6s-2.6-16.3-3.4-24.4
		C50.2,311.576,49.9,303.676,49.9,295.876 M586.8,295.876c0-8-0.301-16.2-1.101-24.5c-0.7-8.3-1.899-16.7-3.399-25.1
		c-1.601-8.5-3.601-17-6-25.4c-2.5-8.5-5.301-17-8.601-25.4c-3.399-8.4-7.1-16.7-11.399-24.9c-4.2-8.1-8.9-16.1-13.9-23.9
		c-10.3-15.7-22.1-30.3-35.5-43.6c-13.3-13.4-28-25.2-43.6-35.5c-7.801-5.1-15.801-9.7-24-14c-8.101-4.2-16.4-8-24.801-11.3
		c-8.399-3.3-16.899-6.2-25.399-8.6s-17-4.4-25.4-6c-8.399-1.5-16.8-2.7-25.1-3.4c-8.3-0.8-16.5-1.1-24.5-1.1
		c-8.101,0-16.2,0.3-24.5,1.1c-8.3,0.7-16.7,1.9-25.2,3.4c-8.4,1.6-16.9,3.6-25.4,6s-16.9,5.3-25.3,8.6c-8.4,3.3-16.7,7.1-24.9,11.3
		c-8.2,4.3-16.2,8.9-24,14c-15.6,10.3-30.2,22.1-43.6,35.5c-13.3,13.3-25.2,27.9-35.4,43.6c-5.1,7.8-9.8,15.8-14,23.9
		c-4.2,8.2-8,16.5-11.3,24.9c-3.3,8.4-6.2,16.9-8.6,25.4c-2.5,8.4-4.4,16.9-6,25.4c-1.6,8.4-2.7,16.8-3.5,25.1
		c-0.7,8.3-1.1,16.5-1.1,24.5c0,8,0.4,16.2,1.1,24.5c0.8,8.301,1.9,16.7,3.5,25.101c1.6,8.5,3.5,17,6,25.5
		c2.4,8.399,5.3,16.899,8.6,25.3s7.1,16.7,11.3,24.9c4.2,8.1,8.9,16.1,14,23.899c10.2,15.7,22.1,30.3,35.4,43.7
		c13.4,13.3,28,25.2,43.6,35.4c7.8,5.1,15.8,9.699,24,14c8.2,4.199,16.5,8,24.9,11.3c8.4,3.3,16.8,6.2,25.3,8.6
		c8.5,2.4,17,4.4,25.4,6c8.5,1.5,16.9,2.7,25.2,3.4c8.3,0.8,16.399,1.1,24.5,1.1c8,0,16.2-0.3,24.5-1.1c8.3-0.7,16.7-1.9,25.1-3.4
		c8.4-1.6,16.9-3.6,25.4-6c8.5-2.399,17-5.3,25.399-8.6c8.4-3.3,16.7-7.101,24.801-11.3c8.199-4.301,16.199-8.9,24-14
		c15.6-10.2,30.3-22.101,43.6-35.4c13.4-13.4,25.2-28,35.5-43.7c5.1-7.8,9.7-15.8,13.9-23.899c4.3-8.2,8-16.5,11.399-24.9
		c3.3-8.4,6.2-16.9,8.601-25.3c2.399-8.5,4.399-17,6-25.5c1.5-8.4,2.699-16.8,3.399-25.101
		C586.5,312.076,586.8,303.875,586.8,295.876"/>
	
		<path clip-path="url(#SVGID_2_)" fill="none" stroke="#FFFF00" stroke-width="0.12" stroke-linejoin="bevel" stroke-miterlimit="1.414" d="
		M522.9,295.876c0-27.4-5.4-54.6-15.9-79.9c-10.5-25.3-25.899-48.3-45.3-67.7c-19.399-19.4-42.399-34.8-67.699-45.3
		c-25.4-10.5-52.5-15.9-79.9-15.9c-27.4,0-54.6,5.4-79.9,15.9c-25.4,10.5-48.4,25.9-67.8,45.3s-34.7,42.4-45.2,67.7
		c-10.5,25.3-15.9,52.5-15.9,79.9s5.4,54.6,15.9,79.9s25.8,48.4,45.2,67.7c19.4,19.399,42.4,34.8,67.8,45.3
		c25.3,10.5,52.5,15.9,79.9,15.9c27.4,0,54.5-5.4,79.9-15.9c25.3-10.5,48.3-25.9,67.699-45.3c19.4-19.3,34.8-42.4,45.3-67.7
		S522.9,323.276,522.9,295.876"/>
	
		<path clip-path="url(#SVGID_2_)" fill="none" stroke="#FFFF00" stroke-width="0.12" stroke-linejoin="bevel" stroke-miterlimit="1.414" d="
		M120.4,361.676c-7.2-21.2-10.9-43.4-10.9-65.8s3.7-44.6,10.9-65.8"/>
	
		<polyline clip-path="url(#SVGID_2_)" fill="none" stroke="#FFFF00" stroke-width="0.12" stroke-linejoin="bevel" stroke-miterlimit="1.414" points="
		120.4,230.076 186.2,295.876 120.4,361.676 	"/>
	
		<path clip-path="url(#SVGID_2_)" fill="none" stroke="#FFFF00" stroke-width="0.12" stroke-linejoin="bevel" stroke-miterlimit="1.414" d="
		M507.7,230.076c7.2,21.2,10.9,43.4,10.9,65.8s-3.7,44.6-10.9,65.8"/>
	
		<polyline clip-path="url(#SVGID_2_)" fill="none" stroke="#FFFF00" stroke-width="0.12" stroke-linejoin="bevel" stroke-miterlimit="1.414" points="
		507.7,361.676 441.9,295.876 507.7,230.076 	"/>
	<path clip-path="url(#SVGID_2_)" fill-rule="evenodd" clip-rule="evenodd" fill="#FF0000" d="M105.3,295.876
		c0-6.1,0.3-12.4,0.8-18.8c0.6-6.3,1.5-12.7,2.7-19.2c1.2-6.5,2.7-12.9,4.5-19.4c1.9-6.5,4.1-13,6.6-19.4c2.6-6.5,5.5-12.8,8.7-19.1
		c3.2-6.2,6.8-12.4,10.7-18.3c7.8-12,16.9-23.2,27.1-33.4c10.3-10.3,21.5-19.3,33.4-27.2c6-3.9,12.1-7.4,18.4-10.7
		c6.2-3.2,12.6-6.1,19-8.6c6.4-2.6,12.9-4.8,19.4-6.6c6.5-1.9,13-3.4,19.5-4.6c6.4-1.2,12.9-2.1,19.2-2.6c6.4-0.6,12.6-0.9,18.8-0.9
		c6.1,0,12.399,0.3,18.7,0.9c6.399,0.5,12.8,1.4,19.3,2.6c6.399,1.2,12.899,2.7,19.399,4.6c6.5,1.8,13,4,19.4,6.6
		c6.5,2.5,12.8,5.4,19.1,8.6c6.2,3.3,12.4,6.8,18.301,10.7c12,7.9,23.199,16.9,33.399,27.2c10.2,10.2,19.3,21.4,27.101,33.4
		c3.899,5.9,7.5,12.1,10.699,18.3c3.301,6.3,6.2,12.6,8.7,19.1c2.601,6.4,4.8,12.9,6.601,19.4c1.899,6.5,3.399,12.9,4.6,19.4
		s2.1,12.9,2.6,19.2c0.601,6.4,0.9,12.7,0.9,18.8c0,6.2-0.3,12.4-0.9,18.8c-0.5,6.3-1.399,12.699-2.6,19.199s-2.7,13-4.6,19.5
		c-1.801,6.5-4,12.9-6.601,19.4c-2.5,6.4-5.399,12.8-8.7,19c-3.199,6.3-6.8,12.4-10.699,18.4c-7.801,11.899-16.9,23.1-27.101,33.3
		c-10.2,10.3-21.399,19.3-33.399,27.2c-5.9,3.899-12.101,7.399-18.301,10.699c-6.3,3.2-12.6,6.101-19.1,8.601
		c-6.4,2.6-12.9,4.8-19.4,6.6c-6.5,1.9-13,3.4-19.399,4.601c-6.5,1.199-12.9,2.1-19.3,2.699c-6.301,0.5-12.601,0.801-18.7,0.801
		c-6.2,0-12.4-0.301-18.8-0.801c-6.3-0.6-12.8-1.5-19.2-2.699c-6.5-1.2-13-2.7-19.5-4.601c-6.5-1.8-13-4-19.4-6.6
		c-6.4-2.5-12.8-5.4-19-8.601c-6.3-3.3-12.4-6.8-18.4-10.699c-11.9-7.9-23.1-16.9-33.4-27.2c-10.2-10.2-19.3-21.4-27.1-33.3
		c-3.9-6-7.5-12.101-10.7-18.4c-3.2-6.2-6.1-12.6-8.7-19c-2.5-6.5-4.7-12.9-6.6-19.4c-1.8-6.5-3.3-13-4.5-19.5
		c-1.2-6.5-2.1-12.899-2.7-19.199C105.6,308.276,105.3,302.076,105.3,295.876 M578.3,295.876c0-7.8-0.4-15.7-1.101-23.7
		c-0.7-8.1-1.8-16.2-3.3-24.4s-3.5-16.4-5.8-24.6c-2.4-8.2-5.101-16.4-8.4-24.5c-3.2-8.2-6.8-16.2-10.899-24.1
		c-4.101-8-8.601-15.7-13.601-23.3c-9.899-15.1-21.399-29.3-34.3-42.2c-12.9-12.9-27.1-24.4-42.2-34.3c-7.6-5-15.399-9.5-23.3-13.6
		s-15.9-7.7-24.1-11c-8.101-3.2-16.301-5.9-24.5-8.3c-8.2-2.4-16.5-4.3-24.601-5.8c-8.2-1.5-16.399-2.6-24.399-3.3
		c-8-0.8-15.9-1.1-23.7-1.1s-15.7,0.3-23.8,1.1c-8,0.7-16.1,1.8-24.3,3.3s-16.4,3.4-24.6,5.8c-8.2,2.4-16.4,5.1-24.6,8.3
		c-8.1,3.3-16.2,6.9-24.1,11c-7.9,4.1-15.6,8.6-23.2,13.6c-15.1,9.9-29.3,21.4-42.2,34.3c-13,12.9-24.5,27.1-34.4,42.2
		c-4.9,7.6-9.4,15.3-13.5,23.3c-4.1,7.9-7.8,15.9-11,24.1c-3.2,8.1-6,16.3-8.3,24.5c-2.4,8.2-4.3,16.4-5.8,24.6s-2.6,16.3-3.4,24.4
		c-0.7,8-1,15.9-1,23.7s0.3,15.7,1,23.7c0.8,8.101,1.9,16.2,3.4,24.4s3.4,16.399,5.8,24.6c2.3,8.2,5.1,16.4,8.3,24.601
		c3.2,8.1,6.9,16.1,11,24.1c4.1,7.9,8.6,15.6,13.5,23.2c9.9,15.1,21.4,29.3,34.4,42.2c12.9,13,27.1,24.399,42.2,34.3
		c7.6,5,15.3,9.5,23.2,13.6c7.9,4.101,16,7.7,24.1,11c8.2,3.2,16.4,6,24.6,8.3c8.2,2.4,16.4,4.301,24.6,5.801s16.3,2.6,24.3,3.3
		c8.1,0.8,16,1.1,23.8,1.1s15.7-0.3,23.7-1.1c8-0.7,16.199-1.8,24.399-3.3c8.101-1.5,16.4-3.4,24.601-5.801
		c8.199-2.3,16.399-5.1,24.5-8.3c8.199-3.3,16.199-6.899,24.1-11c7.9-4.1,15.7-8.6,23.3-13.6c15.101-9.9,29.3-21.3,42.2-34.3
		c12.9-12.9,24.4-27.101,34.3-42.2c5-7.601,9.5-15.3,13.601-23.2c4.1-8,7.699-16,10.899-24.1c3.3-8.2,6-16.4,8.4-24.601
		c2.3-8.2,4.3-16.399,5.8-24.6s2.6-16.3,3.3-24.4C577.9,311.576,578.3,303.676,578.3,295.876"/>
	<path clip-path="url(#SVGID_2_)" fill-rule="evenodd" clip-rule="evenodd" fill="#404040" d="M120.4,230.076
		c-3.5,10.4-6.2,21.2-8.1,32.2c-1.8,11.1-2.8,22.3-2.8,33.6s1,22.5,2.8,33.6c1.9,11,4.6,21.8,8.1,32.2l65.8-65.8L120.4,230.076"/>
	<path clip-path="url(#SVGID_2_)" fill-rule="evenodd" clip-rule="evenodd" fill="#404040" d="M507.7,361.676
		c3.601-10.4,6.3-21.2,8.101-32.2c1.899-11.101,2.8-22.3,2.8-33.6s-0.9-22.5-2.8-33.6c-1.801-11-4.5-21.8-8.101-32.2l-65.8,65.8
		L507.7,361.676"/>
	<path clip-path="url(#SVGID_2_)" fill-rule="evenodd" clip-rule="evenodd" fill="#404040" d="M285,416.375c0-2.699,1.1-5.3,3-7.199
		c2-1.9,4.6-3,7.3-3c2.7,0,5.3,1.1,7.2,3c1.9,1.899,3,4.5,3,7.199v54.2H320.8v-54.2c0-1.199,0.3-2.5,0.8-3.8
		c0.5-1.2,1.2-2.399,2.2-3.399s2.199-1.801,3.5-2.301c1.3-0.5,2.6-0.699,3.8-0.699c2.7,0,5.3,1.1,7.2,3c1.899,1.899,3,4.5,3,7.199
		v54.2h15.3v-58c-0.2-5.1-2.4-9.899-6.101-13.399c-3.699-3.5-8.6-5.4-13.699-5.301c-7.7-0.5-15.4,1.301-22.101,5.2
		c-3.6-3.3-8.399-5.2-13.3-5.2c-1.7-0.1-3.4,0-5.1,0.101c-3.9,0.8-7.7,2.1-11.3,4v-4.101h-15.3v76.7H285V416.375"/>
	<path clip-path="url(#SVGID_2_)" fill-rule="evenodd" clip-rule="evenodd" fill="#FFFF00" d="M507.7,230.076
		c3.601,10.4,6.3,21.2,8.101,32.2c1.899,11.1,2.8,22.3,2.8,33.6s-0.9,22.5-2.8,33.6c-1.801,11-4.5,21.8-8.101,32.2l-65.8-65.8
		L507.7,230.076 M120.4,361.676c-3.5-10.4-6.2-21.2-8.1-32.2c-1.8-11.101-2.8-22.3-2.8-33.6s1-22.5,2.8-33.6
		c0.9-5.5,2.1-11,3.4-16.3c0.7-2.7,1.4-5.4,2.2-8c0.8-2.7,1.6-5.3,2.5-7.9l65.8,65.8L120.4,361.676 M285,397.976
		c3.6-1.9,7.4-3.2,11.3-4c1.7-0.101,3.4-0.2,5.1-0.101c4.9,0,9.7,1.9,13.3,5.2c6.7-3.899,14.4-5.7,22.101-5.2
		c5.1-0.1,10,1.801,13.7,5.301c3.699,3.5,5.899,8.3,6.1,13.399v58h-15.3v-54.2c0-2.699-1.101-5.3-3-7.199c-1.9-1.9-4.5-3-7.2-3
		c-2.8,0-5.4,1.1-7.3,3c-1.9,1.899-3,4.5-3,7.199v54.2h-15.3v-54.2c0-2.699-1.101-5.3-3-7.199c-1.9-1.9-4.5-3-7.201-3
		c-1.2,0-2.5,0.199-3.8,0.699s-2.5,1.301-3.5,2.301s-1.7,2.199-2.2,3.399c-0.3,0.7-0.5,1.3-0.6,1.9c-0.1,0.7-0.2,1.3-0.2,1.899v54.2
		h-15.3v-76.7H285V397.976 M522.9,295.876c0-6.1-0.3-12.4-0.9-18.8c-0.5-6.3-1.399-12.7-2.6-19.2s-2.7-12.9-4.6-19.4
		c-1.801-6.5-4-13-6.601-19.4c-2.5-6.5-5.399-12.8-8.7-19.1c-3.199-6.2-6.8-12.4-10.699-18.3c-7.801-12-16.9-23.2-27.101-33.4
		c-10.2-10.3-21.399-19.3-33.399-27.2c-5.9-3.9-12.101-7.4-18.301-10.7c-6.3-3.2-12.6-6.1-19.1-8.6
		c-6.399-2.6-12.899-4.8-19.399-6.6c-6.5-1.9-13-3.4-19.4-4.6c-6.5-1.2-12.9-2.1-19.3-2.6c-6.3-0.6-12.601-0.9-18.7-0.9
		c-6.2,0-12.4,0.3-18.8,0.9c-6.3,0.5-12.8,1.4-19.2,2.6c-6.5,1.2-13,2.7-19.5,4.6c-6.5,1.8-13,4-19.4,6.6c-6.4,2.5-12.8,5.4-19,8.6
		c-6.3,3.3-12.4,6.8-18.4,10.7c-11.9,7.9-23.1,16.9-33.4,27.2c-10.2,10.2-19.3,21.4-27.1,33.4c-3.9,5.9-7.5,12.1-10.7,18.3
		c-3.2,6.3-6.1,12.6-8.7,19.1c-2.5,6.4-4.7,12.9-6.6,19.4c-1.8,6.5-3.3,12.9-4.5,19.4c-1.2,6.5-2.1,12.9-2.7,19.2
		c-0.5,6.4-0.8,12.7-0.8,18.8c0,6.2,0.3,12.4,0.8,18.8c0.6,6.3,1.5,12.699,2.7,19.199c1.2,6.5,2.7,13,4.5,19.5
		c1.9,6.5,4.1,12.9,6.6,19.4c2.6,6.4,5.5,12.8,8.7,19c3.2,6.3,6.8,12.4,10.7,18.4c7.8,11.899,16.9,23.1,27.1,33.3
		c10.3,10.3,21.5,19.3,33.4,27.2c6,3.899,12.1,7.399,18.4,10.699c6.2,3.2,12.6,6.101,19,8.601c6.4,2.6,12.9,4.8,19.4,6.6
		c6.5,1.9,13,3.4,19.5,4.601c6.4,1.199,12.9,2.1,19.2,2.699c6.4,0.5,12.6,0.801,18.8,0.801c6.1,0,12.4-0.301,18.7-0.801
		c6.399-0.6,12.8-1.5,19.3-2.699c6.4-1.2,12.9-2.7,19.4-4.601c6.5-1.8,13-4,19.399-6.6c6.5-2.5,12.8-5.4,19.1-8.601
		c6.2-3.3,12.4-6.8,18.301-10.699c12-7.9,23.199-16.9,33.399-27.2c10.2-10.2,19.3-21.4,27.101-33.3c3.899-6,7.5-12.101,10.699-18.4
		c3.301-6.2,6.2-12.6,8.7-19c2.601-6.5,4.8-12.9,6.601-19.4c1.899-6.5,3.399-13,4.6-19.5s2.1-12.899,2.6-19.199
		C522.6,308.276,522.9,302.076,522.9,295.876"/>
</g>
</svg>
