<?xml version="1.0" encoding="utf-8"?>
<!-- Generator: Adobe Illustrator 27.0.1, SVG Export Plug-In . SVG Version: 6.00 Build 0)  -->
<svg version="1.1" id="Layer_1" xmlns="http://www.w3.org/2000/svg" xmlns:xlink="http://www.w3.org/1999/xlink" x="0px" y="0px"
	 viewBox="0 0 425.2 425.2" style="enable-background:new 0 0 425.2 425.2;" xml:space="preserve">
<style type="text/css">
	.st0{fill:#FFCD00;}
	.st1{fill:#E4002B;}
	.st2{fill:#101820;}
</style>
<g id="CIRCLE_3_">
	<path class="st0" d="M411.02,212.6c0-109.59-88.85-198.43-198.43-198.43c-109.59,0-198.43,88.83-198.43,198.43
		c0,109.58,88.83,198.42,198.43,198.42C322.18,411.02,411.02,322.18,411.02,212.6L411.02,212.6z"/>
</g>
<g id="CIRCLE_4_">
	<path class="st1" d="M404.82,212.6c0-106.16-86.06-192.23-192.22-192.23S20.37,106.44,20.37,212.6s86.06,192.22,192.22,192.22
		S404.82,318.76,404.82,212.6L404.82,212.6z"/>
</g>
<g id="CIRCLE_5_">
	<path class="st0" d="M364.48,212.6c0-83.89-68-151.89-151.88-151.89s-151.89,68-151.89,151.89c0,83.88,68,151.88,151.89,151.88
		S364.48,296.48,364.48,212.6L364.48,212.6z"/>
</g>
<g id="LWPOLYLINE_44_">
	<path class="st2" d="M164.72,353.47c31.05,10.56,64.71,10.56,95.75,0L212.6,305.6L164.72,353.47z"/>
</g>
<g id="LWPOLYLINE_45_">
	<path class="st2" d="M164.72,71.72c31.05-10.55,64.71-10.55,95.75,0L212.6,119.6L164.72,71.72z"/>
</g>
<g id="LWPOLYLINE_54_">
	<path class="st2" d="M323.12,227.38c0-2.88-2.33-5.21-5.21-5.21h-0.74c-4.93,0-8.93,4-8.93,8.93v37.95h-11.16v-41.67
		c0-2.88-2.33-5.21-5.21-5.21h-0.74c-4.93,0-8.93,4-8.93,8.93v37.95h-11.16v-55.81h11.16v4.47c3.65-2.26,7.73-3.75,11.98-4.38
		c0.52-0.08,1.04-0.09,1.57-0.06c4.16,0.28,7.96,2.48,10.27,5.96c4.17-3.12,9.05-5.15,14.21-5.9c0.52-0.08,1.04-0.09,1.57-0.06
		c7.03,0.47,12.5,6.31,12.5,13.36v42.41h-11.16V227.38z"/>
</g>
</svg>
