<?xml version="1.0" encoding="UTF-8"?>
<svg id="Layer_1" data-name="Layer 1" xmlns="http://www.w3.org/2000/svg" version="1.1" viewBox="0 0 425.2 425.2">
  <defs>
    <style>
      .cls-1 {
        fill: #ffcd00;
      }

      .cls-1, .cls-2, .cls-3 {
        stroke-width: 0px;
      }

      .cls-2 {
        fill: #e4002b;
      }

      .cls-3 {
        fill: #101820;
      }
    </style>
  </defs>
  <g id="CIRCLE">
    <path class="cls-1" d="M411,212.6c0-109.6-88.9-198.4-198.4-198.4S14.2,103,14.2,212.6s88.8,198.4,198.4,198.4c109.6,0,198.4-88.8,198.4-198.4h0Z"/>
  </g>
  <g id="CIRCLE-2" data-name="CIRCLE">
    <path class="cls-2" d="M404.8,212.6c0-106.2-86.1-192.2-192.2-192.2S20.4,106.4,20.4,212.6s86.1,192.2,192.2,192.2,192.2-86.1,192.2-192.2h0Z"/>
  </g>
  <g id="CIRCLE-3" data-name="CIRCLE">
    <path class="cls-1" d="M364.5,212.6c0-83.9-68-151.9-151.9-151.9S60.7,128.7,60.7,212.6s68,151.9,151.9,151.9,151.9-68,151.9-151.9h0Z"/>
  </g>
  <g id="LWPOLYLINE">
    <path class="cls-3" d="M164.7,353.5c31.1,10.6,64.7,10.6,95.8,0l-47.9-47.9-47.9,47.9Z"/>
  </g>
  <g id="LWPOLYLINE-2" data-name="LWPOLYLINE">
    <path class="cls-3" d="M164.7,71.7c31.1-10.5,64.7-10.5,95.8,0l-47.9,47.9-47.9-47.9Z"/>
  </g>
  <g id="LWPOLYLINE-3" data-name="LWPOLYLINE">
    <path class="cls-3" d="M323.1,227.4c0-2.9-2.3-5.2-5.2-5.2h-.7c-4.9,0-8.9,4-8.9,8.9v38h-11.2v-41.7c0-2.9-2.3-5.2-5.2-5.2h-.7c-4.9,0-8.9,4-8.9,8.9v38h-11.2v-55.8h11.2v4.5c3.6-2.3,7.7-3.8,12-4.4.5,0,1,0,1.6,0,4.2.3,8,2.5,10.3,6,4.2-3.1,9-5.1,14.2-5.9.5,0,1,0,1.6,0,7,.5,12.5,6.3,12.5,13.4v42.4h-11.2v-41.7h0Z"/>
  </g>
  <g id="LWPOLYLINE-4" data-name="LWPOLYLINE">
    <path id="path844" class="cls-3" d="M203.4,245.8c0,14.1,11.5,25.6,25.6,25.6s25.6-11.4,25.6-25.6v-10.2c0-14.1-11.4-25.6-25.6-25.6s-7.1.7-10.4,2.2l2-19.9h25.6l-.9-13.9h-37.2l-4.6,46.5,16.3,3.7c2.2-2.9,5.6-4.6,9.3-4.6,6.4,0,11.6,5.2,11.6,11.6v10.2c0,6.4-5.2,11.6-11.6,11.6s-11.6-5.2-11.6-11.6h-13.9,0Z"/>
  </g>
  <g id="LWPOLYLINE-5" data-name="LWPOLYLINE">
    <path id="path847" class="cls-3" d="M170.7,286.9l15-17.5c4.1-3.1,4.8-9,1.7-13-3.1-4.1-9-4.8-13-1.7-2.3,1.8-3.6,4.5-3.6,7.4v24.8Z"/>
  </g>
  <g id="LWPOLYLINE-6" data-name="LWPOLYLINE">
    <path id="path983" class="cls-3" d="M96.5,241.1c0,18.8,15.3,34.1,34.1,34.1s34.1-15.3,34.1-34.1v-7.4c0-10.1-4.4-19.6-12.1-26.1,5.8-6.2,9.1-14.4,9.1-22.9v-2.5c0-17.1-13.9-31-31-31s-31,13.9-31,31v2.5h18.6v-2.5c0-6.8,5.6-12.4,12.4-12.4s12.4,5.5,12.4,12.4v2.5c0,8.2-6.7,14.9-14.9,14.9h-2.5v17.4h5c8.6,0,15.5,6.9,15.5,15.5v8.7c0,8.6-6.9,15.5-15.5,15.5s-15.5-6.9-15.5-15.5h-18.6Z"/>
  </g>
</svg>