<?xml version="1.0" encoding="utf-8"?>
<!-- Generator: Adobe Illustrator 27.0.1, SVG Export Plug-In . SVG Version: 6.00 Build 0)  -->
<svg version="1.1" id="Layer_1" xmlns="http://www.w3.org/2000/svg" xmlns:xlink="http://www.w3.org/1999/xlink" x="0px" y="0px"
	 viewBox="0 0 425.2 425.2" style="enable-background:new 0 0 425.2 425.2;" xml:space="preserve">
<style type="text/css">
	.st0{fill:#FFCD00;}
	.st1{fill:#E4002B;}
	.st2{fill:#101820;}
</style>
<g id="CIRCLE_3_">
	<path class="st0" d="M411.02,212.6c0-109.59-88.84-198.43-198.43-198.43c-109.58,0-198.42,88.84-198.42,198.43
		c0,109.58,88.84,198.42,198.42,198.42C322.19,411.02,411.02,322.18,411.02,212.6L411.02,212.6z"/>
</g>
<g id="CIRCLE_4_">
	<path class="st1" d="M404.82,212.6c0-106.16-86.06-192.23-192.22-192.23c-106.16,0-192.22,86.07-192.22,192.23
		c0,106.16,86.06,192.22,192.22,192.22C318.76,404.82,404.82,318.76,404.82,212.6L404.82,212.6z"/>
</g>
<g id="CIRCLE_5_">
	<path class="st0" d="M364.48,212.6c0-83.89-68-151.89-151.89-151.89c-83.89,0-151.89,68-151.89,151.89
		c0,83.88,68,151.89,151.89,151.89C296.49,364.49,364.48,296.48,364.48,212.6L364.48,212.6z"/>
</g>
<g id="LWPOLYLINE_44_">
	<polygon class="st2" points="112.46,305.51 75.25,268.36 112.45,231.1 	"/>
</g>
<g id="LWPOLYLINE_47_">
	<polygon class="st2" points="312.73,305.51 349.94,268.36 312.74,231.1 	"/>
</g>
<g id="ELLIPSE_2_">
	<path class="st2" d="M129.96,209.36c0-8.69-7.04-15.74-15.74-15.74c-8.69,0-15.74,7.05-15.74,15.74c0,8.69,7.04,15.74,15.74,15.74
		C122.92,225.1,129.96,218.05,129.96,209.36"/>
</g>
<g id="ELLIPSE_3_">
	<path class="st2" d="M287.24,209.42c0-8.69-7.04-15.74-15.74-15.74c-8.69,0-15.74,7.05-15.74,15.74c0,8.69,7.04,15.74,15.74,15.74
		C280.19,225.16,287.24,218.11,287.24,209.42"/>
</g>
<g id="LWPOLYLINE_53_">
	<path class="st2" d="M148.21,192.79h17.67v-5.89h-17.67v-54.78h185.93v56.63h-24.3v5.89h17.68v14.77l-36.97,0.03
		c0.16-10.52-8.23-19.18-18.75-19.34c-10.52-0.16-19.18,8.23-19.34,18.75c-0.01,0.18-0.01,0.36-0.01,0.54H133.27
		c0.16-10.52-8.23-19.18-18.75-19.34c-10.52-0.16-19.18,8.23-19.34,18.75c0,0.2,0,0.39,0,0.59H86.1l0-32.75l13.77-30.07h42.47v46.23
		H148.21z"/>
</g>
<g id="LWPOLYLINE_56_">
	<path class="st2" d="M287.94,263.78c0-2.88-2.33-5.21-5.21-5.21h-0.74c-4.93,0-8.93,4-8.93,8.93v37.95H261.9v-41.67
		c0-2.88-2.33-5.21-5.21-5.21h-0.74c-4.93,0-8.92,4-8.92,8.93v37.95h-11.16v-55.81h11.16v4.46c3.65-2.27,7.72-3.75,11.97-4.37
		c0.52-0.08,1.05-0.1,1.57-0.06c4.16,0.28,7.96,2.48,10.27,5.96c4.17-3.12,9.05-5.15,14.21-5.89c0.52-0.08,1.04-0.1,1.56-0.06
		c7.04,0.47,12.51,6.31,12.51,13.37v42.41h-11.17V263.78z"/>
</g>
<g id="LWPOLYLINE_46_">
	<path class="st0" d="M190.59,284.99c0,5.13,4.16,9.3,9.3,9.3s9.3-4.17,9.3-9.3V251.5c0-5.13-4.16-9.3-9.3-9.3s-9.3,4.17-9.3,9.3
		V284.99z"/>
</g>
<g id="LWPOLYLINE_52_">
	<polygon class="st0" points="131.53,152.51 104.39,152.51 93.92,175.36 131.53,175.36 	"/>
</g>
</svg>
