<?xml version="1.0" encoding="utf-8"?>
<!-- Generator: Adobe Illustrator 14.0.0, SVG Export Plug-In . SVG Version: 6.00 Build 43363)  -->
<!DOCTYPE svg PUBLIC "-//W3C//DTD SVG 1.1//EN" "http://www.w3.org/Graphics/SVG/1.1/DTD/svg11.dtd">
<svg version="1.1" id="Layer_1" xmlns="http://www.w3.org/2000/svg" xmlns:xlink="http://www.w3.org/1999/xlink" x="0px" y="0px"
	 width="595.276px" height="595.276px" viewBox="0 0 595.276 595.276" enable-background="new 0 0 595.276 595.276"
	 xml:space="preserve">
<g>
	<defs>
		<polyline id="SVGID_1_" points="0,595.276 570.869,595.276 570.869,26.816 0,26.816 0,595.276 		"/>
	</defs>
	<clipPath id="SVGID_2_">
		<use xlink:href="#SVGID_1_"  overflow="visible"/>
	</clipPath>
	
		<path clip-path="url(#SVGID_2_)" fill="none" stroke="#FFFF00" stroke-width="0.12" stroke-linejoin="bevel" stroke-miterlimit="1.414" d="
		M563,309.276c0-35.8-7.1-71.3-20.8-104.3c-13.7-33.1-33.8-63.2-59.1-88.5c-25.3-25.3-55.4-45.4-88.5-59.1
		c-33-13.7-68.5-20.8-104.3-20.8c-35.8,0-71.3,7.1-104.4,20.8c-33.1,13.7-63.1,33.8-88.5,59.1c-25.3,25.3-45.4,55.4-59.1,88.5
		c-13.7,33-20.7,68.5-20.7,104.3s7,71.3,20.7,104.4c13.7,33.1,33.8,63.1,59.1,88.399c25.4,25.4,55.4,45.5,88.5,59.2
		s68.6,20.7,104.4,20.7c35.8,0,71.3-7,104.3-20.7c33.1-13.7,63.2-33.8,88.5-59.2c25.3-25.3,45.399-55.3,59.1-88.399
		C555.9,380.576,563,345.076,563,309.276"/>
	
		<path clip-path="url(#SVGID_2_)" fill="none" stroke="#FF0000" stroke-width="0.12" stroke-linejoin="bevel" stroke-miterlimit="1.414" d="
		M554.5,309.276c0-34.7-6.899-69-20.1-101.1c-13.3-32-32.8-61.2-57.3-85.7s-53.7-44-85.7-57.3c-32.1-13.2-66.4-20.1-101.1-20.1
		s-69.1,6.9-101.1,20.1c-32.1,13.3-61.2,32.8-85.7,57.3c-24.6,24.5-44,53.7-57.3,85.7c-13.3,32.1-20.1,66.4-20.1,101.1
		s6.8,69.1,20.1,101.1c13.3,32.101,32.7,61.2,57.3,85.7c24.5,24.601,53.6,44,85.7,57.3c32,13.301,66.4,20.101,101.1,20.101
		s69-6.8,101.1-20.101c32-13.3,61.2-32.699,85.7-57.3c24.5-24.5,44-53.6,57.3-85.7C547.6,378.375,554.5,343.976,554.5,309.276"/>
	
		<path clip-path="url(#SVGID_2_)" fill="none" stroke="#FFFF00" stroke-width="0.12" stroke-linejoin="bevel" stroke-miterlimit="1.414" d="
		M499.1,309.276c0-27.4-5.4-54.6-15.9-79.9c-10.5-25.3-25.899-48.3-45.3-67.7s-42.4-34.8-67.7-45.3
		c-25.399-10.5-52.5-15.9-79.9-15.9s-54.6,5.4-79.9,15.9c-25.4,10.5-48.4,25.9-67.8,45.3c-19.3,19.4-34.7,42.4-45.2,67.7
		c-10.5,25.3-15.9,52.5-15.9,79.9c0,27.4,5.4,54.6,15.9,79.9c10.5,25.3,25.9,48.399,45.2,67.8c19.4,19.3,42.4,34.7,67.8,45.2
		c25.3,10.5,52.5,15.899,79.9,15.899s54.5-5.399,79.9-15.899c25.3-10.5,48.3-25.9,67.7-45.2c19.4-19.4,34.8-42.5,45.3-67.8
		C493.7,363.875,499.1,336.676,499.1,309.276"/>
	
		<polyline clip-path="url(#SVGID_2_)" fill="none" stroke="#404040" stroke-width="0.12" stroke-linejoin="bevel" stroke-miterlimit="1.414" points="
		438.9,289.276 453.4,289.276 453.4,314.875 438.9,314.875 438.9,377.076 	"/>
	
		<path clip-path="url(#SVGID_2_)" fill="none" stroke="#404040" stroke-width="0.12" stroke-linejoin="bevel" stroke-miterlimit="1.414" d="
		M438.9,377.076c0,3.8,1.5,7.5,4.2,10.2s6.399,4.3,10.3,4.3"/>
	
		<line clip-path="url(#SVGID_2_)" fill="none" stroke="#404040" stroke-width="0.12" stroke-linejoin="bevel" stroke-miterlimit="1.414" x1="453.4" y1="391.576" x2="453.4" y2="417.076"/>
	
		<path clip-path="url(#SVGID_2_)" fill="none" stroke="#404040" stroke-width="0.12" stroke-linejoin="bevel" stroke-miterlimit="1.414" d="
		M453.4,417.076c-5.3,0-10.5-1-15.4-3c-4.8-2-9.199-5-13-8.7c-3.699-3.699-6.6-8.1-8.6-13c-2-4.8-3.1-10.1-3.1-15.3"/>
	
		<polyline clip-path="url(#SVGID_2_)" fill="none" stroke="#404040" stroke-width="0.12" stroke-linejoin="bevel" stroke-miterlimit="1.414" points="
		413.3,377.076 413.3,314.875 398.8,314.875 398.8,289.276 413.3,289.276 413.3,246.676 438.9,246.676 438.9,289.276 	"/>
	<path clip-path="url(#SVGID_2_)" fill-rule="evenodd" clip-rule="evenodd" fill="#FFFF00" d="M26.1,309.276
		c0-7.8,0.3-15.7,1.1-23.7c0.7-8.1,1.8-16.2,3.3-24.4c1.5-8.1,3.4-16.4,5.8-24.6c2.3-8.2,5.1-16.4,8.3-24.5
		c3.3-8.2,6.9-16.2,11-24.1c4.1-7.9,8.6-15.7,13.6-23.2c9.9-15.2,21.3-29.4,34.3-42.3c12.9-12.9,27.1-24.4,42.2-34.3
		c7.6-4.9,15.3-9.5,23.2-13.6c8-4,16-7.7,24.1-10.9c8.2-3.2,16.4-6,24.6-8.4c8.2-2.3,16.4-4.2,24.6-5.8c8.2-1.5,16.3-2.6,24.3-3.3
		c8.1-0.7,16-1.1,23.8-1.1c7.8,0,15.7,0.4,23.7,1.1c8,0.7,16.2,1.8,24.4,3.3c8.1,1.6,16.4,3.5,24.6,5.8c8.2,2.4,16.4,5.2,24.5,8.4
		c8.2,3.2,16.2,6.9,24.101,10.9c7.899,4.1,15.7,8.7,23.2,13.6c15.199,9.9,29.399,21.4,42.3,34.3c12.899,12.9,24.399,27.1,34.3,42.3
		c4.9,7.5,9.5,15.3,13.5,23.2c4.1,7.9,7.8,15.9,11,24.1c3.2,8.1,6,16.3,8.4,24.5c2.3,8.2,4.199,16.5,5.8,24.6
		c1.5,8.2,2.6,16.3,3.3,24.4c0.7,8,1.1,15.9,1.1,23.7s-0.399,15.7-1.1,23.8c-0.7,8-1.8,16.101-3.3,24.3
		c-1.601,8.2-3.5,16.4-5.8,24.601c-2.4,8.2-5.2,16.399-8.4,24.6c-3.2,8.101-6.9,16.101-11,24.101c-4,7.899-8.6,15.6-13.5,23.199
		c-9.9,15.101-21.4,29.301-34.3,42.2c-12.9,13-27.101,24.4-42.3,34.3c-7.5,5-15.301,9.5-23.2,13.601
		c-7.9,4.1-15.9,7.7-24.101,10.899c-8.1,3.301-16.3,6-24.5,8.4c-8.199,2.4-16.5,4.3-24.6,5.8c-8.2,1.5-16.4,2.601-24.4,3.3
		c-8,0.801-15.899,1.101-23.7,1.101c-7.8,0-15.7-0.3-23.8-1.101c-8-0.699-16.1-1.8-24.3-3.3c-8.2-1.5-16.4-3.399-24.6-5.8
		c-8.2-2.4-16.4-5.1-24.6-8.4c-8.1-3.199-16.1-6.8-24.1-10.899c-7.9-4.101-15.6-8.601-23.2-13.601c-15.1-9.899-29.3-21.3-42.2-34.3
		c-13-12.899-24.4-27.1-34.3-42.2c-5-7.6-9.5-15.3-13.6-23.199c-4.1-8-7.7-16-11-24.101c-3.2-8.2-6-16.399-8.3-24.6
		c-2.4-8.2-4.3-16.4-5.8-24.601c-1.5-8.199-2.6-16.3-3.3-24.3C26.4,324.976,26.1,317.076,26.1,309.276 M563,309.276
		c0-8-0.399-16.2-1.1-24.5c-0.8-8.3-1.9-16.7-3.5-25.1c-1.5-8.5-3.5-16.9-5.9-25.4c-2.5-8.5-5.3-17-8.699-25.4
		c-3.301-8.4-7.101-16.7-11.301-24.8c-4.199-8.2-8.899-16.2-14-24c-10.199-15.6-22-30.3-35.399-43.6c-13.3-13.4-28-25.2-43.601-35.4
		c-7.8-5.1-15.8-9.8-24-14c-8.1-4.2-16.399-8-24.8-11.3c-8.399-3.4-16.899-6.2-25.399-8.7c-8.5-2.4-17-4.4-25.4-5.9
		c-8.4-1.6-16.8-2.7-25.1-3.5c-8.301-0.7-16.5-1.1-24.5-1.1c-8.1,0-16.2,0.4-24.5,1.1c-8.3,0.8-16.7,1.9-25.1,3.5
		c-8.5,1.5-17,3.5-25.5,5.9c-8.4,2.5-16.9,5.3-25.3,8.7c-8.4,3.3-16.7,7.1-24.9,11.3c-8.1,4.2-16.1,8.9-23.9,14
		c-15.7,10.2-30.3,22-43.7,35.4c-13.3,13.3-25.2,28-35.4,43.6c-5.1,7.8-9.7,15.8-14,24c-4.2,8.1-8,16.4-11.3,24.8
		c-3.3,8.4-6.2,16.9-8.6,25.4s-4.4,16.9-6,25.4c-1.5,8.4-2.7,16.8-3.4,25.1c-0.8,8.3-1.1,16.5-1.1,24.5c0,8.1,0.3,16.2,1.1,24.5
		c0.7,8.3,1.9,16.7,3.4,25.1c1.6,8.5,3.6,17,6,25.5c2.4,8.4,5.3,16.9,8.6,25.301c3.3,8.399,7.1,16.699,11.3,24.899
		c4.3,8.101,8.9,16.101,14,23.9c10.2,15.7,22.1,30.3,35.4,43.6c13.4,13.4,28,25.2,43.7,35.5c7.8,5.101,15.8,9.7,23.9,14
		c8.2,4.2,16.5,7.9,24.9,11.3c8.4,3.301,16.9,6.2,25.3,8.601c8.5,2.399,17,4.399,25.5,6c8.4,1.5,16.8,2.7,25.1,3.399
		c8.3,0.801,16.4,1.101,24.5,1.101c8,0,16.2-0.3,24.5-1.101c8.3-0.699,16.699-1.899,25.1-3.399c8.4-1.601,16.9-3.601,25.4-6
		c8.5-2.4,17-5.3,25.399-8.601c8.4-3.399,16.7-7.1,24.8-11.3c8.2-4.3,16.2-8.899,24-14c15.601-10.3,30.301-22.1,43.601-35.5
		c13.399-13.3,25.2-27.899,35.399-43.6c5.101-7.8,9.801-15.8,14-23.9c4.2-8.2,8-16.5,11.301-24.899
		c3.399-8.4,6.199-16.9,8.699-25.301c2.4-8.5,4.4-17,5.9-25.5c1.6-8.399,2.7-16.8,3.5-25.1C562.6,325.476,563,317.375,563,309.276"
		/>
	<path clip-path="url(#SVGID_2_)" fill-rule="evenodd" clip-rule="evenodd" fill="#FF0000" d="M81.5,309.276
		c0-6.1,0.3-12.4,0.8-18.7c0.6-6.4,1.5-12.8,2.7-19.3c1.2-6.4,2.7-12.9,4.5-19.4c1.9-6.5,4.1-13,6.6-19.4c2.6-6.5,5.5-12.8,8.7-19.1
		c3.2-6.2,6.8-12.4,10.7-18.3c7.8-12,16.9-23.2,27.1-33.4c10.3-10.2,21.5-19.3,33.4-27.1c6-3.9,12.1-7.5,18.4-10.8
		c6.2-3.2,12.6-6.1,19-8.6c6.5-2.6,12.9-4.8,19.4-6.6c6.5-1.9,13-3.4,19.5-4.6c6.5-1.2,12.9-2.1,19.2-2.6c6.4-0.6,12.6-0.9,18.8-0.9
		c6.1,0,12.4,0.3,18.7,0.9c6.4,0.5,12.801,1.4,19.301,2.6c6.399,1.2,12.899,2.7,19.399,4.6c6.5,1.8,13,4,19.4,6.6
		c6.5,2.5,12.8,5.4,19.1,8.6c6.2,3.3,12.4,6.9,18.3,10.8c12,7.8,23.2,16.9,33.4,27.1c10.2,10.2,19.3,21.4,27.1,33.4
		c3.9,5.9,7.5,12.1,10.7,18.3c3.3,6.3,6.2,12.6,8.7,19.1c2.6,6.4,4.8,12.9,6.6,19.4c1.9,6.5,3.4,13,4.601,19.4
		c1.2,6.5,2.1,12.9,2.6,19.3c0.601,6.3,0.9,12.601,0.9,18.7c0,6.2-0.3,12.4-0.9,18.8c-0.5,6.3-1.399,12.7-2.6,19.2
		s-2.7,13-4.601,19.5c-1.8,6.5-4,12.9-6.6,19.4c-2.5,6.399-5.4,12.8-8.7,19c-3.2,6.3-6.8,12.399-10.7,18.399
		c-7.8,11.9-16.899,23.101-27.1,33.4c-10.2,10.2-21.4,19.2-33.4,27.1c-5.899,3.9-12.1,7.4-18.3,10.7c-6.3,3.2-12.6,6.1-19.1,8.6
		c-6.4,2.601-12.9,4.801-19.4,6.601c-6.5,1.899-13,3.399-19.399,4.6c-6.5,1.2-12.9,2.101-19.301,2.7c-6.3,0.5-12.6,0.8-18.7,0.8
		c-6.2,0-12.4-0.3-18.8-0.8c-6.3-0.6-12.7-1.5-19.2-2.7s-13-2.7-19.5-4.6c-6.5-1.8-12.9-4-19.4-6.601c-6.4-2.5-12.8-5.399-19-8.6
		c-6.3-3.3-12.4-6.8-18.4-10.7c-11.9-7.899-23.1-16.899-33.4-27.1c-10.2-10.3-19.3-21.5-27.1-33.4c-3.9-6-7.5-12.1-10.7-18.399
		c-3.2-6.2-6.1-12.601-8.7-19c-2.5-6.5-4.7-12.9-6.6-19.4c-1.8-6.5-3.3-13-4.5-19.5s-2.1-12.9-2.7-19.2
		C81.8,321.676,81.5,315.476,81.5,309.276 M554.5,309.276c0-7.8-0.399-15.7-1.1-23.7c-0.7-8.1-1.8-16.2-3.3-24.4
		c-1.601-8.1-3.5-16.4-5.8-24.6c-2.4-8.2-5.2-16.4-8.4-24.5c-3.2-8.2-6.9-16.2-11-24.1c-4-7.9-8.6-15.7-13.5-23.2
		c-9.9-15.2-21.4-29.4-34.3-42.3c-12.9-12.9-27.101-24.4-42.3-34.3c-7.5-4.9-15.301-9.5-23.2-13.6c-7.9-4-15.9-7.7-24.101-10.9
		c-8.1-3.2-16.3-6-24.5-8.4c-8.199-2.3-16.5-4.2-24.6-5.8c-8.2-1.5-16.4-2.6-24.4-3.3c-8-0.7-15.899-1.1-23.7-1.1
		c-7.8,0-15.7,0.4-23.8,1.1c-8,0.7-16.1,1.8-24.3,3.3c-8.2,1.6-16.4,3.5-24.6,5.8c-8.2,2.4-16.4,5.2-24.6,8.4
		c-8.1,3.2-16.1,6.9-24.1,10.9c-7.9,4.1-15.6,8.7-23.2,13.6c-15.1,9.9-29.3,21.4-42.2,34.3c-13,12.9-24.4,27.1-34.3,42.3
		c-5,7.5-9.5,15.3-13.6,23.2c-4.1,7.9-7.7,15.9-11,24.1c-3.2,8.1-6,16.3-8.3,24.5c-2.4,8.2-4.3,16.5-5.8,24.6
		c-1.5,8.2-2.6,16.3-3.3,24.4c-0.8,8-1.1,15.9-1.1,23.7s0.3,15.7,1.1,23.8c0.7,8,1.8,16.101,3.3,24.3c1.5,8.2,3.4,16.4,5.8,24.601
		c2.3,8.2,5.1,16.399,8.3,24.6c3.3,8.101,6.9,16.101,11,24.101c4.1,7.899,8.6,15.6,13.6,23.199c9.9,15.101,21.3,29.301,34.3,42.2
		c12.9,13,27.1,24.4,42.2,34.3c7.6,5,15.3,9.5,23.2,13.601c8,4.1,16,7.7,24.1,10.899c8.2,3.301,16.4,6,24.6,8.4
		c8.2,2.4,16.4,4.3,24.6,5.8c8.2,1.5,16.3,2.601,24.3,3.3c8.1,0.801,16,1.101,23.8,1.101c7.8,0,15.7-0.3,23.7-1.101
		c8-0.699,16.2-1.8,24.4-3.3c8.1-1.5,16.4-3.399,24.6-5.8c8.2-2.4,16.4-5.1,24.5-8.4c8.2-3.199,16.2-6.8,24.101-10.899
		c7.899-4.101,15.7-8.601,23.2-13.601c15.199-9.899,29.399-21.3,42.3-34.3c12.899-12.899,24.399-27.1,34.3-42.2
		c4.9-7.6,9.5-15.3,13.5-23.199c4.1-8,7.8-16,11-24.101c3.2-8.2,6-16.399,8.4-24.6c2.3-8.2,4.199-16.4,5.8-24.601
		c1.5-8.199,2.6-16.3,3.3-24.3C554.1,324.976,554.5,317.076,554.5,309.276"/>
	<path clip-path="url(#SVGID_2_)" fill-rule="evenodd" clip-rule="evenodd" fill="#404040" d="M413.3,377.076
		c0,2.3,0.199,4.8,0.699,7.3c0.4,2.5,1.2,5,2.101,7.4c2,5,5,9.7,8.899,13.6c4,4,8.601,7,13.601,8.9c2.5,1,5,1.7,7.5,2.2
		c2.5,0.399,4.899,0.6,7.3,0.6v-25.5c-3.9,0-7.6-1.6-10.3-4.3s-4.2-6.4-4.2-10.2v-62.2h14.5v-25.6h-14.5v-42.6h-25.6v42.6h-14.5
		v25.6h14.5V377.076"/>
	<path clip-path="url(#SVGID_2_)" fill-rule="evenodd" clip-rule="evenodd" fill="#FFFF00" d="M438.9,377.076c0,1.7,0.3,3.5,1,5.3
		c0.7,1.801,1.8,3.5,3.2,4.9c1.5,1.5,3.1,2.5,4.899,3.3c1.801,0.7,3.7,1,5.4,1v25.5c-5.3,0-10.5-1-15.4-3c-4.8-2-9.199-5-13-8.7
		c-3.699-3.699-6.6-8.1-8.6-13c-2-4.8-3.1-10.1-3.1-15.3v-62.2h-14.5v-25.6h14.5v-42.6h25.6v42.6h14.5v25.6h-14.5V377.076
		 M499.1,309.276c0-6.1-0.3-12.4-0.9-18.7c-0.5-6.4-1.399-12.8-2.6-19.3c-1.2-6.4-2.7-12.9-4.601-19.4c-1.8-6.5-4-13-6.6-19.4
		c-2.5-6.5-5.4-12.8-8.7-19.1c-3.2-6.2-6.8-12.4-10.7-18.3c-7.8-12-16.899-23.2-27.1-33.4c-10.2-10.2-21.4-19.3-33.4-27.1
		c-5.899-3.9-12.1-7.5-18.3-10.8c-6.3-3.2-12.6-6.1-19.1-8.6c-6.4-2.6-12.9-4.8-19.4-6.6c-6.5-1.9-13-3.4-19.399-4.6
		c-6.5-1.2-12.9-2.1-19.301-2.6c-6.3-0.6-12.6-0.9-18.7-0.9c-6.2,0-12.4,0.3-18.8,0.9c-6.3,0.5-12.7,1.4-19.2,2.6
		c-6.5,1.2-13,2.7-19.5,4.6c-6.5,1.8-12.9,4-19.4,6.6c-6.4,2.5-12.8,5.4-19,8.6c-6.3,3.3-12.4,6.9-18.4,10.8
		c-11.9,7.8-23.1,16.9-33.4,27.1c-10.2,10.2-19.3,21.4-27.1,33.4c-3.9,5.9-7.5,12.1-10.7,18.3c-3.2,6.3-6.1,12.6-8.7,19.1
		c-2.5,6.4-4.7,12.9-6.6,19.4c-1.8,6.5-3.3,13-4.5,19.4c-1.2,6.5-2.1,12.9-2.7,19.3c-0.5,6.3-0.8,12.601-0.8,18.7
		c0,27.4,5.4,54.6,15.9,79.9c10.5,25.3,25.9,48.399,45.2,67.8c19.4,19.3,42.4,34.7,67.8,45.2c25.3,10.5,52.5,15.899,79.9,15.899
		c6.1,0,12.4-0.3,18.7-0.8c6.4-0.6,12.801-1.5,19.301-2.7c6.399-1.2,12.899-2.7,19.399-4.6c6.5-1.8,13-4,19.4-6.601
		c6.5-2.5,12.8-5.399,19.1-8.6c6.2-3.3,12.4-6.8,18.3-10.7c12-7.899,23.2-16.899,33.4-27.1c10.2-10.3,19.3-21.5,27.1-33.4
		c3.9-6,7.5-12.1,10.7-18.399c3.3-6.2,6.2-12.601,8.7-19c2.6-6.5,4.8-12.9,6.6-19.4c1.9-6.5,3.4-13,4.601-19.5s2.1-12.9,2.6-19.2
		C498.8,321.676,499.1,315.476,499.1,309.276"/>
</g>
<g>
	<defs>
		<polyline id="SVGID_3_" points="0,595.276 570.869,595.276 570.869,26.816 0,26.816 0,595.276 		"/>
	</defs>
	<clipPath id="SVGID_4_">
		<use xlink:href="#SVGID_3_"  overflow="visible"/>
	</clipPath>
	<path clip-path="url(#SVGID_4_)" fill-rule="evenodd" clip-rule="evenodd" fill="#FF7F00" d="M570.7,567.276c-1,4.3-1.6,9-1.6,14
		c0,4.9,0.6,9.5,1.6,14V567.276"/>
</g>
</svg>
