<?xml version="1.0" encoding="utf-8"?>
<!-- Generator: Adobe Illustrator 27.0.1, SVG Export Plug-In . SVG Version: 6.00 Build 0)  -->
<svg version="1.1" id="Layer_1" xmlns="http://www.w3.org/2000/svg" xmlns:xlink="http://www.w3.org/1999/xlink" x="0px" y="0px"
	 viewBox="0 0 425.2 425.2" style="enable-background:new 0 0 425.2 425.2;" xml:space="preserve">
<style type="text/css">
	.st0{fill:#FFCD00;}
	.st1{fill:#E4002B;}
	.st2{fill:#101820;}
</style>
<g id="CIRCLE_3_">
	<path class="st0" d="M411.02,212.6c0-109.59-88.84-198.43-198.43-198.43c-109.58,0-198.42,88.84-198.42,198.43
		c0,109.58,88.84,198.42,198.42,198.42C322.19,411.02,411.02,322.18,411.02,212.6L411.02,212.6z"/>
</g>
<g id="CIRCLE_4_">
	<path class="st1" d="M404.82,212.6c0-106.16-86.06-192.23-192.22-192.23c-106.16,0-192.22,86.06-192.22,192.23
		c0,106.16,86.06,192.22,192.22,192.22C318.76,404.82,404.82,318.76,404.82,212.6L404.82,212.6z"/>
</g>
<g id="CIRCLE_5_">
	<path class="st0" d="M364.52,212.6c0-83.91-68.02-151.92-151.92-151.92c-83.9,0-151.92,68.01-151.92,151.92
		c0,83.9,68.02,151.92,151.92,151.92C296.5,364.52,364.52,296.5,364.52,212.6L364.52,212.6z"/>
</g>
<g id="LWPOLYLINE_45_">
	<path class="st2" d="M320.72,198.04h10.54v18.6h-10.54v45.27c0,5.82,4.72,10.54,10.54,10.54v18.6c-16.1,0-29.14-13.04-29.14-29.14
		v-45.27h-10.54v-18.6h10.54v-31.01h18.6V198.04z"/>
</g>
</svg>
