<?xml version="1.0" encoding="utf-8"?>
<!-- Generator: Adobe Illustrator 27.0.1, SVG Export Plug-In . SVG Version: 6.00 Build 0)  -->
<svg version="1.1" id="Layer_1" xmlns="http://www.w3.org/2000/svg" xmlns:xlink="http://www.w3.org/1999/xlink" x="0px" y="0px"
	 viewBox="0 0 425.2 425.2" style="enable-background:new 0 0 425.2 425.2;" xml:space="preserve">
<style type="text/css">
	.st0{fill:#FFCD00;}
	.st1{fill:#E4002B;}
	.st2{fill:#101820;}
</style>
<g id="CIRCLE_2_">
	<path class="st0" d="M411.02,212.6c0-109.59-88.84-198.43-198.43-198.43c-109.59,0-198.42,88.84-198.42,198.43
		c0,109.58,88.84,198.42,198.42,198.42C322.19,411.02,411.02,322.18,411.02,212.6L411.02,212.6z"/>
</g>
<g id="CIRCLE_1_">
	<path class="st1" d="M404.82,212.6c0-106.16-86.06-192.22-192.22-192.22S20.38,106.44,20.38,212.6
		c0,106.16,86.06,192.22,192.22,192.22S404.82,318.76,404.82,212.6L404.82,212.6z"/>
</g>
<g id="CIRCLE_3_">
	<path class="st0" d="M364.5,212.6c0-83.9-68-151.91-151.9-151.91c-83.9,0-151.9,68.01-151.9,151.91c0,83.89,68,151.9,151.9,151.9
		C296.5,364.5,364.5,296.49,364.5,212.6L364.5,212.6z"/>
</g>
<g id="LWPOLYLINE_2_">
	<path class="st2" d="M292.1,203h-31.58c-0.17-7.22-6.17-12.93-13.39-12.75c-6.98,0.17-12.58,5.78-12.75,12.75h-38.51
		c-0.17-7.22-6.16-12.93-13.39-12.75c-6.98,0.17-12.58,5.78-12.75,12.75h-44.8c-0.18-7.22-6.17-12.93-13.4-12.75
		c-6.97,0.17-12.58,5.78-12.75,12.75H82.39v-22.45l8.27-21.85h32.45v33.9h19.69v-4.57h-11.81v-42.88h83.86v53.28h13.47v-53.28
		h102.11V203h-12.18c-0.17-7.22-6.16-12.93-13.39-12.75C297.88,190.41,292.27,196.02,292.1,203z"/>
</g>
<g id="CIRCLE_14_">
	<path class="st2" d="M121.6,203.29c0-5.48-4.44-9.92-9.92-9.92c-5.48,0-9.93,4.44-9.93,9.92c0,5.48,4.45,9.92,9.93,9.92
		C117.17,213.21,121.6,208.77,121.6,203.29L121.6,203.29z"/>
</g>
<g id="CIRCLE_6_">
	<path class="st2" d="M192.56,203.29c0-5.48-4.44-9.92-9.92-9.92c-5.48,0-9.92,4.44-9.92,9.92c0,5.48,4.45,9.92,9.92,9.92
		C188.12,213.21,192.56,208.77,192.56,203.29L192.56,203.29z"/>
</g>
<g id="CIRCLE_5_">
	<path class="st2" d="M257.38,203c0-5.48-4.45-9.92-9.92-9.92c-5.48,0-9.93,4.44-9.93,9.92c0,5.48,4.45,9.92,9.93,9.92
		C252.93,212.92,257.38,208.48,257.38,203L257.38,203z"/>
</g>
<g id="CIRCLE_4_">
	<path class="st2" d="M315.02,203c0-5.48-4.45-9.92-9.92-9.92c-5.48,0-9.93,4.44-9.93,9.92c0,5.48,4.45,9.92,9.93,9.92
		C310.58,212.92,315.02,208.48,315.02,203L315.02,203z"/>
</g>
<g id="LWPOLYLINE_15_">
	<path class="st2" d="M285.02,265.68h5.95v11.16h-5.95v27.07c0.14,3.3,2.67,6.01,5.95,6.38v11.19c-9.45-0.4-16.96-8.1-17.11-17.57
		v-27.07h-6.69v-11.16h6.69v-18.6h11.16V265.68z"/>
</g>
<g id="LWPOLYLINE_8_">
	<polyline class="st0" points="89.8,180.15 95.07,164.29 113.97,164.29 113.97,180.15 89.8,180.15 	"/>
</g>
<g id="LWPOLYLINE_3_">
	<path class="st0" d="M203.3,300.94v-33.49c0-5.13,4.16-9.3,9.3-9.3c5.14,0,9.3,4.17,9.3,9.3v33.49c0,5.14-4.16,9.3-9.3,9.3
		C207.46,310.24,203.3,306.08,203.3,300.94z"/>
</g>
</svg>
