<?xml version="1.0" encoding="UTF-8"?>
<svg xmlns="http://www.w3.org/2000/svg" version="1.1" xmlns:cc="http://creativecommons.org/ns#" xmlns:dc="http://purl.org/dc/elements/1.1/" xmlns:inkscape="http://www.inkscape.org/namespaces/inkscape" xmlns:rdf="http://www.w3.org/1999/02/22-rdf-syntax-ns#" xmlns:sodipodi="http://sodipodi.sourceforge.net/DTD/sodipodi-0.dtd" xmlns:svg="http://www.w3.org/2000/svg" viewBox="0 0 396.9 396.9">
  <defs>
    <style>
      .cls-1 {
        fill: #ffcd00;
      }

      .cls-1, .cls-2, .cls-3 {
        stroke-width: 0px;
      }

      .cls-2 {
        fill: #e4002b;
      }

      .cls-3 {
        fill: #101820;
      }
    </style>
  </defs>
  <g id="Layer_1" data-name="Layer 1" inkscape:version="0.92.5 (2060ec1f9f, 2020-04-08)">
    <sodipodi:namedview id="namedview131" bordercolor="#666666" borderopacity="1" gridtolerance="10" guidetolerance="10" inkscape:current-layer="Layer_1" inkscape:cx="198.4265" inkscape:cy="198.42599" inkscape:pageopacity="0" inkscape:pageshadow="2" inkscape:window-height="480" inkscape:window-maximized="0" inkscape:window-width="640" inkscape:window-x="0" inkscape:window-y="0" inkscape:zoom="0.55503813" objecttolerance="10" pagecolor="#ffffff" showgrid="false"/>
    <g id="CIRCLE">
      <path id="path94" class="cls-1" d="M396.9,198.4C396.9,88.8,308,0,198.4,0S0,88.8,0,198.4s88.8,198.4,198.4,198.4,198.4-88.8,198.4-198.4h0Z" inkscape:connector-curvature="0"/>
    </g>
    <g id="CIRCLE-2" data-name="CIRCLE">
      <path id="path97" class="cls-2" d="M390.6,198.4c0-106.2-86.1-192.2-192.2-192.2S6.2,92.3,6.2,198.4s86.1,192.2,192.2,192.2c106.2,0,192.2-86.1,192.2-192.2Z" inkscape:connector-curvature="0"/>
    </g>
    <g id="CIRCLE-3" data-name="CIRCLE">
      <path id="path100" class="cls-1" d="M350.3,198.4c0-83.9-68-151.9-151.9-151.9S46.5,114.5,46.5,198.4s68,151.9,151.9,151.9,151.9-68,151.9-151.9Z" inkscape:connector-curvature="0"/>
    </g>
    <g id="LWPOLYLINE">
      <path id="path103" class="cls-3" d="M277.9,188.8h-31.6c-.2-7.2-6.2-12.9-13.4-12.8-7,.2-12.6,5.8-12.8,12.8h-38.5c-.2-7.2-6.2-12.9-13.4-12.8-7,.2-12.6,5.8-12.8,12.8h-44.8c-.2-7.2-6.2-12.9-13.4-12.8-7,.2-12.6,5.8-12.8,12.8h-16.4v-22.5l8.3-21.8h32.5v33.9h19.7v-4.6h-11.8v-42.9h83.9v53.3h13.5v-53.3h102.1v57.9h-12.2c-.2-7.2-6.2-12.9-13.4-12.8-7,.2-12.6,5.8-12.8,12.8h0Z" inkscape:connector-curvature="0"/>
    </g>
    <g id="LWPOLYLINE-2" data-name="LWPOLYLINE">
      <polyline id="polyline106" class="cls-1" points="75.6 166 80.9 150.1 99.8 150.1 99.8 166 75.6 166"/>
    </g>
    <g id="CIRCLE-4" data-name="CIRCLE">
      <path id="path109" class="cls-3" d="M107.4,189.1c0-5.5-4.4-9.9-9.9-9.9s-9.9,4.4-9.9,9.9,4.4,9.9,9.9,9.9,9.9-4.4,9.9-9.9Z" inkscape:connector-curvature="0"/>
    </g>
    <g id="CIRCLE-5" data-name="CIRCLE">
      <path id="path112" class="cls-3" d="M178.4,189.1c0-5.5-4.4-9.9-9.9-9.9s-9.9,4.4-9.9,9.9,4.4,9.9,9.9,9.9,9.9-4.4,9.9-9.9Z" inkscape:connector-curvature="0"/>
    </g>
    <g id="CIRCLE-6" data-name="CIRCLE">
      <path id="path115" class="cls-3" d="M243.2,188.8c0-5.5-4.4-9.9-9.9-9.9s-9.9,4.4-9.9,9.9,4.4,9.9,9.9,9.9,9.9-4.4,9.9-9.9Z" inkscape:connector-curvature="0"/>
    </g>
    <g id="CIRCLE-7" data-name="CIRCLE">
      <path id="path118" class="cls-3" d="M300.8,188.8c0-5.5-4.4-9.9-9.9-9.9s-9.9,4.4-9.9,9.9,4.4,9.9,9.9,9.9,9.9-4.4,9.9-9.9Z" inkscape:connector-curvature="0"/>
    </g>
    <g id="LWPOLYLINE-3" data-name="LWPOLYLINE">
      <path id="path121" class="cls-3" d="M261.7,251.5h6v11.2h-6v27.1c.1,3.3,2.7,6,6,6.4v11.2c-9.5-.4-17-8.1-17.1-17.6v-27.1h-6.7v-11.2h6.7v-18.6h11.2v18.6Z" inkscape:connector-curvature="0"/>
    </g>
    <g id="LWPOLYLINE-4" data-name="LWPOLYLINE">
      <path id="path124" class="cls-3" d="M129.2,286.9c0,11.3,9.2,20.5,20.5,20.5s20.5-9.2,20.5-20.5v-4.5c0-6-2.7-11.8-7.3-15.7,3.5-3.7,5.4-8.6,5.4-13.7v-1.5c0-10.3-8.3-18.6-18.6-18.6s-18.6,8.3-18.6,18.6v1.5h11.2v-1.5c0-4.1,3.3-7.4,7.4-7.4s7.4,3.3,7.4,7.4v1.5c0,4.9-4,8.9-8.9,8.9h-1.5v10.4h3c5.1,0,9.3,4.2,9.3,9.3v5.2c0,5.1-4.2,9.3-9.3,9.3s-9.3-4.2-9.3-9.3h-11.2Z" inkscape:connector-curvature="0"/>
    </g>
    <g id="LWPOLYLINE-5" data-name="LWPOLYLINE">
      <path id="path1825" class="cls-3" d="M178,286.9c0,11.3,9.2,20.5,20.5,20.5s20.5-9.2,20.5-20.5v-33.5c0-11.3-9.2-20.5-20.5-20.5s-20.5,9.2-20.5,20.5v33.5Z" inkscape:connector-curvature="0"/>
    </g>
    <g id="LWPOLYLINE-6" data-name="LWPOLYLINE">
      <path id="path1834" class="cls-1" d="M189.1,286.9c0,5.1,4.2,9.3,9.3,9.3s9.3-4.2,9.3-9.3v-33.5c0-5.1-4.2-9.3-9.3-9.3s-9.3,4.2-9.3,9.3v33.5Z" inkscape:connector-curvature="0"/>
    </g>
  </g>
</svg>