<?xml version="1.0" encoding="utf-8"?>
<!-- Generator: Adobe Illustrator 27.0.1, SVG Export Plug-In . SVG Version: 6.00 Build 0)  -->
<svg version="1.1" id="Layer_1" xmlns="http://www.w3.org/2000/svg" xmlns:xlink="http://www.w3.org/1999/xlink" x="0px" y="0px"
	 viewBox="0 0 425.2 425.2" style="enable-background:new 0 0 425.2 425.2;" xml:space="preserve">
<style type="text/css">
	.st0{fill:#FFCD00;}
	.st1{fill:#E4002B;}
	.st2{fill:#101820;}
</style>
<g id="CIRCLE_1_">
	<path class="st0" d="M411.02,212.6c0-109.58-88.84-198.42-198.43-198.42c-109.59,0-198.42,88.84-198.42,198.42
		c0,109.59,88.83,198.42,198.42,198.42C322.19,411.02,411.02,322.19,411.02,212.6L411.02,212.6z"/>
</g>
<g id="ELLIPSE_2_">
	<path class="st1" d="M404.82,212.6c0-106.16-86.06-192.22-192.23-192.22c-106.16,0-192.22,86.06-192.22,192.22
		c0,106.17,86.06,192.23,192.22,192.23C318.76,404.83,404.82,318.76,404.82,212.6"/>
</g>
<g id="ELLIPSE_3_">
	<path class="st0" d="M364.49,212.6c0-83.88-68-151.89-151.89-151.89c-83.88,0-151.89,68-151.89,151.89
		c0,83.88,68,151.89,151.89,151.89C296.49,364.49,364.49,296.48,364.49,212.6"/>
</g>
<g id="LWPOLYLINE_6_">
	<path class="st2" d="M134.01,263.62v-16.85c-0.33-6.5-5.88-11.5-12.38-11.16c-6.03,0.31-10.86,5.13-11.17,11.16v16.85
		c-8.46,4.57-11.61,15.13-7.04,23.59c1.61,2.98,4.06,5.43,7.04,7.05v16.84c0.38,6.5,5.96,11.47,12.46,11.08
		c5.97-0.35,10.73-5.11,11.08-11.08v-16.84h7.56v-7.4l57.95,1.89c1.63,7.26,8.83,11.83,16.09,10.2c5.1-1.14,9.06-5.11,10.21-10.2
		l58.34-1.89v7.4h7.57v16.84c0.33,6.5,5.87,11.51,12.37,11.17c6.03-0.31,10.86-5.13,11.16-11.17v-16.84
		c8.46-4.74,11.47-15.45,6.73-23.9c-1.58-2.82-3.9-5.15-6.73-6.73v-16.85c-0.38-6.5-5.96-11.46-12.46-11.08
		c-5.97,0.35-10.73,5.11-11.07,11.08v16.85h-7.57v7.4l-58.34-1.89c-1.99-7.26-9.5-11.53-16.76-9.54c-4.64,1.28-8.27,4.9-9.54,9.54
		l-57.95,1.89v-7.4H134.01z"/>
</g>
<g id="LWPOLYLINE_7_">
	<polygon class="st2" points="249.73,206.42 212.59,243.65 175.37,206.42 	"/>
</g>
<g id="LWPOLYLINE_11_">
	<path class="st2" d="M262.16,118.07h7.9v13.95h-7.9v33.95c0,4.36,3.54,7.9,7.9,7.9v13.95c-12.07,0-21.85-9.78-21.85-21.85v-33.95
		h-7.91v-13.95h7.91V94.83h13.95V118.07z"/>
</g>
<g id="LWPOLYLINE_8_">
	<path class="st0" d="M169,162.25c0,6.42,5.2,11.62,11.62,11.62c6.42,0,11.62-5.2,11.62-11.62v-6.51c0-6.42-5.2-11.62-11.62-11.62
		c-6.42,0-11.62,5.2-11.62,11.62V162.25z"/>
</g>
<g id="LWPOLYLINE_10_">
	<path class="st0" d="M171.33,118.07v3.72c0,5.13,4.17,9.3,9.3,9.3c5.14,0,9.3-4.17,9.3-9.3v-3.72c0-5.14-4.16-9.3-9.3-9.3
		C175.49,108.78,171.33,112.94,171.33,118.07z"/>
</g>
</svg>
