<?xml version="1.0" encoding="utf-8"?>
<!-- Generator: Adobe Illustrator 14.0.0, SVG Export Plug-In . SVG Version: 6.00 Build 43363)  -->
<!DOCTYPE svg PUBLIC "-//W3C//DTD SVG 1.1//EN" "http://www.w3.org/Graphics/SVG/1.1/DTD/svg11.dtd">
<svg version="1.1" id="Layer_1" xmlns="http://www.w3.org/2000/svg" xmlns:xlink="http://www.w3.org/1999/xlink" x="0px" y="0px"
	 width="595.276px" height="595.276px" viewBox="0 0 595.276 595.276" enable-background="new 0 0 595.276 595.276"
	 xml:space="preserve">
<g>
	<defs>
		<polyline id="SVGID_1_" points="0,595.276 566.253,595.276 566.253,36.436 0,36.436 0,595.276 		"/>
	</defs>
	<clipPath id="SVGID_2_">
		<use xlink:href="#SVGID_1_"  overflow="visible"/>
	</clipPath>
	
		<path clip-path="url(#SVGID_2_)" fill="none" stroke="#FFFF00" stroke-width="0.12" stroke-linejoin="bevel" stroke-miterlimit="1.414" d="
		M559.8,316.676c0-35.8-7.101-71.3-20.801-104.4c-13.699-33.1-33.8-63.1-59.1-88.5c-25.3-25.3-55.4-45.4-88.5-59.1
		c-33.1-13.7-68.5-20.7-104.3-20.7c-35.9,0-71.3,7-104.4,20.7c-33.1,13.7-63.2,33.8-88.5,59.1c-25.3,25.4-45.4,55.4-59.1,88.5
		c-13.7,33.1-20.8,68.6-20.8,104.4c0,35.8,7.1,71.3,20.8,104.399c13.7,33,33.8,63.101,59.1,88.4c25.3,25.399,55.4,45.5,88.5,59.2
		c33.1,13.699,68.5,20.699,104.4,20.699c35.8,0,71.2-7,104.3-20.699c33.1-13.7,63.2-33.801,88.5-59.2c25.3-25.3,45.4-55.4,59.1-88.4
		C552.7,387.976,559.8,352.476,559.8,316.676"/>
	
		<path clip-path="url(#SVGID_2_)" fill="none" stroke="#FF0000" stroke-width="0.12" stroke-linejoin="bevel" stroke-miterlimit="1.414" d="
		M551.3,316.676c0-34.7-6.801-69.101-20.101-101.101c-13.3-32.1-32.7-61.2-57.3-85.8c-24.5-24.5-53.7-44-85.7-57.2
		c-32.1-13.3-66.399-20.2-101.1-20.2s-69.1,6.9-101.2,20.2c-32,13.2-61.2,32.7-85.7,57.2c-24.5,24.6-44,53.7-57.3,85.8
		c-13.3,32-20.1,66.4-20.1,101.101c0,34.699,6.8,69.1,20.1,101.1c13.3,32.1,32.8,61.2,57.3,85.7c24.5,24.6,53.7,44,85.7,57.3
		c32.1,13.3,66.5,20.1,101.2,20.1s69-6.8,101.1-20.1c32-13.3,61.2-32.7,85.7-57.3c24.6-24.5,44-53.601,57.3-85.7
		C544.5,385.776,551.3,351.375,551.3,316.676"/>
	
		<path clip-path="url(#SVGID_2_)" fill="none" stroke="#FFFF00" stroke-width="0.12" stroke-linejoin="bevel" stroke-miterlimit="1.414" d="
		M495.9,316.676c0-27.4-5.4-54.601-15.9-79.9s-25.899-48.4-45.3-67.8c-19.399-19.3-42.399-34.7-67.7-45.2
		c-25.399-10.5-52.5-15.9-79.899-15.9c-27.5,0-54.6,5.4-79.9,15.9c-25.4,10.5-48.4,25.9-67.8,45.2c-19.4,19.4-34.8,42.5-45.2,67.8
		c-10.5,25.3-15.9,52.5-15.9,79.9c0,27.399,5.4,54.6,15.9,79.899c10.4,25.3,25.8,48.3,45.2,67.7s42.4,34.8,67.8,45.3
		c25.3,10.5,52.4,15.9,79.9,15.9c27.399,0,54.5-5.4,79.899-15.9c25.301-10.5,48.301-25.899,67.7-45.3c19.4-19.4,34.8-42.4,45.3-67.7
		S495.9,344.076,495.9,316.676"/>
	
		<line clip-path="url(#SVGID_2_)" fill="none" stroke="#404040" stroke-width="0.12" stroke-linejoin="bevel" stroke-miterlimit="1.414" x1="179" y1="386.776" x2="179" y2="363.676"/>
	
		<path clip-path="url(#SVGID_2_)" fill="none" stroke="#404040" stroke-width="0.12" stroke-linejoin="bevel" stroke-miterlimit="1.414" d="
		M179,363.676c-0.2-4.2-2-8.101-5-11c-3-2.801-7-4.4-11.1-4.4c-4.2,0-8.2,1.6-11.2,4.4c-3,2.899-4.8,6.8-5,11"/>
	
		<line clip-path="url(#SVGID_2_)" fill="none" stroke="#404040" stroke-width="0.12" stroke-linejoin="bevel" stroke-miterlimit="1.414" x1="146.7" y1="363.676" x2="146.7" y2="386.776"/>
	
		<path clip-path="url(#SVGID_2_)" fill="none" stroke="#404040" stroke-width="0.12" stroke-linejoin="bevel" stroke-miterlimit="1.414" d="
		M146.7,386.776c-3.8,2.1-7,5.1-9.2,8.8s-3.4,8-3.4,12.3c0,4.301,1.2,8.5,3.4,12.2s5.4,6.8,9.2,8.8"/>
	
		<line clip-path="url(#SVGID_2_)" fill="none" stroke="#404040" stroke-width="0.12" stroke-linejoin="bevel" stroke-miterlimit="1.414" x1="146.7" y1="428.875" x2="146.7" y2="452.076"/>
	
		<path clip-path="url(#SVGID_2_)" fill="none" stroke="#404040" stroke-width="0.12" stroke-linejoin="bevel" stroke-miterlimit="1.414" d="
		M146.7,452.076c0.2,4.101,2,8,5,10.8c3,2.9,7,4.5,11.2,4.5c4.1,0,8.1-1.6,11.1-4.5c3-2.8,4.8-6.699,5-10.8"/>
	
		<polyline clip-path="url(#SVGID_2_)" fill="none" stroke="#404040" stroke-width="0.12" stroke-linejoin="bevel" stroke-miterlimit="1.414" points="
		179,452.076 179,428.875 189.4,428.875 189.4,418.776 269.1,421.375 	"/>
	
		<path clip-path="url(#SVGID_2_)" fill="none" stroke="#404040" stroke-width="0.12" stroke-linejoin="bevel" stroke-miterlimit="1.414" d="
		M269.1,421.375c0.9,4.101,3.2,7.7,6.5,10.4c3.3,2.6,7.4,4,11.6,4c4.2,0,8.3-1.4,11.6-4c3.199-2.7,5.5-6.3,6.399-10.4"/>
	
		<polyline clip-path="url(#SVGID_2_)" fill="none" stroke="#404040" stroke-width="0.12" stroke-linejoin="bevel" stroke-miterlimit="1.414" points="
		305.2,421.375 385.5,418.776 385.5,428.875 395.8,428.875 395.8,452.076 	"/>
	
		<path clip-path="url(#SVGID_2_)" fill="none" stroke="#404040" stroke-width="0.12" stroke-linejoin="bevel" stroke-miterlimit="1.414" d="
		M395.8,452.076c0.3,4.101,2.1,8.101,5.1,10.9c3,2.899,7,4.5,11.1,4.5c4.2,0,8.2-1.601,11.2-4.5c3-2.8,4.8-6.8,5-10.9"/>
	
		<line clip-path="url(#SVGID_2_)" fill="none" stroke="#404040" stroke-width="0.12" stroke-linejoin="bevel" stroke-miterlimit="1.414" x1="428.2" y1="452.076" x2="428.2" y2="428.875"/>
	
		<path clip-path="url(#SVGID_2_)" fill="none" stroke="#404040" stroke-width="0.12" stroke-linejoin="bevel" stroke-miterlimit="1.414" d="
		M428.2,428.875c3.8-2.1,6.9-5.1,9-8.8c2.2-3.7,3.3-7.899,3.3-12.2c0-4.3-1.1-8.5-3.3-12.199c-2.1-3.7-5.2-6.801-9-8.9"/>
	
		<line clip-path="url(#SVGID_2_)" fill="none" stroke="#404040" stroke-width="0.12" stroke-linejoin="bevel" stroke-miterlimit="1.414" x1="428.2" y1="386.776" x2="428.2" y2="363.676"/>
	
		<path clip-path="url(#SVGID_2_)" fill="none" stroke="#404040" stroke-width="0.12" stroke-linejoin="bevel" stroke-miterlimit="1.414" d="
		M428.2,363.676c-0.2-4.2-2-8-5-10.9c-3.1-2.8-7-4.4-11.2-4.4c-4.1,0-8.1,1.601-11.1,4.4c-3,2.9-4.8,6.7-5.1,10.9"/>
	
		<polyline clip-path="url(#SVGID_2_)" fill="none" stroke="#404040" stroke-width="0.12" stroke-linejoin="bevel" stroke-miterlimit="1.414" points="
		395.8,363.676 395.8,386.776 385.5,386.776 385.5,396.976 305.2,394.375 	"/>
	
		<path clip-path="url(#SVGID_2_)" fill="none" stroke="#404040" stroke-width="0.12" stroke-linejoin="bevel" stroke-miterlimit="1.414" d="
		M305.2,394.375c-1-4-3.399-7.5-6.7-9.899c-3.2-2.5-7.2-3.9-11.299-3.9c-4.1,0-8.1,1.4-11.4,3.9c-3.3,2.399-5.6,5.899-6.7,9.899"/>
	
		<polyline clip-path="url(#SVGID_2_)" fill="none" stroke="#404040" stroke-width="0.12" stroke-linejoin="bevel" stroke-miterlimit="1.414" points="
		269.1,394.375 189.4,396.976 189.4,386.776 179,386.776 	"/>
	
		<polyline clip-path="url(#SVGID_2_)" fill="none" stroke="#404040" stroke-width="0.12" stroke-linejoin="bevel" stroke-miterlimit="1.414" points="
		338.1,308.176 287.1,359.375 235.9,308.176 338.1,308.176 	"/>
	
		<polyline clip-path="url(#SVGID_2_)" fill="none" stroke="#404040" stroke-width="0.12" stroke-linejoin="bevel" stroke-miterlimit="1.414" points="
		355.2,186.676 366.1,186.676 366.1,205.876 355.2,205.876 355.2,252.576 	"/>
	
		<path clip-path="url(#SVGID_2_)" fill="none" stroke="#404040" stroke-width="0.12" stroke-linejoin="bevel" stroke-miterlimit="1.414" d="
		M355.2,252.576c0,2.9,1.101,5.6,3.2,7.7c2,2,4.8,3.2,7.7,3.2"/>
	
		<line clip-path="url(#SVGID_2_)" fill="none" stroke="#404040" stroke-width="0.12" stroke-linejoin="bevel" stroke-miterlimit="1.414" x1="366.1" y1="263.476" x2="366.1" y2="282.576"/>
	
		<path clip-path="url(#SVGID_2_)" fill="none" stroke="#404040" stroke-width="0.12" stroke-linejoin="bevel" stroke-miterlimit="1.414" d="
		M366.1,282.576c-8,0-15.7-3.1-21.3-8.8c-5.601-5.6-8.801-13.2-8.801-21.2"/>
	
		<polyline clip-path="url(#SVGID_2_)" fill="none" stroke="#404040" stroke-width="0.12" stroke-linejoin="bevel" stroke-miterlimit="1.414" points="
		336,252.576 336,205.876 325.1,205.876 325.1,186.676 336,186.676 336,154.776 355.2,154.776 355.2,186.676 	"/>
	<path clip-path="url(#SVGID_2_)" fill-rule="evenodd" clip-rule="evenodd" fill="#FFFF00" d="M22.8,316.676
		c0-7.801,0.4-15.7,1.1-23.8c0.7-8,1.8-16.1,3.3-24.3c1.5-8.2,3.5-16.4,5.8-24.6c2.4-8.2,5.1-16.4,8.4-24.6
		c3.2-8.1,6.8-16.2,10.9-24.1c4.1-7.9,8.6-15.7,13.6-23.2c9.9-15.2,21.4-29.3,34.3-42.3c12.9-12.9,27.1-24.4,42.3-34.3
		c7.5-4.9,15.3-9.4,23.2-13.5c7.9-4.1,16-7.8,24.1-11c8.1-3.2,16.3-6,24.6-8.4c8.2-2.3,16.4-4.2,24.6-5.7c8.2-1.6,16.3-2.7,24.3-3.4
		c8.1-0.7,16-1.1,23.8-1.1c7.7,0,15.7,0.4,23.7,1.1c8,0.7,16.199,1.8,24.3,3.4c8.2,1.5,16.5,3.4,24.7,5.7
		c8.199,2.4,16.399,5.2,24.5,8.4c8.199,3.2,16.199,6.9,24.1,11c7.9,4.1,15.7,8.6,23.3,13.5c15.101,9.9,29.3,21.4,42.2,34.3
		c12.9,13,24.4,27.1,34.3,42.3c5,7.5,9.5,15.3,13.601,23.2c4.1,7.9,7.699,16,11,24.1c3.199,8.2,6,16.4,8.3,24.6
		c2.399,8.2,4.3,16.4,5.8,24.6c1.5,8.2,2.6,16.3,3.3,24.3c0.8,8.1,1.101,16,1.101,23.8c0,7.8-0.301,15.699-1.101,23.699
		c-0.7,8.101-1.8,16.2-3.3,24.4s-3.4,16.4-5.8,24.6c-2.3,8.2-5.101,16.4-8.3,24.601c-3.301,8.1-6.9,16.1-11,24.1
		c-4.101,7.9-8.601,15.601-13.601,23.2c-9.899,15.1-21.399,29.3-34.3,42.2c-12.9,13-27.1,24.5-42.2,34.399
		c-7.6,4.9-15.399,9.4-23.3,13.5c-7.9,4.101-15.9,7.801-24.1,11c-8.101,3.2-16.301,6-24.5,8.301c-8.2,2.399-16.5,4.3-24.7,5.8
		c-8.101,1.5-16.3,2.6-24.3,3.399c-8,0.7-15.9,1-23.7,1c-7.8,0-15.7-0.3-23.8-1c-8-0.8-16.1-1.899-24.3-3.399s-16.4-3.4-24.6-5.8
		c-8.3-2.301-16.5-5.101-24.6-8.301c-8.1-3.199-16.2-6.899-24.1-11c-7.9-4.1-15.7-8.6-23.2-13.5
		c-15.2-9.899-29.4-21.399-42.3-34.399c-12.9-12.9-24.4-27.101-34.3-42.2c-5-7.6-9.5-15.3-13.6-23.2c-4.1-8-7.7-16-10.9-24.1
		c-3.3-8.2-6-16.4-8.4-24.601c-2.3-8.199-4.3-16.399-5.8-24.6s-2.6-16.3-3.3-24.4C23.2,332.375,22.8,324.476,22.8,316.676
		 M559.8,316.676c0-8-0.4-16.2-1.101-24.5c-0.8-8.3-1.899-16.7-3.5-25.1c-1.5-8.5-3.5-17-5.899-25.5c-2.5-8.4-5.301-16.9-8.7-25.3
		c-3.3-8.4-7.101-16.7-11.3-24.9c-4.2-8.1-8.9-16.2-14-24c-10.2-15.6-22-30.2-35.4-43.6c-13.3-13.3-28-25.2-43.6-35.4
		c-7.801-5.1-15.801-9.7-24-14c-8.101-4.2-16.4-8-24.801-11.3c-8.399-3.3-16.899-6.2-25.399-8.6c-8.5-2.4-17-4.4-25.4-6
		c-8.5-1.6-16.8-2.7-25.1-3.4c-8.3-0.8-16.5-1.1-24.5-1.1c-8.1,0-16.3,0.3-24.5,1.1c-8.3,0.7-16.7,1.8-25.2,3.4
		c-8.4,1.6-16.9,3.6-25.4,6c-8.5,2.4-16.9,5.3-25.3,8.6c-8.4,3.3-16.7,7.1-24.9,11.3c-8.2,4.3-16.2,8.9-24,14
		c-15.6,10.2-30.2,22.1-43.6,35.4c-13.3,13.4-25.2,28-35.4,43.6c-5.1,7.8-9.8,15.9-14,24c-4.2,8.2-8,16.5-11.3,24.9
		s-6.2,16.9-8.6,25.3c-2.5,8.5-4.5,17-6,25.5c-1.6,8.4-2.7,16.8-3.5,25.1c-0.7,8.3-1.1,16.4-1.1,24.5c0,8,0.4,16.199,1.1,24.5
		c0.8,8.3,1.9,16.699,3.5,25.1c1.5,8.5,3.5,16.9,6,25.4c2.4,8.5,5.3,17,8.6,25.399c3.3,8.4,7.1,16.7,11.3,24.9
		c4.2,8.1,8.9,16.1,14,23.899c10.2,15.7,22.1,30.301,35.4,43.601c13.4,13.399,28,25.2,43.6,35.5c7.8,5.1,15.8,9.7,24,13.899
		c8.2,4.301,16.5,8,24.9,11.4c8.4,3.3,16.8,6.2,25.3,8.6c8.5,2.4,17,4.4,25.4,6c8.5,1.5,16.9,2.7,25.2,3.4
		c8.2,0.8,16.4,1.1,24.5,1.1c8,0,16.2-0.3,24.5-1.1c8.3-0.7,16.6-1.9,25.1-3.4c8.4-1.6,16.9-3.6,25.4-6c8.5-2.399,17-5.3,25.399-8.6
		c8.4-3.4,16.7-7.1,24.801-11.4c8.199-4.199,16.199-8.8,24-13.899c15.6-10.3,30.3-22.101,43.6-35.5c13.4-13.3,25.2-27.9,35.4-43.601
		c5.1-7.8,9.8-15.8,14-23.899c4.199-8.2,8-16.5,11.3-24.9c3.399-8.399,6.2-16.899,8.7-25.399c2.399-8.5,4.399-16.9,5.899-25.4
		c1.601-8.4,2.7-16.8,3.5-25.1C559.4,332.875,559.8,324.676,559.8,316.676"/>
	<path clip-path="url(#SVGID_2_)" fill-rule="evenodd" clip-rule="evenodd" fill="#FF0000" d="M78.3,316.676
		c0-6.2,0.2-12.4,0.8-18.8c0.6-6.3,1.5-12.7,2.6-19.2c1.2-6.5,2.8-13,4.6-19.5c1.9-6.5,4.1-12.9,6.6-19.4c2.6-6.4,5.5-12.8,8.7-19
		c3.2-6.3,6.8-12.4,10.7-18.4c7.8-11.9,16.9-23.1,27.1-33.4c10.2-10.2,21.4-19.3,33.4-27.1c6-3.9,12.1-7.5,18.4-10.7
		c6.2-3.2,12.6-6.1,19-8.7c6.4-2.5,12.9-4.7,19.4-6.6c6.5-1.8,13-3.3,19.5-4.5c6.4-1.2,12.9-2.1,19.2-2.7c6.3-0.5,12.6-0.8,18.8-0.8
		c6.1,0,12.399,0.3,18.7,0.8c6.399,0.6,12.8,1.5,19.3,2.7c6.399,1.2,12.899,2.7,19.399,4.5c6.5,1.9,13,4.1,19.4,6.6
		c6.4,2.6,12.8,5.5,19.1,8.7c6.2,3.2,12.301,6.8,18.301,10.7c12,7.8,23.199,16.9,33.399,27.1c10.2,10.3,19.3,21.5,27.101,33.4
		c3.899,6,7.5,12.1,10.699,18.4c3.301,6.2,6.2,12.6,8.7,19c2.5,6.5,4.7,12.9,6.601,19.4c1.899,6.5,3.399,13,4.6,19.5
		s2,12.9,2.6,19.2c0.601,6.4,0.9,12.6,0.9,18.8c0,6.1-0.3,12.399-0.9,18.699c-0.6,6.4-1.399,12.801-2.6,19.301
		c-1.2,6.399-2.7,12.899-4.6,19.399c-1.9,6.5-4.101,13-6.601,19.4c-2.5,6.5-5.399,12.8-8.7,19.1c-3.199,6.2-6.8,12.4-10.699,18.3
		c-7.801,12-16.9,23.2-27.101,33.4c-10.2,10.3-21.399,19.3-33.399,27.2c-6,3.899-12.101,7.399-18.301,10.7
		c-6.3,3.199-12.6,6.1-19.1,8.6c-6.4,2.6-12.9,4.8-19.4,6.6c-6.5,1.9-13,3.4-19.399,4.601c-6.5,1.2-12.9,2.1-19.3,2.6
		c-6.301,0.601-12.6,0.9-18.7,0.9c-6.2,0-12.5-0.3-18.8-0.9c-6.3-0.5-12.8-1.399-19.2-2.6c-6.5-1.2-13-2.7-19.5-4.601
		c-6.5-1.8-13-4-19.4-6.6c-6.4-2.5-12.8-5.4-19-8.6c-6.3-3.301-12.4-6.801-18.4-10.7c-12-7.9-23.2-16.9-33.4-27.2
		c-10.2-10.2-19.3-21.4-27.1-33.4c-3.9-5.899-7.5-12.1-10.7-18.3c-3.2-6.3-6.1-12.6-8.7-19.1c-2.5-6.4-4.7-12.9-6.6-19.4
		c-1.8-6.5-3.4-13-4.6-19.399c-1.1-6.5-2-12.9-2.6-19.301C78.5,329.076,78.3,322.776,78.3,316.676 M551.3,316.676
		c0-7.801-0.301-15.7-1.101-23.8c-0.7-8-1.8-16.1-3.3-24.3c-1.5-8.2-3.4-16.4-5.8-24.6c-2.3-8.2-5.101-16.4-8.3-24.6
		c-3.301-8.1-6.9-16.2-11-24.1c-4.101-7.9-8.601-15.7-13.601-23.2c-9.899-15.2-21.399-29.3-34.3-42.3
		c-12.9-12.9-27.1-24.4-42.2-34.3c-7.6-4.9-15.399-9.4-23.3-13.5c-7.9-4.1-15.9-7.8-24.1-11c-8.101-3.2-16.301-6-24.5-8.4
		c-8.2-2.3-16.5-4.2-24.7-5.7c-8.101-1.6-16.3-2.7-24.3-3.4c-8-0.7-15.9-1.1-23.7-1.1c-7.8,0-15.8,0.4-23.8,1.1
		c-8,0.7-16.1,1.8-24.3,3.4c-8.2,1.5-16.4,3.4-24.6,5.7c-8.3,2.4-16.5,5.2-24.6,8.4c-8.1,3.2-16.2,6.9-24.1,11
		c-7.9,4.1-15.7,8.6-23.2,13.5c-15.2,9.9-29.4,21.4-42.3,34.3c-12.9,13-24.4,27.1-34.3,42.3c-5,7.5-9.5,15.3-13.6,23.2
		c-4.1,7.9-7.7,16-10.9,24.1c-3.3,8.2-6,16.4-8.4,24.6c-2.3,8.2-4.3,16.4-5.8,24.6c-1.5,8.2-2.6,16.3-3.3,24.3
		c-0.7,8.1-1.1,16-1.1,23.8c0,7.8,0.4,15.699,1.1,23.699c0.7,8.101,1.8,16.2,3.3,24.4s3.5,16.4,5.8,24.6
		c2.4,8.2,5.1,16.4,8.4,24.601c3.2,8.1,6.8,16.1,10.9,24.1c4.1,7.9,8.6,15.601,13.6,23.2c9.9,15.1,21.4,29.3,34.3,42.2
		c12.9,13,27.1,24.5,42.3,34.399c7.5,4.9,15.3,9.4,23.2,13.5c7.9,4.101,16,7.801,24.1,11c8.1,3.2,16.3,6,24.6,8.301
		c8.2,2.399,16.4,4.3,24.6,5.8s16.3,2.6,24.3,3.399c8.1,0.7,16,1,23.8,1c7.8,0,15.7-0.3,23.7-1c8-0.8,16.199-1.899,24.3-3.399
		c8.2-1.5,16.5-3.4,24.7-5.8c8.199-2.301,16.399-5.101,24.5-8.301c8.199-3.199,16.199-6.899,24.1-11c7.9-4.1,15.7-8.6,23.3-13.5
		c15.101-9.899,29.3-21.399,42.2-34.399c12.9-12.9,24.4-27.101,34.3-42.2c5-7.6,9.5-15.3,13.601-23.2c4.1-8,7.699-16,11-24.1
		c3.199-8.2,6-16.4,8.3-24.601c2.399-8.199,4.3-16.399,5.8-24.6s2.6-16.3,3.3-24.4C551,332.375,551.3,324.476,551.3,316.676"/>
	<path clip-path="url(#SVGID_2_)" fill-rule="evenodd" clip-rule="evenodd" fill="#404040" d="M336,252.576c0,1.8,0.2,3.6,0.5,5.5
		c0.4,1.8,0.9,3.7,1.601,5.5c1.5,3.8,3.7,7.3,6.7,10.2c3,3,6.5,5.2,10.199,6.7c1.9,0.8,3.7,1.3,5.601,1.6c1.899,0.4,3.7,0.5,5.5,0.5
		v-19.1c-1.3,0-2.7-0.3-4-0.8c-1.4-0.5-2.7-1.4-3.7-2.4c-1.1-1.1-1.9-2.4-2.4-3.7c-0.6-1.4-0.8-2.7-0.8-4v-46.7h10.9v-19.2h-10.9
		v-31.9H336v31.9H325.1v19.2H336V252.576"/>
	<polyline clip-path="url(#SVGID_2_)" fill-rule="evenodd" clip-rule="evenodd" fill="#404040" points="235.9,308.176 
		287.1,359.375 338.1,308.176 235.9,308.176 	"/>
	<path clip-path="url(#SVGID_2_)" fill-rule="evenodd" clip-rule="evenodd" fill="#404040" d="M179,363.676c-0.2-4.2-2-8.101-5-11
		c-3-2.801-7-4.4-11.1-4.4c-1.9,0-3.9,0.3-5.8,1.1c-2,0.7-3.8,1.801-5.4,3.301c-1.6,1.5-2.8,3.3-3.7,5.199
		c-0.8,1.9-1.2,3.9-1.3,5.801v23.1c-3.8,2.1-7,5.1-9.2,8.8s-3.4,8-3.4,12.3c0,2,0.3,4.101,0.8,6.2c0.6,2.101,1.5,4.101,2.6,6
		c1.1,1.9,2.5,3.601,4.1,5.101c1.5,1.5,3.3,2.8,5.1,3.699v23.2c0.2,4.101,2,8,5,10.8c3,2.9,7,4.5,11.2,4.5c4.1,0,8.1-1.6,11.1-4.5
		c3-2.8,4.8-6.699,5-10.8v-23.2h10.4v-10.1l79.7,2.6c0.9,4.101,3.2,7.7,6.5,10.4c3.3,2.6,7.4,4,11.6,4c4.2,0,8.3-1.4,11.6-4
		c3.199-2.7,5.5-6.3,6.399-10.4l80.3-2.6v10.1H395.8v23.2c0.3,4.101,2.1,8.101,5.1,10.9c3,2.899,7,4.5,11.1,4.5
		c1.9,0,3.9-0.4,5.801-1.101c2-0.699,3.8-1.899,5.399-3.399c1.601-1.5,2.8-3.3,3.601-5.2c0.899-1.9,1.3-3.8,1.399-5.7v-23.2
		c3.8-2.1,6.9-5.1,9-8.8c2.2-3.7,3.3-7.899,3.3-12.2c0-2.1-0.199-4.1-0.8-6.199c-0.5-2.101-1.399-4.101-2.5-6
		c-1.1-1.9-2.399-3.601-4-5.101c-1.5-1.5-3.2-2.8-5-3.8v-23.1c-0.2-4.2-2-8-5-10.9c-3.1-2.8-7-4.4-11.2-4.4
		c-4.1,0-8.1,1.601-11.1,4.4c-3,2.9-4.8,6.7-5.1,10.9v23.1H385.5v10.2l-80.3-2.601c-1-4-3.399-7.5-6.7-9.899
		c-3.2-2.5-7.2-3.9-11.299-3.9c-4.1,0-8.1,1.4-11.4,3.9c-3.3,2.399-5.6,5.899-6.7,9.899l-79.7,2.601v-10.2H179V363.676"/>
	<path clip-path="url(#SVGID_2_)" fill-rule="evenodd" clip-rule="evenodd" fill="#FFFF00" d="M355.2,252.576c0,1.3,0.2,2.6,0.8,4
		c0.5,1.3,1.301,2.6,2.4,3.7c1,1,2.3,1.9,3.7,2.4c1.3,0.5,2.7,0.8,4,0.8v19.1c-1.8,0-3.601-0.1-5.5-0.5c-1.9-0.3-3.7-0.8-5.601-1.6
		c-3.699-1.5-7.199-3.7-10.199-6.7c-3-2.9-5.2-6.4-6.7-10.2c-0.7-1.8-1.2-3.7-1.601-5.5c-0.3-1.9-0.5-3.7-0.5-5.5v-46.7H325.1v-19.2
		H336v-31.9h19.2v31.9h10.9v19.2h-10.9V252.576 M338.1,308.176l-51,51.199l-51.2-51.199H338.1 M269.1,394.375
		c1.1-4,3.4-7.5,6.7-9.899c3.3-2.5,7.3-3.9,11.4-3.9c4.1,0,8.1,1.4,11.299,3.9c3.301,2.399,5.7,5.899,6.7,9.899l80.3,2.601v-10.2
		H395.8v-23.1c0.3-4.2,2.1-8,5.1-10.9c3-2.8,7-4.4,11.1-4.4c1.9,0,3.9,0.301,5.801,1.101c1.899,0.7,3.8,1.8,5.399,3.3
		c1.5,1.5,2.8,3.3,3.601,5.2c0.899,1.899,1.3,3.8,1.399,5.7v23.1c3.8,2.1,6.9,5.2,9,8.9c2.2,3.699,3.3,7.899,3.3,12.199
		c0,2-0.199,4.101-0.8,6.2c-0.5,2.101-1.399,4.101-2.5,6c-1.1,1.9-2.399,3.601-4,5.101c-1.5,1.5-3.2,2.699-5,3.699v23.2
		c-0.2,4.101-2,8.101-5,10.9c-3,2.899-7,4.5-11.2,4.5c-4.1,0-8.1-1.601-11.1-4.5c-3-2.8-4.8-6.8-5.1-10.9v-23.2H385.5v-10.1
		l-80.3,2.6c-0.899,4.101-3.2,7.7-6.399,10.4c-3.3,2.6-7.4,4-11.6,4c-4.2,0-8.3-1.4-11.6-4c-3.3-2.7-5.6-6.3-6.5-10.4l-79.7-2.6
		v10.1H179v23.2c-0.2,4.101-2,8-5,10.8c-3,2.9-7,4.5-11.1,4.5c-1.9,0-3.9-0.399-5.8-1.1c-2-0.7-3.8-1.9-5.4-3.4
		c-1.5-1.399-2.8-3.199-3.6-5.1c-0.9-1.9-1.3-3.8-1.4-5.7v-23.2c-3.8-2-7-5.1-9.2-8.8s-3.4-7.899-3.4-12.2c0-2.1,0.3-4.199,0.8-6.3
		c0.6-2.1,1.5-4.1,2.6-6c1.1-1.899,2.5-3.6,4.1-5.1c1.5-1.5,3.3-2.7,5.1-3.7v-23.1c0.2-4.2,2-8.101,5-11c3-2.801,7-4.4,11.2-4.4
		c4.1,0,8.1,1.6,11.1,4.4c3,2.899,4.8,6.8,5,11v23.1h10.4v10.2L269.1,394.375 M495.9,316.676c0-6.2-0.3-12.4-0.9-18.8
		c-0.6-6.3-1.399-12.7-2.6-19.2s-2.7-13-4.6-19.5c-1.9-6.5-4.101-12.9-6.601-19.4c-2.5-6.4-5.399-12.8-8.7-19
		c-3.199-6.3-6.8-12.4-10.699-18.4c-7.801-11.9-16.9-23.1-27.101-33.4c-10.2-10.2-21.399-19.3-33.399-27.1
		c-6-3.9-12.101-7.5-18.301-10.7c-6.3-3.2-12.6-6.1-19.1-8.7c-6.4-2.5-12.9-4.7-19.4-6.6c-6.5-1.8-13-3.3-19.399-4.5
		c-6.5-1.2-12.9-2.1-19.3-2.7c-6.301-0.5-12.6-0.8-18.7-0.8c-27.5,0-54.6,5.4-79.9,15.9c-25.4,10.5-48.4,25.9-67.8,45.2
		c-19.4,19.4-34.8,42.5-45.2,67.8c-10.5,25.3-15.9,52.5-15.9,79.9c0,6.1,0.2,12.399,0.8,18.699c0.6,6.4,1.5,12.801,2.6,19.301
		c1.2,6.399,2.8,12.899,4.6,19.399c1.9,6.5,4.1,13,6.6,19.4c2.6,6.5,5.5,12.8,8.7,19.1c3.2,6.2,6.8,12.4,10.7,18.3
		c7.8,12,16.9,23.2,27.1,33.4c10.2,10.3,21.4,19.3,33.4,27.2c6,3.899,12.1,7.399,18.4,10.7c6.2,3.199,12.6,6.1,19,8.6
		c6.4,2.6,12.9,4.8,19.4,6.6c6.5,1.9,13,3.4,19.5,4.601c6.4,1.2,12.9,2.1,19.2,2.6c6.3,0.601,12.6,0.9,18.8,0.9
		c6.1,0,12.399-0.3,18.7-0.9c6.399-0.5,12.8-1.399,19.3-2.6c6.399-1.2,12.899-2.7,19.399-4.601c6.5-1.8,13-4,19.4-6.6
		c6.4-2.5,12.8-5.4,19.1-8.6c6.2-3.301,12.301-6.801,18.301-10.7c12-7.9,23.199-16.9,33.399-27.2c10.2-10.2,19.3-21.4,27.101-33.4
		c3.899-5.899,7.5-12.1,10.699-18.3c3.301-6.3,6.2-12.6,8.7-19.1c2.5-6.4,4.7-12.9,6.601-19.4c1.899-6.5,3.399-13,4.6-19.399
		c1.2-6.5,2-12.9,2.6-19.301C495.6,329.076,495.9,322.776,495.9,316.676"/>
</g>
<g>
	<defs>
		<polyline id="SVGID_3_" points="0,595.276 566.253,595.276 566.253,36.436 0,36.436 0,595.276 		"/>
	</defs>
	<clipPath id="SVGID_4_">
		<use xlink:href="#SVGID_3_"  overflow="visible"/>
	</clipPath>
	<path clip-path="url(#SVGID_4_)" fill-rule="evenodd" clip-rule="evenodd" fill="#FF7F00" d="M566.2,583.375
		c-0.2,1.801-0.2,3.5-0.2,5.301c0,1.8,0,3.5,0.2,5.199V583.375"/>
</g>
</svg>
