<?xml version="1.0" encoding="utf-8"?>
<!-- Generator: Adobe Illustrator 27.0.1, SVG Export Plug-In . SVG Version: 6.00 Build 0)  -->
<svg version="1.1" id="Layer_1" xmlns="http://www.w3.org/2000/svg" xmlns:xlink="http://www.w3.org/1999/xlink" x="0px" y="0px"
	 viewBox="0 0 425.2 425.2" style="enable-background:new 0 0 425.2 425.2;" xml:space="preserve">
<style type="text/css">
	.st0{fill:#FFCD00;}
	.st1{fill:#E4002B;}
	.st2{fill:#101820;}
</style>
<g id="CIRCLE_25_">
	<path class="st0" d="M411.02,212.6c0-109.59-88.83-198.43-198.42-198.43c-109.59,0-198.42,88.84-198.42,198.43
		c0,109.59,88.84,198.42,198.42,198.42C322.19,411.02,411.02,322.19,411.02,212.6L411.02,212.6z"/>
</g>
<g id="CIRCLE_24_">
	<path class="st1" d="M404.83,212.6c0-106.16-86.07-192.23-192.23-192.23c-106.16,0-192.22,86.06-192.22,192.23
		c0,106.16,86.06,192.22,192.22,192.22C318.76,404.83,404.83,318.76,404.83,212.6L404.83,212.6z"/>
</g>
<g id="CIRCLE_23_">
	<path class="st0" d="M364.52,212.6c0-83.9-68.02-151.92-151.92-151.92c-83.9,0-151.91,68.02-151.91,151.92
		c0,83.9,68.01,151.92,151.91,151.92C296.5,364.52,364.52,296.5,364.52,212.6L364.52,212.6z"/>
</g>
<g id="CIRCLE_21_">
	<path class="st2" d="M192.1,298.84c0-21.05-17.06-38.12-38.11-38.12s-38.12,17.06-38.12,38.12c0,21.05,17.07,38.12,38.12,38.12
		S192.1,319.89,192.1,298.84L192.1,298.84z"/>
</g>
<g id="ELLIPSE_6_">
	<path class="st0" d="M174.69,298.84c0-11.44-9.28-20.71-20.71-20.71c-11.44,0-20.71,9.27-20.71,20.71
		c0,11.44,9.27,20.71,20.71,20.71C165.42,319.55,174.69,310.28,174.69,298.84"/>
</g>
<g id="CIRCLE_26_">
	<path class="st2" d="M309.34,298.84c0-21.05-17.06-38.12-38.11-38.12c-21.06,0-38.12,17.06-38.12,38.12
		c0,21.05,17.06,38.12,38.12,38.12C292.27,336.96,309.34,319.89,309.34,298.84L309.34,298.84z"/>
</g>
<g id="ELLIPSE_7_">
	<path class="st0" d="M250.51,298.84c0-11.44,9.27-20.71,20.72-20.71c11.44,0,20.71,9.27,20.71,20.71
		c0,11.44-9.27,20.71-20.71,20.71C259.78,319.55,250.51,310.28,250.51,298.84"/>
</g>
<g id="LWPOLYLINE_24_">
	<path class="st2" d="M282.9,120.19h7.91v13.95h-7.91v33.95c0,4.37,3.54,7.91,7.91,7.91v13.95c-12.08,0-21.86-9.79-21.86-21.86
		v-33.95h-7.91v-13.95h7.91V96.93h13.95V120.19z"/>
</g>
<g id="LWPOLYLINE_23_">
	<polygon class="st0" points="196.24,157.39 214.85,124.71 214.85,157.39 	"/>
</g>
<g id="LWPOLYLINE_25_">
	<path class="st2" d="M197.75,306.78c0.95-5.71,0.95-11.54,0-17.24h29.69c-1.26,5.68-1.26,11.57,0,17.24H197.75z"/>
</g>
<g id="CIRCLE_22_">
	<path class="st2" d="M168.55,298.84c0-8.05-6.53-14.57-14.57-14.57c-8.05,0-14.57,6.52-14.57,14.57c0,8.04,6.52,14.57,14.57,14.57
		C162.03,313.41,168.55,306.89,168.55,298.84L168.55,298.84z"/>
</g>
<g id="LWPOLYLINE_26_">
	<path class="st2" d="M153.75,253.31c-24.98,0.05-45.2,20.31-45.21,45.28h-7.56c0-0.05,0-0.1,0-0.15
		c0.02-29.12,23.64-52.71,52.76-52.69h117.7c0.05,0,0.1,0,0.15,0c29.12,0.06,52.68,23.72,52.62,52.84h-7.57
		c-0.01-24.97-20.23-45.23-45.2-45.28H153.75z"/>
</g>
<g id="CIRCLE_27_">
	<path class="st2" d="M285.79,298.84c0-8.05-6.52-14.57-14.57-14.57c-8.05,0-14.57,6.52-14.57,14.57c0,8.04,6.52,14.57,14.57,14.57
		C279.27,313.41,285.79,306.89,285.79,298.84L285.79,298.84z"/>
</g>
<g id="LWPOLYLINE_27_">
	<polygon class="st2" points="175.4,199.24 212.6,236.45 249.8,199.24 	"/>
</g>
</svg>
