<?xml version="1.0" encoding="utf-8"?>
<!-- Generator: Adobe Illustrator 14.0.0, SVG Export Plug-In . SVG Version: 6.00 Build 43363)  -->
<!DOCTYPE svg PUBLIC "-//W3C//DTD SVG 1.1//EN" "http://www.w3.org/Graphics/SVG/1.1/DTD/svg11.dtd">
<svg version="1.1" id="Layer_1" xmlns="http://www.w3.org/2000/svg" xmlns:xlink="http://www.w3.org/1999/xlink" x="0px" y="0px"
	 width="595.276px" height="595.276px" viewBox="0 0 595.276 595.276" enable-background="new 0 0 595.276 595.276"
	 xml:space="preserve">
<g>
	<defs>
		<polyline id="SVGID_1_" points="0,595.276 595.396,595.276 595.396,-0.12 0,-0.12 0,595.276 		"/>
	</defs>
	<clipPath id="SVGID_2_">
		<use xlink:href="#SVGID_1_"  overflow="visible"/>
	</clipPath>
	
		<path clip-path="url(#SVGID_2_)" fill="none" stroke="#FFFF00" stroke-width="0.12" stroke-linejoin="bevel" stroke-miterlimit="1.414" d="
		M577.3,295.776c0-36.8-7.301-73.3-21.4-107.3s-34.7-65-60.8-91c-26-26.1-56.9-46.7-91-60.8c-34-14.1-70.5-21.4-107.3-21.4
		c-36.8,0-73.3,7.3-107.3,21.4c-34.1,14.1-65,34.7-91,60.8c-26.1,26-46.8,57-60.8,91c-14.1,34-21.4,70.5-21.4,107.3
		c0,36.9,7.3,73.3,21.4,107.4c14,34,34.7,64.899,60.8,91c26,26,56.9,46.699,91,60.8c34,14.1,70.5,21.3,107.3,21.3
		c36.8,0,73.3-7.2,107.3-21.3c34.1-14.101,65-34.8,91-60.8c26.1-26.101,46.7-57,60.8-91C570,369.076,577.3,332.676,577.3,295.776"/>
	
		<path clip-path="url(#SVGID_2_)" fill="none" stroke="#FFFF00" stroke-width="0.12" stroke-linejoin="bevel" stroke-miterlimit="1.414" d="
		M568.5,295.776c0-35.7-7-71-20.699-104c-13.601-32.9-33.601-62.9-58.9-88.1c-25.2-25.3-55.2-45.3-88.1-58.9
		c-33-13.7-68.301-20.7-104-20.7s-71,7-104,20.7c-33,13.6-62.9,33.6-88.1,58.9c-25.3,25.2-45.3,55.2-59,88.1
		c-13.6,33-20.6,68.3-20.6,104s7,71,20.6,104c13.7,33,33.7,62.9,59,88.2c25.2,25.2,55.1,45.2,88.1,58.899
		c33,13.601,68.3,20.7,104,20.7s71-7.1,104-20.7c32.899-13.699,62.899-33.699,88.1-58.899c25.3-25.3,45.3-55.2,58.9-88.2
		C561.5,366.776,568.5,331.476,568.5,295.776"/>
	
		<path clip-path="url(#SVGID_2_)" fill="none" stroke="#FFFF00" stroke-width="0.12" stroke-linejoin="bevel" stroke-miterlimit="1.414" d="
		M511.5,295.776c0-28.2-5.5-56.1-16.3-82.2c-10.8-26-26.6-49.7-46.6-69.6c-19.9-20-43.601-35.8-69.601-46.6
		c-26.1-10.8-54-16.3-82.2-16.3s-56.1,5.5-82.2,16.3c-26,10.8-49.7,26.6-69.7,46.6c-19.9,19.9-35.7,43.6-46.5,69.6
		c-10.8,26.1-16.4,54-16.4,82.2s5.6,56.2,16.4,82.2c10.8,26.1,26.6,49.7,46.5,69.7c20,19.899,43.7,35.699,69.7,46.5
		c26.1,10.8,54,16.399,82.2,16.399s56.1-5.6,82.2-16.399c26-10.801,49.7-26.601,69.601-46.5c20-20,35.8-43.601,46.6-69.7
		C506,351.976,511.5,323.976,511.5,295.776"/>
	
		<path clip-path="url(#SVGID_2_)" fill="none" stroke="#FFFF00" stroke-width="0.12" stroke-linejoin="bevel" stroke-miterlimit="1.414" d="
		M314.3,354.976c0,9.5,1.899,18.899,5.5,27.7c3.699,8.699,9,16.699,15.699,23.399c6.7,6.7,14.7,12.101,23.5,15.7
		c8.7,3.6,18.101,5.5,27.601,5.5s18.899-1.9,27.7-5.5c8.8-3.6,16.8-9,23.5-15.7c6.699-6.7,12-14.7,15.699-23.399
		c3.601-8.801,5.5-18.2,5.5-27.7"/>
	
		<line clip-path="url(#SVGID_2_)" fill="none" stroke="#FFFF00" stroke-width="0.12" stroke-linejoin="bevel" stroke-miterlimit="1.414" x1="459" y1="354.976" x2="459" y2="236.676"/>
	
		<path clip-path="url(#SVGID_2_)" fill="none" stroke="#FFFF00" stroke-width="0.12" stroke-linejoin="bevel" stroke-miterlimit="1.414" d="
		M459,236.676c0-9.5-1.899-18.9-5.5-27.7c-3.699-8.8-9-16.8-15.699-23.5c-6.7-6.7-14.7-12-23.5-15.7c-8.801-3.6-18.2-5.5-27.7-5.5
		s-18.9,1.9-27.601,5.5c-8.8,3.7-16.8,9-23.5,15.7c-6.699,6.7-12,14.7-15.699,23.5c-3.601,8.8-5.5,18.2-5.5,27.7"/>
	
		<line clip-path="url(#SVGID_2_)" fill="none" stroke="#FFFF00" stroke-width="0.12" stroke-linejoin="bevel" stroke-miterlimit="1.414" x1="314.3" y1="236.676" x2="314.3" y2="354.976"/>
	
		<line clip-path="url(#SVGID_2_)" fill="none" stroke="#FFFF00" stroke-width="0.12" stroke-linejoin="bevel" stroke-miterlimit="1.414" x1="137.3" y1="354.976" x2="137.3" y2="313.875"/>
	
		<path clip-path="url(#SVGID_2_)" fill="none" stroke="#FFFF00" stroke-width="0.12" stroke-linejoin="bevel" stroke-miterlimit="1.414" d="
		M137.3,313.875c4.6-27.3,12.7-53.8,23.9-79c11.3-25.2,25.6-48.9,42.7-70.6"/>
	
		<line clip-path="url(#SVGID_2_)" fill="none" stroke="#FFFF00" stroke-width="0.12" stroke-linejoin="bevel" stroke-miterlimit="1.414" x1="203.9" y1="164.276" x2="256.5" y2="164.276"/>
	
		<path clip-path="url(#SVGID_2_)" fill="none" stroke="#FFFF00" stroke-width="0.12" stroke-linejoin="bevel" stroke-miterlimit="1.414" d="
		M256.5,164.276c-15.1,15.3-28.5,32.2-39.9,50.4c-11.4,18.2-20.8,37.7-28,57.9"/>
	
		<path clip-path="url(#SVGID_2_)" fill="none" stroke="#FFFF00" stroke-width="0.12" stroke-linejoin="bevel" stroke-miterlimit="1.414" d="
		M188.6,272.576c10.8-3.2,22.2-3.9,33.4-2c11.1,1.9,21.6,6.4,30.7,13.2c9,6.7,16.4,15.5,21.5,25.5c5.1,10.1,7.7,21.3,7.7,32.5"/>
	
		<line clip-path="url(#SVGID_2_)" fill="none" stroke="#FFFF00" stroke-width="0.12" stroke-linejoin="bevel" stroke-miterlimit="1.414" x1="281.9" y1="341.776" x2="281.9" y2="354.976"/>
	
		<path clip-path="url(#SVGID_2_)" fill="none" stroke="#FFFF00" stroke-width="0.12" stroke-linejoin="bevel" stroke-miterlimit="1.414" d="
		M281.9,354.976c0,9.5-1.9,18.899-5.5,27.7c-3.6,8.699-9,16.699-15.7,23.399c-6.7,6.7-14.7,12.101-23.4,15.7
		c-8.8,3.6-18.2,5.5-27.7,5.5s-18.9-1.9-27.7-5.5c-8.8-3.6-16.7-9-23.5-15.7c-6.7-6.7-12-14.7-15.6-23.399
		c-3.7-8.801-5.5-18.2-5.5-27.7"/>
	
		<line clip-path="url(#SVGID_2_)" fill="none" stroke="#FFFF00" stroke-width="0.12" stroke-linejoin="bevel" stroke-miterlimit="1.414" x1="176.7" y1="341.776" x2="176.7" y2="354.976"/>
	
		<path clip-path="url(#SVGID_2_)" fill="none" stroke="#FFFF00" stroke-width="0.12" stroke-linejoin="bevel" stroke-miterlimit="1.414" d="
		M176.7,354.976c0,8.7,3.5,17.1,9.6,23.2c6.2,6.199,14.6,9.699,23.3,9.699c8.7,0,17.1-3.5,23.2-9.699c6.2-6.101,9.6-14.5,9.6-23.2"
		/>
	
		<line clip-path="url(#SVGID_2_)" fill="none" stroke="#FFFF00" stroke-width="0.12" stroke-linejoin="bevel" stroke-miterlimit="1.414" x1="242.4" y1="354.976" x2="242.4" y2="341.776"/>
	
		<path clip-path="url(#SVGID_2_)" fill="none" stroke="#FFFF00" stroke-width="0.12" stroke-linejoin="bevel" stroke-miterlimit="1.414" d="
		M242.4,341.776c0-8.7-3.4-17-9.6-23.2c-6.1-6.2-14.5-9.6-23.2-9.6c-8.7,0-17.1,3.399-23.3,9.6c-6.1,6.2-9.6,14.5-9.6,23.2"/>
	
		<path clip-path="url(#SVGID_2_)" fill="none" stroke="#FFFF00" stroke-width="0.12" stroke-linejoin="bevel" stroke-miterlimit="1.414" d="
		M353.8,354.976c0,8.7,3.399,17.1,9.6,23.2c6.2,6.199,14.5,9.699,23.2,9.699c8.8,0,17.1-3.5,23.3-9.699c6.1-6.101,9.6-14.5,9.6-23.2
		"/>
	
		<line clip-path="url(#SVGID_2_)" fill="none" stroke="#FFFF00" stroke-width="0.12" stroke-linejoin="bevel" stroke-miterlimit="1.414" x1="419.5" y1="354.976" x2="419.5" y2="236.676"/>
	
		<path clip-path="url(#SVGID_2_)" fill="none" stroke="#FFFF00" stroke-width="0.12" stroke-linejoin="bevel" stroke-miterlimit="1.414" d="
		M419.5,236.676c0-8.8-3.5-17.1-9.6-23.3c-6.2-6.2-14.5-9.6-23.3-9.6c-8.7,0-17,3.4-23.2,9.6c-6.2,6.2-9.6,14.5-9.6,23.3"/>
	
		<line clip-path="url(#SVGID_2_)" fill="none" stroke="#FFFF00" stroke-width="0.12" stroke-linejoin="bevel" stroke-miterlimit="1.414" x1="353.8" y1="236.676" x2="353.8" y2="354.976"/>
	<path clip-path="url(#SVGID_2_)" fill-rule="evenodd" clip-rule="evenodd" fill="#FFFF00" d="M25.1,295.776c0-8,0.3-16.1,1.1-24.4
		c0.7-8.3,1.8-16.6,3.4-25s3.5-16.9,6-25.3c2.4-8.5,5.2-16.9,8.5-25.3c3.4-8.4,7.1-16.6,11.3-24.8c4.2-8.1,8.9-16.1,14-23.9
		c10.1-15.5,22-30.1,35.3-43.4c13.3-13.3,27.8-25.1,43.4-35.3c7.8-5.1,15.8-9.7,23.9-14c8.1-4.2,16.4-7.9,24.8-11.2
		c8.3-3.3,16.8-6.2,25.2-8.6c8.5-2.4,16.9-4.4,25.4-6c8.4-1.5,16.7-2.7,25-3.4c8.2-0.8,16.4-1.1,24.4-1.1c8,0,16.2,0.3,24.4,1.1
		c8.3,0.7,16.601,1.9,25,3.4c8.5,1.6,16.9,3.6,25.4,6c8.399,2.4,16.899,5.3,25.2,8.6c8.399,3.3,16.699,7,24.8,11.2
		c8.1,4.3,16.1,8.9,23.899,14c15.601,10.2,30.101,22,43.4,35.3c13.3,13.3,25.1,27.9,35.3,43.4c5.101,7.8,9.8,15.8,14,23.9
		c4.2,8.2,7.9,16.4,11.2,24.8c3.4,8.4,6.2,16.8,8.6,25.3c2.5,8.4,4.4,16.9,6,25.3c1.5,8.4,2.7,16.7,3.4,25
		c0.8,8.3,1.1,16.4,1.1,24.4s-0.3,16.2-1.1,24.4c-0.7,8.3-1.9,16.699-3.4,25.1c-1.6,8.4-3.5,16.8-6,25.3
		c-2.399,8.4-5.199,16.9-8.6,25.2c-3.3,8.4-7,16.7-11.2,24.8c-4.2,8.2-8.899,16.101-14,23.9c-10.2,15.6-22,30.2-35.3,43.5
		s-27.8,25.1-43.4,35.3c-7.8,5-15.8,9.7-23.899,13.9c-8.101,4.199-16.4,8-24.8,11.3c-8.301,3.3-16.801,6.1-25.2,8.6
		c-8.5,2.4-16.9,4.4-25.4,5.9c-8.399,1.6-16.7,2.7-25,3.5c-8.2,0.7-16.399,1.1-24.4,1.1c-8,0-16.2-0.399-24.4-1.1
		c-8.3-0.8-16.6-1.9-25-3.5c-8.5-1.5-16.9-3.5-25.4-5.9c-8.4-2.5-16.9-5.3-25.2-8.6c-8.4-3.3-16.7-7.101-24.8-11.3
		c-8.1-4.2-16.1-8.9-23.9-13.9c-15.6-10.2-30.1-22-43.4-35.3c-13.3-13.3-25.2-27.9-35.3-43.5c-5.1-7.8-9.8-15.7-14-23.9
		c-4.2-8.1-7.9-16.399-11.3-24.8c-3.3-8.3-6.1-16.8-8.5-25.2c-2.5-8.5-4.4-16.899-6-25.3s-2.7-16.8-3.4-25.1
		C25.4,311.976,25.1,303.776,25.1,295.776 M577.3,295.776c0-8.2-0.4-16.7-1.101-25.2c-0.8-8.5-2-17.1-3.6-25.8
		c-1.601-8.7-3.601-17.4-6.101-26.2c-2.5-8.7-5.5-17.4-8.899-26c-3.4-8.7-7.3-17.2-11.601-25.6c-4.399-8.4-9.199-16.6-14.399-24.7
		c-10.5-16-22.7-31.1-36.5-44.8c-13.7-13.7-28.7-25.9-44.8-36.5c-8-5.2-16.301-10-24.7-14.3c-8.4-4.4-16.9-8.3-25.601-11.7
		c-8.6-3.4-17.3-6.3-26-8.8c-8.8-2.5-17.5-4.6-26.199-6.2c-8.7-1.6-17.301-2.8-25.801-3.5c-8.5-0.8-16.899-1.2-25.2-1.2
		c-8.3,0-16.7,0.4-25.2,1.2c-8.5,0.7-17.2,1.9-25.8,3.5c-8.7,1.6-17.5,3.7-26.2,6.2c-8.7,2.5-17.4,5.4-26.1,8.8
		c-8.6,3.4-17.1,7.3-25.5,11.7c-8.4,4.3-16.7,9.1-24.7,14.3c-16.1,10.6-31.1,22.8-44.8,36.5c-13.8,13.7-26,28.8-36.5,44.8
		c-5.2,8.1-10,16.3-14.4,24.7c-4.3,8.4-8.2,16.9-11.6,25.6c-3.4,8.6-6.4,17.3-8.9,26c-2.5,8.8-4.5,17.5-6.1,26.2s-2.8,17.3-3.6,25.8
		c-0.7,8.5-1.1,17-1.1,25.2c0,8.3,0.4,16.7,1.1,25.2c0.8,8.6,2,17.2,3.6,25.899c1.6,8.601,3.6,17.4,6.1,26.101s5.5,17.399,8.9,26.1
		c3.4,8.601,7.3,17.2,11.6,25.601c4.4,8.399,9.2,16.6,14.4,24.6c10.5,16.1,22.7,31.1,36.5,44.9c13.7,13.699,28.7,25.899,44.8,36.399
		c8,5.2,16.3,10,24.7,14.4c8.4,4.3,16.9,8.2,25.5,11.6c8.7,3.4,17.4,6.4,26.1,8.9c8.7,2.5,17.5,4.5,26.2,6.1
		c8.6,1.601,17.3,2.8,25.8,3.601c8.5,0.8,16.9,1.1,25.2,1.1c8.3,0,16.7-0.3,25.2-1.1c8.5-0.801,17.101-2,25.801-3.601
		c8.699-1.6,17.399-3.6,26.199-6.1c8.7-2.5,17.4-5.5,26-8.9c8.7-3.399,17.2-7.3,25.601-11.6c8.399-4.4,16.7-9.2,24.7-14.4
		c16.1-10.5,31.1-22.7,44.8-36.399c13.8-13.801,26-28.801,36.5-44.9c5.2-8,10-16.2,14.399-24.6c4.301-8.5,8.2-17,11.601-25.601
		c3.399-8.7,6.399-17.399,8.899-26.1s4.5-17.4,6.101-26.101c1.6-8.699,2.8-17.3,3.6-25.899
		C576.9,312.476,577.3,304.076,577.3,295.776"/>
	<path clip-path="url(#SVGID_2_)" fill-rule="evenodd" clip-rule="evenodd" fill="#FFFF00" d="M137.3,354.976v-41.101
		c2.3-13.5,5.4-26.899,9.4-40.1s8.9-26.2,14.5-38.9c5.7-12.6,12.1-24.9,19.3-36.7c7.1-11.9,15-23.1,23.4-33.9h52.6
		c-7.5,7.6-14.6,15.6-21.3,24.1c-6.7,8.4-12.9,17.2-18.6,26.3c-11.5,18.4-20.9,37.8-28,57.9c2.3-0.7,4.7-1.3,7.2-1.8
		c2.5-0.4,5.1-0.8,7.8-1c2.6-0.2,5.3-0.3,8.1-0.2c2.7,0,5.5,0.3,8.4,0.7c5.6,0.8,11.3,2.3,16.8,4.6c5.6,2.3,10.9,5.2,15.8,8.9
		c4.9,3.6,9.2,7.8,13,12.5c3.8,4.6,6.9,9.6,9.3,14.8c1.2,2.601,2.3,5.2,3.2,7.8c0.8,2.601,1.5,5.2,2.1,7.801
		c0.6,2.6,1,5.199,1.2,7.699c0.3,2.5,0.4,5,0.4,7.4v13.2c0,9.5-1.9,18.899-5.5,27.7c-3.6,8.699-9,16.699-15.7,23.399
		c-6.7,6.7-14.7,12.101-23.4,15.7c-8.8,3.6-18.2,5.5-27.7,5.5c-4.3,0-8.7-0.4-13.2-1.2s-9-2.1-13.4-3.899c-4.5-1.7-8.8-4-13-6.7
		c-4.1-2.7-8-5.8-11.6-9.4c-3.5-3.5-6.6-7.399-9.3-11.5c-2.8-4.2-5-8.5-6.8-13c-1.7-4.5-3-9-3.8-13.5
		C137.6,363.676,137.3,359.276,137.3,354.976 M314.3,236.676c0-9.5,1.899-18.9,5.5-27.7c3.699-8.8,9-16.8,15.699-23.5
		c6.7-6.7,14.7-12,23.5-15.7c8.7-3.6,18.101-5.5,27.601-5.5c4.3,0,8.7,0.4,13.2,1.2c4.5,0.9,9,2.2,13.5,3.9
		c4.399,1.8,8.8,4,12.899,6.7c4.2,2.7,8,5.9,11.601,9.4c3.5,3.6,6.699,7.4,9.399,11.6c2.7,4.1,4.9,8.5,6.7,12.9
		c1.7,4.5,3,9,3.8,13.5c0.9,4.5,1.3,8.9,1.3,13.2v118.3c0,9.5-1.899,18.899-5.5,27.7c-3.699,8.699-9,16.699-15.699,23.399
		c-6.7,6.7-14.7,12.101-23.5,15.7c-8.801,3.6-18.2,5.5-27.7,5.5c-4.2,0-8.601-0.4-13.101-1.2s-9-2.1-13.5-3.899
		c-4.399-1.7-8.8-4-12.899-6.7c-4.2-2.7-8.101-5.8-11.601-9.4c-3.5-3.5-6.699-7.399-9.399-11.5c-2.7-4.2-4.9-8.5-6.7-13
		s-3-9-3.9-13.5c-0.8-4.399-1.199-8.8-1.199-13.1V236.676 M511.5,295.776c0-6.3-0.199-12.7-0.8-19.3c-0.6-6.5-1.5-13.1-2.7-19.8
		c-1.3-6.6-2.8-13.3-4.699-20c-2-6.7-4.2-13.3-6.801-19.9c-2.6-6.6-5.6-13.2-8.899-19.6c-3.4-6.4-7-12.8-11.101-18.9
		c-8-12.3-17.3-23.8-27.899-34.3c-10.5-10.5-22-19.9-34.3-27.9c-6.101-4-12.4-7.7-18.9-11c-6.4-3.4-12.9-6.3-19.6-9
		c-6.601-2.6-13.2-4.8-19.9-6.7c-6.7-2-13.4-3.5-20-4.7c-6.7-1.3-13.3-2.2-19.8-2.8s-13-0.8-19.3-0.8c-6.3,0-12.8,0.2-19.3,0.8
		s-13.1,1.5-19.8,2.8c-6.6,1.2-13.3,2.7-20,4.7c-6.7,1.9-13.3,4.1-20,6.7c-6.6,2.7-13.1,5.6-19.5,9c-6.5,3.3-12.8,7-18.9,11
		c-12.3,8-23.8,17.4-34.4,27.9c-10.5,10.5-19.8,22-27.9,34.3c-4,6.1-7.6,12.5-11,18.9c-3.3,6.4-6.3,13-8.9,19.6s-4.9,13.2-6.8,19.9
		c-1.9,6.7-3.4,13.4-4.7,20c-1.2,6.7-2.1,13.3-2.7,19.8c-0.6,6.6-0.9,13-0.9,19.3c0,6.4,0.3,12.8,0.9,19.3s1.5,13.2,2.7,19.8
		c1.3,6.7,2.8,13.301,4.7,20c1.9,6.7,4.2,13.4,6.8,20c2.6,6.601,5.6,13.101,8.9,19.601c3.4,6.399,7,12.7,11,18.8
		c8.1,12.3,17.4,23.9,27.9,34.4c10.6,10.5,22.1,19.8,34.4,27.899c6.1,4,12.4,7.7,18.9,11c6.4,3.3,12.9,6.3,19.5,8.9
		c6.7,2.6,13.3,4.899,20,6.8c6.7,1.9,13.4,3.5,20,4.7c6.7,1.2,13.3,2.1,19.8,2.7c6.5,0.6,13,0.899,19.3,0.899
		c6.3,0,12.8-0.3,19.3-0.899c6.5-0.601,13.1-1.5,19.8-2.7c6.6-1.2,13.3-2.8,20-4.7s13.3-4.2,19.9-6.8
		c6.699-2.601,13.199-5.601,19.6-8.9c6.5-3.3,12.8-7,18.9-11c12.3-8.1,23.8-17.399,34.3-27.899c10.6-10.5,19.899-22.101,27.899-34.4
		c4.101-6.1,7.7-12.4,11.101-18.8c3.3-6.5,6.3-13,8.899-19.601c2.601-6.6,4.801-13.3,6.801-20c1.899-6.699,3.399-13.3,4.699-20
		c1.2-6.699,2.101-13.3,2.7-19.8C511.3,308.576,511.5,302.176,511.5,295.776"/>
	<path clip-path="url(#SVGID_2_)" fill-rule="evenodd" clip-rule="evenodd" fill="#FFFF00" d="M176.7,341.776v13.2
		c0,1.899,0.2,3.899,0.6,6c0.3,2,0.9,4.1,1.7,6.1c1.6,4.101,4.1,7.9,7.3,11.101c3.3,3.3,7.1,5.699,11.2,7.399c2,0.8,4.1,1.3,6.1,1.7
		s4,0.6,6,0.6c1.9,0,3.9-0.199,6-0.6c2-0.4,4.1-0.9,6.1-1.7c4.1-1.7,7.9-4.1,11.1-7.399c3.3-3.2,5.7-7,7.3-11.101
		c0.8-2,1.4-4.1,1.8-6.1c0.4-2.101,0.5-4.101,0.5-6v-13.2c0-1.9-0.1-3.9-0.5-5.9c-0.4-2.1-1-4.1-1.8-6.199c-1.6-4-4-7.9-7.3-11.101
		c-3.2-3.2-7-5.7-11.1-7.3c-2-0.8-4.1-1.4-6.1-1.8c-2.1-0.4-4.1-0.5-6-0.5c-8.7,0-17.1,3.399-23.3,9.6
		C180.2,324.776,176.7,333.076,176.7,341.776"/>
	<path clip-path="url(#SVGID_2_)" fill-rule="evenodd" clip-rule="evenodd" fill="#FFFF00" d="M353.8,354.976
		c0,8.7,3.399,17.1,9.6,23.2c6.2,6.199,14.5,9.699,23.2,9.699c2,0,4-0.199,6-0.6c2.1-0.4,4.1-0.9,6.1-1.7
		c4.101-1.7,7.9-4.1,11.2-7.399c3.2-3.2,5.7-7,7.3-11.101c0.8-2,1.4-4.1,1.8-6.1c0.301-2.101,0.5-4.101,0.5-6v-118.3
		c0-8.8-3.5-17.1-9.6-23.3c-6.2-6.2-14.5-9.6-23.3-9.6c-1.9,0-3.9,0.2-5.9,0.5c-2.1,0.4-4.1,1-6.2,1.8c-4,1.6-7.899,4.1-11.1,7.3
		c-3.2,3.3-5.7,7.1-7.3,11.2c-0.8,2-1.4,4-1.8,6.1c-0.4,2-0.5,4-0.5,6V354.976"/>
	<path clip-path="url(#SVGID_2_)" fill-rule="evenodd" clip-rule="evenodd" fill="#FF0000" d="M82,295.776c0-6.3,0.3-12.7,0.9-19.3
		c0.6-6.5,1.5-13.1,2.7-19.8c1.3-6.6,2.8-13.3,4.7-20c1.9-6.7,4.2-13.3,6.8-19.9s5.6-13.2,8.9-19.6c3.4-6.4,7-12.8,11-18.9
		c8.1-12.3,17.4-23.8,27.9-34.3c10.6-10.5,22.1-19.9,34.4-27.9c6.1-4,12.4-7.7,18.9-11c6.4-3.4,12.9-6.3,19.5-9
		c6.7-2.6,13.3-4.8,20-6.7c6.7-2,13.4-3.5,20-4.7c6.7-1.3,13.3-2.2,19.8-2.8s13-0.8,19.3-0.8c6.3,0,12.8,0.2,19.3,0.8
		s13.1,1.5,19.8,2.8c6.6,1.2,13.3,2.7,20,4.7c6.7,1.9,13.3,4.1,19.9,6.7c6.699,2.7,13.199,5.6,19.6,9c6.5,3.3,12.8,7,18.9,11
		c12.3,8,23.8,17.4,34.3,27.9c10.6,10.5,19.899,22,27.899,34.3c4.101,6.1,7.7,12.5,11.101,18.9c3.3,6.4,6.3,13,8.899,19.6
		c2.601,6.6,4.801,13.2,6.801,19.9c1.899,6.7,3.399,13.4,4.699,20c1.2,6.7,2.101,13.3,2.7,19.8c0.601,6.6,0.8,13,0.8,19.3
		c0,6.4-0.199,12.8-0.8,19.3c-0.6,6.5-1.5,13.101-2.7,19.8c-1.3,6.601-2.8,13.301-4.699,20c-2,6.7-4.2,13.4-6.801,20
		c-2.6,6.601-5.6,13.101-8.899,19.601c-3.4,6.399-7,12.7-11.101,18.8c-8,12.3-17.3,23.9-27.899,34.4c-10.5,10.5-22,19.8-34.3,27.899
		c-6.101,4-12.4,7.7-18.9,11c-6.4,3.3-12.9,6.3-19.6,8.9c-6.601,2.6-13.2,4.899-19.9,6.8s-13.4,3.5-20,4.7
		c-6.7,1.2-13.3,2.1-19.8,2.7c-6.5,0.6-13,0.899-19.3,0.899c-6.3,0-12.8-0.3-19.3-0.899c-6.5-0.601-13.1-1.5-19.8-2.7
		c-6.6-1.2-13.3-2.8-20-4.7c-6.7-1.9-13.3-4.2-20-6.8c-6.6-2.601-13.1-5.601-19.5-8.9c-6.5-3.3-12.8-7-18.9-11
		c-12.3-8.1-23.8-17.399-34.4-27.899c-10.5-10.5-19.8-22.101-27.9-34.4c-4-6.1-7.6-12.4-11-18.8c-3.3-6.5-6.3-13-8.9-19.601
		c-2.6-6.6-4.9-13.3-6.8-20c-1.9-6.699-3.4-13.3-4.7-20c-1.2-6.6-2.1-13.3-2.7-19.8S82,302.176,82,295.776 M568.5,295.776
		c0-8-0.3-16.1-1.1-24.4c-0.7-8.3-1.9-16.6-3.4-25c-1.6-8.4-3.5-16.9-6-25.3c-2.399-8.5-5.199-16.9-8.6-25.3
		c-3.3-8.4-7-16.6-11.2-24.8c-4.2-8.1-8.899-16.1-14-23.9c-10.2-15.5-22-30.1-35.3-43.4c-13.3-13.3-27.8-25.1-43.4-35.3
		c-7.8-5.1-15.8-9.7-23.899-14c-8.101-4.2-16.4-7.9-24.8-11.2c-8.301-3.3-16.801-6.2-25.2-8.6c-8.5-2.4-16.9-4.4-25.4-6
		c-8.399-1.5-16.7-2.7-25-3.4c-8.2-0.8-16.399-1.1-24.4-1.1c-8,0-16.2,0.3-24.4,1.1c-8.3,0.7-16.6,1.9-25,3.4
		c-8.5,1.6-16.9,3.6-25.4,6c-8.4,2.4-16.9,5.3-25.2,8.6c-8.4,3.3-16.7,7-24.8,11.2c-8.1,4.3-16.1,8.9-23.9,14
		c-15.6,10.2-30.1,22-43.4,35.3c-13.3,13.3-25.2,27.9-35.3,43.4c-5.1,7.8-9.8,15.8-14,23.9c-4.2,8.2-7.9,16.4-11.3,24.8
		c-3.3,8.4-6.1,16.8-8.5,25.3c-2.5,8.4-4.4,16.9-6,25.3s-2.7,16.7-3.4,25c-0.8,8.3-1.1,16.4-1.1,24.4s0.3,16.2,1.1,24.4
		c0.7,8.3,1.8,16.699,3.4,25.1s3.5,16.8,6,25.3c2.4,8.4,5.2,16.9,8.5,25.2c3.4,8.4,7.1,16.7,11.3,24.8c4.2,8.2,8.9,16.101,14,23.9
		c10.1,15.6,22,30.2,35.3,43.5c13.3,13.3,27.8,25.1,43.4,35.3c7.8,5,15.8,9.7,23.9,13.9c8.1,4.199,16.4,8,24.8,11.3
		c8.3,3.3,16.8,6.1,25.2,8.6c8.5,2.4,16.9,4.4,25.4,5.9c8.4,1.6,16.7,2.7,25,3.5c8.2,0.7,16.4,1.1,24.4,1.1c8,0,16.2-0.399,24.4-1.1
		c8.3-0.8,16.601-1.9,25-3.5c8.5-1.5,16.9-3.5,25.4-5.9c8.399-2.5,16.899-5.3,25.2-8.6c8.399-3.3,16.699-7.101,24.8-11.3
		c8.1-4.2,16.1-8.9,23.899-13.9c15.601-10.2,30.101-22,43.4-35.3s25.1-27.9,35.3-43.5c5.101-7.8,9.8-15.7,14-23.9
		c4.2-8.1,7.9-16.399,11.2-24.8c3.4-8.3,6.2-16.8,8.6-25.2c2.5-8.5,4.4-16.899,6-25.3c1.5-8.4,2.7-16.8,3.4-25.1
		C568.2,311.976,568.5,303.776,568.5,295.776"/>
	
		<path clip-path="url(#SVGID_2_)" fill="none" stroke="#FFFF00" stroke-width="0.12" stroke-linejoin="bevel" stroke-miterlimit="1.414" d="
		M568.5,295.776c0-35.7-7-71-20.699-104c-13.601-32.9-33.601-62.9-58.9-88.1c-25.2-25.3-55.2-45.3-88.1-58.9
		c-33-13.7-68.301-20.7-104-20.7s-71,7-104,20.7c-33,13.6-62.9,33.6-88.1,58.9c-25.3,25.2-45.3,55.2-59,88.1
		c-13.6,33-20.6,68.3-20.6,104s7,71,20.6,104c13.7,33,33.7,62.9,59,88.2c25.2,25.2,55.1,45.2,88.1,58.899
		c33,13.601,68.3,20.7,104,20.7s71-7.1,104-20.7c32.899-13.699,62.899-33.699,88.1-58.899c25.3-25.3,45.3-55.2,58.9-88.2
		C561.5,366.776,568.5,331.476,568.5,295.776"/>
	
		<path clip-path="url(#SVGID_2_)" fill="none" stroke="#FFFF00" stroke-width="0.12" stroke-linejoin="bevel" stroke-miterlimit="1.414" d="
		M82,295.776c0-28.2,5.6-56.1,16.4-82.2c10.8-26,26.6-49.7,46.5-69.6c20-20,43.7-35.8,69.7-46.6c26.1-10.8,54-16.3,82.2-16.3
		s56.1,5.5,82.2,16.3c26,10.8,49.7,26.6,69.601,46.6c20,19.9,35.8,43.6,46.6,69.6c10.8,26.1,16.3,54,16.3,82.2s-5.5,56.2-16.3,82.2
		c-10.8,26.1-26.6,49.7-46.6,69.7C428.7,467.576,405,483.375,379,494.176c-26.1,10.8-54,16.399-82.2,16.399s-56.1-5.6-82.2-16.399
		c-26-10.801-49.7-26.601-69.7-46.5c-19.9-20-35.7-43.601-46.5-69.7C87.6,351.976,82,323.976,82,295.776"/>
	<path clip-path="url(#SVGID_2_)" fill-rule="evenodd" clip-rule="evenodd" fill="#FFFF00" d="M242.4,341.776v13.2
		c0,8.7-3.4,17.1-9.6,23.2c-6.1,6.199-14.5,9.699-23.2,9.699c-2,0-4-0.199-6-0.6s-4.1-0.9-6.1-1.7c-4.1-1.7-7.9-4.1-11.2-7.399
		c-3.2-3.2-5.7-7-7.3-11.101c-0.8-2-1.4-4.1-1.7-6.1c-0.4-2.101-0.6-4.101-0.6-6v-13.2c0-8.7,3.5-17,9.6-23.2
		c6.2-6.2,14.6-9.6,23.3-9.6c1.9,0,3.9,0.1,6,0.5c2,0.399,4.1,1,6.1,1.8c4.1,1.6,7.9,4.1,11.1,7.3c3.3,3.2,5.7,7.101,7.3,11.101
		c0.8,2.1,1.4,4.1,1.8,6.199C242.3,337.875,242.4,339.875,242.4,341.776 M281.9,354.976v-13.2c0-2.4-0.1-4.9-0.4-7.4
		c-0.2-2.5-0.6-5.1-1.2-7.699c-0.6-2.601-1.3-5.2-2.1-7.801c-0.9-2.6-2-5.199-3.2-7.8c-2.4-5.2-5.5-10.2-9.3-14.8
		c-3.8-4.7-8.1-8.9-13-12.5c-4.9-3.7-10.2-6.6-15.8-8.9c-5.5-2.3-11.2-3.8-16.8-4.6c-2.9-0.4-5.7-0.7-8.4-0.7
		c-2.8-0.1-5.5,0-8.1,0.2c-2.7,0.2-5.3,0.6-7.8,1c-2.5,0.5-4.9,1.1-7.2,1.8c7.1-20.1,16.5-39.5,28-57.9
		c11.5-18.3,24.9-35.2,39.9-50.4h-52.6c-8.4,10.8-16.3,22-23.4,33.9c-7.2,11.8-13.6,24.1-19.3,36.7c-5.6,12.7-10.5,25.7-14.5,38.9
		s-7.1,26.6-9.4,40.1v41.101c0,4.3,0.3,8.7,1.2,13.1c0.8,4.5,2.1,9,3.8,13.5c1.8,4.5,4,8.8,6.8,13c2.7,4.101,5.8,8,9.3,11.5
		c3.6,3.601,7.5,6.7,11.6,9.4c4.2,2.7,8.5,5,13,6.7c4.4,1.8,8.9,3.1,13.4,3.899s8.9,1.2,13.2,1.2c4.2,0,8.7-0.4,13.1-1.2
		c4.5-0.8,9-2.1,13.5-3.899c4.5-1.7,8.8-4,13-6.7c4.1-2.7,8-5.8,11.5-9.4c3.6-3.5,6.7-7.399,9.4-11.5c2.7-4.2,5-8.5,6.7-13
		c1.8-4.5,3.1-9,3.9-13.5C281.5,363.676,281.9,359.276,281.9,354.976"/>
	<path clip-path="url(#SVGID_2_)" fill-rule="evenodd" clip-rule="evenodd" fill="#FFFF00" d="M353.8,236.676c0-2,0.1-4,0.5-6
		c0.399-2.1,1-4.1,1.8-6.1c1.6-4.1,4.1-7.9,7.3-11.2c3.2-3.2,7.1-5.7,11.1-7.3c2.101-0.8,4.101-1.4,6.2-1.8c2-0.3,4-0.5,5.9-0.5
		c2,0,4,0.2,6,0.5c2.1,0.4,4.1,1,6.1,1.8c4.101,1.6,7.9,4.1,11.2,7.3c3.2,3.3,5.7,7.1,7.3,11.2c0.8,2,1.4,4,1.8,6.1
		c0.301,2,0.5,4,0.5,6v118.3c0,1.899-0.199,3.899-0.5,6c-0.399,2-1,4.1-1.8,6.1c-1.6,4.101-4.1,7.9-7.3,11.101
		c-3.3,3.3-7.1,5.699-11.2,7.399c-2,0.8-4,1.3-6.1,1.7c-2,0.4-4,0.6-6,0.6c-1.9,0-3.9-0.199-5.9-0.6c-2.1-0.4-4.1-0.9-6.2-1.7
		c-4-1.7-7.899-4.1-11.1-7.399c-3.2-3.2-5.7-7-7.3-11.101c-0.8-2-1.4-4.1-1.8-6.1c-0.4-2.101-0.5-4.101-0.5-6V236.676
		 M314.3,354.976c0,4.3,0.399,8.7,1.199,13.1c0.9,4.5,2.101,9,3.9,13.5s4,8.8,6.7,13c2.7,4.101,5.899,8,9.399,11.5
		c3.5,3.601,7.4,6.7,11.601,9.4c4.1,2.7,8.5,5,12.899,6.7c4.5,1.8,9,3.1,13.5,3.899s8.9,1.2,13.101,1.2c4.3,0,8.7-0.4,13.2-1.2
		s9-2.1,13.5-3.899c4.399-1.7,8.8-4,12.899-6.7c4.2-2.7,8-5.8,11.601-9.4c3.5-3.5,6.699-7.399,9.399-11.5c2.7-4.2,4.9-8.5,6.7-13
		c1.7-4.5,3-9,3.8-13.5c0.9-4.399,1.3-8.8,1.3-13.1v-118.3c0-4.3-0.399-8.7-1.3-13.2c-0.8-4.5-2.1-9-3.8-13.5
		c-1.8-4.4-4-8.8-6.7-12.9c-2.7-4.2-5.899-8-9.399-11.6c-3.601-3.5-7.4-6.7-11.601-9.4c-4.1-2.7-8.5-4.9-12.899-6.7
		c-4.5-1.7-9-3-13.5-3.9c-4.5-0.8-8.9-1.2-13.2-1.2c-4.2,0-8.601,0.4-13.101,1.2c-4.5,0.9-9,2.2-13.5,3.9
		c-4.399,1.8-8.8,4-12.899,6.7c-4.2,2.7-8.101,5.9-11.601,9.4c-3.5,3.6-6.699,7.4-9.399,11.6c-2.7,4.1-4.9,8.5-6.7,12.9
		c-1.8,4.5-3,9-3.9,13.5c-0.8,4.5-1.199,8.9-1.199,13.2V354.976"/>
</g>
</svg>
