<?xml version="1.0" encoding="UTF-8"?>
<svg xmlns="http://www.w3.org/2000/svg" version="1.1" xmlns:cc="http://creativecommons.org/ns#" xmlns:dc="http://purl.org/dc/elements/1.1/" xmlns:inkscape="http://www.inkscape.org/namespaces/inkscape" xmlns:rdf="http://www.w3.org/1999/02/22-rdf-syntax-ns#" xmlns:sodipodi="http://sodipodi.sourceforge.net/DTD/sodipodi-0.dtd" xmlns:svg="http://www.w3.org/2000/svg" viewBox="0 0 396.9 396.9">
  <defs>
    <style>
      .cls-1 {
        fill: #ffcd00;
      }

      .cls-1, .cls-2, .cls-3 {
        stroke-width: 0px;
      }

      .cls-2 {
        fill: #e4002b;
      }

      .cls-3 {
        fill: #101820;
      }
    </style>
  </defs>
  <g id="Layer_1" data-name="Layer 1" inkscape:version="0.92.5 (2060ec1f9f, 2020-04-08)">
    <sodipodi:namedview id="namedview1114" bordercolor="#666666" borderopacity="1" gridtolerance="10" guidetolerance="10" inkscape:current-layer="Layer_1" inkscape:cx="198.4275" inkscape:cy="198.42599" inkscape:pageopacity="0" inkscape:pageshadow="2" inkscape:window-height="480" inkscape:window-maximized="0" inkscape:window-width="640" inkscape:window-x="0" inkscape:window-y="0" inkscape:zoom="0.55503813" objecttolerance="10" pagecolor="#ffffff" showgrid="false"/>
    <g id="CIRCLE">
      <path id="path1095" class="cls-1" d="M396.9,198.4C396.9,88.8,308,0,198.4,0S0,88.8,0,198.4s88.8,198.4,198.4,198.4,198.4-88.8,198.4-198.4h0Z" inkscape:connector-curvature="0"/>
    </g>
    <g id="CIRCLE-2" data-name="CIRCLE">
      <path id="path1098" class="cls-2" d="M390.6,198.4c0-106.2-86.1-192.2-192.2-192.2S6.2,92.3,6.2,198.4s86.1,192.2,192.2,192.2c106.2,0,192.2-86.1,192.2-192.2h0Z" inkscape:connector-curvature="0"/>
    </g>
    <g id="CIRCLE-3" data-name="CIRCLE">
      <path id="path1101" class="cls-1" d="M350.3,198.4c0-83.9-68-151.9-151.9-151.9S46.5,114.5,46.5,198.4s68,151.9,151.9,151.9,151.9-68,151.9-151.9Z" inkscape:connector-curvature="0"/>
    </g>
    <g id="LWPOLYLINE">
      <path id="path1107" class="cls-3" d="M211.4,240.3c0,28.3,22.9,51.2,51.2,51.2s51.2-22.9,51.2-51.2v-83.7c0-28.3-22.9-51.2-51.2-51.2s-51.2,22.9-51.2,51.2v83.7Z" inkscape:connector-curvature="0"/>
    </g>
    <g id="LWPOLYLINE-2" data-name="LWPOLYLINE">
      <path id="path1110" class="cls-1" d="M239.3,240.3c0,12.8,10.4,23.3,23.3,23.3s23.3-10.4,23.3-23.3v-83.7c0-12.8-10.4-23.3-23.3-23.3s-23.3,10.4-23.3,23.3v83.7Z" inkscape:connector-curvature="0"/>
    </g>
    <g id="LWPOLYLINE-3" data-name="LWPOLYLINE">
      <path id="path573" class="cls-3" d="M84.8,212.6h0c7.5-38.2,25.7-74.2,53-104.6h41.8c-24.1,21.4-42.6,47.3-54,75.8,5.4-1.4,11-2.2,16.7-2.2,31.8,0,57.5,22.7,57.5,50.6v9.2c0,27.9-25.7,50.6-57.5,50.6s-54.9-25-57.5-50.6l-.9-7c-.4-3-.5-6-.3-9.1s.6-7.9,1.2-12.7Z" inkscape:connector-curvature="0"/>
    </g>
    <g id="LWPOLYLINE-4" data-name="LWPOLYLINE">
      <path id="path576" class="cls-1" d="M116.2,241.4c0,12.7,11.7,23,26.1,23s26.1-10.3,26.1-23v-9.2c0-12.7-11.7-23-26.1-23s-26.1,10.3-26.1,23v9.2Z" inkscape:connector-curvature="0"/>
    </g>
  </g>
</svg>