<?xml version="1.0" encoding="UTF-8"?>
<svg xmlns="http://www.w3.org/2000/svg" version="1.1" viewBox="0 0 270 270">
  <defs>
    <style>
      .cls-1 {
        fill: #ffce04;
      }

      .cls-2 {
        fill: #e31e2e;
      }

      .cls-3 {
        fill: #121921;
      }
    </style>
  </defs>
  <!-- Generator: Adobe Illustrator 28.7.1, SVG Export Plug-In . SVG Version: 1.2.0 Build 142)  -->
  <g>
    <g id="Layer_1">
      <g id="LWPOLYLINE">
        <polygon class="cls-1" points="270 269.9 .2 269.9 .2 -.2 270 -.3 270 269.9"/>
      </g>
      <g id="LWPOLYLINE-2" data-name="LWPOLYLINE">
        <path class="cls-2" d="M256.5,269.9H13.7c-7.4,0-13.5-6-13.5-13.5V13.3C.2,5.9,6.2-.2,13.7-.2h242.8c0,0,0,0,0,0,7.4,0,13.5,6,13.5,13.5v243.2c0,7.5-6,13.5-13.5,13.5Z"/>
      </g>
      <g id="LWPOLYLINE-3" data-name="LWPOLYLINE">
        <path class="cls-1" d="M255,260.9H15.2c-3.3,0-6-2.7-6-6V14.8c0-3.3,2.7-6,6-6h239.8c3.3,0,6,2.6,6,5.9v240.2c0,3.3-2.7,6-6,6Z"/>
      </g>
      <g id="CIRCLE">
        <path class="cls-2" d="M228,134.8c0-51.4-41.6-93.1-92.9-93.1s-92.9,41.7-92.9,93.1,41.6,93.1,92.9,93.1c51.3,0,92.9-41.7,92.9-93.1h0Z"/>
      </g>
      <g id="CIRCLE-2" data-name="CIRCLE">
        <path class="cls-1" d="M208.5,134.8c0-40.6-32.9-73.5-73.4-73.5s-73.4,32.9-73.4,73.5,32.9,73.5,73.4,73.5,73.4-32.9,73.4-73.5h0Z"/>
      </g>
      <g id="LWPOLYLINE-4" data-name="LWPOLYLINE">
        <path class="cls-3" d="M141.1,155.1c0,13.7,11.1,24.8,24.7,24.8s24.7-11.1,24.7-24.8v-40.5c0-13.7-11.1-24.8-24.7-24.8s-24.7,11.1-24.7,24.8v40.5Z"/>
      </g>
      <g id="LWPOLYLINE-5" data-name="LWPOLYLINE">
        <polygon class="cls-3" points="108.4 89.8 121.9 89.8 121.9 148.3 129.1 148.3 129.1 161.9 121.9 161.9 121.9 179.9 108.4 179.9 108.4 161.9 75.1 161.9 75.1 148.3 108.4 89.8"/>
      </g>
      <g id="LWPOLYLINE-6" data-name="LWPOLYLINE">
        <polygon class="cls-1" points="90.4 148.3 108.4 116.7 108.4 148.3 90.4 148.3"/>
      </g>
      <g id="LWPOLYLINE-7" data-name="LWPOLYLINE">
        <path class="cls-1" d="M154.6,155.1c0,6.2,5,11.3,11.2,11.3s11.2-5,11.2-11.3v-40.5c0-6.2-5-11.3-11.2-11.3s-11.2,5-11.2,11.3v40.5Z"/>
      </g>
    </g>
  </g>
</svg>