<?xml version="1.0" encoding="iso-8859-1"?>
<!-- Generator: Adobe Illustrator 16.0.0, SVG Export Plug-In . SVG Version: 6.00 Build 0)  -->
<!DOCTYPE svg PUBLIC "-//W3C//DTD SVG 1.1//EN" "http://www.w3.org/Graphics/SVG/1.1/DTD/svg11.dtd">
<svg version="1.1" id="Layer_1" xmlns="http://www.w3.org/2000/svg" xmlns:xlink="http://www.w3.org/1999/xlink" x="0px" y="0px"
	 width="425.197px" height="425.196px" viewBox="0 0 425.197 425.196" style="enable-background:new 0 0 425.197 425.196;"
	 xml:space="preserve">
<g id="CIRCLE_6_">
	<path style="fill:#FFCD00;" d="M411.025,212.598c0-109.587-88.846-198.424-198.428-198.424
		c-109.591,0-198.425,88.837-198.425,198.424c0,109.584,88.834,198.425,198.425,198.425
		C322.179,411.022,411.025,322.182,411.025,212.598L411.025,212.598z"/>
</g>
<g id="CIRCLE_1_">
	<path style="fill:#E4002B;" d="M404.819,212.598c0-106.161-86.059-192.222-192.222-192.222S20.374,106.437,20.374,212.598
		c0,106.165,86.061,192.224,192.224,192.224S404.819,318.763,404.819,212.598L404.819,212.598z"/>
</g>
<g id="CIRCLE_5_">
	<path style="fill:#FFCD00;" d="M364.516,212.598c0-83.902-68.015-151.917-151.919-151.917
		c-83.905,0-151.917,68.015-151.917,151.917s68.012,151.921,151.917,151.921C296.501,364.519,364.516,296.5,364.516,212.598
		L364.516,212.598z"/>
</g>
<g id="LWPOLYLINE_17_">
	<path style="fill:#101820;" d="M125.786,234.303h173.622c11.984,0,21.703-9.719,21.703-21.705s-9.719-21.703-21.703-21.703H125.786
		c-11.984,0-21.703,9.717-21.703,21.703S113.802,234.303,125.786,234.303z"/>
</g>
<g id="LWPOLYLINE_16_">
	<polygon style="fill:#101820;" points="78.878,246.705 103.058,246.705 103.058,252.282 93.758,252.282 93.758,283.905 
		88.176,283.905 88.176,252.282 78.878,252.282 	"/>
</g>
<g id="LWPOLYLINE_15_">
	<polygon style="fill:#101820;" points="111.614,283.905 105.665,283.905 115.521,246.705 121.846,246.705 131.71,283.905 
		125.752,283.905 124.085,277.579 113.29,277.579 	"/>
</g>
<g id="LWPOLYLINE_14_">
	<path style="fill:#101820;" d="M145.472,267.164v16.741h-5.582v-37.2h12.839c5.24,0,9.488,4.244,9.488,9.483v1.492
		c0,3.991-2.504,7.561-6.257,8.919l6.257,17.306h-5.949l-6.061-16.741H145.472z"/>
</g>
<g id="LWPOLYLINE_13_">
	<polygon style="fill:#101820;" points="177.098,274.604 177.098,283.905 171.517,283.905 171.517,246.705 177.098,246.705 
		177.098,264.562 189.005,246.705 195.699,246.705 185.099,262.514 195.699,283.905 189.373,283.905 181.561,267.908 	"/>
</g>
<g id="LWPOLYLINE_12_">
	<polygon style="fill:#101820;" points="204.999,283.905 199.049,283.905 208.905,246.705 215.23,246.705 225.094,283.905 
		219.136,283.905 217.46,277.579 206.673,277.579 	"/>
</g>
<g id="LWPOLYLINE_62_">
	<path style="fill:#101820;" d="M247.652,256.749c-0.12-2.411-2.043-4.334-4.454-4.467h-2.342c-2.437,0.154-4.282,2.253-4.128,4.688
		c0.085,1.295,0.727,2.487,1.769,3.261l9.924,3.638c2.582,1.547,4.402,4.094,5.035,7.034c1.239,5.847-2.487,11.596-8.334,12.839
		c-0.086,0.013-0.163,0.025-0.248,0.039c-7.223,1.068-13.941-3.924-15.019-11.15l5.521-0.816c0.625,4.175,4.505,7.064,8.686,6.444
		c2.829-0.666,4.572-3.491,3.906-6.304c-0.291-1.235-1.018-2.32-2.052-3.061l-9.95-3.646c-2.871-1.73-4.675-4.791-4.82-8.137
		c-0.23-5.518,4.052-10.177,9.573-10.407h2.599c5.445,0.196,9.796,4.603,9.915,10.052L247.652,256.749z"/>
</g>
<g id="LWPOLYLINE_63_">
	<polygon style="fill:#101820;" points="257.832,246.705 282.013,246.705 282.013,252.282 272.713,252.282 272.713,283.905 
		267.132,283.905 267.132,252.282 257.832,252.282 	"/>
</g>
<g id="LWPOLYLINE_11_">
	<path style="fill:#101820;" d="M289.083,271.814c0,6.68,5.411,12.091,12.095,12.091c6.676,0,12.087-5.411,12.087-12.091v-25.109
		h-5.582v25.109c0,3.594-2.915,6.509-6.505,6.509c-3.599,0-6.513-2.915-6.513-6.509v-25.109h-5.582V271.814z"/>
</g>
<g id="LWPOLYLINE_10_">
	<path style="fill:#101820;" d="M340.284,256.749c-0.12-2.411-2.034-4.334-4.445-4.467h-2.342c-2.437,0.154-4.282,2.253-4.129,4.688
		c0.086,1.295,0.727,2.487,1.77,3.261l9.924,3.638c2.582,1.547,4.402,4.094,5.026,7.034c1.248,5.847-2.487,11.596-8.325,12.839
		c-0.086,0.013-0.163,0.025-0.248,0.039c-7.223,1.068-13.95-3.924-15.019-11.15l5.521-0.816c0.615,4.175,4.505,7.064,8.685,6.444
		c2.829-0.666,4.573-3.491,3.906-6.304c-0.29-1.235-1.017-2.32-2.051-3.061l-9.95-3.646c-2.872-1.73-4.676-4.791-4.82-8.137
		c-0.231-5.518,4.051-10.177,9.573-10.407h2.599c5.444,0.196,9.796,4.603,9.915,10.052L340.284,256.749z"/>
</g>
<g id="LWPOLYLINE_9_">
	<path style="fill:#101820;" d="M162.627,155.563v16.743h-5.582v-37.204h12.839c5.24,0,9.488,4.246,9.488,9.485v1.49
		c0,3.993-2.504,7.563-6.257,8.921l6.257,17.308h-5.958l-6.052-16.743H162.627z"/>
</g>
<g id="LWPOLYLINE_8_">
	<polygon style="fill:#101820;" points="190.16,172.306 184.21,172.306 194.066,135.102 200.391,135.102 210.255,172.306 
		204.297,172.306 202.623,165.98 191.834,165.98 	"/>
</g>
<g id="LWPOLYLINE_7_">
	<path style="fill:#101820;" d="M219.555,162.074h-5.582c0,5.649,4.582,10.231,10.231,10.231c5.65,0,10.232-4.582,10.232-10.231
		v-26.973h-5.582v26.973c0,2.568-2.086,4.649-4.65,4.649C221.632,166.724,219.555,164.643,219.555,162.074z"/>
</g>
<g id="LWPOLYLINE_72_">
	<polygon style="fill:#101820;" points="247.832,172.306 241.874,172.306 251.738,135.102 258.063,135.102 267.918,172.306 
		261.969,172.306 260.293,165.98 249.498,165.98 	"/>
</g>
<g id="LWPOLYLINE_73_">
	<rect x="280.321" y="150.912" style="fill:#101820;" width="12.087" height="5.582"/>
</g>
<g id="LWPOLYLINE_6_">
	<polygon style="fill:#FFCD00;" points="122.777,272.002 114.597,272.002 118.683,256.005 	"/>
</g>
<g id="LWPOLYLINE_5_">
	<path style="fill:#FFCD00;" d="M145.472,261.587h7.257c2.154,0,3.906-1.753,3.906-3.906v-1.492c0-2.158-1.752-3.906-3.906-3.906
		h-7.257V261.587z"/>
</g>
<g id="LWPOLYLINE_4_">
	<polygon style="fill:#FFCD00;" points="216.162,272.002 207.982,272.002 212.067,256.005 	"/>
</g>
<g id="LWPOLYLINE_3_">
	<path style="fill:#FFCD00;" d="M162.627,149.983h7.257c2.154,0,3.906-1.751,3.906-3.906v-1.49c0-2.156-1.752-3.906-3.906-3.906
		h-7.257V149.983z"/>
</g>
<g id="LWPOLYLINE_2_">
	<polygon style="fill:#FFCD00;" points="201.323,160.4 193.134,160.4 197.228,144.401 	"/>
</g>
<g id="LWPOLYLINE_1_">
	<polygon style="fill:#FFCD00;" points="258.986,160.4 250.806,160.4 254.9,144.401 	"/>
</g>
</svg>
