<?xml version="1.0" encoding="iso-8859-1"?>
<!-- Generator: Adobe Illustrator 16.0.0, SVG Export Plug-In . SVG Version: 6.00 Build 0)  -->
<!DOCTYPE svg PUBLIC "-//W3C//DTD SVG 1.1//EN" "http://www.w3.org/Graphics/SVG/1.1/DTD/svg11.dtd">
<svg version="1.1" id="Layer_1" xmlns="http://www.w3.org/2000/svg" xmlns:xlink="http://www.w3.org/1999/xlink" x="0px" y="0px"
	 width="425.197px" height="425.196px" viewBox="0 0 425.197 425.196" style="enable-background:new 0 0 425.197 425.196;"
	 xml:space="preserve">
<g id="CIRCLE_2_">
	<path style="fill:#FFCD00;" d="M411.023,212.6c0-109.591-88.84-198.426-198.426-198.426S14.173,103.009,14.173,212.6
		c0,109.582,88.837,198.423,198.423,198.423S411.023,322.182,411.023,212.6L411.023,212.6z"/>
</g>
<g id="CIRCLE_3_">
	<path style="fill:#E4002B;" d="M404.822,212.6c0-106.163-86.063-192.227-192.225-192.227
		c-106.159,0-192.222,86.063-192.222,192.227s86.063,192.222,192.222,192.222C318.759,404.821,404.822,318.763,404.822,212.6
		L404.822,212.6z"/>
</g>
<g id="CIRCLE_4_">
	<path style="fill:#FFCD00;" d="M364.486,212.6c0-83.888-68.002-151.89-151.889-151.89c-83.883,0-151.885,68.002-151.885,151.89
		c0,83.883,68.002,151.885,151.885,151.885C296.484,364.484,364.486,296.482,364.486,212.6L364.486,212.6z"/>
</g>
<g id="LWPOLYLINE_30_">
	<path style="fill:#101820;" d="M129.141,191.67c-11.762,1.262-20.275,11.817-19.015,23.579
		c1.077,10.019,8.992,17.934,19.015,19.011h170.07c11.762-0.573,20.836-10.565,20.264-22.327
		c-0.531-10.962-9.297-19.732-20.264-20.263H129.141z"/>
</g>
<g id="LWPOLYLINE_51_">
	<polygon style="fill:#101820;" points="102.241,280.793 102.241,290.094 96.659,290.094 96.659,252.894 102.241,252.894 
		102.241,270.75 114.144,252.894 120.841,252.894 110.237,268.698 120.841,290.094 114.516,290.094 106.703,274.092 	"/>
</g>
<g id="LWPOLYLINE_53_">
	<path style="fill:#101820;" d="M149.856,277.998V264.98c0-6.676-5.415-12.087-12.091-12.087s-12.091,5.411-12.091,12.087v13.018
		c0,6.681,5.415,12.096,12.091,12.096S149.856,284.679,149.856,277.998z"/>
</g>
<g id="LWPOLYLINE_54_">
	<polygon style="fill:#101820;" points="159.528,290.094 159.528,252.894 165.105,252.894 178.128,277.998 178.128,252.894 
		183.705,252.894 183.705,290.094 178.128,290.094 165.105,264.98 165.105,290.094 	"/>
</g>
<g id="LWPOLYLINE_55_">
	<polygon style="fill:#101820;" points="190.774,252.894 214.956,252.894 214.956,258.471 205.656,258.471 205.656,290.094 
		200.074,290.094 200.074,258.471 190.774,258.471 	"/>
</g>
<g id="LWPOLYLINE_56_">
	<path style="fill:#101820;" d="M227.602,273.349v16.745h-5.581v-37.2h12.834c5.24,0,9.488,4.244,9.488,9.483v1.487
		c0,3.996-2.505,7.561-6.262,8.92l6.262,17.31h-5.954l-6.052-16.745H227.602z"/>
</g>
<g id="LWPOLYLINE_59_">
	<path style="fill:#101820;" d="M275.217,277.998V264.98c0-6.676-5.411-12.087-12.091-12.087c-6.676,0-12.086,5.411-12.086,12.087
		v13.018c0,6.681,5.41,12.096,12.086,12.096C269.806,290.094,275.217,284.679,275.217,277.998z"/>
</g>
<g id="LWPOLYLINE_60_">
	<polygon style="fill:#101820;" points="284.888,290.094 284.888,252.894 290.47,252.894 290.47,284.512 303.49,284.512 
		303.49,290.094 	"/>
</g>
<g id="LWPOLYLINE_61_">
	<polygon style="fill:#101820;" points="309.814,290.094 309.814,252.894 315.396,252.894 315.396,284.512 328.414,284.512 
		328.414,290.094 	"/>
</g>
<g id="LWPOLYLINE_64_">
	<path style="fill:#101820;" d="M143.736,172.293h3.723v-20.459h-12.095v5.577h6.514v2.603v0.188c0,3.599-2.915,6.513-6.514,6.513
		c-3.594,0-6.509-2.914-6.509-6.513V147.18c0-3.595,2.915-6.51,6.509-6.51c3.599,0,6.514,2.915,6.514,6.51h5.582
		c0-6.681-5.415-12.091-12.095-12.091c-6.676,0-12.091,5.41-12.091,12.091v13.022c0.004,6.663,5.411,12.061,12.074,12.052
		c2.47,0,4.885-0.761,6.911-2.18L143.736,172.293z"/>
</g>
<g id="LWPOLYLINE_65_">
	<path style="fill:#101820;" d="M164.199,155.552v16.741h-5.582v-37.204h12.834c5.24,0,9.488,4.248,9.488,9.487v1.487
		c0,3.996-2.504,7.565-6.261,8.924l6.261,17.306h-5.954l-6.056-16.741H164.199z"/>
</g>
<g id="LWPOLYLINE_68_">
	<polygon style="fill:#101820;" points="191.731,172.293 185.778,172.293 195.638,135.089 201.959,135.089 211.819,172.293 
		205.865,172.293 204.194,165.967 193.402,165.967 	"/>
</g>
<g id="CIRCLE_8_">
	<path style="fill:#101820;" d="M196.193,130.627c0-1.646-1.333-2.979-2.975-2.979c-1.646,0-2.979,1.334-2.979,2.979
		c0,1.641,1.333,2.975,2.979,2.975C194.86,133.602,196.193,132.268,196.193,130.627L196.193,130.627z"/>
</g>
<g id="CIRCLE_9_">
	<path style="fill:#101820;" d="M207.357,130.627c0-1.646-1.333-2.979-2.979-2.979c-1.641,0-2.975,1.334-2.975,2.979
		c0,1.641,1.333,2.975,2.975,2.975C206.023,133.602,207.357,132.268,207.357,130.627L207.357,130.627z"/>
</g>
<g id="LWPOLYLINE_69_">
	<polygon style="fill:#101820;" points="220.003,172.293 220.003,135.089 225.585,135.089 238.607,160.202 238.607,135.089 
		244.189,135.089 244.189,172.293 238.607,172.293 225.585,147.18 225.585,172.293 	"/>
</g>
<g id="LWPOLYLINE_70_">
	<path style="fill:#101820;" d="M271.277,145.132c-0.119-2.406-2.039-4.333-4.445-4.462h-2.342
		c-2.436,0.154-4.287,2.253-4.133,4.688c0.086,1.295,0.73,2.483,1.77,3.261l9.924,3.638c2.582,1.543,4.406,4.095,5.03,7.039
		c1.243,5.843-2.487,11.591-8.329,12.83c-0.082,0.017-0.163,0.025-0.244,0.043c-7.227,1.068-13.949-3.924-15.019-11.15l5.522-0.816
		c0.615,4.175,4.504,7.061,8.68,6.444c2.83-0.666,4.573-3.491,3.906-6.308c-0.291-1.231-1.021-2.316-2.051-3.056l-9.95-3.646
		c-2.868-1.734-4.675-4.786-4.816-8.137c-0.235-5.518,4.052-10.181,9.569-10.411h2.603c5.444,0.196,9.792,4.606,9.911,10.052
		L271.277,145.132z"/>
</g>
<g id="LWPOLYLINE_71_">
	<rect x="289.833" y="150.902" style="fill:#101820;" width="12.092" height="5.581"/>
</g>
<g id="LWPOLYLINE_52_">
	<path style="fill:#FFCD00;" d="M144.274,277.998V264.98c0-3.595-2.915-6.51-6.509-6.51s-6.509,2.915-6.509,6.51v13.018
		c0,3.599,2.915,6.514,6.509,6.514S144.274,281.597,144.274,277.998z"/>
</g>
<g id="LWPOLYLINE_57_">
	<path style="fill:#FFCD00;" d="M227.602,267.771h7.253c2.158,0,3.906-1.748,3.906-3.907v-1.487c0-2.158-1.748-3.906-3.906-3.906
		h-7.253V267.771z"/>
</g>
<g id="LWPOLYLINE_58_">
	<path style="fill:#FFCD00;" d="M269.64,277.998V264.98c0-3.595-2.915-6.51-6.514-6.51c-3.594,0-6.51,2.915-6.51,6.51v13.018
		c0,3.599,2.916,6.514,6.51,6.514C266.725,284.512,269.64,281.597,269.64,277.998z"/>
</g>
<g id="LWPOLYLINE_66_">
	<path style="fill:#FFCD00;" d="M164.199,149.971h7.253c2.158,0,3.906-1.748,3.906-3.907v-1.487c0-2.158-1.748-3.906-3.906-3.906
		h-7.253V149.971z"/>
</g>
<g id="LWPOLYLINE_67_">
	<polygon style="fill:#FFCD00;" points="202.891,160.39 194.706,160.39 198.796,144.389 	"/>
</g>
</svg>
