<?xml version="1.0" encoding="utf-8"?>
<!-- Generator: Adobe Illustrator 28.0.0, SVG Export Plug-In . SVG Version: 6.00 Build 0)  -->
<svg version="1.1" id="Layer_1" xmlns="http://www.w3.org/2000/svg" xmlns:xlink="http://www.w3.org/1999/xlink" x="0px" y="0px"
	 viewBox="0 0 425.2 425.2" style="enable-background:new 0 0 425.2 425.2;" xml:space="preserve">
<style type="text/css">
	.st0{fill:#005EB8;stroke:#005EB8;stroke-width:0.5;stroke-miterlimit:10;}
	.st1{fill:#FFFFFF;}
	.st2{fill:#005EB8;}
</style>
<g id="LWPOLYLINE_83_">
	<rect x="14.17" y="113.39" class="st0" width="396.85" height="198.42"/>
</g>
<g id="LWPOLYLINE_85_">
	<path class="st1" d="M34.02,113.39h357.16c10.96,0,19.84,8.88,19.84,19.84v158.74c0,10.96-8.88,19.84-19.84,19.84H34.02
		c-10.96,0-19.85-8.88-19.85-19.84V133.23C14.17,122.27,23.06,113.39,34.02,113.39z"/>
</g>
<g id="LWPOLYLINE_84_">
	<path class="st2" d="M34.02,123.31h357.16c5.48,0,9.92,4.44,9.92,9.92v158.74c0,5.48-4.44,9.92-9.92,9.92H34.02
		c-5.48,0-9.92-4.44-9.92-9.92V133.23C24.1,127.75,28.54,123.31,34.02,123.31z"/>
</g>
<g id="LWPOLYLINE_86_">
	<polygon class="st1" points="46.42,192.76 309.83,192.76 260.23,143.15 309.33,143.15 378.78,212.6 309.33,282.05 260.23,282.05 
		309.83,232.44 46.42,232.44 	"/>
</g>
</svg>
