<?xml version="1.0" encoding="utf-8"?>
<!-- Generator: Adobe Illustrator 14.0.0, SVG Export Plug-In . SVG Version: 6.00 Build 43363)  -->
<!DOCTYPE svg PUBLIC "-//W3C//DTD SVG 1.1//EN" "http://www.w3.org/Graphics/SVG/1.1/DTD/svg11.dtd">
<svg version="1.1" id="Layer_1" xmlns="http://www.w3.org/2000/svg" xmlns:xlink="http://www.w3.org/1999/xlink" x="0px" y="0px"
	 width="595.276px" height="595.276px" viewBox="0 0 595.276 595.276" enable-background="new 0 0 595.276 595.276"
	 xml:space="preserve">
<g>
	<defs>
		<polyline id="SVGID_1_" points="12.88,584.851 582.395,584.851 582.395,10.425 12.88,10.425 12.88,584.851 		"/>
	</defs>
	<clipPath id="SVGID_2_">
		<use xlink:href="#SVGID_1_"  overflow="visible"/>
	</clipPath>
	
		<polyline clip-path="url(#SVGID_2_)" fill="none" stroke="#0000FF" stroke-width="0.12" stroke-linejoin="bevel" stroke-miterlimit="1.414" points="
		570,23.976 21.8,23.976 21.8,572.076 570,572.076 570,23.976 	"/>
	
		<line clip-path="url(#SVGID_2_)" fill="none" stroke="#0000FF" stroke-width="0.12" stroke-linejoin="bevel" stroke-miterlimit="1.414" x1="570" y1="535.576" x2="570" y2="60.476"/>
	
		<path clip-path="url(#SVGID_2_)" fill="none" stroke="#0000FF" stroke-width="0.12" stroke-linejoin="bevel" stroke-miterlimit="1.414" d="
		M570,60.476c0-4.8-1-9.5-2.8-14c-1.899-4.4-4.5-8.4-7.899-11.8c-3.4-3.4-7.5-6.1-11.9-7.9c-4.4-1.9-9.2-2.8-14-2.8"/>
	
		<line clip-path="url(#SVGID_2_)" fill="none" stroke="#0000FF" stroke-width="0.12" stroke-linejoin="bevel" stroke-miterlimit="1.414" x1="533.4" y1="23.976" x2="58.4" y2="23.976"/>
	
		<path clip-path="url(#SVGID_2_)" fill="none" stroke="#0000FF" stroke-width="0.12" stroke-linejoin="bevel" stroke-miterlimit="1.414" d="
		M58.4,23.976c-4.8,0-9.6,0.9-14,2.8c-4.4,1.8-8.5,4.5-11.9,7.9s-6,7.4-7.9,11.8c-1.8,4.5-2.8,9.2-2.8,14"/>
	
		<line clip-path="url(#SVGID_2_)" fill="none" stroke="#0000FF" stroke-width="0.12" stroke-linejoin="bevel" stroke-miterlimit="1.414" x1="21.8" y1="60.476" x2="21.8" y2="535.576"/>
	
		<path clip-path="url(#SVGID_2_)" fill="none" stroke="#0000FF" stroke-width="0.12" stroke-linejoin="bevel" stroke-miterlimit="1.414" d="
		M21.8,535.576c0,4.8,1,9.5,2.8,14c1.9,4.4,4.5,8.4,7.9,11.8c3.4,3.4,7.5,6.101,11.9,7.9c4.4,1.9,9.2,2.8,14,2.8"/>
	
		<line clip-path="url(#SVGID_2_)" fill="none" stroke="#0000FF" stroke-width="0.12" stroke-linejoin="bevel" stroke-miterlimit="1.414" x1="58.4" y1="572.076" x2="533.4" y2="572.076"/>
	
		<path clip-path="url(#SVGID_2_)" fill="none" stroke="#0000FF" stroke-width="0.12" stroke-linejoin="bevel" stroke-miterlimit="1.414" d="
		M533.4,572.076c4.8,0,9.6-0.899,14-2.8c4.4-1.8,8.5-4.5,11.9-7.9c3.399-3.399,6-7.399,7.899-11.8c1.8-4.5,2.8-9.2,2.8-14"/>
	
		<line clip-path="url(#SVGID_2_)" fill="none" stroke="#0000FF" stroke-width="0.12" stroke-linejoin="bevel" stroke-miterlimit="1.414" x1="551.7" y1="535.576" x2="551.7" y2="60.476"/>
	
		<path clip-path="url(#SVGID_2_)" fill="none" stroke="#0000FF" stroke-width="0.12" stroke-linejoin="bevel" stroke-miterlimit="1.414" d="
		M551.7,60.476c0-4.8-1.899-9.5-5.399-12.9c-3.4-3.4-8-5.3-12.9-5.3"/>
	
		<line clip-path="url(#SVGID_2_)" fill="none" stroke="#0000FF" stroke-width="0.12" stroke-linejoin="bevel" stroke-miterlimit="1.414" x1="533.4" y1="42.276" x2="58.4" y2="42.276"/>
	
		<path clip-path="url(#SVGID_2_)" fill="none" stroke="#0000FF" stroke-width="0.12" stroke-linejoin="bevel" stroke-miterlimit="1.414" d="
		M58.4,42.276c-4.9,0-9.5,1.9-12.9,5.3c-3.5,3.4-5.4,8.1-5.4,12.9"/>
	
		<line clip-path="url(#SVGID_2_)" fill="none" stroke="#0000FF" stroke-width="0.12" stroke-linejoin="bevel" stroke-miterlimit="1.414" x1="40.1" y1="60.476" x2="40.1" y2="535.576"/>
	
		<path clip-path="url(#SVGID_2_)" fill="none" stroke="#0000FF" stroke-width="0.12" stroke-linejoin="bevel" stroke-miterlimit="1.414" d="
		M40.1,535.576c0,4.8,1.9,9.5,5.4,12.9c3.4,3.399,8,5.3,12.9,5.3"/>
	
		<line clip-path="url(#SVGID_2_)" fill="none" stroke="#0000FF" stroke-width="0.12" stroke-linejoin="bevel" stroke-miterlimit="1.414" x1="58.4" y1="553.776" x2="533.4" y2="553.776"/>
	
		<path clip-path="url(#SVGID_2_)" fill="none" stroke="#0000FF" stroke-width="0.12" stroke-linejoin="bevel" stroke-miterlimit="1.414" d="
		M533.4,553.776c4.9,0,9.5-1.9,12.9-5.3c3.5-3.4,5.399-8.101,5.399-12.9"/>
	
		<polyline clip-path="url(#SVGID_2_)" fill="none" stroke="#0000FF" stroke-width="0.12" stroke-linejoin="bevel" stroke-miterlimit="1.414" points="
		113.2,179.276 113.2,343.676 204.5,343.676 204.5,179.276 113.2,179.276 	"/>
	
		<polyline clip-path="url(#SVGID_2_)" fill="none" stroke="#0000FF" stroke-width="0.12" stroke-linejoin="bevel" stroke-miterlimit="1.414" points="
		250.2,179.276 250.2,343.676 341.6,343.676 341.6,179.276 250.2,179.276 	"/>
	
		<polyline clip-path="url(#SVGID_2_)" fill="none" stroke="#0000FF" stroke-width="0.12" stroke-linejoin="bevel" stroke-miterlimit="1.414" points="
		387.3,179.276 387.3,343.676 478.6,343.676 478.6,179.276 387.3,179.276 	"/>
	
		<polyline clip-path="url(#SVGID_2_)" fill="none" stroke="#0000FF" stroke-width="0.12" stroke-linejoin="bevel" stroke-miterlimit="1.414" points="
		76.6,380.276 76.6,416.776 515.2,416.776 515.2,380.276 76.6,380.276 	"/>
	<path clip-path="url(#SVGID_2_)" fill-rule="evenodd" clip-rule="evenodd" fill="#0000FF" d="M570,535.576
		c0,2.101-0.199,4.4-0.6,6.601c-0.5,2.3-1.1,4.6-2,6.8c-1.8,4.5-4.5,8.8-8.1,12.399c-3.601,3.601-7.801,6.301-12.4,8.101
		c-2.2,0.899-4.5,1.6-6.8,2c-2.2,0.399-4.5,0.6-6.601,0.6H570V535.576"/>
	<path clip-path="url(#SVGID_2_)" fill-rule="evenodd" clip-rule="evenodd" fill="#0000FF" d="M58.4,572.076c-2.2,0-4.4-0.2-6.7-0.6
		c-2.2-0.4-4.5-1.101-6.8-1.9c-4.5-1.8-8.7-4.6-12.3-8.2c-3.6-3.6-6.4-7.8-8.2-12.3c-0.9-2.3-1.5-4.6-1.9-6.8
		c-0.5-2.3-0.7-4.5-0.7-6.7v36.5h0.1H58.4"/>
	<path clip-path="url(#SVGID_2_)" fill-rule="evenodd" clip-rule="evenodd" fill="#0000FF" d="M21.8,60.476c0-2.1,0.2-4.4,0.6-6.6
		c0.5-2.3,1.1-4.6,2-6.8c1.8-4.5,4.5-8.8,8.1-12.4s7.8-6.3,12.4-8.1c2.2-0.9,4.5-1.6,6.8-2c2.2-0.4,4.5-0.6,6.6-0.6H21.8V60.476"/>
	<path clip-path="url(#SVGID_2_)" fill-rule="evenodd" clip-rule="evenodd" fill="#0000FF" d="M533.4,23.976c2.2,0,4.4,0.2,6.7,0.6
		c2.2,0.4,4.5,1.1,6.8,1.9c4.5,1.8,8.7,4.6,12.3,8.2c3.601,3.6,6.4,7.8,8.2,12.3c0.9,2.3,1.5,4.6,1.9,6.8
		c0.5,2.3,0.699,4.5,0.699,6.7v-36.5h-0.1H533.4"/>
	<path clip-path="url(#SVGID_2_)" fill-rule="evenodd" clip-rule="evenodd" fill="#0000FF" d="M515.2,380.276v36.5H76.6v-36.5H515.2
		 M478.6,179.276v164.4h-91.3v-164.4H478.6 M341.6,179.276v164.4h-91.4v-164.4H341.6 M204.5,179.276v164.4h-91.3v-164.4H204.5
		 M551.7,535.576v-475.1c0-2.1-0.399-4.4-1.3-6.7s-2.3-4.4-4.1-6.2c-1.801-1.8-3.9-3.2-6.101-4.1c-2.3-0.9-4.6-1.2-6.8-1.2h-475
		c-2.2,0-4.5,0.3-6.7,1.2c-2.3,0.9-4.4,2.3-6.2,4.1c-1.8,1.8-3.2,3.9-4.1,6.2s-1.3,4.6-1.3,6.7v475.1c0,2.101,0.4,4.4,1.3,6.7
		s2.3,4.4,4.1,6.2s3.9,3.2,6.2,4.1c2.2,0.9,4.5,1.2,6.7,1.2h475c4.9,0,9.5-1.9,12.9-5.3C549.8,545.076,551.7,540.375,551.7,535.576"
		/>
	<polyline clip-path="url(#SVGID_2_)" fill-rule="evenodd" clip-rule="evenodd" fill="#F0F0F0" points="76.6,380.276 76.6,416.776 
		515.2,416.776 515.2,380.276 76.6,380.276 	"/>
	<polyline clip-path="url(#SVGID_2_)" fill-rule="evenodd" clip-rule="evenodd" fill="#F0F0F0" points="387.3,179.276 
		387.3,343.676 478.6,343.676 478.6,179.276 387.3,179.276 	"/>
	<polyline clip-path="url(#SVGID_2_)" fill-rule="evenodd" clip-rule="evenodd" fill="#F0F0F0" points="250.2,179.276 
		250.2,343.676 341.6,343.676 341.6,179.276 250.2,179.276 	"/>
	<polyline clip-path="url(#SVGID_2_)" fill-rule="evenodd" clip-rule="evenodd" fill="#F0F0F0" points="113.2,179.276 
		113.2,343.676 204.5,343.676 204.5,179.276 113.2,179.276 	"/>
	
		<polyline clip-path="url(#SVGID_2_)" fill="none" stroke="#0000FF" stroke-width="0.12" stroke-linejoin="bevel" stroke-miterlimit="1.414" points="
		570,572.076 21.8,572.076 21.8,23.976 570,23.976 570,572.076 	"/>
	<path clip-path="url(#SVGID_2_)" fill-rule="evenodd" clip-rule="evenodd" fill="#F0F0F0" d="M533.4,553.776h-475
		c-2.2,0-4.5-0.3-6.7-1.2c-2.3-0.899-4.4-2.3-6.2-4.1s-3.2-3.9-4.1-6.2s-1.3-4.6-1.3-6.7v-475.1c0-2.1,0.4-4.4,1.3-6.7
		s2.3-4.4,4.1-6.2c1.8-1.8,3.9-3.2,6.2-4.1c2.2-0.9,4.5-1.2,6.7-1.2h475c2.2,0,4.5,0.3,6.8,1.2c2.2,0.9,4.3,2.3,6.101,4.1
		c1.8,1.8,3.199,3.9,4.1,6.2s1.3,4.6,1.3,6.7v475.1c0,2.101-0.399,4.4-1.3,6.7s-2.3,4.4-4.1,6.2c-1.801,1.8-3.9,3.2-6.101,4.1
		C537.9,553.476,535.6,553.776,533.4,553.776 M570,535.576v-475.1c0-2.1-0.199-4.4-0.6-6.6c-0.5-2.3-1.1-4.6-2-6.8
		c-1.8-4.6-4.5-8.8-8.1-12.4c-3.601-3.6-7.9-6.4-12.4-8.2c-2.3-0.8-4.6-1.5-6.8-1.9c-2.3-0.4-4.5-0.6-6.7-0.6h-475
		c-2.2,0-4.4,0.2-6.7,0.6c-2.2,0.4-4.5,1.1-6.8,1.9c-4.5,1.8-8.8,4.6-12.4,8.2s-6.3,7.8-8.1,12.4c-0.9,2.2-1.5,4.5-2,6.8
		c-0.4,2.2-0.6,4.5-0.6,6.6v475.1c0,2.101,0.2,4.4,0.6,6.601c0.5,2.3,1.1,4.6,2,6.8c1.8,4.6,4.5,8.8,8.1,12.399
		c3.6,3.601,7.9,6.4,12.4,8.101c2.3,0.899,4.6,1.6,6.8,2c2.3,0.399,4.5,0.6,6.7,0.6h475c2.2,0,4.4-0.2,6.7-0.6
		c2.2-0.4,4.5-1.101,6.8-2c4.5-1.7,8.8-4.5,12.4-8.101c3.6-3.6,6.3-7.8,8.1-12.399c0.9-2.2,1.5-4.5,2-6.8
		C569.8,539.976,570,537.676,570,535.576"/>
</g>
</svg>
