<?xml version="1.0" encoding="utf-8"?>
<!-- Generator: Adobe Illustrator 28.0.0, SVG Export Plug-In . SVG Version: 6.00 Build 0)  -->
<svg version="1.1" id="Layer_1" xmlns="http://www.w3.org/2000/svg" xmlns:xlink="http://www.w3.org/1999/xlink" x="0px" y="0px"
	 viewBox="0 0 425.2 425.2" style="enable-background:new 0 0 425.2 425.2;" xml:space="preserve">
<style type="text/css">
	.st0{fill:#005EB8;stroke:#005EB8;stroke-width:0.5;stroke-miterlimit:10;}
	.st1{fill:#FFFFFF;}
	.st2{fill:#005EB8;}
</style>
<g id="LWPOLYLINE_47_">
	<rect x="14.17" y="14.17" class="st0" width="396.85" height="396.85"/>
</g>
<g id="LWPOLYLINE_51_">
	<path class="st1" d="M14.17,384.57l0-343.94c0-14.61,11.85-26.46,26.45-26.46l343.94,0c14.61,0,26.45,11.84,26.45,26.46l0,343.94
		c0,14.61-11.84,26.46-26.45,26.46l-343.94,0C26.02,411.02,14.17,399.18,14.17,384.57z"/>
</g>
<g id="LWPOLYLINE_52_">
	<path class="st2" d="M27.4,384.57l0-343.94c0-7.3,5.92-13.23,13.22-13.23l343.94,0c7.3,0,13.22,5.93,13.22,13.23l0,343.94
		c0,7.31-5.92,13.23-13.22,13.23l-343.94,0C33.32,397.8,27.4,391.87,27.4,384.57z"/>
</g>
<g id="LWPOLYLINE_50_">
	<rect x="272.13" y="53.86" class="st1" width="26.45" height="317.48"/>
</g>
<g id="LWPOLYLINE_53_">
	
		<rect x="118.05" y="130.19" transform="matrix(0.866 -0.5 0.5 0.866 -57.8386 110.6626)" class="st1" width="119.06" height="66.14"/>
</g>
<g id="LWPOLYLINE_55_">
	
		<rect x="118.05" y="229.62" transform="matrix(0.866 -0.5 0.5 0.866 -107.5506 123.9827)" class="st1" width="119.06" height="66.14"/>
</g>
</svg>
