<?xml version="1.0" encoding="utf-8"?>
<!-- Generator: Adobe Illustrator 28.0.0, SVG Export Plug-In . SVG Version: 6.00 Build 0)  -->
<svg version="1.1" id="Layer_1" xmlns="http://www.w3.org/2000/svg" xmlns:xlink="http://www.w3.org/1999/xlink" x="0px" y="0px"
	 viewBox="0 0 425.2 425.2" style="enable-background:new 0 0 425.2 425.2;" xml:space="preserve">
<style type="text/css">
	.st0{fill:#005EB8;stroke:#005EB8;stroke-width:0.5;stroke-miterlimit:10;}
	.st1{fill:#FFFFFF;}
	.st2{fill:#005EB8;}
</style>
<g id="LWPOLYLINE_47_">
	<rect x="14.17" y="14.17" class="st0" width="396.85" height="396.85"/>
</g>
<g id="LWPOLYLINE_51_">
	<path class="st1" d="M384.57,411.02H40.63c-14.61,0-26.46-11.85-26.46-26.45V40.63c0-14.61,11.84-26.45,26.46-26.45h343.94
		c14.61,0,26.46,11.84,26.46,26.45v343.94C411.02,399.18,399.18,411.02,384.57,411.02z"/>
</g>
<g id="LWPOLYLINE_52_">
	<path class="st2" d="M384.57,397.79H40.63c-7.3,0-13.23-5.92-13.23-13.22V40.63c0-7.3,5.93-13.22,13.23-13.22h343.94
		c7.31,0,13.23,5.92,13.23,13.22v343.94C397.8,391.87,391.87,397.79,384.57,397.79z"/>
</g>
<g id="LWPOLYLINE_50_">
	<rect x="53.86" y="126.62" class="st1" width="317.48" height="26.45"/>
</g>
<g id="LWPOLYLINE_53_">
	
		<rect x="130.19" y="188.09" transform="matrix(0.866 -0.5 0.5 0.866 -101.9329 114.8026)" class="st1" width="66.14" height="119.06"/>
</g>
<g id="LWPOLYLINE_55_">
	
		<rect x="229.62" y="188.09" transform="matrix(0.866 -0.5 0.5 0.866 -88.6128 164.5146)" class="st1" width="66.14" height="119.06"/>
</g>
</svg>
