<?xml version="1.0" encoding="UTF-8"?>
<svg id="Layer_1" data-name="Layer 1" xmlns="http://www.w3.org/2000/svg" version="1.1" xmlns:xlink="http://www.w3.org/1999/xlink" viewBox="0 0 595.3 595.3">
  <defs>
    <style>
      .cls-1 {
        clip-path: url(#clippath-20);
      }

      .cls-2 {
        clip-path: url(#clippath-11);
      }

      .cls-3 {
        clip-path: url(#clippath-16);
      }

      .cls-4 {
        clip-path: url(#clippath-2);
      }

      .cls-5 {
        clip-path: url(#clippath-13);
      }

      .cls-6 {
        clip-path: url(#clippath-25);
      }

      .cls-7 {
        clip-path: url(#clippath-15);
      }

      .cls-8 {
        clip-path: url(#clippath-6);
      }

      .cls-9 {
        clip-path: url(#clippath-26);
      }

      .cls-10 {
        stroke: blue;
        stroke-linejoin: bevel;
        stroke-width: .1px;
      }

      .cls-10, .cls-11 {
        fill: none;
      }

      .cls-12 {
        fill: #f0f0f0;
      }

      .cls-12, .cls-11, .cls-13 {
        stroke-width: 0px;
      }

      .cls-12, .cls-13 {
        fill-rule: evenodd;
      }

      .cls-14 {
        clip-path: url(#clippath-7);
      }

      .cls-15 {
        clip-path: url(#clippath-21);
      }

      .cls-16 {
        clip-path: url(#clippath-1);
      }

      .cls-17 {
        clip-path: url(#clippath-4);
      }

      .cls-18 {
        clip-path: url(#clippath-27);
      }

      .cls-19 {
        clip-path: url(#clippath-12);
      }

      .cls-20 {
        clip-path: url(#clippath-24);
      }

      .cls-21 {
        clip-path: url(#clippath-30);
      }

      .cls-22 {
        clip-path: url(#clippath-22);
      }

      .cls-23 {
        clip-path: url(#clippath-9);
      }

      .cls-24 {
        clip-path: url(#clippath);
      }

      .cls-25 {
        clip-path: url(#clippath-19);
      }

      .cls-26 {
        clip-path: url(#clippath-31);
      }

      .cls-27 {
        clip-path: url(#clippath-3);
      }

      .cls-28 {
        clip-path: url(#clippath-8);
      }

      .cls-29 {
        clip-path: url(#clippath-29);
      }

      .cls-30 {
        clip-path: url(#clippath-18);
      }

      .cls-31 {
        clip-path: url(#clippath-14);
      }

      .cls-32 {
        clip-path: url(#clippath-17);
      }

      .cls-33 {
        clip-path: url(#clippath-5);
      }

      .cls-34 {
        clip-path: url(#clippath-10);
      }

      .cls-13 {
        fill: #005eb8;
      }

      .cls-35 {
        clip-path: url(#clippath-23);
      }

      .cls-36 {
        clip-path: url(#clippath-28);
      }
    </style>
    <clipPath id="clippath">
      <rect class="cls-11" x="-10" y="-9" width="620" height="614"/>
    </clipPath>
    <clipPath id="clippath-1">
      <rect class="cls-11" x="-10" y="-9" width="620" height="614"/>
    </clipPath>
    <clipPath id="clippath-2">
      <rect class="cls-11" x="-10" y="-9" width="620" height="614"/>
    </clipPath>
    <clipPath id="clippath-3">
      <rect class="cls-11" x="-10" y="-9" width="620" height="614"/>
    </clipPath>
    <clipPath id="clippath-4">
      <rect class="cls-11" x="-10" y="-9" width="620" height="614"/>
    </clipPath>
    <clipPath id="clippath-5">
      <rect class="cls-11" x="-10" y="-9" width="620" height="614"/>
    </clipPath>
    <clipPath id="clippath-6">
      <rect class="cls-11" x="-10" y="-9" width="620" height="614"/>
    </clipPath>
    <clipPath id="clippath-7">
      <rect class="cls-11" x="-10" y="-9" width="620" height="614"/>
    </clipPath>
    <clipPath id="clippath-8">
      <rect class="cls-11" x="-10" y="-9" width="620" height="614"/>
    </clipPath>
    <clipPath id="clippath-9">
      <rect class="cls-11" x="-10" y="-9" width="620" height="614"/>
    </clipPath>
    <clipPath id="clippath-10">
      <rect class="cls-11" x="-10" y="-9" width="620" height="614"/>
    </clipPath>
    <clipPath id="clippath-11">
      <rect class="cls-11" x="-10" y="-9" width="620" height="614"/>
    </clipPath>
    <clipPath id="clippath-12">
      <rect class="cls-11" x="-10" y="-9" width="620" height="614"/>
    </clipPath>
    <clipPath id="clippath-13">
      <rect class="cls-11" x="-10" y="-9" width="620" height="614"/>
    </clipPath>
    <clipPath id="clippath-14">
      <rect class="cls-11" x="-10" y="-9" width="620" height="614"/>
    </clipPath>
    <clipPath id="clippath-15">
      <rect class="cls-11" x="-10" y="-9" width="620" height="614"/>
    </clipPath>
    <clipPath id="clippath-16">
      <rect class="cls-11" x="-10" y="-9" width="620" height="614"/>
    </clipPath>
    <clipPath id="clippath-17">
      <rect class="cls-11" x="-10" y="-9" width="620" height="614"/>
    </clipPath>
    <clipPath id="clippath-18">
      <rect class="cls-11" x="-10" y="-9" width="620" height="614"/>
    </clipPath>
    <clipPath id="clippath-19">
      <rect class="cls-11" x="-10" y="-9" width="620" height="614"/>
    </clipPath>
    <clipPath id="clippath-20">
      <rect class="cls-11" x="-10" y="-9" width="620" height="614"/>
    </clipPath>
    <clipPath id="clippath-21">
      <rect class="cls-11" x="-10" y="-9" width="620" height="614"/>
    </clipPath>
    <clipPath id="clippath-22">
      <rect class="cls-11" x="-10" y="-9" width="620" height="614"/>
    </clipPath>
    <clipPath id="clippath-23">
      <rect class="cls-11" x="-10" y="-9" width="620" height="614"/>
    </clipPath>
    <clipPath id="clippath-24">
      <rect class="cls-11" x="-10" y="-9" width="620" height="614"/>
    </clipPath>
    <clipPath id="clippath-25">
      <rect class="cls-11" x="-10" y="-9" width="620" height="614"/>
    </clipPath>
    <clipPath id="clippath-26">
      <rect class="cls-11" x="-10" y="-9" width="620" height="614"/>
    </clipPath>
    <clipPath id="clippath-27">
      <rect class="cls-11" x="-10" y="-9" width="620" height="614"/>
    </clipPath>
    <clipPath id="clippath-28">
      <rect class="cls-11" x="-10" y="-9" width="620" height="614"/>
    </clipPath>
    <clipPath id="clippath-29">
      <rect class="cls-11" x="-10" y="-9" width="620" height="614"/>
    </clipPath>
    <clipPath id="clippath-30">
      <rect class="cls-11" x="-10" y="-9" width="620" height="614"/>
    </clipPath>
    <clipPath id="clippath-31">
      <rect class="cls-11" x="-10" y="-9" width="620" height="614"/>
    </clipPath>
  </defs>
  <g class="cls-24">
    <polyline class="cls-10" points="1.3 594.9 595.5 594.9 595.5 1.9 1.3 1.9 1.3 594.9"/>
  </g>
  <g class="cls-16">
    <line class="cls-10" x1="1.3" y1="41.4" x2="1.3" y2="555.3"/>
  </g>
  <g class="cls-4">
    <path class="cls-10" d="M1.3,555.3c0,5.2,1.1,10.4,3,15.1,2,4.9,4.9,9.2,8.6,12.9,3.7,3.7,8,6.6,12.9,8.5,4.8,1.9,9.9,3,15.1,3"/>
  </g>
  <g class="cls-27">
    <line class="cls-10" x1="40.8" y1="594.9" x2="555.9" y2="594.9"/>
  </g>
  <g class="cls-17">
    <path class="cls-10" d="M555.9,594.9c5.2,0,10.3-1.1,15.1-3,4.9-1.9,9.2-4.9,12.9-8.5,3.7-3.7,6.6-8,8.6-12.9,2.1-4.8,3-10,3-15.1"/>
  </g>
  <g class="cls-33">
    <line class="cls-10" x1="595.5" y1="555.3" x2="595.5" y2="41.4"/>
  </g>
  <g class="cls-8">
    <path class="cls-10" d="M595.5,41.4c0-5.2-1-10.3-3-15.1-2-4.8-4.9-9.1-8.6-12.8-3.7-3.7-8-6.6-12.9-8.5-4.8-2.1-9.9-3-15.1-3"/>
  </g>
  <g class="cls-14">
    <line class="cls-10" x1="555.9" y1="1.9" x2="40.8" y2="1.9"/>
  </g>
  <g class="cls-28">
    <path class="cls-10" d="M40.8,1.9c-5.2,0-10.3,1-15.1,3-4.9,1.9-9.2,4.9-12.9,8.5-3.7,3.7-6.6,8-8.6,12.8-2,4.9-3,10-3,15.1"/>
  </g>
  <g class="cls-23">
    <line class="cls-10" x1="21.1" y1="41.4" x2="21.1" y2="555.3"/>
  </g>
  <g class="cls-34">
    <path class="cls-10" d="M21.1,555.3c0,5.3,2.1,10.3,5.7,14.1,3.8,3.7,8.8,5.7,14,5.7"/>
  </g>
  <g class="cls-2">
    <line class="cls-10" x1="40.8" y1="575.1" x2="555.9" y2="575.1"/>
  </g>
  <g class="cls-19">
    <path class="cls-10" d="M555.9,575.1c5.2,0,10.3-2.1,14-5.7,3.7-3.8,5.7-8.8,5.7-14.1"/>
  </g>
  <g class="cls-5">
    <line class="cls-10" x1="575.7" y1="555.3" x2="575.7" y2="41.4"/>
  </g>
  <g class="cls-31">
    <path class="cls-10" d="M575.7,41.4c0-5.2-2.1-10.3-5.7-14-3.7-3.7-8.8-5.8-14-5.8"/>
  </g>
  <g class="cls-7">
    <line class="cls-10" x1="555.9" y1="21.6" x2="40.8" y2="21.6"/>
  </g>
  <g class="cls-3">
    <path class="cls-10" d="M40.8,21.6c-5.2,0-10.2,2.2-14,5.8-3.7,3.7-5.7,8.8-5.7,14"/>
  </g>
  <g class="cls-32">
    <polyline class="cls-10" points="169.6 100.7 347.9 100.7 347.9 199.6 169.6 199.6 169.6 100.7"/>
  </g>
  <g class="cls-30">
    <polyline class="cls-10" points="169.6 249 347.9 249 347.9 347.8 169.6 347.8 169.6 249"/>
  </g>
  <g class="cls-25">
    <polyline class="cls-10" points="169.6 397.3 347.9 397.3 347.9 496 169.6 496 169.6 397.3"/>
  </g>
  <g class="cls-1">
    <polyline class="cls-10" points="387.6 61.2 427.1 61.2 427.1 535.6 387.6 535.6 387.6 61.2"/>
  </g>
  <g class="cls-15">
    <polyline class="cls-12" points="169.6 199.6 347.9 199.6 347.9 100.7 169.6 100.7 169.6 199.6"/>
  </g>
  <g class="cls-22">
    <polyline class="cls-12" points="169.6 347.8 347.9 347.8 347.9 249 169.6 249 169.6 347.8"/>
  </g>
  <g class="cls-35">
    <polyline class="cls-12" points="169.6 496 347.9 496 347.9 397.3 169.6 397.3 169.6 496"/>
  </g>
  <g class="cls-20">
    <polyline class="cls-12" points="387.6 535.6 427.1 535.6 427.1 61.2 387.6 61.2 387.6 535.6"/>
  </g>
  <g class="cls-6">
    <path class="cls-13" d="M1.3,41.4c0-2.3.2-4.8.7-7.1.4-2.5,1.2-5,2.2-7.4,2-5,4.9-9.5,8.8-13.4,3.9-3.9,8.5-6.8,13.3-8.8,2.5-1,5-1.7,7.4-2.2,2.5-.4,4.9-.6,7.3-.6H1.3v39.5"/>
  </g>
  <g class="cls-9">
    <path class="cls-13" d="M555.9,1.9c2.3,0,4.7.2,7.2.6,2.5.4,4.9,1.1,7.4,2.1,4.9,1.9,9.5,5,13.4,8.9,3.9,3.9,6.8,8.4,8.8,13.3,1,2.5,1.7,4.9,2.2,7.4.4,2.5.7,4.9.7,7.2V1.9h-39.6"/>
  </g>
  <g class="cls-18">
    <path class="cls-13" d="M595.5,555.4c0,2.4-.2,4.8-.7,7.1-.4,2.5-1.2,5-2.2,7.4-2,5-4.9,9.5-8.8,13.4-3.9,3.9-8.6,6.8-13.4,8.8-2.5,1-4.9,1.6-7.4,2.2-2.5.4-4.9.6-7.2.6h39.6v-39.5"/>
  </g>
  <g class="cls-36">
    <path class="cls-13" d="M40.8,594.9c-2.3,0-4.7-.2-7.2-.6-2.5-.5-4.9-1.2-7.4-2.2-4.9-1.9-9.5-4.9-13.4-8.8-3.9-3.9-6.8-8.4-8.8-13.4-1-2.4-1.6-4.9-2.2-7.4-.4-2.4-.7-4.8-.7-7.1v39.5h39.6"/>
  </g>
  <g class="cls-29">
    <path class="cls-13" d="M387.6,61.2h39.6v474.4h-39.6V61.2M169.6,397.3h178.2v98.8h-178.2v-98.8M169.6,249h178.2v98.8h-178.2v-98.8M169.6,100.7h178.2v98.9h-178.2v-98.9M21.1,41.4v513.9c0,2.4.4,4.9,1.4,7.4,1,2.4,2.4,4.8,4.3,6.7s4.3,3.4,6.7,4.3c2.5,1,5,1.4,7.3,1.4h515.1c2.3,0,4.8-.4,7.3-1.4,2.5-1,4.8-2.4,6.7-4.3s3.5-4.3,4.4-6.7c.9-2.5,1.3-5,1.3-7.4V41.4c0-2.3-.4-4.8-1.3-7.2-1-2.5-2.5-4.8-4.4-6.7s-4.2-3.5-6.7-4.4c-2.5-1-5-1.4-7.3-1.4H40.8c-2.3,0-4.8.4-7.3,1.4-2.4,1-4.8,2.5-6.7,4.4s-3.4,4.2-4.3,6.7c-1,2.5-1.4,5-1.4,7.2"/>
  </g>
  <g class="cls-21">
    <polyline class="cls-10" points="1.3 1.9 595.5 1.9 595.5 594.9 1.3 594.9 1.3 1.9"/>
  </g>
  <g class="cls-26">
    <path class="cls-12" d="M40.8,21.6h515.1c2.3,0,4.8.4,7.3,1.4,2.5,1,4.8,2.5,6.7,4.4s3.5,4.2,4.4,6.7c.9,2.5,1.3,5,1.3,7.2v513.9c0,2.4-.4,4.9-1.3,7.4-1,2.4-2.5,4.8-4.4,6.7s-4.2,3.4-6.7,4.3c-2.5,1-5,1.4-7.3,1.4H40.8c-2.3,0-4.8-.4-7.3-1.4-2.4-1-4.8-2.4-6.7-4.3s-3.4-4.3-4.3-6.7c-1-2.5-1.4-5-1.4-7.4V41.4c0-2.3.4-4.8,1.4-7.2,1-2.5,2.4-4.8,4.3-6.7s4.3-3.5,6.7-4.4c2.5-1,5-1.4,7.3-1.4M1.3,555.3c0,2.4.2,4.8.7,7.2.4,2.4,1.2,4.9,2.2,7.4,2,4.9,4.9,9.5,8.8,13.4,3.9,3.9,8.6,6.8,13.4,8.8,2.5,1,4.9,1.6,7.4,2.2,2.5.4,4.9.6,7.2.6h515.1c2.3,0,4.7-.2,7.2-.6,2.5-.5,5-1.2,7.4-2.2,5-1.9,9.5-4.9,13.4-8.8,3.9-3.9,6.8-8.5,8.8-13.4,1-2.5,1.7-5,2.2-7.4.4-2.5.7-4.9.7-7.2V41.4c0-2.3-.2-4.8-.7-7.1-.4-2.5-1.2-5-2.2-7.4-2-5-4.9-9.5-8.8-13.4-3.9-3.9-8.5-6.9-13.4-8.9-2.4-1-4.9-1.6-7.4-2.1-2.5-.4-4.9-.6-7.2-.6H40.8c-2.3,0-4.7.2-7.2.6s-4.9,1.1-7.4,2.1c-4.9,1.9-9.5,5-13.4,8.9-3.9,3.9-6.8,8.4-8.8,13.4-1,2.4-1.7,4.9-2.2,7.4-.4,2.4-.7,4.9-.7,7.1v513.9"/>
  </g>
</svg>