<?xml version="1.0" encoding="UTF-8" standalone="no"?>
<svg
   xmlns:dc="http://purl.org/dc/elements/1.1/"
   xmlns:cc="http://creativecommons.org/ns#"
   xmlns:rdf="http://www.w3.org/1999/02/22-rdf-syntax-ns#"
   xmlns:svg="http://www.w3.org/2000/svg"
   xmlns="http://www.w3.org/2000/svg"
   height="397.35001"
   width="397.35001"
   xml:space="preserve"
   viewBox="0 0 397.34999 397.34999"
   y="0px"
   x="0px"
   id="Layer_1"
   version="1.1"><metadata
   id="metadata24"><rdf:RDF><cc:Work
       rdf:about=""><dc:format>image/svg+xml</dc:format><dc:type
         rdf:resource="http://purl.org/dc/dcmitype/StillImage" /></cc:Work></rdf:RDF></metadata><defs
   id="defs22" />
<style
   id="style2"
   type="text/css">
	.st0{fill:#005EB8;stroke:#005EB8;stroke-width:0.5;stroke-miterlimit:10;}
	.st1{fill:#FFFFFF;}
	.st2{fill:#005EB8;}
</style>
<g
   transform="translate(-13.92,-13.92)"
   id="LWPOLYLINE_3_">
	<rect
   style="fill:#005eb8;stroke:#005eb8;stroke-width:0.5;stroke-miterlimit:10"
   id="rect4"
   height="396.85001"
   width="396.85001"
   class="st0"
   y="14.17"
   x="14.17" />
</g>
<g
   transform="translate(-13.92,-13.92)"
   id="LWPOLYLINE_5_">
	<path
   style="fill:#ffffff"
   id="path7"
   d="m 14.17,40.63 v 343.94 c 0,14.61 11.85,26.46 26.46,26.46 h 343.94 c 14.61,0 26.46,-11.85 26.46,-26.46 V 40.63 c 0,-14.61 -11.84,-26.46 -26.46,-26.46 H 40.63 c -14.61,0 -26.46,11.85 -26.46,26.46 z"
   class="st1" />
</g>
<g
   transform="translate(-13.92,-13.92)"
   id="LWPOLYLINE_6_">
	<path
   style="fill:#005eb8"
   id="path10"
   d="m 27.4,40.63 v 343.94 c 0,7.31 5.92,13.23 13.23,13.23 h 343.94 c 7.31,0 13.23,-5.92 13.23,-13.23 V 40.63 c 0,-7.3 -5.92,-13.23 -13.23,-13.23 H 40.63 c -7.3,0 -13.23,5.92 -13.23,13.23 z"
   class="st2" />
</g>
<g
   transform="translate(-13.92,-13.92)"
   id="LWPOLYLINE_12_">
	<rect
   style="fill:#ffffff"
   id="rect13"
   height="119.05"
   width="66.139999"
   class="st1"
   y="126.53"
   x="179.53" />
</g>
<g
   transform="translate(-13.92,-13.92)"
   id="LWPOLYLINE_14_">
	<rect
   style="fill:#ffffff"
   id="rect16"
   height="26.459999"
   width="317.48001"
   class="st1"
   y="272.60999"
   x="53.860001" />
</g>
</svg>