<?xml version="1.0" encoding="UTF-8"?>
<svg id="Layer_1" data-name="Layer 1" xmlns="http://www.w3.org/2000/svg" version="1.1" xmlns:xlink="http://www.w3.org/1999/xlink" viewBox="0 0 595.3 595.3">
  <defs>
    <style>
      .cls-1 {
        fill: #fff;
      }

      .cls-1, .cls-2, .cls-3, .cls-4 {
        stroke-width: 0px;
      }

      .cls-1, .cls-2, .cls-4 {
        fill-rule: evenodd;
      }

      .cls-5 {
        clip-path: url(#clippath-20);
      }

      .cls-6 {
        clip-path: url(#clippath-11);
      }

      .cls-7 {
        clip-path: url(#clippath-16);
      }

      .cls-8 {
        clip-path: url(#clippath-2);
      }

      .cls-9 {
        clip-path: url(#clippath-13);
      }

      .cls-10 {
        clip-path: url(#clippath-25);
      }

      .cls-11 {
        clip-path: url(#clippath-15);
      }

      .cls-12 {
        clip-path: url(#clippath-6);
      }

      .cls-13 {
        clip-path: url(#clippath-26);
      }

      .cls-14 {
        stroke: blue;
        stroke-linejoin: bevel;
        stroke-width: .1px;
      }

      .cls-14, .cls-3 {
        fill: none;
      }

      .cls-2 {
        fill: #f0f0f0;
      }

      .cls-15 {
        clip-path: url(#clippath-7);
      }

      .cls-16 {
        clip-path: url(#clippath-21);
      }

      .cls-17 {
        clip-path: url(#clippath-1);
      }

      .cls-18 {
        clip-path: url(#clippath-4);
      }

      .cls-19 {
        clip-path: url(#clippath-27);
      }

      .cls-20 {
        clip-path: url(#clippath-12);
      }

      .cls-21 {
        clip-path: url(#clippath-24);
      }

      .cls-22 {
        clip-path: url(#clippath-22);
      }

      .cls-23 {
        clip-path: url(#clippath-9);
      }

      .cls-24 {
        clip-path: url(#clippath);
      }

      .cls-25 {
        clip-path: url(#clippath-19);
      }

      .cls-26 {
        clip-path: url(#clippath-3);
      }

      .cls-27 {
        clip-path: url(#clippath-8);
      }

      .cls-28 {
        clip-path: url(#clippath-29);
      }

      .cls-29 {
        clip-path: url(#clippath-18);
      }

      .cls-30 {
        clip-path: url(#clippath-14);
      }

      .cls-31 {
        clip-path: url(#clippath-17);
      }

      .cls-32 {
        clip-path: url(#clippath-5);
      }

      .cls-33 {
        clip-path: url(#clippath-10);
      }

      .cls-4 {
        fill: #005eb8;
      }

      .cls-34 {
        clip-path: url(#clippath-23);
      }

      .cls-35 {
        clip-path: url(#clippath-28);
      }
    </style>
    <clipPath id="clippath">
      <rect class="cls-3" x="-30" y="-29.3" width="647.4" height="637"/>
    </clipPath>
    <clipPath id="clippath-1">
      <rect class="cls-3" x="-30" y="-29.3" width="647.4" height="637"/>
    </clipPath>
    <clipPath id="clippath-2">
      <rect class="cls-3" x="-30" y="-29.3" width="647.4" height="637"/>
    </clipPath>
    <clipPath id="clippath-3">
      <rect class="cls-3" x="-30" y="-29.3" width="647.4" height="637"/>
    </clipPath>
    <clipPath id="clippath-4">
      <rect class="cls-3" x="-30" y="-29.3" width="647.4" height="637"/>
    </clipPath>
    <clipPath id="clippath-5">
      <rect class="cls-3" x="-30" y="-29.3" width="647.4" height="637"/>
    </clipPath>
    <clipPath id="clippath-6">
      <rect class="cls-3" x="-30" y="-29.3" width="647.4" height="637"/>
    </clipPath>
    <clipPath id="clippath-7">
      <rect class="cls-3" x="-30" y="-29.3" width="647.4" height="637"/>
    </clipPath>
    <clipPath id="clippath-8">
      <rect class="cls-3" x="-30" y="-29.3" width="647.4" height="637"/>
    </clipPath>
    <clipPath id="clippath-9">
      <rect class="cls-3" x="-30" y="-29.3" width="647.4" height="637"/>
    </clipPath>
    <clipPath id="clippath-10">
      <rect class="cls-3" x="-30" y="-29.3" width="647.4" height="637"/>
    </clipPath>
    <clipPath id="clippath-11">
      <rect class="cls-3" x="-30" y="-29.3" width="647.4" height="637"/>
    </clipPath>
    <clipPath id="clippath-12">
      <rect class="cls-3" x="-30" y="-29.3" width="647.4" height="637"/>
    </clipPath>
    <clipPath id="clippath-13">
      <rect class="cls-3" x="-30" y="-29.3" width="647.4" height="637"/>
    </clipPath>
    <clipPath id="clippath-14">
      <rect class="cls-3" x="-30" y="-29.3" width="647.4" height="637"/>
    </clipPath>
    <clipPath id="clippath-15">
      <rect class="cls-3" x="-30" y="-29.3" width="647.4" height="637"/>
    </clipPath>
    <clipPath id="clippath-16">
      <rect class="cls-3" x="-30" y="-29.3" width="647.4" height="637"/>
    </clipPath>
    <clipPath id="clippath-17">
      <rect class="cls-3" x="-30" y="-29.3" width="647.4" height="637"/>
    </clipPath>
    <clipPath id="clippath-18">
      <rect class="cls-3" x="-30" y="-29.3" width="647.4" height="637"/>
    </clipPath>
    <clipPath id="clippath-19">
      <rect class="cls-3" x="-30" y="-29.3" width="647.4" height="637"/>
    </clipPath>
    <clipPath id="clippath-20">
      <rect class="cls-3" x="-30" y="-29.3" width="647.4" height="637"/>
    </clipPath>
    <clipPath id="clippath-21">
      <rect class="cls-3" x="-30" y="-29.3" width="647.4" height="637"/>
    </clipPath>
    <clipPath id="clippath-22">
      <rect class="cls-3" x="-30" y="-29.3" width="647.4" height="637"/>
    </clipPath>
    <clipPath id="clippath-23">
      <rect class="cls-3" x="-30" y="-29.3" width="647.4" height="637"/>
    </clipPath>
    <clipPath id="clippath-24">
      <rect class="cls-3" x="-30" y="-29.3" width="647.4" height="637"/>
    </clipPath>
    <clipPath id="clippath-25">
      <rect class="cls-3" x="-30" y="-29.3" width="647.4" height="637"/>
    </clipPath>
    <clipPath id="clippath-26">
      <rect class="cls-3" x="-30" y="-29.3" width="647.4" height="637"/>
    </clipPath>
    <clipPath id="clippath-27">
      <rect class="cls-3" x="-30" y="-29.3" width="647.4" height="637"/>
    </clipPath>
    <clipPath id="clippath-28">
      <rect class="cls-3" x="-30" y="-29.3" width="647.4" height="637"/>
    </clipPath>
    <clipPath id="clippath-29">
      <polyline class="cls-3" points="-30 607.7 617.4 607.7 617.4 -29.3"/>
    </clipPath>
  </defs>
  <g class="cls-24">
    <polyline class="cls-14" points="1 595.6 596.9 595.6 596.9 .4 1 .4 1 595.6"/>
  </g>
  <g class="cls-17">
    <line class="cls-14" x1="1" y1="40" x2="1" y2="555.9"/>
  </g>
  <g class="cls-8">
    <path class="cls-14" d="M1,555.9c0,5.2,1,10.4,3,15.2,2,4.8,4.9,9.2,8.6,12.9,3.7,3.7,8,6.5,12.8,8.6,4.9,2,10,3,15.2,3"/>
  </g>
  <g class="cls-26">
    <line class="cls-14" x1="40.7" y1="595.6" x2="557.3" y2="595.6"/>
  </g>
  <g class="cls-18">
    <path class="cls-14" d="M557.3,595.6c5.2,0,10.4-1.1,15.2-3,4.8-2.1,9.1-4.9,12.8-8.6s6.6-8.1,8.7-12.9c2-4.8,2.9-10,2.9-15.2"/>
  </g>
  <g class="cls-32">
    <line class="cls-14" x1="596.9" y1="555.9" x2="596.9" y2="40"/>
  </g>
  <g class="cls-12">
    <path class="cls-14" d="M596.9,40c0-5.2-1-10.3-2.9-15.2-2.1-4.8-5-9.1-8.7-12.8-3.7-3.7-8-6.6-12.8-8.6-4.8-2.1-10-3-15.2-3"/>
  </g>
  <g class="cls-15">
    <line class="cls-14" x1="557.3" y1=".4" x2="40.7" y2=".4"/>
  </g>
  <g class="cls-27">
    <path class="cls-14" d="M40.7.4c-5.2,0-10.3,1-15.2,3-4.8,2-9.1,4.9-12.8,8.6-3.7,3.7-6.6,8-8.6,12.8-2.1,4.9-3,10-3,15.2"/>
  </g>
  <g class="cls-23">
    <line class="cls-14" x1="20.8" y1="40" x2="20.8" y2="555.9"/>
  </g>
  <g class="cls-33">
    <path class="cls-14" d="M20.8,555.9c0,5.3,2.2,10.3,5.9,14,3.7,3.8,8.8,5.9,14,5.9"/>
  </g>
  <g class="cls-6">
    <line class="cls-14" x1="40.7" y1="575.8" x2="557.3" y2="575.8"/>
  </g>
  <g class="cls-20">
    <path class="cls-14" d="M557.3,575.8c5.2,0,10.3-2.1,14-5.9,3.7-3.7,5.9-8.7,5.9-14"/>
  </g>
  <g class="cls-9">
    <line class="cls-14" x1="577.2" y1="555.9" x2="577.2" y2="40"/>
  </g>
  <g class="cls-30">
    <path class="cls-14" d="M577.2,40c0-5.2-2.2-10.3-5.9-14-3.7-3.7-8.8-5.8-14-5.8"/>
  </g>
  <g class="cls-11">
    <line class="cls-14" x1="557.3" y1="20.2" x2="40.7" y2="20.2"/>
  </g>
  <g class="cls-7">
    <path class="cls-14" d="M40.7,20.2c-5.2,0-10.3,2.1-14,5.8-3.7,3.7-5.9,8.8-5.9,14"/>
  </g>
  <g class="cls-31">
    <polyline class="cls-14" points="209.5 59.9 169.9 59.9 169.9 536 209.5 536 209.5 59.9"/>
  </g>
  <g class="cls-29">
    <polyline class="cls-14" points="428.1 174 249.3 174 249.3 273.1 428.1 273.1 428.1 174"/>
  </g>
  <g class="cls-25">
    <polyline class="cls-14" points="428.1 322.8 249.3 322.8 249.3 422 428.1 422 428.1 322.8"/>
  </g>
  <g class="cls-5">
    <path class="cls-4" d="M428.1,422h-178.7v-99.2h178.7v99.2M428.1,273.1h-178.7v-99.1h178.7v99.1M209.5,536h-39.7V59.9h39.7v476.1M20.8,40v515.9c0,2.4.4,4.9,1.4,7.3,1,2.5,2.5,4.8,4.5,6.7,2,2,4.2,3.5,6.7,4.5,2.5,1,5,1.4,7.3,1.4h516.6c2.4,0,4.9-.4,7.3-1.4,2.5-1,4.8-2.5,6.7-4.5s3.5-4.2,4.5-6.7c1-2.4,1.4-4.9,1.4-7.3V40c0-2.3-.4-4.8-1.4-7.3-1-2.5-2.5-4.8-4.5-6.7s-4.2-3.5-6.7-4.5c-2.4-1-4.9-1.3-7.3-1.3H40.7c-5.2,0-10.3,2.1-14,5.8-3.7,3.7-5.9,8.8-5.9,14"/>
  </g>
  <g class="cls-16">
    <path class="cls-4" d="M40.7,595.6c-2.3,0-4.8-.2-7.2-.7-2.5-.5-5-1.2-7.4-2.2-5-2-9.6-4.9-13.5-8.8-3.9-3.9-6.8-8.5-8.8-13.5-1-2.4-1.7-4.9-2.2-7.4-.4-2.4-.7-4.9-.7-7.2v39.6h39.7"/>
  </g>
  <g class="cls-22">
    <path class="cls-4" d="M1,40c0-2.3.2-4.7.7-7.2.4-2.5,1.1-5,2.1-7.4,2-4.9,5-9.6,8.8-13.5,3.9-3.9,8.6-6.8,13.5-8.8,2.5-1,4.9-1.7,7.4-2.2,2.5-.4,4.9-.7,7.3-.7H1v39.6"/>
  </g>
  <g class="cls-34">
    <path class="cls-4" d="M557.3.4c2.4,0,4.8.2,7.2.7,2.5.4,5,1.2,7.4,2.1,5,2,9.6,5,13.5,8.9,3.9,3.9,7,8.5,8.9,13.4,1,2.5,1.6,5,2.1,7.4.4,2.5.7,4.9.7,7.3V.4h-39.7"/>
  </g>
  <g class="cls-21">
    <path class="cls-4" d="M596.9,555.9c0,2.4-.1,4.8-.7,7.3-.4,2.4-1.1,4.9-2.1,7.4-2,4.9-4.9,9.4-8.8,13.4-3.9,3.9-8.6,6.9-13.5,8.9-2.4,1-4.9,1.6-7.4,2.1-2.5.5-4.9.8-7.2.8h39.6v-39.7"/>
  </g>
  <g class="cls-10">
    <polyline class="cls-1" points="209.5 59.9 169.9 59.9 169.9 536 209.5 536 209.5 59.9"/>
  </g>
  <g class="cls-13">
    <polyline class="cls-1" points="428.1 322.8 249.3 322.8 249.3 422 428.1 422 428.1 322.8"/>
  </g>
  <g class="cls-19">
    <polyline class="cls-2" points="428.1 174 249.3 174 249.3 273.1 428.1 273.1 428.1 174"/>
  </g>
  <g class="cls-35">
    <polyline class="cls-14" points="1 595.6 1 .4 596.9 .4 596.9 595.6 1 595.6"/>
  </g>
  <g class="cls-28">
    <path class="cls-1" d="M40.7,20.2h516.6c2.4,0,4.9.3,7.3,1.3,2.5,1,4.8,2.5,6.7,4.5s3.5,4.2,4.5,6.7c1,2.5,1.4,5,1.4,7.3v515.9c0,2.4-.4,4.9-1.4,7.3-1,2.5-2.5,4.8-4.5,6.7s-4.2,3.5-6.7,4.5c-2.4,1-4.9,1.4-7.3,1.4H40.7c-2.3,0-4.8-.4-7.3-1.4-2.5-1-4.8-2.5-6.7-4.5-2-2-3.5-4.2-4.5-6.7-1-2.4-1.4-4.9-1.4-7.3V40c0-2.3.4-4.8,1.4-7.3,1-2.5,2.5-4.8,4.5-6.7,2-2,4.2-3.5,6.7-4.5,2.5-1,5-1.3,7.3-1.3M40.7.4c-2.3,0-4.8.2-7.2.7-2.5.4-5,1.2-7.4,2.2-5,2-9.6,4.9-13.5,8.8-3.9,3.9-7,8.5-8.9,13.5-1,2.4-1.6,4.9-2.1,7.4-.4,2.4-.7,4.9-.7,7.2v515.9c0,2.4.2,4.8.7,7.3.4,2.4,1.1,4.9,2.1,7.4,2,4.9,5,9.6,8.9,13.5,3.9,3.9,8.5,6.8,13.5,8.8,2.4,1,4.9,1.6,7.4,2.2,2.4.4,4.9.7,7.2.7h516.6c2.4,0,4.8-.2,7.3-.7,2.4-.5,4.9-1.2,7.4-2.2,4.9-2,9.5-4.9,13.4-8.8s7-8.6,8.9-13.5c1-2.5,1.6-5,2.1-7.4.5-2.5.7-4.9.7-7.3V40c0-2.3-.1-4.8-.7-7.2-.4-2.5-1.1-5-2.1-7.4-2-5-5-9.6-8.9-13.5-3.9-3.9-8.5-6.8-13.4-8.8-2.5-1-5-1.7-7.4-2.2-2.5-.4-4.9-.7-7.3-.7H40.7"/>
  </g>
</svg>