<?xml version="1.0" encoding="UTF-8"?>
<svg id="Layer_1" data-name="Layer 1" xmlns="http://www.w3.org/2000/svg" version="1.1" xmlns:xlink="http://www.w3.org/1999/xlink" viewBox="0 0 595.3 595.3">
  <defs>
    <style>
      .cls-1 {
        fill: #fff;
      }

      .cls-1, .cls-2, .cls-3, .cls-4 {
        stroke-width: 0px;
      }

      .cls-1, .cls-2, .cls-4 {
        fill-rule: evenodd;
      }

      .cls-5 {
        clip-path: url(#clippath-20);
      }

      .cls-6 {
        clip-path: url(#clippath-11);
      }

      .cls-7 {
        clip-path: url(#clippath-16);
      }

      .cls-8 {
        clip-path: url(#clippath-2);
      }

      .cls-9 {
        clip-path: url(#clippath-13);
      }

      .cls-10 {
        clip-path: url(#clippath-25);
      }

      .cls-11 {
        clip-path: url(#clippath-15);
      }

      .cls-12 {
        clip-path: url(#clippath-6);
      }

      .cls-13 {
        clip-path: url(#clippath-26);
      }

      .cls-14 {
        stroke: blue;
        stroke-linejoin: bevel;
        stroke-width: .1px;
      }

      .cls-14, .cls-3 {
        fill: none;
      }

      .cls-2 {
        fill: #f0f0f0;
      }

      .cls-15 {
        clip-path: url(#clippath-7);
      }

      .cls-16 {
        clip-path: url(#clippath-21);
      }

      .cls-17 {
        clip-path: url(#clippath-1);
      }

      .cls-18 {
        clip-path: url(#clippath-4);
      }

      .cls-19 {
        clip-path: url(#clippath-27);
      }

      .cls-20 {
        clip-path: url(#clippath-12);
      }

      .cls-21 {
        clip-path: url(#clippath-24);
      }

      .cls-22 {
        clip-path: url(#clippath-22);
      }

      .cls-23 {
        clip-path: url(#clippath-9);
      }

      .cls-24 {
        clip-path: url(#clippath);
      }

      .cls-25 {
        clip-path: url(#clippath-19);
      }

      .cls-26 {
        clip-path: url(#clippath-3);
      }

      .cls-27 {
        clip-path: url(#clippath-8);
      }

      .cls-28 {
        clip-path: url(#clippath-29);
      }

      .cls-29 {
        clip-path: url(#clippath-18);
      }

      .cls-30 {
        clip-path: url(#clippath-14);
      }

      .cls-31 {
        clip-path: url(#clippath-17);
      }

      .cls-32 {
        clip-path: url(#clippath-5);
      }

      .cls-33 {
        clip-path: url(#clippath-10);
      }

      .cls-4 {
        fill: #005eb8;
      }

      .cls-34 {
        clip-path: url(#clippath-23);
      }

      .cls-35 {
        clip-path: url(#clippath-28);
      }
    </style>
    <clipPath id="clippath">
      <rect class="cls-3" x="-20.4" y="-11" width="647.4" height="637"/>
    </clipPath>
    <clipPath id="clippath-1">
      <rect class="cls-3" x="-20.4" y="-11" width="647.4" height="637"/>
    </clipPath>
    <clipPath id="clippath-2">
      <rect class="cls-3" x="-20.4" y="-11" width="647.4" height="637"/>
    </clipPath>
    <clipPath id="clippath-3">
      <rect class="cls-3" x="-20.4" y="-11" width="647.4" height="637"/>
    </clipPath>
    <clipPath id="clippath-4">
      <rect class="cls-3" x="-20.4" y="-11" width="647.4" height="637"/>
    </clipPath>
    <clipPath id="clippath-5">
      <rect class="cls-3" x="-20.4" y="-11" width="647.4" height="637"/>
    </clipPath>
    <clipPath id="clippath-6">
      <rect class="cls-3" x="-20.4" y="-11" width="647.4" height="637"/>
    </clipPath>
    <clipPath id="clippath-7">
      <rect class="cls-3" x="-20.4" y="-11" width="647.4" height="637"/>
    </clipPath>
    <clipPath id="clippath-8">
      <rect class="cls-3" x="-20.4" y="-11" width="647.4" height="637"/>
    </clipPath>
    <clipPath id="clippath-9">
      <rect class="cls-3" x="-20.4" y="-11" width="647.4" height="637"/>
    </clipPath>
    <clipPath id="clippath-10">
      <rect class="cls-3" x="-20.4" y="-11" width="647.4" height="637"/>
    </clipPath>
    <clipPath id="clippath-11">
      <rect class="cls-3" x="-20.4" y="-11" width="647.4" height="637"/>
    </clipPath>
    <clipPath id="clippath-12">
      <rect class="cls-3" x="-20.4" y="-11" width="647.4" height="637"/>
    </clipPath>
    <clipPath id="clippath-13">
      <rect class="cls-3" x="-20.4" y="-11" width="647.4" height="637"/>
    </clipPath>
    <clipPath id="clippath-14">
      <rect class="cls-3" x="-20.4" y="-11" width="647.4" height="637"/>
    </clipPath>
    <clipPath id="clippath-15">
      <rect class="cls-3" x="-20.4" y="-11" width="647.4" height="637"/>
    </clipPath>
    <clipPath id="clippath-16">
      <rect class="cls-3" x="-20.4" y="-11" width="647.4" height="637"/>
    </clipPath>
    <clipPath id="clippath-17">
      <rect class="cls-3" x="-20.4" y="-11" width="647.4" height="637"/>
    </clipPath>
    <clipPath id="clippath-18">
      <rect class="cls-3" x="-20.4" y="-11" width="647.4" height="637"/>
    </clipPath>
    <clipPath id="clippath-19">
      <rect class="cls-3" x="-20.4" y="-11" width="647.4" height="637"/>
    </clipPath>
    <clipPath id="clippath-20">
      <rect class="cls-3" x="-20.4" y="-11" width="647.4" height="637"/>
    </clipPath>
    <clipPath id="clippath-21">
      <rect class="cls-3" x="-20.4" y="-11" width="647.4" height="637"/>
    </clipPath>
    <clipPath id="clippath-22">
      <rect class="cls-3" x="-20.4" y="-11" width="647.4" height="637"/>
    </clipPath>
    <clipPath id="clippath-23">
      <rect class="cls-3" x="-20.4" y="-11" width="647.4" height="637"/>
    </clipPath>
    <clipPath id="clippath-24">
      <rect class="cls-3" x="-20.4" y="-11" width="647.4" height="637"/>
    </clipPath>
    <clipPath id="clippath-25">
      <rect class="cls-3" x="-20.4" y="-11" width="647.4" height="637"/>
    </clipPath>
    <clipPath id="clippath-26">
      <rect class="cls-3" x="-20.4" y="-11" width="647.4" height="637"/>
    </clipPath>
    <clipPath id="clippath-27">
      <rect class="cls-3" x="-20.4" y="-11" width="647.4" height="637"/>
    </clipPath>
    <clipPath id="clippath-28">
      <rect class="cls-3" x="-20.4" y="-11" width="647.4" height="637"/>
    </clipPath>
    <clipPath id="clippath-29">
      <polyline class="cls-3" points="627 -11 -20.4 -11 -20.4 626"/>
    </clipPath>
  </defs>
  <g class="cls-24">
    <polyline class="cls-14" points="596 1.1 0 1.1 0 596.4 596 596.4 596 1.1"/>
  </g>
  <g class="cls-17">
    <line class="cls-14" x1="596" y1="556.7" x2="596" y2="40.9"/>
  </g>
  <g class="cls-8">
    <path class="cls-14" d="M596,40.9c0-5.2-1-10.4-3-15.2-2-4.8-4.9-9.2-8.6-12.9-3.7-3.7-8-6.5-12.8-8.6-4.9-2-10-3-15.2-3"/>
  </g>
  <g class="cls-26">
    <line class="cls-14" x1="556.3" y1="1.1" x2="39.8" y2="1.1"/>
  </g>
  <g class="cls-18">
    <path class="cls-14" d="M39.8,1.1c-5.2,0-10.4,1.1-15.2,3-4.8,2.1-9.1,4.9-12.8,8.6s-6.6,8.1-8.7,12.9C1.1,30.4,0,35.6,0,40.9"/>
  </g>
  <g class="cls-32">
    <line class="cls-14" x1="0" y1="40.9" x2="0" y2="556.7"/>
  </g>
  <g class="cls-12">
    <path class="cls-14" d="M0,556.7c0,5.2,1,10.3,2.9,15.2,2.1,4.8,5,9.1,8.7,12.8,3.7,3.7,8,6.6,12.8,8.6,4.8,2.1,10,3,15.2,3"/>
  </g>
  <g class="cls-15">
    <line class="cls-14" x1="39.8" y1="596.4" x2="556.3" y2="596.4"/>
  </g>
  <g class="cls-27">
    <path class="cls-14" d="M556.3,596.4c5.2,0,10.3-1,15.2-3,4.8-2,9.1-4.9,12.8-8.6,3.7-3.7,6.6-8,8.6-12.8,2.1-4.9,3-10,3-15.2"/>
  </g>
  <g class="cls-23">
    <line class="cls-14" x1="576.2" y1="556.7" x2="576.2" y2="40.9"/>
  </g>
  <g class="cls-33">
    <path class="cls-14" d="M576.2,40.9c0-5.3-2.2-10.3-5.9-14-3.7-3.8-8.8-5.9-14-5.9"/>
  </g>
  <g class="cls-6">
    <line class="cls-14" x1="556.3" y1="21" x2="39.8" y2="21"/>
  </g>
  <g class="cls-20">
    <path class="cls-14" d="M39.8,21c-5.2,0-10.3,2.1-14,5.9-3.7,3.7-5.9,8.7-5.9,14"/>
  </g>
  <g class="cls-9">
    <line class="cls-14" x1="19.9" y1="40.9" x2="19.9" y2="556.7"/>
  </g>
  <g class="cls-30">
    <path class="cls-14" d="M19.9,556.7c0,5.2,2.2,10.3,5.9,14,3.7,3.7,8.8,5.8,14,5.8"/>
  </g>
  <g class="cls-11">
    <line class="cls-14" x1="39.8" y1="576.5" x2="556.3" y2="576.5"/>
  </g>
  <g class="cls-7">
    <path class="cls-14" d="M556.3,576.5c5.2,0,10.3-2.1,14-5.8,3.7-3.7,5.9-8.8,5.9-14"/>
  </g>
  <g class="cls-31">
    <polyline class="cls-14" points="387.5 536.9 427.2 536.9 427.2 60.7 387.5 60.7 387.5 536.9"/>
  </g>
  <g class="cls-29">
    <polyline class="cls-14" points="168.9 422.7 347.7 422.7 347.7 323.6 168.9 323.6 168.9 422.7"/>
  </g>
  <g class="cls-25">
    <polyline class="cls-14" points="168.9 274 347.7 274 347.7 174.7 168.9 174.7 168.9 274"/>
  </g>
  <g class="cls-5">
    <path class="cls-4" d="M168.9,174.7h178.7v99.2h-178.7v-99.2M168.9,323.6h178.7v99.1h-178.7v-99.1M387.5,60.7h39.7v476.1h-39.7V60.7M576.2,556.7V40.9c0-2.4-.4-4.9-1.4-7.3-1-2.5-2.5-4.8-4.5-6.7-2-2-4.2-3.5-6.7-4.5-2.5-1-5-1.4-7.3-1.4H39.8c-2.4,0-4.9.4-7.3,1.4-2.5,1-4.8,2.5-6.7,4.5s-3.5,4.2-4.5,6.7c-1,2.4-1.4,4.9-1.4,7.3v515.9c0,2.3.4,4.8,1.4,7.3,1,2.5,2.5,4.8,4.5,6.7s4.2,3.5,6.7,4.5c2.4,1,4.9,1.3,7.3,1.3h516.6c5.2,0,10.3-2.1,14-5.8,3.7-3.7,5.9-8.8,5.9-14"/>
  </g>
  <g class="cls-16">
    <path class="cls-4" d="M556.3,1.1c2.3,0,4.8.2,7.2.7,2.5.5,5,1.2,7.4,2.2,5,2,9.6,4.9,13.5,8.8,3.9,3.9,6.8,8.5,8.8,13.5,1,2.4,1.7,4.9,2.2,7.4.4,2.4.7,4.9.7,7.2V1.1h-39.7"/>
  </g>
  <g class="cls-22">
    <path class="cls-4" d="M596,556.7c0,2.3-.2,4.7-.7,7.2-.4,2.5-1.1,5-2.1,7.4-2,4.9-5,9.6-8.8,13.5-3.9,3.9-8.6,6.8-13.5,8.8-2.5,1-4.9,1.7-7.4,2.2-2.5.4-4.9.7-7.3.7h39.7v-39.6"/>
  </g>
  <g class="cls-34">
    <path class="cls-4" d="M39.8,596.4c-2.4,0-4.8-.2-7.2-.7-2.5-.4-5-1.2-7.4-2.1-5-2-9.6-5-13.5-8.9-3.9-3.9-7-8.5-8.9-13.4-1-2.5-1.6-5-2.1-7.4-.4-2.5-.7-4.9-.7-7.3v39.6h39.7"/>
  </g>
  <g class="cls-21">
    <path class="cls-4" d="M0,40.9c0-2.4.1-4.8.7-7.3.4-2.4,1.1-4.9,2.1-7.4,2-4.9,4.9-9.4,8.8-13.4s8.6-6.9,13.5-8.9c2.4-1,4.9-1.6,7.4-2.1,2.5-.5,4.9-.8,7.2-.8H0v39.7"/>
  </g>
  <g class="cls-10">
    <polyline class="cls-1" points="387.5 536.9 427.2 536.9 427.2 60.7 387.5 60.7 387.5 536.9"/>
  </g>
  <g class="cls-13">
    <polyline class="cls-1" points="168.9 274 347.7 274 347.7 174.7 168.9 174.7 168.9 274"/>
  </g>
  <g class="cls-19">
    <polyline class="cls-2" points="168.9 422.7 347.7 422.7 347.7 323.6 168.9 323.6 168.9 422.7"/>
  </g>
  <g class="cls-35">
    <polyline class="cls-14" points="596 1.1 596 596.4 0 596.4 0 1.1 596 1.1"/>
  </g>
  <g class="cls-28">
    <path class="cls-1" d="M556.3,576.5H39.8c-2.4,0-4.9-.3-7.3-1.3-2.5-1-4.8-2.5-6.7-4.5s-3.5-4.2-4.5-6.7c-1-2.5-1.4-5-1.4-7.3V40.9c0-2.4.4-4.9,1.4-7.3,1-2.5,2.5-4.8,4.5-6.7s4.2-3.5,6.7-4.5c2.4-1,4.9-1.4,7.3-1.4h516.6c2.3,0,4.8.4,7.3,1.4,2.5,1,4.8,2.5,6.7,4.5,2,2,3.5,4.2,4.5,6.7,1,2.4,1.4,4.9,1.4,7.3v515.9c0,2.3-.4,4.8-1.4,7.3-1,2.5-2.5,4.8-4.5,6.7-2,2-4.2,3.5-6.7,4.5-2.5,1-5,1.3-7.3,1.3M556.3,596.4c2.3,0,4.8-.2,7.2-.7,2.5-.4,5-1.2,7.4-2.2,5-2,9.6-4.9,13.5-8.8,3.9-3.9,7-8.5,8.9-13.5,1-2.4,1.6-4.9,2.1-7.4.4-2.4.7-4.9.7-7.2V40.9c0-2.4-.2-4.8-.7-7.3-.4-2.4-1.1-4.9-2.1-7.4-2-4.9-5-9.6-8.9-13.5-3.9-3.9-8.5-6.8-13.5-8.8-2.4-1-4.9-1.6-7.4-2.2-2.4-.4-4.9-.7-7.2-.7H39.8c-2.4,0-4.8.2-7.3.7-2.4.5-4.9,1.2-7.4,2.2-4.9,2-9.5,4.9-13.4,8.8s-7,8.6-8.9,13.5c-1,2.5-1.6,5-2.1,7.4-.5,2.5-.7,4.9-.7,7.3v515.9c0,2.3.1,4.8.7,7.2.4,2.5,1.1,5,2.1,7.4,2,5,5,9.6,8.9,13.5,3.9,3.9,8.5,6.8,13.4,8.8,2.5,1,5,1.7,7.4,2.2,2.5.4,4.9.7,7.3.7h516.6"/>
  </g>
</svg>