<?xml version="1.0" encoding="utf-8"?>
<!-- Generator: Adobe Illustrator 14.0.0, SVG Export Plug-In . SVG Version: 6.00 Build 43363)  -->
<!DOCTYPE svg PUBLIC "-//W3C//DTD SVG 1.1//EN" "http://www.w3.org/Graphics/SVG/1.1/DTD/svg11.dtd">
<svg version="1.1" id="Layer_1" xmlns="http://www.w3.org/2000/svg" xmlns:xlink="http://www.w3.org/1999/xlink" x="0px" y="0px"
	 width="595.276px" height="595.276px" viewBox="0 0 595.276 595.276" enable-background="new 0 0 595.276 595.276"
	 xml:space="preserve">
<g>
	<defs>
		<polyline id="SVGID_1_" points="11.723,581.377 583.552,581.377 583.552,13.898 11.723,13.898 11.723,581.377 		"/>
	</defs>
	<clipPath id="SVGID_2_">
		<use xlink:href="#SVGID_1_"  overflow="visible"/>
	</clipPath>
	
		<polyline clip-path="url(#SVGID_2_)" fill="none" stroke="#0000FF" stroke-width="0.12" stroke-linejoin="bevel" stroke-miterlimit="1.414" points="
		22.1,572.076 570.2,572.076 570.2,23.976 22.1,23.976 22.1,572.076 	"/>
	
		<line clip-path="url(#SVGID_2_)" fill="none" stroke="#0000FF" stroke-width="0.12" stroke-linejoin="bevel" stroke-miterlimit="1.414" x1="22.1" y1="60.476" x2="22.1" y2="535.476"/>
	
		<path clip-path="url(#SVGID_2_)" fill="none" stroke="#0000FF" stroke-width="0.12" stroke-linejoin="bevel" stroke-miterlimit="1.414" d="
		M22.1,535.476c0,4.8,1,9.6,2.8,14c1.8,4.5,4.5,8.5,7.9,11.899c3.4,3.4,7.4,6.101,11.9,7.9c4.4,1.8,9.1,2.8,13.9,2.8"/>
	
		<line clip-path="url(#SVGID_2_)" fill="none" stroke="#0000FF" stroke-width="0.12" stroke-linejoin="bevel" stroke-miterlimit="1.414" x1="58.6" y1="572.076" x2="533.7" y2="572.076"/>
	
		<path clip-path="url(#SVGID_2_)" fill="none" stroke="#0000FF" stroke-width="0.12" stroke-linejoin="bevel" stroke-miterlimit="1.414" d="
		M533.7,572.076c4.8,0,9.5-1,13.9-2.8c4.5-1.8,8.5-4.5,11.899-7.9c3.4-3.399,6.101-7.399,7.9-11.899c1.9-4.4,2.8-9.2,2.8-14"/>
	
		<line clip-path="url(#SVGID_2_)" fill="none" stroke="#0000FF" stroke-width="0.12" stroke-linejoin="bevel" stroke-miterlimit="1.414" x1="570.2" y1="535.476" x2="570.2" y2="60.476"/>
	
		<path clip-path="url(#SVGID_2_)" fill="none" stroke="#0000FF" stroke-width="0.12" stroke-linejoin="bevel" stroke-miterlimit="1.414" d="
		M570.2,60.476c0-4.8-0.899-9.5-2.8-14c-1.8-4.4-4.5-8.4-7.9-11.8c-3.399-3.4-7.399-6.1-11.899-7.9c-4.4-1.9-9.101-2.8-13.9-2.8"/>
	
		<line clip-path="url(#SVGID_2_)" fill="none" stroke="#0000FF" stroke-width="0.12" stroke-linejoin="bevel" stroke-miterlimit="1.414" x1="533.7" y1="23.976" x2="58.6" y2="23.976"/>
	
		<path clip-path="url(#SVGID_2_)" fill="none" stroke="#0000FF" stroke-width="0.12" stroke-linejoin="bevel" stroke-miterlimit="1.414" d="
		M58.6,23.976c-4.8,0-9.5,0.9-13.9,2.8c-4.5,1.8-8.5,4.5-11.9,7.9c-3.4,3.4-6.1,7.4-7.9,11.8c-1.8,4.5-2.8,9.2-2.8,14"/>
	
		<line clip-path="url(#SVGID_2_)" fill="none" stroke="#0000FF" stroke-width="0.12" stroke-linejoin="bevel" stroke-miterlimit="1.414" x1="40.4" y1="60.476" x2="40.4" y2="535.476"/>
	
		<path clip-path="url(#SVGID_2_)" fill="none" stroke="#0000FF" stroke-width="0.12" stroke-linejoin="bevel" stroke-miterlimit="1.414" d="
		M40.4,535.476c0,4.899,1.9,9.5,5.3,13c3.5,3.399,8.1,5.3,12.9,5.3"/>
	
		<line clip-path="url(#SVGID_2_)" fill="none" stroke="#0000FF" stroke-width="0.12" stroke-linejoin="bevel" stroke-miterlimit="1.414" x1="58.6" y1="553.776" x2="533.7" y2="553.776"/>
	
		<path clip-path="url(#SVGID_2_)" fill="none" stroke="#0000FF" stroke-width="0.12" stroke-linejoin="bevel" stroke-miterlimit="1.414" d="
		M533.7,553.776c4.8,0,9.5-1.9,12.9-5.3c3.399-3.5,5.3-8.101,5.3-13"/>
	
		<line clip-path="url(#SVGID_2_)" fill="none" stroke="#0000FF" stroke-width="0.12" stroke-linejoin="bevel" stroke-miterlimit="1.414" x1="551.9" y1="535.476" x2="551.9" y2="60.476"/>
	
		<path clip-path="url(#SVGID_2_)" fill="none" stroke="#0000FF" stroke-width="0.12" stroke-linejoin="bevel" stroke-miterlimit="1.414" d="
		M551.9,60.476c0-4.8-1.9-9.5-5.3-12.9c-3.4-3.4-8.101-5.4-12.9-5.4"/>
	
		<line clip-path="url(#SVGID_2_)" fill="none" stroke="#0000FF" stroke-width="0.12" stroke-linejoin="bevel" stroke-miterlimit="1.414" x1="533.7" y1="42.176" x2="58.6" y2="42.176"/>
	
		<path clip-path="url(#SVGID_2_)" fill="none" stroke="#0000FF" stroke-width="0.12" stroke-linejoin="bevel" stroke-miterlimit="1.414" d="
		M58.6,42.176c-4.8,0-9.4,2-12.9,5.4c-3.4,3.4-5.3,8.1-5.3,12.9"/>
	
		<polyline clip-path="url(#SVGID_2_)" fill="none" stroke="#0000FF" stroke-width="0.12" stroke-linejoin="bevel" stroke-miterlimit="1.414" points="
		177.4,115.276 341.8,115.276 341.8,206.676 177.4,206.676 177.4,115.276 	"/>
	
		<polyline clip-path="url(#SVGID_2_)" fill="none" stroke="#0000FF" stroke-width="0.12" stroke-linejoin="bevel" stroke-miterlimit="1.414" points="
		177.4,252.376 341.8,252.376 341.8,343.676 177.4,343.676 177.4,252.376 	"/>
	
		<polyline clip-path="url(#SVGID_2_)" fill="none" stroke="#0000FF" stroke-width="0.12" stroke-linejoin="bevel" stroke-miterlimit="1.414" points="
		177.4,389.375 341.8,389.375 341.8,480.676 177.4,480.676 177.4,389.375 	"/>
	
		<polyline clip-path="url(#SVGID_2_)" fill="none" stroke="#0000FF" stroke-width="0.12" stroke-linejoin="bevel" stroke-miterlimit="1.414" points="
		378.4,78.776 414.9,78.776 414.9,517.276 378.4,517.276 378.4,78.776 	"/>
	<polyline clip-path="url(#SVGID_2_)" fill-rule="evenodd" clip-rule="evenodd" fill="#F0F0F0" points="177.4,206.676 
		341.8,206.676 341.8,115.276 177.4,115.276 177.4,206.676 	"/>
	<polyline clip-path="url(#SVGID_2_)" fill-rule="evenodd" clip-rule="evenodd" fill="#F0F0F0" points="177.4,343.676 
		341.8,343.676 341.8,252.376 177.4,252.376 177.4,343.676 	"/>
	<polyline clip-path="url(#SVGID_2_)" fill-rule="evenodd" clip-rule="evenodd" fill="#F0F0F0" points="177.4,480.676 
		341.8,480.676 341.8,389.375 177.4,389.375 177.4,480.676 	"/>
	<polyline clip-path="url(#SVGID_2_)" fill-rule="evenodd" clip-rule="evenodd" fill="#F0F0F0" points="378.4,517.276 
		414.9,517.276 414.9,78.776 378.4,78.776 378.4,517.276 	"/>
	<path clip-path="url(#SVGID_2_)" fill-rule="evenodd" clip-rule="evenodd" fill="#0000FF" d="M22.1,60.476c0-2.1,0.2-4.4,0.6-6.6
		c0.4-2.3,1.1-4.6,2-6.8c1.8-4.6,4.5-8.8,8.1-12.4c3.6-3.6,7.8-6.3,12.3-8.1c2.3-0.9,4.6-1.6,6.8-2c2.3-0.4,4.5-0.6,6.7-0.6H22.1
		V60.476"/>
	<path clip-path="url(#SVGID_2_)" fill-rule="evenodd" clip-rule="evenodd" fill="#0000FF" d="M533.7,23.976
		c2.101,0,4.3,0.2,6.601,0.6c2.3,0.4,4.5,1,6.8,1.9c4.5,1.8,8.8,4.6,12.399,8.2c3.601,3.6,6.301,7.8,8.101,12.3
		c0.899,2.3,1.6,4.5,2,6.8c0.399,2.3,0.6,4.5,0.6,6.7v-36.5h-0.1H533.7"/>
	<path clip-path="url(#SVGID_2_)" fill-rule="evenodd" clip-rule="evenodd" fill="#0000FF" d="M570.2,535.576
		c0,2.2-0.2,4.4-0.6,6.601c-0.4,2.3-1.101,4.6-2,6.8c-1.8,4.6-4.5,8.8-8.101,12.399c-3.6,3.601-7.899,6.301-12.399,8.101
		c-2.3,0.899-4.5,1.5-6.8,2c-2.301,0.399-4.5,0.6-6.601,0.6h36.5V535.576"/>
	<path clip-path="url(#SVGID_2_)" fill-rule="evenodd" clip-rule="evenodd" fill="#0000FF" d="M58.6,572.076c-2.1,0-4.3-0.2-6.6-0.6
		c-2.3-0.5-4.5-1.101-6.8-2c-4.5-1.8-8.8-4.5-12.4-8.101c-3.6-3.6-6.3-7.8-8.1-12.399c-0.9-2.2-1.5-4.5-2-6.8
		c-0.4-2.2-0.6-4.4-0.6-6.601v36.5h0.1H58.6"/>
	<path clip-path="url(#SVGID_2_)" fill-rule="evenodd" clip-rule="evenodd" fill="#0000FF" d="M378.4,78.776h36.5v438.5h-36.5
		V78.776 M177.4,389.375h164.4v91.301H177.4V389.375 M177.4,252.376h164.4v91.3H177.4V252.376 M177.4,115.276h164.4v91.4H177.4
		V115.276 M40.4,60.476v475c0,2.2,0.4,4.5,1.3,6.8c0.9,2.2,2.2,4.4,4,6.2c1.8,1.8,4,3.1,6.2,4c2.3,0.899,4.6,1.3,6.7,1.3h475.1
		c2.101,0,4.4-0.4,6.7-1.3c2.3-0.9,4.4-2.2,6.2-4s3.2-4,4.1-6.2c0.8-2.3,1.2-4.6,1.2-6.8v-475c0-2.1-0.4-4.4-1.2-6.7
		c-0.899-2.3-2.3-4.4-4.1-6.2c-1.8-1.8-3.9-3.2-6.2-4.1c-2.3-0.9-4.6-1.3-6.7-1.3H58.6c-2.1,0-4.4,0.4-6.7,1.3
		c-2.2,0.9-4.4,2.3-6.2,4.1c-1.8,1.8-3.1,3.9-4,6.2C40.8,56.076,40.4,58.376,40.4,60.476"/>
	
		<polyline clip-path="url(#SVGID_2_)" fill="none" stroke="#0000FF" stroke-width="0.12" stroke-linejoin="bevel" stroke-miterlimit="1.414" points="
		22.1,23.976 570.2,23.976 570.2,572.076 22.1,572.076 22.1,23.976 	"/>
	<path clip-path="url(#SVGID_2_)" fill-rule="evenodd" clip-rule="evenodd" fill="#F0F0F0" d="M58.6,42.176h475.1
		c2.101,0,4.4,0.4,6.7,1.3c2.3,0.9,4.4,2.3,6.2,4.1c1.8,1.8,3.2,3.9,4.1,6.2c0.8,2.3,1.2,4.6,1.2,6.7v475c0,2.2-0.4,4.5-1.2,6.8
		c-0.899,2.2-2.3,4.4-4.1,6.2s-3.9,3.1-6.2,4c-2.3,0.899-4.6,1.3-6.7,1.3H58.6c-2.1,0-4.4-0.4-6.7-1.3c-2.2-0.9-4.4-2.2-6.2-4
		c-1.8-1.8-3.1-4-4-6.2c-0.9-2.3-1.3-4.6-1.3-6.8v-475c0-2.1,0.4-4.4,1.3-6.7c0.9-2.3,2.2-4.4,4-6.2c1.8-1.8,4-3.2,6.2-4.1
		C54.2,42.576,56.5,42.176,58.6,42.176 M22.1,535.476c0,2.2,0.2,4.399,0.6,6.7c0.4,2.199,1.1,4.5,2,6.8c1.8,4.5,4.5,8.8,8.1,12.399
		c3.6,3.601,7.9,6.301,12.4,8.101c2.3,0.899,4.5,1.5,6.8,2c2.3,0.399,4.5,0.6,6.6,0.6h475.1c2.101,0,4.3-0.2,6.601-0.6
		c2.3-0.5,4.6-1.101,6.8-2c4.6-1.8,8.8-4.5,12.399-8.101c3.601-3.6,6.301-7.899,8.101-12.399c0.899-2.3,1.6-4.601,2-6.8
		c0.399-2.301,0.6-4.5,0.6-6.7v-475c0-2.1-0.2-4.4-0.6-6.6c-0.4-2.3-1.101-4.6-2-6.8c-1.8-4.6-4.5-8.8-8.101-12.4
		c-3.6-3.6-7.8-6.4-12.399-8.2c-2.2-0.9-4.5-1.5-6.8-1.9c-2.301-0.4-4.5-0.6-6.601-0.6H58.6c-2.1,0-4.3,0.2-6.6,0.6
		c-2.3,0.4-4.5,1-6.8,1.9c-4.5,1.8-8.8,4.6-12.4,8.2c-3.6,3.6-6.3,7.8-8.1,12.4c-0.9,2.2-1.6,4.5-2,6.8c-0.4,2.2-0.6,4.5-0.6,6.6
		V535.476"/>
</g>
</svg>
