<?xml version="1.0" encoding="UTF-8"?>
<svg id="Layer_1" data-name="Layer 1" xmlns="http://www.w3.org/2000/svg" version="1.1" xmlns:xlink="http://www.w3.org/1999/xlink" viewBox="0 0 595.3 595.3">
  <defs>
    <style>
      .cls-1 {
        fill: #fff;
      }

      .cls-1, .cls-2, .cls-3, .cls-4 {
        stroke-width: 0px;
      }

      .cls-1, .cls-2, .cls-4 {
        fill-rule: evenodd;
      }

      .cls-5 {
        clip-path: url(#clippath-20);
      }

      .cls-6 {
        clip-path: url(#clippath-11);
      }

      .cls-7 {
        clip-path: url(#clippath-16);
      }

      .cls-8 {
        clip-path: url(#clippath-2);
      }

      .cls-9 {
        clip-path: url(#clippath-13);
      }

      .cls-10 {
        clip-path: url(#clippath-25);
      }

      .cls-11 {
        clip-path: url(#clippath-15);
      }

      .cls-12 {
        clip-path: url(#clippath-6);
      }

      .cls-13 {
        clip-path: url(#clippath-26);
      }

      .cls-14 {
        stroke: blue;
        stroke-linejoin: bevel;
        stroke-width: .1px;
      }

      .cls-14, .cls-3 {
        fill: none;
      }

      .cls-2 {
        fill: #f0f0f0;
      }

      .cls-15 {
        clip-path: url(#clippath-7);
      }

      .cls-16 {
        clip-path: url(#clippath-21);
      }

      .cls-17 {
        clip-path: url(#clippath-1);
      }

      .cls-18 {
        clip-path: url(#clippath-4);
      }

      .cls-19 {
        clip-path: url(#clippath-27);
      }

      .cls-20 {
        clip-path: url(#clippath-12);
      }

      .cls-21 {
        clip-path: url(#clippath-24);
      }

      .cls-22 {
        clip-path: url(#clippath-22);
      }

      .cls-23 {
        clip-path: url(#clippath-9);
      }

      .cls-24 {
        clip-path: url(#clippath);
      }

      .cls-25 {
        clip-path: url(#clippath-19);
      }

      .cls-26 {
        clip-path: url(#clippath-3);
      }

      .cls-27 {
        clip-path: url(#clippath-8);
      }

      .cls-28 {
        clip-path: url(#clippath-29);
      }

      .cls-29 {
        clip-path: url(#clippath-18);
      }

      .cls-30 {
        clip-path: url(#clippath-14);
      }

      .cls-31 {
        clip-path: url(#clippath-17);
      }

      .cls-32 {
        clip-path: url(#clippath-5);
      }

      .cls-33 {
        clip-path: url(#clippath-10);
      }

      .cls-4 {
        fill: #005eb8;
      }

      .cls-34 {
        clip-path: url(#clippath-23);
      }

      .cls-35 {
        clip-path: url(#clippath-28);
      }
    </style>
    <clipPath id="clippath">
      <rect class="cls-3" x="-29.6" y="-20.4" width="637" height="647.4"/>
    </clipPath>
    <clipPath id="clippath-1">
      <rect class="cls-3" x="-29.6" y="-20.4" width="637" height="647.4"/>
    </clipPath>
    <clipPath id="clippath-2">
      <rect class="cls-3" x="-29.6" y="-20.4" width="637" height="647.4"/>
    </clipPath>
    <clipPath id="clippath-3">
      <rect class="cls-3" x="-29.6" y="-20.4" width="637" height="647.4"/>
    </clipPath>
    <clipPath id="clippath-4">
      <rect class="cls-3" x="-29.6" y="-20.4" width="637" height="647.4"/>
    </clipPath>
    <clipPath id="clippath-5">
      <rect class="cls-3" x="-29.6" y="-20.4" width="637" height="647.4"/>
    </clipPath>
    <clipPath id="clippath-6">
      <rect class="cls-3" x="-29.6" y="-20.4" width="637" height="647.4"/>
    </clipPath>
    <clipPath id="clippath-7">
      <rect class="cls-3" x="-29.6" y="-20.4" width="637" height="647.4"/>
    </clipPath>
    <clipPath id="clippath-8">
      <rect class="cls-3" x="-29.6" y="-20.4" width="637" height="647.4"/>
    </clipPath>
    <clipPath id="clippath-9">
      <rect class="cls-3" x="-29.6" y="-20.4" width="637" height="647.4"/>
    </clipPath>
    <clipPath id="clippath-10">
      <rect class="cls-3" x="-29.6" y="-20.4" width="637" height="647.4"/>
    </clipPath>
    <clipPath id="clippath-11">
      <rect class="cls-3" x="-29.6" y="-20.4" width="637" height="647.4"/>
    </clipPath>
    <clipPath id="clippath-12">
      <rect class="cls-3" x="-29.6" y="-20.4" width="637" height="647.4"/>
    </clipPath>
    <clipPath id="clippath-13">
      <rect class="cls-3" x="-29.6" y="-20.4" width="637" height="647.4"/>
    </clipPath>
    <clipPath id="clippath-14">
      <rect class="cls-3" x="-29.6" y="-20.4" width="637" height="647.4"/>
    </clipPath>
    <clipPath id="clippath-15">
      <rect class="cls-3" x="-29.6" y="-20.4" width="637" height="647.4"/>
    </clipPath>
    <clipPath id="clippath-16">
      <rect class="cls-3" x="-29.6" y="-20.4" width="637" height="647.4"/>
    </clipPath>
    <clipPath id="clippath-17">
      <rect class="cls-3" x="-29.6" y="-20.4" width="637" height="647.4"/>
    </clipPath>
    <clipPath id="clippath-18">
      <rect class="cls-3" x="-29.6" y="-20.4" width="637" height="647.4"/>
    </clipPath>
    <clipPath id="clippath-19">
      <rect class="cls-3" x="-29.6" y="-20.4" width="637" height="647.4"/>
    </clipPath>
    <clipPath id="clippath-20">
      <rect class="cls-3" x="-29.6" y="-20.4" width="637" height="647.4"/>
    </clipPath>
    <clipPath id="clippath-21">
      <rect class="cls-3" x="-29.6" y="-20.4" width="637" height="647.4"/>
    </clipPath>
    <clipPath id="clippath-22">
      <rect class="cls-3" x="-29.6" y="-20.4" width="637" height="647.4"/>
    </clipPath>
    <clipPath id="clippath-23">
      <rect class="cls-3" x="-29.6" y="-20.4" width="637" height="647.4"/>
    </clipPath>
    <clipPath id="clippath-24">
      <rect class="cls-3" x="-29.6" y="-20.4" width="637" height="647.4"/>
    </clipPath>
    <clipPath id="clippath-25">
      <rect class="cls-3" x="-29.6" y="-20.4" width="637" height="647.4"/>
    </clipPath>
    <clipPath id="clippath-26">
      <rect class="cls-3" x="-29.6" y="-20.4" width="637" height="647.4"/>
    </clipPath>
    <clipPath id="clippath-27">
      <rect class="cls-3" x="-29.6" y="-20.4" width="637" height="647.4"/>
    </clipPath>
    <clipPath id="clippath-28">
      <rect class="cls-3" x="-29.6" y="-20.4" width="637" height="647.4"/>
    </clipPath>
    <clipPath id="clippath-29">
      <polyline class="cls-3" points="607.4 626.9 607.4 -20.4 -29.6 -20.4"/>
    </clipPath>
  </defs>
  <g class="cls-24">
    <polyline class="cls-14" points="595.3 595.9 595.3 0 0 0 0 595.9 595.3 595.9"/>
  </g>
  <g class="cls-17">
    <line class="cls-14" x1="39.6" y1="595.9" x2="555.5" y2="595.9"/>
  </g>
  <g class="cls-8">
    <path class="cls-14" d="M555.5,595.9c5.2,0,10.4-1,15.2-3,4.8-2,9.2-4.9,12.9-8.6,3.7-3.7,6.5-8,8.6-12.8,2-4.9,3-10,3-15.2"/>
  </g>
  <g class="cls-26">
    <line class="cls-14" x1="595.3" y1="556.3" x2="595.3" y2="39.7"/>
  </g>
  <g class="cls-18">
    <path class="cls-14" d="M595.3,39.7c0-5.2-1.1-10.4-3-15.2-2.1-4.8-4.9-9.1-8.6-12.8s-8.1-6.6-12.9-8.7c-4.8-2-10-2.9-15.2-2.9"/>
  </g>
  <g class="cls-32">
    <line class="cls-14" x1="555.5" x2="39.6"/>
  </g>
  <g class="cls-12">
    <path class="cls-14" d="M39.6,0c-5.2,0-10.3,1-15.2,2.9-4.8,2.1-9.1,5-12.8,8.7-3.7,3.7-6.6,8-8.6,12.8-2.1,4.8-3,10-3,15.2"/>
  </g>
  <g class="cls-15">
    <line class="cls-14" y1="39.7" y2="556.3"/>
  </g>
  <g class="cls-27">
    <path class="cls-14" d="M0,556.3c0,5.2,1,10.3,3,15.2,2,4.8,4.9,9.1,8.6,12.8,3.7,3.7,8,6.6,12.8,8.6,4.9,2.1,10,3,15.2,3"/>
  </g>
  <g class="cls-23">
    <line class="cls-14" x1="39.6" y1="576.2" x2="555.5" y2="576.2"/>
  </g>
  <g class="cls-33">
    <path class="cls-14" d="M555.5,576.2c5.3,0,10.3-2.2,14-5.9,3.8-3.7,5.9-8.8,5.9-14"/>
  </g>
  <g class="cls-6">
    <line class="cls-14" x1="575.4" y1="556.3" x2="575.4" y2="39.7"/>
  </g>
  <g class="cls-20">
    <path class="cls-14" d="M575.4,39.7c0-5.2-2.1-10.3-5.9-14-3.7-3.7-8.7-5.9-14-5.9"/>
  </g>
  <g class="cls-9">
    <line class="cls-14" x1="555.5" y1="19.8" x2="39.6" y2="19.8"/>
  </g>
  <g class="cls-30">
    <path class="cls-14" d="M39.6,19.8c-5.2,0-10.3,2.2-14,5.9-3.7,3.7-5.8,8.8-5.8,14"/>
  </g>
  <g class="cls-11">
    <line class="cls-14" x1="19.9" y1="39.7" x2="19.9" y2="556.3"/>
  </g>
  <g class="cls-7">
    <path class="cls-14" d="M19.9,556.3c0,5.2,2.1,10.3,5.8,14,3.7,3.7,8.8,5.9,14,5.9"/>
  </g>
  <g class="cls-31">
    <polyline class="cls-14" points="59.5 387.4 59.5 427.1 535.6 427.1 535.6 387.4 59.5 387.4"/>
  </g>
  <g class="cls-29">
    <polyline class="cls-14" points="173.6 168.9 173.6 347.6 272.8 347.6 272.8 168.9 173.6 168.9"/>
  </g>
  <g class="cls-25">
    <polyline class="cls-14" points="322.4 168.9 322.4 347.6 421.6 347.6 421.6 168.9 322.4 168.9"/>
  </g>
  <g class="cls-5">
    <path class="cls-4" d="M421.6,168.9v178.7h-99.2v-178.7h99.2M272.8,168.9v178.7h-99.1v-178.7h99.1M535.6,387.4v39.7H59.5v-39.7h476.1M39.6,576.2h515.9c2.4,0,4.9-.4,7.3-1.4,2.5-1,4.8-2.5,6.7-4.5,2-2,3.5-4.2,4.5-6.7,1-2.5,1.4-5,1.4-7.3V39.7c0-2.4-.4-4.9-1.4-7.3-1-2.5-2.5-4.8-4.5-6.7s-4.2-3.5-6.7-4.5c-2.4-1-4.9-1.4-7.3-1.4H39.6c-2.3,0-4.8.4-7.3,1.4-2.5,1-4.8,2.5-6.7,4.5s-3.5,4.2-4.5,6.7c-1,2.4-1.3,4.9-1.3,7.3v516.6c0,5.2,2.1,10.3,5.8,14,3.7,3.7,8.8,5.9,14,5.9"/>
  </g>
  <g class="cls-16">
    <path class="cls-4" d="M595.3,556.3c0,2.3-.2,4.8-.7,7.2-.5,2.5-1.2,5-2.2,7.4-2,5-4.9,9.6-8.8,13.5-3.9,3.9-8.5,6.8-13.5,8.8-2.4,1-4.9,1.7-7.4,2.2-2.4.4-4.9.7-7.2.7h39.6v-39.7"/>
  </g>
  <g class="cls-22">
    <path class="cls-4" d="M39.6,595.9c-2.3,0-4.7-.2-7.2-.7-2.5-.4-5-1.1-7.4-2.1-4.9-2-9.6-5-13.5-8.8-3.9-3.9-6.8-8.6-8.8-13.5-1-2.5-1.7-4.9-2.2-7.4-.4-2.5-.7-4.9-.7-7.3v39.7h39.6"/>
  </g>
  <g class="cls-34">
    <path class="cls-4" d="M0,39.7c0-2.4.2-4.8.7-7.2.4-2.5,1.2-5,2.1-7.4,2-5,5-9.6,8.9-13.5,3.9-3.9,8.5-7,13.4-8.9,2.5-1,5-1.6,7.4-2.1C34.9.2,37.2,0,39.6,0H0v39.7"/>
  </g>
  <g class="cls-21">
    <path class="cls-4" d="M555.5,0c2.4,0,4.8.1,7.3.7,2.4.4,4.9,1.1,7.4,2.1,4.9,2,9.4,4.9,13.4,8.8s6.9,8.6,8.9,13.5c1,2.4,1.6,4.9,2.1,7.4.5,2.5.8,4.9.8,7.2V0h-39.7"/>
  </g>
  <g class="cls-10">
    <polyline class="cls-1" points="59.5 387.4 59.5 427.1 535.6 427.1 535.6 387.4 59.5 387.4"/>
  </g>
  <g class="cls-13">
    <polyline class="cls-1" points="322.4 168.9 322.4 347.6 421.6 347.6 421.6 168.9 322.4 168.9"/>
  </g>
  <g class="cls-19">
    <polyline class="cls-2" points="173.6 168.9 173.6 347.6 272.8 347.6 272.8 168.9 173.6 168.9"/>
  </g>
  <g class="cls-35">
    <polyline class="cls-14" points="595.3 595.9 0 595.9 0 0 595.3 0 595.3 595.9"/>
  </g>
  <g class="cls-28">
    <path class="cls-1" d="M19.9,556.3V39.7c0-2.4.3-4.9,1.3-7.3,1-2.5,2.5-4.8,4.5-6.7s4.2-3.5,6.7-4.5c2.5-1,5-1.4,7.3-1.4h515.9c2.4,0,4.9.4,7.3,1.4,2.5,1,4.8,2.5,6.7,4.5s3.5,4.2,4.5,6.7c1,2.4,1.4,4.9,1.4,7.3v516.6c0,2.3-.4,4.8-1.4,7.3-1,2.5-2.5,4.8-4.5,6.7-2,2-4.2,3.5-6.7,4.5-2.4,1-4.9,1.4-7.3,1.4H39.6c-2.3,0-4.8-.4-7.3-1.4-2.5-1-4.8-2.5-6.7-4.5-2-2-3.5-4.2-4.5-6.7-1-2.5-1.3-5-1.3-7.3M0,556.3c0,2.3.2,4.8.7,7.2.4,2.5,1.2,5,2.2,7.4,2,5,4.9,9.6,8.8,13.5,3.9,3.9,8.5,7,13.5,8.9,2.4,1,4.9,1.6,7.4,2.1,2.4.4,4.9.7,7.2.7h515.9c2.4,0,4.8-.2,7.3-.7,2.4-.4,4.9-1.1,7.4-2.1,4.9-2,9.6-5,13.5-8.9,3.9-3.9,6.8-8.5,8.8-13.5,1-2.4,1.6-4.9,2.2-7.4.4-2.4.7-4.9.7-7.2V39.7c0-2.4-.2-4.8-.7-7.3-.5-2.4-1.2-4.9-2.2-7.4-2-4.9-4.9-9.5-8.8-13.4s-8.6-7-13.5-8.9c-2.5-1-5-1.6-7.4-2.1-2.5-.5-4.9-.7-7.3-.7H39.6c-2.3,0-4.8.1-7.2.7-2.5.4-5,1.1-7.4,2.1-5,2-9.6,5-13.5,8.9-3.9,3.9-6.8,8.5-8.8,13.4-1,2.5-1.7,5-2.2,7.4C.2,34.9,0,37.3,0,39.7v516.6"/>
  </g>
</svg>