<?xml version="1.0" encoding="UTF-8"?>
<svg id="Layer_1" data-name="Layer 1" xmlns="http://www.w3.org/2000/svg" version="1.1" viewBox="0 0 425.2 425.2">
  <defs>
    <style>
      .cls-1, .cls-2 {
        stroke-width: 0px;
      }

      .cls-1, .cls-3 {
        fill: #005eb8;
      }

      .cls-2 {
        fill: #fff;
      }

      .cls-3 {
        stroke: #005eb8;
        stroke-miterlimit: 10;
        stroke-width: .5px;
      }
    </style>
  </defs>
  <g id="LWPOLYLINE">
    <rect class="cls-3" x="1.5" y="1.5" width="423.2" height="424.2"/>
  </g>
  <g id="LWPOLYLINE-2" data-name="LWPOLYLINE">
    <path class="cls-2" d="M396.5,1.5H29.7C14.1,1.5,1.5,14.2,1.5,29.8v367.6c0,15.6,12.6,28.3,28.2,28.3h366.8c15.6,0,28.2-12.7,28.2-28.3V29.8c0-15.6-12.6-28.3-28.2-28.3Z"/>
  </g>
  <g id="LWPOLYLINE-3" data-name="LWPOLYLINE">
    <path class="cls-1" d="M396.5,15.6H29.7c-7.8,0-14.1,6.3-14.1,14.1v367.6c0,7.8,6.3,14.1,14.1,14.1h366.8c7.8,0,14.1-6.3,14.1-14.1V29.8c0-7.8-6.3-14.1-14.1-14.1Z"/>
  </g>
  <g id="LWPOLYLINE-4" data-name="LWPOLYLINE">
    <rect class="cls-2" x="72" y="43.9" width="70.5" height="127.3"/>
  </g>
  <g id="LWPOLYLINE-5" data-name="LWPOLYLINE">
    <rect class="cls-2" x="72" y="256" width="70.5" height="127.3"/>
  </g>
  <g id="LWPOLYLINE-6" data-name="LWPOLYLINE">
    <rect class="cls-2" x="177.8" y="256" width="70.5" height="127.3"/>
  </g>
  <g id="LWPOLYLINE-7" data-name="LWPOLYLINE">
    <rect class="cls-2" x="177.8" y="43.9" width="70.5" height="127.3"/>
  </g>
  <g id="LWPOLYLINE-8" data-name="LWPOLYLINE">
    <rect class="cls-2" x="283.6" y="43.9" width="70.5" height="127.3"/>
  </g>
  <g id="LWPOLYLINE-9" data-name="LWPOLYLINE">
    <rect class="cls-2" x="283.6" y="256" width="70.5" height="127.3"/>
  </g>
  <g id="LWPOLYLINE-10" data-name="LWPOLYLINE">
    <rect class="cls-2" x="43.8" y="199.5" width="338.6" height="28.3"/>
  </g>
</svg>