<?xml version="1.0" encoding="utf-8"?>
<!-- Generator: Adobe Illustrator 28.0.0, SVG Export Plug-In . SVG Version: 6.00 Build 0)  -->
<svg version="1.1" id="Layer_1" xmlns="http://www.w3.org/2000/svg" xmlns:xlink="http://www.w3.org/1999/xlink" x="0px" y="0px"
	 viewBox="0 0 425.2 425.2" style="enable-background:new 0 0 425.2 425.2;" xml:space="preserve">
<style type="text/css">
	.st0{fill:#005EB8;stroke:#005EB8;stroke-width:0.5;stroke-miterlimit:10;}
	.st1{fill:#FFFFFF;}
	.st2{fill:#005EB8;}
</style>
<g id="LWPOLYLINE_3_">
	<rect x="14.17" y="14.17" class="st0" width="396.85" height="396.85"/>
</g>
<g id="LWPOLYLINE_5_">
	<path class="st1" d="M40.63,14.17l343.94,0c14.61,0,26.46,11.85,26.46,26.46l0,343.94c0,14.61-11.85,26.46-26.46,26.46l-343.94,0
		c-14.61,0-26.46-11.84-26.46-26.46l0-343.94C14.17,26.02,26.02,14.17,40.63,14.17z"/>
</g>
<g id="LWPOLYLINE_6_">
	<path class="st2" d="M40.63,27.4l343.94,0c7.31,0,13.23,5.92,13.23,13.23v343.94c0,7.31-5.92,13.23-13.23,13.23l-343.94,0
		c-7.3,0-13.23-5.92-13.23-13.23l0-343.94C27.4,33.33,33.32,27.4,40.63,27.4z"/>
</g>
<g id="LWPOLYLINE_12_">
	
		<rect x="81.22" y="188.09" transform="matrix(0.866 -0.5 0.5 0.866 -108.4969 90.3208)" class="st1" width="66.14" height="119.06"/>
</g>
<g id="LWPOLYLINE_13_">
	
		<rect x="180.61" y="188.4" transform="matrix(0.866 -0.5 0.5 0.866 -95.3345 140.0579)" class="st1" width="66.14" height="119.05"/>
</g>
<g id="LWPOLYLINE_14_">
	
		<rect x="279.65" y="188.09" transform="matrix(0.866 -0.5 0.5 0.866 -81.9134 189.5361)" class="st1" width="66.14" height="119.06"/>
</g>
<g id="LWPOLYLINE_15_">
	<rect x="53.86" y="126.62" class="st1" width="317.48" height="26.46"/>
</g>
</svg>
