<?xml version="1.0" encoding="utf-8"?>
<!-- Generator: Adobe Illustrator 14.0.0, SVG Export Plug-In . SVG Version: 6.00 Build 43363)  -->
<!DOCTYPE svg PUBLIC "-//W3C//DTD SVG 1.1//EN" "http://www.w3.org/Graphics/SVG/1.1/DTD/svg11.dtd">
<svg version="1.1" id="Layer_1" xmlns="http://www.w3.org/2000/svg" xmlns:xlink="http://www.w3.org/1999/xlink" x="0px" y="0px"
	 width="595.276px" height="595.276px" viewBox="0 0 595.276 595.276" enable-background="new 0 0 595.276 595.276"
	 xml:space="preserve">
<g>
	<defs>
		<polyline id="SVGID_1_" points="12.028,591.491 583.247,591.491 583.247,3.785 12.028,3.785 12.028,591.491 		"/>
	</defs>
	<clipPath id="SVGID_2_">
		<use xlink:href="#SVGID_1_"  overflow="visible"/>
	</clipPath>
	<polyline clip-path="url(#SVGID_2_)" fill-rule="evenodd" clip-rule="evenodd" fill="#F0F0F0" points="433.6,441.476 
		515.8,299.076 436.7,253.376 354.5,395.776 433.6,441.476 	"/>
	<polyline clip-path="url(#SVGID_2_)" fill-rule="evenodd" clip-rule="evenodd" fill="#F0F0F0" points="296.3,441.875 
		378.6,299.476 299.4,253.776 217.2,396.176 296.3,441.875 	"/>
	<polyline clip-path="url(#SVGID_2_)" fill-rule="evenodd" clip-rule="evenodd" fill="#F0F0F0" points="159.6,441.476 
		241.8,299.076 162.7,253.376 80.5,395.776 159.6,441.476 	"/>
	<polyline clip-path="url(#SVGID_2_)" fill-rule="evenodd" clip-rule="evenodd" fill="#F0F0F0" points="518.6,216.876 
		518.6,180.276 80.2,180.276 80.2,216.876 518.6,216.876 	"/>
	
		<polyline clip-path="url(#SVGID_2_)" fill="none" stroke="#0000FF" stroke-width="0.12" stroke-linejoin="bevel" stroke-miterlimit="1.414" points="
		25.4,24.976 25.4,573.076 573.4,573.076 573.4,24.976 25.4,24.976 	"/>
	
		<line clip-path="url(#SVGID_2_)" fill="none" stroke="#0000FF" stroke-width="0.12" stroke-linejoin="bevel" stroke-miterlimit="1.414" x1="536.9" y1="24.976" x2="61.9" y2="24.976"/>
	
		<path clip-path="url(#SVGID_2_)" fill="none" stroke="#0000FF" stroke-width="0.12" stroke-linejoin="bevel" stroke-miterlimit="1.414" d="
		M61.9,24.976c-4.8,0-9.6,1-14,2.8s-8.5,4.5-11.8,7.9c-3.4,3.4-6.1,7.4-8,11.9c-1.8,4.4-2.7,9.2-2.7,14"/>
	
		<line clip-path="url(#SVGID_2_)" fill="none" stroke="#0000FF" stroke-width="0.12" stroke-linejoin="bevel" stroke-miterlimit="1.414" x1="25.4" y1="61.576" x2="25.4" y2="536.576"/>
	
		<path clip-path="url(#SVGID_2_)" fill="none" stroke="#0000FF" stroke-width="0.12" stroke-linejoin="bevel" stroke-miterlimit="1.414" d="
		M25.4,536.576c0,4.8,0.9,9.5,2.7,13.9c1.9,4.5,4.6,8.5,8,11.899c3.3,3.4,7.4,6.101,11.8,7.9c4.4,1.9,9.2,2.8,14,2.8"/>
	
		<line clip-path="url(#SVGID_2_)" fill="none" stroke="#0000FF" stroke-width="0.12" stroke-linejoin="bevel" stroke-miterlimit="1.414" x1="61.9" y1="573.076" x2="536.9" y2="573.076"/>
	
		<path clip-path="url(#SVGID_2_)" fill="none" stroke="#0000FF" stroke-width="0.12" stroke-linejoin="bevel" stroke-miterlimit="1.414" d="
		M536.9,573.076c4.8,0,9.5-0.899,14-2.8c4.4-1.8,8.4-4.5,11.8-7.9c3.4-3.399,6.101-7.399,7.9-11.899c1.899-4.4,2.8-9.101,2.8-13.9"
		/>
	
		<line clip-path="url(#SVGID_2_)" fill="none" stroke="#0000FF" stroke-width="0.12" stroke-linejoin="bevel" stroke-miterlimit="1.414" x1="573.4" y1="536.576" x2="573.4" y2="61.576"/>
	
		<path clip-path="url(#SVGID_2_)" fill="none" stroke="#0000FF" stroke-width="0.12" stroke-linejoin="bevel" stroke-miterlimit="1.414" d="
		M573.4,61.576c0-4.8-0.9-9.6-2.8-14c-1.8-4.5-4.5-8.5-7.9-11.9c-3.399-3.4-7.399-6.1-11.8-7.9c-4.5-1.8-9.2-2.8-14-2.8"/>
	
		<line clip-path="url(#SVGID_2_)" fill="none" stroke="#0000FF" stroke-width="0.12" stroke-linejoin="bevel" stroke-miterlimit="1.414" x1="536.9" y1="43.276" x2="61.9" y2="43.276"/>
	
		<path clip-path="url(#SVGID_2_)" fill="none" stroke="#0000FF" stroke-width="0.12" stroke-linejoin="bevel" stroke-miterlimit="1.414" d="
		M61.9,43.276c-4.9,0-9.5,1.9-12.9,5.3c-3.5,3.5-5.4,8.1-5.4,13"/>
	
		<line clip-path="url(#SVGID_2_)" fill="none" stroke="#0000FF" stroke-width="0.12" stroke-linejoin="bevel" stroke-miterlimit="1.414" x1="43.6" y1="61.576" x2="43.6" y2="536.576"/>
	
		<path clip-path="url(#SVGID_2_)" fill="none" stroke="#0000FF" stroke-width="0.12" stroke-linejoin="bevel" stroke-miterlimit="1.414" d="
		M43.6,536.576c0,4.8,1.9,9.5,5.4,12.9c3.4,3.399,8,5.3,12.9,5.3"/>
	
		<line clip-path="url(#SVGID_2_)" fill="none" stroke="#0000FF" stroke-width="0.12" stroke-linejoin="bevel" stroke-miterlimit="1.414" x1="61.9" y1="554.776" x2="536.9" y2="554.776"/>
	
		<path clip-path="url(#SVGID_2_)" fill="none" stroke="#0000FF" stroke-width="0.12" stroke-linejoin="bevel" stroke-miterlimit="1.414" d="
		M536.9,554.776c4.8,0,9.5-1.9,12.9-5.3c3.399-3.4,5.399-8.101,5.399-12.9"/>
	
		<line clip-path="url(#SVGID_2_)" fill="none" stroke="#0000FF" stroke-width="0.12" stroke-linejoin="bevel" stroke-miterlimit="1.414" x1="555.2" y1="536.576" x2="555.2" y2="61.576"/>
	
		<path clip-path="url(#SVGID_2_)" fill="none" stroke="#0000FF" stroke-width="0.12" stroke-linejoin="bevel" stroke-miterlimit="1.414" d="
		M555.2,61.576c0-4.9-2-9.5-5.399-13c-3.4-3.4-8.101-5.3-12.9-5.3"/>
	
		<polyline clip-path="url(#SVGID_2_)" fill="none" stroke="#0000FF" stroke-width="0.12" stroke-linejoin="bevel" stroke-miterlimit="1.414" points="
		354.5,395.776 436.7,253.376 515.8,299.076 433.6,441.476 354.5,395.776 	"/>
	
		<polyline clip-path="url(#SVGID_2_)" fill="none" stroke="#0000FF" stroke-width="0.12" stroke-linejoin="bevel" stroke-miterlimit="1.414" points="
		217.2,396.176 299.4,253.776 378.6,299.476 296.3,441.875 217.2,396.176 	"/>
	
		<polyline clip-path="url(#SVGID_2_)" fill="none" stroke="#0000FF" stroke-width="0.12" stroke-linejoin="bevel" stroke-miterlimit="1.414" points="
		80.5,395.776 162.7,253.376 241.8,299.076 159.6,441.476 80.5,395.776 	"/>
	
		<polyline clip-path="url(#SVGID_2_)" fill="none" stroke="#0000FF" stroke-width="0.12" stroke-linejoin="bevel" stroke-miterlimit="1.414" points="
		518.6,216.876 518.6,180.276 80.2,180.276 80.2,216.876 518.6,216.876 	"/>
	<path clip-path="url(#SVGID_2_)" fill-rule="evenodd" clip-rule="evenodd" fill="#0000FF" d="M80.2,216.876v-36.6h438.4v36.6H80.2
		 M80.5,395.776l82.2-142.4l79.1,45.7l-82.2,142.4L80.5,395.776 M217.2,396.176l82.2-142.4l79.2,45.7l-82.3,142.399L217.2,396.176
		 M354.5,395.776l82.199-142.4l79.101,45.7l-82.2,142.4L354.5,395.776 M536.9,43.276h-475c-2.2,0-4.5,0.4-6.7,1.3
		c-2.3,0.9-4.4,2.2-6.2,4c-1.8,1.8-3.2,4-4.1,6.2c-0.9,2.3-1.3,4.6-1.3,6.8v475c0,2.101,0.4,4.4,1.3,6.7s2.3,4.4,4.1,6.2
		s3.9,3.2,6.2,4c2.2,0.899,4.5,1.3,6.7,1.3h475c2.2,0,4.4-0.4,6.7-1.3c2.3-0.8,4.399-2.2,6.2-4c1.8-1.8,3.199-3.9,4.1-6.2
		s1.3-4.6,1.3-6.7v-475c0-4.9-2-9.5-5.399-13C546.4,45.176,541.7,43.276,536.9,43.276"/>
	<path clip-path="url(#SVGID_2_)" fill-rule="evenodd" clip-rule="evenodd" fill="#0000FF" d="M536.9,24.976c2.1,0,4.4,0.2,6.6,0.6
		c2.301,0.4,4.601,1.1,6.801,2c4.6,1.8,8.8,4.5,12.399,8.1c3.601,3.6,6.3,7.8,8.101,12.4c0.899,2.2,1.6,4.5,2,6.8
		c0.399,2.2,0.6,4.4,0.6,6.6v-36.5H536.9"/>
	<path clip-path="url(#SVGID_2_)" fill-rule="evenodd" clip-rule="evenodd" fill="#0000FF" d="M573.4,536.576
		c0,2.101-0.2,4.3-0.6,6.601c-0.4,2.3-1,4.5-1.9,6.8c-1.8,4.5-4.5,8.8-8.1,12.399c-3.601,3.601-7.9,6.301-12.4,8.101
		c-2.3,0.899-4.5,1.6-6.8,2c-2.3,0.399-4.5,0.6-6.601,0.6h36.4v-0.1V536.576"/>
	<path clip-path="url(#SVGID_2_)" fill-rule="evenodd" clip-rule="evenodd" fill="#0000FF" d="M61.9,573.076c-2.2,0-4.4-0.2-6.7-0.6
		c-2.2-0.4-4.5-1.101-6.7-2c-4.6-1.8-8.8-4.5-12.4-8.101c-3.6-3.6-6.4-7.8-8.2-12.3c-0.9-2.3-1.5-4.6-1.9-6.8
		c-0.5-2.3-0.6-4.5-0.6-6.7v36.5H61.9"/>
	<path clip-path="url(#SVGID_2_)" fill-rule="evenodd" clip-rule="evenodd" fill="#0000FF" d="M25.4,61.576c0-2.2,0.1-4.4,0.6-6.7
		c0.4-2.2,1-4.5,1.9-6.8c1.8-4.5,4.5-8.7,8.1-12.3c3.6-3.7,7.9-6.4,12.4-8.2c2.2-0.9,4.5-1.5,6.8-2c2.2-0.4,4.5-0.6,6.6-0.6H25.4
		v0.1V61.576"/>
	
		<polyline clip-path="url(#SVGID_2_)" fill="none" stroke="#0000FF" stroke-width="0.12" stroke-linejoin="bevel" stroke-miterlimit="1.414" points="
		573.4,24.976 573.4,573.076 25.4,573.076 25.4,24.976 573.4,24.976 	"/>
	<path clip-path="url(#SVGID_2_)" fill-rule="evenodd" clip-rule="evenodd" fill="#F0F0F0" d="M555.2,61.576v475
		c0,2.101-0.399,4.4-1.3,6.7s-2.3,4.4-4.1,6.2c-1.801,1.8-3.9,3.2-6.2,4c-2.3,0.899-4.5,1.3-6.7,1.3h-475c-2.2,0-4.5-0.4-6.7-1.3
		c-2.3-0.8-4.4-2.2-6.2-4s-3.2-3.9-4.1-6.2s-1.3-4.6-1.3-6.7v-475c0-2.2,0.4-4.5,1.3-6.8c0.9-2.2,2.3-4.4,4.1-6.2
		c1.8-1.8,3.9-3.1,6.2-4c2.2-0.9,4.5-1.3,6.7-1.3h475c2.2,0,4.4,0.4,6.7,1.3c2.3,0.9,4.399,2.2,6.2,4c1.8,1.8,3.199,4,4.1,6.2
		C554.8,57.076,555.2,59.376,555.2,61.576 M536.9,24.976h-475c-2.2,0-4.4,0.2-6.7,0.6c-2.2,0.5-4.5,1.1-6.8,2
		c-4.5,1.8-8.7,4.5-12.3,8.1c-3.7,3.6-6.4,7.9-8.2,12.4c-0.9,2.3-1.5,4.5-1.9,6.8c-0.5,2.3-0.6,4.5-0.6,6.7v475
		c0,2.101,0.1,4.3,0.6,6.601c0.4,2.3,1,4.6,1.9,6.8c1.8,4.6,4.5,8.8,8.2,12.399c3.6,3.601,7.8,6.301,12.3,8.101
		c2.3,0.899,4.6,1.6,6.8,2c2.3,0.399,4.5,0.6,6.7,0.6h475c2.1,0,4.4-0.2,6.6-0.6c2.301-0.4,4.601-1.101,6.801-2
		c4.6-1.8,8.8-4.5,12.399-8.101c3.601-3.6,6.4-7.8,8.2-12.399c0.9-2.2,1.5-4.5,1.9-6.8c0.399-2.301,0.6-4.5,0.6-6.601v-475
		c0-2.2-0.2-4.4-0.6-6.7c-0.4-2.3-1-4.5-1.9-6.8c-1.8-4.5-4.6-8.8-8.2-12.4c-3.6-3.6-7.8-6.3-12.399-8.1c-2.2-0.9-4.5-1.5-6.801-2
		C541.3,25.176,539,24.976,536.9,24.976"/>
</g>
</svg>
