<?xml version="1.0" encoding="UTF-8"?>
<svg id="Layer_1" data-name="Layer 1" xmlns="http://www.w3.org/2000/svg" version="1.1" viewBox="0 0 425.2 425.2">
  <defs>
    <style>
      .cls-1, .cls-2 {
        stroke-width: 0px;
      }

      .cls-1, .cls-3 {
        fill: #005eb8;
      }

      .cls-2 {
        fill: #fff;
      }

      .cls-3 {
        stroke: #005eb8;
        stroke-miterlimit: 10;
        stroke-width: .5px;
      }
    </style>
  </defs>
  <g id="LWPOLYLINE">
    <rect class="cls-3" x="0" y="0" width="425.2" height="425.2"/>
  </g>
  <g id="LWPOLYLINE-2" data-name="LWPOLYLINE">
    <path class="cls-2" d="M425.2,28.3v368.5c0,15.7-12.7,28.3-28.3,28.3H28.3C12.7,425.2,0,412.5,0,396.9V28.3C0,12.7,12.7,0,28.3,0h368.5c15.7,0,28.3,12.7,28.3,28.3Z"/>
  </g>
  <g id="LWPOLYLINE-3" data-name="LWPOLYLINE">
    <path class="cls-1" d="M411,28.3v368.5c0,7.8-6.4,14.2-14.2,14.2H28.3c-7.8,0-14.2-6.3-14.2-14.2V28.3c0-7.8,6.3-14.2,14.2-14.2h368.5c7.8,0,14.2,6.4,14.2,14.2Z"/>
  </g>
  <g id="LWPOLYLINE-4" data-name="LWPOLYLINE">
    <rect class="cls-2" x="254.2" y="214.7" width="127.6" height="70.9" transform="translate(-57.6 400.4) rotate(-60)"/>
  </g>
  <g id="LWPOLYLINE-5" data-name="LWPOLYLINE">
    <rect class="cls-2" x="147.7" y="215" width="127.5" height="70.9" transform="translate(-111.2 308.3) rotate(-60)"/>
  </g>
  <g id="LWPOLYLINE-6" data-name="LWPOLYLINE">
    <rect class="cls-2" x="41.6" y="214.7" width="127.6" height="70.9" transform="translate(-163.9 216.3) rotate(-60)"/>
  </g>
  <g id="LWPOLYLINE-7" data-name="LWPOLYLINE">
    <rect class="cls-2" x="42.5" y="120.5" width="340.2" height="28.3"/>
  </g>
</svg>