<?xml version="1.0" encoding="utf-8"?>
<!-- Generator: Adobe Illustrator 14.0.0, SVG Export Plug-In . SVG Version: 6.00 Build 43363)  -->
<!DOCTYPE svg PUBLIC "-//W3C//DTD SVG 1.1//EN" "http://www.w3.org/Graphics/SVG/1.1/DTD/svg11.dtd">
<svg version="1.1" id="Layer_1" xmlns="http://www.w3.org/2000/svg" xmlns:xlink="http://www.w3.org/1999/xlink" x="0px" y="0px"
	 width="595.276px" height="595.276px" viewBox="0 0 595.276 595.276" enable-background="new 0 0 595.276 595.276"
	 xml:space="preserve">
<g>
	<defs>
		<polyline id="SVGID_1_" points="0,591.491 595.396,591.491 595.396,3.785 0,3.785 0,591.491 		"/>
	</defs>
	<clipPath id="SVGID_2_">
		<use xlink:href="#SVGID_1_"  overflow="visible"/>
	</clipPath>
	
		<polyline clip-path="url(#SVGID_2_)" fill="none" stroke="#0000FF" stroke-width="0.12" stroke-linejoin="bevel" stroke-miterlimit="1.414" points="
		193.9,240.576 336.3,158.376 290.6,79.276 148.2,161.476 193.9,240.576 	"/>
	
		<polyline clip-path="url(#SVGID_2_)" fill="none" stroke="#0000FF" stroke-width="0.12" stroke-linejoin="bevel" stroke-miterlimit="1.414" points="
		193.5,377.875 335.9,295.576 290.2,216.476 147.8,298.776 193.5,377.875 	"/>
	
		<polyline clip-path="url(#SVGID_2_)" fill="none" stroke="#0000FF" stroke-width="0.12" stroke-linejoin="bevel" stroke-miterlimit="1.414" points="
		193.9,514.676 336.3,432.375 290.6,353.276 148.2,435.476 193.9,514.676 	"/>
	
		<polyline clip-path="url(#SVGID_2_)" fill="none" stroke="#0000FF" stroke-width="0.12" stroke-linejoin="bevel" stroke-miterlimit="1.414" points="
		372.9,76.376 409.4,76.376 409.4,514.976 372.9,514.976 372.9,76.376 	"/>
	
		<polyline clip-path="url(#SVGID_2_)" fill="none" stroke="#0000FF" stroke-width="0.12" stroke-linejoin="bevel" stroke-miterlimit="1.414" points="
		16.6,569.776 564.7,569.776 564.7,21.576 16.6,21.576 16.6,569.776 	"/>
	
		<line clip-path="url(#SVGID_2_)" fill="none" stroke="#0000FF" stroke-width="0.12" stroke-linejoin="bevel" stroke-miterlimit="1.414" x1="16.6" y1="58.176" x2="16.6" y2="533.176"/>
	
		<path clip-path="url(#SVGID_2_)" fill="none" stroke="#0000FF" stroke-width="0.12" stroke-linejoin="bevel" stroke-miterlimit="1.414" d="
		M16.6,533.176c0,4.8,0.9,9.6,2.7,14c1.9,4.5,4.6,8.5,8,11.899c3.4,3.4,7.4,6.101,11.8,7.9c4.5,1.8,9.2,2.8,14,2.8"/>
	
		<line clip-path="url(#SVGID_2_)" fill="none" stroke="#0000FF" stroke-width="0.12" stroke-linejoin="bevel" stroke-miterlimit="1.414" x1="53.1" y1="569.776" x2="528.2" y2="569.776"/>
	
		<path clip-path="url(#SVGID_2_)" fill="none" stroke="#0000FF" stroke-width="0.12" stroke-linejoin="bevel" stroke-miterlimit="1.414" d="
		M528.2,569.776c4.8,0,9.5-1,13.9-2.8c4.5-1.8,8.5-4.5,11.899-7.9c3.4-3.399,6.101-7.399,7.9-11.899c1.9-4.4,2.8-9.2,2.8-14"/>
	
		<line clip-path="url(#SVGID_2_)" fill="none" stroke="#0000FF" stroke-width="0.12" stroke-linejoin="bevel" stroke-miterlimit="1.414" x1="564.7" y1="533.176" x2="564.7" y2="58.176"/>
	
		<path clip-path="url(#SVGID_2_)" fill="none" stroke="#0000FF" stroke-width="0.12" stroke-linejoin="bevel" stroke-miterlimit="1.414" d="
		M564.7,58.176c0-4.8-0.899-9.6-2.8-14c-1.8-4.4-4.5-8.5-7.9-11.9c-3.399-3.4-7.399-6-11.899-7.9c-4.4-1.8-9.101-2.8-13.9-2.8"/>
	
		<line clip-path="url(#SVGID_2_)" fill="none" stroke="#0000FF" stroke-width="0.12" stroke-linejoin="bevel" stroke-miterlimit="1.414" x1="528.2" y1="21.576" x2="53.1" y2="21.576"/>
	
		<path clip-path="url(#SVGID_2_)" fill="none" stroke="#0000FF" stroke-width="0.12" stroke-linejoin="bevel" stroke-miterlimit="1.414" d="
		M53.1,21.576c-4.8,0-9.5,1-14,2.8c-4.4,1.9-8.4,4.5-11.8,7.9c-3.4,3.4-6.1,7.5-8,11.9c-1.8,4.4-2.7,9.2-2.7,14"/>
	
		<line clip-path="url(#SVGID_2_)" fill="none" stroke="#0000FF" stroke-width="0.12" stroke-linejoin="bevel" stroke-miterlimit="1.414" x1="34.8" y1="58.176" x2="34.8" y2="533.176"/>
	
		<path clip-path="url(#SVGID_2_)" fill="none" stroke="#0000FF" stroke-width="0.12" stroke-linejoin="bevel" stroke-miterlimit="1.414" d="
		M34.8,533.176c0,4.899,2,9.5,5.4,13c3.4,3.399,8.1,5.3,12.9,5.3"/>
	
		<line clip-path="url(#SVGID_2_)" fill="none" stroke="#0000FF" stroke-width="0.12" stroke-linejoin="bevel" stroke-miterlimit="1.414" x1="53.1" y1="551.476" x2="528.2" y2="551.476"/>
	
		<path clip-path="url(#SVGID_2_)" fill="none" stroke="#0000FF" stroke-width="0.12" stroke-linejoin="bevel" stroke-miterlimit="1.414" d="
		M528.2,551.476c4.8,0,9.5-1.9,12.9-5.3c3.399-3.5,5.3-8.101,5.3-13"/>
	
		<line clip-path="url(#SVGID_2_)" fill="none" stroke="#0000FF" stroke-width="0.12" stroke-linejoin="bevel" stroke-miterlimit="1.414" x1="546.4" y1="533.176" x2="546.4" y2="58.176"/>
	
		<path clip-path="url(#SVGID_2_)" fill="none" stroke="#0000FF" stroke-width="0.12" stroke-linejoin="bevel" stroke-miterlimit="1.414" d="
		M546.4,58.176c0-4.9-1.9-9.5-5.3-12.9c-3.4-3.5-8.101-5.4-12.9-5.4"/>
	
		<line clip-path="url(#SVGID_2_)" fill="none" stroke="#0000FF" stroke-width="0.12" stroke-linejoin="bevel" stroke-miterlimit="1.414" x1="528.2" y1="39.876" x2="53.1" y2="39.876"/>
	
		<path clip-path="url(#SVGID_2_)" fill="none" stroke="#0000FF" stroke-width="0.12" stroke-linejoin="bevel" stroke-miterlimit="1.414" d="
		M53.1,39.876c-4.8,0-9.5,1.9-12.9,5.4c-3.4,3.4-5.4,8-5.4,12.9"/>
	<path clip-path="url(#SVGID_2_)" fill-rule="evenodd" clip-rule="evenodd" fill="#0000FF" d="M372.9,76.376h36.5v438.6h-36.5
		V76.376 M148.2,435.476l142.4-82.2l45.7,79.1l-142.4,82.301L148.2,435.476 M147.8,298.776l142.4-82.3l45.7,79.1l-142.4,82.3
		L147.8,298.776 M148.2,161.476l142.4-82.2l45.7,79.1l-142.4,82.2L148.2,161.476 M34.8,58.176v475c0,2.199,0.4,4.5,1.3,6.8
		c0.9,2.2,2.3,4.399,4.1,6.2c1.8,1.8,3.9,3.1,6.2,4c2.2,0.899,4.5,1.3,6.7,1.3h475.1c2.101,0,4.4-0.4,6.7-1.3c2.3-0.9,4.4-2.2,6.2-4
		c1.8-1.801,3.2-4,4.1-6.2c0.9-2.3,1.2-4.601,1.2-6.8v-475c0-2.2-0.3-4.5-1.2-6.7c-0.899-2.3-2.3-4.4-4.1-6.2s-3.9-3.2-6.2-4.1
		s-4.6-1.3-6.7-1.3H53.1c-2.2,0-4.5,0.4-6.7,1.3c-2.3,0.9-4.4,2.3-6.2,4.1c-1.8,1.8-3.2,3.9-4.1,6.2
		C35.2,53.676,34.8,55.976,34.8,58.176"/>
	<path clip-path="url(#SVGID_2_)" fill-rule="evenodd" clip-rule="evenodd" fill="#0000FF" d="M16.6,58.176c0-2.2,0.2-4.4,0.6-6.7
		c0.4-2.2,1-4.5,1.9-6.8c1.8-4.5,4.5-8.7,8.1-12.3c3.6-3.6,7.9-6.4,12.4-8.2c2.3-0.9,4.5-1.5,6.8-1.9c2.3-0.5,4.5-0.7,6.6-0.7H16.6
		v0.1V58.176"/>
	<path clip-path="url(#SVGID_2_)" fill-rule="evenodd" clip-rule="evenodd" fill="#0000FF" d="M528.2,21.576
		c2.101,0,4.3,0.2,6.601,0.6c2.3,0.5,4.5,1.1,6.8,2c4.5,1.8,8.8,4.5,12.399,8.1c3.601,3.6,6.301,7.8,8.101,12.4
		c0.899,2.2,1.6,4.5,2,6.8c0.399,2.2,0.6,4.5,0.6,6.6v-36.5h-0.1H528.2"/>
	<path clip-path="url(#SVGID_2_)" fill-rule="evenodd" clip-rule="evenodd" fill="#0000FF" d="M564.7,533.176
		c0,2.199-0.2,4.399-0.6,6.699c-0.4,2.2-1.101,4.5-2,6.801c-1.7,4.5-4.5,8.699-8.101,12.3c-3.6,3.7-7.8,6.399-12.3,8.2
		c-2.3,0.899-4.6,1.5-6.8,2c-2.3,0.399-4.5,0.6-6.7,0.6h36.5v-0.1V533.176"/>
	<path clip-path="url(#SVGID_2_)" fill-rule="evenodd" clip-rule="evenodd" fill="#0000FF" d="M53.1,569.776c-2.1,0-4.4-0.2-6.6-0.6
		c-2.3-0.5-4.6-1.101-6.8-2c-4.6-1.801-8.8-4.5-12.4-8.101c-3.6-3.6-6.3-7.8-8.2-12.399c-0.8-2.2-1.5-4.5-1.9-6.801
		c-0.4-2.199-0.6-4.399-0.6-6.6v36.5H53.1"/>
	<path clip-path="url(#SVGID_2_)" fill-rule="evenodd" clip-rule="evenodd" fill="#F0F0F0" d="M53.1,39.876h475.1
		c2.101,0,4.4,0.4,6.7,1.3s4.4,2.3,6.2,4.1s3.2,3.9,4.1,6.2c0.9,2.2,1.2,4.5,1.2,6.7v475c0,2.199-0.3,4.5-1.2,6.8
		c-0.899,2.2-2.3,4.399-4.1,6.2c-1.8,1.8-3.9,3.1-6.2,4c-2.3,0.899-4.6,1.3-6.7,1.3H53.1c-2.2,0-4.5-0.4-6.7-1.3
		c-2.3-0.9-4.4-2.2-6.2-4c-1.8-1.801-3.2-4-4.1-6.2c-0.9-2.3-1.3-4.601-1.3-6.8v-475c0-2.2,0.4-4.5,1.3-6.7c0.9-2.3,2.3-4.4,4.1-6.2
		c1.8-1.8,3.9-3.2,6.2-4.1C48.6,40.276,50.9,39.876,53.1,39.876 M16.6,533.176c0,2.199,0.2,4.399,0.6,6.699c0.4,2.2,1,4.5,1.9,6.801
		c1.8,4.5,4.6,8.8,8.2,12.399c3.6,3.601,7.8,6.3,12.4,8.101c2.2,0.899,4.5,1.5,6.8,2c2.2,0.399,4.5,0.6,6.6,0.6h475.1
		c2.101,0,4.3-0.2,6.601-0.6c2.3-0.5,4.6-1.101,6.8-2c4.6-1.801,8.8-4.5,12.399-8.101c3.601-3.6,6.301-7.899,8.101-12.399
		c0.899-2.301,1.6-4.601,2-6.801c0.399-2.3,0.6-4.5,0.6-6.699v-475c0-2.2-0.2-4.4-0.6-6.7c-0.4-2.2-1.101-4.5-2-6.8
		c-1.8-4.5-4.5-8.8-8.101-12.4c-3.6-3.6-7.8-6.3-12.399-8.1c-2.2-0.9-4.5-1.5-6.8-2c-2.301-0.4-4.5-0.6-6.601-0.6H53.1
		c-2.1,0-4.4,0.2-6.6,0.6c-2.3,0.5-4.6,1.1-6.8,2c-4.6,1.8-8.8,4.5-12.4,8.1c-3.6,3.6-6.4,7.9-8.2,12.4c-0.9,2.3-1.5,4.6-1.9,6.8
		c-0.4,2.3-0.6,4.5-0.6,6.7V533.176"/>
	<polyline clip-path="url(#SVGID_2_)" fill-rule="evenodd" clip-rule="evenodd" fill="#F0F0F0" points="193.9,240.576 
		336.3,158.376 290.6,79.276 148.2,161.476 193.9,240.576 	"/>
	<polyline clip-path="url(#SVGID_2_)" fill-rule="evenodd" clip-rule="evenodd" fill="#F0F0F0" points="193.5,377.875 
		335.9,295.576 290.2,216.476 147.8,298.776 193.5,377.875 	"/>
	<polyline clip-path="url(#SVGID_2_)" fill-rule="evenodd" clip-rule="evenodd" fill="#F0F0F0" points="193.9,514.676 
		336.3,432.375 290.6,353.276 148.2,435.476 193.9,514.676 	"/>
	<polyline clip-path="url(#SVGID_2_)" fill-rule="evenodd" clip-rule="evenodd" fill="#F0F0F0" points="372.9,514.976 
		409.4,514.976 409.4,76.376 372.9,76.376 372.9,514.976 	"/>
	
		<polyline clip-path="url(#SVGID_2_)" fill="none" stroke="#0000FF" stroke-width="0.12" stroke-linejoin="bevel" stroke-miterlimit="1.414" points="
		16.6,21.576 564.7,21.576 564.7,569.776 16.6,569.776 16.6,21.576 	"/>
</g>
</svg>
