<?xml version="1.0" encoding="UTF-8"?>
<svg id="Layer_1" data-name="Layer 1" xmlns="http://www.w3.org/2000/svg" version="1.1" xmlns:cc="http://creativecommons.org/ns#" xmlns:dc="http://purl.org/dc/elements/1.1/" xmlns:rdf="http://www.w3.org/1999/02/22-rdf-syntax-ns#" xmlns:svg="http://www.w3.org/2000/svg" viewBox="0 0 239.2 239.2">
  <defs>
    <style>
      .cls-1, .cls-2, .cls-3, .cls-4, .cls-5 {
        stroke-width: 0px;
      }

      .cls-1, .cls-4 {
        fill: #fff;
      }

      .cls-1, .cls-5 {
        fill-rule: evenodd;
      }

      .cls-2, .cls-6, .cls-5 {
        fill: #005eb8;
      }

      .cls-3 {
        fill: #ef3e42;
      }

      .cls-6 {
        stroke: #fff;
        stroke-miterlimit: 10;
        stroke-width: .7px;
      }
    </style>
  </defs>
  <g id="g12">
    <rect id="rect2" class="cls-6" x=".4" y=".4" width="238.5" height="238.5"/>
    <polygon id="polygon4" class="cls-1" points="3.2 7 5.7 4.2 8.9 2 12.6 .8 16.2 .4 223 .4 226.9 .8 230.3 2 233.6 4.2 236 7 237.9 10.5 238.9 16.2 238.9 222.8 237.9 228.5 236 232 233.6 234.8 230.3 237 226.9 238.2 223 238.9 16.2 238.9 10.5 237.8 7.3 236 4.5 233.3 2.2 230.3 .8 226.6 .4 222.8 .4 14.2 1.4 10.5 3.2 7"/>
    <polygon id="polygon6" class="cls-5" points="10.1 11.2 12.4 9.3 16.2 8.3 223 8.3 225.6 8.7 228.1 10.1 230 12.2 231 16.2 230.8 224.2 230 226.9 228.1 228.9 225.6 230.3 223 230.8 16.2 230.8 13.6 230.3 11.2 228.9 9.4 226.9 8.5 224.2 8.3 16.2 8.9 13.4 10.1 11.2"/>
    <polygon id="polygon8" class="cls-1" points="88.7 90.7 116.5 90.7 116.5 150.1 88.7 150.1 88.7 128.4 35.9 128.4 35.9 112.6 88.7 112.6 88.7 90.7"/>
    <rect id="rect10" class="cls-3" x="92.5" y="94.6" width="19.9" height="51.7"/>
  </g>
  <rect class="cls-4" x="34" y="23.8" width="15.8" height="191.4"/>
  <g id="LWPOLYLINE">
    <path id="path14" class="cls-4" d="M192.7,102l4.5,7.7c2-1,4.1-1.6,6.3-1.8,10.1-.9,19.1,6.5,20,16.6h-.7c.9,9.4-5.7,17.8-15,19.2-9.7,1.4-18.7-5.2-20.1-14.9l-3.1.3c-.1,1.8-1.2,3.4-2.9,4.2l.9,3.5h1.5v1.7h-4.6v-1.7h1.4l-.8-3.1c-1.2.1-2.3-.1-3.3-.8-2.4-1.5-3.1-4.6-1.6-7l-16.5-18.5-.9,2.5c8.4,4.4,12.1,14.5,8.5,23.3l-.6-.3c-2.3,5.7-7.5,9.8-13.6,10.8-9.7,1.5-18.7-5.1-20.2-14.7-1.5-9.7,5.1-18.7,14.7-20.2v-.7c3.1-.5,6.4,0,9.4,1l4.4-12.4.4.2,1.1-3.1-1.1-1.1v-1.6l1.3-1.1h1.5l5.4.5v.8l-5.4-.5h-1.2l-.8.8v1l.5.6.2-.4,1,.6-1.5,4h.4c0,0-.9,2.7-.9,2.7h29.7l.2-.3.4.2.5-1.1-4.9-3-.3-.3-.3-.6v-.4l.4-.2h.4c0,0,.8-.2.8-.2h3.5c0,0,3-.2,3-.2l1.5-.3h1.1l.3.4v1.1l-.4.8-.6.8-.6.8-.9.9-.9.6-.4.2h-.5l-.7,1.4.5.3-.6,1.3.2-.3Z"/>
  </g>
  <g id="LWPOLYLINE-2">
    <path id="path17" class="cls-2" d="M205.4,123.8c.8,0,1.5.5,1.9,1.1.7,1.1.4,2.6-.7,3.3-1.1.7-2.6.4-3.3-.7l-12.1,1c1.3,7.8,8.6,13.1,16.4,11.8,7.8-1.3,13.1-8.6,11.8-16.4-1.3-7.8-8.6-13.1-16.4-11.8-1.3.2-2.5.6-3.7,1.1,0,0,6.1,10.6,6.1,10.6Z"/>
  </g>
  <g id="LWPOLYLINE-3">
    <path id="path20" class="cls-2" d="M184.4,127.2l2.5-.2c-.2-6.6,3-12.8,8.6-16.3l-3.8-6.5-9.1,20.5c.8.6,1.5,1.5,1.8,2.5h0Z"/>
  </g>
  <g id="LWPOLYLINE-4">
    <path id="path26" class="cls-2" d="M202.7,125.6c.1-.4.3-.8.6-1.1l-6-10.3c-4.2,2.7-6.7,7.4-6.6,12.4l12-1Z"/>
  </g>
  <g id="LWPOLYLINE-5">
    <path id="path29" class="cls-2" d="M176.9,124.3l-17.3-19.4.9-2.7h29.5l-9.6,21.4c-.5,0-1,0-1.5,0l-.7-3.4h1.4v-1.7h-4.4v1.7h1.4l.8,3.8c-.2,0-.3.2-.5.3h0Z"/>
  </g>
  <g id="LWPOLYLINE-6">
    <path id="path32" class="cls-2" d="M154.3,119.9l-1.2,2.1-1.3,2.1-.6.6c.3.4.5.9.5,1.4,0,1.3-1,2.5-2.3,2.5s-2.5-1-2.5-2.3,1-2.5,2.3-2.5l1-1,1.1-1.9,1.1-1.9,2.2-6.1c-7.3-2.9-15.6.7-18.5,8-2.9,7.3.7,15.7,8.1,18.5,7.3,2.9,15.6-.7,18.5-8,2.6-6.6,0-14.1-6.2-17.6l-2.2,6.1h0Z"/>
  </g>
</svg>