<?xml version="1.0" encoding="UTF-8"?>
<svg id="Layer_1" data-name="Layer 1" xmlns="http://www.w3.org/2000/svg" version="1.1" xmlns:cc="http://creativecommons.org/ns#" xmlns:dc="http://purl.org/dc/elements/1.1/" xmlns:rdf="http://www.w3.org/1999/02/22-rdf-syntax-ns#" xmlns:svg="http://www.w3.org/2000/svg" viewBox="0 0 496.1 496">
  <defs>
    <style>
      .cls-1 {
        fill: #005eb8;
      }

      .cls-1, .cls-2, .cls-3 {
        stroke-width: 0px;
      }

      .cls-2 {
        fill: #ef3e42;
      }

      .cls-3 {
        fill: #fff;
      }
    </style>
  </defs>
  <g id="LWPOLYLINE">
    <rect id="rect2" class="cls-1" x="0" y="0" width="496.1" height="496"/>
  </g>
  <g id="LWPOLYLINE-2" data-name="LWPOLYLINE">
    <path id="path5" class="cls-3" d="M463,0H33.1C14.8,0,0,14.8,0,33.1v429.9C0,481.3,14.8,496,33.1,496h429.9c18.3,0,33.1-14.8,33.1-33.1V33.1C496.1,14.8,481.3,0,463,0Z"/>
  </g>
  <g id="LWPOLYLINE-3" data-name="LWPOLYLINE">
    <path id="path8" class="cls-1" d="M463,16.5H33.1c-9.1,0-16.5,7.4-16.5,16.5v429.9c0,9.1,7.4,16.5,16.5,16.5h429.9c9.1,0,16.5-7.4,16.5-16.5V33.1c0-9.1-7.4-16.5-16.5-16.5Z"/>
  </g>
  <g id="LWPOLYLINE-4" data-name="LWPOLYLINE">
    <polygon id="polygon11" class="cls-3" points="231.5 281.1 186 281.1 186 223.2 239.8 223.2 239.8 190.1 256.3 190.1 256.3 223.2 310.1 223.2 310.1 281.1 264.6 281.1 264.6 446.5 231.5 446.5 231.5 281.1"/>
  </g>
  <g id="LWPOLYLINE-5" data-name="LWPOLYLINE">
    <path id="path14" class="cls-3" d="M289.5,64.7l11.6,20.1c5.2-2.5,10.8-4.1,16.5-4.6,26.3-2.4,49.6,16.9,52.1,43.1l-1.8.2c2.3,24.3-14.9,46.2-39.1,49.8-25.2,3.8-48.6-13.6-52.3-38.8l-8.2.7c-.4,4.7-3.2,8.8-7.5,10.8l2.4,9.2h3.8v4.4h-11.9v-4.4h3.7l-2.1-8c-3,.3-6.1-.3-8.7-2-6.1-3.9-8-12-4.1-18.2l-43-48.2-2.3,6.5c21.8,11.5,31.4,37.7,22,60.5l-1.7-.7c-6.1,14.9-19.5,25.5-35.4,28-25.1,3.9-48.7-13.2-52.7-38.3-4-25.1,13.1-48.7,38.3-52.7v-1.8c8.2-1.3,16.6-.4,24.4,2.6l11.5-32.3,1.2.5,2.9-8-2.8-3,.2-4.1,3.1-3,4-.2,14,1.4-.2,2-13.9-1.4h-3.1c0,.1-2,2.1-2,2.1v2.5c-.1,0,1.4,1.7,1.4,1.7l.4-1.1,2.7,1.6-3.8,10.5,1.1.4-2.4,6.7h77.2l.4-.9,1.2.5,1.4-2.8-12.7-7.8-.8-.8-.7-1.6.2-1.1.7-.6,1.1-.4,2.1-.2,4,.2h5.3c0,.1,7.9-.8,7.9-.8l4-.8,2.2-.2.8.3.8,1v1.8c0,0-.2,1.1-.2,1.1l-1,2.1-1.5,2.2-1.6,2-2.4,2.3-2.3,1.6-1.1.4h-1.3c0,.1-1.8,3.6-1.8,3.6l1.2.8-1.5,3.3Z"/>
  </g>
  <g id="LWPOLYLINE-6" data-name="LWPOLYLINE">
    <path id="path17" class="cls-1" d="M322.5,121.5c2,.1,3.8,1.2,4.9,2.9,1.8,2.9,1,6.8-1.9,8.7-2.9,1.8-6.8,1-8.7-1.9l-31.4,2.6c3.3,20.2,22.4,34,42.7,30.7,20.3-3.3,34-22.4,30.7-42.7-3.3-20.2-22.4-34-42.7-30.7-3.3.5-6.5,1.5-9.6,2.9l15.9,27.5Z"/>
  </g>
  <g id="LWPOLYLINE-7" data-name="LWPOLYLINE">
    <path id="path20" class="cls-1" d="M267.8,130.2l6.5-.6c-.6-17.1,7.9-33.3,22.4-42.4l-9.8-16.8-23.8,53.2c2.2,1.7,3.8,3.9,4.6,6.6h0Z"/>
  </g>
  <g id="LWPOLYLINE-8" data-name="LWPOLYLINE">
    <rect id="rect23" class="cls-2" x="194.3" y="231.5" width="107.5" height="41.3"/>
  </g>
  <g id="LWPOLYLINE-9" data-name="LWPOLYLINE">
    <path id="path26" class="cls-1" d="M315.4,126.1c.3-1.1.8-2,1.6-2.8l-15.6-26.9c-11,7-17.5,19.3-17.1,32.3l31.1-2.6Z"/>
  </g>
  <g id="LWPOLYLINE-10" data-name="LWPOLYLINE">
    <path id="path29" class="cls-1" d="M248.4,122.8l-45-50.5,2.5-7h76.7l-24.9,55.7c-1.3-.2-2.6-.3-3.9-.1l-1.9-8.7h3.6v-4.4h-11.5v4.4h3.5l2.1,9.8c-.5.2-.9.5-1.3.7h0Z"/>
  </g>
  <g id="LWPOLYLINE-11" data-name="LWPOLYLINE">
    <path id="path32" class="cls-1" d="M189.5,111.3l-3.1,5.4-3.3,5.5-1.6,1.7c.8,1,1.2,2.2,1.3,3.5.2,3.4-2.5,6.4-6,6.5-3.4.2-6.4-2.5-6.5-5.9-.2-3.4,2.5-6.4,5.9-6.5l2.5-2.6,3-5,2.8-4.9,5.7-15.9c-19.1-7.5-40.7,1.9-48.2,20.9-7.5,19.1,1.9,40.7,21,48.2,19.1,7.5,40.7-1.8,48.2-20.9,6.8-17.1,0-36.6-16-45.8l-5.6,15.8Z"/>
  </g>
</svg>