<?xml version="1.0" encoding="iso-8859-1"?>
<!-- Generator: Adobe Illustrator 16.0.0, SVG Export Plug-In . SVG Version: 6.00 Build 0)  -->
<!DOCTYPE svg PUBLIC "-//W3C//DTD SVG 1.1//EN" "http://www.w3.org/Graphics/SVG/1.1/DTD/svg11.dtd">
<svg version="1.1" id="Layer_1" xmlns="http://www.w3.org/2000/svg" xmlns:xlink="http://www.w3.org/1999/xlink" x="0px" y="0px"
	 width="425.197px" height="425.196px" viewBox="0 0 425.197 425.196" style="enable-background:new 0 0 425.197 425.196;"
	 xml:space="preserve">
<g id="LWPOLYLINE_52_">
	
		<rect x="14.172" y="14.172" style="fill:#005EB8;stroke:#005EB8;stroke-width:0.5;stroke-miterlimit:10;" width="396.853" height="396.853"/>
</g>
<g id="LWPOLYLINE_55_">
	<path style="fill:#FFFFFF;" d="M40.627,14.172h343.934c14.618,0,26.464,11.846,26.464,26.457v343.94
		c0,14.608-11.846,26.455-26.464,26.455H40.627c-14.609,0-26.455-11.847-26.455-26.455V40.629
		C14.172,26.018,26.018,14.172,40.627,14.172z"/>
</g>
<g id="LWPOLYLINE_54_">
	<path style="fill:#005EB8;" d="M40.627,27.401h343.934c7.313,0,13.232,5.923,13.232,13.228v343.94
		c0,7.305-5.919,13.223-13.232,13.223H40.627c-7.305,0-13.228-5.918-13.228-13.223V40.629C27.4,33.324,33.323,27.401,40.627,27.401z
		"/>
</g>
<g id="LWPOLYLINE_56_">
	<polygon style="fill:#FFFFFF;" points="86.927,212.229 153.07,212.229 153.07,248.606 199.368,248.606 199.368,205.616 
		225.823,205.616 225.823,192.386 199.368,192.386 199.368,149.394 153.07,149.394 153.07,185.772 86.927,185.772 86.927,60.103 
		60.47,60.103 60.47,364.356 86.927,364.356 	"/>
</g>
<g id="LWPOLYLINE_61_">
	<path style="fill:#FFFFFF;" d="M330.776,182.364l6.529,9.315c2.508-1.479,5.234-2.542,8.08-3.146
		c14.481-3.071,28.707,6.179,31.78,20.659c3.073,14.481-6.183,28.71-20.664,31.781c-14.481,3.07-28.708-6.179-31.78-20.66h-9.366
		c-2.161,0-4.222-0.909-5.672-2.503l-31.543-33.632l-1.797,5.897c11.554,4.899,18.165,17.16,15.904,29.508
		c-2.672,14.559-16.634,24.2-31.197,21.535c-14.554-2.667-24.202-16.634-21.53-31.194c2.663-14.562,16.633-24.202,31.188-21.535
		l7.66-25.114c1.149-3.769,4.623-6.34,8.563-6.34h10.322v5.879h-10.322c-1.351,0-2.545,0.883-2.937,2.175l-2.144,7.033l43.69,7.558
		l4.496-12.174l-9.922-2.725c-0.602-0.228-0.985-0.818-0.948-1.457c0.045-0.809,0.738-1.429,1.55-1.384h0.775h21.467v5.8h-6.739
		L330.776,182.364z"/>
</g>
<g id="LWPOLYLINE_57_">
	<rect x="159.681" y="156.01" style="fill:#E4002B;" width="33.075" height="85.982"/>
</g>
<g id="LWPOLYLINE_58_">
	<polygon style="fill:#005EB8;" points="280.119,177.692 323.462,185.191 313.204,212.938 	"/>
</g>
<g id="LWPOLYLINE_59_">
	<path style="fill:#005EB8;" d="M336.02,200.094c-3.767,3.833-5.91,8.967-5.992,14.338h16.032L336.02,200.094z"/>
</g>
<g id="LWPOLYLINE_60_">
	<path style="fill:#005EB8;" d="M324.146,214.432c0.082-7.291,3.138-14.23,8.454-19.219l-4.305-6.14l-9.374,25.358h5.262H324.146z"
		/>
</g>
<g id="LWPOLYLINE_62_">
	<path style="fill:#005EB8;" d="M353.136,214.276c0.456,0.646,0.693,1.414,0.693,2.2c0,2.12-1.715,3.837-3.83,3.837h-19.224
		c3.073,11.14,14.591,17.681,25.726,14.609c11.144-3.071,17.682-14.591,14.608-25.73c-3.063-11.139-14.581-17.68-25.725-14.608
		c-1.633,0.451-3.21,1.099-4.688,1.931L353.136,214.276z"/>
</g>
<g id="LWPOLYLINE_63_">
	<path style="fill:#005EB8;" d="M274.62,195.744l-5.882,19.297c-0.036,0.171-0.091,0.339-0.155,0.503
		c-0.61,1.512-2.334,2.239-3.848,1.628c-1.505-0.613-2.234-2.334-1.623-3.846l5.872-19.262
		c-11.426-1.715-22.077,6.162-23.792,17.588c-1.714,11.429,6.165,22.08,17.591,23.793c11.427,1.712,22.078-6.165,23.792-17.592
		C287.952,208.646,283.083,199.631,274.62,195.744z"/>
</g>
</svg>
