<?xml version="1.0" encoding="utf-8"?>
<!-- Generator: Adobe Illustrator 14.0.0, SVG Export Plug-In . SVG Version: 6.00 Build 43363)  -->
<!DOCTYPE svg PUBLIC "-//W3C//DTD SVG 1.1//EN" "http://www.w3.org/Graphics/SVG/1.1/DTD/svg11.dtd">
<svg version="1.1" id="Layer_1" xmlns="http://www.w3.org/2000/svg" xmlns:xlink="http://www.w3.org/1999/xlink" x="0px" y="0px"
	 width="595.276px" height="595.276px" viewBox="0 0 595.276 595.276" enable-background="new 0 0 595.276 595.276"
	 xml:space="preserve">
<g>
	<defs>
		<polyline id="SVGID_1_" points="12.896,587.15 582.379,587.15 582.379,8.126 12.896,8.126 12.896,587.15 		"/>
	</defs>
	<clipPath id="SVGID_2_">
		<use xlink:href="#SVGID_1_"  overflow="visible"/>
	</clipPath>
	
		<line clip-path="url(#SVGID_2_)" fill="none" stroke="#0000FF" stroke-width="0.12" stroke-linejoin="bevel" stroke-miterlimit="1.414" x1="61.1" y1="551.976" x2="536.1" y2="551.976"/>
	
		<path clip-path="url(#SVGID_2_)" fill="none" stroke="#0000FF" stroke-width="0.12" stroke-linejoin="bevel" stroke-miterlimit="1.414" d="
		M536.1,551.976c4.899,0,9.5-1.9,13-5.4c3.399-3.399,5.3-8,5.3-12.899"/>
	
		<line clip-path="url(#SVGID_2_)" fill="none" stroke="#0000FF" stroke-width="0.12" stroke-linejoin="bevel" stroke-miterlimit="1.414" x1="554.4" y1="533.676" x2="554.4" y2="58.676"/>
	
		<path clip-path="url(#SVGID_2_)" fill="none" stroke="#0000FF" stroke-width="0.12" stroke-linejoin="bevel" stroke-miterlimit="1.414" d="
		M554.4,58.676c0-4.9-1.9-9.5-5.3-13c-3.5-3.4-8.101-5.3-13-5.3"/>
	
		<line clip-path="url(#SVGID_2_)" fill="none" stroke="#0000FF" stroke-width="0.12" stroke-linejoin="bevel" stroke-miterlimit="1.414" x1="536.1" y1="40.376" x2="61.1" y2="40.376"/>
	
		<path clip-path="url(#SVGID_2_)" fill="none" stroke="#0000FF" stroke-width="0.12" stroke-linejoin="bevel" stroke-miterlimit="1.414" d="
		M61.1,40.376c-4.8,0-9.5,1.9-12.9,5.3c-3.4,3.5-5.4,8.1-5.4,13"/>
	
		<line clip-path="url(#SVGID_2_)" fill="none" stroke="#0000FF" stroke-width="0.12" stroke-linejoin="bevel" stroke-miterlimit="1.414" x1="42.8" y1="58.676" x2="42.8" y2="533.676"/>
	
		<path clip-path="url(#SVGID_2_)" fill="none" stroke="#0000FF" stroke-width="0.12" stroke-linejoin="bevel" stroke-miterlimit="1.414" d="
		M42.8,533.676c0,4.899,2,9.5,5.4,12.899c3.4,3.5,8.1,5.4,12.9,5.4"/>
	
		<line clip-path="url(#SVGID_2_)" fill="none" stroke="#0000FF" stroke-width="0.12" stroke-linejoin="bevel" stroke-miterlimit="1.414" x1="61.1" y1="570.176" x2="536.1" y2="570.176"/>
	
		<path clip-path="url(#SVGID_2_)" fill="none" stroke="#0000FF" stroke-width="0.12" stroke-linejoin="bevel" stroke-miterlimit="1.414" d="
		M536.1,570.176c4.8,0,9.6-0.9,14-2.7c4.5-1.9,8.5-4.601,11.899-8c3.4-3.3,6.101-7.4,7.9-11.8c1.8-4.4,2.8-9.2,2.8-14"/>
	
		<line clip-path="url(#SVGID_2_)" fill="none" stroke="#0000FF" stroke-width="0.12" stroke-linejoin="bevel" stroke-miterlimit="1.414" x1="572.7" y1="533.676" x2="572.7" y2="58.676"/>
	
		<path clip-path="url(#SVGID_2_)" fill="none" stroke="#0000FF" stroke-width="0.12" stroke-linejoin="bevel" stroke-miterlimit="1.414" d="
		M572.7,58.676c0-4.8-1-9.6-2.8-14c-1.8-4.5-4.5-8.5-7.9-11.9c-3.399-3.4-7.399-6.1-11.899-7.9c-4.4-1.8-9.2-2.8-14-2.8"/>
	
		<line clip-path="url(#SVGID_2_)" fill="none" stroke="#0000FF" stroke-width="0.12" stroke-linejoin="bevel" stroke-miterlimit="1.414" x1="536.1" y1="22.076" x2="61.1" y2="22.076"/>
	
		<path clip-path="url(#SVGID_2_)" fill="none" stroke="#0000FF" stroke-width="0.12" stroke-linejoin="bevel" stroke-miterlimit="1.414" d="
		M61.1,22.076c-4.8,0-9.6,1-14,2.8c-4.4,1.8-8.4,4.5-11.8,7.9c-3.4,3.4-6.1,7.4-8,11.9c-1.8,4.4-2.7,9.2-2.7,14"/>
	
		<line clip-path="url(#SVGID_2_)" fill="none" stroke="#0000FF" stroke-width="0.12" stroke-linejoin="bevel" stroke-miterlimit="1.414" x1="24.6" y1="58.676" x2="24.6" y2="533.676"/>
	
		<path clip-path="url(#SVGID_2_)" fill="none" stroke="#0000FF" stroke-width="0.12" stroke-linejoin="bevel" stroke-miterlimit="1.414" d="
		M24.6,533.676c0,4.8,0.9,9.6,2.7,14c1.9,4.399,4.6,8.5,8,11.8c3.4,3.399,7.4,6.1,11.8,8c4.4,1.8,9.2,2.7,14,2.7"/>
	
		<polyline clip-path="url(#SVGID_2_)" fill="none" stroke="#0000FF" stroke-width="0.12" stroke-linejoin="bevel" stroke-miterlimit="1.414" points="
		24.6,570.176 24.6,22.076 572.7,22.076 572.7,570.176 24.6,570.176 	"/>
	
		<polyline clip-path="url(#SVGID_2_)" fill="none" stroke="#0000FF" stroke-width="0.12" stroke-linejoin="bevel" stroke-miterlimit="1.414" points="
		246.4,96.876 326.4,110.776 307.4,161.976 246.4,96.876 	"/>
	
		<path clip-path="url(#SVGID_2_)" fill="none" stroke="#0000FF" stroke-width="0.12" stroke-linejoin="bevel" stroke-miterlimit="1.414" d="
		M349.5,138.276c-3.399,3.5-6.199,7.6-8,12.1c-1.899,4.6-2.899,9.4-3,14.3"/>
	
		<polyline clip-path="url(#SVGID_2_)" fill="none" stroke="#0000FF" stroke-width="0.12" stroke-linejoin="bevel" stroke-miterlimit="1.414" points="
		338.5,164.676 368.1,164.676 349.5,138.276 	"/>
	
		<path clip-path="url(#SVGID_2_)" fill="none" stroke="#0000FF" stroke-width="0.12" stroke-linejoin="bevel" stroke-miterlimit="1.414" d="
		M327.6,164.676c0.1-6.6,1.5-13.2,4.2-19.3c2.699-6.1,6.6-11.6,11.399-16.1"/>
	
		<polyline clip-path="url(#SVGID_2_)" fill="none" stroke="#0000FF" stroke-width="0.12" stroke-linejoin="bevel" stroke-miterlimit="1.414" points="
		343.2,129.276 335.3,117.876 318,164.676 327.7,164.676 327.6,164.676 	"/>
	
		<line clip-path="url(#SVGID_2_)" fill="none" stroke="#0000FF" stroke-width="0.12" stroke-linejoin="bevel" stroke-miterlimit="1.414" x1="339.9" y1="105.576" x2="351.9" y2="122.676"/>
	
		<path clip-path="url(#SVGID_2_)" fill="none" stroke="#0000FF" stroke-width="0.12" stroke-linejoin="bevel" stroke-miterlimit="1.414" d="
		M351.9,122.676c6-3.5,12.6-5.7,19.5-6.5c6.9-0.8,13.9-0.1,20.5,2c6.7,2,12.8,5.5,18,10.1s9.3,10.3,12.2,16.6
		c2.899,6.3,4.399,13.2,4.399,20.1c0,7-1.399,13.8-4.199,20.2c-2.801,6.3-6.9,12-12,16.7c-5.2,4.7-11.2,8.2-17.801,10.4
		c-6.6,2.1-13.6,2.9-20.5,2.2c-6.899-0.7-13.6-2.9-19.6-6.3c-6-3.5-11.2-8.2-15.3-13.8c-4.101-5.6-7-12-8.4-18.8"/>
	
		<line clip-path="url(#SVGID_2_)" fill="none" stroke="#0000FF" stroke-width="0.12" stroke-linejoin="bevel" stroke-miterlimit="1.414" x1="328.7" y1="175.576" x2="311.4" y2="175.576"/>
	
		<path clip-path="url(#SVGID_2_)" fill="none" stroke="#0000FF" stroke-width="0.12" stroke-linejoin="bevel" stroke-miterlimit="1.414" d="
		M311.4,175.576c-4,0-7.8-1.7-10.4-4.7"/>
	
		<polyline clip-path="url(#SVGID_2_)" fill="none" stroke="#0000FF" stroke-width="0.12" stroke-linejoin="bevel" stroke-miterlimit="1.414" points="
		301,170.876 242.8,108.876 239.5,119.776 	"/>
	
		<path clip-path="url(#SVGID_2_)" fill="none" stroke="#0000FF" stroke-width="0.12" stroke-linejoin="bevel" stroke-miterlimit="1.414" d="
		M239.5,119.776c7.7,3.3,14.4,8.4,19.6,15c5.1,6.6,8.5,14.4,9.9,22.7c1.3,8.2,0.5,16.7-2.3,24.6c-2.9,7.8-7.7,14.9-14,20.4
		c-6.3,5.5-13.8,9.3-22,11.1c-8.2,1.8-16.7,1.5-24.7-0.9s-15.3-6.8-21.2-12.8c-5.8-6-10.1-13.4-12.3-21.5c-2.2-8-2.4-16.5-0.4-24.7
		c2-8.1,5.9-15.6,11.6-21.8c5.7-6.2,12.8-10.8,20.7-13.5c8-2.6,16.4-3.2,24.7-1.7"/>
	
		<line clip-path="url(#SVGID_2_)" fill="none" stroke="#0000FF" stroke-width="0.12" stroke-linejoin="bevel" stroke-miterlimit="1.414" x1="229.1" y1="116.676" x2="243.2" y2="70.376"/>
	
		<path clip-path="url(#SVGID_2_)" fill="none" stroke="#0000FF" stroke-width="0.12" stroke-linejoin="bevel" stroke-miterlimit="1.414" d="
		M243.2,70.376c1-3.4,3.1-6.4,6-8.5c2.8-2.1,6.2-3.2,9.8-3.2"/>
	
		<polyline clip-path="url(#SVGID_2_)" fill="none" stroke="#0000FF" stroke-width="0.12" stroke-linejoin="bevel" stroke-miterlimit="1.414" points="
		259,58.676 278,58.676 278,69.476 259,69.476 	"/>
	
		<path clip-path="url(#SVGID_2_)" fill="none" stroke="#0000FF" stroke-width="0.12" stroke-linejoin="bevel" stroke-miterlimit="1.414" d="
		M259,69.476c-2.5,0-4.7,1.6-5.4,4"/>
	
		<polyline clip-path="url(#SVGID_2_)" fill="none" stroke="#0000FF" stroke-width="0.12" stroke-linejoin="bevel" stroke-miterlimit="1.414" points="
		253.6,73.476 249.6,86.476 330.2,100.376 338.5,77.976 320.2,72.876 	"/>
	
		<path clip-path="url(#SVGID_2_)" fill="none" stroke="#0000FF" stroke-width="0.12" stroke-linejoin="bevel" stroke-miterlimit="1.414" d="
		M320.2,72.876c-1.3-0.4-2-1.7-1.7-3.1c0.301-1.3,1.5-2.2,2.801-2.1"/>
	
		<polyline clip-path="url(#SVGID_2_)" fill="none" stroke="#0000FF" stroke-width="0.12" stroke-linejoin="bevel" stroke-miterlimit="1.414" points="
		321.3,67.676 322.7,67.676 362.3,67.676 362.3,78.376 349.9,78.376 339.9,105.576 	"/>
	
		<path clip-path="url(#SVGID_2_)" fill="none" stroke="#0000FF" stroke-width="0.12" stroke-linejoin="bevel" stroke-miterlimit="1.414" d="
		M381.1,164.376c1.5,2.2,1.7,5,0.5,7.4c-1.2,2.3-3.7,3.8-6.3,3.8"/>
	
		<line clip-path="url(#SVGID_2_)" fill="none" stroke="#0000FF" stroke-width="0.12" stroke-linejoin="bevel" stroke-miterlimit="1.414" x1="375.3" y1="175.576" x2="339.9" y2="175.576"/>
	
		<path clip-path="url(#SVGID_2_)" fill="none" stroke="#0000FF" stroke-width="0.12" stroke-linejoin="bevel" stroke-miterlimit="1.414" d="
		M339.9,175.576c1.4,5.1,3.8,9.9,7.2,14c3.399,4.2,7.5,7.6,12.3,10c4.7,2.4,9.9,3.9,15.2,4.2c5.399,0.4,10.7-0.4,15.7-2.2
		c5-1.9,9.6-4.7,13.399-8.4c3.9-3.7,6.9-8.1,9-13.1c2-4.9,3-10.2,2.9-15.5c-0.101-5.3-1.3-10.6-3.5-15.4c-2.2-4.9-5.4-9.2-9.4-12.7
		c-4-3.6-8.7-6.3-13.7-7.9c-5.1-1.6-10.5-2.2-15.8-1.7s-10.399,2.2-15,4.8"/>
	
		<line clip-path="url(#SVGID_2_)" fill="none" stroke="#0000FF" stroke-width="0.12" stroke-linejoin="bevel" stroke-miterlimit="1.414" x1="358.2" y1="131.676" x2="381.1" y2="164.376"/>
	
		<line clip-path="url(#SVGID_2_)" fill="none" stroke="#0000FF" stroke-width="0.12" stroke-linejoin="bevel" stroke-miterlimit="1.414" x1="236.3" y1="130.176" x2="225.4" y2="165.776"/>
	
		<path clip-path="url(#SVGID_2_)" fill="none" stroke="#0000FF" stroke-width="0.12" stroke-linejoin="bevel" stroke-miterlimit="1.414" d="
		M225.4,165.776c-0.3,1.5-1.2,2.8-2.5,3.6c-1.3,0.8-2.9,1-4.4,0.5c-1.5-0.4-2.7-1.5-3.3-2.8c-0.7-1.4-0.7-3-0.1-4.4"/>
	
		<line clip-path="url(#SVGID_2_)" fill="none" stroke="#0000FF" stroke-width="0.12" stroke-linejoin="bevel" stroke-miterlimit="1.414" x1="215.1" y1="162.676" x2="225.9" y2="127.076"/>
	
		<path clip-path="url(#SVGID_2_)" fill="none" stroke="#0000FF" stroke-width="0.12" stroke-linejoin="bevel" stroke-miterlimit="1.414" d="
		M225.9,127.076c-6.4-0.9-12.9-0.3-19,2c-6.1,2.2-11.5,5.9-15.8,10.8c-4.2,4.8-7.2,10.7-8.6,17c-1.4,6.3-1.2,12.9,0.6,19.1
		c1.8,6.2,5.1,11.9,9.7,16.5c4.5,4.6,10.1,7.9,16.3,9.8c6.2,1.8,12.8,2.1,19.1,0.7c6.3-1.3,12.2-4.2,17.1-8.4
		c4.9-4.3,8.7-9.6,11-15.7c2.3-6,3-12.6,2.1-19s-3.4-12.5-7.3-17.6c-3.8-5.2-8.9-9.4-14.8-12.1"/>
	<path clip-path="url(#SVGID_2_)" fill-rule="evenodd" clip-rule="evenodd" fill="#0000FF" d="M536.1,22.076
		c2.2,0,4.399,0.2,6.7,0.6c2.3,0.4,4.5,1.1,6.8,2c4.5,1.8,8.8,4.5,12.399,8.1c3.601,3.6,6.301,7.8,8.101,12.4
		c0.899,2.2,1.5,4.5,2,6.8c0.399,2.2,0.6,4.4,0.6,6.6v-36.5h-0.1H536.1"/>
	
		<line clip-path="url(#SVGID_2_)" fill="none" stroke="#0000FF" stroke-width="0.12" stroke-linejoin="bevel" stroke-miterlimit="1.414" x1="61.1" y1="551.976" x2="536.1" y2="551.976"/>
	
		<path clip-path="url(#SVGID_2_)" fill="none" stroke="#0000FF" stroke-width="0.12" stroke-linejoin="bevel" stroke-miterlimit="1.414" d="
		M536.1,551.976c4.899,0,9.5-1.9,13-5.4c3.399-3.399,5.3-8,5.3-12.899"/>
	
		<line clip-path="url(#SVGID_2_)" fill="none" stroke="#0000FF" stroke-width="0.12" stroke-linejoin="bevel" stroke-miterlimit="1.414" x1="554.4" y1="533.676" x2="554.4" y2="58.676"/>
	
		<path clip-path="url(#SVGID_2_)" fill="none" stroke="#0000FF" stroke-width="0.12" stroke-linejoin="bevel" stroke-miterlimit="1.414" d="
		M554.4,58.676c0-4.9-1.9-9.5-5.3-13c-3.5-3.4-8.101-5.3-13-5.3"/>
	
		<line clip-path="url(#SVGID_2_)" fill="none" stroke="#0000FF" stroke-width="0.12" stroke-linejoin="bevel" stroke-miterlimit="1.414" x1="536.1" y1="40.376" x2="61.1" y2="40.376"/>
	
		<path clip-path="url(#SVGID_2_)" fill="none" stroke="#0000FF" stroke-width="0.12" stroke-linejoin="bevel" stroke-miterlimit="1.414" d="
		M61.1,40.376c-4.8,0-9.5,1.9-12.9,5.3c-3.4,3.5-5.4,8.1-5.4,13"/>
	
		<line clip-path="url(#SVGID_2_)" fill="none" stroke="#0000FF" stroke-width="0.12" stroke-linejoin="bevel" stroke-miterlimit="1.414" x1="42.8" y1="58.676" x2="42.8" y2="533.676"/>
	
		<path clip-path="url(#SVGID_2_)" fill="none" stroke="#0000FF" stroke-width="0.12" stroke-linejoin="bevel" stroke-miterlimit="1.414" d="
		M42.8,533.676c0,4.899,2,9.5,5.4,12.899c3.4,3.5,8.1,5.4,12.9,5.4"/>
	
		<path clip-path="url(#SVGID_2_)" fill="none" stroke="#0000FF" stroke-width="0.12" stroke-linejoin="bevel" stroke-miterlimit="1.414" d="
		M351.9,122.676c6-3.5,12.6-5.7,19.5-6.5c6.9-0.8,13.9-0.1,20.5,2c6.7,2,12.8,5.5,18,10.1s9.3,10.3,12.2,16.6
		c2.899,6.3,4.399,13.2,4.399,20.1c0,7-1.399,13.8-4.199,20.2c-2.801,6.3-6.9,12-12,16.7c-5.2,4.7-11.2,8.2-17.801,10.4
		c-6.6,2.1-13.6,2.9-20.5,2.2c-6.899-0.7-13.6-2.9-19.6-6.3c-6-3.5-11.2-8.2-15.3-13.8c-4.101-5.6-7-12-8.4-18.8"/>
	
		<line clip-path="url(#SVGID_2_)" fill="none" stroke="#0000FF" stroke-width="0.12" stroke-linejoin="bevel" stroke-miterlimit="1.414" x1="328.7" y1="175.576" x2="311.4" y2="175.576"/>
	
		<path clip-path="url(#SVGID_2_)" fill="none" stroke="#0000FF" stroke-width="0.12" stroke-linejoin="bevel" stroke-miterlimit="1.414" d="
		M311.4,175.576c-4,0-7.8-1.7-10.4-4.7"/>
	
		<polyline clip-path="url(#SVGID_2_)" fill="none" stroke="#0000FF" stroke-width="0.12" stroke-linejoin="bevel" stroke-miterlimit="1.414" points="
		301,170.876 242.8,108.876 239.5,119.776 	"/>
	
		<path clip-path="url(#SVGID_2_)" fill="none" stroke="#0000FF" stroke-width="0.12" stroke-linejoin="bevel" stroke-miterlimit="1.414" d="
		M239.5,119.776c7.7,3.3,14.4,8.4,19.6,15c5.1,6.6,8.5,14.4,9.9,22.7c1.3,8.2,0.5,16.7-2.3,24.6c-2.9,7.8-7.7,14.9-14,20.4
		c-6.3,5.5-13.8,9.3-22,11.1c-8.2,1.8-16.7,1.5-24.7-0.9s-15.3-6.8-21.2-12.8c-5.8-6-10.1-13.4-12.3-21.5c-2.2-8-2.4-16.5-0.4-24.7
		c2-8.1,5.9-15.6,11.6-21.8c5.7-6.2,12.8-10.8,20.7-13.5c8-2.6,16.4-3.2,24.7-1.7"/>
	
		<line clip-path="url(#SVGID_2_)" fill="none" stroke="#0000FF" stroke-width="0.12" stroke-linejoin="bevel" stroke-miterlimit="1.414" x1="229.1" y1="116.676" x2="243.2" y2="70.376"/>
	
		<path clip-path="url(#SVGID_2_)" fill="none" stroke="#0000FF" stroke-width="0.12" stroke-linejoin="bevel" stroke-miterlimit="1.414" d="
		M243.2,70.376c1-3.4,3.1-6.4,6-8.5c2.8-2.1,6.2-3.2,9.8-3.2"/>
	
		<polyline clip-path="url(#SVGID_2_)" fill="none" stroke="#0000FF" stroke-width="0.12" stroke-linejoin="bevel" stroke-miterlimit="1.414" points="
		259,58.676 278,58.676 278,69.476 259,69.476 	"/>
	
		<path clip-path="url(#SVGID_2_)" fill="none" stroke="#0000FF" stroke-width="0.12" stroke-linejoin="bevel" stroke-miterlimit="1.414" d="
		M259,69.476c-2.5,0-4.7,1.6-5.4,4"/>
	
		<polyline clip-path="url(#SVGID_2_)" fill="none" stroke="#0000FF" stroke-width="0.12" stroke-linejoin="bevel" stroke-miterlimit="1.414" points="
		253.6,73.476 249.6,86.476 330.2,100.376 338.5,77.976 320.2,72.876 	"/>
	
		<path clip-path="url(#SVGID_2_)" fill="none" stroke="#0000FF" stroke-width="0.12" stroke-linejoin="bevel" stroke-miterlimit="1.414" d="
		M320.2,72.876c-1.3-0.4-2-1.7-1.7-3.1c0.301-1.3,1.5-2.2,2.801-2.1"/>
	
		<polyline clip-path="url(#SVGID_2_)" fill="none" stroke="#0000FF" stroke-width="0.12" stroke-linejoin="bevel" stroke-miterlimit="1.414" points="
		321.3,67.676 322.7,67.676 362.3,67.676 362.3,78.376 349.9,78.376 339.9,105.576 	"/>
	
		<line clip-path="url(#SVGID_2_)" fill="none" stroke="#0000FF" stroke-width="0.12" stroke-linejoin="bevel" stroke-miterlimit="1.414" x1="339.9" y1="105.576" x2="351.9" y2="122.676"/>
	<path clip-path="url(#SVGID_2_)" fill-rule="evenodd" clip-rule="evenodd" fill="#0000FF" d="M572.7,533.676
		c0,2.199-0.2,4.399-0.6,6.6c-0.4,2.3-1.101,4.6-2,6.8c-1.8,4.601-4.5,8.8-8.101,12.4c-3.6,3.6-7.8,6.399-12.399,8.2
		c-2.2,0.899-4.5,1.5-6.7,1.899c-2.3,0.4-4.5,0.601-6.7,0.601h36.5V533.676"/>
	<path clip-path="url(#SVGID_2_)" fill-rule="evenodd" clip-rule="evenodd" fill="#0000FF" d="M61.1,570.176
		c-2.2,0-4.4-0.101-6.6-0.601c-2.3-0.399-4.6-1-6.8-1.899c-4.6-1.801-8.8-4.5-12.4-8.101c-3.6-3.6-6.4-7.899-8.2-12.399
		c-0.9-2.2-1.5-4.5-1.9-6.801c-0.4-2.3-0.6-4.5-0.6-6.6v36.4H61.1"/>
	
		<path clip-path="url(#SVGID_2_)" fill="none" stroke="#0000FF" stroke-width="0.12" stroke-linejoin="bevel" stroke-miterlimit="1.414" d="
		M536.1,570.176c4.8,0,9.6-0.9,14-2.7c4.5-1.9,8.5-4.601,11.899-8c3.4-3.3,6.101-7.4,7.9-11.8c1.8-4.4,2.8-9.2,2.8-14"/>
	
		<line clip-path="url(#SVGID_2_)" fill="none" stroke="#0000FF" stroke-width="0.12" stroke-linejoin="bevel" stroke-miterlimit="1.414" x1="572.7" y1="533.676" x2="572.7" y2="58.676"/>
	
		<path clip-path="url(#SVGID_2_)" fill="none" stroke="#0000FF" stroke-width="0.12" stroke-linejoin="bevel" stroke-miterlimit="1.414" d="
		M572.7,58.676c0-4.8-1-9.6-2.8-14c-1.8-4.5-4.5-8.5-7.9-11.9c-3.399-3.4-7.399-6.1-11.899-7.9c-4.4-1.8-9.2-2.8-14-2.8"/>
	
		<line clip-path="url(#SVGID_2_)" fill="none" stroke="#0000FF" stroke-width="0.12" stroke-linejoin="bevel" stroke-miterlimit="1.414" x1="536.1" y1="22.076" x2="61.1" y2="22.076"/>
	
		<path clip-path="url(#SVGID_2_)" fill="none" stroke="#0000FF" stroke-width="0.12" stroke-linejoin="bevel" stroke-miterlimit="1.414" d="
		M61.1,22.076c-4.8,0-9.6,1-14,2.8c-4.4,1.8-8.4,4.5-11.8,7.9c-3.4,3.4-6.1,7.4-8,11.9c-1.8,4.4-2.7,9.2-2.7,14"/>
	
		<line clip-path="url(#SVGID_2_)" fill="none" stroke="#0000FF" stroke-width="0.12" stroke-linejoin="bevel" stroke-miterlimit="1.414" x1="24.6" y1="58.676" x2="24.6" y2="533.676"/>
	
		<path clip-path="url(#SVGID_2_)" fill="none" stroke="#0000FF" stroke-width="0.12" stroke-linejoin="bevel" stroke-miterlimit="1.414" d="
		M24.6,533.676c0,4.8,0.9,9.6,2.7,14c1.9,4.399,4.6,8.5,8,11.8c3.4,3.399,7.4,6.1,11.8,8c4.4,1.8,9.2,2.7,14,2.7"/>
	
		<line clip-path="url(#SVGID_2_)" fill="none" stroke="#0000FF" stroke-width="0.12" stroke-linejoin="bevel" stroke-miterlimit="1.414" x1="61.1" y1="570.176" x2="536.1" y2="570.176"/>
	
		<line clip-path="url(#SVGID_2_)" fill="none" stroke="#0000FF" stroke-width="0.12" stroke-linejoin="bevel" stroke-miterlimit="1.414" x1="42.8" y1="533.676" x2="42.8" y2="58.676"/>
	
		<path clip-path="url(#SVGID_2_)" fill="none" stroke="#0000FF" stroke-width="0.12" stroke-linejoin="bevel" stroke-miterlimit="1.414" d="
		M42.8,58.676c0-4.9,2-9.5,5.4-13c3.4-3.4,8.1-5.3,12.9-5.3"/>
	
		<line clip-path="url(#SVGID_2_)" fill="none" stroke="#0000FF" stroke-width="0.12" stroke-linejoin="bevel" stroke-miterlimit="1.414" x1="61.1" y1="40.376" x2="536.1" y2="40.376"/>
	
		<path clip-path="url(#SVGID_2_)" fill="none" stroke="#0000FF" stroke-width="0.12" stroke-linejoin="bevel" stroke-miterlimit="1.414" d="
		M536.1,40.376c4.899,0,9.5,1.9,13,5.3c3.399,3.5,5.3,8.1,5.3,13"/>
	
		<line clip-path="url(#SVGID_2_)" fill="none" stroke="#0000FF" stroke-width="0.12" stroke-linejoin="bevel" stroke-miterlimit="1.414" x1="554.4" y1="58.676" x2="554.4" y2="533.676"/>
	
		<path clip-path="url(#SVGID_2_)" fill="none" stroke="#0000FF" stroke-width="0.12" stroke-linejoin="bevel" stroke-miterlimit="1.414" d="
		M554.4,533.676c0,4.899-1.9,9.5-5.3,12.899c-3.5,3.5-8.101,5.4-13,5.4"/>
	
		<line clip-path="url(#SVGID_2_)" fill="none" stroke="#0000FF" stroke-width="0.12" stroke-linejoin="bevel" stroke-miterlimit="1.414" x1="536.1" y1="551.976" x2="61.1" y2="551.976"/>
	
		<path clip-path="url(#SVGID_2_)" fill="none" stroke="#0000FF" stroke-width="0.12" stroke-linejoin="bevel" stroke-miterlimit="1.414" d="
		M61.1,551.976c-4.8,0-9.5-1.9-12.9-5.4c-3.4-3.399-5.4-8-5.4-12.899"/>
	
		<path clip-path="url(#SVGID_2_)" fill="none" stroke="#F0F0F0" stroke-width="0.12" stroke-linejoin="bevel" stroke-miterlimit="1.414" d="
		M24.6,533.676c0,4.8,0.9,9.6,2.7,14c1.9,4.399,4.6,8.5,8,11.8c3.4,3.399,7.4,6.1,11.8,8c4.4,1.8,9.2,2.7,14,2.7"/>
	
		<line clip-path="url(#SVGID_2_)" fill="none" stroke="#F0F0F0" stroke-width="0.12" stroke-linejoin="bevel" stroke-miterlimit="1.414" x1="61.1" y1="570.176" x2="536.1" y2="570.176"/>
	
		<path clip-path="url(#SVGID_2_)" fill="none" stroke="#F0F0F0" stroke-width="0.12" stroke-linejoin="bevel" stroke-miterlimit="1.414" d="
		M536.1,570.176c4.8,0,9.6-0.9,14-2.7c4.5-1.9,8.5-4.601,11.899-8c3.4-3.3,6.101-7.4,7.9-11.8c1.8-4.4,2.8-9.2,2.8-14"/>
	
		<line clip-path="url(#SVGID_2_)" fill="none" stroke="#F0F0F0" stroke-width="0.12" stroke-linejoin="bevel" stroke-miterlimit="1.414" x1="572.7" y1="533.676" x2="572.7" y2="58.676"/>
	
		<path clip-path="url(#SVGID_2_)" fill="none" stroke="#F0F0F0" stroke-width="0.12" stroke-linejoin="bevel" stroke-miterlimit="1.414" d="
		M572.7,58.676c0-4.8-1-9.6-2.8-14c-1.8-4.5-4.5-8.5-7.9-11.9c-3.399-3.4-7.399-6.1-11.899-7.9c-4.4-1.8-9.2-2.8-14-2.8"/>
	
		<line clip-path="url(#SVGID_2_)" fill="none" stroke="#F0F0F0" stroke-width="0.12" stroke-linejoin="bevel" stroke-miterlimit="1.414" x1="536.1" y1="22.076" x2="61.1" y2="22.076"/>
	
		<path clip-path="url(#SVGID_2_)" fill="none" stroke="#F0F0F0" stroke-width="0.12" stroke-linejoin="bevel" stroke-miterlimit="1.414" d="
		M61.1,22.076c-4.8,0-9.6,1-14,2.8c-4.4,1.8-8.4,4.5-11.8,7.9c-3.4,3.4-6.1,7.4-8,11.9c-1.8,4.4-2.7,9.2-2.7,14"/>
	
		<line clip-path="url(#SVGID_2_)" fill="none" stroke="#F0F0F0" stroke-width="0.12" stroke-linejoin="bevel" stroke-miterlimit="1.414" x1="24.6" y1="58.676" x2="24.6" y2="533.676"/>
	
		<line clip-path="url(#SVGID_2_)" fill="none" stroke="#F0F0F0" stroke-width="0.12" stroke-linejoin="bevel" stroke-miterlimit="1.414" x1="42.8" y1="533.676" x2="42.8" y2="58.676"/>
	
		<path clip-path="url(#SVGID_2_)" fill="none" stroke="#F0F0F0" stroke-width="0.12" stroke-linejoin="bevel" stroke-miterlimit="1.414" d="
		M42.8,58.676c0-4.9,2-9.5,5.4-13c3.4-3.4,8.1-5.3,12.9-5.3"/>
	
		<line clip-path="url(#SVGID_2_)" fill="none" stroke="#F0F0F0" stroke-width="0.12" stroke-linejoin="bevel" stroke-miterlimit="1.414" x1="61.1" y1="40.376" x2="536.1" y2="40.376"/>
	
		<path clip-path="url(#SVGID_2_)" fill="none" stroke="#F0F0F0" stroke-width="0.12" stroke-linejoin="bevel" stroke-miterlimit="1.414" d="
		M536.1,40.376c4.899,0,9.5,1.9,13,5.3c3.399,3.5,5.3,8.1,5.3,13"/>
	
		<line clip-path="url(#SVGID_2_)" fill="none" stroke="#F0F0F0" stroke-width="0.12" stroke-linejoin="bevel" stroke-miterlimit="1.414" x1="554.4" y1="58.676" x2="554.4" y2="533.676"/>
	
		<path clip-path="url(#SVGID_2_)" fill="none" stroke="#F0F0F0" stroke-width="0.12" stroke-linejoin="bevel" stroke-miterlimit="1.414" d="
		M554.4,533.676c0,4.899-1.9,9.5-5.3,12.899c-3.5,3.5-8.101,5.4-13,5.4"/>
	
		<line clip-path="url(#SVGID_2_)" fill="none" stroke="#F0F0F0" stroke-width="0.12" stroke-linejoin="bevel" stroke-miterlimit="1.414" x1="536.1" y1="551.976" x2="61.1" y2="551.976"/>
	
		<path clip-path="url(#SVGID_2_)" fill="none" stroke="#F0F0F0" stroke-width="0.12" stroke-linejoin="bevel" stroke-miterlimit="1.414" d="
		M61.1,551.976c-4.8,0-9.5-1.9-12.9-5.4c-3.4-3.399-5.4-8-5.4-12.899"/>
	
		<line clip-path="url(#SVGID_2_)" fill="none" stroke="#FF0000" stroke-width="0.12" stroke-linejoin="bevel" stroke-miterlimit="1.414" x1="359" y1="277.876" x2="240.3" y2="277.876"/>
	
		<line clip-path="url(#SVGID_2_)" fill="none" stroke="#FF0000" stroke-width="0.12" stroke-linejoin="bevel" stroke-miterlimit="1.414" x1="240.3" y1="277.876" x2="240.3" y2="323.476"/>
	
		<line clip-path="url(#SVGID_2_)" fill="none" stroke="#FF0000" stroke-width="0.12" stroke-linejoin="bevel" stroke-miterlimit="1.414" x1="240.3" y1="323.476" x2="359" y2="323.476"/>
	
		<line clip-path="url(#SVGID_2_)" fill="none" stroke="#FF0000" stroke-width="0.12" stroke-linejoin="bevel" stroke-miterlimit="1.414" x1="359" y1="323.476" x2="359" y2="277.876"/>
	
		<line clip-path="url(#SVGID_2_)" fill="none" stroke="#F0F0F0" stroke-width="0.12" stroke-linejoin="bevel" stroke-miterlimit="1.414" x1="280.4" y1="515.375" x2="298.6" y2="515.375"/>
	
		<line clip-path="url(#SVGID_2_)" fill="none" stroke="#F0F0F0" stroke-width="0.12" stroke-linejoin="bevel" stroke-miterlimit="1.414" x1="298.6" y1="515.375" x2="316.9" y2="515.375"/>
	
		<line clip-path="url(#SVGID_2_)" fill="none" stroke="#F0F0F0" stroke-width="0.12" stroke-linejoin="bevel" stroke-miterlimit="1.414" x1="316.9" y1="515.375" x2="316.9" y2="437.676"/>
	
		<line clip-path="url(#SVGID_2_)" fill="none" stroke="#F0F0F0" stroke-width="0.12" stroke-linejoin="bevel" stroke-miterlimit="1.414" x1="316.9" y1="437.676" x2="444.8" y2="437.676"/>
	
		<line clip-path="url(#SVGID_2_)" fill="none" stroke="#F0F0F0" stroke-width="0.12" stroke-linejoin="bevel" stroke-miterlimit="1.414" x1="444.8" y1="437.676" x2="444.8" y2="410.276"/>
	
		<line clip-path="url(#SVGID_2_)" fill="none" stroke="#F0F0F0" stroke-width="0.12" stroke-linejoin="bevel" stroke-miterlimit="1.414" x1="444.8" y1="410.276" x2="316.9" y2="410.276"/>
	
		<line clip-path="url(#SVGID_2_)" fill="none" stroke="#F0F0F0" stroke-width="0.12" stroke-linejoin="bevel" stroke-miterlimit="1.414" x1="316.9" y1="410.276" x2="316.9" y2="332.676"/>
	
		<line clip-path="url(#SVGID_2_)" fill="none" stroke="#F0F0F0" stroke-width="0.12" stroke-linejoin="bevel" stroke-miterlimit="1.414" x1="316.9" y1="332.676" x2="358" y2="332.676"/>
	
		<line clip-path="url(#SVGID_2_)" fill="none" stroke="#F0F0F0" stroke-width="0.12" stroke-linejoin="bevel" stroke-miterlimit="1.414" x1="358" y1="332.676" x2="367.1" y2="332.676"/>
	
		<line clip-path="url(#SVGID_2_)" fill="none" stroke="#F0F0F0" stroke-width="0.12" stroke-linejoin="bevel" stroke-miterlimit="1.414" x1="367.1" y1="332.676" x2="367.1" y2="323.576"/>
	
		<line clip-path="url(#SVGID_2_)" fill="none" stroke="#F0F0F0" stroke-width="0.12" stroke-linejoin="bevel" stroke-miterlimit="1.414" x1="367.1" y1="323.576" x2="367.1" y2="277.876"/>
	
		<line clip-path="url(#SVGID_2_)" fill="none" stroke="#F0F0F0" stroke-width="0.12" stroke-linejoin="bevel" stroke-miterlimit="1.414" x1="367.1" y1="277.876" x2="367.1" y2="268.676"/>
	
		<line clip-path="url(#SVGID_2_)" fill="none" stroke="#F0F0F0" stroke-width="0.12" stroke-linejoin="bevel" stroke-miterlimit="1.414" x1="367.1" y1="268.676" x2="358" y2="268.676"/>
	
		<line clip-path="url(#SVGID_2_)" fill="none" stroke="#F0F0F0" stroke-width="0.12" stroke-linejoin="bevel" stroke-miterlimit="1.414" x1="358" y1="268.676" x2="307.8" y2="268.676"/>
	
		<line clip-path="url(#SVGID_2_)" fill="none" stroke="#F0F0F0" stroke-width="0.12" stroke-linejoin="bevel" stroke-miterlimit="1.414" x1="307.8" y1="268.676" x2="307.8" y2="232.176"/>
	
		<line clip-path="url(#SVGID_2_)" fill="none" stroke="#F0F0F0" stroke-width="0.12" stroke-linejoin="bevel" stroke-miterlimit="1.414" x1="307.8" y1="232.176" x2="289.5" y2="232.176"/>
	
		<line clip-path="url(#SVGID_2_)" fill="none" stroke="#F0F0F0" stroke-width="0.12" stroke-linejoin="bevel" stroke-miterlimit="1.414" x1="289.5" y1="232.176" x2="289.5" y2="268.676"/>
	
		<line clip-path="url(#SVGID_2_)" fill="none" stroke="#F0F0F0" stroke-width="0.12" stroke-linejoin="bevel" stroke-miterlimit="1.414" x1="289.5" y1="268.676" x2="230.1" y2="268.676"/>
	
		<line clip-path="url(#SVGID_2_)" fill="none" stroke="#F0F0F0" stroke-width="0.12" stroke-linejoin="bevel" stroke-miterlimit="1.414" x1="230.1" y1="268.676" x2="230.1" y2="277.876"/>
	
		<line clip-path="url(#SVGID_2_)" fill="none" stroke="#F0F0F0" stroke-width="0.12" stroke-linejoin="bevel" stroke-miterlimit="1.414" x1="230.1" y1="277.876" x2="230.1" y2="332.676"/>
	
		<line clip-path="url(#SVGID_2_)" fill="none" stroke="#F0F0F0" stroke-width="0.12" stroke-linejoin="bevel" stroke-miterlimit="1.414" x1="230.1" y1="332.676" x2="239.2" y2="332.676"/>
	
		<line clip-path="url(#SVGID_2_)" fill="none" stroke="#F0F0F0" stroke-width="0.12" stroke-linejoin="bevel" stroke-miterlimit="1.414" x1="239.2" y1="332.676" x2="280.4" y2="332.676"/>
	
		<line clip-path="url(#SVGID_2_)" fill="none" stroke="#F0F0F0" stroke-width="0.12" stroke-linejoin="bevel" stroke-miterlimit="1.414" x1="280.4" y1="332.676" x2="280.4" y2="515.375"/>
	
		<line clip-path="url(#SVGID_2_)" fill="none" stroke="#0000FF" stroke-width="0.12" stroke-linejoin="bevel" stroke-miterlimit="1.414" x1="280.4" y1="332.676" x2="239.2" y2="332.676"/>
	
		<line clip-path="url(#SVGID_2_)" fill="none" stroke="#0000FF" stroke-width="0.12" stroke-linejoin="bevel" stroke-miterlimit="1.414" x1="239.2" y1="332.676" x2="230.1" y2="332.676"/>
	
		<line clip-path="url(#SVGID_2_)" fill="none" stroke="#0000FF" stroke-width="0.12" stroke-linejoin="bevel" stroke-miterlimit="1.414" x1="230.1" y1="332.676" x2="230.1" y2="277.876"/>
	
		<line clip-path="url(#SVGID_2_)" fill="none" stroke="#0000FF" stroke-width="0.12" stroke-linejoin="bevel" stroke-miterlimit="1.414" x1="230.1" y1="277.876" x2="230.1" y2="268.676"/>
	
		<line clip-path="url(#SVGID_2_)" fill="none" stroke="#0000FF" stroke-width="0.12" stroke-linejoin="bevel" stroke-miterlimit="1.414" x1="230.1" y1="268.676" x2="289.5" y2="268.676"/>
	
		<line clip-path="url(#SVGID_2_)" fill="none" stroke="#0000FF" stroke-width="0.12" stroke-linejoin="bevel" stroke-miterlimit="1.414" x1="289.5" y1="268.676" x2="289.5" y2="232.176"/>
	
		<line clip-path="url(#SVGID_2_)" fill="none" stroke="#0000FF" stroke-width="0.12" stroke-linejoin="bevel" stroke-miterlimit="1.414" x1="289.5" y1="232.176" x2="307.8" y2="232.176"/>
	
		<line clip-path="url(#SVGID_2_)" fill="none" stroke="#0000FF" stroke-width="0.12" stroke-linejoin="bevel" stroke-miterlimit="1.414" x1="307.8" y1="232.176" x2="307.8" y2="268.676"/>
	
		<line clip-path="url(#SVGID_2_)" fill="none" stroke="#0000FF" stroke-width="0.12" stroke-linejoin="bevel" stroke-miterlimit="1.414" x1="307.8" y1="268.676" x2="358" y2="268.676"/>
	
		<line clip-path="url(#SVGID_2_)" fill="none" stroke="#0000FF" stroke-width="0.12" stroke-linejoin="bevel" stroke-miterlimit="1.414" x1="358" y1="268.676" x2="367.1" y2="268.676"/>
	
		<line clip-path="url(#SVGID_2_)" fill="none" stroke="#0000FF" stroke-width="0.12" stroke-linejoin="bevel" stroke-miterlimit="1.414" x1="367.1" y1="268.676" x2="367.1" y2="277.876"/>
	
		<line clip-path="url(#SVGID_2_)" fill="none" stroke="#0000FF" stroke-width="0.12" stroke-linejoin="bevel" stroke-miterlimit="1.414" x1="367.1" y1="277.876" x2="367.1" y2="323.576"/>
	
		<line clip-path="url(#SVGID_2_)" fill="none" stroke="#0000FF" stroke-width="0.12" stroke-linejoin="bevel" stroke-miterlimit="1.414" x1="367.1" y1="323.576" x2="367.1" y2="332.676"/>
	
		<line clip-path="url(#SVGID_2_)" fill="none" stroke="#0000FF" stroke-width="0.12" stroke-linejoin="bevel" stroke-miterlimit="1.414" x1="367.1" y1="332.676" x2="358" y2="332.676"/>
	
		<line clip-path="url(#SVGID_2_)" fill="none" stroke="#0000FF" stroke-width="0.12" stroke-linejoin="bevel" stroke-miterlimit="1.414" x1="358" y1="332.676" x2="316.9" y2="332.676"/>
	
		<line clip-path="url(#SVGID_2_)" fill="none" stroke="#0000FF" stroke-width="0.12" stroke-linejoin="bevel" stroke-miterlimit="1.414" x1="316.9" y1="332.676" x2="316.9" y2="410.276"/>
	
		<line clip-path="url(#SVGID_2_)" fill="none" stroke="#0000FF" stroke-width="0.12" stroke-linejoin="bevel" stroke-miterlimit="1.414" x1="316.9" y1="410.276" x2="444.8" y2="410.276"/>
	
		<line clip-path="url(#SVGID_2_)" fill="none" stroke="#0000FF" stroke-width="0.12" stroke-linejoin="bevel" stroke-miterlimit="1.414" x1="444.8" y1="410.276" x2="444.8" y2="437.676"/>
	
		<line clip-path="url(#SVGID_2_)" fill="none" stroke="#0000FF" stroke-width="0.12" stroke-linejoin="bevel" stroke-miterlimit="1.414" x1="444.8" y1="437.676" x2="316.9" y2="437.676"/>
	
		<line clip-path="url(#SVGID_2_)" fill="none" stroke="#0000FF" stroke-width="0.12" stroke-linejoin="bevel" stroke-miterlimit="1.414" x1="316.9" y1="437.676" x2="316.9" y2="515.375"/>
	
		<line clip-path="url(#SVGID_2_)" fill="none" stroke="#0000FF" stroke-width="0.12" stroke-linejoin="bevel" stroke-miterlimit="1.414" x1="316.9" y1="515.375" x2="298.6" y2="515.375"/>
	
		<line clip-path="url(#SVGID_2_)" fill="none" stroke="#0000FF" stroke-width="0.12" stroke-linejoin="bevel" stroke-miterlimit="1.414" x1="298.6" y1="515.375" x2="280.4" y2="515.375"/>
	
		<line clip-path="url(#SVGID_2_)" fill="none" stroke="#0000FF" stroke-width="0.12" stroke-linejoin="bevel" stroke-miterlimit="1.414" x1="280.4" y1="515.375" x2="280.4" y2="332.676"/>
	
		<line clip-path="url(#SVGID_2_)" fill="none" stroke="#F0F0F0" stroke-width="0.12" stroke-linejoin="bevel" stroke-miterlimit="1.414" x1="359" y1="323.476" x2="240.3" y2="323.476"/>
	
		<line clip-path="url(#SVGID_2_)" fill="none" stroke="#F0F0F0" stroke-width="0.12" stroke-linejoin="bevel" stroke-miterlimit="1.414" x1="240.3" y1="323.476" x2="240.3" y2="277.876"/>
	
		<line clip-path="url(#SVGID_2_)" fill="none" stroke="#F0F0F0" stroke-width="0.12" stroke-linejoin="bevel" stroke-miterlimit="1.414" x1="240.3" y1="277.876" x2="359" y2="277.876"/>
	
		<line clip-path="url(#SVGID_2_)" fill="none" stroke="#F0F0F0" stroke-width="0.12" stroke-linejoin="bevel" stroke-miterlimit="1.414" x1="359" y1="277.876" x2="359" y2="323.476"/>
	
		<line clip-path="url(#SVGID_2_)" fill="none" stroke="#0000FF" stroke-width="0.12" stroke-linejoin="bevel" stroke-miterlimit="1.414" x1="280.4" y1="332.676" x2="239.2" y2="332.676"/>
	
		<line clip-path="url(#SVGID_2_)" fill="none" stroke="#0000FF" stroke-width="0.12" stroke-linejoin="bevel" stroke-miterlimit="1.414" x1="239.2" y1="332.676" x2="230.1" y2="332.676"/>
	
		<line clip-path="url(#SVGID_2_)" fill="none" stroke="#0000FF" stroke-width="0.12" stroke-linejoin="bevel" stroke-miterlimit="1.414" x1="230.1" y1="332.676" x2="230.1" y2="277.876"/>
	
		<line clip-path="url(#SVGID_2_)" fill="none" stroke="#0000FF" stroke-width="0.12" stroke-linejoin="bevel" stroke-miterlimit="1.414" x1="230.1" y1="277.876" x2="230.1" y2="268.676"/>
	
		<line clip-path="url(#SVGID_2_)" fill="none" stroke="#0000FF" stroke-width="0.12" stroke-linejoin="bevel" stroke-miterlimit="1.414" x1="230.1" y1="268.676" x2="289.5" y2="268.676"/>
	
		<line clip-path="url(#SVGID_2_)" fill="none" stroke="#0000FF" stroke-width="0.12" stroke-linejoin="bevel" stroke-miterlimit="1.414" x1="289.5" y1="268.676" x2="289.5" y2="232.176"/>
	
		<line clip-path="url(#SVGID_2_)" fill="none" stroke="#0000FF" stroke-width="0.12" stroke-linejoin="bevel" stroke-miterlimit="1.414" x1="289.5" y1="232.176" x2="307.8" y2="232.176"/>
	
		<line clip-path="url(#SVGID_2_)" fill="none" stroke="#0000FF" stroke-width="0.12" stroke-linejoin="bevel" stroke-miterlimit="1.414" x1="307.8" y1="232.176" x2="307.8" y2="268.676"/>
	
		<line clip-path="url(#SVGID_2_)" fill="none" stroke="#0000FF" stroke-width="0.12" stroke-linejoin="bevel" stroke-miterlimit="1.414" x1="307.8" y1="268.676" x2="358" y2="268.676"/>
	
		<line clip-path="url(#SVGID_2_)" fill="none" stroke="#0000FF" stroke-width="0.12" stroke-linejoin="bevel" stroke-miterlimit="1.414" x1="358" y1="268.676" x2="367.1" y2="268.676"/>
	
		<line clip-path="url(#SVGID_2_)" fill="none" stroke="#0000FF" stroke-width="0.12" stroke-linejoin="bevel" stroke-miterlimit="1.414" x1="367.1" y1="268.676" x2="367.1" y2="277.876"/>
	
		<line clip-path="url(#SVGID_2_)" fill="none" stroke="#0000FF" stroke-width="0.12" stroke-linejoin="bevel" stroke-miterlimit="1.414" x1="367.1" y1="277.876" x2="367.1" y2="323.576"/>
	
		<line clip-path="url(#SVGID_2_)" fill="none" stroke="#0000FF" stroke-width="0.12" stroke-linejoin="bevel" stroke-miterlimit="1.414" x1="367.1" y1="323.576" x2="367.1" y2="332.676"/>
	
		<line clip-path="url(#SVGID_2_)" fill="none" stroke="#0000FF" stroke-width="0.12" stroke-linejoin="bevel" stroke-miterlimit="1.414" x1="367.1" y1="332.676" x2="358" y2="332.676"/>
	
		<line clip-path="url(#SVGID_2_)" fill="none" stroke="#0000FF" stroke-width="0.12" stroke-linejoin="bevel" stroke-miterlimit="1.414" x1="358" y1="332.676" x2="316.9" y2="332.676"/>
	
		<line clip-path="url(#SVGID_2_)" fill="none" stroke="#0000FF" stroke-width="0.12" stroke-linejoin="bevel" stroke-miterlimit="1.414" x1="316.9" y1="332.676" x2="316.9" y2="410.276"/>
	
		<line clip-path="url(#SVGID_2_)" fill="none" stroke="#0000FF" stroke-width="0.12" stroke-linejoin="bevel" stroke-miterlimit="1.414" x1="316.9" y1="410.276" x2="444.8" y2="410.276"/>
	
		<line clip-path="url(#SVGID_2_)" fill="none" stroke="#0000FF" stroke-width="0.12" stroke-linejoin="bevel" stroke-miterlimit="1.414" x1="444.8" y1="410.276" x2="444.8" y2="437.676"/>
	
		<line clip-path="url(#SVGID_2_)" fill="none" stroke="#0000FF" stroke-width="0.12" stroke-linejoin="bevel" stroke-miterlimit="1.414" x1="444.8" y1="437.676" x2="316.9" y2="437.676"/>
	
		<line clip-path="url(#SVGID_2_)" fill="none" stroke="#0000FF" stroke-width="0.12" stroke-linejoin="bevel" stroke-miterlimit="1.414" x1="316.9" y1="437.676" x2="316.9" y2="515.375"/>
	
		<line clip-path="url(#SVGID_2_)" fill="none" stroke="#0000FF" stroke-width="0.12" stroke-linejoin="bevel" stroke-miterlimit="1.414" x1="316.9" y1="515.375" x2="298.6" y2="515.375"/>
	
		<line clip-path="url(#SVGID_2_)" fill="none" stroke="#0000FF" stroke-width="0.12" stroke-linejoin="bevel" stroke-miterlimit="1.414" x1="298.6" y1="515.375" x2="280.4" y2="515.375"/>
	
		<line clip-path="url(#SVGID_2_)" fill="none" stroke="#0000FF" stroke-width="0.12" stroke-linejoin="bevel" stroke-miterlimit="1.414" x1="280.4" y1="515.375" x2="280.4" y2="332.676"/>
	<path clip-path="url(#SVGID_2_)" fill-rule="evenodd" clip-rule="evenodd" fill="#0000FF" d="M24.6,58.676c0-2.2,0.1-4.4,0.6-6.7
		c0.4-2.2,1-4.5,1.9-6.8c1.8-4.5,4.5-8.8,8.1-12.4c3.6-3.6,7.9-6.3,12.4-8.1c2.3-0.9,4.5-1.5,6.8-2c2.3-0.4,4.5-0.6,6.6-0.6H24.6
		v0.1V58.676"/>
	<polyline clip-path="url(#SVGID_2_)" fill-rule="evenodd" clip-rule="evenodd" fill="#0000FF" points="307.4,161.976 
		326.4,110.776 246.4,96.876 307.4,161.976 	"/>
	<path clip-path="url(#SVGID_2_)" fill-rule="evenodd" clip-rule="evenodd" fill="#0000FF" d="M236.3,130.176l-10.9,35.6
		c-0.1,0.7-0.4,1.4-0.8,2c-0.5,0.6-1,1.2-1.7,1.6c-0.7,0.4-1.5,0.7-2.3,0.7c-0.7,0.1-1.4,0-2.1-0.2c-0.6-0.2-1.3-0.5-1.9-1
		s-1.1-1.1-1.4-1.8c-0.4-0.8-0.5-1.6-0.5-2.3c-0.1-0.8,0.1-1.5,0.4-2.1l10.8-35.6c-2.7-0.4-5.6-0.5-8.6-0.3s-6.1,0.8-9.2,1.9
		c-3.1,1-6.2,2.4-9.1,4.3c-2.9,1.9-5.5,4.2-7.9,6.9c-2.3,2.6-4.2,5.6-5.7,8.7c-1.5,3.1-2.6,6.3-3.2,9.6c-0.6,3.2-0.7,6.4-0.6,9.4
		c0.2,3,0.7,5.8,1.5,8.4c0.7,2.6,1.8,5.3,3.3,7.9c1.4,2.7,3.2,5.2,5.5,7.6c2.2,2.4,4.8,4.6,7.7,6.5c3,1.8,6.2,3.3,9.5,4.3
		c3.4,1,6.9,1.5,10.4,1.6c3.4,0.1,6.8-0.4,10-1.1c3.2-0.8,6.1-2,8.8-3.4c2.6-1.4,5-3.1,7-4.8c2.1-1.8,4.1-3.9,5.9-6.3
		c1.8-2.4,3.3-5.2,4.6-8.2c1.3-3,2.2-6.3,2.6-9.7c0.5-3.5,0.5-7,0-10.5s-1.5-6.8-2.9-10c-1.4-3.2-3.1-6.1-5.2-8.7
		c-2-2.5-4.3-4.7-6.7-6.5C241.2,132.776,238.7,131.376,236.3,130.176"/>
	<path clip-path="url(#SVGID_2_)" fill-rule="evenodd" clip-rule="evenodd" fill="#0000FF" d="M327.6,164.676
		c0.1-6.6,1.5-13.2,4.2-19.3c2.699-6.1,6.6-11.6,11.399-16.1l-7.899-11.4L318,164.676H327.6"/>
	<path clip-path="url(#SVGID_2_)" fill-rule="evenodd" clip-rule="evenodd" fill="#0000FF" d="M349.5,138.276
		c-3.399,3.5-6.199,7.6-8,12.1c-1.899,4.6-2.899,9.4-3,14.3H368.1L349.5,138.276"/>
	<path clip-path="url(#SVGID_2_)" fill-rule="evenodd" clip-rule="evenodd" fill="#0000FF" d="M381.1,164.376c1.5,2.2,1.7,5,0.5,7.4
		c-0.601,1.1-1.5,2-2.601,2.7c-1.199,0.7-2.399,1.1-3.699,1.1h-35.4c0.6,2.2,1.5,4.6,2.6,6.8c1.101,2.3,2.5,4.5,4.2,6.7
		c3.3,4.3,7.601,7.9,12.7,10.5c5.1,2.6,10.5,4,15.9,4.3c2.699,0.1,5.399-0.1,7.899-0.5s4.9-1,7.101-1.8c2.199-0.9,4.399-1.9,6.6-3.2
		c2.2-1.3,4.3-2.9,6.3-4.7c4-3.7,7.3-8.3,9.5-13.6c2.2-5.2,3.101-10.8,2.9-16.2c-0.101-2.7-0.5-5.3-1.101-7.8
		c-0.6-2.4-1.399-4.8-2.399-6.9c-1-2.2-2.2-4.3-3.7-6.4s-3.2-4-5.2-5.9c-4-3.6-8.8-6.5-14.2-8.3c-5.5-1.8-11.1-2.3-16.5-1.6
		c-2.6,0.3-5.199,0.9-7.6,1.7c-2.4,0.8-4.7,1.8-6.7,3L381.1,164.376"/>
	<polyline clip-path="url(#SVGID_2_)" fill-rule="evenodd" clip-rule="evenodd" fill="#FF0000" points="359,277.876 240.3,277.876 
		240.3,323.476 359,323.476 359,277.876 	"/>
	
		<line clip-path="url(#SVGID_2_)" fill="none" stroke="#F0F0F0" stroke-width="0.12" stroke-linejoin="bevel" stroke-miterlimit="1.414" x1="359" y1="277.876" x2="240.3" y2="277.876"/>
	
		<line clip-path="url(#SVGID_2_)" fill="none" stroke="#F0F0F0" stroke-width="0.12" stroke-linejoin="bevel" stroke-miterlimit="1.414" x1="240.3" y1="277.876" x2="240.3" y2="323.476"/>
	
		<line clip-path="url(#SVGID_2_)" fill="none" stroke="#F0F0F0" stroke-width="0.12" stroke-linejoin="bevel" stroke-miterlimit="1.414" x1="240.3" y1="323.476" x2="359" y2="323.476"/>
	
		<line clip-path="url(#SVGID_2_)" fill="none" stroke="#F0F0F0" stroke-width="0.12" stroke-linejoin="bevel" stroke-miterlimit="1.414" x1="359" y1="323.476" x2="359" y2="277.876"/>
	<path clip-path="url(#SVGID_2_)" fill-rule="evenodd" clip-rule="evenodd" fill="#0000FF" d="M280.4,332.676h-41.2h-9.1v-54.8v-9.2
		h59.4v-36.5h18.3v36.5H358h9.1v9.2v45.7v9.101H358H316.9v77.6h127.9v27.4H316.9v77.699h-18.3h-18.2V332.676 M351.9,122.676
		c2.601-1.5,5.5-2.9,8.7-4c3.1-1.1,6.4-1.9,9.9-2.4s7.1-0.6,10.699-0.3c3.601,0.3,7.2,1,10.7,2.2c3.601,1.1,6.9,2.6,10.101,4.4
		c3.1,1.8,6,4,8.6,6.4c2.6,2.3,4.8,4.9,6.7,7.6c1.899,2.7,3.5,5.5,4.8,8.3c1.3,2.8,2.3,5.8,3.1,9c0.7,3.3,1.2,6.7,1.3,10.2
		c0.101,3.5-0.199,7.1-0.899,10.6c-0.7,3.6-1.8,7.1-3.3,10.5s-3.3,6.5-5.5,9.5c-2.101,2.9-4.601,5.5-7.2,7.8
		c-2.7,2.4-5.5,4.3-8.4,5.9c-2.899,1.7-5.8,2.9-8.699,3.9c-2.9,0.9-6.101,1.7-9.301,2.1c-3.3,0.4-6.699,0.5-10.199,0.2
		c-3.5-0.3-7.101-1-10.601-2.1c-3.399-1-6.8-2.5-10-4.3c-3.2-1.9-6.2-4.1-8.8-6.5c-2.7-2.5-5.1-5.2-7.1-8.1
		c-2-2.9-3.601-5.9-4.9-8.9c-1.3-3.1-2.3-6.1-2.9-9.1h-17.3c-4,0-7.8-1.7-10.399-4.7l-58.201-62l-3.3,10.9c1.6,0.7,3.2,1.5,4.8,2.4
		c1.6,0.9,3.2,1.9,4.8,3c1.6,1.2,3.1,2.4,4.6,3.8c1.5,1.4,2.9,2.9,4.3,4.5c2.7,3.3,5.1,6.9,7,11c1.9,4.1,3.3,8.4,4,13
		c0.7,4.5,0.8,9,0.3,13.5s-1.7,8.7-3.2,12.7c-0.8,1.9-1.7,3.8-2.7,5.6s-2.1,3.4-3.2,5c-1.2,1.6-2.4,3.1-3.6,4.4
		c-1.3,1.4-2.5,2.6-3.9,3.8c-1.3,1.1-2.7,2.3-4.2,3.3c-1.5,1.1-3.1,2.1-4.8,3c-1.7,0.9-3.5,1.8-5.4,2.5c-1.9,0.8-3.9,1.4-6,1.9
		c-4.1,1.1-8.5,1.6-12.9,1.5c-4.5,0-9-0.7-13.4-2c-4.4-1.4-8.6-3.3-12.3-5.7c-3.8-2.4-7.2-5.2-10-8.4c-1.5-1.5-2.8-3.1-3.9-4.8
		c-1.2-1.7-2.3-3.4-3.2-5.1c-0.9-1.7-1.7-3.4-2.4-5.1c-0.7-1.8-1.2-3.5-1.7-5.2c-0.5-1.6-0.8-3.4-1.1-5.2c-0.3-1.8-0.5-3.7-0.6-5.7
		c-0.1-1.9-0.1-3.9,0.1-5.9c0.1-2.1,0.4-4.1,0.8-6.2c0.9-4.2,2.3-8.3,4.3-12.3s4.6-7.8,7.7-11.2c3.1-3.4,6.6-6.3,10.4-8.6
		c3.8-2.4,7.9-4.2,11.9-5.4c2.1-0.6,4.1-1,6.1-1.4c2-0.3,4-0.5,5.9-0.6c2-0.1,3.9,0,5.7,0.1c1.9,0.1,3.7,0.4,5.4,0.7l14.1-46.3
		c1-3.4,3.1-6.4,6-8.5c2.8-2.1,6.2-3.2,9.8-3.2h19v10.8h-19c-2.5,0-4.7,1.6-5.4,4l-4,13l80.6,13.9l8.301-22.4l-18.301-5.1
		c-1.3-0.4-2-1.7-1.699-3.1c0.3-1.3,1.5-2.2,2.8-2.1h1.399H362.3v10.7h-12.4l-10,27.2L351.9,122.676 M554.4,533.676v-475
		c0-2.2-0.4-4.5-1.3-6.8c-0.9-2.2-2.2-4.4-4-6.2c-1.8-1.8-4-3.1-6.2-4c-2.3-0.9-4.6-1.3-6.8-1.3h-475c-2.2,0-4.5,0.4-6.7,1.3
		c-2.3,0.9-4.4,2.2-6.2,4c-1.8,1.8-3.2,4-4.1,6.2c-0.9,2.3-1.3,4.6-1.3,6.8v475c0,2.199,0.4,4.5,1.3,6.699
		c0.9,2.301,2.3,4.4,4.1,6.2c1.8,1.8,3.9,3.2,6.2,4.101c2.2,0.899,4.5,1.3,6.7,1.3h475c4.899,0,9.5-1.9,13-5.4
		C552.5,543.176,554.4,538.576,554.4,533.676"/>
	<path clip-path="url(#SVGID_2_)" fill-rule="evenodd" clip-rule="evenodd" fill="#F0F0F0" d="M359,277.876v45.6H240.3v-45.6H359
		 M298.6,515.375h18.3v-77.699h127.9v-27.4H316.9v-77.6H358h9.101v-9.101v-45.7v-9.2H358H307.8v-36.5h-18.3v36.5h-59.4v9.2v54.8h9.1
		h41.2v182.699H298.6"/>
	<path clip-path="url(#SVGID_2_)" fill-rule="evenodd" clip-rule="evenodd" fill="#F0F0F0" d="M61.1,40.376h475
		c2.2,0,4.5,0.4,6.8,1.3c2.2,0.9,4.4,2.2,6.2,4c1.8,1.8,3.1,4,4,6.2c0.899,2.3,1.3,4.6,1.3,6.8v475c0,2.199-0.4,4.5-1.3,6.699
		c-0.9,2.301-2.2,4.4-4,6.2s-4,3.2-6.2,4.101c-2.3,0.899-4.6,1.3-6.8,1.3h-475c-2.2,0-4.5-0.4-6.7-1.3c-2.3-0.9-4.4-2.301-6.2-4.101
		c-1.8-1.8-3.2-3.899-4.1-6.2c-0.9-2.199-1.3-4.5-1.3-6.699v-475c0-2.2,0.4-4.5,1.3-6.8c0.9-2.2,2.3-4.4,4.1-6.2
		c1.8-1.8,3.9-3.1,6.2-4C56.6,40.776,58.9,40.376,61.1,40.376 M536.1,570.176c2.2,0,4.399-0.101,6.7-0.601
		c2.3-0.399,4.5-1,6.8-1.899c4.5-1.801,8.8-4.601,12.399-8.2c3.601-3.601,6.301-7.8,8.101-12.3c0.899-2.301,1.6-4.601,2-6.801
		c0.399-2.3,0.6-4.5,0.6-6.699v-475c0-2.2-0.2-4.4-0.6-6.7c-0.4-2.3-1.101-4.5-2-6.8c-1.8-4.5-4.5-8.8-8.101-12.4
		c-3.6-3.6-7.899-6.3-12.399-8.1c-2.3-0.9-4.5-1.6-6.8-2c-2.301-0.4-4.5-0.6-6.7-0.6h-475c-2.2,0-4.4,0.2-6.6,0.6
		c-2.3,0.4-4.6,1.1-6.9,2c-4.5,1.8-8.7,4.5-12.3,8.1c-3.6,3.6-6.4,7.9-8.2,12.4c-0.9,2.3-1.5,4.5-1.9,6.8c-0.5,2.3-0.6,4.5-0.6,6.7
		v475c0,2.199,0.1,4.399,0.6,6.699c0.4,2.2,1,4.5,1.9,6.801c1.8,4.5,4.6,8.699,8.2,12.3c3.6,3.6,7.8,6.399,12.3,8.2
		c2.3,0.899,4.6,1.5,6.9,1.899c2.2,0.5,4.4,0.601,6.6,0.601H536.1"/>
	<path clip-path="url(#SVGID_2_)" fill-rule="evenodd" clip-rule="evenodd" fill="#F0F0F0" d="M343.2,129.276
		c-4.8,4.5-8.7,10-11.399,16.1c-2.7,6.1-4.101,12.7-4.2,19.3H318l17.301-46.8L343.2,129.276 M225.9,127.076l-10.8,35.6
		c-0.3,0.6-0.5,1.3-0.4,2.1c0,0.7,0.1,1.5,0.5,2.3c0.3,0.7,0.8,1.3,1.4,1.8s1.3,0.8,1.9,1c0.7,0.2,1.4,0.3,2.1,0.2
		c0.8,0,1.6-0.3,2.3-0.7c0.7-0.4,1.2-1,1.7-1.6c0.4-0.6,0.7-1.3,0.8-2l10.9-35.6c2.4,1.2,4.9,2.6,7.3,4.5c2.4,1.8,4.7,4,6.7,6.5
		c2.1,2.6,3.8,5.5,5.2,8.7c1.4,3.2,2.4,6.5,2.9,10s0.5,7,0,10.5c-0.4,3.4-1.3,6.7-2.6,9.7c-1.3,3-2.8,5.8-4.6,8.2
		c-1.8,2.4-3.8,4.5-5.9,6.3c-2,1.7-4.4,3.4-7,4.8c-2.7,1.4-5.6,2.6-8.8,3.4c-3.2,0.7-6.6,1.2-10,1.1c-3.5-0.1-7-0.6-10.4-1.6
		c-3.3-1-6.5-2.5-9.5-4.3c-2.9-1.9-5.5-4.1-7.7-6.5c-2.3-2.4-4.1-4.9-5.5-7.6c-1.5-2.6-2.6-5.3-3.3-7.9c-0.8-2.6-1.3-5.4-1.5-8.4
		c-0.1-3,0-6.2,0.6-9.4c0.6-3.3,1.7-6.5,3.2-9.6c1.5-3.1,3.4-6.1,5.7-8.7c2.4-2.7,5-5,7.9-6.9c2.9-1.9,6-3.3,9.1-4.3
		c3.1-1.1,6.2-1.7,9.2-1.9S223.2,126.676,225.9,127.076 M358.2,131.676c2-1.2,4.3-2.2,6.7-3c2.4-0.8,5-1.4,7.6-1.7
		c5.4-0.7,11.101-0.2,16.5,1.6c5.4,1.8,10.2,4.7,14.2,8.3c2,1.9,3.7,3.8,5.2,5.9s2.7,4.2,3.7,6.4c1,2.1,1.8,4.5,2.399,6.9
		c0.601,2.5,1,5.1,1.101,7.8c0.2,5.4-0.7,11-2.9,16.2c-2.2,5.3-5.5,9.9-9.5,13.6c-2,1.8-4.1,3.4-6.3,4.7c-2.2,1.3-4.4,2.3-6.6,3.2
		c-2.2,0.8-4.601,1.4-7.101,1.8s-5.2,0.6-7.899,0.5c-5.4-0.3-10.801-1.7-15.9-4.3c-5.1-2.6-9.4-6.2-12.7-10.5
		c-1.7-2.2-3.1-4.4-4.2-6.7c-1.1-2.2-2-4.6-2.6-6.8h35.4c2.6,0,5.1-1.5,6.3-3.8c0.6-1.2,0.899-2.4,0.8-3.8c-0.1-1.3-0.6-2.6-1.3-3.6
		L358.2,131.676 M338.5,164.676c0.101-4.8,1-9.7,3-14.3c0.9-2.3,2.101-4.5,3.5-6.5c1.301-2,2.9-3.9,4.5-5.6l18.601,26.4H338.5
		 M246.4,96.876l80,13.9l-19,51.2L246.4,96.876 M321.3,67.676c-1.301-0.1-2.5,0.8-2.801,2.1c-0.3,1.4,0.4,2.7,1.7,3.1l18.3,5.1
		l-8.3,22.4l-80.6-13.9l4-13c0.7-2.4,2.9-4,5.4-4h19v-10.8h-19c-1.7,0-3.4,0.2-5.1,0.7c-1.7,0.6-3.3,1.4-4.7,2.5
		c-1.5,1.1-2.8,2.4-3.8,3.9c-1,1.4-1.7,3-2.2,4.6l-14.1,46.3c-1.7-0.3-3.5-0.6-5.4-0.7c-1.8-0.1-3.7-0.2-5.7-0.1
		c-1.9,0.1-3.9,0.3-5.9,0.6c-2,0.4-4,0.8-6.1,1.4c-4,1.2-8.1,3-11.9,5.4c-3.8,2.3-7.3,5.2-10.4,8.6c-3.1,3.4-5.7,7.2-7.7,11.2
		s-3.4,8.1-4.3,12.3c-0.4,2.1-0.7,4.1-0.8,6.2c-0.2,2-0.2,4-0.1,5.9c0.1,2,0.3,3.9,0.6,5.7c0.3,1.8,0.6,3.6,1.1,5.2
		c0.5,1.7,1,3.4,1.7,5.2c0.7,1.7,1.5,3.4,2.4,5.1c0.9,1.7,2,3.4,3.2,5.1c1.1,1.7,2.4,3.3,3.9,4.8c2.8,3.2,6.2,6,10,8.4
		c3.7,2.4,7.9,4.3,12.3,5.7c4.4,1.3,8.9,2,13.4,2c4.4,0.1,8.8-0.4,12.9-1.5c2.1-0.5,4.1-1.1,6-1.9c1.8-0.7,3.7-1.6,5.4-2.5
		c1.7-0.9,3.3-1.9,4.8-3c1.5-1,2.9-2.2,4.2-3.3c1.4-1.2,2.6-2.4,3.9-3.8c1.2-1.3,2.4-2.8,3.6-4.4c1.1-1.6,2.2-3.2,3.2-5
		s1.9-3.7,2.7-5.6c1.5-4,2.7-8.2,3.2-12.7s0.4-9-0.3-13.5c-0.7-4.6-2.1-8.9-4-13c-1.9-4.1-4.3-7.7-7-11c-1.4-1.6-2.8-3.1-4.3-4.5
		c-1.5-1.4-3-2.6-4.6-3.8c-1.6-1.1-3.2-2.1-4.8-3c-1.6-0.9-3.2-1.7-4.8-2.4l3.3-10.9l58.2,62c1.301,1.5,2.9,2.6,4.7,3.5
		c1.8,0.8,3.8,1.2,5.7,1.2h17.3c0.601,3,1.601,6,2.9,9.1c1.3,3,2.899,6,4.899,8.9c2,2.9,4.4,5.6,7.101,8.1c2.6,2.4,5.6,4.6,8.8,6.5
		c3.2,1.8,6.6,3.3,10,4.3c3.5,1.1,7.1,1.8,10.6,2.1c3.5,0.3,6.9,0.2,10.2-0.2c3.2-0.4,6.4-1.2,9.3-2.1c2.9-1,5.801-2.2,8.7-3.9
		c2.9-1.6,5.7-3.5,8.4-5.9c2.6-2.3,5.1-4.9,7.2-7.8c2.199-3,4-6.1,5.5-9.5s2.6-6.9,3.3-10.5c0.7-3.5,1-7.1,0.899-10.6
		c-0.1-3.5-0.6-6.9-1.3-10.2c-0.8-3.2-1.8-6.2-3.1-9c-1.3-2.8-2.9-5.6-4.8-8.3c-1.9-2.7-4.101-5.3-6.7-7.6
		c-2.601-2.4-5.5-4.6-8.601-6.4c-3.199-1.8-6.5-3.3-10.1-4.4c-3.5-1.2-7.1-1.9-10.7-2.2c-3.6-0.3-7.2-0.2-10.7,0.3
		s-6.8,1.3-9.899,2.4c-3.2,1.1-6.101,2.5-8.7,4l-12-17.1l10-27.2h12.4v-10.7H322.7H321.3"/>
</g>
</svg>
