<?xml version="1.0" encoding="UTF-8"?>
<svg id="Layer_1" data-name="Layer 1" xmlns="http://www.w3.org/2000/svg" version="1.1" xmlns:cc="http://creativecommons.org/ns#" xmlns:dc="http://purl.org/dc/elements/1.1/" xmlns:rdf="http://www.w3.org/1999/02/22-rdf-syntax-ns#" xmlns:svg="http://www.w3.org/2000/svg" viewBox="0 0 239.2 239.2">
  <defs>
    <style>
      .cls-1, .cls-2, .cls-3, .cls-4 {
        stroke-width: 0px;
      }

      .cls-1, .cls-3 {
        fill: #fff;
      }

      .cls-1, .cls-4 {
        fill-rule: evenodd;
      }

      .cls-2 {
        fill: #ef3e42;
      }

      .cls-5 {
        stroke: #fff;
        stroke-miterlimit: 10;
        stroke-width: .7px;
      }

      .cls-5, .cls-4 {
        fill: #005eb8;
      }
    </style>
  </defs>
  <g id="g12">
    <rect id="rect2" class="cls-5" x=".4" y=".4" width="238.5" height="238.5"/>
    <polygon id="polygon4" class="cls-1" points="3.2 7 5.7 4.2 8.9 2 12.6 .8 16.2 .4 223 .4 226.9 .8 230.3 2 233.6 4.2 236 7 237.9 10.5 238.9 16.2 238.9 222.8 237.9 228.5 236 232 233.6 234.8 230.3 237 226.9 238.2 223 238.9 16.2 238.9 10.5 237.8 7.3 236 4.5 233.3 2.2 230.3 .8 226.6 .4 222.8 .4 14.2 1.4 10.5 3.2 7"/>
    <polygon id="polygon6" class="cls-4" points="10.1 11.2 12.4 9.3 16.2 8.3 223 8.3 225.6 8.7 228.1 10.1 230 12.2 231 16.2 230.8 224.2 230 226.9 228.1 228.9 225.6 230.3 223 230.8 16.2 230.8 13.6 230.3 11.2 228.9 9.4 226.9 8.5 224.2 8.3 16.2 8.9 13.4 10.1 11.2"/>
    <polygon id="polygon8" class="cls-1" points="139.9 91.6 167.7 91.6 167.7 151.1 139.9 151.1 139.9 129.3 87.1 129.3 87.1 113.6 139.9 113.6 139.9 91.6"/>
    <rect id="rect10" class="cls-2" x="143.8" y="95.5" width="19.9" height="51.7"/>
  </g>
  <rect class="cls-3" x="71.3" y="23.9" width="15.8" height="191.4"/>
</svg>