<?xml version="1.0" encoding="UTF-8"?>
<svg xmlns="http://www.w3.org/2000/svg" version="1.1" viewBox="0 0 425.2 425.2">
  <defs>
    <style>
      .cls-1 {
        fill: #fff;
      }

      .cls-2 {
        stroke: #005eb8;
        stroke-miterlimit: 10;
        stroke-width: .5px;
      }

      .cls-2, .cls-3 {
        fill: #005eb8;
      }
    </style>
  </defs>
  <!-- Generator: Adobe Illustrator 28.7.1, SVG Export Plug-In . SVG Version: 1.2.0 Build 142)  -->
  <g>
    <g id="Layer_1">
      <g id="LWPOLYLINE">
        <rect class="cls-2" x="73.7" y="14.2" width="277.8" height="396.9"/>
      </g>
      <g id="LWPOLYLINE-2" data-name="LWPOLYLINE">
        <path class="cls-1" d="M331.7,14.2H93.5c-11,0-19.8,8.9-19.8,19.8v357.2c0,11,8.9,19.8,19.8,19.8h238.1c11,0,19.8-8.9,19.8-19.8V34c0-11-8.9-19.8-19.8-19.8Z"/>
      </g>
      <g id="LWPOLYLINE-3" data-name="LWPOLYLINE">
        <path class="cls-3" d="M331.7,24.1H93.5c-5.5,0-9.9,4.4-9.9,9.9v357.2c0,5.5,4.4,9.9,9.9,9.9h238.1c5.5,0,9.9-4.4,9.9-9.9V34c0-5.5-4.4-9.9-9.9-9.9Z"/>
      </g>
      <g id="LWPOLYLINE-4" data-name="LWPOLYLINE">
        <path class="cls-1" d="M230.8,201.8l37.9,37.9c14.9,14.9,23.3,35.1,23.3,56.1v88.7h19.8v-88.7c0-26.3-10.4-51.5-29.1-70.2l-37.9-37.9h42.1l-18.2-18.2h-56.1v56.1l18.2,18.2v-42.1h0Z"/>
      </g>
      <g id="LWPOLYLINE-5" data-name="LWPOLYLINE">
        <polygon class="cls-1" points="143.2 384.5 143.1 99.4 113.4 129.2 113.4 103.5 153.1 63.8 192.7 103.5 192.7 129.2 163 99.4 163 384.5 143.2 384.5"/>
      </g>
    </g>
  </g>
</svg>