<?xml version="1.0" encoding="utf-8"?>
<!-- Generator: Adobe Illustrator 27.0.0, SVG Export Plug-In . SVG Version: 6.00 Build 0)  -->
<svg version="1.1" id="Layer_1" xmlns="http://www.w3.org/2000/svg" xmlns:xlink="http://www.w3.org/1999/xlink" x="0px" y="0px"
	 viewBox="0 0 425.2 425.2" style="enable-background:new 0 0 425.2 425.2;" xml:space="preserve">
<style type="text/css">
	.st0{fill:#005EB8;stroke:#005EB8;stroke-width:0.5;stroke-miterlimit:10;}
	.st1{fill:#FFFFFF;}
	.st2{fill:#005EB8;}
</style>
<g id="LWPOLYLINE_142_">
	<rect x="14.17" y="14.17" class="st0" width="396.85" height="396.85"/>
</g>
<g id="LWPOLYLINE_144_">
	<path class="st1" d="M53.86,411.02h317.47c21.92,0,39.7-17.77,39.7-39.69V53.86c0-21.92-17.78-39.68-39.7-39.68H53.86
		c-21.91,0-39.69,17.76-39.69,39.68v317.48C14.17,393.25,31.94,411.02,53.86,411.02z"/>
</g>
<g id="LWPOLYLINE_143_">
	<path class="st2" d="M53.86,391.18h317.47c10.97,0,19.84-8.89,19.84-19.85V53.86c0-10.95-8.88-19.84-19.84-19.84H53.86
		c-10.96,0-19.84,8.89-19.84,19.84v317.48C34.01,382.29,42.9,391.18,53.86,391.18z"/>
</g>
<g id="LWPOLYLINE_154_">
	<polygon class="st1" points="306.84,192.76 187.29,192.76 234.42,145.63 185.31,145.63 118.34,212.6 185.31,279.57 234.42,279.57 
		187.29,232.44 306.84,232.44 	"/>
</g>
</svg>
