<?xml version="1.0" encoding="iso-8859-1"?>
<!-- Generator: Adobe Illustrator 16.0.0, SVG Export Plug-In . SVG Version: 6.00 Build 0)  -->
<!DOCTYPE svg PUBLIC "-//W3C//DTD SVG 1.1//EN" "http://www.w3.org/Graphics/SVG/1.1/DTD/svg11.dtd">
<svg version="1.1" id="Layer_1" xmlns="http://www.w3.org/2000/svg" xmlns:xlink="http://www.w3.org/1999/xlink" x="0px" y="0px"
	 width="425.197px" height="425.196px" viewBox="0 0 425.197 425.196" style="enable-background:new 0 0 425.197 425.196;"
	 xml:space="preserve">
<g id="LWPOLYLINE_51_">
	
		<rect x="14.172" y="63.778" style="fill:#005EB8;stroke:#005EB8;stroke-width:0.5;stroke-miterlimit:10;" width="396.853" height="297.64"/>
</g>
<g id="LWPOLYLINE_49_">
	<path style="fill:#FFFFFF;" d="M14.172,334.96c0,14.613,11.846,26.458,26.459,26.458h343.939c14.608,0,26.454-11.845,26.454-26.458
		V90.237c0-14.613-11.846-26.459-26.454-26.459H40.631c-14.613,0-26.459,11.846-26.459,26.459V334.96z"/>
</g>
<g id="LWPOLYLINE_50_">
	<path style="fill:#005EB8;" d="M27.399,334.96c0,7.309,5.923,13.227,13.232,13.227h343.939c7.305,0,13.223-5.918,13.223-13.227
		V90.237c0-7.305-5.918-13.231-13.223-13.231H40.631c-7.31,0-13.232,5.927-13.232,13.231V334.96z"/>
</g>
<g id="CIRCLE_2_">
	<path style="fill:#FFFFFF;" d="M310.208,170.489c0-9.762-7.911-17.673-17.673-17.673s-17.672,7.911-17.672,17.673
		s7.91,17.673,17.672,17.673S310.208,180.251,310.208,170.489L310.208,170.489z"/>
</g>
<g id="CIRCLE_3_">
	<path style="fill:#FFFFFF;" d="M152.152,170.489c0-9.762-7.91-17.673-17.673-17.673c-9.757,0-17.668,7.911-17.668,17.673
		s7.911,17.673,17.668,17.673C144.242,188.162,152.152,180.251,152.152,170.489L152.152,170.489z"/>
</g>
<g id="LWPOLYLINE_53_">
	<path style="fill:#FFFFFF;" d="M327.34,128.204c0.638,0.497,1.012,1.254,1.012,2.061v31.529c0,1.44-1.177,2.608-2.617,2.608
		h-10.341c-2.817-12.625-15.336-20.577-27.961-17.755c-8.864,1.975-15.78,8.896-17.76,17.755H157.345
		c-2.822-12.625-15.343-20.577-27.968-17.755c-8.859,1.975-15.78,8.896-17.76,17.755H99.462c-1.44,0-2.612-1.168-2.612-2.608
		v-19.747c0-7.209,5.85-13.059,13.063-13.059h44.355c0.692,0,1.358-0.278,1.847-0.766l33.394-33.39
		c0.487-0.492,1.153-0.766,1.847-0.766h91.295c0.584,0,1.149,0.196,1.605,0.556L327.34,128.204z"/>
</g>
<g id="ELLIPSE_2_">
	<path style="fill:#FFFFFF;" d="M170.874,314.479c0-11.313-9.169-20.481-20.481-20.481s-20.481,9.169-20.481,20.481
		c0,11.312,9.169,20.481,20.481,20.481S170.874,325.79,170.874,314.479"/>
</g>
<g id="LWPOLYLINE_63_">
	<path style="fill:#FFFFFF;" d="M264.968,314.479H175.05c-0.064-13.583-11.135-24.544-24.718-24.471
		c-13.486,0.063-24.407,10.979-24.471,24.471H92.938c-2.403,0-4.354-1.951-4.354-4.354v-32.605c0-5.484,2.836-10.582,7.505-13.473
		l16.354-10.122l30.723-39.258c0.843-1.076,2.138-1.705,3.506-1.705h180.614c2.37,0,4.322,1.852,4.449,4.218l4.87,92.612
		c0.009,0.078,0.009,0.16,0.009,0.232c0,2.463-1.997,4.455-4.45,4.455h-18.01c-0.063-13.583-11.132-24.539-24.715-24.471
		C275.952,290.071,265.032,300.986,264.968,314.479z"/>
</g>
<g id="CIRCLE_8_">
	<path style="fill:#FFFFFF;" d="M309.98,314.479c0-11.313-9.17-20.481-20.481-20.481c-11.313,0-20.481,9.169-20.481,20.481
		c0,11.312,9.169,20.481,20.481,20.481C300.81,334.96,309.98,325.79,309.98,314.479L309.98,314.479z"/>
</g>
<g id="LWPOLYLINE_52_">
	<path style="fill:#005EB8;" d="M175.346,127.215l21.603-23.322c0.497-0.533,1.186-0.834,1.915-0.834h31.84
		c1.432,0,2.594,1.158,2.599,2.594v23.322c0,1.45-1.163,2.617-2.604,2.617h-53.446c-0.657,0-1.286-0.251-1.77-0.697
		C174.43,129.919,174.366,128.272,175.346,127.215z"/>
</g>
<g id="LWPOLYLINE_54_">
	<path style="fill:#005EB8;" d="M242.399,105.548v23.409c0.004,1.436,1.172,2.599,2.607,2.599h47.282
		c1.45,0,2.626-1.172,2.626-2.622c0-0.588-0.195-1.153-0.556-1.614l-18.192-23.345c-0.516-0.661-1.309-1.053-2.147-1.053h-29.008
		C243.571,102.922,242.399,104.089,242.399,105.548z"/>
</g>
<g id="LWPOLYLINE_64_">
	<polygon style="fill:#005EB8;" points="185.916,226.056 148.208,226.056 122.424,260.38 185.738,260.344 	"/>
</g>
</svg>
