<?xml version="1.0" encoding="UTF-8"?>
<svg id="Layer_1" data-name="Layer 1" xmlns="http://www.w3.org/2000/svg" version="1.1" viewBox="0 0 396.9 198.4">
  <defs>
    <style>
      .cls-1 {
        stroke: #2160ad;
        stroke-miterlimit: 10;
        stroke-width: .5px;
      }

      .cls-1, .cls-2 {
        fill: #2160ad;
      }

      .cls-3 {
        fill: #fff;
      }

      .cls-3, .cls-2 {
        stroke-width: 0px;
      }
    </style>
  </defs>
  <g id="LWPOLYLINE">
    <rect class="cls-1" x=".1" y="-.2" width="396.9" height="198.4"/>
  </g>
  <g id="LWPOLYLINE-2" data-name="LWPOLYLINE">
    <path class="cls-3" d="M377.2-.2H20C9-.2.1,8.7.1,19.7v158.7c0,11,8.9,19.8,19.8,19.8h357.2c11,0,19.8-8.9,19.8-19.8V19.7c0-11-8.9-19.8-19.8-19.8Z"/>
  </g>
  <g id="LWPOLYLINE-3" data-name="LWPOLYLINE">
    <path class="cls-2" d="M377.2,9.8H20c-5.5,0-9.9,4.4-9.9,9.9v158.7c0,5.5,4.4,9.9,9.9,9.9h357.2c5.5,0,9.9-4.4,9.9-9.9V19.7c0-5.5-4.4-9.9-9.9-9.9Z"/>
  </g>
  <g id="LWPOLYLINE-4" data-name="LWPOLYLINE">
    <polygon class="cls-3" points="32.4 89.1 48.8 89.1 48.8 84.7 36.9 84.7 36.9 75.7 44.9 75.7 44.9 71.3 36.9 71.3 36.9 63.8 48.8 63.8 48.8 59.4 32.4 59.4 32.4 89.1"/>
  </g>
  <g id="LWPOLYLINE-5" data-name="LWPOLYLINE">
    <rect class="cls-3" x="54.1" y="66.8" width="4.5" height="22.3"/>
  </g>
  <g id="LWPOLYLINE-6" data-name="LWPOLYLINE">
    <rect class="cls-3" x="54.1" y="59.4" width="4.5" height="4.5"/>
  </g>
  <g id="LWPOLYLINE-7" data-name="LWPOLYLINE">
    <polygon class="cls-3" points="77.9 89.1 73.5 89.1 73.5 59.4 77.9 59.4 77.9 75.8 83.9 66.8 88.4 66.8 83.3 74.5 88.4 89.1 83.9 89.1 80.3 78.9 77.9 82.4 77.9 89.1"/>
  </g>
  <g id="LWPOLYLINE-8" data-name="LWPOLYLINE">
    <path class="cls-3" d="M91.6,81.7c0,4.1,3.3,7.4,7.4,7.4s7.4-3.3,7.4-7.4v-7.4c0-4.1-3.3-7.4-7.4-7.4s-7.4,3.3-7.4,7.4v7.4Z"/>
  </g>
  <g id="LWPOLYLINE-9" data-name="LWPOLYLINE">
    <path class="cls-3" d="M110.7,81.7c0,4.1,3.3,7.4,7.4,7.4h.6c3.6,0,6.5-2.9,6.5-6.5s-1.2-4.5-3.3-5.7l-4.9-2.9c-.5-.3-.7-.8-.7-1.3,0-.8.7-1.5,1.5-1.5h.9c.8,0,1.5.7,1.5,1.5h4.5c0-3.3-2.7-6-6-6h-.9c-3.3,0-6,2.7-6,6s1.1,4.1,3,5.1l4.9,2.9c.6.4,1,1.1,1,1.8,0,1.2-.9,2.1-2.1,2.1h-.6c-1.6,0-3-1.3-3-3h-4.5Z"/>
  </g>
  <g id="LWPOLYLINE-10" data-name="LWPOLYLINE">
    <polygon class="cls-3" points="134.8 89.1 130.3 89.1 130.3 59.4 134.8 59.4 134.8 75.8 140.7 66.8 145.2 66.8 140.1 74.5 145.2 89.1 140.7 89.1 137.1 78.9 134.8 82.4 134.8 89.1"/>
  </g>
  <g id="LWPOLYLINE-11" data-name="LWPOLYLINE">
    <path class="cls-3" d="M158.6,81.7h4.5c0,4.1-3.3,7.4-7.4,7.4s-7.4-3.3-7.4-7.4v-7.4c0-4.1,3.3-7.4,7.4-7.4s7.4,3.3,7.4,7.4v4.2h-10.4v3.3c0,1.6,1.3,3,3,3s3-1.3,3-3Z"/>
  </g>
  <g id="LWPOLYLINE-12" data-name="LWPOLYLINE">
    <path class="cls-3" d="M48.8,138.7h3v-16.4h-9.7v4.5h5.2v2.1h0c0,3-2.3,5.4-5.2,5.4s-5.2-2.3-5.2-5.2v-10.4c0-2.9,2.3-5.2,5.2-5.2s5.2,2.3,5.2,5.2h4.5c0-5.3-4.3-9.7-9.7-9.7s-9.7,4.3-9.7,9.7v10.4c0,5.3,4.3,9.6,9.7,9.6,2,0,3.9-.6,5.5-1.7l1.2,1.8Z"/>
  </g>
  <g id="LWPOLYLINE-13" data-name="LWPOLYLINE">
    <rect class="cls-3" x="66.3" y="109" width="4.5" height="4.5"/>
  </g>
  <g id="LWPOLYLINE-14" data-name="LWPOLYLINE">
    <rect class="cls-3" x="58.3" y="109" width="4.5" height="4.5"/>
  </g>
  <g id="LWPOLYLINE-15" data-name="LWPOLYLINE">
    <path class="cls-3" d="M71.4,138.7h-4.5v-1.4c-1.8,1-3.8,1.5-5.8,1.4-1.8,0-3.5-1.1-4.1-2.8-.7-2.3-.1-4.8,1.6-6.5,2.2-2.3,5.1-3.8,8.3-4v-2.3c0-1.2-1-2.2-2.2-2.2s-2.2,1-2.2,2.2h-4.5c0-3.7,3-6.7,6.7-6.7s6.7,3,6.7,6.7v15.6h0Z"/>
  </g>
  <g id="LWPOLYLINE-16" data-name="LWPOLYLINE">
    <rect class="cls-3" x="76.7" y="109" width="4.5" height="29.8"/>
  </g>
  <g id="LWPOLYLINE-17" data-name="LWPOLYLINE">
    <rect class="cls-3" x="87.2" y="109" width="4.5" height="29.8"/>
  </g>
  <g id="LWPOLYLINE-18" data-name="LWPOLYLINE">
    <path class="cls-3" d="M107.1,131.3h4.5c0,4.1-3.3,7.4-7.4,7.4s-7.4-3.3-7.4-7.4v-7.4c0-4.1,3.3-7.4,7.4-7.4s7.4,3.3,7.4,7.4v4.2h-10.4v3.3c0,1.6,1.3,3,3,3,1.6,0,3-1.3,3-3Z"/>
  </g>
  <g id="LWPOLYLINE-19" data-name="LWPOLYLINE">
    <path class="cls-3" d="M121.4,123.3v15.5h-4.5v-22.3h4.5v1.2c1.6-.8,3.3-1.2,5.1-1.2v4.7c-1.2-1.1-3.1-1.1-4.2,0-.5.6-.9,1.3-.9,2.1Z"/>
  </g>
  <g id="LWPOLYLINE-20" data-name="LWPOLYLINE">
    <path class="cls-3" d="M151.7,131.3h4.5c0,4.1-3.3,7.4-7.4,7.4s-7.4-3.3-7.4-7.4v-7.4c0-4.1,3.3-7.4,7.4-7.4s7.4,3.3,7.4,7.4v4.2h-10.4v3.3c0,1.6,1.3,3,3,3s3-1.3,3-3Z"/>
  </g>
  <g id="LWPOLYLINE-21" data-name="LWPOLYLINE">
    <path class="cls-3" d="M166,116.4v21.7c0,3.6-2.9,6.5-6.5,6.5h-.6l.6-4.5c1.2,0,2.1-.9,2.1-2.1v-21.7h4.5Z"/>
  </g>
  <g id="LWPOLYLINE-22" data-name="LWPOLYLINE">
    <rect class="cls-3" x="161.6" y="109" width="4.5" height="4.5"/>
  </g>
  <g id="LWPOLYLINE-23" data-name="LWPOLYLINE">
    <path class="cls-3" d="M309.7,79.3l7.6,10.9c2.9-1.7,6.1-3,9.5-3.7,17-3.6,33.7,7.2,37.3,24.2,3.6,17-7.2,33.7-24.2,37.3-17,3.6-33.7-7.2-37.3-24.2h-11c-2.5,0-4.9-1.1-6.6-2.9l-37-39.4-2.1,6.9c13.5,5.7,21.3,20.1,18.6,34.6-3.1,17.1-19.5,28.4-36.6,25.2-17.1-3.1-28.4-19.5-25.2-36.6,3.1-17.1,19.5-28.4,36.6-25.2l9-29.4c1.3-4.4,5.4-7.4,10-7.4h12.1v6.9h-12.1c-1.6,0-3,1-3.4,2.5l-2.5,8.2,51.2,8.9,5.3-14.3-11.6-3.2c-.7-.3-1.1-1-1.1-1.7,0-1,.9-1.7,1.8-1.6h26.1v6.8h-7.9l-6.4,17.3Z"/>
  </g>
  <g id="LWPOLYLINE-24" data-name="LWPOLYLINE">
    <path class="cls-2" d="M96.1,81.7c0,1.6,1.3,3,3,3s3-1.3,3-3v-7.4c0-1.6-1.3-3-3-3s-3,1.3-3,3v7.4Z"/>
  </g>
  <g id="LWPOLYLINE-25" data-name="LWPOLYLINE">
    <path class="cls-2" d="M152.6,74.6h5.9v-.3c0-1.6-1.3-3-3-3s-3,1.3-3,3v.3h0Z"/>
  </g>
  <g id="LWPOLYLINE-26" data-name="LWPOLYLINE">
    <path class="cls-2" d="M66.9,128.3c-1.5.4-2.9,1.1-4,2.1-1,.9-1.6,2.2-1.6,3.6,0,.9.8,1.6,1.7,1.6,0,0,.1,0,.2,0,1.3-.2,2.6-.6,3.8-1.3,0,0,0-6,0-6Z"/>
  </g>
  <g id="LWPOLYLINE-27" data-name="LWPOLYLINE">
    <path class="cls-2" d="M101.2,124.2h5.9v-.3c0-1.6-1.3-3-3-3s-3,1.3-3,3v.3Z"/>
  </g>
  <g id="LWPOLYLINE-28" data-name="LWPOLYLINE">
    <path class="cls-2" d="M145.8,124.2h5.9v-.3c0-1.6-1.3-3-3-3s-3,1.3-3,3v.3h0Z"/>
  </g>
  <g id="LWPOLYLINE-29" data-name="LWPOLYLINE">
    <polygon class="cls-2" points="250.3 73.8 301.1 82.6 289.1 115.1 250.3 73.8"/>
  </g>
  <g id="LWPOLYLINE-30" data-name="LWPOLYLINE">
    <path class="cls-2" d="M315.8,100.1c-4.4,4.5-6.9,10.5-7,16.8h18.8l-11.8-16.8Z"/>
  </g>
  <g id="LWPOLYLINE-31" data-name="LWPOLYLINE">
    <path class="cls-2" d="M301.9,116.9c.1-8.5,3.7-16.7,9.9-22.5l-5-7.2-11,29.7h6.2,0Z"/>
  </g>
  <g id="LWPOLYLINE-32" data-name="LWPOLYLINE">
    <path class="cls-2" d="M335.9,116.7c.5.8.8,1.7.8,2.6,0,2.5-2,4.5-4.5,4.5h-22.5c3.6,13.1,17.1,20.7,30.2,17.1,13.1-3.6,20.7-17.1,17.1-30.2-3.6-13.1-17.1-20.7-30.2-17.1-1.9.5-3.8,1.3-5.5,2.3l14.6,20.8Z"/>
  </g>
  <g id="LWPOLYLINE-33" data-name="LWPOLYLINE">
    <path class="cls-2" d="M243.8,95l-6.9,22.6c0,.2-.1.4-.2.6-.7,1.8-2.7,2.6-4.5,1.9-1.8-.7-2.6-2.7-1.9-4.5l6.9-22.6c-13.4-2-25.9,7.2-27.9,20.6-2,13.4,7.2,25.9,20.6,27.9,13.4,2,25.9-7.2,27.9-20.6,1.6-10.8-4.1-21.4-14-25.9Z"/>
  </g>
</svg>