<?xml version="1.0" encoding="iso-8859-1"?>
<!-- Generator: Adobe Illustrator 16.0.0, SVG Export Plug-In . SVG Version: 6.00 Build 0)  -->
<!DOCTYPE svg PUBLIC "-//W3C//DTD SVG 1.1//EN" "http://www.w3.org/Graphics/SVG/1.1/DTD/svg11.dtd">
<svg version="1.1" id="Layer_1" xmlns="http://www.w3.org/2000/svg" xmlns:xlink="http://www.w3.org/1999/xlink" x="0px" y="0px"
	 width="425.197px" height="425.196px" viewBox="0 0 425.197 425.196" style="enable-background:new 0 0 425.197 425.196;"
	 xml:space="preserve">
<g id="LWPOLYLINE_49_">
	
		<rect x="14.173" y="113.385" style="fill:#005EB8;stroke:#005EB8;stroke-width:0.5;stroke-miterlimit:10;" width="396.85" height="198.427"/>
</g>
<g id="LWPOLYLINE_2_">
	<path style="fill:#FFFFFF;" d="M391.183,113.385H34.017c-10.959,0-19.844,8.884-19.844,19.844v158.739
		c0,10.96,8.884,19.844,19.844,19.844h357.166c10.957,0,19.84-8.884,19.84-19.844V133.229
		C411.023,122.269,402.14,113.385,391.183,113.385z"/>
</g>
<g id="LWPOLYLINE_74_">
	<path style="fill:#005EB8;" d="M391.183,123.307H34.017c-5.481,0-9.923,4.442-9.923,9.922v158.739c0,5.48,4.442,9.922,9.923,9.922
		h357.166c5.479,0,9.92-4.441,9.92-9.922V133.229C401.103,127.749,396.662,123.307,391.183,123.307z"/>
</g>
<g id="LWPOLYLINE_50_">
	<polygon style="fill:#FFFFFF;" points="46.417,202.677 62.79,202.677 62.79,198.212 50.882,198.212 50.882,189.283 58.918,189.283 
		58.918,184.819 50.882,184.819 50.882,177.378 62.79,177.378 62.79,172.913 46.417,172.913 	"/>
</g>
<g id="LWPOLYLINE_51_">
	<rect x="68.145" y="180.354" style="fill:#FFFFFF;" width="4.466" height="22.323"/>
</g>
<g id="LWPOLYLINE_52_">
	<rect x="68.145" y="172.913" style="fill:#FFFFFF;" width="4.466" height="4.466"/>
</g>
<g id="LWPOLYLINE_53_">
	<polygon style="fill:#FFFFFF;" points="91.958,202.677 87.492,202.677 87.492,172.913 91.958,172.913 91.955,189.358 
		97.908,180.354 102.374,180.354 97.279,187.998 102.401,202.684 97.908,202.677 94.325,192.43 91.958,195.98 	"/>
</g>
<g id="LWPOLYLINE_54_">
	<path style="fill:#FFFFFF;" d="M105.646,195.235c0,4.11,3.334,7.441,7.441,7.441c4.11,0,7.441-3.331,7.441-7.441v-7.441
		c0-4.108-3.331-7.44-7.441-7.44c-4.107,0-7.441,3.333-7.441,7.44V195.235z"/>
</g>
<g id="LWPOLYLINE_56_">
	<path style="fill:#FFFFFF;" d="M124.697,195.235c0,4.11,3.331,7.441,7.441,7.441h0.595c3.618,0,6.549-2.931,6.549-6.549
		c0-2.329-1.238-4.483-3.252-5.656l-4.938-2.879c-0.458-0.267-0.739-0.756-0.739-1.286c0-0.822,0.664-1.487,1.487-1.487h0.893
		c0.821,0,1.488,0.665,1.488,1.487h4.466c0-3.288-2.667-5.953-5.954-5.953h-0.893c-3.29,0-5.953,2.666-5.953,5.953
		c0,2.119,1.125,4.076,2.955,5.144l4.941,2.879c0.64,0.373,1.033,1.059,1.033,1.799c0,1.152-0.934,2.084-2.083,2.084h-0.595
		c-1.645,0-2.975-1.332-2.975-2.977H124.697z"/>
</g>
<g id="LWPOLYLINE_57_">
	<polygon style="fill:#FFFFFF;" points="148.805,202.677 144.342,202.677 144.342,172.913 148.805,172.913 148.805,189.358 
		154.758,180.354 159.225,180.354 154.126,187.998 159.252,202.684 154.758,202.677 151.171,192.43 148.805,195.98 	"/>
</g>
<g id="LWPOLYLINE_58_">
	<path style="fill:#FFFFFF;" d="M172.615,195.235h4.466c0,4.11-3.331,7.441-7.441,7.441c-4.11,0-7.441-3.331-7.441-7.441v-7.441
		c0-4.108,3.331-7.44,7.441-7.44c4.11,0,7.441,3.333,7.441,7.44v4.167h-10.416v3.274c0,1.645,1.33,2.977,2.975,2.977
		C171.285,198.212,172.615,196.88,172.615,195.235z"/>
</g>
<g id="LWPOLYLINE_60_">
	<path style="fill:#FFFFFF;" d="M62.79,252.284h2.975v-16.371H56.09v4.464h5.208v2.084v0.149c0,2.876-2.332,5.208-5.208,5.208
		s-5.208-2.332-5.208-5.208v-10.418c0-2.876,2.332-5.208,5.208-5.208s5.208,2.332,5.208,5.208h4.466
		c0-5.342-4.333-9.672-9.674-9.672s-9.674,4.33-9.674,9.672v10.418c0.007,5.329,4.329,9.646,9.66,9.643
		c1.977-0.002,3.909-0.61,5.526-1.745L62.79,252.284z"/>
</g>
<g id="LWPOLYLINE_61_">
	<rect x="80.349" y="222.521" style="fill:#FFFFFF;" width="4.466" height="4.464"/>
</g>
<g id="LWPOLYLINE_62_">
	<rect x="72.313" y="222.521" style="fill:#FFFFFF;" width="4.462" height="4.464"/>
</g>
<g id="LWPOLYLINE_63_">
	<path style="fill:#FFFFFF;" d="M85.41,252.284h-4.466v-1.43c-1.792,0.968-3.806,1.46-5.841,1.428
		c-1.833,0.048-3.484-1.106-4.066-2.845c-0.721-2.283-0.113-4.779,1.587-6.47c2.168-2.334,5.143-3.762,8.32-3.998v-2.313
		c0-1.232-0.999-2.231-2.233-2.231c-1.231,0-2.233,0.999-2.233,2.231h-4.463c0-3.698,2.999-6.695,6.696-6.695
		c3.7,0,6.699,2.997,6.699,6.695V252.284z"/>
</g>
<g id="LWPOLYLINE_65_">
	<rect x="90.765" y="222.521" style="fill:#FFFFFF;" width="4.466" height="29.764"/>
</g>
<g id="LWPOLYLINE_66_">
	<rect x="101.184" y="222.521" style="fill:#FFFFFF;" width="4.462" height="29.764"/>
</g>
<g id="LWPOLYLINE_67_">
	<path style="fill:#FFFFFF;" d="M121.124,244.843h4.466c0,4.108-3.331,7.441-7.441,7.441s-7.441-3.333-7.441-7.441v-7.44
		c0-4.11,3.331-7.441,7.441-7.441s7.441,3.331,7.441,7.441v4.166h-10.416v3.274c0,1.644,1.33,2.976,2.975,2.976
		C119.793,247.818,121.124,246.486,121.124,244.843z"/>
</g>
<g id="LWPOLYLINE_69_">
	<path style="fill:#FFFFFF;" d="M135.411,236.807v15.478h-4.462v-22.323h4.462v1.193c1.573-0.784,3.303-1.193,5.061-1.193v4.719
		c-1.173-1.15-3.057-1.132-4.209,0.043C135.718,235.278,135.411,236.027,135.411,236.807z"/>
</g>
<g id="LWPOLYLINE_70_">
	<path style="fill:#FFFFFF;" d="M165.77,244.843h4.466c0,4.108-3.331,7.441-7.441,7.441s-7.441-3.333-7.441-7.441v-7.44
		c0-4.11,3.331-7.441,7.441-7.441s7.441,3.331,7.441,7.441v4.166h-10.416v3.274c0,1.644,1.33,2.976,2.975,2.976
		S165.77,246.486,165.77,244.843z"/>
</g>
<g id="LWPOLYLINE_72_">
	<path style="fill:#FFFFFF;" d="M180.056,229.961v21.728c0,3.616-2.93,6.547-6.548,6.547h-0.595l0.595-4.464
		c1.152,0,2.086-0.934,2.086-2.083v-21.728H180.056z"/>
</g>
<g id="LWPOLYLINE_73_">
	<rect x="175.594" y="222.521" style="fill:#FFFFFF;" width="4.462" height="4.464"/>
</g>
<g id="LWPOLYLINE_8_">
	<path style="fill:#FFFFFF;" d="M323.716,192.806l7.648,10.922c2.938-1.735,6.135-2.981,9.473-3.688
		c16.979-3.601,33.658,7.244,37.26,24.221c3.6,16.978-7.242,33.66-24.221,37.26c-16.979,3.601-33.662-7.245-37.26-24.221h-10.99
		c-2.527,0-4.941-1.067-6.645-2.937l-36.979-39.431l-2.11,6.916c13.548,5.745,21.297,20.121,18.644,34.594
		c-3.126,17.071-19.502,28.374-36.572,25.249c-17.07-3.129-28.376-19.502-25.247-36.572c3.126-17.072,19.502-28.376,36.572-25.248
		l8.974-29.445c1.347-4.416,5.42-7.434,10.035-7.434h12.109v6.896h-12.109c-1.579,0-2.978,1.035-3.439,2.548l-2.514,8.246
		l51.223,8.86l5.279-14.273l-11.637-3.194c-0.701-0.269-1.148-0.958-1.107-1.707c0.055-0.951,0.864-1.677,1.814-1.624h0.91h25.161
		v6.801h-7.892L323.716,192.806z"/>
</g>
<g id="LWPOLYLINE_55_">
	<path style="fill:#005EB8;" d="M110.113,195.235c0,1.645,1.333,2.977,2.975,2.977c1.645,0,2.978-1.332,2.978-2.977v-7.441
		c0-1.643-1.333-2.975-2.978-2.975c-1.642,0-2.975,1.332-2.975,2.975V195.235z"/>
</g>
<g id="LWPOLYLINE_59_">
	<path style="fill:#005EB8;" d="M166.666,188.092h5.95v-0.298c0-1.643-1.33-2.975-2.975-2.975c-1.645,0-2.975,1.332-2.975,2.975
		V188.092z"/>
</g>
<g id="LWPOLYLINE_64_">
	<path style="fill:#005EB8;" d="M80.944,241.88c-1.488,0.359-2.873,1.065-4.035,2.063c-1.043,0.917-1.631,2.243-1.618,3.632
		c0.021,0.902,0.77,1.619,1.676,1.601c0.072-0.004,0.147-0.009,0.219-0.021c1.317-0.212,2.585-0.645,3.758-1.277V241.88z"/>
</g>
<g id="LWPOLYLINE_68_">
	<path style="fill:#005EB8;" d="M115.174,237.699h5.95v-0.297c0-1.646-1.33-2.978-2.975-2.978c-1.645,0-2.975,1.332-2.975,2.978
		V237.699z"/>
</g>
<g id="LWPOLYLINE_71_">
	<path style="fill:#005EB8;" d="M159.819,237.699h5.95v-0.297c0-1.646-1.33-2.978-2.975-2.978s-2.975,1.332-2.975,2.978V237.699z"/>
</g>
<g id="LWPOLYLINE_7_">
	<polygon style="fill:#005EB8;" points="264.322,187.329 315.136,196.119 303.106,228.653 	"/>
</g>
<g id="LWPOLYLINE_6_">
	<path style="fill:#005EB8;" d="M329.857,213.592c-4.414,4.495-6.928,10.514-7.027,16.811h18.805L329.857,213.592z"/>
</g>
<g id="LWPOLYLINE_5_">
	<path style="fill:#005EB8;" d="M315.933,230.402c0.102-8.546,3.683-16.683,9.916-22.531l-5.043-7.198l-10.994,29.729h6.172H315.933
		z"/>
</g>
<g id="LWPOLYLINE_4_">
	<path style="fill:#005EB8;" d="M349.927,230.221c0.529,0.756,0.813,1.657,0.813,2.58c0,2.484-2.014,4.499-4.496,4.499h-22.535
		c3.602,13.059,17.108,20.728,30.168,17.127c13.059-3.6,20.727-17.105,17.129-30.166c-3.602-13.06-17.109-20.728-30.168-17.127
		c-1.918,0.528-3.766,1.289-5.498,2.264L349.927,230.221z"/>
</g>
<g id="LWPOLYLINE_3_">
	<path style="fill:#005EB8;" d="M257.869,208.493l-6.895,22.624c-0.044,0.201-0.102,0.399-0.181,0.59
		c-0.718,1.772-2.735,2.626-4.507,1.908c-1.775-0.719-2.627-2.737-1.908-4.509l6.883-22.585
		c-13.396-2.007-25.885,7.228-27.893,20.624c-2.008,13.397,7.226,25.886,20.623,27.893c13.398,2.008,25.887-7.227,27.894-20.623
		C273.503,223.618,267.789,213.052,257.869,208.493z"/>
</g>
</svg>
