<?xml version="1.0" encoding="iso-8859-1"?>
<!-- Generator: Adobe Illustrator 16.0.0, SVG Export Plug-In . SVG Version: 6.00 Build 0)  -->
<!DOCTYPE svg PUBLIC "-//W3C//DTD SVG 1.1//EN" "http://www.w3.org/Graphics/SVG/1.1/DTD/svg11.dtd">
<svg version="1.1" id="Layer_1" xmlns="http://www.w3.org/2000/svg" xmlns:xlink="http://www.w3.org/1999/xlink" x="0px" y="0px"
	 width="425.197px" height="425.196px" viewBox="0 0 425.197 425.196" style="enable-background:new 0 0 425.197 425.196;"
	 xml:space="preserve">
<g id="LWPOLYLINE_69_">
	
		<rect x="14.174" y="63.779" style="fill:#005EB8;stroke:#005EB8;stroke-width:0.5;stroke-miterlimit:10;" width="396.849" height="297.638"/>
</g>
<g id="LWPOLYLINE_68_">
	<path style="fill:#FFFFFF;" d="M40.627,361.417h343.941c14.608,0,26.454-11.845,26.454-26.458V90.233
		c0-14.608-11.846-26.454-26.454-26.454H40.627c-14.607,0-26.453,11.846-26.453,26.454v244.726
		C14.174,349.572,26.02,361.417,40.627,361.417z"/>
</g>
<g id="LWPOLYLINE_67_">
	<path style="fill:#005EB8;" d="M40.627,348.186h343.941c7.304,0,13.223-5.918,13.223-13.227V90.233
		c0-7.305-5.919-13.228-13.223-13.228H40.627c-7.304,0-13.227,5.923-13.227,13.228v244.726
		C27.401,342.268,33.324,348.186,40.627,348.186z"/>
</g>
<g id="LWPOLYLINE_74_">
	<polygon style="fill:#FFFFFF;" points="125.488,133.229 147.316,133.229 147.316,127.273 131.442,127.273 131.442,115.369 
		142.157,115.369 142.157,109.419 131.442,109.419 131.442,99.498 147.316,99.498 147.316,93.543 125.488,93.543 	"/>
</g>
<g id="LWPOLYLINE_75_">
	<rect x="154.456" y="103.465" style="fill:#FFFFFF;" width="5.955" height="29.764"/>
</g>
<g id="LWPOLYLINE_22_">
	<rect x="154.456" y="93.543" style="fill:#FFFFFF;" width="5.955" height="5.955"/>
</g>
<g id="LWPOLYLINE_21_">
	<polygon style="fill:#FFFFFF;" points="186.208,133.229 180.252,133.229 180.252,93.543 186.208,93.543 186.208,115.474 
		194.141,103.465 200.095,103.465 193.302,113.654 200.141,133.237 194.141,133.229 189.363,119.568 186.208,124.301 	"/>
</g>
<g id="LWPOLYLINE_20_">
	<path style="fill:#FFFFFF;" d="M204.463,123.307c0,5.48,4.44,9.922,9.921,9.922s9.922-4.441,9.922-9.922v-9.921
		c0-5.48-4.441-9.921-9.922-9.921s-9.921,4.44-9.921,9.921V123.307z"/>
</g>
<g id="LWPOLYLINE_19_">
	<path style="fill:#FFFFFF;" d="M229.859,123.307c0,5.48,4.441,9.922,9.922,9.922h0.793c4.824,0,8.736-3.912,8.736-8.731
		c0-3.105-1.65-5.978-4.341-7.546l-6.584-3.839c-0.61-0.355-0.984-1.003-0.984-1.715c0-1.094,0.894-1.979,1.987-1.979h1.186
		c1.095,0,1.988,0.885,1.988,1.979h5.954c0-4.382-3.556-7.933-7.942-7.933h-1.186c-4.386,0-7.942,3.551-7.942,7.933
		c0,2.827,1.505,5.435,3.939,6.857l6.593,3.839c0.848,0.502,1.377,1.414,1.377,2.403c0,1.536-1.24,2.776-2.781,2.776h-0.793
		c-2.188,0-3.967-1.778-3.967-3.967H229.859z"/>
</g>
<g id="LWPOLYLINE_18_">
	<polygon style="fill:#FFFFFF;" points="262.003,133.229 256.058,133.229 256.058,93.543 262.003,93.543 262.003,115.474 
		269.946,103.465 275.9,103.465 269.097,113.654 275.937,133.237 269.946,133.229 265.158,119.568 262.003,124.301 	"/>
</g>
<g id="LWPOLYLINE_17_">
	<path style="fill:#FFFFFF;" d="M293.754,123.307h5.955c0,5.48-4.441,9.922-9.921,9.922c-5.48,0-9.922-4.441-9.922-9.922v-9.921
		c0-5.48,4.441-9.921,9.922-9.921c5.479,0,9.921,4.44,9.921,9.921v5.554h-13.888v4.367c0,2.188,1.769,3.967,3.967,3.967
		C291.976,127.273,293.754,125.495,293.754,123.307z"/>
</g>
<g id="LWPOLYLINE_16_">
	<path style="fill:#FFFFFF;" d="M145.328,331.653h3.976v-21.83h-12.9v5.954h6.946v2.781v0.196c0,3.834-3.112,6.944-6.946,6.944
		c-3.835,0-6.944-3.11-6.944-6.944v-13.893c0-3.83,3.109-6.939,6.944-6.939c3.834,0,6.946,3.109,6.946,6.939h5.954
		c0-7.122-5.781-12.894-12.9-12.894c-7.122,0-12.898,5.771-12.898,12.894v13.893c0.004,7.108,5.771,12.862,12.88,12.857
		c2.636-0.005,5.207-0.816,7.366-2.33L145.328,331.653z"/>
</g>
<g id="LWPOLYLINE_15_">
	<rect x="168.745" y="291.969" style="fill:#FFFFFF;" width="5.955" height="5.954"/>
</g>
<g id="LWPOLYLINE_14_">
	<rect x="158.03" y="291.969" style="fill:#FFFFFF;" width="5.955" height="5.954"/>
</g>
<g id="LWPOLYLINE_13_">
	<path style="fill:#FFFFFF;" d="M175.493,331.653h-5.954v-1.905c-2.39,1.29-5.07,1.946-7.788,1.905
		c-2.443,0.063-4.642-1.478-5.416-3.794c-0.967-3.045-0.155-6.373,2.106-8.626c2.899-3.114,6.857-5.016,11.098-5.334v-3.083
		c0-1.641-1.332-2.973-2.973-2.973c-1.642,0-2.982,1.332-2.982,2.973h-5.945c0-4.933,3.994-8.927,8.928-8.927
		c4.933,0,8.927,3.994,8.927,8.927V331.653z"/>
</g>
<g id="LWPOLYLINE_12_">
	<rect x="182.632" y="291.969" style="fill:#FFFFFF;" width="5.955" height="39.685"/>
</g>
<g id="LWPOLYLINE_11_">
	<rect x="196.53" y="291.969" style="fill:#FFFFFF;" width="5.945" height="39.685"/>
</g>
<g id="LWPOLYLINE_10_">
	<path style="fill:#FFFFFF;" d="M223.111,321.732h5.955c0,5.48-4.44,9.921-9.921,9.921s-9.922-4.44-9.922-9.921v-9.922
		c0-5.48,4.441-9.921,9.922-9.921s9.921,4.44,9.921,9.921v5.554h-13.888v4.368c0,2.188,1.778,3.967,3.967,3.967
		C221.342,325.699,223.111,323.921,223.111,321.732z"/>
</g>
<g id="LWPOLYLINE_9_">
	<path style="fill:#FFFFFF;" d="M242.161,311.018v20.636h-5.945V301.89h5.945v1.591c2.098-1.044,4.404-1.591,6.748-1.591v6.292
		c-1.56-1.532-4.076-1.51-5.608,0.055C242.571,308.979,242.161,309.978,242.161,311.018z"/>
</g>
<g id="LWPOLYLINE_8_">
	<path style="fill:#FFFFFF;" d="M282.639,321.732h5.954c0,5.48-4.44,9.921-9.921,9.921s-9.921-4.44-9.921-9.921v-9.922
		c0-5.48,4.44-9.921,9.921-9.921s9.921,4.44,9.921,9.921v5.554h-13.888v4.368c0,2.188,1.778,3.967,3.967,3.967
		C280.87,325.699,282.639,323.921,282.639,321.732z"/>
</g>
<g id="LWPOLYLINE_7_">
	<path style="fill:#FFFFFF;" d="M301.688,305.195v28.971c0,4.818-3.902,8.73-8.727,8.73h-0.793l0.793-5.954
		c1.532,0,2.781-1.24,2.781-2.776v-28.971H301.688z"/>
</g>
<g id="LWPOLYLINE_6_">
	<rect x="295.743" y="291.969" style="fill:#FFFFFF;" width="5.945" height="5.954"/>
</g>
<g id="LWPOLYLINE_131_">
	<path style="fill:#FFFFFF;" d="M244.833,188.447l9.338,13.327c3.583-2.116,7.486-3.639,11.563-4.5
		c20.709-4.392,41.062,8.841,45.457,29.554s-8.836,41.066-29.554,45.462c-20.719,4.396-41.071-8.836-45.467-29.554h-13.404
		c-3.082,0-6.027-1.3-8.107-3.584l-45.119-48.111l-2.572,8.439c16.523,7.008,25.979,24.553,22.743,42.211
		c-3.813,20.828-23.791,34.62-44.619,30.809c-20.829-3.821-34.621-23.801-30.81-44.628c3.816-20.827,23.795-34.619,44.625-30.804
		l10.951-35.928c1.642-5.389,6.611-9.073,12.247-9.073h14.772v8.417h-14.772c-1.934,0-3.639,1.263-4.204,3.109l-3.063,10.058
		l62.5,10.815l6.438-17.417l-14.198-3.898c-0.857-0.323-1.404-1.167-1.35-2.083c0.063-1.158,1.058-2.043,2.216-1.979h1.112h30.694
		v8.298h-9.63L244.833,188.447z"/>
</g>
<g id="LWPOLYLINE_5_">
	<path style="fill:#005EB8;" d="M210.417,123.307c0,2.188,1.778,3.967,3.967,3.967c2.189,0,3.967-1.778,3.967-3.967v-9.921
		c0-2.193-1.777-3.967-3.967-3.967c-2.188,0-3.967,1.773-3.967,3.967V123.307z"/>
</g>
<g id="LWPOLYLINE_4_">
	<path style="fill:#005EB8;" d="M285.822,113.782h7.933v-0.396c0-2.193-1.778-3.967-3.966-3.967c-2.198,0-3.967,1.773-3.967,3.967
		V113.782z"/>
</g>
<g id="LWPOLYLINE_3_">
	<path style="fill:#005EB8;" d="M169.539,317.783c-1.988,0.475-3.83,1.418-5.381,2.75c-1.386,1.222-2.179,2.99-2.151,4.842
		c0.027,1.204,1.021,2.156,2.225,2.134c0.101-0.005,0.2-0.014,0.301-0.027c1.751-0.282,3.447-0.861,5.007-1.7V317.783z"/>
</g>
<g id="LWPOLYLINE_2_">
	<path style="fill:#005EB8;" d="M215.178,312.207h7.933v-0.396c0-2.192-1.769-3.967-3.966-3.967c-2.188,0-3.967,1.774-3.967,3.967
		V312.207z"/>
</g>
<g id="LWPOLYLINE_1_">
	<path style="fill:#005EB8;" d="M274.706,312.207h7.934v-0.396c0-2.192-1.77-3.967-3.967-3.967c-2.188,0-3.967,1.774-3.967,3.967
		V312.207z"/>
</g>
<g id="LWPOLYLINE_128_">
	<polygon style="fill:#005EB8;" points="172.365,181.768 234.373,192.491 219.692,232.186 	"/>
</g>
<g id="LWPOLYLINE_129_">
	<path style="fill:#005EB8;" d="M252.328,213.811c-5.38,5.48-8.453,12.826-8.571,20.509h22.942L252.328,213.811z"/>
</g>
<g id="LWPOLYLINE_130_">
	<path style="fill:#005EB8;" d="M235.339,234.319c0.128-10.423,4.496-20.354,12.101-27.493l-6.155-8.781l-13.413,36.274h7.532
		H235.339z"/>
</g>
<g id="LWPOLYLINE_132_">
	<path style="fill:#005EB8;" d="M276.821,234.101c0.639,0.921,0.985,2.024,0.985,3.146c0,3.032-2.453,5.49-5.48,5.49h-27.493
		c4.386,15.935,20.863,25.291,36.804,20.899c15.93-4.395,25.295-20.872,20.9-36.808c-4.396-15.936-20.873-25.291-36.804-20.896
		c-2.344,0.643-4.596,1.568-6.712,2.763L276.821,234.101"/>
</g>
<g id="LWPOLYLINE_133_">
	<path style="fill:#005EB8;" d="M164.496,207.588l-8.417,27.606c-0.045,0.246-0.118,0.483-0.219,0.721
		c-0.875,2.161-3.337,3.2-5.499,2.325c-2.161-0.875-3.2-3.338-2.325-5.498l8.398-27.558c-16.348-2.453-31.585,8.818-34.033,25.163
		c-2.453,16.346,8.813,31.583,25.161,34.031c16.35,2.449,31.588-8.813,34.031-25.163
		C183.572,226.044,176.596,213.15,164.496,207.588z"/>
</g>
</svg>
