<?xml version="1.0" encoding="utf-8"?>
<!-- Generator: Adobe Illustrator 16.0.0, SVG Export Plug-In . SVG Version: 6.00 Build 0)  -->
<!DOCTYPE svg PUBLIC "-//W3C//DTD SVG 1.1//EN" "http://www.w3.org/Graphics/SVG/1.1/DTD/svg11.dtd">
<svg version="1.1" id="Layer_1" xmlns="http://www.w3.org/2000/svg" xmlns:xlink="http://www.w3.org/1999/xlink" x="0px" y="0px"
	 width="425.197px" height="425.196px" viewBox="0 0 425.197 425.196" enable-background="new 0 0 425.197 425.196"
	 xml:space="preserve">
<g id="LWPOLYLINE_50_">
	
		<rect x="14.173" y="80.314" fill="#005EB8" stroke="#231F20" stroke-width="0.5" stroke-miterlimit="10" width="396.851" height="264.568"/>
</g>
<g id="LWPOLYLINE_48_">
	<path fill="#FFFFFF" d="M40.626,344.882H384.57c14.608,0,26.454-11.846,26.454-26.459v-211.65
		c0-14.613-11.846-26.459-26.454-26.459H40.626c-14.608,0-26.453,11.846-26.453,26.459v211.65
		C14.173,333.036,26.018,344.882,40.626,344.882z"/>
</g>
<g id="LWPOLYLINE_49_">
	<path fill="#005EB8" d="M40.626,331.651H384.57c7.304,0,13.222-5.92,13.222-13.229v-211.65c0-7.305-5.918-13.232-13.222-13.232
		H40.626c-7.304,0-13.222,5.928-13.222,13.232v211.65C27.405,325.731,33.323,331.651,40.626,331.651z"/>
</g>
<g id="LWPOLYLINE_74_">
	<path fill="#FFFFFF" d="M100.126,174.898H88.217v1.984c0,7.674-6.219,13.887-13.888,13.887s-13.888-6.213-13.888-13.887v-27.781
		c0-7.668,6.219-13.887,13.888-13.887s13.888,6.219,13.888,13.887v1.984h11.909v-1.984c0-14.242-11.554-25.797-25.797-25.797
		s-25.797,11.555-25.797,25.797v27.781c0,14.248,11.554,25.792,25.797,25.792s25.797-11.544,25.797-25.792V174.898z"/>
</g>
<g id="LWPOLYLINE_76_">
	<path fill="#FFFFFF" d="M163.622,176.882v-27.781c0-14.242-11.545-25.797-25.798-25.797c-14.243,0-25.797,11.555-25.797,25.797
		v27.781c0,14.248,11.554,25.792,25.797,25.792C152.077,202.675,163.622,191.13,163.622,176.882z"/>
</g>
<g id="LWPOLYLINE_77_">
	<path fill="#FFFFFF" d="M139.73,299.243c-3.411,2.123-7.25,3.473-11.243,3.965c-6.575,0-11.9-5.324-11.9-11.898v-0.334
		l0.027-27.205c1.104-5.736,6.027-9.953,11.873-10.168c3.984,0.506,7.814,1.838,11.243,3.912v-3.912h9.921v45.641
		c0,2.324-0.511,4.613-1.486,6.719c-3.711,7.943-13.158,11.371-21.101,7.66l4.194-8.986c2.982,1.391,6.52,0.105,7.915-2.873
		C139.539,300.976,139.73,300.112,139.73,299.243z"/>
</g>
<g id="LWPOLYLINE_79_">
	<path fill="#FFFFFF" d="M298.689,264.851c0-2.559-2.079-4.633-4.633-4.633h-0.665c-4.377,0-7.934,3.553-7.934,7.938v33.73h-9.922
		v-37.035c0-2.559-2.069-4.633-4.632-4.633h-0.656c-4.387,0-7.942,3.553-7.942,7.938v33.73h-9.922V252.28h9.922v3.971
		c3.246-2.01,6.866-3.336,10.642-3.889c0.465-0.064,0.93-0.082,1.404-0.055c3.692,0.246,7.066,2.207,9.118,5.299
		c3.712-2.773,8.053-4.574,12.63-5.244c0.465-0.064,0.931-0.082,1.396-0.055c6.255,0.42,11.115,5.613,11.115,11.883v37.695h-9.921
		V264.851z"/>
</g>
<g id="LWPOLYLINE_80_">
	<polygon fill="#FFFFFF" points="232.422,269.327 243.785,301.886 233.799,301.878 225.857,279.181 220.641,287.005 
		220.641,301.886 210.719,301.886 210.719,235.747 220.641,235.747 220.641,270.71 231.866,252.28 243.785,252.28 	"/>
</g>
<g id="LWPOLYLINE_81_">
	<path fill="#FFFFFF" d="M203.197,174.871c2.535-3.363,3.109-7.814,1.505-11.713c-2.764-6.688-10.414-9.871-17.098-7.117
		c-4.906,2.025-8.107,6.803-8.107,12.109v2.381h7.141v-2.381c0-0.145,0.009-0.287,0.018-0.428c0.237-3.283,3.092-5.744,6.365-5.508
		c3.283,0.236,5.745,3.086,5.508,6.365c-0.063,0.902-0.383,1.764-0.921,2.488l-18.11,24.467v7.14h26.189v-7.14h-18.092
		L203.197,174.871z"/>
</g>
<g id="LWPOLYLINE_82_">
	<polygon fill="#FFFFFF" points="295.971,167.787 280.095,202.675 291.339,202.675 301.588,180.142 311.847,202.675 323.09,202.675 
		307.215,167.787 321.431,136.537 310.188,136.537 301.588,155.429 292.999,136.537 281.747,136.537 	"/>
</g>
<g id="LWPOLYLINE_83_">
	<polygon fill="#FFFFFF" points="349.544,167.787 333.668,202.675 344.913,202.675 355.17,180.142 365.42,202.675 376.664,202.675 
		360.788,167.787 375.013,136.537 363.77,136.537 355.17,155.429 346.572,136.537 335.329,136.537 	"/>
</g>
<g id="LWPOLYLINE_84_">
	<polygon fill="#FFFFFF" points="232.14,169.605 265.213,184.488 265.213,194.408 222.218,175.195 222.218,164.015 265.213,144.802 
		265.213,154.724 	"/>
</g>
<g id="LWPOLYLINE_85_">
	<polygon fill="#FFFFFF" points="183.911,235.747 166.193,301.886 176.46,301.886 194.178,235.747 	"/>
</g>
<g id="LWPOLYLINE_75_">
	<path fill="#005EB8" d="M151.711,176.882v-27.781c0-7.668-6.219-13.887-13.888-13.887s-13.888,6.219-13.888,13.887v27.781
		c0,7.674,6.219,13.887,13.888,13.887S151.711,184.556,151.711,176.882z"/>
</g>
<g id="LWPOLYLINE_78_">
	<path fill="#005EB8" d="M126.507,288.659c0,3.652,2.955,6.617,6.611,6.617c3.647,0,6.611-2.965,6.611-6.617v-20.504
		c0-3.65-2.964-6.609-6.611-6.609c-3.656,0-6.611,2.959-6.611,6.609V288.659z"/>
</g>
</svg>
