<?xml version="1.0" encoding="iso-8859-1"?>
<!-- Generator: Adobe Illustrator 16.0.0, SVG Export Plug-In . SVG Version: 6.00 Build 0)  -->
<!DOCTYPE svg PUBLIC "-//W3C//DTD SVG 1.1//EN" "http://www.w3.org/Graphics/SVG/1.1/DTD/svg11.dtd">
<svg version="1.1" id="Layer_1" xmlns="http://www.w3.org/2000/svg" xmlns:xlink="http://www.w3.org/1999/xlink" x="0px" y="0px"
	 width="425.197px" height="425.196px" viewBox="0 0 425.197 425.196" style="enable-background:new 0 0 425.197 425.196;"
	 xml:space="preserve">
<g id="LWPOLYLINE_59_">
	
		<rect x="14.174" y="113.385" style="fill:#005EB8;stroke:#005EB8;stroke-width:0.5;stroke-miterlimit:10;" width="396.849" height="198.427"/>
</g>
<g id="LWPOLYLINE_61_">
	<path style="fill:#FFFFFF;" d="M391.182,113.385H34.018c-10.959,0-19.844,8.884-19.844,19.844v158.739
		c0,10.96,8.884,19.844,19.844,19.844h357.165c10.956,0,19.841-8.884,19.841-19.844V133.229
		C411.023,122.269,402.138,113.385,391.182,113.385z"/>
</g>
<g id="LWPOLYLINE_60_">
	<path style="fill:#005EB8;" d="M391.182,123.307H34.018c-5.481,0-9.923,4.442-9.923,9.922v158.739c0,5.481,4.442,9.92,9.923,9.92
		h357.165c5.479,0,9.924-4.438,9.924-9.92V133.229C401.106,127.749,396.661,123.307,391.182,123.307z"/>
</g>
<g id="LWPOLYLINE_69_">
	<polygon style="fill:#FFFFFF;" points="46.417,227.479 62.79,227.479 62.79,223.016 50.883,223.016 50.883,214.088 58.919,214.088 
		58.919,209.621 50.883,209.621 50.883,202.181 62.79,202.181 62.79,197.715 46.417,197.715 	"/>
</g>
<g id="LWPOLYLINE_70_">
	<rect x="68.145" y="205.155" style="fill:#FFFFFF;" width="4.466" height="22.323"/>
</g>
<g id="LWPOLYLINE_71_">
	<rect x="68.145" y="197.715" style="fill:#FFFFFF;" width="4.466" height="4.466"/>
</g>
<g id="LWPOLYLINE_72_">
	<polygon style="fill:#FFFFFF;" points="91.958,227.479 87.493,227.479 87.493,197.715 91.958,197.715 91.955,214.163 
		97.909,205.155 102.375,205.155 97.28,212.802 102.402,227.485 97.909,227.479 94.325,217.233 91.958,220.783 	"/>
</g>
<g id="LWPOLYLINE_73_">
	<path style="fill:#FFFFFF;" d="M105.647,220.037c0,4.11,3.334,7.441,7.441,7.441c4.11,0,7.441-3.331,7.441-7.441v-7.44
		c0-4.11-3.331-7.441-7.441-7.441c-4.107,0-7.441,3.331-7.441,7.441V220.037z"/>
</g>
<g id="LWPOLYLINE_75_">
	<path style="fill:#FFFFFF;" d="M124.698,220.037c0,4.11,3.331,7.441,7.441,7.441h0.595c3.618,0,6.548-2.931,6.548-6.545
		c0-2.332-1.238-4.486-3.252-5.659l-4.938-2.88c-0.458-0.263-0.739-0.756-0.739-1.285c0-0.821,0.664-1.488,1.488-1.488h0.892
		c0.821,0,1.488,0.667,1.488,1.488h4.466c0-3.286-2.667-5.954-5.954-5.954h-0.892c-3.29,0-5.954,2.668-5.954,5.954
		c0,2.116,1.125,4.079,2.955,5.143l4.941,2.879c0.64,0.373,1.033,1.061,1.033,1.803c0,1.148-0.934,2.082-2.083,2.082h-0.595
		c-1.645,0-2.975-1.333-2.975-2.979H124.698z"/>
</g>
<g id="LWPOLYLINE_76_">
	<polygon style="fill:#FFFFFF;" points="148.806,227.479 144.343,227.479 144.343,197.715 148.806,197.715 148.806,214.163 
		154.759,205.155 159.225,205.155 154.126,212.802 159.252,227.485 154.759,227.479 151.172,217.233 148.806,220.783 	"/>
</g>
<g id="LWPOLYLINE_77_">
	<path style="fill:#FFFFFF;" d="M172.616,220.037h4.466c0,4.11-3.331,7.441-7.441,7.441s-7.441-3.331-7.441-7.441v-7.44
		c0-4.11,3.331-7.441,7.441-7.441s7.441,3.331,7.441,7.441v4.168h-10.416v3.272c0,1.646,1.33,2.979,2.975,2.979
		C171.286,223.016,172.616,221.683,172.616,220.037z"/>
</g>
<g id="LWPOLYLINE_65_">
	<path style="fill:#FFFFFF;" d="M323.714,192.804l7.653,10.923c2.934-1.734,6.135-2.982,9.472-3.687
		c16.975-3.601,33.655,7.242,37.26,24.221c3.598,16.979-7.242,33.658-24.225,37.26c-16.975,3.601-33.662-7.246-37.259-24.221
		h-10.991c-2.523,0-4.938-1.067-6.641-2.935l-36.98-39.435l-2.11,6.918c13.549,5.745,21.298,20.121,18.644,34.596
		c-3.125,17.07-19.502,28.372-36.572,25.247c-17.07-3.129-28.375-19.502-25.246-36.572c3.125-17.07,19.502-28.376,36.572-25.25
		l8.973-29.442c1.348-4.418,5.42-7.435,10.036-7.435h12.108v6.894h-12.108c-1.579,0-2.979,1.036-3.439,2.552l-2.514,8.244
		l51.22,8.86l5.28-14.273l-11.634-3.193c-0.704-0.268-1.148-0.958-1.107-1.707c0.055-0.95,0.861-1.679,1.812-1.624h0.91h25.161
		v6.802h-7.893L323.714,192.804z"/>
</g>
<g id="LWPOLYLINE_62_">
	<polygon style="fill:#005EB8;" points="264.322,187.329 315.138,196.121 303.108,228.655 	"/>
</g>
<g id="LWPOLYLINE_63_">
	<path style="fill:#005EB8;" d="M329.856,213.592c-4.411,4.496-6.928,10.515-7.023,16.811h18.801L329.856,213.592z"/>
</g>
<g id="LWPOLYLINE_64_">
	<path style="fill:#005EB8;" d="M315.931,230.402c0.103-8.546,3.687-16.685,9.917-22.531l-5.04-7.198l-10.998,29.729h6.176H315.931z
		"/>
</g>
<g id="LWPOLYLINE_66_">
	<path style="fill:#005EB8;" d="M349.929,230.221c0.526,0.756,0.813,1.655,0.813,2.579c0,2.485-2.018,4.5-4.5,4.5h-22.535
		c3.604,13.059,17.111,20.729,30.167,17.125c13.063-3.598,20.729-17.104,17.133-30.164c-3.604-13.06-17.112-20.727-30.168-17.129
		c-1.922,0.53-3.769,1.293-5.498,2.264L349.929,230.221z"/>
</g>
<g id="LWPOLYLINE_67_">
	<path style="fill:#005EB8;" d="M257.869,208.493l-6.894,22.624c-0.044,0.201-0.103,0.399-0.181,0.588
		c-0.719,1.774-2.736,2.626-4.508,1.908c-1.774-0.718-2.626-2.735-1.908-4.507l6.884-22.583
		c-13.397-2.011-25.886,7.226-27.894,20.62c-2.007,13.397,7.227,25.886,20.624,27.896c13.397,2.004,25.886-7.229,27.894-20.627
		C273.503,223.618,267.79,213.052,257.869,208.493z"/>
</g>
<g id="LWPOLYLINE_74_">
	<path style="fill:#005EB8;" d="M110.113,220.037c0,1.646,1.333,2.979,2.975,2.979c1.645,0,2.978-1.333,2.978-2.979v-7.44
		c0-1.642-1.333-2.976-2.978-2.976c-1.642,0-2.975,1.334-2.975,2.976V220.037z"/>
</g>
<g id="LWPOLYLINE_78_">
	<path style="fill:#005EB8;" d="M166.666,212.897h5.95v-0.301c0-1.642-1.33-2.976-2.975-2.976c-1.645,0-2.975,1.334-2.975,2.976
		V212.897z"/>
</g>
</svg>
