<?xml version="1.0" encoding="UTF-8"?>
<svg id="Layer_1" data-name="Layer 1" xmlns="http://www.w3.org/2000/svg" version="1.1" viewBox="0 0 396.9 297.6">
  <defs>
    <style>
      .cls-1 {
        fill: #121921;
      }

      .cls-1, .cls-2, .cls-3 {
        stroke-width: 0px;
      }

      .cls-2 {
        fill: #ffce04;
      }

      .cls-3 {
        fill: #e31e2e;
      }
    </style>
  </defs>
  <g id="LWPOLYLINE">
    <rect class="cls-2" x="0" y="0" width="396.8" height="297.6"/>
  </g>
  <g id="LWPOLYLINE-2" data-name="LWPOLYLINE">
    <path class="cls-3" d="M26.5,297.6h343.9c14.6,0,26.5-11.8,26.5-26.5V26.5C396.8,11.8,385,0,370.4,0H26.5C11.8,0,0,11.8,0,26.5v244.7c0,14.6,11.8,26.5,26.5,26.5Z"/>
  </g>
  <g id="LWPOLYLINE-3" data-name="LWPOLYLINE">
    <path class="cls-2" d="M26.5,284.4h343.9c7.3,0,13.2-5.9,13.2-13.2V26.5c0-7.3-5.9-13.2-13.2-13.2H26.5c-7.3,0-13.2,5.9-13.2,13.2v244.7c0,7.3,5.9,13.2,13.2,13.2Z"/>
  </g>
  <g id="LWPOLYLINE-4" data-name="LWPOLYLINE">
    <polygon class="cls-1" points="111.3 69.5 133.1 69.5 133.1 63.5 117.3 63.5 117.3 51.6 128 51.6 128 45.6 117.3 45.6 117.3 35.7 133.1 35.7 133.1 29.8 111.3 29.8 111.3 69.5"/>
  </g>
  <g id="LWPOLYLINE-5" data-name="LWPOLYLINE">
    <rect class="cls-1" x="140.3" y="39.7" width="6" height="29.8"/>
  </g>
  <g id="LWPOLYLINE-6" data-name="LWPOLYLINE">
    <rect class="cls-1" x="140.3" y="29.8" width="6" height="6"/>
  </g>
  <g id="LWPOLYLINE-7" data-name="LWPOLYLINE">
    <polygon class="cls-1" points="172 69.5 166.1 69.5 166.1 29.8 172 29.8 172 51.7 180 39.7 185.9 39.7 179.1 49.9 186 69.5 180 69.5 175.2 55.8 172 60.5 172 69.5"/>
  </g>
  <g id="LWPOLYLINE-8" data-name="LWPOLYLINE">
    <path class="cls-1" d="M190.3,59.5c0,5.5,4.4,9.9,9.9,9.9s9.9-4.4,9.9-9.9v-9.9c0-5.5-4.4-9.9-9.9-9.9s-9.9,4.4-9.9,9.9v9.9Z"/>
  </g>
  <g id="LWPOLYLINE-9" data-name="LWPOLYLINE">
    <path class="cls-1" d="M215.7,59.5c0,5.5,4.4,9.9,9.9,9.9h.8c4.8,0,8.7-3.9,8.7-8.7s-1.6-6-4.3-7.5l-6.6-3.8c-.6-.4-1-1-1-1.7,0-1.1.9-2,2-2h1.2c1.1,0,2,.9,2,2h6c0-4.4-3.6-7.9-7.9-7.9h-1.2c-4.4,0-7.9,3.6-7.9,7.9s1.5,5.4,3.9,6.9l6.6,3.8c.8.5,1.4,1.4,1.4,2.4,0,1.5-1.2,2.8-2.8,2.8h-.8c-2.2,0-4-1.8-4-4h-6Z"/>
  </g>
  <g id="LWPOLYLINE-10" data-name="LWPOLYLINE">
    <polygon class="cls-1" points="247.8 69.5 241.9 69.5 241.9 29.8 247.8 29.8 247.8 51.7 255.8 39.7 261.7 39.7 254.9 49.9 261.8 69.5 255.8 69.5 251 55.8 247.8 60.5 247.8 69.5"/>
  </g>
  <g id="LWPOLYLINE-11" data-name="LWPOLYLINE">
    <path class="cls-1" d="M279.6,59.5h6c0,5.5-4.4,9.9-9.9,9.9s-9.9-4.4-9.9-9.9v-9.9c0-5.5,4.4-9.9,9.9-9.9s9.9,4.4,9.9,9.9v5.6h-13.9v4.4c0,2.2,1.8,4,4,4,2.2,0,4-1.8,4-4Z"/>
  </g>
  <g id="LWPOLYLINE-12" data-name="LWPOLYLINE">
    <path class="cls-1" d="M131.2,267.9h4v-21.8h-12.9v6h6.9v3c0,3.8-3.1,6.9-6.9,6.9s-6.9-3.1-6.9-6.9v-13.9c0-3.8,3.1-6.9,6.9-6.9s6.9,3.1,6.9,6.9h6c0-7.1-5.8-12.9-12.9-12.9s-12.9,5.8-12.9,12.9v13.9c0,7.1,5.8,12.9,12.9,12.9,2.6,0,5.2-.8,7.4-2.3l1.6,2.4Z"/>
  </g>
  <g id="LWPOLYLINE-13" data-name="LWPOLYLINE">
    <rect class="cls-1" x="154.6" y="228.2" width="6" height="6"/>
  </g>
  <g id="LWPOLYLINE-14" data-name="LWPOLYLINE">
    <rect class="cls-1" x="143.9" y="228.2" width="6" height="6"/>
  </g>
  <g id="LWPOLYLINE-15" data-name="LWPOLYLINE">
    <path class="cls-1" d="M161.3,267.9h-6v-1.9c-2.4,1.3-5.1,1.9-7.8,1.9-2.4,0-4.6-1.5-5.4-3.8-1-3-.2-6.4,2.1-8.6,2.9-3.1,6.9-5,11.1-5.3v-3.1c0-1.6-1.3-3-3-3s-3,1.3-3,3h-5.9c0-4.9,4-8.9,8.9-8.9s8.9,4,8.9,8.9v20.8h0Z"/>
  </g>
  <g id="LWPOLYLINE-16" data-name="LWPOLYLINE">
    <rect class="cls-1" x="168.5" y="228.2" width="6" height="39.7"/>
  </g>
  <g id="LWPOLYLINE-17" data-name="LWPOLYLINE">
    <rect class="cls-1" x="182.4" y="228.2" width="5.9" height="39.7"/>
  </g>
  <g id="LWPOLYLINE-18" data-name="LWPOLYLINE">
    <path class="cls-1" d="M208.9,258h6c0,5.5-4.4,9.9-9.9,9.9s-9.9-4.4-9.9-9.9v-9.9c0-5.5,4.4-9.9,9.9-9.9s9.9,4.4,9.9,9.9v5.6h-13.9v4.4c0,2.2,1.8,4,4,4s4-1.8,4-4Z"/>
  </g>
  <g id="LWPOLYLINE-19" data-name="LWPOLYLINE">
    <path class="cls-1" d="M228,247.2v20.6h-5.9v-29.8h5.9v1.6c2.1-1,4.4-1.6,6.7-1.6v6.3c-1.6-1.5-4.1-1.5-5.6,0-.7.7-1.1,1.7-1.1,2.8Z"/>
  </g>
  <g id="LWPOLYLINE-20" data-name="LWPOLYLINE">
    <path class="cls-1" d="M268.5,258h6c0,5.5-4.4,9.9-9.9,9.9s-9.9-4.4-9.9-9.9v-9.9c0-5.5,4.4-9.9,9.9-9.9s9.9,4.4,9.9,9.9v5.6h-13.9v4.4c0,2.2,1.8,4,4,4s4-1.8,4-4Z"/>
  </g>
  <g id="LWPOLYLINE-21" data-name="LWPOLYLINE">
    <path class="cls-1" d="M287.5,241.4v29c0,4.8-3.9,8.7-8.7,8.7h-.8l.8-6c1.5,0,2.8-1.2,2.8-2.8v-29h5.9Z"/>
  </g>
  <g id="LWPOLYLINE-22" data-name="LWPOLYLINE">
    <rect class="cls-1" x="281.6" y="228.2" width="5.9" height="6"/>
  </g>
  <g id="LWPOLYLINE-23" data-name="LWPOLYLINE">
    <path class="cls-1" d="M230.7,124.7l9.3,13.3c3.6-2.1,7.5-3.6,11.6-4.5,20.7-4.4,41.1,8.8,45.5,29.6s-8.8,41.1-29.6,45.5c-20.7,4.4-41.1-8.8-45.5-29.6h-13.4c-3.1,0-6-1.3-8.1-3.6l-45.1-48.1-2.6,8.4c16.5,7,26,24.6,22.7,42.2-3.8,20.8-23.8,34.6-44.6,30.8-20.8-3.8-34.6-23.8-30.8-44.6,3.8-20.8,23.8-34.6,44.6-30.8l11-35.9c1.6-5.4,6.6-9.1,12.2-9.1h14.8v8.4h-14.8c-1.9,0-3.6,1.3-4.2,3.1l-3.1,10.1,62.5,10.8,6.4-17.4-14.2-3.9c-.9-.3-1.4-1.2-1.4-2.1,0-1.2,1.1-2,2.2-2h31.8v8.3h-9.6l-7.8,21.1Z"/>
  </g>
  <g id="LWPOLYLINE-24" data-name="LWPOLYLINE">
    <path class="cls-2" d="M196.2,59.5c0,2.2,1.8,4,4,4s4-1.8,4-4v-9.9c0-2.2-1.8-4-4-4s-4,1.8-4,4v9.9Z"/>
  </g>
  <g id="LWPOLYLINE-25" data-name="LWPOLYLINE">
    <path class="cls-2" d="M271.6,50h7.9v-.4c0-2.2-1.8-4-4-4s-4,1.8-4,4v.4Z"/>
  </g>
  <g id="LWPOLYLINE-26" data-name="LWPOLYLINE">
    <path class="cls-2" d="M155.4,254c-2,.5-3.8,1.4-5.4,2.8-1.4,1.2-2.2,3-2.2,4.8,0,1.2,1,2.2,2.2,2.1.1,0,.2,0,.3,0,1.8-.3,3.4-.9,5-1.7v-8h0Z"/>
  </g>
  <g id="LWPOLYLINE-27" data-name="LWPOLYLINE">
    <path class="cls-2" d="M201,248.4h7.9v-.4c0-2.2-1.8-4-4-4s-4,1.8-4,4v.4Z"/>
  </g>
  <g id="LWPOLYLINE-28" data-name="LWPOLYLINE">
    <path class="cls-2" d="M260.5,248.4h7.9v-.4c0-2.2-1.8-4-4-4s-4,1.8-4,4v.4h0Z"/>
  </g>
  <g id="LWPOLYLINE-29" data-name="LWPOLYLINE">
    <polygon class="cls-2" points="158.2 118 220.2 128.7 205.5 168.4 158.2 118"/>
  </g>
  <g id="LWPOLYLINE-30" data-name="LWPOLYLINE">
    <path class="cls-2" d="M238.2,150c-5.4,5.5-8.5,12.8-8.6,20.5h22.9l-14.4-20.5Z"/>
  </g>
  <g id="LWPOLYLINE-31" data-name="LWPOLYLINE">
    <path class="cls-2" d="M221.2,170.5c.1-10.4,4.5-20.4,12.1-27.5l-6.2-8.8-13.4,36.3h7.5,0Z"/>
  </g>
  <g id="LWPOLYLINE-32" data-name="LWPOLYLINE">
    <path class="cls-2" d="M262.6,170.3c.6.9,1,2,1,3.1,0,3-2.5,5.5-5.5,5.5h-27.5c4.4,15.9,20.9,25.3,36.8,20.9,15.9-4.4,25.3-20.9,20.9-36.8-4.4-15.9-20.9-25.3-36.8-20.9-2.3.6-4.6,1.6-6.7,2.8l17.8,25.4"/>
  </g>
  <g id="LWPOLYLINE-33" data-name="LWPOLYLINE">
    <path class="cls-2" d="M150.3,143.8l-8.4,27.6c0,.2-.1.5-.2.7-.9,2.2-3.3,3.2-5.5,2.3-2.2-.9-3.2-3.3-2.3-5.5l8.4-27.6c-16.3-2.5-31.6,8.8-34,25.2-2.5,16.3,8.8,31.6,25.2,34,16.4,2.4,31.6-8.8,34-25.2,2-13.2-5-26.1-17.1-31.6Z"/>
  </g>
</svg>