<?xml version="1.0" encoding="UTF-8"?>
<svg id="Layer_1" data-name="Layer 1" xmlns="http://www.w3.org/2000/svg" version="1.1" viewBox="0 0 396.9 264.6">
  <defs>
    <style>
      .cls-1 {
        stroke: #2160ad;
        stroke-miterlimit: 10;
        stroke-width: .5px;
      }

      .cls-1, .cls-2 {
        fill: #2160ad;
      }

      .cls-3 {
        fill: #fff;
      }

      .cls-3, .cls-2 {
        stroke-width: 0px;
      }
    </style>
  </defs>
  <g id="LWPOLYLINE">
    <rect class="cls-1" x="0" y=".3" width="396.8" height="264.6"/>
  </g>
  <g id="LWPOLYLINE-2" data-name="LWPOLYLINE">
    <path class="cls-3" d="M26.4,264.9h343.9c14.6,0,26.5-11.8,26.5-26.5V26.7c0-14.6-11.8-26.5-26.5-26.5H26.4C11.8.3,0,12.1,0,26.7v211.7c0,14.6,11.8,26.5,26.5,26.5Z"/>
  </g>
  <g id="LWPOLYLINE-3" data-name="LWPOLYLINE">
    <path class="cls-2" d="M26.4,251.6h343.9c7.3,0,13.2-5.9,13.2-13.2V26.7c0-7.3-5.9-13.2-13.2-13.2H26.4c-7.3,0-13.2,5.9-13.2,13.2v211.7c0,7.3,5.9,13.2,13.2,13.2Z"/>
  </g>
  <g id="LWPOLYLINE-4" data-name="LWPOLYLINE">
    <polygon class="cls-3" points="111.3 69.7 133.1 69.7 133.1 63.8 117.2 63.8 117.2 51.9 128 51.9 128 45.9 117.2 45.9 117.2 36 133.1 36 133.1 30 111.3 30 111.3 69.7"/>
  </g>
  <g id="LWPOLYLINE-5" data-name="LWPOLYLINE">
    <rect class="cls-3" x="140.3" y="40" width="6" height="29.8"/>
  </g>
  <g id="LWPOLYLINE-6" data-name="LWPOLYLINE">
    <rect class="cls-3" x="140.3" y="30" width="6" height="6"/>
  </g>
  <g id="LWPOLYLINE-7" data-name="LWPOLYLINE">
    <polygon class="cls-3" points="172 69.7 166.1 69.7 166.1 30 172 30 172 52 180 40 185.9 40 179.1 50.2 185.9 69.7 180 69.7 175.2 56.1 172 60.8 172 69.7"/>
  </g>
  <g id="LWPOLYLINE-8" data-name="LWPOLYLINE">
    <path class="cls-3" d="M190.3,59.8c0,5.5,4.4,9.9,9.9,9.9s9.9-4.4,9.9-9.9v-9.9c0-5.5-4.4-9.9-9.9-9.9s-9.9,4.4-9.9,9.9v9.9Z"/>
  </g>
  <g id="LWPOLYLINE-9" data-name="LWPOLYLINE">
    <path class="cls-3" d="M215.7,59.8c0,5.5,4.4,9.9,9.9,9.9h.8c4.8,0,8.7-3.9,8.7-8.7s-1.7-6-4.3-7.5l-6.6-3.8c-.6-.4-1-1-1-1.7,0-1.1.9-2,2-2h1.2c1.1,0,2,.9,2,2h6c0-4.4-3.6-7.9-7.9-7.9h-1.2c-4.4,0-7.9,3.6-7.9,7.9s1.5,5.4,3.9,6.9l6.6,3.8c.8.5,1.4,1.4,1.4,2.4,0,1.5-1.2,2.8-2.8,2.8h-.8c-2.2,0-4-1.8-4-4h-6Z"/>
  </g>
  <g id="LWPOLYLINE-10" data-name="LWPOLYLINE">
    <polygon class="cls-3" points="247.8 69.7 241.9 69.7 241.9 30 247.8 30 247.8 52 255.8 40 261.7 40 254.9 50.2 261.7 69.7 255.8 69.7 251 56.1 247.8 60.8 247.8 69.7"/>
  </g>
  <g id="LWPOLYLINE-11" data-name="LWPOLYLINE">
    <path class="cls-3" d="M279.6,59.8h6c0,5.5-4.4,9.9-9.9,9.9s-9.9-4.4-9.9-9.9v-9.9c0-5.5,4.4-9.9,9.9-9.9s9.9,4.4,9.9,9.9v5.6h-13.9v4.4c0,2.2,1.8,4,4,4s4-1.8,4-4Z"/>
  </g>
  <g id="CIRCLE">
    <path class="cls-3" d="M144.5,169.2c0-8.9-7.2-16.1-16.1-16.1s-16.1,7.2-16.1,16.1,7.2,16.1,16.1,16.1,16.1-7.2,16.1-16.1h0Z"/>
  </g>
  <g id="LWPOLYLINE-12" data-name="LWPOLYLINE">
    <path class="cls-3" d="M279.5,170h32.2c3.2,0,5.7-2.6,5.7-5.7v-72.1c0-3.2-2.6-5.7-5.7-5.7H97.8c-2.6,0-4.9,1.8-5.6,4.3l-12.9,50.3v29h28.6c0-.6,0-1.1,0-1.7.5-11.3,10-20.1,21.3-19.7,11.3.5,20.1,10,19.7,21.3h89.6c0-.6,0-1.1,0-1.7.5-11.3,10-20.1,21.3-19.7,11.3.5,20.1,10,19.7,21.3Z"/>
  </g>
  <g id="ELLIPSE">
    <path class="cls-3" d="M275.1,169.2c0-8.9-7.2-16.1-16.1-16.1s-16.1,7.2-16.1,16.1,7.2,16.1,16.1,16.1,16.1-7.2,16.1-16.1"/>
  </g>
  <g id="LWPOLYLINE-13" data-name="LWPOLYLINE">
    <path class="cls-3" d="M131.1,235.1h4v-21.8h-12.9v6h6.9v3c0,3.8-3.1,6.9-6.9,6.9s-6.9-3.1-6.9-6.9v-13.9c0-3.8,3.1-6.9,6.9-6.9s6.9,3.1,6.9,6.9h6c0-7.1-5.8-12.9-12.9-12.9s-12.9,5.8-12.9,12.9v13.9c0,7.1,5.8,12.9,12.9,12.9,2.6,0,5.2-.8,7.4-2.3l1.6,2.4Z"/>
  </g>
  <g id="LWPOLYLINE-14" data-name="LWPOLYLINE">
    <rect class="cls-3" x="154.6" y="195.4" width="5.9" height="6"/>
  </g>
  <g id="LWPOLYLINE-15" data-name="LWPOLYLINE">
    <rect class="cls-3" x="143.8" y="195.4" width="5.9" height="6"/>
  </g>
  <g id="LWPOLYLINE-16" data-name="LWPOLYLINE">
    <path class="cls-3" d="M161.3,235.1h-5.9v-1.9c-2.4,1.3-5.1,1.9-7.8,1.9-2.4,0-4.6-1.5-5.4-3.8-1-3-.1-6.4,2.1-8.6,2.9-3.1,6.9-5,11.1-5.3v-3.1c0-1.6-1.3-3-3-3s-3,1.3-3,3h-5.9c0-4.9,4-8.9,8.9-8.9s8.9,4,8.9,8.9v20.8h0Z"/>
  </g>
  <g id="LWPOLYLINE-17" data-name="LWPOLYLINE">
    <rect class="cls-3" x="168.4" y="195.4" width="6" height="39.7"/>
  </g>
  <g id="LWPOLYLINE-18" data-name="LWPOLYLINE">
    <rect class="cls-3" x="182.3" y="195.4" width="5.9" height="39.7"/>
  </g>
  <g id="LWPOLYLINE-19" data-name="LWPOLYLINE">
    <path class="cls-3" d="M208.9,225.2h6c0,5.5-4.4,9.9-9.9,9.9s-9.9-4.4-9.9-9.9v-9.9c0-5.5,4.4-9.9,9.9-9.9s9.9,4.4,9.9,9.9v5.6h-13.9v4.4c0,2.2,1.8,4,4,4s4-1.8,4-4Z"/>
  </g>
  <g id="LWPOLYLINE-20" data-name="LWPOLYLINE">
    <path class="cls-3" d="M228,214.4v20.6h-5.9v-29.8h5.9v1.6c2.1-1,4.4-1.6,6.7-1.6v6.3c-1.6-1.5-4.1-1.5-5.6,0-.7.7-1.1,1.7-1.1,2.8Z"/>
  </g>
  <g id="LWPOLYLINE-21" data-name="LWPOLYLINE">
    <path class="cls-3" d="M268.4,225.2h6c0,5.5-4.4,9.9-9.9,9.9s-9.9-4.4-9.9-9.9v-9.9c0-5.5,4.4-9.9,9.9-9.9s9.9,4.4,9.9,9.9v5.6h-13.9v4.4c0,2.2,1.8,4,4,4,2.2,0,4-1.8,4-4Z"/>
  </g>
  <g id="LWPOLYLINE-22" data-name="LWPOLYLINE">
    <path class="cls-3" d="M287.5,208.6v29c0,4.8-3.9,8.7-8.7,8.7h-.8l.8-6c1.5,0,2.8-1.2,2.8-2.8v-29h5.9Z"/>
  </g>
  <g id="LWPOLYLINE-23" data-name="LWPOLYLINE">
    <rect class="cls-3" x="281.6" y="195.4" width="5.9" height="6"/>
  </g>
  <g id="LWPOLYLINE-24" data-name="LWPOLYLINE">
    <path class="cls-2" d="M196.2,59.8c0,2.2,1.8,4,4,4s4-1.8,4-4v-9.9c0-2.2-1.8-4-4-4s-4,1.8-4,4v9.9Z"/>
  </g>
  <g id="LWPOLYLINE-25" data-name="LWPOLYLINE">
    <path class="cls-2" d="M271.6,50.3h7.9v-.4c0-2.2-1.8-4-4-4s-4,1.8-4,4v.4Z"/>
  </g>
  <g id="LWPOLYLINE-26" data-name="LWPOLYLINE">
    <polygon class="cls-2" points="86.5 135.2 121.1 135.2 126.3 92.2 97.5 92.2 86.5 135.2"/>
  </g>
  <g id="LWPOLYLINE-27" data-name="LWPOLYLINE">
    <polygon class="cls-2" points="127.8 125.2 167.3 125.2 167.3 92.2 131.9 92.2 127.8 125.2"/>
  </g>
  <g id="LWPOLYLINE-28" data-name="LWPOLYLINE">
    <rect class="cls-2" x="172.8" y="92.2" width="42.1" height="33"/>
  </g>
  <g id="LWPOLYLINE-29" data-name="LWPOLYLINE">
    <rect class="cls-2" x="220.4" y="92.2" width="42.1" height="33"/>
  </g>
  <g id="LWPOLYLINE-30" data-name="LWPOLYLINE">
    <rect class="cls-2" x="268" y="92.2" width="42.1" height="33"/>
  </g>
  <g id="LWPOLYLINE-31" data-name="LWPOLYLINE">
    <path class="cls-2" d="M155.3,221.2c-2,.5-3.8,1.4-5.4,2.7-1.4,1.2-2.2,3-2.2,4.8,0,1.2,1,2.2,2.2,2.1.1,0,.2,0,.3,0,1.8-.3,3.4-.9,5-1.7v-8Z"/>
  </g>
  <g id="LWPOLYLINE-32" data-name="LWPOLYLINE">
    <path class="cls-2" d="M201,215.6h7.9v-.4c0-2.2-1.8-4-4-4s-4,1.8-4,4v.4h0Z"/>
  </g>
  <g id="LWPOLYLINE-33" data-name="LWPOLYLINE">
    <path class="cls-2" d="M260.5,215.6h7.9v-.4c0-2.2-1.8-4-4-4s-4,1.8-4,4v.4h0Z"/>
  </g>
</svg>