<?xml version="1.0" encoding="utf-8"?>
<!-- Generator: Adobe Illustrator 27.0.1, SVG Export Plug-In . SVG Version: 6.00 Build 0)  -->
<svg version="1.1" id="Layer_1" xmlns="http://www.w3.org/2000/svg" xmlns:xlink="http://www.w3.org/1999/xlink" x="0px" y="0px"
	 viewBox="0 0 425.2 425.2" style="enable-background:new 0 0 425.2 425.2;" xml:space="preserve">
<style type="text/css">
	.st0{fill:#FFCE0D;stroke:#FFCE0D;stroke-width:0.5;stroke-miterlimit:10;}
	.st1{fill:#E4002B;}
	.st2{fill:#FFCE0A;}
	.st3{fill:#FFCE0C;}
	.st4{fill:#101820;}
</style>
<g id="LWPOLYLINE">
	<rect x="14.17" y="129.92" class="st0" width="396.85" height="165.36"/>
</g>
<g id="LWPOLYLINE_11_">
	<path class="st1" d="M40.63,129.92h343.94c14.61,0,26.45,11.85,26.45,26.46v112.44c0,14.61-11.85,26.46-26.45,26.46H40.63
		c-14.61,0-26.45-11.85-26.45-26.46V156.38C14.17,141.77,26.02,129.92,40.63,129.92z"/>
</g>
<g id="LWPOLYLINE_12_">
	<path class="st2" d="M212.6,265.51h185.19V156.38c0-7.3-5.92-13.23-13.22-13.23H40.63c-7.3,0-13.23,5.93-13.23,13.23v112.44
		c0,7.31,5.92,13.23,13.23,13.23H212.6V265.51z"/>
</g>
<g id="LWPOLYLINE_13_">
	<path d="M249.03,262.87c0.38,1.81,2.15,2.95,3.95,2.57l9.14-1.94c1.8-0.38,2.95-2.15,2.57-3.96l-3.2-15.03l-15.66,3.33
		L249.03,262.87"/>
</g>
<g id="LWPOLYLINE_15_">
	<path d="M231.49,182.1c2.61-0.56,5.29,0.49,6.83,2.67L252,204.12c0.4,0.57,0.84,1.11,1.3,1.62l6.81,7.44
		c1.2,1.32,2.03,2.93,2.4,4.67l3.97,18.63c0.26,1.24-0.22,2.52-1.22,3.3c-1.74,1.34-3.77,2.28-5.92,2.74l-93.49,19.88
		c-2.15,0.46-4.38,0.42-6.52-0.1c-1.23-0.3-2.18-1.28-2.45-2.52l-3.96-18.63c-0.37-1.74-0.27-3.55,0.3-5.24l3.19-9.57
		c0.22-0.66,0.4-1.33,0.53-2.01l4.63-23.23c0.52-2.61,2.54-4.67,5.15-5.22L231.49,182.1z"/>
</g>
<g id="LWPOLYLINE_16_">
	<path d="M183.55,276.79c0.38,1.8-0.77,3.57-2.57,3.95l-9.13,1.94c-1.8,0.38-3.57-0.77-3.95-2.57l-3.2-15.03l15.66-3.33
		L183.55,276.79"/>
</g>
<g id="LWPOLYLINE_14_">
	<path class="st3" d="M230.73,189.08c1.3-0.27,2.64,0.25,3.42,1.34l13.17,18.62l-84.09,17.87l4.46-22.37
		c0.26-1.3,1.27-2.33,2.58-2.61L230.73,189.08z"/>
</g>
<g id="LWPOLYLINE_24_">
	<path class="st4" d="M387.69,282.05H212.6v-16.54h185.2v6.61C397.79,277.6,393.27,282.05,387.69,282.05z"/>
</g>
</svg>
