<?xml version="1.0" encoding="utf-8"?>
<!-- Generator: Adobe Illustrator 28.0.0, SVG Export Plug-In . SVG Version: 6.00 Build 0)  -->
<svg version="1.1" id="Layer_1" xmlns="http://www.w3.org/2000/svg" xmlns:xlink="http://www.w3.org/1999/xlink" x="0px" y="0px"
	 viewBox="0 0 425.2 425.2" style="enable-background:new 0 0 425.2 425.2;" xml:space="preserve">
<style type="text/css">
	.st0{fill:#FFCD00;}
	.st1{fill:#E4002B;}
	.st2{fill:#101820;}
</style>
<g id="LWPOLYLINE_54_">
	<rect x="14.17" y="63.78" class="st0" width="396.85" height="297.64"/>
</g>
<g id="LWPOLYLINE_56_">
	<path class="st1" d="M411.02,334.96c0,14.61-11.85,26.46-26.45,26.46H40.63c-14.61,0-26.45-11.84-26.45-26.46V90.24
		c0-14.61,11.85-26.46,26.45-26.46h343.94c14.61,0,26.45,11.85,26.45,26.46V334.96z"/>
</g>
<g id="LWPOLYLINE_55_">
	<path class="st0" d="M397.79,334.96c0,7.31-5.92,13.23-13.22,13.23H40.63c-7.3,0-13.23-5.92-13.23-13.23V90.24
		c0-7.3,5.92-13.23,13.23-13.23h343.94c7.3,0,13.22,5.93,13.22,13.23V334.96z"/>
</g>
<g id="LWPOLYLINE_52_">
	<path class="st0" d="M110.08,205.98H90.23c0-5.48,4.45-9.92,9.92-9.92C105.64,196.06,110.08,200.5,110.08,205.98z"/>
</g>
<g id="LWPOLYLINE_177_">
	<polygon class="st0" points="250.24,281.81 243.04,307.06 257.44,307.06 	"/>
</g>
<g id="LWPOLYLINE_182_">
	<path class="st0" d="M93.65,310.37c0,4.38-3.55,7.94-7.94,7.94H70.5v-19.85h15.21c4.39,0,7.94,3.55,7.94,7.94V310.37z"/>
</g>
<g id="LWPOLYLINE_183_">
	<path class="st0" d="M70.5,272h13.23c3.65,0,6.61,2.96,6.61,6.61v3.31c0,3.65-2.96,6.62-6.61,6.62H70.5V272z"/>
</g>
<g id="LWPOLYLINE_176_">
	<polygon class="st2" points="96.96,328.22 106.88,328.22 89.35,262.08 78.11,262.08 60.58,328.22 70.5,328.22 73.7,316.98 
		93.75,316.98 	"/>
</g>
<g id="LWPOLYLINE_178_">
	<polygon class="st2" points="240.22,316.98 260.26,316.98 263.47,328.22 273.39,328.22 255.86,262.08 244.62,262.08 227.09,328.22 
		237.01,328.22 	"/>
</g>
<g id="LWPOLYLINE_180_">
	<polygon class="st2" points="319.01,262.08 330.93,262.08 312.04,290.43 330.93,328.22 319.84,328.22 305.7,299.93 297.86,311.68 
		297.86,328.22 287.94,328.22 287.94,262.08 297.86,262.08 297.86,293.8 	"/>
</g>
<g id="LWPOLYLINE_181_">
	<path class="st2" d="M352.4,250.51h-5.23c9.18,29.06,9.18,60.23,0,89.29h5.23C368.97,312.34,368.97,277.96,352.4,250.51z"/>
</g>
<g id="LWPOLYLINE_00000164477433159655448970000003641774628599471548_">
	<path class="st2" d="M157.61,339.79c-9.18-29.05-9.18-60.23,0-89.29h-5.23c-16.57,27.46-16.57,61.83,0,89.29H157.61z"/>
</g>
<g id="LWPOLYLINE_00000065066618121919558700000013475373346580848574_">
	<polygon class="st2" points="209.85,262.08 196.99,308.85 184.14,262.08 173.85,262.08 192.04,328.22 201.96,328.22 220.15,262.08 
			"/>
</g>
<g id="LWPOLYLINE_00000090286544914829461220000000305075044806723742_">
	<polygon class="st0" points="83.73,281.81 76.53,307.06 90.93,307.06 	"/>
</g>
<g id="LWPOLYLINE_179_">
	<polygon class="st0" points="250.24,281.81 243.04,307.06 257.44,307.06 	"/>
</g>
</svg>
