<?xml version="1.0" encoding="utf-8"?>
<!-- Generator: Adobe Illustrator 27.0.1, SVG Export Plug-In . SVG Version: 6.00 Build 0)  -->
<svg version="1.1" id="Layer_1" xmlns="http://www.w3.org/2000/svg" xmlns:xlink="http://www.w3.org/1999/xlink" x="0px" y="0px"
	 viewBox="0 0 425.2 425.2" style="enable-background:new 0 0 425.2 425.2;" xml:space="preserve">
<style type="text/css">
	.st0{fill:#FFCD00;}
	.st1{fill:#E4002B;}
	.st2{fill:#101820;}
</style>
<g id="LWPOLYLINE_35_">
	<rect x="14.17" y="37.32" class="st0" width="396.85" height="350.56"/>
</g>
<g id="LWPOLYLINE_37_">
	<path class="st1" d="M411.02,361.42c0,14.61-11.85,26.46-26.45,26.46H40.63c-14.61,0-26.45-11.85-26.45-26.46V63.78
		c0-14.61,11.85-26.46,26.45-26.46h343.94c14.61,0,26.45,11.85,26.45,26.46V361.42z"/>
</g>
<g id="LWPOLYLINE_36_">
	<path class="st0" d="M397.79,361.42c0,7.31-5.92,13.23-13.22,13.23H40.63c-7.3,0-13.23-5.92-13.23-13.23V63.78
		c0-7.3,5.92-13.23,13.23-13.23h343.94c7.3,0,13.22,5.92,13.22,13.23V361.42z"/>
</g>
<g id="LWPOLYLINE_53_">
	<path class="st2" d="M128.9,199.65c-7.34-23.24-7.34-48.19,0-71.43h-4.19c-13.26,21.97-13.26,49.47,0,71.43H128.9z"/>
</g>
<g id="LWPOLYLINE_54_">
	<path class="st2" d="M296.29,199.65c7.35-23.24,7.35-48.19,0-71.43h4.19c13.26,21.97,13.26,49.47,0,71.43H296.29z"/>
</g>
<g id="LWPOLYLINE_56_">
	<rect x="182.04" y="159.96" class="st2" width="26.45" height="7.94"/>
</g>
<g id="LWPOLYLINE_57_">
	<rect x="182.04" y="80.63" class="st2" width="26.45" height="7.94"/>
</g>
<g id="LWPOLYLINE_55_">
	<rect x="182.04" y="239.33" class="st1" width="26.45" height="7.94"/>
</g>
<g id="LWPOLYLINE_176_">
	<polygon class="st2" points="104.43,358.97 114.36,358.97 96.83,292.83 85.58,292.83 68.06,358.97 77.98,358.97 81.18,347.73 
		101.23,347.73 	"/>
</g>
<g id="LWPOLYLINE_178_">
	<polygon class="st2" points="247.69,347.73 267.74,347.73 270.94,358.97 280.86,358.97 263.34,292.83 252.1,292.83 234.57,358.97 
		244.49,358.97 	"/>
</g>
<g id="LWPOLYLINE_180_">
	<polygon class="st2" points="326.49,292.83 338.41,292.83 319.52,321.18 338.41,358.97 327.32,358.97 313.18,330.69 305.34,342.44 
		305.34,358.97 295.42,358.97 295.42,292.83 305.34,292.83 305.34,324.55 	"/>
</g>
<g id="LWPOLYLINE_181_">
	<path class="st2" d="M359.88,281.26h-5.23c9.18,29.06,9.18,60.23,0,89.29h5.23C376.45,343.09,376.45,308.71,359.88,281.26z"/>
</g>
<g id="LWPOLYLINE_182_">
	<path class="st2" d="M165.08,370.55c-9.18-29.05-9.18-60.23,0-89.29h-5.23c-16.57,27.46-16.57,61.83,0,89.29H165.08z"/>
</g>
<g id="LWPOLYLINE_183_">
	<polygon class="st2" points="217.33,292.83 204.47,339.6 191.62,292.83 181.32,292.83 199.52,358.97 209.43,358.97 227.63,292.83 	
		"/>
</g>
<g id="LWPOLYLINE_177_">
	<polygon class="st0" points="91.21,312.56 84.01,337.81 98.4,337.81 	"/>
</g>
<g id="LWPOLYLINE_179_">
	<polygon class="st0" points="257.72,312.56 250.52,337.81 264.91,337.81 	"/>
</g>
</svg>
