<?xml version="1.0" encoding="utf-8"?>
<!-- Generator: Adobe Illustrator 14.0.0, SVG Export Plug-In . SVG Version: 6.00 Build 43363)  -->
<!DOCTYPE svg PUBLIC "-//W3C//DTD SVG 1.1//EN" "http://www.w3.org/Graphics/SVG/1.1/DTD/svg11.dtd">
<svg version="1.1" id="Layer_1" xmlns="http://www.w3.org/2000/svg" xmlns:xlink="http://www.w3.org/1999/xlink" x="0px" y="0px"
	 width="841.89px" height="595.276px" viewBox="0 0 841.89 595.276" enable-background="new 0 0 841.89 595.276"
	 xml:space="preserve">
<g>
	<defs>
		<polyline id="SVGID_1_" points="64.666,595.276 777.224,595.276 777.224,-0.12 64.666,-0.12 64.666,595.276 		"/>
	</defs>
	<clipPath id="SVGID_2_">
		<use xlink:href="#SVGID_1_"  overflow="visible"/>
	</clipPath>
	<path clip-path="url(#SVGID_2_)" fill-rule="evenodd" clip-rule="evenodd" fill="#FF0000" d="M109.9,582.876h620.6
		c2,0,4.101-0.1,6.2-0.5c2.2-0.399,4.3-1,6.5-1.899c4.2-1.7,8.2-4.3,11.601-7.7c3.399-3.4,6-7.4,7.699-11.6
		c0.9-2.2,1.5-4.301,1.9-6.5c0.4-2.101,0.5-4.2,0.5-6.2v-505.7c0-2-0.1-4.1-0.5-6.2c-0.4-2.2-1-4.3-1.9-6.5
		c-1.699-4.2-4.3-8.2-7.699-11.6c-3.4-3.4-7.4-6-11.601-7.7c-2.2-0.9-4.3-1.5-6.5-1.9c-2.1-0.4-4.2-0.5-6.2-0.5H109.9
		c-2,0-4.1,0.1-6.3,0.5c-2.1,0.4-4.2,1-6.4,1.9c-4.3,1.7-8.3,4.3-11.7,7.7c-3.4,3.4-5.9,7.4-7.6,11.6c-0.9,2.2-1.5,4.3-1.9,6.5
		c-0.4,2.1-0.6,4.2-0.6,6.2v505.7c0,2,0.2,4.1,0.6,6.2c0.4,2.199,1,4.3,1.9,6.5c1.7,4.199,4.2,8.199,7.6,11.6s7.4,6,11.7,7.7
		c2.2,0.899,4.3,1.5,6.4,1.899c1.1,0.2,2.2,0.301,3.2,0.4c0.5,0,1.1,0.1,1.6,0.1c0.2,0,0.5,0,0.8,0h0.1h0.2h0.2H109.9"/>
	<path clip-path="url(#SVGID_2_)" fill-rule="evenodd" clip-rule="evenodd" fill="#FFFF00" d="M109.9,565.677h620.6
		c2,0,4.2-0.4,6.301-1.2c2.1-0.9,4.1-2.101,5.899-3.9c1.7-1.7,2.9-3.7,3.8-5.8c0.801-2.1,1.2-4.3,1.2-6.3v-505.7
		c0-2-0.399-4.2-1.2-6.3c-0.899-2.2-2.1-4.2-3.8-5.9c-1.8-1.7-3.8-2.9-5.899-3.8c-2.101-0.8-4.301-1.2-6.301-1.2H109.9
		c-2,0-4.2,0.4-6.3,1.2c-2.2,0.9-4.2,2.1-5.9,3.8c-1.7,1.7-3,3.7-3.8,5.9c-0.9,2.1-1.2,4.3-1.2,6.3v505.7c0,2,0.3,4.2,1.2,6.3
		c0.8,2.1,2.1,4.1,3.8,5.8c1.7,1.8,3.7,3,5.9,3.9C105.7,565.276,107.9,565.677,109.9,565.677"/>
</g>
<g>
	<defs>
		<polyline id="SVGID_3_" points="64.666,595.276 777.224,595.276 777.224,-0.12 64.666,-0.12 64.666,595.276 		"/>
	</defs>
	<clipPath id="SVGID_4_">
		<use xlink:href="#SVGID_3_"  overflow="visible"/>
	</clipPath>
	<path clip-path="url(#SVGID_4_)" fill-rule="evenodd" clip-rule="evenodd" fill="#404040" d="M335.4,377.076
		c-9,9.601-15.8,19.9-20.3,30.7c-4.5,10.9-6.7,22.4-6.7,34.5c0,12.7,2.2,24.5,6.6,35.6c4.5,11,11.2,21.2,20.1,30.5l7.7-6.6
		c-16.1-16.6-24.2-36.1-24.2-58.7c0-22.899,8.1-42.6,24.2-59.1L335.4,377.076"/>
</g>
<g>
	<defs>
		<polyline id="SVGID_5_" points="64.666,595.276 777.224,595.276 777.224,-0.12 64.666,-0.12 64.666,595.276 		"/>
	</defs>
	<clipPath id="SVGID_6_">
		<use xlink:href="#SVGID_5_"  overflow="visible"/>
	</clipPath>
	<path clip-path="url(#SVGID_6_)" fill-rule="evenodd" clip-rule="evenodd" fill="#404040" d="M204.1,442.076h-35.2l11.6-31
		c2.2-5.899,3.9-12.399,5.3-19.3h0.3c1.3,5.1,2.5,9.1,3.6,12.2C190.8,406.977,195.6,419.677,204.1,442.076 M235.9,484.477
		l-42.3-103.5h-14.8l-39.7,103.5h14.4l11.5-31.5h43.2l12.2,31.5H235.9"/>
	<path clip-path="url(#SVGID_6_)" fill-rule="evenodd" clip-rule="evenodd" fill="#404040" d="M451.9,380.977H438l-28,75.2
		c-2.2,5.8-4,11.399-5.4,16.899h-0.3c-1.5-6.5-3.3-12.1-5.4-16.899l-26.9-75.2h-14.7l40.1,103.5h14L451.9,380.977"/>
	<path clip-path="url(#SVGID_6_)" fill-rule="evenodd" clip-rule="evenodd" fill="#404040" d="M517.8,442.076h-35.2l11.6-31
		c2.2-5.899,4-12.399,5.3-19.3h0.4c1.3,5.1,2.5,9.1,3.6,12.2C504.6,406.977,509.3,419.677,517.8,442.076 M549.6,484.477l-42.2-103.5
		h-14.8l-39.8,103.5h14.5l11.399-31.5H522l12.101,31.5H549.6"/>
	<polyline clip-path="url(#SVGID_6_)" fill-rule="evenodd" clip-rule="evenodd" fill="#404040" points="645.7,484.477 
		600.4,422.876 643.8,380.977 625.3,380.977 573.8,432.276 573.8,380.977 560.1,380.977 560.1,484.477 573.8,484.477 573.8,448.576 
		590.9,432.177 627.6,484.477 645.7,484.477 	"/>
	<path clip-path="url(#SVGID_6_)" fill-rule="evenodd" clip-rule="evenodd" fill="#404040" d="M683.8,376.876l-7.4,6.7
		c16.1,16.601,24.1,36.3,24.1,59.2c0,22.5-8,42.1-24.1,58.7l7.6,6.6c9-9.3,15.7-19.5,20.101-30.5c4.5-11,6.7-22.899,6.7-35.6
		c0-12.101-2.2-23.601-6.7-34.4C699.5,396.677,692.8,386.477,683.8,376.876"/>
</g>
</svg>
