<?xml version="1.0" encoding="utf-8"?>
<!-- Generator: Adobe Illustrator 14.0.0, SVG Export Plug-In . SVG Version: 6.00 Build 43363)  -->
<!DOCTYPE svg PUBLIC "-//W3C//DTD SVG 1.1//EN" "http://www.w3.org/Graphics/SVG/1.1/DTD/svg11.dtd">
<svg version="1.1" id="Layer_1" xmlns="http://www.w3.org/2000/svg" xmlns:xlink="http://www.w3.org/1999/xlink" x="0px" y="0px"
	 width="841.89px" height="595.276px" viewBox="0 0 841.89 595.276" enable-background="new 0 0 841.89 595.276"
	 xml:space="preserve">
<g>
	<defs>
		<polyline id="SVGID_1_" points="71.417,595.276 770.473,595.276 770.473,-0.12 71.417,-0.12 71.417,595.276 		"/>
	</defs>
	<clipPath id="SVGID_2_">
		<use xlink:href="#SVGID_1_"  overflow="visible"/>
	</clipPath>
	<path clip-path="url(#SVGID_2_)" fill-rule="evenodd" clip-rule="evenodd" fill="#FF0000" d="M111.4,579.677h617.7
		c2.1,0,4.2-0.101,6.3-0.5c2.1-0.4,4.3-1,6.4-1.9c4.199-1.7,8.199-4.2,11.6-7.6c3.4-3.4,6-7.4,7.7-11.601
		c0.8-2.2,1.399-4.3,1.8-6.399c0.4-2.2,0.6-4.301,0.6-6.301V41.977c0-2-0.199-4.1-0.6-6.2s-1-4.3-1.8-6.4c-1.7-4.3-4.3-8.2-7.7-11.6
		s-7.4-6-11.6-7.7c-2.101-0.8-4.301-1.4-6.4-1.8s-4.2-0.6-6.3-0.6H111.4c-2.1,0-4.2,0.2-6.3,0.6s-4.3,1-6.4,1.8
		c-4.2,1.7-8.2,4.3-11.6,7.7s-6,7.3-7.6,11.6c-0.9,2.1-1.5,4.3-1.9,6.4s-0.6,4.2-0.6,6.2v503.399c0,2,0.2,4.101,0.6,6.301
		c0.4,2.1,1,4.199,1.9,6.399c1.6,4.2,4.2,8.2,7.6,11.601c3.4,3.399,7.4,5.899,11.6,7.6c2.1,0.9,4.3,1.5,6.4,1.9
		c1.1,0.199,2.1,0.3,3.2,0.399c0.5,0,1,0.101,1.5,0.101c0.3,0,0.5,0,0.8,0h0.2h0.2h0.2H111.4"/>
	<path clip-path="url(#SVGID_2_)" fill-rule="evenodd" clip-rule="evenodd" fill="#FFFF00" d="M111.4,562.576h617.7
		c2.1,0,4.2-0.399,6.399-1.2c2.101-0.899,4.101-2.199,5.801-3.8c1.699-1.7,3-3.7,3.8-5.899c0.8-2.101,1.2-4.2,1.2-6.301V41.977
		c0-2-0.4-4.2-1.2-6.3s-2.101-4.1-3.8-5.8c-1.7-1.7-3.7-3-5.801-3.8c-2.199-0.9-4.3-1.2-6.399-1.2H111.4c-2.1,0-4.2,0.3-6.4,1.2
		c-2.1,0.8-4.1,2.1-5.8,3.8c-1.7,1.7-2.9,3.7-3.8,5.8c-0.8,2.1-1.2,4.3-1.2,6.3v503.399c0,2.101,0.4,4.2,1.2,6.301
		c0.9,2.199,2.1,4.199,3.8,5.899c1.7,1.601,3.7,2.9,5.8,3.8C107.2,562.177,109.3,562.576,111.4,562.576"/>
</g>
<g>
	<defs>
		<polyline id="SVGID_3_" points="71.417,595.276 770.473,595.276 770.473,-0.12 71.417,-0.12 71.417,595.276 		"/>
	</defs>
	<clipPath id="SVGID_4_">
		<use xlink:href="#SVGID_3_"  overflow="visible"/>
	</clipPath>
	<path clip-path="url(#SVGID_4_)" fill-rule="evenodd" clip-rule="evenodd" fill="#404040" d="M164.8,469.376v-35.5h24
		c9.9,0,16.7,1.601,20.5,4.7c3.8,3.101,5.7,7.5,5.7,13.101c0,5.5-1.8,9.8-5.3,13c-3.6,3.1-10,4.699-19.2,4.699H164.8 M164.8,421.677
		v-31h20.7c5.2,0,9.5,0.3,12.9,0.8c3.3,0.5,6.2,1.899,8.6,4.3c2.4,2.3,3.6,5.9,3.6,10.8c0,4.601-1.2,8-3.5,10.2
		c-2.4,2.2-5.2,3.6-8.3,4.1c-3.1,0.5-7,0.801-11.6,0.801H164.8 M209.8,426.776c4.8-2.5,8.4-5.7,10.7-9.5c2.4-3.8,3.6-8,3.6-12.5
		c0-6.7-2.6-12.7-7.7-18.1c-5.2-5.5-14-8.2-26.5-8.2h-38.7v103.1h39.5c9.1,0,16.4-1.1,21.7-3.399c5.3-2.301,9.5-5.801,12.4-10.7
		c2.9-4.8,4.3-10.101,4.3-15.8c0-5.801-1.6-10.9-4.8-15.301C221.1,431.876,216.3,428.677,209.8,426.776"/>
	<path clip-path="url(#SVGID_4_)" fill-rule="evenodd" clip-rule="evenodd" fill="#404040" d="M451.9,378.477H438L410.1,453.376
		c-2.2,5.7-4,11.301-5.4,16.801h-0.3c-1.5-6.4-3.3-12-5.3-16.801l-26.8-74.899h-14.7l40,103.1h13.9L451.9,378.477"/>
	<path clip-path="url(#SVGID_4_)" fill-rule="evenodd" clip-rule="evenodd" fill="#404040" d="M517.4,439.376h-35l11.5-30.899
		c2.2-5.9,4-12.3,5.3-19.2h0.4c1.3,5,2.5,9.1,3.6,12.1C504.2,404.376,509,417.076,517.4,439.376 M549.1,481.576L507,378.477H492.3
		l-39.601,103.1h14.4l11.399-31.399H521.6l12.1,31.399H549.1"/>
	<polyline clip-path="url(#SVGID_4_)" fill-rule="evenodd" clip-rule="evenodd" fill="#404040" points="644.8,481.576 
		599.7,420.276 642.9,378.477 624.5,378.477 573.2,429.576 573.2,378.477 559.5,378.477 559.5,481.576 573.2,481.576 573.2,445.876 
		590.2,429.477 626.8,481.576 644.8,481.576 	"/>
	<path clip-path="url(#SVGID_4_)" fill-rule="evenodd" clip-rule="evenodd" fill="#404040" d="M682.6,374.376l-7.3,6.801
		c16,16.5,24,36.1,24,58.8c0,22.5-8,42-24,58.5l7.6,6.6c8.9-9.3,15.6-19.399,20-30.399c4.5-11,6.7-22.801,6.7-35.4
		c0-12.1-2.3-23.5-6.7-34.3C698.4,394.177,691.6,383.977,682.6,374.376"/>
</g>
<g>
	<defs>
		<polyline id="SVGID_5_" points="71.417,595.276 770.473,595.276 770.473,-0.12 71.417,-0.12 71.417,595.276 		"/>
	</defs>
	<clipPath id="SVGID_6_">
		<use xlink:href="#SVGID_5_"  overflow="visible"/>
	</clipPath>
	<path clip-path="url(#SVGID_6_)" fill-rule="evenodd" clip-rule="evenodd" fill="#404040" d="M335.9,374.677
		c-9,9.6-15.8,19.699-20.3,30.6c-4.4,10.8-6.7,22.2-6.7,34.2c0,12.7,2.2,24.5,6.7,35.5c4.4,10.899,11.1,21.1,20,30.399l7.6-6.6
		c-16.1-16.5-24.1-36-24.1-58.5c0-22.7,8-42.3,24.1-58.8L335.9,374.677"/>
</g>
</svg>
