<?xml version="1.0" encoding="iso-8859-1"?>
<!-- Generator: Adobe Illustrator 16.0.0, SVG Export Plug-In . SVG Version: 6.00 Build 0)  -->
<!DOCTYPE svg PUBLIC "-//W3C//DTD SVG 1.1//EN" "http://www.w3.org/Graphics/SVG/1.1/DTD/svg11.dtd">
<svg version="1.1" id="Layer_1" xmlns="http://www.w3.org/2000/svg" xmlns:xlink="http://www.w3.org/1999/xlink" x="0px" y="0px"
	 width="425.197px" height="425.196px" viewBox="0 0 425.197 425.196" style="enable-background:new 0 0 425.197 425.196;"
	 xml:space="preserve">
<g id="LWPOLYLINE_16_">
	<rect x="14.171" y="14.173" style="fill:#FFCD00;" width="396.854" height="396.849"/>
</g>
<g id="LWPOLYLINE_18_">
	<path style="fill:#E4002B;" d="M14.171,59.528v306.147c0,25.041,20.308,45.348,45.355,45.348h306.137
		c25.055,0,45.361-20.307,45.361-45.348V59.528c0-25.047-20.307-45.354-45.361-45.354H59.526
		C34.479,14.173,14.171,34.48,14.171,59.528z"/>
</g>
<g id="LWPOLYLINE_17_">
	<path style="fill:#FFCD00;" d="M36.852,59.528v306.147c0,12.521,10.154,22.674,22.674,22.674h306.137
		c12.527,0,22.688-10.152,22.688-22.674V59.528c0-12.527-10.16-22.674-22.688-22.674H59.526
		C47.006,36.854,36.852,47.001,36.852,59.528z"/>
</g>
<g id="LWPOLYLINE_10_">
	<path style="fill:#101820;" d="M286.46,246.612h-34.018v5.672c0,21.92-17.764,39.689-39.682,39.689
		c-21.919,0-39.684-17.77-39.684-39.689v-79.373c0-21.919,17.764-39.683,39.684-39.683c21.918,0,39.682,17.764,39.682,39.683v5.672
		h34.018v-5.672c0-40.703-32.998-73.701-73.7-73.701c-40.703,0-73.704,32.998-73.704,73.701v79.373
		c0,40.703,33.001,73.701,73.704,73.701c40.702,0,73.7-32.998,73.7-73.701V246.612z"/>
</g>
</svg>
