<?xml version="1.0" encoding="iso-8859-1"?>
<!-- Generator: Adobe Illustrator 16.0.0, SVG Export Plug-In . SVG Version: 6.00 Build 0)  -->
<!DOCTYPE svg PUBLIC "-//W3C//DTD SVG 1.1//EN" "http://www.w3.org/Graphics/SVG/1.1/DTD/svg11.dtd">
<svg version="1.1" id="Layer_1" xmlns="http://www.w3.org/2000/svg" xmlns:xlink="http://www.w3.org/1999/xlink" x="0px" y="0px"
	 width="425.197px" height="425.196px" viewBox="0 0 425.197 425.196" style="enable-background:new 0 0 425.197 425.196;"
	 xml:space="preserve">
<g id="LWPOLYLINE_13_">
	<rect x="14.175" y="14.173" style="fill:#FFCD00;" width="396.847" height="396.849"/>
</g>
<g id="LWPOLYLINE_15_">
	<path style="fill:#E4002B;" d="M14.175,59.528v306.147c0,25.041,20.301,45.348,45.355,45.348h306.144
		c25.041,0,45.349-20.307,45.349-45.348V59.528c0-25.047-20.308-45.354-45.349-45.354H59.53
		C34.476,14.173,14.175,34.48,14.175,59.528z"/>
</g>
<g id="LWPOLYLINE_14_">
	<path style="fill:#FFCD00;" d="M36.849,59.528v306.147c0,12.521,10.154,22.674,22.681,22.674h306.144
		c12.515,0,22.675-10.152,22.675-22.674V59.528c0-12.527-10.16-22.674-22.675-22.674H59.53
		C47.003,36.854,36.849,47.001,36.849,59.528z"/>
</g>
<g id="LWPOLYLINE_11_">
	<path style="fill:#101820;" d="M138.896,325.979h79.376c37.567,0,68.022-30.455,68.022-68.029v-90.704
		c0-37.581-30.455-68.036-68.022-68.036h-79.376V325.979z"/>
</g>
<g id="LWPOLYLINE_12_">
	<path style="fill:#FFCD00;" d="M172.911,291.968h45.361c18.784,0,34.018-15.227,34.018-34.018v-90.704
		c0-18.79-15.233-34.018-34.018-34.018h-45.361V291.968z"/>
</g>
</svg>
