<?xml version="1.0" encoding="iso-8859-1"?>
<!-- Generator: Adobe Illustrator 16.0.0, SVG Export Plug-In . SVG Version: 6.00 Build 0)  -->
<!DOCTYPE svg PUBLIC "-//W3C//DTD SVG 1.1//EN" "http://www.w3.org/Graphics/SVG/1.1/DTD/svg11.dtd">
<svg version="1.1" id="Layer_1" xmlns="http://www.w3.org/2000/svg" xmlns:xlink="http://www.w3.org/1999/xlink" x="0px" y="0px"
	 width="425.197px" height="425.196px" viewBox="0 0 425.197 425.196" style="enable-background:new 0 0 425.197 425.196;"
	 xml:space="preserve">
<g id="LWPOLYLINE_6_">
	
		<rect x="14.175" y="14.173" style="fill:#FFCD00;stroke:#FFCD00;stroke-width:0.7087;stroke-linecap:round;stroke-linejoin:round;stroke-miterlimit:10;" width="396.847" height="396.849"/>
</g>
<g id="LWPOLYLINE_8_">
	
		<path style="fill:#E4002B;stroke:#E4002B;stroke-width:0.7087;stroke-linecap:round;stroke-linejoin:round;stroke-miterlimit:10;" d="
		M14.175,59.528v306.147c0,25.041,20.308,45.348,45.355,45.348h306.144c25.041,0,45.349-20.307,45.349-45.348V59.528
		c0-25.047-20.308-45.354-45.349-45.354H59.53C34.482,14.173,14.175,34.48,14.175,59.528z"/>
</g>
<g id="LWPOLYLINE_7_">
	
		<path style="fill:#FFCD00;stroke:#FFCD00;stroke-width:0.7087;stroke-linecap:round;stroke-linejoin:round;stroke-miterlimit:10;" d="
		M36.855,59.528v306.147c0,12.521,10.147,22.674,22.674,22.674h306.144c12.527,0,22.675-10.152,22.675-22.674V59.528
		c0-12.527-10.147-22.674-22.675-22.674H59.53C47.003,36.854,36.855,47.001,36.855,59.528z"/>
</g>
<g id="LWPOLYLINE_9_">
	
		<polygon style="fill:#101820;stroke:#101820;stroke-width:0.7087;stroke-linecap:round;stroke-linejoin:round;stroke-miterlimit:10;" points="
		150.019,325.985 274.737,325.985 274.737,291.974 184.027,291.974 184.027,223.938 245.264,223.938 245.264,189.92 184.027,189.92 
		184.027,133.229 274.737,133.229 274.737,99.211 150.019,99.211 	"/>
</g>
</svg>
