<?xml version="1.0" encoding="utf-8"?>
<!-- Generator: Adobe Illustrator 14.0.0, SVG Export Plug-In . SVG Version: 6.00 Build 43363)  -->
<!DOCTYPE svg PUBLIC "-//W3C//DTD SVG 1.1//EN" "http://www.w3.org/Graphics/SVG/1.1/DTD/svg11.dtd">
<svg version="1.1" id="Layer_1" xmlns="http://www.w3.org/2000/svg" xmlns:xlink="http://www.w3.org/1999/xlink" x="0px" y="0px"
	 width="841.89px" height="595.276px" viewBox="0 0 841.89 595.276" enable-background="new 0 0 841.89 595.276"
	 xml:space="preserve">
<g>
	<defs>
		<polyline id="SVGID_1_" points="1.584,451.235 840.306,451.235 840.306,144.041 1.584,144.041 1.584,451.235 		"/>
	</defs>
	<clipPath id="SVGID_2_">
		<use xlink:href="#SVGID_1_"  overflow="visible"/>
	</clipPath>
	
		<line clip-path="url(#SVGID_2_)" fill="none" stroke="#0000FF" stroke-width="0.12" stroke-linejoin="bevel" stroke-miterlimit="1.414" x1="784.2" y1="160.976" x2="56.4" y2="160.976"/>
	
		<path clip-path="url(#SVGID_2_)" fill="none" stroke="#0000FF" stroke-width="0.12" stroke-linejoin="bevel" stroke-miterlimit="1.414" d="
		M56.4,160.976c-5.3,0-10.6,1.1-15.5,3.1s-9.3,5-13.1,8.8c-3.7,3.7-6.7,8.2-8.8,13.1c-2,4.9-3,10.2-3,15.5"/>
	
		<line clip-path="url(#SVGID_2_)" fill="none" stroke="#0000FF" stroke-width="0.12" stroke-linejoin="bevel" stroke-miterlimit="1.414" x1="16" y1="201.476" x2="16" y2="390.176"/>
	
		<path clip-path="url(#SVGID_2_)" fill="none" stroke="#0000FF" stroke-width="0.12" stroke-linejoin="bevel" stroke-miterlimit="1.414" d="
		M16,390.176c0,5.3,1,10.5,3,15.399c2.1,4.9,5.1,9.4,8.8,13.2c3.8,3.7,8.2,6.7,13.1,8.7c4.9,2.1,10.2,3.1,15.5,3.1"/>
	
		<line clip-path="url(#SVGID_2_)" fill="none" stroke="#0000FF" stroke-width="0.12" stroke-linejoin="bevel" stroke-miterlimit="1.414" x1="56.4" y1="430.576" x2="784.2" y2="430.576"/>
	
		<path clip-path="url(#SVGID_2_)" fill="none" stroke="#0000FF" stroke-width="0.12" stroke-linejoin="bevel" stroke-miterlimit="1.414" d="
		M784.2,430.576c5.3,0,10.601-1,15.5-3.1c4.9-2,9.3-5,13.101-8.7c3.8-3.8,6.699-8.3,8.8-13.2c2-4.899,3-10.1,3-15.399"/>
	
		<line clip-path="url(#SVGID_2_)" fill="none" stroke="#0000FF" stroke-width="0.12" stroke-linejoin="bevel" stroke-miterlimit="1.414" x1="824.6" y1="390.176" x2="824.6" y2="201.476"/>
	
		<path clip-path="url(#SVGID_2_)" fill="none" stroke="#0000FF" stroke-width="0.12" stroke-linejoin="bevel" stroke-miterlimit="1.414" d="
		M824.6,201.476c0-5.3-1-10.6-3-15.5c-2.101-4.9-5-9.4-8.8-13.1c-3.801-3.8-8.2-6.8-13.101-8.8c-4.899-2-10.2-3.1-15.5-3.1"/>
	
		<line clip-path="url(#SVGID_2_)" fill="none" stroke="#0000FF" stroke-width="0.12" stroke-linejoin="bevel" stroke-miterlimit="1.414" x1="784.2" y1="181.276" x2="56.4" y2="181.276"/>
	
		<path clip-path="url(#SVGID_2_)" fill="none" stroke="#0000FF" stroke-width="0.12" stroke-linejoin="bevel" stroke-miterlimit="1.414" d="
		M56.4,181.276c-5.4,0-10.5,2.1-14.3,5.9c-3.8,3.8-5.9,8.9-5.9,14.3"/>
	
		<line clip-path="url(#SVGID_2_)" fill="none" stroke="#0000FF" stroke-width="0.12" stroke-linejoin="bevel" stroke-miterlimit="1.414" x1="36.2" y1="201.476" x2="36.2" y2="390.176"/>
	
		<path clip-path="url(#SVGID_2_)" fill="none" stroke="#0000FF" stroke-width="0.12" stroke-linejoin="bevel" stroke-miterlimit="1.414" d="
		M36.2,390.176c0,5.3,2.1,10.5,5.9,14.3c3.8,3.8,8.9,5.899,14.3,5.899"/>
	
		<line clip-path="url(#SVGID_2_)" fill="none" stroke="#0000FF" stroke-width="0.12" stroke-linejoin="bevel" stroke-miterlimit="1.414" x1="56.4" y1="410.375" x2="784.2" y2="410.375"/>
	
		<path clip-path="url(#SVGID_2_)" fill="none" stroke="#0000FF" stroke-width="0.12" stroke-linejoin="bevel" stroke-miterlimit="1.414" d="
		M784.2,410.375c5.4,0,10.5-2.1,14.3-5.899c3.801-3.8,5.9-9,5.9-14.3"/>
	
		<line clip-path="url(#SVGID_2_)" fill="none" stroke="#0000FF" stroke-width="0.12" stroke-linejoin="bevel" stroke-miterlimit="1.414" x1="804.4" y1="390.176" x2="804.4" y2="201.476"/>
	
		<path clip-path="url(#SVGID_2_)" fill="none" stroke="#0000FF" stroke-width="0.12" stroke-linejoin="bevel" stroke-miterlimit="1.414" d="
		M804.4,201.476c0-5.4-2.1-10.5-5.9-14.3c-3.8-3.8-8.899-5.9-14.3-5.9"/>
	
		<line clip-path="url(#SVGID_2_)" fill="none" stroke="#0000FF" stroke-width="0.12" stroke-linejoin="bevel" stroke-miterlimit="1.414" x1="16" y1="430.576" x2="16" y2="160.976"/>
	
		<line clip-path="url(#SVGID_2_)" fill="none" stroke="#0000FF" stroke-width="0.12" stroke-linejoin="bevel" stroke-miterlimit="1.414" x1="824.6" y1="160.976" x2="824.6" y2="430.576"/>
	
		<line clip-path="url(#SVGID_2_)" fill="none" stroke="#0000FF" stroke-width="0.12" stroke-linejoin="bevel" stroke-miterlimit="1.414" x1="824.6" y1="430.576" x2="16" y2="430.576"/>
	
		<line clip-path="url(#SVGID_2_)" fill="none" stroke="#0000FF" stroke-width="0.12" stroke-linejoin="bevel" stroke-miterlimit="1.414" x1="16" y1="160.976" x2="824.6" y2="160.976"/>
	<path clip-path="url(#SVGID_2_)" fill-rule="evenodd" clip-rule="evenodd" fill="#0000FF" d="M16,201.476c0-2.4,0.2-4.9,0.6-7.4
		c0.5-2.5,1.2-5,2.2-7.5c2-5,5-9.7,9-13.7s8.6-7,13.7-9c2.5-1,5-1.7,7.5-2.2c2.5-0.4,4.9-0.7,7.3-0.7H16v0.1V201.476"/>
	<path clip-path="url(#SVGID_2_)" fill-rule="evenodd" clip-rule="evenodd" fill="#0000FF" d="M784.2,160.976c2.4,0,4.9,0.2,7.4,0.7
		s5,1.2,7.5,2.2c5,2,9.7,5,13.7,9c4,3.9,7,8.6,9,13.6c1,2.5,1.699,5,2.199,7.6c0.4,2.5,0.601,4.9,0.601,7.3v-40.4H784.2"/>
	<path clip-path="url(#SVGID_2_)" fill-rule="evenodd" clip-rule="evenodd" fill="#0000FF" d="M824.6,390.176
		c0,2.3-0.2,4.8-0.601,7.3c-0.5,2.5-1.199,5-2.199,7.5c-2,5-5,9.7-9,13.7s-8.601,7-13.7,9c-2.4,1-5,1.699-7.5,2.199
		s-4.9,0.7-7.3,0.7h40.3v-0.1V390.176"/>
	<path clip-path="url(#SVGID_2_)" fill-rule="evenodd" clip-rule="evenodd" fill="#0000FF" d="M56.4,430.576c-2.4,0-4.8-0.2-7.3-0.7
		c-2.6-0.399-5.1-1.1-7.6-2.1c-5-2-9.7-5-13.7-9s-7-8.7-9-13.7c-1-2.5-1.7-5-2.1-7.5c-0.5-2.5-0.7-5-0.7-7.399v40.399H56.4"/>
	<path clip-path="url(#SVGID_2_)" fill-rule="evenodd" clip-rule="evenodd" fill="#0000FF" d="M784.2,181.276H56.4
		c-2.4,0-4.9,0.4-7.4,1.4c-2.6,1-4.9,2.5-6.9,4.5s-3.5,4.3-4.5,6.8s-1.4,5.1-1.4,7.5v188.7c0,2.399,0.4,4.899,1.4,7.399
		s2.5,4.9,4.5,6.9s4.3,3.5,6.9,4.5c2.5,1,5,1.399,7.4,1.399h727.8c2.4,0,4.9-0.399,7.5-1.399c2.5-1,4.8-2.5,6.8-4.5s3.5-4.4,4.5-6.9
		s1.4-5,1.4-7.399v-188.7c0-2.4-0.4-5-1.4-7.5s-2.5-4.8-4.5-6.8s-4.3-3.5-6.8-4.5C789.1,181.676,786.6,181.276,784.2,181.276"/>
	<path clip-path="url(#SVGID_2_)" fill-rule="evenodd" clip-rule="evenodd" fill="#F0F0F0" d="M804.4,201.476v188.7
		c0,2.399-0.4,4.899-1.4,7.399s-2.5,4.9-4.5,6.9s-4.3,3.5-6.8,4.5c-2.6,1-5.1,1.399-7.5,1.399H56.4c-2.4,0-4.9-0.399-7.4-1.399
		c-2.6-1-4.9-2.5-6.9-4.5s-3.5-4.4-4.5-6.9s-1.4-5-1.4-7.399v-188.7c0-2.4,0.4-5,1.4-7.5s2.5-4.8,4.5-6.8s4.3-3.5,6.9-4.5
		c2.5-1,5-1.4,7.4-1.4h727.8c2.4,0,4.9,0.4,7.5,1.4c2.5,1,4.8,2.5,6.8,4.5s3.5,4.3,4.5,6.8S804.4,199.076,804.4,201.476
		 M56.4,160.976c-2.4,0-4.9,0.2-7.4,0.7s-5,1.2-7.5,2.2c-5,2-9.7,5-13.7,9s-7,8.7-9,13.7c-1,2.5-1.7,5-2.2,7.5
		c-0.4,2.5-0.6,5-0.6,7.4v188.7c0,2.3,0.2,4.8,0.6,7.3c0.5,2.5,1.2,5.1,2.2,7.5c2,5.1,5,9.8,9,13.8c4,3.9,8.7,7,13.7,9
		c2.5,0.9,5,1.7,7.5,2.1c2.5,0.5,5,0.7,7.4,0.7h727.8c2.4,0,4.9-0.2,7.4-0.7c2.5-0.399,5-1.199,7.5-2.1c5-2,9.7-5.1,13.7-9
		c4-4,7-8.7,9-13.8c1-2.4,1.699-5,2.199-7.5c0.4-2.5,0.601-5,0.601-7.3v-188.7c0-2.4-0.2-4.9-0.601-7.4c-0.5-2.5-1.199-5-2.199-7.5
		c-2-5-5-9.7-9-13.7s-8.7-7-13.7-9c-2.5-1-5-1.7-7.5-2.2s-5-0.7-7.4-0.7H56.4"/>
	
		<path clip-path="url(#SVGID_2_)" fill="none" stroke="#0000FF" stroke-width="0.12" stroke-linejoin="bevel" stroke-miterlimit="1.414" d="
		M56.4,160.976c-5.3,0-10.6,1.1-15.5,3.1s-9.3,5-13.1,8.8c-3.7,3.7-6.7,8.2-8.8,13.1c-2,4.9-3,10.2-3,15.5"/>
	
		<line clip-path="url(#SVGID_2_)" fill="none" stroke="#0000FF" stroke-width="0.12" stroke-linejoin="bevel" stroke-miterlimit="1.414" x1="16" y1="201.476" x2="16" y2="390.176"/>
	
		<path clip-path="url(#SVGID_2_)" fill="none" stroke="#0000FF" stroke-width="0.12" stroke-linejoin="bevel" stroke-miterlimit="1.414" d="
		M16,390.176c0,5.3,1,10.5,3,15.399c2.1,4.9,5.1,9.4,8.8,13.2c3.8,3.7,8.2,6.7,13.1,8.7c4.9,2.1,10.2,3.1,15.5,3.1"/>
	
		<line clip-path="url(#SVGID_2_)" fill="none" stroke="#0000FF" stroke-width="0.12" stroke-linejoin="bevel" stroke-miterlimit="1.414" x1="56.4" y1="430.576" x2="784.2" y2="430.576"/>
	
		<path clip-path="url(#SVGID_2_)" fill="none" stroke="#0000FF" stroke-width="0.12" stroke-linejoin="bevel" stroke-miterlimit="1.414" d="
		M784.2,430.576c5.3,0,10.601-1,15.5-3.1c4.9-2,9.3-5,13.101-8.7c3.8-3.8,6.699-8.3,8.8-13.2c2-4.899,3-10.1,3-15.399"/>
	
		<line clip-path="url(#SVGID_2_)" fill="none" stroke="#0000FF" stroke-width="0.12" stroke-linejoin="bevel" stroke-miterlimit="1.414" x1="824.6" y1="390.176" x2="824.6" y2="201.476"/>
	
		<path clip-path="url(#SVGID_2_)" fill="none" stroke="#0000FF" stroke-width="0.12" stroke-linejoin="bevel" stroke-miterlimit="1.414" d="
		M824.6,201.476c0-5.3-1-10.6-3-15.5c-2.101-4.9-5-9.4-8.8-13.1c-3.801-3.8-8.2-6.8-13.101-8.8c-4.899-2-10.2-3.1-15.5-3.1"/>
	
		<line clip-path="url(#SVGID_2_)" fill="none" stroke="#0000FF" stroke-width="0.12" stroke-linejoin="bevel" stroke-miterlimit="1.414" x1="784.2" y1="160.976" x2="56.4" y2="160.976"/>
	
		<line clip-path="url(#SVGID_2_)" fill="none" stroke="#0000FF" stroke-width="0.12" stroke-linejoin="bevel" stroke-miterlimit="1.414" x1="804.4" y1="201.476" x2="804.4" y2="390.176"/>
	
		<path clip-path="url(#SVGID_2_)" fill="none" stroke="#0000FF" stroke-width="0.12" stroke-linejoin="bevel" stroke-miterlimit="1.414" d="
		M804.4,390.176c0,5.3-2.1,10.5-5.9,14.3c-3.8,3.8-8.899,5.899-14.3,5.899"/>
	
		<line clip-path="url(#SVGID_2_)" fill="none" stroke="#0000FF" stroke-width="0.12" stroke-linejoin="bevel" stroke-miterlimit="1.414" x1="784.2" y1="410.375" x2="56.4" y2="410.375"/>
	
		<path clip-path="url(#SVGID_2_)" fill="none" stroke="#0000FF" stroke-width="0.12" stroke-linejoin="bevel" stroke-miterlimit="1.414" d="
		M56.4,410.375c-5.4,0-10.5-2.1-14.3-5.899c-3.8-3.8-5.9-9-5.9-14.3"/>
	
		<line clip-path="url(#SVGID_2_)" fill="none" stroke="#0000FF" stroke-width="0.12" stroke-linejoin="bevel" stroke-miterlimit="1.414" x1="36.2" y1="390.176" x2="36.2" y2="201.476"/>
	
		<path clip-path="url(#SVGID_2_)" fill="none" stroke="#0000FF" stroke-width="0.12" stroke-linejoin="bevel" stroke-miterlimit="1.414" d="
		M36.2,201.476c0-5.4,2.1-10.5,5.9-14.3c3.8-3.8,8.9-5.9,14.3-5.9"/>
	
		<line clip-path="url(#SVGID_2_)" fill="none" stroke="#0000FF" stroke-width="0.12" stroke-linejoin="bevel" stroke-miterlimit="1.414" x1="56.4" y1="181.276" x2="784.2" y2="181.276"/>
	
		<path clip-path="url(#SVGID_2_)" fill="none" stroke="#0000FF" stroke-width="0.12" stroke-linejoin="bevel" stroke-miterlimit="1.414" d="
		M784.2,181.276c5.4,0,10.5,2.1,14.3,5.9c3.801,3.8,5.9,8.9,5.9,14.3"/>
</g>
<g>
	<defs>
		<polyline id="SVGID_3_" points="1.584,451.235 840.306,451.235 840.306,144.041 1.584,144.041 1.584,451.235 		"/>
	</defs>
	<clipPath id="SVGID_4_">
		<use xlink:href="#SVGID_3_"  overflow="visible"/>
	</clipPath>
	<path clip-path="url(#SVGID_4_)" fill-rule="evenodd" clip-rule="evenodd" fill="#F0F0F0" d="M357.1,346.375l-27.4-38.899
		l25.4-34.3h-14.9l-17.9,25.3c-0.9-1.8-6.4-10.2-16.4-25.3h-15.4l24.7,35l-26.8,38.199h15.1l19.2-29l19,29H357.1"/>
	<polyline clip-path="url(#SVGID_4_)" fill-rule="evenodd" clip-rule="evenodd" fill="#F0F0F0" points="439.7,315.976 
		439.7,303.476 401.8,303.476 401.8,315.976 439.7,315.976 	"/>
	<path clip-path="url(#SVGID_4_)" fill-rule="evenodd" clip-rule="evenodd" fill="#F0F0F0" d="M553.2,346.375l-27.3-38.899
		l25.3-34.3h-14.8l-17.9,25.3c-1-1.8-6.399-10.2-16.5-25.3h-15.3l24.7,35l-26.9,38.199H499.6l19.3-29l19,29H553.2"/>
</g>
</svg>
