<?xml version="1.0" encoding="utf-8"?>
<!-- Generator: Adobe Illustrator 14.0.0, SVG Export Plug-In . SVG Version: 6.00 Build 43363)  -->
<!DOCTYPE svg PUBLIC "-//W3C//DTD SVG 1.1//EN" "http://www.w3.org/Graphics/SVG/1.1/DTD/svg11.dtd">
<svg version="1.1" id="Layer_1" xmlns="http://www.w3.org/2000/svg" xmlns:xlink="http://www.w3.org/1999/xlink" x="0px" y="0px"
	 width="841.89px" height="595.276px" viewBox="0 0 841.89 595.276" enable-background="new 0 0 841.89 595.276"
	 xml:space="preserve">
<g>
	<defs>
		<polyline id="SVGID_1_" points="4.917,577.313 836.973,577.313 836.973,17.964 4.917,17.964 4.917,577.313 		"/>
	</defs>
	<clipPath id="SVGID_2_">
		<use xlink:href="#SVGID_1_"  overflow="visible"/>
	</clipPath>
	
		<line clip-path="url(#SVGID_2_)" fill="none" stroke="#F0F0F0" stroke-width="0.12" stroke-linejoin="bevel" stroke-miterlimit="1.414" x1="828.7" y1="65.276" x2="828.7" y2="528.176"/>
	
		<path clip-path="url(#SVGID_2_)" fill="none" stroke="#F0F0F0" stroke-width="0.12" stroke-linejoin="bevel" stroke-miterlimit="1.414" d="
		M828.7,528.176c0,5.399-1.1,10.699-3.1,15.6c-2.101,5-5.101,9.5-8.9,13.3s-8.3,6.8-13.2,8.8c-5,2.101-10.3,3.101-15.699,3.101"/>
	
		<line clip-path="url(#SVGID_2_)" fill="none" stroke="#F0F0F0" stroke-width="0.12" stroke-linejoin="bevel" stroke-miterlimit="1.414" x1="787.8" y1="568.976" x2="52.7" y2="568.976"/>
	
		<path clip-path="url(#SVGID_2_)" fill="none" stroke="#F0F0F0" stroke-width="0.12" stroke-linejoin="bevel" stroke-miterlimit="1.414" d="
		M52.7,568.976c-5.4,0-10.7-1-15.6-3.101c-5-2-9.5-5-13.3-8.8c-3.8-3.8-6.8-8.3-8.8-13.3c-2.1-4.9-3.1-10.2-3.1-15.6"/>
	
		<line clip-path="url(#SVGID_2_)" fill="none" stroke="#F0F0F0" stroke-width="0.12" stroke-linejoin="bevel" stroke-miterlimit="1.414" x1="11.9" y1="528.176" x2="11.9" y2="65.276"/>
	
		<path clip-path="url(#SVGID_2_)" fill="none" stroke="#F0F0F0" stroke-width="0.12" stroke-linejoin="bevel" stroke-miterlimit="1.414" d="
		M11.9,65.276c0-5.3,1-10.6,3.1-15.6c2-5,5-9.5,8.8-13.3c3.8-3.7,8.3-6.8,13.3-8.8c4.9-2.1,10.2-3.1,15.6-3.1"/>
	
		<line clip-path="url(#SVGID_2_)" fill="none" stroke="#F0F0F0" stroke-width="0.12" stroke-linejoin="bevel" stroke-miterlimit="1.414" x1="52.7" y1="24.476" x2="787.8" y2="24.476"/>
	
		<path clip-path="url(#SVGID_2_)" fill="none" stroke="#F0F0F0" stroke-width="0.12" stroke-linejoin="bevel" stroke-miterlimit="1.414" d="
		M787.8,24.476c5.399,0,10.699,1,15.699,3.1c4.9,2,9.4,5.1,13.2,8.8c3.8,3.8,6.8,8.3,8.9,13.3c2,5,3.1,10.3,3.1,15.6"/>
	<path clip-path="url(#SVGID_2_)" fill-rule="evenodd" clip-rule="evenodd" fill="#0000FF" d="M52.7,44.876h735.1
		c2.5,0,5,0.4,7.6,1.4c2.5,1,4.9,2.6,6.9,4.6s3.5,4.4,4.5,6.9s1.5,5.1,1.5,7.5v462.9c0,2.399-0.5,5-1.5,7.5s-2.5,4.899-4.5,6.899
		s-4.4,3.601-6.9,4.601c-2.6,1-5.1,1.399-7.6,1.399H52.7c-2.4,0-5-0.399-7.5-1.399s-4.9-2.601-6.9-4.601s-3.6-4.399-4.6-6.899
		s-1.4-5.101-1.4-7.5v-462.9c0-2.4,0.4-5,1.4-7.5s2.6-4.9,4.6-6.9s4.4-3.6,6.9-4.6S50.3,44.876,52.7,44.876"/>
	
		<line clip-path="url(#SVGID_2_)" fill="none" stroke="#0000FF" stroke-width="0.12" stroke-linejoin="bevel" stroke-miterlimit="1.414" x1="11.9" y1="24.476" x2="11.9" y2="568.976"/>
	
		<line clip-path="url(#SVGID_2_)" fill="none" stroke="#0000FF" stroke-width="0.12" stroke-linejoin="bevel" stroke-miterlimit="1.414" x1="828.7" y1="568.976" x2="828.7" y2="24.476"/>
	
		<line clip-path="url(#SVGID_2_)" fill="none" stroke="#0000FF" stroke-width="0.12" stroke-linejoin="bevel" stroke-miterlimit="1.414" x1="11.9" y1="568.976" x2="828.7" y2="568.976"/>
	
		<line clip-path="url(#SVGID_2_)" fill="none" stroke="#0000FF" stroke-width="0.12" stroke-linejoin="bevel" stroke-miterlimit="1.414" x1="828.7" y1="24.476" x2="11.9" y2="24.476"/>
	<path clip-path="url(#SVGID_2_)" fill-rule="evenodd" clip-rule="evenodd" fill="#0000FF" d="M11.9,65.276c0-2.4,0.2-4.9,0.6-7.4
		c0.5-2.5,1.2-5.1,2.2-7.6c2-5.1,5.1-9.8,9.1-13.8c4-4.1,8.7-7.1,13.8-9.1c2.5-1,5.1-1.7,7.6-2.2s5-0.7,7.4-0.7H11.9v0.1V65.276"/>
	<path clip-path="url(#SVGID_2_)" fill-rule="evenodd" clip-rule="evenodd" fill="#0000FF" d="M787.8,24.476
		c2.5,0,4.899,0.2,7.5,0.7c2.5,0.4,5,1.1,7.6,2.1c5,2,9.8,5.1,13.8,9.1s7.101,8.8,9.101,13.8c1,2.6,1.699,5.1,2.199,7.6
		c0.5,2.6,0.7,5,0.7,7.5v-40.8h-0.1H787.8"/>
	<path clip-path="url(#SVGID_2_)" fill-rule="evenodd" clip-rule="evenodd" fill="#0000FF" d="M828.7,528.176
		c0,2.399-0.2,4.899-0.7,7.399s-1.199,5.101-2.199,7.601c-2,5.1-5,9.8-9,13.8c-4.101,4.1-8.801,7.1-13.9,9.1c-2.5,1-5,1.8-7.6,2.2
		c-2.5,0.5-5,0.7-7.4,0.7h40.8V528.176"/>
	<path clip-path="url(#SVGID_2_)" fill-rule="evenodd" clip-rule="evenodd" fill="#0000FF" d="M52.7,568.976
		c-2.4,0-4.9-0.2-7.4-0.601c-2.5-0.5-5.1-1.199-7.6-2.199c-5.1-2-9.8-5.101-13.8-9.101c-4.1-4-7.1-8.8-9.1-13.8
		c-1-2.5-1.8-5.1-2.2-7.6c-0.5-2.5-0.7-5-0.7-7.4v40.7H52.7"/>
	<path clip-path="url(#SVGID_2_)" fill-rule="evenodd" clip-rule="evenodd" fill="#F0F0F0" d="M52.7,44.876h735.1
		c2.5,0,5,0.4,7.6,1.4c2.5,1,4.9,2.6,6.9,4.6s3.5,4.4,4.5,6.9s1.5,5.1,1.5,7.5v462.9c0,2.399-0.5,5-1.5,7.5s-2.5,4.899-4.5,6.899
		s-4.4,3.601-6.9,4.601c-2.6,1-5.1,1.399-7.6,1.399H52.7c-2.4,0-5-0.399-7.5-1.399s-4.9-2.601-6.9-4.601s-3.6-4.399-4.6-6.899
		s-1.4-5.101-1.4-7.5v-462.9c0-2.4,0.4-5,1.4-7.5s2.6-4.9,4.6-6.9s4.4-3.6,6.9-4.6S50.3,44.876,52.7,44.876 M52.7,24.476
		c-2.4,0-4.9,0.2-7.4,0.7c-2.6,0.4-5.1,1.2-7.6,2.2c-5.1,2-9.8,5-13.9,9c-4,4.1-7.1,8.8-9.1,13.9c-1,2.5-1.7,5.1-2.2,7.6
		c-0.4,2.5-0.6,5-0.6,7.4v462.9c0,2.399,0.2,4.899,0.6,7.399c0.5,2.601,1.2,5.101,2.2,7.601c2,5.1,5.1,9.8,9.1,13.899
		c4.1,4,8.8,7.101,13.9,9.101c2.5,1,5,1.699,7.6,2.199c2.5,0.4,5,0.601,7.4,0.601h735.1c2.5,0,4.899-0.2,7.5-0.601
		c2.5-0.5,5.1-1.199,7.6-2.199c5.1-2,9.8-5.101,13.8-9.101c4.101-4.1,7.101-8.8,9.101-13.899c1-2.5,1.699-5,2.199-7.601
		c0.5-2.5,0.7-5,0.7-7.399v-462.9c0-2.4-0.2-4.9-0.7-7.4s-1.199-5.1-2.199-7.6c-2-5.1-5-9.8-9.101-13.9c-4-4-8.7-7-13.8-9
		c-2.5-1-5.1-1.8-7.6-2.2c-2.601-0.5-5-0.7-7.5-0.7H52.7"/>
	
		<path clip-path="url(#SVGID_2_)" fill="none" stroke="#0000FF" stroke-width="0.12" stroke-linejoin="bevel" stroke-miterlimit="1.414" d="
		M52.7,24.476c-5.4,0-10.7,1-15.6,3.1c-5,2-9.5,5.1-13.3,8.8c-3.8,3.8-6.8,8.3-8.8,13.3c-2.1,5-3.1,10.3-3.1,15.6"/>
	
		<line clip-path="url(#SVGID_2_)" fill="none" stroke="#0000FF" stroke-width="0.12" stroke-linejoin="bevel" stroke-miterlimit="1.414" x1="11.9" y1="65.276" x2="11.9" y2="528.176"/>
	
		<path clip-path="url(#SVGID_2_)" fill="none" stroke="#0000FF" stroke-width="0.12" stroke-linejoin="bevel" stroke-miterlimit="1.414" d="
		M11.9,528.176c0,5.399,1,10.699,3.1,15.6c2,5,5,9.5,8.8,13.3c3.8,3.8,8.3,6.8,13.3,8.8c4.9,2.101,10.2,3.101,15.6,3.101"/>
	
		<line clip-path="url(#SVGID_2_)" fill="none" stroke="#0000FF" stroke-width="0.12" stroke-linejoin="bevel" stroke-miterlimit="1.414" x1="52.7" y1="568.976" x2="787.8" y2="568.976"/>
	
		<path clip-path="url(#SVGID_2_)" fill="none" stroke="#0000FF" stroke-width="0.12" stroke-linejoin="bevel" stroke-miterlimit="1.414" d="
		M787.8,568.976c5.399,0,10.699-1,15.699-3.101c4.9-2,9.4-5,13.2-8.8s6.8-8.3,8.9-13.3c2-4.9,3.1-10.2,3.1-15.6"/>
	
		<line clip-path="url(#SVGID_2_)" fill="none" stroke="#0000FF" stroke-width="0.12" stroke-linejoin="bevel" stroke-miterlimit="1.414" x1="828.7" y1="528.176" x2="828.7" y2="65.276"/>
	
		<path clip-path="url(#SVGID_2_)" fill="none" stroke="#0000FF" stroke-width="0.12" stroke-linejoin="bevel" stroke-miterlimit="1.414" d="
		M828.7,65.276c0-5.3-1.1-10.6-3.1-15.6c-2.101-5-5.101-9.5-8.9-13.3c-3.8-3.7-8.3-6.8-13.2-8.8c-5-2.1-10.3-3.1-15.699-3.1"/>
	
		<line clip-path="url(#SVGID_2_)" fill="none" stroke="#0000FF" stroke-width="0.12" stroke-linejoin="bevel" stroke-miterlimit="1.414" x1="787.8" y1="24.476" x2="52.7" y2="24.476"/>
	
		<line clip-path="url(#SVGID_2_)" fill="none" stroke="#0000FF" stroke-width="0.12" stroke-linejoin="bevel" stroke-miterlimit="1.414" x1="52.7" y1="44.876" x2="787.8" y2="44.876"/>
	
		<path clip-path="url(#SVGID_2_)" fill="none" stroke="#0000FF" stroke-width="0.12" stroke-linejoin="bevel" stroke-miterlimit="1.414" d="
		M787.8,44.876c5.5,0,10.699,2.2,14.5,6c3.8,3.8,6,9,6,14.4"/>
	
		<line clip-path="url(#SVGID_2_)" fill="none" stroke="#0000FF" stroke-width="0.12" stroke-linejoin="bevel" stroke-miterlimit="1.414" x1="808.3" y1="65.276" x2="808.3" y2="528.176"/>
	
		<path clip-path="url(#SVGID_2_)" fill="none" stroke="#0000FF" stroke-width="0.12" stroke-linejoin="bevel" stroke-miterlimit="1.414" d="
		M808.3,528.176c0,5.399-2.2,10.6-6,14.399c-3.801,3.9-9,6-14.5,6"/>
	
		<line clip-path="url(#SVGID_2_)" fill="none" stroke="#0000FF" stroke-width="0.12" stroke-linejoin="bevel" stroke-miterlimit="1.414" x1="787.8" y1="548.576" x2="52.7" y2="548.576"/>
	
		<path clip-path="url(#SVGID_2_)" fill="none" stroke="#0000FF" stroke-width="0.12" stroke-linejoin="bevel" stroke-miterlimit="1.414" d="
		M52.7,548.576c-5.4,0-10.6-2.1-14.4-6c-3.9-3.8-6-9-6-14.399"/>
	
		<line clip-path="url(#SVGID_2_)" fill="none" stroke="#0000FF" stroke-width="0.12" stroke-linejoin="bevel" stroke-miterlimit="1.414" x1="32.3" y1="528.176" x2="32.3" y2="65.276"/>
	
		<path clip-path="url(#SVGID_2_)" fill="none" stroke="#0000FF" stroke-width="0.12" stroke-linejoin="bevel" stroke-miterlimit="1.414" d="
		M32.3,65.276c0-5.4,2.1-10.6,6-14.4c3.8-3.8,9-6,14.4-6"/>
</g>
<g>
	<defs>
		<polyline id="SVGID_3_" points="4.917,577.313 836.973,577.313 836.973,17.964 4.917,17.964 4.917,577.313 		"/>
	</defs>
	<clipPath id="SVGID_4_">
		<use xlink:href="#SVGID_3_"  overflow="visible"/>
	</clipPath>
	<path clip-path="url(#SVGID_4_)" fill-rule="evenodd" clip-rule="evenodd" fill="#F0F0F0" d="M281.8,427.176
		c-12.9-20.801-19.4-41.601-19.4-62.601c0-9.8,1.3-19.5,3.9-29.1c2.6-9.5,7.8-20.601,15.5-33.3h-8.4
		c-6.6,8.899-12.2,18.5-16.5,28.899c-4.4,10.3-6.6,21.5-6.6,33.601c0,10.699,2.1,21.5,6.2,32.399c4.1,10.8,9.8,20.9,16.9,30.101
		H281.8"/>
	<path clip-path="url(#SVGID_4_)" fill-rule="evenodd" clip-rule="evenodd" fill="#F0F0F0" d="M352.3,399.176l-25.7-36.601
		l23.8-32.399h-14l-16.9,23.899c-0.8-1.7-6-9.6-15.4-23.899h-14.5l23.2,33l-25.3,36h14.3l18.1-27.301l18,27.301H352.3"/>
	<polyline clip-path="url(#SVGID_4_)" fill-rule="evenodd" clip-rule="evenodd" fill="#F0F0F0" points="430.3,370.576 
		430.3,358.776 394.5,358.776 394.5,370.576 430.3,370.576 	"/>
	<path clip-path="url(#SVGID_4_)" fill-rule="evenodd" clip-rule="evenodd" fill="#F0F0F0" d="M537.2,399.176l-25.7-36.601
		l23.9-32.399h-14l-16.9,23.899c-0.899-1.7-6.1-9.6-15.5-23.899h-14.5l23.301,33l-25.301,36h14.2l18.2-27.301l17.9,27.301H537.2"/>
	<path clip-path="url(#SVGID_4_)" fill-rule="evenodd" clip-rule="evenodd" fill="#F0F0F0" d="M551.3,302.176h-8.4
		c13,20.8,19.5,41.699,19.5,62.699c0,9.801-1.3,19.5-4,29c-2.6,9.5-7.8,20.601-15.5,33.301h8.4c6.699-8.9,12.199-18.5,16.6-28.801
		c4.4-10.399,6.6-21.6,6.6-33.699c0-10.7-2.1-21.5-6.199-32.301C564.2,321.476,558.5,311.375,551.3,302.176"/>
</g>
<g>
	<defs>
		<polyline id="SVGID_5_" points="4.917,577.313 836.973,577.313 836.973,17.964 4.917,17.964 4.917,577.313 		"/>
	</defs>
	<clipPath id="SVGID_6_">
		<use xlink:href="#SVGID_5_"  overflow="visible"/>
	</clipPath>
	<path clip-path="url(#SVGID_6_)" fill-rule="evenodd" clip-rule="evenodd" fill="#F0F0F0" d="M348.7,284.876l-25.7-36.7l23.9-32.3
		h-14l-16.9,23.8c-0.9-1.6-6.1-9.6-15.5-23.8H286l23.3,33l-25.3,36h14.2l18.2-27.4l17.9,27.4H348.7"/>
	<polyline clip-path="url(#SVGID_6_)" fill-rule="evenodd" clip-rule="evenodd" fill="#F0F0F0" points="426.7,256.176 
		426.7,244.476 390.9,244.476 390.9,256.176 426.7,256.176 	"/>
	<path clip-path="url(#SVGID_6_)" fill-rule="evenodd" clip-rule="evenodd" fill="#F0F0F0" d="M533.7,284.876l-25.8-36.7l23.9-32.3
		h-14l-16.9,23.8c-0.9-1.6-6-9.6-15.5-23.8h-14.5l23.3,33l-25.3,36h14.2l18.2-27.4l17.899,27.4H533.7"/>
</g>
<g>
	<defs>
		<polyline id="SVGID_7_" points="4.917,577.313 836.973,577.313 836.973,17.964 4.917,17.964 4.917,577.313 		"/>
	</defs>
	<clipPath id="SVGID_8_">
		<use xlink:href="#SVGID_7_"  overflow="visible"/>
	</clipPath>
	<path clip-path="url(#SVGID_8_)" fill-rule="evenodd" clip-rule="evenodd" fill="#F0F0F0" d="M348.7,170.476l-25.7-36.6l23.9-32.4
		h-14l-16.9,23.9c-0.9-1.7-6.1-9.6-15.5-23.9H286l23.3,33l-25.3,36h14.2l18.2-27.3l17.9,27.3H348.7"/>
	<polyline clip-path="url(#SVGID_8_)" fill-rule="evenodd" clip-rule="evenodd" fill="#F0F0F0" points="426.7,141.876 
		426.7,130.076 390.9,130.076 390.9,141.876 426.7,141.876 	"/>
	<path clip-path="url(#SVGID_8_)" fill-rule="evenodd" clip-rule="evenodd" fill="#F0F0F0" d="M533.7,170.476l-25.8-36.6l23.9-32.4
		h-14l-16.9,23.9c-0.9-1.7-6-9.6-15.5-23.9h-14.5l23.3,33l-25.3,36h14.2l18.2-27.3l17.899,27.3H533.7"/>
</g>
<g>
	<defs>
		<polyline id="SVGID_9_" points="4.917,577.313 836.973,577.313 836.973,17.964 4.917,17.964 4.917,577.313 		"/>
	</defs>
	<clipPath id="SVGID_10_">
		<use xlink:href="#SVGID_9_"  overflow="visible"/>
	</clipPath>
	<path clip-path="url(#SVGID_10_)" fill-rule="evenodd" clip-rule="evenodd" fill="#FF0000" d="M348.7,516.176L323,479.576
		l23.9-32.399h-14l-16.9,23.8c-0.9-1.601-6.1-9.601-15.5-23.8H286l23.3,33l-25.3,36h14.2l18.2-27.301l17.9,27.301H348.7"/>
	<polyline clip-path="url(#SVGID_10_)" fill-rule="evenodd" clip-rule="evenodd" fill="#FF0000" points="426.7,487.576 
		426.7,475.776 390.9,475.776 390.9,487.576 426.7,487.576 	"/>
	<path clip-path="url(#SVGID_10_)" fill-rule="evenodd" clip-rule="evenodd" fill="#FF0000" d="M533.7,516.176l-25.8-36.601
		l23.9-32.399h-14l-16.9,23.8c-0.9-1.601-6-9.601-15.5-23.8h-14.5l23.3,33l-25.3,36h14.2l18.2-27.301l17.899,27.301H533.7"/>
</g>
</svg>
