<?xml version="1.0" encoding="utf-8"?>
<!-- Generator: Adobe Illustrator 27.0.1, SVG Export Plug-In . SVG Version: 6.00 Build 0)  -->
<svg version="1.1" id="Layer_1" xmlns="http://www.w3.org/2000/svg" xmlns:xlink="http://www.w3.org/1999/xlink" x="0px" y="0px"
	 viewBox="0 0 425.2 425.2" style="enable-background:new 0 0 425.2 425.2;" xml:space="preserve">
<style type="text/css">
	.st0{fill:#FFCD00;}
	.st1{fill:#E4002B;}
	.st2{fill:#101820;}
</style>
<g id="LWPOLYLINE_71_">
	<rect x="14.17" y="129.92" class="st0" width="396.85" height="165.36"/>
</g>
<g id="LWPOLYLINE_73_">
	<path class="st1" d="M411.02,268.82c0,14.61-11.85,26.46-26.45,26.46H40.63c-14.61,0-26.45-11.85-26.45-26.46V156.38
		c0-14.61,11.85-26.46,26.45-26.46h343.94c14.61,0,26.45,11.85,26.45,26.46V268.82z"/>
</g>
<g id="LWPOLYLINE_72_">
	<path class="st0" d="M397.79,268.82c0,7.31-5.92,13.23-13.22,13.23H40.63c-7.3,0-13.23-5.92-13.23-13.23V156.38
		c0-7.3,5.92-13.23,13.23-13.23h343.94c7.3,0,13.22,5.93,13.22,13.23V268.82z"/>
</g>
<g id="LWPOLYLINE_82_">
	<rect x="191.5" y="179.86" class="st2" width="19.84" height="5.95"/>
</g>
<g id="LWPOLYLINE_83_">
	<rect x="191.5" y="239.39" class="st2" width="19.84" height="5.95"/>
</g>
<g id="LWPOLYLINE_84_">
	<path class="st2" d="M275.37,269.15c5.51-17.44,5.51-36.14,0-53.58h3.14c9.94,16.47,9.94,37.1,0,53.58H275.37z"/>
</g>
<g id="LWPOLYLINE_85_">
	<path class="st2" d="M149.82,269.6c-5.5-17.43-5.5-36.14,0-53.57h-3.14c-9.94,16.47-9.94,37.1,0,53.57H149.82z"/>
</g>
</svg>
