<?xml version="1.0" encoding="utf-8"?>
<!-- Generator: Adobe Illustrator 27.0.1, SVG Export Plug-In . SVG Version: 6.00 Build 0)  -->
<svg version="1.1" id="Layer_1" xmlns="http://www.w3.org/2000/svg" xmlns:xlink="http://www.w3.org/1999/xlink" x="0px" y="0px"
	 viewBox="0 0 425.2 425.2" style="enable-background:new 0 0 425.2 425.2;" xml:space="preserve">
<style type="text/css">
	.st0{fill:#005EB8;stroke:#005EB8;stroke-width:0.5;stroke-miterlimit:10;}
	.st1{fill:#FFFFFF;}
	.st2{fill:#005EB8;}
	.st3{fill:#E4002B;}
</style>
<g id="LWPOLYLINE">
	<rect x="14.17" y="96.85" class="st0" width="396.85" height="231.5"/>
</g>
<g id="LWPOLYLINE_68_">
	<path class="st1" d="M411.02,301.89c0,14.61-11.85,26.46-26.45,26.46H40.63c-14.61,0-26.45-11.84-26.45-26.46V123.31
		c0-14.61,11.84-26.46,26.45-26.46h343.94c14.61,0,26.45,11.85,26.45,26.46V301.89z"/>
</g>
<g id="LWPOLYLINE_67_">
	<path class="st2" d="M397.79,301.89c0,7.31-5.92,13.23-13.22,13.23H40.63c-7.3,0-13.23-5.92-13.23-13.23V123.31
		c0-7.3,5.92-13.23,13.23-13.23h343.94c7.3,0,13.22,5.92,13.22,13.23V301.89z"/>
</g>
<g id="LWPOLYLINE_91_">
	<rect x="192.96" y="149.88" class="st1" width="19.84" height="5.95"/>
</g>
<g id="LWPOLYLINE_92_">
	<rect x="192.96" y="209.4" class="st1" width="19.84" height="5.95"/>
</g>
<g id="LWPOLYLINE_94_">
	<rect x="191.31" y="267.27" class="st1" width="23.15" height="9.26"/>
</g>
<g id="LWPOLYLINE_97_">
	<path class="st1" d="M276.84,239.17c5.51-17.44,5.51-36.15,0-53.58h3.14c9.94,16.47,9.94,37.1,0,53.58H276.84z"/>
</g>
<g id="LWPOLYLINE_98_">
	<path class="st1" d="M151.29,239.61c-5.51-17.44-5.51-36.14,0-53.57h-3.14c-9.94,16.47-9.94,37.09,0,53.57H151.29z"/>
</g>
<g id="LWPOLYLINE_93_">
	<rect x="192.96" y="268.93" class="st3" width="19.84" height="5.95"/>
</g>
</svg>
