<?xml version="1.0" encoding="UTF-8"?>
<svg id="Layer_1" data-name="Layer 1" xmlns="http://www.w3.org/2000/svg" version="1.1" viewBox="0 0 820 547">
  <defs>
    <style>
      .cls-1 {
        fill: #fff;
      }

      .cls-1, .cls-2 {
        stroke-width: 0px;
      }

      .cls-1, .cls-2, .cls-3 {
        fill-rule: evenodd;
      }

      .cls-2 {
        fill: #2261ad;
      }

      .cls-3 {
        fill: #ed2224;
        stroke: #fff;
        stroke-miterlimit: 10;
        stroke-width: 2px;
      }
    </style>
  </defs>
  <g>
    <path class="cls-2" d="M.7,41.3c0-2.4.2-4.9.6-7.5.5-2.5,1.2-5.1,2.2-7.6,2.1-5.1,5.1-9.8,9.2-13.9,4-4,8.8-7.1,13.8-9.1,2.6-1,5.1-1.8,7.7-2.2,2.5-.5,5-.7,7.4-.7H.7v41"/>
    <path class="cls-2" d="M779.6.3c2.4,0,4.9.2,7.5.6,2.5.5,5.1,1.2,7.6,2.2,5.1,2.1,9.9,5.1,13.9,9.2,4.1,4,7.1,8.7,9.2,13.8,1,2.6,1.7,5.1,2.2,7.7.5,2.5.7,5,.7,7.4V.3h-41"/>
    <path class="cls-2" d="M820.6,506.6c0,2.4-.2,4.9-.7,7.4-.5,2.6-1.2,5.2-2.2,7.7-2,5.1-5.1,9.8-9.1,13.9-4.1,4-8.8,7.1-13.9,9.1-2.5,1-5.1,1.8-7.6,2.2-2.6.5-5.1.7-7.5.7h40.9v-41"/>
    <path class="cls-2" d="M41.7,547.6c-2.4,0-4.9-.2-7.4-.7-2.6-.4-5.2-1.1-7.7-2.1-5.1-2.1-9.8-5.1-13.9-9.2-4-4-7.1-8.8-9.1-13.8-1-2.6-1.8-5.1-2.2-7.7-.5-2.5-.7-5-.7-7.4v40.9h40.9"/>
    <path class="cls-1" d="M41.7,20.8h737.9c2.5,0,5,.4,7.6,1.4,2.5,1,4.9,2.6,6.9,4.6,2.1,2,3.6,4.4,4.6,7,1,2.5,1.4,5.1,1.4,7.5v465.3c0,2.4-.4,5-1.4,7.5-1,2.6-2.5,5-4.6,7-2,2-4.4,3.6-6.9,4.6-2.6,1-5.1,1.4-7.6,1.4H41.7c-2.4,0-5-.4-7.5-1.4-2.6-1-5-2.6-7-4.6s-3.6-4.4-4.6-7c-1-2.5-1.4-5.1-1.4-7.5V41.3c0-5.4,2.1-10.7,6-14.5,3.8-3.9,9.1-6,14.5-6M779.6.3H41.7c-2.4,0-4.9.2-7.5.6-2.5.5-5.1,1.2-7.6,2.2-5.1,2.1-9.9,5.1-13.9,9.2-4.1,4-7.1,8.8-9.2,13.9-1,2.5-1.7,5.1-2.1,7.6-.5,2.6-.7,5.1-.7,7.5v465.3c0,2.4.2,4.9.7,7.5.4,2.5,1.1,5.1,2.1,7.6,2.1,5.1,5.1,9.9,9.2,13.9,4,4.1,8.8,7.1,13.9,9.2,2.5,1,5.1,1.7,7.6,2.1,2.6.5,5.1.7,7.5.7h737.9c2.4,0,5-.2,7.5-.7,2.5-.4,5.1-1.1,7.6-2.1,5.1-2.1,9.9-5.1,14-9.2,4-4,7.1-8.8,9.1-13.9,1-2.5,1.7-5.1,2.2-7.6.5-2.6.7-5.1.7-7.5V41.3c0-2.4-.2-4.9-.7-7.5-.5-2.5-1.2-5.1-2.2-7.6-2-5.1-5.1-9.9-9.1-13.9-4.1-4.1-8.9-7.1-14-9.2-2.5-1-5.1-1.7-7.6-2.2-2.5-.4-5.1-.6-7.5-.6"/>
    <path class="cls-2" d="M21.2,41.3v465.3c0,2.4.4,5,1.4,7.5,1,2.6,2.6,5,4.6,7s4.4,3.6,7,4.6c2.5,1,5.1,1.4,7.5,1.4h737.9c2.5,0,5-.4,7.6-1.4,2.5-1,4.9-2.6,6.9-4.6,2.1-2,3.6-4.4,4.6-7,1-2.5,1.4-5.1,1.4-7.5V41.3c0-2.4-.4-5-1.4-7.5-1-2.6-2.5-5-4.6-7-2-2-4.4-3.6-6.9-4.6-2.6-1-5.1-1.4-7.6-1.4H41.7c-2.4,0-5,.4-7.5,1.4-2.6,1-5,2.6-7,4.6s-3.6,4.4-4.6,7c-1,2.5-1.4,5.1-1.4,7.5"/>
  </g>
  <g>
    <path class="cls-1" d="M287.5,398.4c-13-20.9-19.5-41.8-19.5-62.9s1.3-19.6,3.9-29.2c2.7-9.6,7.9-20.7,15.6-33.4h-8.4c-6.7,8.9-12.3,18.5-16.7,28.9-4.4,10.4-6.6,21.7-6.6,33.9s2.1,21.5,6.2,32.5c4.2,10.9,9.9,21,17.1,30.2h8.4"/>
    <path class="cls-1" d="M358.3,370.3l-25.9-36.8,24-32.5h-14.1l-17,24c-.9-1.7-6-9.7-15.5-24h-14.6l23.4,33.2-25.4,36.1h14.3l18.2-27.4,18,27.4h14.6"/>
    <polyline class="cls-1" points="436.5 341.6 436.5 329.7 400.5 329.7 400.5 341.6 436.5 341.6"/>
    <path class="cls-1" d="M543.8,370.3l-25.9-36.8,24-32.5h-14l-17,24c-.9-1.7-6.1-9.7-15.6-24h-14.6l23.4,33.2-25.4,36.1h14.3l18.3-27.4,18,27.4h14.5"/>
    <path class="cls-1" d="M557.9,272.9h-8.4c13,20.8,19.6,41.8,19.6,62.9s-1.4,19.6-4,29.2c-2.6,9.6-7.8,20.7-15.6,33.4h8.4c6.8-8.9,12.3-18.5,16.7-28.9,4.4-10.4,6.6-21.7,6.6-33.8s-2.1-21.6-6.2-32.6c-4.1-10.9-9.8-21-17.1-30.2"/>
  </g>
  <g>
    <path class="cls-1" d="M354.7,255.4l-25.9-36.8,24-32.6h-14.1l-17,24c-.8-1.6-6-9.6-15.5-24h-14.6l23.4,33.2-25.4,36.2h14.3l18.2-27.5,18.1,27.5h14.5"/>
    <polyline class="cls-1" points="432.9 226.6 432.9 214.8 397 214.8 397 226.6 432.9 226.6"/>
    <path class="cls-1" d="M540.3,255.4l-25.9-36.8,24-32.6h-14l-17,24c-.9-1.6-6.1-9.6-15.6-24h-14.6l23.4,33.2-25.4,36.2h14.3l18.3-27.5,18,27.5h14.5"/>
  </g>
  <g>
    <path class="cls-1" d="M354.7,140.5l-25.9-36.8,24-32.6h-14.1l-17,24c-.8-1.7-6-9.6-15.5-24h-14.6l23.4,33.2-25.4,36.2h14.3l18.2-27.5,18.1,27.5h14.5"/>
    <polyline class="cls-1" points="432.9 111.7 432.9 99.9 397 99.9 397 111.7 432.9 111.7"/>
    <path class="cls-1" d="M540.3,140.5l-25.9-36.8,24-32.6h-14l-17,24c-.9-1.7-6.1-9.6-15.6-24h-14.6l23.4,33.2-25.4,36.2h14.3l18.3-27.5,18,27.5h14.5"/>
  </g>
  <g>
    <path class="cls-3" d="M354.7,484.9l-25.9-36.8,24-32.6h-14.1l-17,24c-.8-1.7-6-9.6-15.5-24h-14.6l23.4,33.2-25.4,36.2h14.3l18.2-27.5,18.1,27.5h14.5"/>
    <polyline class="cls-3" points="432.9 456 432.9 444.2 397 444.2 397 456 432.9 456"/>
    <path class="cls-3" d="M540.3,484.9l-25.9-36.8,24-32.6h-14l-17,24c-.9-1.7-6.1-9.6-15.6-24h-14.6l23.4,33.2-25.4,36.2h14.3l18.3-27.5,18,27.5h14.5"/>
  </g>
</svg>