<?xml version="1.0" encoding="utf-8"?>
<!-- Generator: Adobe Illustrator 27.0.1, SVG Export Plug-In . SVG Version: 6.00 Build 0)  -->
<svg version="1.1" id="Layer_1" xmlns="http://www.w3.org/2000/svg" xmlns:xlink="http://www.w3.org/1999/xlink" x="0px" y="0px"
	 viewBox="0 0 425.2 425.2" style="enable-background:new 0 0 425.2 425.2;" xml:space="preserve">
<style type="text/css">
	.st0{fill:#FFCD00;}
	.st1{fill:#E4002B;}
</style>
<g id="LWPOLYLINE_54_">
	<rect x="14.17" y="146.45" class="st0" width="396.85" height="132.29"/>
</g>
<g id="LWPOLYLINE_56_">
	<path class="st1" d="M411.02,252.28c0,14.61-11.85,26.46-26.46,26.46H40.63c-14.61,0-26.45-11.85-26.45-26.46v-79.37
		c0-14.61,11.84-26.46,26.45-26.46h343.94c14.61,0,26.46,11.85,26.46,26.46V252.28z"/>
</g>
<g id="LWPOLYLINE_55_">
	<path class="st0" d="M397.79,252.28c0,7.31-5.92,13.23-13.23,13.23H40.63c-7.3,0-13.23-5.92-13.23-13.23v-79.37
		c0-7.3,5.92-13.23,13.23-13.23h343.94c7.3,0,13.23,5.92,13.23,13.23V252.28z"/>
</g>
<g id="LWPOLYLINE_57_">
	<rect x="182.05" y="208.63" class="st1" width="26.46" height="7.94"/>
</g>
</svg>
