<?xml version="1.0" encoding="iso-8859-1"?>
<!-- Generator: Adobe Illustrator 16.0.0, SVG Export Plug-In . SVG Version: 6.00 Build 0)  -->
<!DOCTYPE svg PUBLIC "-//W3C//DTD SVG 1.1//EN" "http://www.w3.org/Graphics/SVG/1.1/DTD/svg11.dtd">
<svg version="1.1" id="Layer_1" xmlns="http://www.w3.org/2000/svg" xmlns:xlink="http://www.w3.org/1999/xlink" x="0px" y="0px"
	 width="425.197px" height="425.196px" viewBox="0 0 425.197 425.196" style="enable-background:new 0 0 425.197 425.196;"
	 xml:space="preserve">
<g id="LWPOLYLINE_74_">
	<rect x="14.174" y="113.386" style="fill:#FFCD00;" width="396.849" height="198.425"/>
</g>
<g id="LWPOLYLINE_73_">
	<path style="fill:#E4002B;" d="M14.174,139.84c0-14.608,11.846-26.454,26.453-26.454h343.941c14.608,0,26.454,11.846,26.454,26.454
		v145.513c0,14.613-11.846,26.458-26.454,26.458H40.627c-14.607,0-26.453-11.845-26.453-26.458V139.84z"/>
</g>
<g id="LWPOLYLINE_75_">
	<path style="fill:#FFCD00;" d="M397.792,285.353c0,7.309-5.919,13.227-13.223,13.227H40.627c-7.304,0-13.227-5.918-13.227-13.227
		V139.84c0-7.305,5.923-13.228,13.227-13.228h343.941c7.304,0,13.223,5.923,13.223,13.228V285.353z"/>
</g>
<g id="LWPOLYLINE_76_">
	<path style="fill:#101820;" d="M254.042,264.188c0,8.038,6.52,14.549,14.554,14.549c8.033,0,14.554-6.511,14.554-14.549v-5.823
		c0-8.033-6.521-14.549-14.554-14.549c-2.034,0-4.04,0.424-5.891,1.245l1.13-11.299h14.545l-0.529-7.938h-21.164l-2.645,26.458
		l9.265,2.116c1.249-1.665,3.21-2.645,5.289-2.645c3.656,0,6.611,2.959,6.611,6.61v5.823c0,3.651-2.955,6.615-6.611,6.615
		c-3.657,0-6.611-2.964-6.611-6.615H254.042z"/>
</g>
<g id="LWPOLYLINE_78_">
	<path style="fill:#101820;" d="M224.151,233.604c3.128-1.618,5.472-4.418,6.529-7.778h8.016v52.912h-7.934v-40.743l-5.818,1.058
		L224.151,233.604z"/>
</g>
<g id="LWPOLYLINE_79_">
	<path style="fill:#101820;" d="M142.134,240.374c0-8.033,6.513-14.549,14.546-14.549c8.043,0,14.554,6.516,14.554,14.549v5.736
		c0,1.938-0.209,3.866-0.629,5.754c-2.188,9.807-6.557,18.994-12.784,26.873h-10.587c6.109-6.164,10.778-13.605,13.669-21.785
		c-1.368,0.41-2.79,0.62-4.223,0.62c-8.033,0-14.546-6.511-14.546-14.549V240.374z"/>
</g>
<g id="LWPOLYLINE_81_">
	<path style="fill:#101820;" d="M263.307,154.233c3.128-1.618,5.472-4.418,6.529-7.778h8.015v52.912h-7.933v-40.743l-5.818,1.058
		L263.307,154.233z"/>
</g>
<g id="LWPOLYLINE_82_">
	<path style="fill:#101820;" d="M250.477,168.473c2.827-3.734,3.456-8.682,1.678-13.013c-3.063-7.432-11.571-10.97-19.004-7.906
		c-5.443,2.248-9,7.56-9,13.45v2.649h7.934v-2.649c0-0.155,0.009-0.319,0.019-0.474c0.264-3.647,3.428-6.384,7.076-6.119
		c3.638,0.265,6.383,3.429,6.118,7.076c-0.073,0.999-0.429,1.961-1.021,2.764l-20.125,27.183v7.934h29.099v-7.934h-20.107
		L250.477,168.473z"/>
</g>
<g id="LWPOLYLINE_83_">
	<path style="fill:#101820;" d="M142.134,161.004c0-8.033,6.513-14.549,14.546-14.549c8.043,0,14.554,6.516,14.554,14.549v5.736
		c0,1.938-0.209,3.866-0.629,5.754c-2.188,9.807-6.557,18.994-12.784,26.873h-10.587c6.109-6.165,10.778-13.605,13.669-21.785
		c-1.368,0.41-2.79,0.62-4.223,0.62c-8.033,0-14.546-6.511-14.546-14.549V161.004z"/>
</g>
<g id="LWPOLYLINE_84_">
	<rect x="184.465" y="168.946" style="fill:#101820;" width="26.454" height="7.934"/>
</g>
<g id="LWPOLYLINE_85_">
	<rect x="184.465" y="248.316" style="fill:#101820;" width="26.454" height="7.934"/>
</g>
<g id="LWPOLYLINE_86_">
	<path style="fill:#101820;" d="M296.372,288.002c7.35-23.249,7.35-48.193,0-71.437h4.186c13.259,21.967,13.259,49.469,0,71.437
		H296.372z"/>
</g>
<g id="LWPOLYLINE_87_">
	<path style="fill:#101820;" d="M128.903,288.595c-7.341-23.244-7.341-48.184,0-71.428h-4.182
		c-13.259,21.963-13.259,49.465,0,71.428H128.903z"/>
</g>
<g id="LWPOLYLINE_77_">
	<path style="fill:#FFCD00;" d="M150.07,240.374v2.649c0,3.651,2.963,6.615,6.61,6.615c3.657,0,6.621-2.964,6.621-6.615v-2.649
		c0-3.647-2.964-6.611-6.621-6.611C153.033,233.763,150.07,236.727,150.07,240.374z"/>
</g>
<g id="LWPOLYLINE_80_">
	<path style="fill:#FFCD00;" d="M150.07,161.004v2.649c0,3.652,2.963,6.615,6.61,6.615c3.657,0,6.621-2.963,6.621-6.615v-2.649
		c0-3.647-2.964-6.61-6.621-6.61C153.033,154.394,150.07,157.356,150.07,161.004z"/>
</g>
</svg>
