<?xml version="1.0" encoding="utf-8"?>
<!-- Generator: Adobe Illustrator 14.0.0, SVG Export Plug-In . SVG Version: 6.00 Build 43363)  -->
<!DOCTYPE svg PUBLIC "-//W3C//DTD SVG 1.1//EN" "http://www.w3.org/Graphics/SVG/1.1/DTD/svg11.dtd">
<svg version="1.1" id="Layer_1" xmlns="http://www.w3.org/2000/svg" xmlns:xlink="http://www.w3.org/1999/xlink" x="0px" y="0px"
	 width="841.89px" height="595.276px" viewBox="0 0 841.89 595.276" enable-background="new 0 0 841.89 595.276"
	 xml:space="preserve">
<g>
	<defs>
		<polyline id="SVGID_1_" points="0,483.139 842.01,483.139 842.01,112.138 0,112.138 0,483.139 		"/>
	</defs>
	<clipPath id="SVGID_2_">
		<use xlink:href="#SVGID_1_"  overflow="visible"/>
	</clipPath>
	
		<line clip-path="url(#SVGID_2_)" fill="none" stroke="#0000FF" stroke-width="0.12" stroke-linejoin="bevel" stroke-miterlimit="1.414" x1="60.8" y1="137.276" x2="795.8" y2="137.276"/>
	
		<path clip-path="url(#SVGID_2_)" fill="none" stroke="#0000FF" stroke-width="0.12" stroke-linejoin="bevel" stroke-miterlimit="1.414" d="
		M795.8,137.276c5.3,0,10.6,1,15.6,3.1c5,2,9.5,5,13.2,8.8c3.8,3.8,6.8,8.3,8.899,13.3c2.101,4.9,3.101,10.2,3.101,15.6"/>
	
		<line clip-path="url(#SVGID_2_)" fill="none" stroke="#0000FF" stroke-width="0.12" stroke-linejoin="bevel" stroke-miterlimit="1.414" x1="836.6" y1="178.076" x2="836.6" y2="436.676"/>
	
		<path clip-path="url(#SVGID_2_)" fill="none" stroke="#0000FF" stroke-width="0.12" stroke-linejoin="bevel" stroke-miterlimit="1.414" d="
		M836.6,436.676c0,5.399-1,10.699-3.101,15.6c-2.1,5-5.1,9.5-8.899,13.3c-3.7,3.8-8.2,6.8-13.2,8.8c-5,2.101-10.3,3.101-15.6,3.101"
		/>
	
		<line clip-path="url(#SVGID_2_)" fill="none" stroke="#0000FF" stroke-width="0.12" stroke-linejoin="bevel" stroke-miterlimit="1.414" x1="795.8" y1="477.476" x2="60.8" y2="477.476"/>
	
		<path clip-path="url(#SVGID_2_)" fill="none" stroke="#0000FF" stroke-width="0.12" stroke-linejoin="bevel" stroke-miterlimit="1.414" d="
		M60.8,477.476c-5.4,0-10.7-1-15.6-3.101c-5-2-9.5-5-13.3-8.8c-3.8-3.8-6.8-8.3-8.8-13.3c-2.1-4.9-3.1-10.2-3.1-15.6"/>
	
		<line clip-path="url(#SVGID_2_)" fill="none" stroke="#0000FF" stroke-width="0.12" stroke-linejoin="bevel" stroke-miterlimit="1.414" x1="20" y1="436.676" x2="20" y2="178.076"/>
	
		<path clip-path="url(#SVGID_2_)" fill="none" stroke="#0000FF" stroke-width="0.12" stroke-linejoin="bevel" stroke-miterlimit="1.414" d="
		M20,178.076c0-5.4,1-10.7,3.1-15.6c2-5,5-9.5,8.8-13.3c3.8-3.8,8.3-6.8,13.3-8.8c4.9-2.1,10.2-3.1,15.6-3.1"/>
	
		<line clip-path="url(#SVGID_2_)" fill="none" stroke="#0000FF" stroke-width="0.12" stroke-linejoin="bevel" stroke-miterlimit="1.414" x1="60.8" y1="137.276" x2="795.8" y2="137.276"/>
	
		<path clip-path="url(#SVGID_2_)" fill="none" stroke="#0000FF" stroke-width="0.12" stroke-linejoin="bevel" stroke-miterlimit="1.414" d="
		M795.8,137.276c5.3,0,10.6,1,15.6,3.1c5,2,9.5,5,13.2,8.8c3.8,3.8,6.8,8.3,8.899,13.3c2.101,4.9,3.101,10.2,3.101,15.6"/>
	
		<line clip-path="url(#SVGID_2_)" fill="none" stroke="#0000FF" stroke-width="0.12" stroke-linejoin="bevel" stroke-miterlimit="1.414" x1="836.6" y1="178.076" x2="836.6" y2="436.676"/>
	
		<path clip-path="url(#SVGID_2_)" fill="none" stroke="#0000FF" stroke-width="0.12" stroke-linejoin="bevel" stroke-miterlimit="1.414" d="
		M836.6,436.676c0,5.399-1,10.699-3.101,15.6c-2.1,5-5.1,9.5-8.899,13.3c-3.7,3.8-8.2,6.8-13.2,8.8c-5,2.101-10.3,3.101-15.6,3.101"
		/>
	
		<line clip-path="url(#SVGID_2_)" fill="none" stroke="#0000FF" stroke-width="0.12" stroke-linejoin="bevel" stroke-miterlimit="1.414" x1="795.8" y1="477.476" x2="60.8" y2="477.476"/>
	
		<path clip-path="url(#SVGID_2_)" fill="none" stroke="#0000FF" stroke-width="0.12" stroke-linejoin="bevel" stroke-miterlimit="1.414" d="
		M60.8,477.476c-5.4,0-10.7-1-15.6-3.101c-5-2-9.5-5-13.3-8.8c-3.8-3.8-6.8-8.3-8.8-13.3c-2.1-4.9-3.1-10.2-3.1-15.6"/>
	
		<line clip-path="url(#SVGID_2_)" fill="none" stroke="#0000FF" stroke-width="0.12" stroke-linejoin="bevel" stroke-miterlimit="1.414" x1="20" y1="436.676" x2="20" y2="178.076"/>
	
		<path clip-path="url(#SVGID_2_)" fill="none" stroke="#0000FF" stroke-width="0.12" stroke-linejoin="bevel" stroke-miterlimit="1.414" d="
		M20,178.076c0-5.4,1-10.7,3.1-15.6c2-5,5-9.5,8.8-13.3c3.8-3.8,8.3-6.8,13.3-8.8c4.9-2.1,10.2-3.1,15.6-3.1"/>
	
		<line clip-path="url(#SVGID_2_)" fill="none" stroke="#0000FF" stroke-width="0.12" stroke-linejoin="bevel" stroke-miterlimit="1.414" x1="816.2" y1="436.676" x2="816.2" y2="178.076"/>
	
		<path clip-path="url(#SVGID_2_)" fill="none" stroke="#0000FF" stroke-width="0.12" stroke-linejoin="bevel" stroke-miterlimit="1.414" d="
		M816.2,178.076c0-5.4-2.2-10.6-6-14.4c-3.8-3.9-9-6-14.399-6"/>
	
		<line clip-path="url(#SVGID_2_)" fill="none" stroke="#0000FF" stroke-width="0.12" stroke-linejoin="bevel" stroke-miterlimit="1.414" x1="795.8" y1="157.676" x2="60.8" y2="157.676"/>
	
		<path clip-path="url(#SVGID_2_)" fill="none" stroke="#0000FF" stroke-width="0.12" stroke-linejoin="bevel" stroke-miterlimit="1.414" d="
		M60.8,157.676c-5.4,0-10.6,2.1-14.5,6c-3.8,3.8-5.9,9-5.9,14.4"/>
	
		<line clip-path="url(#SVGID_2_)" fill="none" stroke="#0000FF" stroke-width="0.12" stroke-linejoin="bevel" stroke-miterlimit="1.414" x1="40.4" y1="178.076" x2="40.4" y2="436.676"/>
	
		<path clip-path="url(#SVGID_2_)" fill="none" stroke="#0000FF" stroke-width="0.12" stroke-linejoin="bevel" stroke-miterlimit="1.414" d="
		M40.4,436.676c0,5.399,2.1,10.6,5.9,14.399c3.9,3.9,9.1,6,14.5,6"/>
	
		<line clip-path="url(#SVGID_2_)" fill="none" stroke="#0000FF" stroke-width="0.12" stroke-linejoin="bevel" stroke-miterlimit="1.414" x1="60.8" y1="457.076" x2="795.8" y2="457.076"/>
	
		<path clip-path="url(#SVGID_2_)" fill="none" stroke="#0000FF" stroke-width="0.12" stroke-linejoin="bevel" stroke-miterlimit="1.414" d="
		M795.8,457.076c5.399,0,10.6-2.1,14.399-6c3.8-3.8,6-9,6-14.399"/>
	
		<path clip-path="url(#SVGID_2_)" fill="none" stroke="#0000FF" stroke-width="0.12" stroke-linejoin="bevel" stroke-miterlimit="1.414" d="
		M20,178.076c0-5.4,1-10.7,3.1-15.6c2-5,5-9.5,8.8-13.3c3.8-3.8,8.3-6.8,13.3-8.8c4.9-2.1,10.2-3.1,15.6-3.1"/>
	
		<line clip-path="url(#SVGID_2_)" fill="none" stroke="#0000FF" stroke-width="0.12" stroke-linejoin="bevel" stroke-miterlimit="1.414" x1="60.8" y1="137.276" x2="795.8" y2="137.276"/>
	
		<path clip-path="url(#SVGID_2_)" fill="none" stroke="#0000FF" stroke-width="0.12" stroke-linejoin="bevel" stroke-miterlimit="1.414" d="
		M795.8,137.276c5.3,0,10.6,1,15.6,3.1c5,2,9.5,5,13.2,8.8c3.8,3.8,6.8,8.3,8.899,13.3c2.101,4.9,3.101,10.2,3.101,15.6"/>
	
		<line clip-path="url(#SVGID_2_)" fill="none" stroke="#0000FF" stroke-width="0.12" stroke-linejoin="bevel" stroke-miterlimit="1.414" x1="836.6" y1="178.076" x2="836.6" y2="436.676"/>
	
		<path clip-path="url(#SVGID_2_)" fill="none" stroke="#0000FF" stroke-width="0.12" stroke-linejoin="bevel" stroke-miterlimit="1.414" d="
		M836.6,436.676c0,5.399-1,10.699-3.101,15.6c-2.1,5-5.1,9.5-8.899,13.3c-3.7,3.8-8.2,6.8-13.2,8.8c-5,2.101-10.3,3.101-15.6,3.101"
		/>
	
		<line clip-path="url(#SVGID_2_)" fill="none" stroke="#0000FF" stroke-width="0.12" stroke-linejoin="bevel" stroke-miterlimit="1.414" x1="795.8" y1="477.476" x2="60.8" y2="477.476"/>
	
		<path clip-path="url(#SVGID_2_)" fill="none" stroke="#0000FF" stroke-width="0.12" stroke-linejoin="bevel" stroke-miterlimit="1.414" d="
		M60.8,477.476c-5.4,0-10.7-1-15.6-3.101c-5-2-9.5-5-13.3-8.8c-3.8-3.8-6.8-8.3-8.8-13.3c-2.1-4.9-3.1-10.2-3.1-15.6"/>
	
		<line clip-path="url(#SVGID_2_)" fill="none" stroke="#0000FF" stroke-width="0.12" stroke-linejoin="bevel" stroke-miterlimit="1.414" x1="20" y1="436.676" x2="20" y2="178.076"/>
	
		<line clip-path="url(#SVGID_2_)" fill="none" stroke="#0000FF" stroke-width="0.12" stroke-linejoin="bevel" stroke-miterlimit="1.414" x1="60.8" y1="157.676" x2="795.8" y2="157.676"/>
	
		<path clip-path="url(#SVGID_2_)" fill="none" stroke="#0000FF" stroke-width="0.12" stroke-linejoin="bevel" stroke-miterlimit="1.414" d="
		M795.8,157.676c5.399,0,10.6,2.1,14.399,6c3.8,3.8,6,9,6,14.4"/>
	
		<line clip-path="url(#SVGID_2_)" fill="none" stroke="#0000FF" stroke-width="0.12" stroke-linejoin="bevel" stroke-miterlimit="1.414" x1="816.2" y1="178.076" x2="816.2" y2="436.676"/>
	
		<path clip-path="url(#SVGID_2_)" fill="none" stroke="#0000FF" stroke-width="0.12" stroke-linejoin="bevel" stroke-miterlimit="1.414" d="
		M816.2,436.676c0,5.399-2.2,10.6-6,14.399c-3.8,3.9-9,6-14.399,6"/>
	
		<line clip-path="url(#SVGID_2_)" fill="none" stroke="#0000FF" stroke-width="0.12" stroke-linejoin="bevel" stroke-miterlimit="1.414" x1="795.8" y1="457.076" x2="60.8" y2="457.076"/>
	
		<path clip-path="url(#SVGID_2_)" fill="none" stroke="#0000FF" stroke-width="0.12" stroke-linejoin="bevel" stroke-miterlimit="1.414" d="
		M60.8,457.076c-5.4,0-10.6-2.1-14.5-6c-3.8-3.8-5.9-9-5.9-14.399"/>
	
		<line clip-path="url(#SVGID_2_)" fill="none" stroke="#0000FF" stroke-width="0.12" stroke-linejoin="bevel" stroke-miterlimit="1.414" x1="40.4" y1="436.676" x2="40.4" y2="178.076"/>
	
		<path clip-path="url(#SVGID_2_)" fill="none" stroke="#0000FF" stroke-width="0.12" stroke-linejoin="bevel" stroke-miterlimit="1.414" d="
		M40.4,178.076c0-5.4,2.1-10.6,5.9-14.4c3.9-3.9,9.1-6,14.5-6"/>
	
		<line clip-path="url(#SVGID_2_)" fill="none" stroke="#0000FF" stroke-width="0.12" stroke-linejoin="bevel" stroke-miterlimit="1.414" x1="20" y1="477.476" x2="20" y2="137.276"/>
	
		<line clip-path="url(#SVGID_2_)" fill="none" stroke="#0000FF" stroke-width="0.12" stroke-linejoin="bevel" stroke-miterlimit="1.414" x1="836.6" y1="477.476" x2="836.6" y2="137.276"/>
	
		<line clip-path="url(#SVGID_2_)" fill="none" stroke="#0000FF" stroke-width="0.12" stroke-linejoin="bevel" stroke-miterlimit="1.414" x1="20" y1="477.476" x2="836.6" y2="477.476"/>
	
		<line clip-path="url(#SVGID_2_)" fill="none" stroke="#0000FF" stroke-width="0.12" stroke-linejoin="bevel" stroke-miterlimit="1.414" x1="836.6" y1="137.276" x2="20" y2="137.276"/>
	
		<path clip-path="url(#SVGID_2_)" fill="none" stroke="#0000FF" stroke-width="0.12" stroke-linejoin="bevel" stroke-miterlimit="1.414" d="
		M20,178.076c0-5.4,1-10.7,3.1-15.6c2-5,5-9.5,8.8-13.3c3.8-3.8,8.3-6.8,13.3-8.8c4.9-2.1,10.2-3.1,15.6-3.1"/>
	
		<line clip-path="url(#SVGID_2_)" fill="none" stroke="#0000FF" stroke-width="0.12" stroke-linejoin="bevel" stroke-miterlimit="1.414" x1="60.8" y1="137.276" x2="20" y2="137.276"/>
	
		<line clip-path="url(#SVGID_2_)" fill="none" stroke="#0000FF" stroke-width="0.12" stroke-linejoin="bevel" stroke-miterlimit="1.414" x1="20" y1="137.276" x2="20" y2="178.076"/>
	
		<path clip-path="url(#SVGID_2_)" fill="none" stroke="#0000FF" stroke-width="0.12" stroke-linejoin="bevel" stroke-miterlimit="1.414" d="
		M60.8,477.476c-5.4,0-10.7-1-15.6-3.101c-5-2-9.5-5-13.3-8.8c-3.8-3.8-6.8-8.3-8.8-13.3c-2.1-4.9-3.1-10.2-3.1-15.6"/>
	
		<line clip-path="url(#SVGID_2_)" fill="none" stroke="#0000FF" stroke-width="0.12" stroke-linejoin="bevel" stroke-miterlimit="1.414" x1="20" y1="436.676" x2="20" y2="477.476"/>
	
		<line clip-path="url(#SVGID_2_)" fill="none" stroke="#0000FF" stroke-width="0.12" stroke-linejoin="bevel" stroke-miterlimit="1.414" x1="20" y1="477.476" x2="60.8" y2="477.476"/>
	
		<path clip-path="url(#SVGID_2_)" fill="none" stroke="#0000FF" stroke-width="0.12" stroke-linejoin="bevel" stroke-miterlimit="1.414" d="
		M795.8,137.276c5.3,0,10.6,1,15.6,3.1c5,2,9.5,5,13.2,8.8c3.8,3.8,6.8,8.3,8.899,13.3c2.101,4.9,3.101,10.2,3.101,15.6"/>
	
		<line clip-path="url(#SVGID_2_)" fill="none" stroke="#0000FF" stroke-width="0.12" stroke-linejoin="bevel" stroke-miterlimit="1.414" x1="836.6" y1="178.076" x2="836.6" y2="137.276"/>
	
		<line clip-path="url(#SVGID_2_)" fill="none" stroke="#0000FF" stroke-width="0.12" stroke-linejoin="bevel" stroke-miterlimit="1.414" x1="836.6" y1="137.276" x2="795.8" y2="137.276"/>
	
		<path clip-path="url(#SVGID_2_)" fill="none" stroke="#0000FF" stroke-width="0.12" stroke-linejoin="bevel" stroke-miterlimit="1.414" d="
		M836.6,436.676c0,5.399-1,10.699-3.101,15.6c-2.1,5-5.1,9.5-8.899,13.3c-3.7,3.8-8.2,6.8-13.2,8.8c-5,2.101-10.3,3.101-15.6,3.101"
		/>
	
		<line clip-path="url(#SVGID_2_)" fill="none" stroke="#0000FF" stroke-width="0.12" stroke-linejoin="bevel" stroke-miterlimit="1.414" x1="795.8" y1="477.476" x2="836.6" y2="477.476"/>
	
		<line clip-path="url(#SVGID_2_)" fill="none" stroke="#0000FF" stroke-width="0.12" stroke-linejoin="bevel" stroke-miterlimit="1.414" x1="836.6" y1="477.476" x2="836.6" y2="436.676"/>
	<path clip-path="url(#SVGID_2_)" fill-rule="evenodd" clip-rule="evenodd" fill="#0000FF" d="M40.4,178.076v258.601
		c0,2.399,0.4,5,1.4,7.5s2.5,4.899,4.5,6.899c2.1,2,4.4,3.601,7,4.601c2.5,1,5.1,1.399,7.5,1.399h735c2.399,0,5-0.399,7.5-1.399
		s4.899-2.601,6.899-4.601s3.601-4.399,4.601-6.899s1.399-5.101,1.399-7.5V178.076c0-2.4-0.399-5-1.399-7.5
		c-1-2.6-2.601-4.9-4.601-6.9c-2-2.1-4.399-3.6-6.899-4.6s-5.101-1.4-7.5-1.4h-735c-5.4,0-10.6,2.1-14.5,6
		C42.5,167.476,40.4,172.676,40.4,178.076"/>
	<path clip-path="url(#SVGID_2_)" fill-rule="evenodd" clip-rule="evenodd" fill="#0000FF" d="M20,178.076c0-2.4,0.2-4.9,0.6-7.4
		c0.5-2.6,1.2-5.1,2.2-7.6c2-5.1,5.1-9.8,9.1-13.9c4-4,8.7-7,13.8-9.1c2.5-1,5.1-1.7,7.6-2.1c2.5-0.5,5-0.7,7.4-0.7H20V178.076"/>
	<path clip-path="url(#SVGID_2_)" fill-rule="evenodd" clip-rule="evenodd" fill="#0000FF" d="M60.8,477.476c-2.4,0-4.9-0.2-7.4-0.7
		c-2.6-0.4-5.1-1.1-7.6-2.1c-5.1-2-9.8-5.101-13.9-9.101c-4-4-7-8.8-9.1-13.8c-1-2.5-1.7-5.1-2.2-7.6c-0.4-2.5-0.6-5-0.6-7.4v40.7
		H60.8"/>
	<path clip-path="url(#SVGID_2_)" fill-rule="evenodd" clip-rule="evenodd" fill="#0000FF" d="M795.8,137.276
		c2.399,0,4.899,0.2,7.399,0.6c2.5,0.5,5.101,1.2,7.601,2.2c5.1,2,9.8,5.1,13.8,9.1s7.1,8.7,9.1,13.8c1,2.5,1.7,5.1,2.2,7.6
		s0.7,5,0.7,7.4v-40.7H836.5H795.8"/>
	<path clip-path="url(#SVGID_2_)" fill-rule="evenodd" clip-rule="evenodd" fill="#0000FF" d="M836.6,436.676
		c0,2.399-0.2,4.899-0.7,7.399c-0.4,2.5-1.2,5.101-2.2,7.601c-2,5.1-5,9.8-9,13.8c-4,4.1-8.8,7.1-13.8,9.1c-2.6,1-5.1,1.8-7.6,2.2
		c-2.601,0.5-5,0.7-7.5,0.7h40.8V436.676"/>
	<path clip-path="url(#SVGID_2_)" fill-rule="evenodd" clip-rule="evenodd" fill="#F0F0F0" d="M40.4,436.676V178.076
		c0-2.4,0.4-5,1.4-7.5c1-2.6,2.5-4.9,4.5-6.9c2.1-2.1,4.4-3.6,7-4.6c2.5-1,5.1-1.4,7.5-1.4h735c2.399,0,5,0.4,7.5,1.4
		s4.899,2.5,6.899,4.6c2,2,3.601,4.3,4.601,6.9c1,2.5,1.399,5.1,1.399,7.5v258.601c0,2.399-0.399,5-1.399,7.5
		s-2.601,4.899-4.601,6.899s-4.399,3.601-6.899,4.601s-5.101,1.399-7.5,1.399h-735c-2.4,0-5-0.399-7.5-1.399
		c-2.6-1-4.9-2.601-7-4.601c-2-2-3.5-4.399-4.5-6.899S40.4,439.076,40.4,436.676 M60.8,137.276c-2.4,0-4.9,0.2-7.4,0.6
		c-2.6,0.5-5.1,1.2-7.6,2.2c-5.1,2-9.9,5.1-13.9,9.1s-7.1,8.8-9.1,13.9c-1,2.5-1.7,5-2.2,7.6c-0.4,2.5-0.6,5-0.6,7.4v258.601
		c0,2.399,0.2,4.899,0.6,7.399c0.5,2.601,1.2,5.101,2.2,7.601c2,5.1,5.1,9.8,9.1,13.899c4,4,8.8,7.101,13.9,9.101
		c2.5,1,5,1.699,7.6,2.1c2.5,0.5,5,0.7,7.4,0.7h735c2.399,0,4.899-0.2,7.399-0.7c2.5-0.4,5.101-1.1,7.601-2.1
		c5.1-2,9.8-5.101,13.8-9.101c4.1-4.1,7.1-8.8,9.1-13.899c1-2.5,1.8-5,2.2-7.601c0.5-2.5,0.7-5,0.7-7.399V178.076
		c0-2.4-0.2-4.9-0.7-7.4c-0.4-2.6-1.2-5.1-2.2-7.6c-2-5.1-5-9.9-9.1-13.9c-4-4-8.7-7.1-13.8-9.1c-2.5-1-5.101-1.7-7.601-2.2
		c-2.5-0.4-5-0.6-7.399-0.6H60.8"/>
	
		<path clip-path="url(#SVGID_2_)" fill="none" stroke="#0000FF" stroke-width="0.12" stroke-linejoin="bevel" stroke-miterlimit="1.414" d="
		M60.8,137.276c-5.4,0-10.7,1-15.6,3.1c-5,2-9.5,5-13.3,8.8c-3.8,3.8-6.8,8.3-8.8,13.3c-2.1,4.9-3.1,10.2-3.1,15.6"/>
	
		<line clip-path="url(#SVGID_2_)" fill="none" stroke="#0000FF" stroke-width="0.12" stroke-linejoin="bevel" stroke-miterlimit="1.414" x1="20" y1="178.076" x2="20" y2="436.676"/>
	
		<path clip-path="url(#SVGID_2_)" fill="none" stroke="#0000FF" stroke-width="0.12" stroke-linejoin="bevel" stroke-miterlimit="1.414" d="
		M20,436.676c0,5.399,1,10.699,3.1,15.6c2,5,5,9.5,8.8,13.3c3.8,3.8,8.3,6.8,13.3,8.8c4.9,2.101,10.2,3.101,15.6,3.101"/>
	
		<line clip-path="url(#SVGID_2_)" fill="none" stroke="#0000FF" stroke-width="0.12" stroke-linejoin="bevel" stroke-miterlimit="1.414" x1="60.8" y1="477.476" x2="795.8" y2="477.476"/>
	
		<path clip-path="url(#SVGID_2_)" fill="none" stroke="#0000FF" stroke-width="0.12" stroke-linejoin="bevel" stroke-miterlimit="1.414" d="
		M795.8,477.476c5.3,0,10.6-1,15.6-3.101c5-2,9.5-5,13.2-8.8c3.8-3.8,6.8-8.3,8.899-13.3c2.101-4.9,3.101-10.2,3.101-15.6"/>
	
		<line clip-path="url(#SVGID_2_)" fill="none" stroke="#0000FF" stroke-width="0.12" stroke-linejoin="bevel" stroke-miterlimit="1.414" x1="836.6" y1="436.676" x2="836.6" y2="178.076"/>
	
		<path clip-path="url(#SVGID_2_)" fill="none" stroke="#0000FF" stroke-width="0.12" stroke-linejoin="bevel" stroke-miterlimit="1.414" d="
		M836.6,178.076c0-5.4-1-10.7-3.101-15.6c-2.1-5-5.1-9.5-8.899-13.3c-3.7-3.8-8.2-6.8-13.2-8.8c-5-2.1-10.3-3.1-15.6-3.1"/>
	
		<line clip-path="url(#SVGID_2_)" fill="none" stroke="#0000FF" stroke-width="0.12" stroke-linejoin="bevel" stroke-miterlimit="1.414" x1="795.8" y1="137.276" x2="60.8" y2="137.276"/>
	
		<line clip-path="url(#SVGID_2_)" fill="none" stroke="#0000FF" stroke-width="0.12" stroke-linejoin="bevel" stroke-miterlimit="1.414" x1="40.4" y1="436.676" x2="40.4" y2="178.076"/>
	
		<path clip-path="url(#SVGID_2_)" fill="none" stroke="#0000FF" stroke-width="0.12" stroke-linejoin="bevel" stroke-miterlimit="1.414" d="
		M40.4,178.076c0-5.4,2.1-10.6,5.9-14.4c3.9-3.9,9.1-6,14.5-6"/>
	
		<line clip-path="url(#SVGID_2_)" fill="none" stroke="#0000FF" stroke-width="0.12" stroke-linejoin="bevel" stroke-miterlimit="1.414" x1="60.8" y1="157.676" x2="795.8" y2="157.676"/>
	
		<path clip-path="url(#SVGID_2_)" fill="none" stroke="#0000FF" stroke-width="0.12" stroke-linejoin="bevel" stroke-miterlimit="1.414" d="
		M795.8,157.676c5.399,0,10.6,2.1,14.399,6c3.8,3.8,6,9,6,14.4"/>
	
		<line clip-path="url(#SVGID_2_)" fill="none" stroke="#0000FF" stroke-width="0.12" stroke-linejoin="bevel" stroke-miterlimit="1.414" x1="816.2" y1="178.076" x2="816.2" y2="436.676"/>
	
		<path clip-path="url(#SVGID_2_)" fill="none" stroke="#0000FF" stroke-width="0.12" stroke-linejoin="bevel" stroke-miterlimit="1.414" d="
		M816.2,436.676c0,5.399-2.2,10.6-6,14.399c-3.8,3.9-9,6-14.399,6"/>
	
		<line clip-path="url(#SVGID_2_)" fill="none" stroke="#0000FF" stroke-width="0.12" stroke-linejoin="bevel" stroke-miterlimit="1.414" x1="795.8" y1="457.076" x2="60.8" y2="457.076"/>
	
		<path clip-path="url(#SVGID_2_)" fill="none" stroke="#0000FF" stroke-width="0.12" stroke-linejoin="bevel" stroke-miterlimit="1.414" d="
		M60.8,457.076c-5.4,0-10.6-2.1-14.5-6c-3.8-3.8-5.9-9-5.9-14.399"/>
</g>
<g>
	<defs>
		<polyline id="SVGID_3_" points="0,483.139 842.01,483.139 842.01,112.138 0,112.138 0,483.139 		"/>
	</defs>
	<clipPath id="SVGID_4_">
		<use xlink:href="#SVGID_3_"  overflow="visible"/>
	</clipPath>
	<path clip-path="url(#SVGID_4_)" fill-rule="evenodd" clip-rule="evenodd" fill="#F0F0F0" d="M298,417.676
		c-12.9-20.7-19.4-41.601-19.4-62.5c0-9.9,1.3-19.601,3.9-29.101s7.8-20.6,15.5-33.3h-8.4c-6.6,8.9-12.2,18.5-16.5,28.8
		c-4.4,10.4-6.6,21.601-6.6,33.7c0,10.7,2.1,21.4,6.2,32.3c4.1,10.9,9.7,20.9,16.9,30.101H298"/>
	<path clip-path="url(#SVGID_4_)" fill-rule="evenodd" clip-rule="evenodd" fill="#F0F0F0" d="M368.5,389.776l-25.8-36.6l23.9-32.4
		h-14l-16.9,23.8c-0.8-1.6-6-9.6-15.5-23.8h-14.5l23.3,33l-25.3,36H318l18.1-27.4l18,27.4H368.5"/>
	<polyline clip-path="url(#SVGID_4_)" fill-rule="evenodd" clip-rule="evenodd" fill="#F0F0F0" points="446.4,361.076 
		446.4,349.375 410.7,349.375 410.7,361.076 446.4,361.076 	"/>
	<path clip-path="url(#SVGID_4_)" fill-rule="evenodd" clip-rule="evenodd" fill="#F0F0F0" d="M553.4,389.776l-25.8-36.6
		l23.899-32.4h-14l-16.899,23.8c-0.9-1.6-6-9.6-15.5-23.8h-14.5l23.3,33l-25.3,36h14.3l18.1-27.4l18,27.4H553.4"/>
	<path clip-path="url(#SVGID_4_)" fill-rule="evenodd" clip-rule="evenodd" fill="#F0F0F0" d="M567.5,292.776H559.1
		c12.899,20.8,19.399,41.6,19.399,62.6c0,9.9-1.3,19.5-3.899,29.101c-2.7,9.5-7.8,20.6-15.5,33.2h8.399
		c6.601-8.801,12.2-18.4,16.5-28.801c4.4-10.3,6.601-21.6,6.601-33.6c0-10.7-2.101-21.5-6.2-32.4
		C580.3,311.976,574.6,301.976,567.5,292.776"/>
</g>
<g>
	<defs>
		<polyline id="SVGID_5_" points="0,483.139 842.01,483.139 842.01,112.138 0,112.138 0,483.139 		"/>
	</defs>
	<clipPath id="SVGID_6_">
		<use xlink:href="#SVGID_5_"  overflow="visible"/>
	</clipPath>
	<path clip-path="url(#SVGID_6_)" fill-rule="evenodd" clip-rule="evenodd" fill="#F0F0F0" d="M364.9,275.376l-25.7-36.6l23.8-32.4
		h-13.9l-16.9,23.9c-0.9-1.6-6.1-9.6-15.5-23.9h-14.5l23.3,33.1l-25.3,35.9h14.2l18.1-27.3l18,27.3H364.9"/>
	<polyline clip-path="url(#SVGID_6_)" fill-rule="evenodd" clip-rule="evenodd" fill="#F0F0F0" points="442.9,246.776 
		442.9,234.976 407.1,234.976 407.1,246.776 442.9,246.776 	"/>
	<path clip-path="url(#SVGID_6_)" fill-rule="evenodd" clip-rule="evenodd" fill="#F0F0F0" d="M549.8,275.376l-25.7-36.6l23.8-32.4
		h-14l-16.9,23.9c-0.8-1.6-6-9.6-15.399-23.9h-14.5l23.2,33.1l-25.2,35.9h14.2l18.1-27.3l18,27.3H549.8"/>
</g>
</svg>
