<?xml version="1.0" encoding="utf-8"?>
<!-- Generator: Adobe Illustrator 14.0.0, SVG Export Plug-In . SVG Version: 6.00 Build 43363)  -->
<!DOCTYPE svg PUBLIC "-//W3C//DTD SVG 1.1//EN" "http://www.w3.org/Graphics/SVG/1.1/DTD/svg11.dtd">
<svg version="1.1" id="Layer_1" xmlns="http://www.w3.org/2000/svg" xmlns:xlink="http://www.w3.org/1999/xlink" x="0px" y="0px"
	 width="841.89px" height="595.276px" viewBox="0 0 841.89 595.276" enable-background="new 0 0 841.89 595.276"
	 xml:space="preserve">
<g>
	<defs>
		<polyline id="SVGID_1_" points="0,582.519 842.01,582.519 842.01,12.757 0,12.757 0,582.519 		"/>
	</defs>
	<clipPath id="SVGID_2_">
		<use xlink:href="#SVGID_1_"  overflow="visible"/>
	</clipPath>
	
		<line clip-path="url(#SVGID_2_)" fill="none" stroke="#FF0000" stroke-width="0.12" stroke-linejoin="bevel" stroke-miterlimit="1.414" x1="828.8" y1="63.176" x2="828.8" y2="528.375"/>
	
		<path clip-path="url(#SVGID_2_)" fill="none" stroke="#FF0000" stroke-width="0.12" stroke-linejoin="bevel" stroke-miterlimit="1.414" d="
		M828.8,528.375c0,5.4-1.101,10.7-3.2,15.7c-2,5-5,9.5-8.8,13.3c-3.9,3.801-8.4,6.801-13.4,8.9c-4.9,2.1-10.3,3.1-15.7,3.1"/>
	
		<line clip-path="url(#SVGID_2_)" fill="none" stroke="#FF0000" stroke-width="0.12" stroke-linejoin="bevel" stroke-miterlimit="1.414" x1="787.7" y1="569.375" x2="48.9" y2="569.375"/>
	
		<path clip-path="url(#SVGID_2_)" fill="none" stroke="#FF0000" stroke-width="0.12" stroke-linejoin="bevel" stroke-miterlimit="1.414" d="
		M48.9,569.375c-5.4,0-10.7-1-15.7-3.1s-9.5-5.1-13.3-8.9c-3.8-3.8-6.8-8.3-8.9-13.3s-3.1-10.3-3.1-15.7"/>
	
		<line clip-path="url(#SVGID_2_)" fill="none" stroke="#FF0000" stroke-width="0.12" stroke-linejoin="bevel" stroke-miterlimit="1.414" x1="7.9" y1="528.375" x2="7.9" y2="63.176"/>
	
		<path clip-path="url(#SVGID_2_)" fill="none" stroke="#FF0000" stroke-width="0.12" stroke-linejoin="bevel" stroke-miterlimit="1.414" d="
		M7.9,63.176c0-5.4,1-10.7,3.1-15.7s5.1-9.5,8.9-13.3c3.8-3.8,8.3-6.9,13.3-8.9c5-2.1,10.3-3.1,15.7-3.1"/>
	
		<line clip-path="url(#SVGID_2_)" fill="none" stroke="#FF0000" stroke-width="0.12" stroke-linejoin="bevel" stroke-miterlimit="1.414" x1="48.9" y1="22.176" x2="787.7" y2="22.176"/>
	
		<path clip-path="url(#SVGID_2_)" fill="none" stroke="#FF0000" stroke-width="0.12" stroke-linejoin="bevel" stroke-miterlimit="1.414" d="
		M787.7,22.176c5.4,0,10.8,1,15.7,3.1c5,2,9.5,5.1,13.4,8.9c3.8,3.8,6.8,8.3,8.8,13.3c2.1,5,3.2,10.3,3.2,15.7"/>
	
		<line clip-path="url(#SVGID_2_)" fill="none" stroke="#FFFF00" stroke-width="0.12" stroke-linejoin="bevel" stroke-miterlimit="1.414" x1="48.9" y1="42.676" x2="787.7" y2="42.676"/>
	
		<path clip-path="url(#SVGID_2_)" fill="none" stroke="#FFFF00" stroke-width="0.12" stroke-linejoin="bevel" stroke-miterlimit="1.414" d="
		M787.7,42.676c5.5,0,10.7,2.1,14.5,6c3.9,3.8,6,9.1,6,14.5"/>
	
		<line clip-path="url(#SVGID_2_)" fill="none" stroke="#FFFF00" stroke-width="0.12" stroke-linejoin="bevel" stroke-miterlimit="1.414" x1="808.2" y1="63.176" x2="808.2" y2="528.375"/>
	
		<path clip-path="url(#SVGID_2_)" fill="none" stroke="#FFFF00" stroke-width="0.12" stroke-linejoin="bevel" stroke-miterlimit="1.414" d="
		M808.2,528.375c0,5.4-2.1,10.7-6,14.5c-3.8,3.801-9,6-14.5,6"/>
	
		<line clip-path="url(#SVGID_2_)" fill="none" stroke="#FFFF00" stroke-width="0.12" stroke-linejoin="bevel" stroke-miterlimit="1.414" x1="787.7" y1="548.875" x2="48.9" y2="548.875"/>
	
		<path clip-path="url(#SVGID_2_)" fill="none" stroke="#FFFF00" stroke-width="0.12" stroke-linejoin="bevel" stroke-miterlimit="1.414" d="
		M48.9,548.875c-5.4,0-10.7-2.199-14.5-6c-3.9-3.8-6-9.1-6-14.5"/>
	
		<line clip-path="url(#SVGID_2_)" fill="none" stroke="#FFFF00" stroke-width="0.12" stroke-linejoin="bevel" stroke-miterlimit="1.414" x1="28.4" y1="528.375" x2="28.4" y2="63.176"/>
	
		<path clip-path="url(#SVGID_2_)" fill="none" stroke="#FFFF00" stroke-width="0.12" stroke-linejoin="bevel" stroke-miterlimit="1.414" d="
		M28.4,63.176c0-5.4,2.1-10.7,6-14.5c3.8-3.9,9.1-6,14.5-6"/>
	
		<line clip-path="url(#SVGID_2_)" fill="none" stroke="#FFFF00" stroke-width="0.12" stroke-linejoin="bevel" stroke-miterlimit="1.414" x1="7.9" y1="569.375" x2="7.9" y2="22.176"/>
	
		<line clip-path="url(#SVGID_2_)" fill="none" stroke="#FFFF00" stroke-width="0.12" stroke-linejoin="bevel" stroke-miterlimit="1.414" x1="828.8" y1="569.375" x2="828.8" y2="22.176"/>
	
		<line clip-path="url(#SVGID_2_)" fill="none" stroke="#FFFF00" stroke-width="0.12" stroke-linejoin="bevel" stroke-miterlimit="1.414" x1="7.9" y1="569.375" x2="828.8" y2="569.375"/>
	
		<line clip-path="url(#SVGID_2_)" fill="none" stroke="#FFFF00" stroke-width="0.12" stroke-linejoin="bevel" stroke-miterlimit="1.414" x1="828.8" y1="22.176" x2="7.9" y2="22.176"/>
	<path clip-path="url(#SVGID_2_)" fill-rule="evenodd" clip-rule="evenodd" fill="#FFFF00" d="M7.9,63.176c0-2.4,0.2-4.9,0.6-7.5
		c0.5-2.5,1.2-5.1,2.2-7.6c2.1-5.1,5.1-9.8,9.2-13.9c4-4,8.8-7.1,13.8-9.1c2.6-1,5.1-1.8,7.7-2.2c2.5-0.5,5-0.7,7.4-0.7H7.9V63.176"
		/>
	<path clip-path="url(#SVGID_2_)" fill-rule="evenodd" clip-rule="evenodd" fill="#FFFF00" d="M787.7,22.176c2.4,0,4.9,0.2,7.5,0.6
		c2.5,0.5,5.101,1.2,7.601,2.2c5.1,2.1,9.899,5.1,13.899,9.2c4.101,4,7.101,8.7,9.2,13.8c1,2.6,1.7,5.1,2.2,7.7
		c0.5,2.5,0.7,5,0.7,7.4v-40.9H828.7H787.7"/>
	<path clip-path="url(#SVGID_2_)" fill-rule="evenodd" clip-rule="evenodd" fill="#FFFF00" d="M828.8,528.375c0,2.4-0.2,4.9-0.7,7.4
		c-0.5,2.6-1.2,5.2-2.2,7.7c-2,5.1-5.1,9.8-9.1,13.899c-4.101,4-8.801,7.101-13.9,9.101c-2.5,1-5.1,1.8-7.6,2.2
		c-2.601,0.5-5.101,0.699-7.5,0.699h41V528.375"/>
	<path clip-path="url(#SVGID_2_)" fill-rule="evenodd" clip-rule="evenodd" fill="#FFFF00" d="M48.9,569.375
		c-2.4,0-4.9-0.199-7.4-0.699c-2.6-0.4-5.2-1.101-7.7-2.101c-5.1-2.1-9.8-5.1-13.9-9.2c-4-4-7.1-8.8-9.1-13.8
		c-1-2.6-1.8-5.1-2.2-7.7c-0.5-2.5-0.7-5-0.7-7.399v40.899H48.9"/>
	<path clip-path="url(#SVGID_2_)" fill-rule="evenodd" clip-rule="evenodd" fill="#FF0000" d="M48.9,42.676h738.8
		c2.5,0,5,0.4,7.601,1.4c2.5,1,4.899,2.6,6.899,4.6c2.101,2,3.601,4.4,4.601,7c1,2.5,1.399,5.1,1.399,7.5v465.2
		c0,2.4-0.399,5-1.399,7.5c-1,2.601-2.5,5-4.601,7c-2,2-4.399,3.601-6.899,4.601c-2.601,1-5.101,1.399-7.601,1.399H48.9
		c-2.4,0-5-0.399-7.5-1.399c-2.6-1-5-2.601-7-4.601s-3.6-4.399-4.6-7c-1-2.5-1.4-5.1-1.4-7.5v-465.2c0-5.4,2.1-10.7,6-14.5
		C38.2,44.776,43.5,42.676,48.9,42.676 M787.7,22.176H48.9c-2.4,0-4.9,0.2-7.5,0.6c-2.5,0.5-5.1,1.2-7.6,2.2
		c-5.1,2.1-9.9,5.1-13.9,9.2c-4.1,4-7.1,8.8-9.2,13.9c-1,2.5-1.7,5.1-2.1,7.6c-0.5,2.6-0.7,5.1-0.7,7.5v465.2c0,2.4,0.2,4.9,0.7,7.5
		c0.4,2.5,1.1,5.101,2.1,7.601c2.1,5.1,5.1,9.899,9.2,13.899c4,4.101,8.8,7.101,13.9,9.2c2.5,1,5.1,1.7,7.6,2.101
		c2.6,0.5,5.1,0.699,7.5,0.699h738.8c2.4,0,5-0.199,7.5-0.699c2.5-0.4,5.101-1.101,7.601-2.101c5.1-2.1,9.899-5.1,14-9.2
		c4-4,7.1-8.8,9.1-13.899c1-2.5,1.7-5.101,2.2-7.601c0.5-2.6,0.7-5.1,0.7-7.5v-465.2c0-2.4-0.2-4.9-0.7-7.5
		c-0.5-2.5-1.2-5.1-2.2-7.6c-2-5.1-5.1-9.9-9.1-13.9c-4.101-4.1-8.9-7.1-14-9.2c-2.5-1-5.101-1.7-7.601-2.2
		C792.7,22.376,790.1,22.176,787.7,22.176"/>
	
		<line clip-path="url(#SVGID_2_)" fill="none" stroke="#FFFF00" stroke-width="0.12" stroke-linejoin="bevel" stroke-miterlimit="1.414" x1="787.7" y1="22.176" x2="48.9" y2="22.176"/>
	
		<path clip-path="url(#SVGID_2_)" fill="none" stroke="#FFFF00" stroke-width="0.12" stroke-linejoin="bevel" stroke-miterlimit="1.414" d="
		M48.9,22.176c-5.4,0-10.7,1-15.7,3.1c-5,2-9.5,5.1-13.3,8.9c-3.8,3.8-6.8,8.3-8.9,13.3s-3.1,10.3-3.1,15.7"/>
	
		<line clip-path="url(#SVGID_2_)" fill="none" stroke="#FFFF00" stroke-width="0.12" stroke-linejoin="bevel" stroke-miterlimit="1.414" x1="7.9" y1="63.176" x2="7.9" y2="528.375"/>
	
		<path clip-path="url(#SVGID_2_)" fill="none" stroke="#FFFF00" stroke-width="0.12" stroke-linejoin="bevel" stroke-miterlimit="1.414" d="
		M7.9,528.375c0,5.4,1,10.7,3.1,15.7s5.1,9.5,8.9,13.3c3.8,3.801,8.3,6.801,13.3,8.9s10.3,3.1,15.7,3.1"/>
	
		<line clip-path="url(#SVGID_2_)" fill="none" stroke="#FFFF00" stroke-width="0.12" stroke-linejoin="bevel" stroke-miterlimit="1.414" x1="48.9" y1="569.375" x2="787.7" y2="569.375"/>
	
		<path clip-path="url(#SVGID_2_)" fill="none" stroke="#FFFF00" stroke-width="0.12" stroke-linejoin="bevel" stroke-miterlimit="1.414" d="
		M787.7,569.375c5.4,0,10.8-1,15.7-3.1c5-2.1,9.5-5.1,13.4-8.9c3.8-3.8,6.8-8.3,8.8-13.3c2.1-5,3.2-10.3,3.2-15.7"/>
	
		<line clip-path="url(#SVGID_2_)" fill="none" stroke="#FFFF00" stroke-width="0.12" stroke-linejoin="bevel" stroke-miterlimit="1.414" x1="828.8" y1="528.375" x2="828.8" y2="63.176"/>
	
		<path clip-path="url(#SVGID_2_)" fill="none" stroke="#FFFF00" stroke-width="0.12" stroke-linejoin="bevel" stroke-miterlimit="1.414" d="
		M828.8,63.176c0-5.4-1.101-10.7-3.2-15.7c-2-5-5-9.5-8.8-13.3c-3.9-3.8-8.4-6.9-13.4-8.9c-4.9-2.1-10.3-3.1-15.7-3.1"/>
	
		<line clip-path="url(#SVGID_2_)" fill="none" stroke="#FFFF00" stroke-width="0.12" stroke-linejoin="bevel" stroke-miterlimit="1.414" x1="48.9" y1="42.676" x2="787.7" y2="42.676"/>
	
		<path clip-path="url(#SVGID_2_)" fill="none" stroke="#FFFF00" stroke-width="0.12" stroke-linejoin="bevel" stroke-miterlimit="1.414" d="
		M787.7,42.676c5.5,0,10.7,2.1,14.5,6c3.9,3.8,6,9.1,6,14.5"/>
	
		<line clip-path="url(#SVGID_2_)" fill="none" stroke="#FFFF00" stroke-width="0.12" stroke-linejoin="bevel" stroke-miterlimit="1.414" x1="808.2" y1="63.176" x2="808.2" y2="528.375"/>
	
		<path clip-path="url(#SVGID_2_)" fill="none" stroke="#FFFF00" stroke-width="0.12" stroke-linejoin="bevel" stroke-miterlimit="1.414" d="
		M808.2,528.375c0,5.4-2.1,10.7-6,14.5c-3.8,3.801-9,6-14.5,6"/>
	
		<line clip-path="url(#SVGID_2_)" fill="none" stroke="#FFFF00" stroke-width="0.12" stroke-linejoin="bevel" stroke-miterlimit="1.414" x1="787.7" y1="548.875" x2="48.9" y2="548.875"/>
	
		<path clip-path="url(#SVGID_2_)" fill="none" stroke="#FFFF00" stroke-width="0.12" stroke-linejoin="bevel" stroke-miterlimit="1.414" d="
		M48.9,548.875c-5.4,0-10.7-2.199-14.5-6c-3.9-3.8-6-9.1-6-14.5"/>
	
		<line clip-path="url(#SVGID_2_)" fill="none" stroke="#FFFF00" stroke-width="0.12" stroke-linejoin="bevel" stroke-miterlimit="1.414" x1="28.4" y1="528.375" x2="28.4" y2="63.176"/>
	
		<path clip-path="url(#SVGID_2_)" fill="none" stroke="#FFFF00" stroke-width="0.12" stroke-linejoin="bevel" stroke-miterlimit="1.414" d="
		M28.4,63.176c0-5.4,2.1-10.7,6-14.5c3.8-3.9,9.1-6,14.5-6"/>
	<path clip-path="url(#SVGID_2_)" fill-rule="evenodd" clip-rule="evenodd" fill="#FFFF00" d="M28.4,63.176v465.2
		c0,2.4,0.4,5,1.4,7.5c1,2.601,2.6,5,4.6,7s4.4,3.601,7,4.601c2.5,1,5.1,1.399,7.5,1.399h738.8c2.5,0,5-0.399,7.601-1.399
		c2.5-1,4.899-2.601,6.899-4.601c2.101-2,3.601-4.399,4.601-7c1-2.5,1.399-5.1,1.399-7.5v-465.2c0-2.4-0.399-5-1.399-7.5
		c-1-2.6-2.5-5-4.601-7c-2-2-4.399-3.6-6.899-4.6c-2.601-1-5.101-1.4-7.601-1.4H48.9c-2.4,0-5,0.4-7.5,1.4c-2.6,1-5,2.6-7,4.6
		s-3.6,4.4-4.6,7C28.8,58.176,28.4,60.776,28.4,63.176"/>
</g>
<g>
	<defs>
		<polyline id="SVGID_3_" points="0,582.519 842.01,582.519 842.01,12.757 0,12.757 0,582.519 		"/>
	</defs>
	<clipPath id="SVGID_4_">
		<use xlink:href="#SVGID_3_"  overflow="visible"/>
	</clipPath>
	<path clip-path="url(#SVGID_4_)" fill-rule="evenodd" clip-rule="evenodd" fill="#404040" d="M295,420.276
		c-13-20.9-19.5-41.8-19.5-62.9c0-9.8,1.3-19.6,3.9-29.199c2.7-9.601,7.9-20.7,15.6-33.4h-8.4c-6.7,8.9-12.3,18.5-16.7,28.9
		c-4.4,10.399-6.6,21.699-6.6,33.899c0,10.7,2.1,21.5,6.2,32.5c4.2,10.9,9.9,21,17.1,30.2H295"/>
	<path clip-path="url(#SVGID_4_)" fill-rule="evenodd" clip-rule="evenodd" fill="#404040" d="M365.9,392.176L340,355.375l24-32.5
		h-14.1l-17,24c-0.9-1.699-6-9.699-15.5-24h-14.6l23.4,33.2l-25.4,36.101h14.3l18.2-27.4l18,27.4H365.9"/>
	<polyline clip-path="url(#SVGID_4_)" fill-rule="evenodd" clip-rule="evenodd" fill="#404040" points="444.2,363.476 
		444.2,351.576 408.2,351.576 408.2,363.476 444.2,363.476 	"/>
	<path clip-path="url(#SVGID_4_)" fill-rule="evenodd" clip-rule="evenodd" fill="#404040" d="M551.7,392.176L525.8,355.375l24-32.5
		h-14l-17,24c-0.9-1.699-6.101-9.699-15.601-24h-14.6l23.399,33.2L486.6,392.176h14.3l18.3-27.4l18,27.4H551.7"/>
	<path clip-path="url(#SVGID_4_)" fill-rule="evenodd" clip-rule="evenodd" fill="#404040" d="M565.8,294.776h-8.4
		c13,20.8,19.6,41.8,19.6,62.9c0,9.899-1.399,19.6-4,29.199c-2.6,9.601-7.8,20.7-15.6,33.4h8.4c6.8-8.9,12.3-18.5,16.699-28.9
		c4.4-10.399,6.601-21.699,6.601-33.8c0-10.8-2.101-21.6-6.2-32.6C578.8,314.076,573.1,303.976,565.8,294.776"/>
</g>
<g>
	<defs>
		<polyline id="SVGID_5_" points="0,582.519 842.01,582.519 842.01,12.757 0,12.757 0,582.519 		"/>
	</defs>
	<clipPath id="SVGID_6_">
		<use xlink:href="#SVGID_5_"  overflow="visible"/>
	</clipPath>
	<path clip-path="url(#SVGID_6_)" fill-rule="evenodd" clip-rule="evenodd" fill="#404040" d="M362.3,277.276l-25.9-36.8l24-32.6
		h-14.1l-17,24c-0.8-1.6-6-9.6-15.5-24h-14.6l23.4,33.2l-25.4,36.2h14.3l18.2-27.5l18.1,27.5H362.3"/>
	<polyline clip-path="url(#SVGID_6_)" fill-rule="evenodd" clip-rule="evenodd" fill="#404040" points="440.6,248.476 
		440.6,236.676 404.7,236.676 404.7,248.476 440.6,248.476 	"/>
	<path clip-path="url(#SVGID_6_)" fill-rule="evenodd" clip-rule="evenodd" fill="#404040" d="M548.1,277.276l-25.9-36.8l24-32.6
		h-14l-17,24c-0.899-1.6-6.1-9.6-15.6-24H485l23.4,33.2l-25.4,36.2H497.3l18.3-27.5l18,27.5H548.1"/>
</g>
<g>
	<defs>
		<polyline id="SVGID_7_" points="0,582.519 842.01,582.519 842.01,12.757 0,12.757 0,582.519 		"/>
	</defs>
	<clipPath id="SVGID_8_">
		<use xlink:href="#SVGID_7_"  overflow="visible"/>
	</clipPath>
	<path clip-path="url(#SVGID_8_)" fill-rule="evenodd" clip-rule="evenodd" fill="#404040" d="M362.3,162.376l-25.9-36.8l24-32.6
		h-14.1l-17,24c-0.8-1.7-6-9.6-15.5-24h-14.6l23.4,33.2l-25.4,36.2h14.3l18.2-27.5l18.1,27.5H362.3"/>
	<polyline clip-path="url(#SVGID_8_)" fill-rule="evenodd" clip-rule="evenodd" fill="#404040" points="440.6,133.576 
		440.6,121.776 404.7,121.776 404.7,133.576 440.6,133.576 	"/>
	<path clip-path="url(#SVGID_8_)" fill-rule="evenodd" clip-rule="evenodd" fill="#404040" d="M548.1,162.376l-25.9-36.8l24-32.6
		h-14l-17,24c-0.899-1.7-6.1-9.6-15.6-24H485l23.4,33.2l-25.4,36.2H497.3l18.3-27.5l18,27.5H548.1"/>
</g>
<g>
	<defs>
		<polyline id="SVGID_9_" points="0,582.519 842.01,582.519 842.01,12.757 0,12.757 0,582.519 		"/>
	</defs>
	<clipPath id="SVGID_10_">
		<use xlink:href="#SVGID_9_"  overflow="visible"/>
	</clipPath>
	<path clip-path="url(#SVGID_10_)" fill-rule="evenodd" clip-rule="evenodd" fill="#FF0000" d="M362.3,506.676l-25.9-36.801l24-32.6
		h-14.1l-17,24c-0.8-1.7-6-9.6-15.5-24h-14.6l23.4,33.2l-25.4,36.2h14.3l18.2-27.5l18.1,27.5H362.3"/>
	<polyline clip-path="url(#SVGID_10_)" fill-rule="evenodd" clip-rule="evenodd" fill="#FF0000" points="440.6,477.875 
		440.6,466.076 404.7,466.076 404.7,477.875 440.6,477.875 	"/>
	<path clip-path="url(#SVGID_10_)" fill-rule="evenodd" clip-rule="evenodd" fill="#FF0000" d="M548.1,506.676l-25.9-36.801l24-32.6
		h-14l-17,24c-0.899-1.7-6.1-9.6-15.6-24H485l23.4,33.2l-25.4,36.2H497.3l18.3-27.5l18,27.5H548.1"/>
</g>
</svg>
