<?xml version="1.0" encoding="utf-8"?>
<!-- Generator: Adobe Illustrator 28.0.0, SVG Export Plug-In . SVG Version: 6.00 Build 0)  -->
<svg version="1.1" id="Layer_1" xmlns="http://www.w3.org/2000/svg" xmlns:xlink="http://www.w3.org/1999/xlink" x="0px" y="0px"
	 viewBox="0 0 425.2 425.2" style="enable-background:new 0 0 425.2 425.2;" xml:space="preserve">
<style type="text/css">
	.st0{fill:#005EB8;stroke:#005EB8;stroke-width:0.5;stroke-miterlimit:10;}
	.st1{fill:#FFFFFF;}
	.st2{fill:#005EB8;}
</style>
<g id="LWPOLYLINE">
	<rect x="14.17" y="96.85" class="st0" width="396.85" height="231.5"/>
</g>
<g id="LWPOLYLINE_68_">
	<path class="st1" d="M411.02,301.89c0,14.61-11.85,26.46-26.45,26.46H40.63c-14.61,0-26.45-11.84-26.45-26.46V123.31
		c0-14.61,11.84-26.46,26.45-26.46h343.94c14.61,0,26.45,11.85,26.45,26.46V301.89z"/>
</g>
<g id="LWPOLYLINE_67_">
	<path class="st2" d="M397.79,301.89c0,7.31-5.92,13.23-13.22,13.23H40.63c-7.3,0-13.23-5.92-13.23-13.23V123.31
		c0-7.3,5.92-13.23,13.23-13.23h343.94c7.3,0,13.22,5.92,13.22,13.23V301.89z"/>
</g>
<g id="LWPOLYLINE_91_">
	<rect x="192.96" y="209.88" class="st1" width="19.84" height="5.95"/>
</g>
<g id="LWPOLYLINE_92_">
	<rect x="192.96" y="269.4" class="st1" width="19.84" height="5.95"/>
</g>
<g id="LWPOLYLINE_97_">
	<path class="st1" d="M276.84,299.17c5.51-17.44,5.51-36.15,0-53.58h3.14c9.94,16.47,9.94,37.1,0,53.58H276.84z"/>
</g>
<g id="LWPOLYLINE_98_">
	<path class="st1" d="M151.29,299.61c-5.51-17.44-5.51-36.14,0-53.57h-3.14c-9.94,16.47-9.94,37.09,0,53.57H151.29z"/>
</g>
<g id="LWPOLYLINE_94_">
	<polygon class="st1" points="347.62,116.9 333.82,168.4 341.81,168.4 355.61,116.9 	"/>
</g>
<g id="LWPOLYLINE_77_">
	<path class="st1" d="M385.82,139.76v-0.22c0-4.42-3.58-8-8-8c-2.68,0.33-5.26,1.24-7.56,2.67v-13.78h-6.66v44.45h6.66v-23.56
		c0-2.45,1.99-4.44,4.45-4.44c2.45,0,4.44,1.99,4.44,4.44v23.56h6.66V139.76z"/>
</g>
<g id="LWPOLYLINE_7_">
	<rect x="289.92" y="131.95" class="st1" width="6.91" height="34.56"/>
</g>
<g id="LWPOLYLINE_6_">
	<rect x="289.92" y="120.43" class="st1" width="6.91" height="6.91"/>
</g>
<g id="LWPOLYLINE_5_">
	<path class="st1" d="M274.71,140.7c0-1.78-1.45-3.22-3.23-3.22h-0.46c-3.05,0-5.53,2.48-5.53,5.53v23.5h-6.91V140.7
		c0-1.78-1.45-3.22-3.22-3.22h-0.46c-3.06,0-5.53,2.48-5.53,5.53v23.5h-6.91v-34.56h6.91v2.76c2.26-1.4,4.78-2.33,7.41-2.71
		c0.32-0.05,0.65-0.06,0.97-0.04c2.58,0.17,4.93,1.54,6.36,3.69c2.58-1.93,5.61-3.19,8.79-3.65c0.32-0.05,0.65-0.06,0.97-0.04
		c4.36,0.29,7.74,3.91,7.74,8.27v26.27h-6.91V140.7z"/>
</g>
<g id="LWPOLYLINE_4_">
	<path class="st1" d="M312.96,166.51h-6.91v-34.56h6.91v2.76c2.26-1.4,4.78-2.33,7.42-2.71c0.32-0.05,0.65-0.06,0.97-0.04
		c4.36,0.29,7.74,3.91,7.74,8.27v26.27h-6.91V140.7c0-1.78-1.44-3.22-3.22-3.22h-0.46c-3.05,0-5.53,2.48-5.53,5.53V166.51z"/>
</g>
</svg>
