<?xml version="1.0" encoding="utf-8"?>
<!-- Generator: Adobe Illustrator 28.0.0, SVG Export Plug-In . SVG Version: 6.00 Build 0)  -->
<svg version="1.1" id="Layer_1" xmlns="http://www.w3.org/2000/svg" xmlns:xlink="http://www.w3.org/1999/xlink" x="0px" y="0px"
	 viewBox="0 0 425.2 425.2" style="enable-background:new 0 0 425.2 425.2;" xml:space="preserve">
<style type="text/css">
	.st0{fill:#FFCD00;}
	.st1{fill:#E4002B;}
	.st2{fill:#101820;}
</style>
<g id="LWPOLYLINE_71_">
	<rect x="14.17" y="129.92" class="st0" width="396.85" height="165.36"/>
</g>
<g id="LWPOLYLINE_73_">
	<path class="st1" d="M411.02,268.82c0,14.61-11.85,26.46-26.45,26.46H40.63c-14.61,0-26.45-11.85-26.45-26.46V156.38
		c0-14.61,11.85-26.46,26.45-26.46h343.94c14.61,0,26.45,11.85,26.45,26.46V268.82z"/>
</g>
<g id="LWPOLYLINE_72_">
	<path class="st0" d="M397.79,268.82c0,7.31-5.92,13.23-13.22,13.23H40.63c-7.3,0-13.23-5.92-13.23-13.23V156.38
		c0-7.3,5.92-13.23,13.23-13.23h343.94c7.3,0,13.22,5.93,13.22,13.23V268.82z"/>
</g>
<g id="LWPOLYLINE_83_">
	<rect x="191.5" y="239.39" class="st2" width="19.84" height="5.95"/>
</g>
<g id="LWPOLYLINE_85_">
	<polygon class="st2" points="349.31,152.14 334.28,208.22 342.99,208.22 358.01,152.14 	"/>
</g>
<g id="LWPOLYLINE_60_">
	<rect x="291.69" y="168.53" class="st2" width="6.73" height="33.65"/>
</g>
<g id="LWPOLYLINE_61_">
	<rect x="291.69" y="157.31" class="st2" width="6.73" height="6.73"/>
</g>
<g id="LWPOLYLINE_62_">
	<path class="st2" d="M276.89,177.05c0-1.73-1.41-3.14-3.14-3.14h-0.45c-2.97,0-5.38,2.41-5.38,5.39v22.88h-6.73v-25.13
		c0-1.73-1.41-3.14-3.14-3.14h-0.45c-2.98,0-5.38,2.41-5.38,5.39v22.88h-6.73v-33.65h6.73v2.69c2.2-1.37,4.66-2.27,7.22-2.64
		c0.31-0.05,0.63-0.06,0.95-0.04c2.51,0.17,4.8,1.5,6.19,3.6c2.51-1.88,5.46-3.11,8.56-3.56c0.31-0.05,0.63-0.06,0.95-0.04
		c4.24,0.28,7.54,3.81,7.54,8.05v25.58h-6.73V177.05z"/>
</g>
<g id="LWPOLYLINE_63_">
	<path class="st2" d="M314.12,202.18h-6.73v-33.65h6.73v2.69c2.2-1.37,4.66-2.27,7.22-2.64c0.31-0.05,0.63-0.06,0.95-0.04
		c4.24,0.28,7.54,3.81,7.54,8.05v25.58h-6.73v-25.13c0-1.73-1.4-3.14-3.14-3.14h-0.45c-2.97,0-5.38,2.41-5.38,5.39V202.18z"/>
</g>
<g id="LWPOLYLINE_50_">
	<path class="st2" d="M384.92,177.27v-0.22c0-4.46-3.61-8.07-8.07-8.07c-2.71,0.33-5.31,1.25-7.63,2.69v-13.91h-6.73v44.87h6.73
		v-23.78c0-2.47,2.01-4.48,4.49-4.48c2.47,0,4.48,2.01,4.48,4.48v23.78h6.73V177.27z"/>
</g>
</svg>
