<?xml version="1.0" encoding="UTF-8"?>
<svg xmlns="http://www.w3.org/2000/svg" version="1.1" viewBox="0 0 425.2 425.2">
  <defs>
    <style>
      .cls-1 {
        fill: #e4002b;
      }

      .cls-2 {
        fill: #ffcd00;
      }

      .cls-3 {
        fill: #231f20;
      }

      .cls-4 {
        fill: #101820;
      }
    </style>
  </defs>
  <!-- Generator: Adobe Illustrator 28.7.1, SVG Export Plug-In . SVG Version: 1.2.0 Build 142)  -->
  <g>
    <g id="Layer_1">
      <g id="LWPOLYLINE">
        <rect class="cls-2" x="14.2" y="37.3" width="396.8" height="350.6"/>
      </g>
      <g id="LWPOLYLINE-2" data-name="LWPOLYLINE">
        <path class="cls-1" d="M411,361.4c0,14.6-11.8,26.5-26.5,26.5H40.6c-14.6,0-26.5-11.8-26.5-26.5V63.8c0-14.6,11.8-26.5,26.5-26.5h343.9c14.6,0,26.5,11.8,26.5,26.5v297.6h0Z"/>
      </g>
      <g id="LWPOLYLINE-3" data-name="LWPOLYLINE">
        <path class="cls-2" d="M397.8,361.4c0,7.3-5.9,13.2-13.2,13.2H40.6c-7.3,0-13.2-5.9-13.2-13.2V63.8c0-7.3,5.9-13.2,13.2-13.2h343.9c7.3,0,13.2,5.9,13.2,13.2v297.6h0Z"/>
      </g>
      <g id="LWPOLYLINE-4" data-name="LWPOLYLINE">
        <path class="cls-4" d="M383.9,87.5v-.3c0-5.3-4.3-9.5-9.5-9.5-3.2.4-6.3,1.5-9,3.2v-16.4h-7.9v52.9h7.9v-28c0-2.9,2.4-5.3,5.3-5.3s5.3,2.4,5.3,5.3v28.1h7.9v-29.9h0Z"/>
      </g>
      <g id="LWPOLYLINE-5" data-name="LWPOLYLINE">
        <path class="cls-4" d="M128.9,290.6c-7.3-23.2-7.3-48.2,0-71.4h-4.2c-13.3,22-13.3,49.5,0,71.4h4.2Z"/>
      </g>
      <g id="LWPOLYLINE-6" data-name="LWPOLYLINE">
        <path class="cls-4" d="M296.3,290.6c7.4-23.2,7.4-48.2,0-71.4h4.2c13.3,22,13.3,49.5,0,71.4h-4.2Z"/>
      </g>
      <g id="LWPOLYLINE-7" data-name="LWPOLYLINE">
        <rect class="cls-4" x="182" y="251" width="26.5" height="7.9"/>
      </g>
      <g id="LWPOLYLINE-8" data-name="LWPOLYLINE">
        <rect class="cls-4" x="182" y="171.6" width="26.5" height="7.9"/>
      </g>
      <g id="LWPOLYLINE-9" data-name="LWPOLYLINE">
        <rect class="cls-1" x="182" y="330.3" width="26.5" height="7.9"/>
      </g>
      <g id="LWPOLYLINE-4">
        <rect class="cls-4" x="275.2" y="78.1" width="7.9" height="39.7"/>
      </g>
      <g id="LWPOLYLINE-5">
        <rect class="cls-4" x="275.2" y="64.8" width="7.9" height="7.9"/>
      </g>
      <g id="LWPOLYLINE-6">
        <path class="cls-4" d="M257.7,88.1c0-2-1.7-3.7-3.7-3.7h-.5c-3.5,0-6.3,2.8-6.3,6.4v27h-7.9v-29.6c0-2-1.7-3.7-3.7-3.7h-.5c-3.5,0-6.3,2.8-6.3,6.4v27h-7.9v-39.7h7.9v3.2c2.6-1.6,5.5-2.7,8.5-3.1h1.1c3,.2,5.7,1.8,7.3,4.2,3-2.2,6.4-3.7,10.1-4.2h1.1c5,.3,8.9,4.5,8.9,9.5v30.2h-7.9v-29.6h0l-.2-.3Z"/>
      </g>
      <g id="LWPOLYLINE-7">
        <path class="cls-4" d="M301.6,117.7h-7.9v-39.7h7.9v3.2c2.6-1.6,5.5-2.7,8.5-3.1h1.1c5,.3,8.9,4.5,8.9,9.5v30.2h-7.9v-29.6c0-2-1.7-3.7-3.7-3.7h-.5c-3.5,0-6.4,2.8-6.4,6.4v27h0v-.2Z"/>
      </g>
      <g id="LWPOLYLINE-12">
        <polygon class="cls-3" points="340.1 64.1 326.2 116.8 334.2 116.8 348.1 64.1 340.1 64.1"/>
      </g>
    </g>
  </g>
</svg>