<?xml version="1.0" encoding="utf-8"?>
<!-- Generator: Adobe Illustrator 28.0.0, SVG Export Plug-In . SVG Version: 6.00 Build 0)  -->
<svg version="1.1" id="Layer_1" xmlns="http://www.w3.org/2000/svg" xmlns:xlink="http://www.w3.org/1999/xlink" x="0px" y="0px"
	 viewBox="0 0 425.2 425.2" style="enable-background:new 0 0 425.2 425.2;" xml:space="preserve">
<style type="text/css">
	.st0{fill:#FFCD00;}
	.st1{fill:#E4002B;}
	.st2{fill:#101820;}
</style>
<g id="LWPOLYLINE">
	<rect x="14.17" y="80.31" class="st0" width="396.85" height="264.57"/>
</g>
<g id="LWPOLYLINE_74_">
	<path class="st1" d="M411.02,318.42c0,14.61-11.85,26.46-26.45,26.46H40.63c-14.61,0-26.45-11.84-26.45-26.46V106.77
		c0-14.61,11.85-26.46,26.45-26.46h343.94c14.61,0,26.45,11.85,26.45,26.46V318.42z"/>
</g>
<g id="LWPOLYLINE_75_">
	<path class="st0" d="M397.79,318.42c0,7.31-5.92,13.23-13.22,13.23H40.63c-7.3,0-13.23-5.92-13.23-13.23V106.77
		c0-7.3,5.92-13.23,13.23-13.23h343.94c7.3,0,13.22,5.93,13.22,13.23V318.42z"/>
</g>
<g id="LWPOLYLINE_109_">
	<rect x="186.42" y="203.26" class="st2" width="26.45" height="7.94"/>
</g>
<g id="LWPOLYLINE_110_">
	<rect x="186.42" y="282.63" class="st2" width="26.45" height="7.94"/>
</g>
<g id="LWPOLYLINE_113_">
	<path class="st2" d="M298.25,322.31c7.34-23.24,7.34-48.19,0-71.43h4.18c13.26,21.96,13.26,49.46,0,71.43H298.25z"/>
</g>
<g id="LWPOLYLINE_114_">
	<path class="st2" d="M130.86,322.91c-7.35-23.24-7.35-48.19,0-71.43h-4.19c-13.25,21.97-13.25,49.47,0,71.43H130.86z"/>
</g>
<g id="LWPOLYLINE_85_">
	<polygon class="st2" points="349.29,102.11 333.4,161.44 342.61,161.44 358.5,102.11 	"/>
</g>
<g id="LWPOLYLINE_60_">
	<rect x="288.34" y="119.44" class="st2" width="7.12" height="35.59"/>
</g>
<g id="LWPOLYLINE_61_">
	<rect x="288.34" y="107.58" class="st2" width="7.12" height="7.12"/>
</g>
<g id="LWPOLYLINE_62_">
	<path class="st2" d="M272.68,128.46c0-1.83-1.49-3.32-3.32-3.32h-0.47c-3.14,0-5.69,2.55-5.69,5.7v24.2h-7.12v-26.58
		c0-1.83-1.49-3.32-3.32-3.32h-0.47c-3.15,0-5.7,2.55-5.7,5.7v24.2h-7.12v-35.59h7.12v2.85c2.33-1.45,4.93-2.4,7.63-2.79
		c0.33-0.05,0.67-0.06,1-0.04c2.66,0.18,5.08,1.58,6.55,3.8c2.66-1.99,5.77-3.28,9.06-3.76c0.33-0.05,0.67-0.06,1-0.04
		c4.49,0.3,7.97,4.03,7.97,8.52v27.06h-7.12V128.46z"/>
</g>
<g id="LWPOLYLINE_63_">
	<path class="st2" d="M312.07,155.04h-7.12v-35.59h7.12v2.85c2.33-1.45,4.93-2.4,7.64-2.79c0.33-0.05,0.67-0.06,1-0.04
		c4.49,0.3,7.97,4.03,7.97,8.52v27.06h-7.12v-26.58c0-1.83-1.48-3.32-3.32-3.32h-0.47c-3.14,0-5.7,2.55-5.7,5.7V155.04z"/>
</g>
<g id="LWPOLYLINE_50_">
	<path class="st2" d="M386.96,128.69v-0.24c0-4.71-3.82-8.54-8.54-8.54c-2.86,0.35-5.62,1.32-8.07,2.85v-14.71h-7.12v47.46h7.12
		v-25.16c0-2.62,2.13-4.74,4.75-4.74c2.62,0,4.74,2.13,4.74,4.74v25.16h7.12V128.69z"/>
</g>
</svg>
