<?xml version="1.0" encoding="utf-8"?>
<!-- Generator: Adobe Illustrator 28.0.0, SVG Export Plug-In . SVG Version: 6.00 Build 0)  -->
<svg version="1.1" id="Layer_1" xmlns="http://www.w3.org/2000/svg" xmlns:xlink="http://www.w3.org/1999/xlink" x="0px" y="0px"
	 viewBox="0 0 425.2 425.2" style="enable-background:new 0 0 425.2 425.2;" xml:space="preserve">
<style type="text/css">
	.st0{fill:#005EB8;stroke:#005EB8;stroke-width:0.5;stroke-miterlimit:10;}
	.st1{fill:#FFFFFF;}
	.st2{fill:#005EB8;}
</style>
<g id="LWPOLYLINE_71_">
	<rect x="18.17" y="129.92" class="st0" width="396.85" height="165.36"/>
</g>
<g id="LWPOLYLINE_73_">
	<path class="st1" d="M415.02,268.82c0,14.61-11.85,26.46-26.45,26.46H44.63c-14.61,0-26.45-11.85-26.45-26.46V156.38
		c0-14.61,11.85-26.46,26.45-26.46h343.94c14.61,0,26.45,11.85,26.45,26.46V268.82z"/>
</g>
<g id="LWPOLYLINE_72_">
	<path class="st2" d="M401.79,268.82c0,7.31-5.92,13.23-13.22,13.23H44.63c-7.3,0-13.23-5.92-13.23-13.23V156.38
		c0-7.3,5.92-13.23,13.23-13.23h343.94c7.3,0,13.22,5.93,13.22,13.23V268.82z"/>
</g>
<g id="LWPOLYLINE_83_">
	<rect x="191.5" y="239.39" class="st1" width="19.84" height="5.95"/>
</g>
<g id="LWPOLYLINE_94_">
	<polygon class="st1" points="343.24,154.4 330.51,201.9 337.89,201.9 350.61,154.4 	"/>
</g>
<g id="LWPOLYLINE_77_">
	<path class="st1" d="M378.48,175.49v-0.2c0-4.07-3.3-7.38-7.38-7.38c-2.47,0.3-4.85,1.14-6.97,2.46v-12.71h-6.15v41h6.15v-21.73
		c0-2.26,1.84-4.1,4.1-4.1c2.26,0,4.1,1.84,4.1,4.1v21.73h6.15V175.49z"/>
</g>
<g id="LWPOLYLINE_7_">
	<rect x="290.02" y="168.28" class="st1" width="6.37" height="31.87"/>
</g>
<g id="LWPOLYLINE_6_">
	<rect x="290.02" y="157.65" class="st1" width="6.37" height="6.38"/>
</g>
<g id="LWPOLYLINE_5_">
	<path class="st1" d="M276,176.35c0-1.64-1.33-2.97-2.98-2.97h-0.42c-2.82,0-5.1,2.28-5.1,5.1v21.67h-6.38v-23.8
		c0-1.64-1.33-2.97-2.97-2.97h-0.43c-2.82,0-5.1,2.28-5.1,5.1v21.67h-6.38v-31.87h6.38v2.55c2.08-1.3,4.41-2.15,6.84-2.5
		c0.3-0.04,0.6-0.05,0.9-0.04c2.38,0.16,4.55,1.42,5.87,3.41c2.38-1.78,5.17-2.94,8.11-3.37c0.3-0.04,0.6-0.05,0.9-0.04
		c4.02,0.27,7.14,3.61,7.14,7.63v24.23H276V176.35z"/>
</g>
<g id="LWPOLYLINE_4_">
	<path class="st1" d="M311.27,200.15h-6.38v-31.87h6.38v2.55c2.08-1.3,4.41-2.15,6.84-2.5c0.3-0.04,0.6-0.05,0.9-0.04
		c4.02,0.27,7.14,3.61,7.14,7.63v24.23h-6.38v-23.8c0-1.64-1.33-2.97-2.97-2.97h-0.42c-2.82,0-5.1,2.28-5.1,5.1V200.15z"/>
</g>
</svg>
