<?xml version="1.0" encoding="utf-8"?>
<!-- Generator: Adobe Illustrator 27.0.1, SVG Export Plug-In . SVG Version: 6.00 Build 0)  -->
<svg version="1.1" id="Layer_1" xmlns="http://www.w3.org/2000/svg" xmlns:xlink="http://www.w3.org/1999/xlink" x="0px" y="0px"
	 viewBox="0 0 425.2 425.2" style="enable-background:new 0 0 425.2 425.2;" xml:space="preserve">
<style type="text/css">
	.st0{fill:#FFCD00;}
	.st1{fill:#E4002B;}
	.st2{fill:#101820;}
</style>
<g id="LWPOLYLINE_35_">
	<rect x="14.17" y="37.32" class="st0" width="396.85" height="350.56"/>
</g>
<g id="LWPOLYLINE_37_">
	<path class="st1" d="M411.02,361.42c0,14.61-11.85,26.46-26.45,26.46H40.63c-14.61,0-26.45-11.85-26.45-26.46V63.78
		c0-14.61,11.85-26.46,26.45-26.46h343.94c14.61,0,26.45,11.85,26.45,26.46V361.42z"/>
</g>
<g id="LWPOLYLINE_36_">
	<path class="st0" d="M397.79,361.42c0,7.31-5.92,13.23-13.22,13.23H40.63c-7.3,0-13.23-5.92-13.23-13.23V63.78
		c0-7.3,5.92-13.23,13.23-13.23h343.94c7.3,0,13.22,5.92,13.22,13.23V361.42z"/>
</g>
<g id="LWPOLYLINE_53_">
	<path class="st2" d="M128.9,290.65c-7.34-23.24-7.34-48.19,0-71.43h-4.19c-13.26,21.97-13.26,49.47,0,71.43H128.9z"/>
</g>
<g id="LWPOLYLINE_54_">
	<path class="st2" d="M296.29,290.65c7.35-23.24,7.35-48.19,0-71.43h4.19c13.26,21.97,13.26,49.47,0,71.43H296.29z"/>
</g>
<g id="LWPOLYLINE_56_">
	<rect x="182.04" y="250.96" class="st2" width="26.45" height="7.94"/>
</g>
<g id="LWPOLYLINE_57_">
	<rect x="182.04" y="171.63" class="st2" width="26.45" height="7.94"/>
</g>
<g id="LWPOLYLINE_55_">
	<rect x="182.04" y="330.33" class="st1" width="26.45" height="7.94"/>
</g>
</svg>
