<?xml version="1.0" encoding="UTF-8"?>
<svg xmlns="http://www.w3.org/2000/svg" version="1.1" viewBox="0 0 425.2 425.2">
  <defs>
    <style>
      .cls-1 {
        fill: #fff;
      }

      .cls-2 {
        stroke: #005eb8;
        stroke-miterlimit: 10;
        stroke-width: .5px;
      }

      .cls-2, .cls-3 {
        fill: #005eb8;
      }
    </style>
  </defs>
  <!-- Generator: Adobe Illustrator 28.7.1, SVG Export Plug-In . SVG Version: 1.2.0 Build 142)  -->
  <g>
    <g id="Layer_1">
      <g id="LWPOLYLINE">
        <rect class="cls-2" x="14.2" y="146.5" width="396.8" height="132.3"/>
      </g>
      <g id="LWPOLYLINE-2" data-name="LWPOLYLINE">
        <path class="cls-1" d="M411,252.3c0,14.6-11.8,26.5-26.5,26.5H40.6c-14.6,0-26.5-11.8-26.5-26.5v-79.4c0-14.6,11.8-26.5,26.5-26.5h343.9c14.6,0,26.5,11.8,26.5,26.5v79.4h0Z"/>
      </g>
      <g id="LWPOLYLINE-3" data-name="LWPOLYLINE">
        <path class="cls-3" d="M397.8,252.3c0,7.3-5.9,13.2-13.2,13.2H40.6c-7.3,0-13.2-5.9-13.2-13.2v-79.4c0-7.3,5.9-13.2,13.2-13.2h343.9c7.3,0,13.2,5.9,13.2,13.2v79.4h0Z"/>
      </g>
      <g id="LWPOLYLINE-4" data-name="LWPOLYLINE">
        <rect class="cls-1" x="270.3" y="199.6" width="7.9" height="39.7"/>
      </g>
      <g id="LWPOLYLINE-5" data-name="LWPOLYLINE">
        <rect class="cls-1" x="270.3" y="186.3" width="7.9" height="7.9"/>
      </g>
      <g id="LWPOLYLINE-6" data-name="LWPOLYLINE">
        <path class="cls-1" d="M252.8,209.6c0-2-1.7-3.7-3.7-3.7h-.5c-3.5,0-6.3,2.8-6.3,6.4v27h-7.9v-29.6c0-2-1.7-3.7-3.7-3.7h-.5c-3.5,0-6.3,2.8-6.3,6.4v27h-7.9v-39.7h7.9v3.2c2.6-1.6,5.5-2.7,8.5-3.1.4,0,.7,0,1.1,0,3,.2,5.7,1.8,7.3,4.2,3-2.2,6.4-3.7,10.1-4.2.4,0,.7,0,1.1,0,5,.3,8.9,4.5,8.9,9.5v30.2h-7.9v-29.6h0Z"/>
      </g>
      <g id="LWPOLYLINE-7" data-name="LWPOLYLINE">
        <path class="cls-1" d="M296.7,239.2h-7.9v-39.7h7.9v3.2c2.6-1.6,5.5-2.7,8.5-3.1.4,0,.7,0,1.1,0,5,.3,8.9,4.5,8.9,9.5v30.2h-7.9v-29.6c0-2-1.7-3.7-3.7-3.7h-.5c-3.5,0-6.4,2.8-6.4,6.4v27h0Z"/>
      </g>
      <g id="LWPOLYLINE-12">
        <polygon class="cls-1" points="341.2 188.6 327.3 241.4 335.3 241.4 349.2 188.6 341.2 188.6"/>
      </g>
      <g id="LWPOLYLINE-13">
        <path class="cls-1" d="M379.7,212.1v-.2c0-4.5-3.6-8.2-8.1-8.2-2.7.3-5.3,1.3-7.6,2.7v-14.2h-6.7v45.7h6.7v-24.2c0-2.5,2-4.6,4.5-4.6s4.5,2,4.5,4.6v24.2h6.7v-25.8h0Z"/>
      </g>
    </g>
  </g>
</svg>