<?xml version="1.0" encoding="UTF-8"?>
<svg id="Layer_1" data-name="Layer 1" xmlns="http://www.w3.org/2000/svg" version="1.1" viewBox="0 0 396.8 165.2">
  <defs>
    <style>
      .cls-1, .cls-2 {
        fill: #2261ad;
      }

      .cls-1, .cls-3 {
        stroke: #fff;
        stroke-miterlimit: 10;
      }

      .cls-2, .cls-4 {
        stroke-width: 0px;
      }

      .cls-4 {
        fill: #fff;
      }

      .cls-3 {
        fill: none;
        stroke-width: 2px;
      }
    </style>
  </defs>
  <polygon class="cls-2" points="0 -.2 396.8 -.2 396.8 165 0 165 0 -.2 0 -.2"/>
  <polygon class="cls-4" points="26.6 -.2 370.3 -.2 370.3 -.2 373.1 0 375.8 .3 378.3 1 380.8 1.8 383.1 3 385.3 4.3 387.3 5.8 389.1 7.5 390.8 9.5 392.3 11.5 393.6 13.5 394.8 16 395.8 18.3 396.3 21 396.8 23.5 396.8 26.3 396.8 138.8 396.8 138.8 396.8 141.3 396.3 144 395.8 146.5 394.8 149 393.6 151.3 392.3 153.5 390.8 155.5 389.1 157.3 387.3 159 385.3 160.5 383.1 162 380.8 163 378.3 164 375.8 164.5 373.1 165 370.3 165 26.6 165 26.6 165 23.8 165 21.1 164.5 18.6 164 16.1 163 13.8 162 11.8 160.5 9.6 159 7.8 157.3 6.1 155.5 4.6 153.5 3.3 151.3 2.1 149 1.3 146.5 .6 144 0 141.3 0 138.8 0 26.3 0 26.3 0 23.5 .6 21 1.3 18.3 2.1 16 3.3 13.5 4.6 11.5 6.1 9.5 7.8 7.5 9.6 5.8 11.8 4.3 13.8 3 16.1 1.8 18.6 1 21.1 .3 23.8 0 26.6 -.2 26.6 -.2 26.6 -.2"/>
  <polygon class="cls-2" points="26.6 13 370.3 13 370.3 13 373.1 13.3 375.6 14 377.8 15.3 379.8 16.8 381.3 18.8 382.6 21 383.3 23.5 383.6 26.3 383.6 138.8 383.6 138.8 383.3 141.3 382.6 143.8 381.3 146 379.8 148 377.8 149.8 375.6 150.8 373.1 151.5 370.3 152 26.6 152 26.6 152 23.8 151.5 21.3 150.8 19.1 149.8 17.1 148 15.6 146 14.3 143.8 13.6 141.3 13.3 138.8 13.3 26.3 13.3 26.3 13.6 23.5 14.3 21 15.6 18.8 17.1 16.8 19.1 15.3 21.3 14 23.8 13.3 26.6 13 26.6 13 26.6 13"/>
  <polygon class="cls-3" points="33.1 125 33.1 40 33.1 40 33.3 38.5 33.6 37.3 34.3 36 35.1 35 36.3 34 37.3 33.5 38.8 33 40.1 32.8 99.1 32.8 99.1 32.8 100.3 33 101.8 33.5 103.1 34 104.1 35 104.8 36 105.6 37.3 106.1 38.5 106.1 40 106.1 125 106.1 125 106.1 126.5 105.6 127.8 104.8 129 104.1 130 103.1 130.8 101.8 131.5 100.3 132 99.1 132 40.1 132 40.1 132 38.8 132 37.3 131.5 36.3 130.8 35.1 130 34.3 129 33.6 127.8 33.3 126.5 33.1 125 33.1 125 33.1 125"/>
  <polygon class="cls-4" points="69.6 68.5 76.6 40 62.6 40 69.6 68.5 69.6 68.5"/>
  <polygon class="cls-4" points="43.8 76.8 61.1 64.3 61.1 64.3 62.3 65.8 64.1 67 66.1 68 67.8 68.5 70.1 68.5 72.1 68.3 74.1 67.8 75.8 66.5 75.8 66.5 77.1 65.5 78.3 64.3 95.6 76.8 95.6 76.8 93.8 78.8 92.3 80.5 90.3 82.3 88.3 83.8 88.3 83.8 85.6 85.8 82.8 87 79.8 88.3 76.8 89 73.8 89.8 70.8 90 67.6 90 64.6 89.5 61.6 89 58.6 88 55.8 86.8 53.1 85.3 50.6 83.5 48.1 81.5 45.8 79.3 43.8 76.8 43.8 76.8 43.8 76.8"/>
  <polygon class="cls-2" points="53.6 121.8 53.6 96.3 53.6 96.3 53.8 95 54.6 94 55.6 93.3 56.8 93 82.3 93 82.3 93 83.6 93.3 84.6 94 85.3 95 85.6 96.3 85.6 121.8 85.6 121.8 85.3 123 84.6 124 83.6 124.8 82.3 125 56.8 125 56.8 125 55.6 124.8 54.6 124 53.8 123 53.6 121.8 53.6 121.8 53.6 121.8"/>
  <polygon class="cls-1" points="55.3 121.8 55.3 96.3 55.3 96.3 55.3 95.8 55.8 95.3 56.3 94.8 56.8 94.8 82.3 94.8 82.3 94.8 83.1 94.8 83.6 95.3 83.8 95.8 84.1 96.3 84.1 121.8 84.1 121.8 83.8 122.5 83.6 123 83.1 123.3 82.3 123.3 56.8 123.3 56.8 123.3 56.3 123.3 55.8 123 55.3 122.5 55.3 121.8 55.3 121.8 55.3 121.8"/>
  <polygon class="cls-4" points="170.1 69.3 170.1 71.3 170.1 71.3 169.8 73.8 169.1 76 168.1 78 166.8 80 166.8 80 167.8 81 168.6 82.3 169.6 83.5 170.1 84.8 170.6 86.3 171.1 87.8 171.3 89.3 171.3 90.8 171.3 94.3 171.3 94.3 171.3 95.8 171.1 97.3 170.1 100 168.8 102.5 167.1 104.8 164.8 106.5 162.3 107.8 159.8 108.5 158.3 108.8 156.8 109 156.8 109 155.3 108.8 153.8 108.5 151.1 107.8 148.6 106.5 146.6 104.8 144.8 102.5 143.3 100 142.6 97.3 142.3 95.8 142.3 94.3 150.1 94.3 150.1 94.3 150.3 95.8 150.6 97 151.3 98 152.1 99 153.1 99.8 154.3 100.5 155.6 100.8 156.8 101 156.8 101 158.1 100.8 159.3 100.5 160.6 99.8 161.6 99 162.3 98 162.8 97 163.3 95.8 163.3 94.3 163.3 90.8 163.3 90.8 163.3 89.3 162.8 88 162.3 87 161.6 86 160.6 85.3 159.3 84.5 158.1 84.3 156.8 84 154.6 84 154.6 76.8 156.8 76.8 156.8 76.8 157.8 76.5 158.8 76.3 159.8 75.8 160.6 75 161.1 74.3 161.6 73.5 162.1 72.5 162.1 71.3 162.1 69.3 162.1 69.3 162.1 68.3 161.6 67.3 161.1 66.3 160.6 65.5 159.8 64.8 158.8 64.3 157.8 64 156.8 64 156.8 64 155.8 64 154.8 64.3 153.8 64.8 153.1 65.5 152.3 66.3 151.8 67.3 151.6 68.3 151.6 69.3 143.6 69.3 143.6 69.3 143.8 66.5 144.6 64 145.8 61.8 147.3 59.8 149.3 58.3 151.6 57 154.1 56.3 156.8 56 156.8 56 159.3 56.3 161.8 57 164.1 58.3 166.1 59.8 167.8 61.8 169.1 64 169.8 66.5 170.1 69.3 170.1 69.3 170.1 69.3"/>
  <polygon class="cls-4" points="184.6 70.5 184.6 94.3 184.6 94.3 184.6 95.8 184.8 97.3 185.8 100 187.1 102.5 188.8 104.8 191.1 106.5 193.3 107.8 196.1 108.5 197.6 108.8 199.1 109 199.1 109 200.6 108.8 202.1 108.5 204.8 107.8 207.3 106.5 209.3 104.8 211.1 102.5 212.6 100 213.3 97.3 213.6 95.8 213.6 94.3 213.6 70.5 213.6 70.5 213.6 69 213.3 67.5 212.6 64.8 211.1 62.5 209.3 60.3 207.3 58.5 204.8 57.3 202.1 56.3 200.6 56 199.1 56 199.1 56 197.6 56 196.1 56.3 193.3 57.3 191.1 58.5 188.8 60.3 187.1 62.5 185.8 64.8 184.8 67.5 184.6 69 184.6 70.5 184.6 70.5 184.6 70.5"/>
  <polygon class="cls-4" points="302.6 109 302.6 69.5 310.6 69.5 310.6 109 302.6 109 302.6 109"/>
  <polygon class="cls-4" points="302.6 64 310.6 64 310.6 56.3 302.6 56.3 302.6 64 302.6 64"/>
  <polygon class="cls-4" points="285.1 79.5 285.1 79.5 285.1 78.8 284.8 78 284.1 76.8 282.8 76 282.1 75.8 281.3 75.8 280.8 75.8 280.8 75.8 279.6 76 278.3 76.3 277.3 76.8 276.3 77.5 275.6 78.5 275.1 79.8 274.6 80.8 274.6 82 274.6 109 266.6 109 266.6 79.5 266.6 79.5 266.6 78.8 266.3 78 265.6 76.8 264.3 76 263.6 75.8 262.8 75.8 262.3 75.8 262.3 75.8 261.1 76 259.8 76.3 258.8 76.8 257.8 77.5 257.1 78.5 256.6 79.8 256.1 80.8 256.1 82 256.1 109 248.1 109 248.1 69.5 256.1 69.5 256.1 72.5 256.1 72.5 258.1 71.5 260.1 70.5 262.3 70 264.6 69.5 264.6 69.5 265.6 69.5 265.6 69.5 267.8 69.8 269.8 70.8 271.6 72 272.8 73.8 272.8 73.8 275.3 72.3 277.8 71 280.3 70 283.1 69.5 283.1 69.5 284.1 69.5 284.1 69.5 286.1 69.8 287.6 70.3 289.1 71.3 290.6 72.5 291.6 73.8 292.3 75.3 292.8 77 293.1 79 293.1 109 285.1 109 285.1 79.5 285.1 79.5"/>
  <polygon class="cls-4" points="329.1 109 321.1 109 321.1 69.5 329.1 69.5 329.1 72.5 329.1 72.5 331.1 71.5 333.1 70.5 335.3 70 337.6 69.5 337.6 69.5 338.6 69.5 338.6 69.5 340.6 69.8 342.1 70.3 343.6 71.3 345.1 72.5 346.1 73.8 346.8 75.3 347.3 77 347.6 79 347.6 109 339.6 109 339.6 79.5 339.6 79.5 339.6 78.8 339.3 78 338.6 76.8 337.3 76 336.6 75.8 335.8 75.8 335.3 75.8 335.3 75.8 334.1 76 332.8 76.3 331.8 76.8 330.8 77.5 330.1 78.5 329.6 79.8 329.1 80.8 329.1 82 329.1 109 329.1 109"/>
  <polygon class="cls-4" points="61.1 121.8 65.8 121.8 65.8 111.3 72.8 111.3 72.8 111.3 74.3 111 75.6 110.5 76.8 110 78.1 109 79.1 108 79.6 106.8 80.1 105.3 80.3 103.8 80.3 103.8 80.1 102.3 79.6 100.8 79.1 99.5 78.1 98.5 76.8 97.5 75.6 97 74.3 96.5 72.8 96.3 61.1 96.3 61.1 121.8 61.1 121.8"/>
  <polygon class="cls-2" points="65.8 101 65.8 106.5 73.1 106.5 73.1 106.5 74.1 106 74.8 105.5 75.3 104.5 75.3 103.5 75.3 103.5 75.1 102.5 74.6 101.8 73.8 101.3 72.8 101 65.8 101 65.8 101"/>
  <polygon class="cls-2" points="205.8 70.5 205.8 70.5 205.6 69.3 205.3 68 204.6 66.8 203.8 65.8 202.8 65 201.6 64.5 200.3 64 199.1 64 199.1 64 197.8 64 196.6 64.5 195.3 65 194.3 65.8 193.6 66.8 193.1 68 192.6 69.3 192.6 70.5 192.6 94.3 192.6 94.3 192.6 95.8 193.1 97 193.6 98 194.3 99 195.3 99.8 196.6 100.5 197.8 100.8 199.1 101 199.1 101 200.3 100.8 201.6 100.5 202.8 99.8 203.8 99 204.6 98 205.3 97 205.6 95.8 205.8 94.3 205.8 70.5 205.8 70.5"/>
</svg>