<?xml version="1.0" encoding="utf-8"?>
<!-- Generator: Adobe Illustrator 28.0.0, SVG Export Plug-In . SVG Version: 6.00 Build 0)  -->
<svg version="1.1" id="Layer_1" xmlns="http://www.w3.org/2000/svg" xmlns:xlink="http://www.w3.org/1999/xlink" x="0px" y="0px"
	 viewBox="0 0 425.2 425.2" style="enable-background:new 0 0 425.2 425.2;" xml:space="preserve">
<style type="text/css">
	.st0{fill:#FFCD00;}
	.st1{fill:#E4002B;}
	.st2{fill:#101820;}
</style>
<g id="LWPOLYLINE_30_">
	<rect x="14.17" y="129.92" class="st0" width="396.85" height="165.36"/>
</g>
<g id="LWPOLYLINE_32_">
	<path class="st1" d="M40.63,129.92h343.94c14.61,0,26.45,11.84,26.45,26.46v112.44c0,14.61-11.85,26.46-26.45,26.46H40.63
		c-14.61,0-26.46-11.85-26.46-26.46V156.38C14.17,141.77,26.02,129.92,40.63,129.92z"/>
</g>
<g id="LWPOLYLINE_31_">
	<path class="st0" d="M40.63,143.15h343.94c7.3,0,13.23,5.93,13.23,13.23v112.44c0,7.31-5.92,13.23-13.23,13.23H40.63
		c-7.3,0-13.23-5.92-13.23-13.23V156.38C27.4,149.07,33.33,143.15,40.63,143.15z"/>
</g>
<g id="LWPOLYLINE_33_">
	<path class="st2" d="M47.25,255.12v-85.04c0-3.92,3.17-7.09,7.08-7.09h58.82c3.92,0,7.09,3.17,7.09,7.09v85.04
		c0,3.91-3.17,7.09-7.09,7.09H54.33C50.42,262.2,47.25,259.03,47.25,255.12z"/>
</g>
<g id="LWPOLYLINE_34_">
	<polygon class="st0" points="83.74,198.75 90.83,170.08 76.65,170.08 	"/>
</g>
<g id="LWPOLYLINE_35_">
	<path class="st0" d="M57.88,206.91l17.27-12.53c3.45,4.75,10.09,5.8,14.85,2.36c0.9-0.66,1.7-1.45,2.36-2.36l17.26,12.53
		c-1.97,2.72-4.36,5.11-7.08,7.09C88.24,224.37,68.25,221.19,57.88,206.91z"/>
</g>
<g id="LWPOLYLINE_37_">
	<path class="st0" d="M67.8,251.93v-25.51c0-1.76,1.43-3.19,3.19-3.19H96.5c1.76,0,3.19,1.43,3.19,3.19v25.51
		c0,1.76-1.43,3.19-3.19,3.19H70.99C69.22,255.12,67.8,253.69,67.8,251.93z"/>
</g>
<g id="LWPOLYLINE_36_">
	<path class="st2" d="M69.39,251.93v-25.51c0-0.88,0.72-1.6,1.6-1.6H96.5c0.88,0,1.59,0.71,1.59,1.6v25.51
		c0,0.88-0.71,1.59-1.59,1.59H70.99C70.11,253.52,69.39,252.81,69.39,251.93z"/>
</g>
<g id="LWPOLYLINE_38_">
	<path class="st0" d="M75.22,251.96h4.78v-10.63h6.91c4.11,0,7.44-3.33,7.44-7.44c0-4.11-3.33-7.44-7.44-7.44h-11.7V251.96z"/>
</g>
<g id="LWPOLYLINE_39_">
	<path class="st2" d="M80.01,231.23v5.31h7.12c1.46-0.12,2.56-1.4,2.44-2.86c-0.11-1.38-1.26-2.45-2.65-2.45H80.01z"/>
</g>
<g id="LWPOLYLINE_85_">
	<polygon class="st2" points="352.77,186.32 336.88,245.65 346.09,245.65 361.98,186.32 	"/>
</g>
<g id="LWPOLYLINE_00000163057184441170620010000017702894356489732788_">
	<rect x="291.83" y="203.66" class="st2" width="7.12" height="35.59"/>
</g>
<g id="LWPOLYLINE_00000041270928926220379220000011901707732384830363_">
	<rect x="291.83" y="191.79" class="st2" width="7.12" height="7.12"/>
</g>
<g id="LWPOLYLINE_00000114756356833174339570000000853333372686497928_">
	<path class="st2" d="M276.16,212.67c0-1.83-1.49-3.32-3.32-3.32h-0.47c-3.14,0-5.69,2.55-5.69,5.7v24.2h-7.12v-26.58
		c0-1.83-1.49-3.32-3.32-3.32h-0.47c-3.15,0-5.7,2.55-5.7,5.7v24.2h-7.12v-35.59h7.12v2.85c2.33-1.45,4.93-2.4,7.63-2.79
		c0.33-0.05,0.67-0.06,1-0.04c2.66,0.18,5.08,1.58,6.55,3.8c2.66-1.99,5.77-3.28,9.06-3.76c0.33-0.05,0.67-0.06,1-0.04
		c4.49,0.3,7.97,4.03,7.97,8.52v27.06h-7.12V212.67z"/>
</g>
<g id="LWPOLYLINE_00000102525772092989906990000010417606293831528602_">
	<path class="st2" d="M315.55,239.25h-7.12v-35.59h7.12v2.85c2.33-1.45,4.93-2.4,7.64-2.79c0.33-0.05,0.67-0.06,1-0.04
		c4.49,0.3,7.97,4.03,7.97,8.52v27.06h-7.12v-26.58c0-1.83-1.48-3.32-3.32-3.32h-0.47c-3.14,0-5.7,2.55-5.7,5.7V239.25z"/>
</g>
<g id="LWPOLYLINE_50_">
	<path class="st2" d="M390.45,212.9v-0.24c0-4.71-3.82-8.54-8.54-8.54c-2.86,0.35-5.62,1.32-8.07,2.85v-14.71h-7.12v47.46h7.12
		v-25.16c0-2.62,2.13-4.74,4.75-4.74c2.62,0,4.74,2.13,4.74,4.74v25.16h7.12V212.9z"/>
</g>
</svg>
