<?xml version="1.0" encoding="utf-8"?>
<!-- Generator: Adobe Illustrator 28.0.0, SVG Export Plug-In . SVG Version: 6.00 Build 0)  -->
<svg version="1.1" id="Layer_1" xmlns="http://www.w3.org/2000/svg" xmlns:xlink="http://www.w3.org/1999/xlink" x="0px" y="0px"
	 viewBox="0 0 425.2 425.2" style="enable-background:new 0 0 425.2 425.2;" xml:space="preserve">
<style type="text/css">
	.st0{fill:#005EB8;stroke:#005EB8;stroke-width:0.5;stroke-miterlimit:10;}
	.st1{fill:#FFFFFF;}
	.st2{fill:#005EB8;}
</style>
<g id="LWPOLYLINE">
	<rect x="14.17" y="96.85" class="st0" width="396.85" height="231.5"/>
</g>
<g id="LWPOLYLINE_68_">
	<path class="st1" d="M411.02,301.89c0,14.61-11.85,26.46-26.45,26.46H40.63c-14.61,0-26.45-11.84-26.45-26.46V123.31
		c0-14.61,11.84-26.46,26.45-26.46h343.94c14.61,0,26.45,11.85,26.45,26.46V301.89z"/>
</g>
<g id="LWPOLYLINE_67_">
	<path class="st2" d="M397.79,301.89c0,7.31-5.92,13.23-13.22,13.23H40.63c-7.3,0-13.23-5.92-13.23-13.23V123.31
		c0-7.3,5.92-13.23,13.23-13.23h343.94c7.3,0,13.22,5.92,13.22,13.23V301.89z"/>
</g>
<g id="LWPOLYLINE_91_">
	<rect x="192.96" y="209.88" class="st1" width="19.84" height="5.95"/>
</g>
<g id="LWPOLYLINE_92_">
	<rect x="192.96" y="269.4" class="st1" width="19.84" height="5.95"/>
</g>
<g id="LWPOLYLINE_97_">
	<path class="st1" d="M276.84,299.17c5.51-17.44,5.51-36.15,0-53.58h3.14c9.94,16.47,9.94,37.1,0,53.58H276.84z"/>
</g>
<g id="LWPOLYLINE_98_">
	<path class="st1" d="M151.29,299.61c-5.51-17.44-5.51-36.14,0-53.57h-3.14c-9.94,16.47-9.94,37.09,0,53.57H151.29z"/>
</g>
<g id="LWPOLYLINE_60_">
	<path class="st1" d="M37.37,211.58v-85.04c0-3.91,3.17-7.09,7.1-7.09h58.82c3.91,0,7.08,3.17,7.08,7.09v85.04
		c0,3.91-3.17,7.09-7.08,7.09H44.47C40.55,218.67,37.37,215.49,37.37,211.58z"/>
</g>
<g id="LWPOLYLINE_61_">
	<path class="st2" d="M40.91,211.58v-85.04c0-1.96,1.59-3.54,3.56-3.54h58.82c1.96,0,3.54,1.59,3.54,3.54v85.04
		c0,1.96-1.59,3.54-3.54,3.54H44.47C42.5,215.12,40.91,213.54,40.91,211.58z"/>
</g>
<g id="LWPOLYLINE_62_">
	<polygon class="st1" points="73.88,155.22 80.96,126.54 66.79,126.54 	"/>
</g>
<g id="LWPOLYLINE_63_">
	<path class="st1" d="M48.01,163.38l17.26-12.54c3.45,4.75,10.09,5.81,14.84,2.35c0.9-0.66,1.7-1.45,2.35-2.35l17.28,12.54
		c-1.98,2.71-4.36,5.1-7.08,7.08C78.37,180.83,58.38,177.66,48.01,163.38z"/>
</g>
<g id="LWPOLYLINE_65_">
	<path class="st1" d="M57.93,208.39v-25.51c0-1.76,1.42-3.19,3.19-3.19h25.51c1.76,0,3.19,1.42,3.19,3.19v25.51
		c0,1.76-1.42,3.19-3.19,3.19H61.12C59.35,211.58,57.93,210.16,57.93,208.39z"/>
</g>
<g id="LWPOLYLINE_64_">
	<path class="st2" d="M59.53,208.39v-25.51c0-0.88,0.71-1.59,1.59-1.59h25.51c0.88,0,1.6,0.72,1.6,1.59v25.51
		c0,0.88-0.73,1.59-1.6,1.59H61.12C60.24,209.99,59.53,209.28,59.53,208.39z"/>
</g>
<g id="LWPOLYLINE_66_">
	<path class="st1" d="M65.36,208.42h4.79v-10.63h6.91c4.1,0,7.44-3.33,7.44-7.44c0-4.11-3.34-7.44-7.44-7.44H65.36V208.42z"/>
</g>
<g id="LWPOLYLINE_00000106844153373582461890000018081851981196142242_">
	<path class="st2" d="M70.15,187.7v5.31h7.11c1.46-0.12,2.56-1.4,2.44-2.86c-0.1-1.38-1.26-2.45-2.64-2.45H70.15z"/>
</g>
<g id="LWPOLYLINE_00000122706535996583910720000007608956039234584452_">
	<polygon class="st1" points="352.24,121.33 339.51,168.83 346.89,168.83 359.61,121.33 	"/>
</g>
<g id="LWPOLYLINE_00000054983611736924065400000012499424280408829620_">
	<path class="st1" d="M387.48,142.41v-0.2c0-4.07-3.3-7.38-7.38-7.38c-2.47,0.3-4.85,1.14-6.97,2.46v-12.71h-6.15v41h6.15v-21.73
		c0-2.26,1.84-4.1,4.1-4.1c2.26,0,4.1,1.84,4.1,4.1v21.73h6.15V142.41z"/>
</g>
<g id="LWPOLYLINE_00000078007630951085303780000016667960923208908676_">
	<rect x="299.02" y="135.21" class="st1" width="6.37" height="31.87"/>
</g>
<g id="LWPOLYLINE_00000085251241275471386210000011485815982721197706_">
	<rect x="299.02" y="124.58" class="st1" width="6.37" height="6.38"/>
</g>
<g id="LWPOLYLINE_00000006691054323744782550000010064863392853126810_">
	<path class="st1" d="M285,143.28c0-1.64-1.33-2.97-2.98-2.97h-0.42c-2.82,0-5.1,2.28-5.1,5.1v21.67h-6.38v-23.8
		c0-1.64-1.33-2.97-2.97-2.97h-0.43c-2.82,0-5.1,2.28-5.1,5.1v21.67h-6.38v-31.87h6.38v2.55c2.08-1.3,4.41-2.15,6.84-2.5
		c0.3-0.04,0.6-0.05,0.9-0.04c2.38,0.16,4.55,1.42,5.87,3.41c2.38-1.78,5.17-2.94,8.11-3.37c0.3-0.04,0.6-0.05,0.9-0.04
		c4.02,0.27,7.14,3.61,7.14,7.63v24.23H285V143.28z"/>
</g>
<g id="LWPOLYLINE_00000066495222198402908990000008480141681567241088_">
	<path class="st1" d="M320.27,167.08h-6.38v-31.87h6.38v2.55c2.08-1.3,4.41-2.15,6.84-2.5c0.3-0.04,0.6-0.05,0.9-0.04
		c4.02,0.27,7.14,3.61,7.14,7.63v24.23h-6.38v-23.8c0-1.64-1.33-2.97-2.97-2.97h-0.42c-2.82,0-5.1,2.28-5.1,5.1V167.08z"/>
</g>
</svg>
