<?xml version="1.0" encoding="UTF-8"?>
<svg xmlns="http://www.w3.org/2000/svg" version="1.1" viewBox="0 0 425.2 425.2">
  <defs>
    <style>
      .cls-1 {
        fill: #e4002b;
      }

      .cls-2 {
        fill: #ffcd00;
      }

      .cls-3 {
        fill: #231f20;
      }

      .cls-4 {
        fill: #101820;
      }
    </style>
  </defs>
  <!-- Generator: Adobe Illustrator 28.7.1, SVG Export Plug-In . SVG Version: 1.2.0 Build 142)  -->
  <g>
    <g id="Layer_1">
      <g id="LWPOLYLINE">
        <rect class="cls-2" x="14.2" y="129.9" width="396.9" height="165.4"/>
      </g>
      <g id="LWPOLYLINE-2">
        <path class="cls-1" d="M40.6,129.9h343.9c14.6,0,26.5,11.8,26.5,26.5v112.4c0,14.6-11.8,26.5-26.5,26.5H40.6c-14.6,0-26.5-11.8-26.5-26.5v-112.4c0-14.6,11.8-26.5,26.5-26.5Z"/>
      </g>
      <g id="LWPOLYLINE-3">
        <path class="cls-2" d="M40.6,143.1h343.9c7.3,0,13.2,5.9,13.2,13.2v112.4c0,7.3-5.9,13.2-13.2,13.2H40.6c-7.3,0-13.2-5.9-13.2-13.2v-112.4c0-7.3,5.9-13.2,13.2-13.2h0Z"/>
      </g>
      <g id="LWPOLYLINE-4">
        <path class="cls-4" d="M47.2,255.1v-85c0-3.9,3.2-7.1,7.1-7.1h58.8c3.9,0,7.1,3.2,7.1,7.1v85c0,3.9-3.2,7.1-7.1,7.1h-58.8c-3.9,0-7.1-3.2-7.1-7.1Z"/>
      </g>
      <g id="LWPOLYLINE-5">
        <polygon class="cls-2" points="83.7 198.8 90.8 170.1 76.7 170.1 83.7 198.8"/>
      </g>
      <g id="LWPOLYLINE-6">
        <path class="cls-2" d="M57.9,206.9l17.3-12.5c3.4,4.8,10.1,5.8,14.8,2.4.9-.7,1.7-1.5,2.4-2.4l17.3,12.5c-2,2.7-4.4,5.1-7.1,7.1-14.3,10.4-34.3,7.2-44.7-7.1Z"/>
      </g>
      <g id="LWPOLYLINE-7">
        <path class="cls-2" d="M67.8,251.9v-25.5c0-1.8,1.4-3.2,3.2-3.2h25.5c1.8,0,3.2,1.4,3.2,3.2v25.5c0,1.8-1.4,3.2-3.2,3.2h-25.5c-1.8,0-3.2-1.4-3.2-3.2Z"/>
      </g>
      <g id="LWPOLYLINE-8">
        <path class="cls-4" d="M69.4,251.9v-25.5c0-.9.7-1.6,1.6-1.6h25.5c.9,0,1.6.7,1.6,1.6v25.5c0,.9-.7,1.6-1.6,1.6h-25.5c-.9,0-1.6-.7-1.6-1.6Z"/>
      </g>
      <g id="LWPOLYLINE-9">
        <rect class="cls-4" x="285.7" y="199.6" width="7.9" height="39.7"/>
      </g>
      <g id="LWPOLYLINE-10">
        <rect class="cls-4" x="285.7" y="186.3" width="7.9" height="7.9"/>
      </g>
      <g id="LWPOLYLINE-11">
        <path class="cls-4" d="M268.2,209.6c0-2-1.7-3.7-3.7-3.7h-.5c-3.5,0-6.3,2.8-6.3,6.4v27h-7.9v-29.6c0-2-1.7-3.7-3.7-3.7h-.5c-3.5,0-6.4,2.8-6.4,6.4v27h-7.9v-39.7h7.9v3.2c2.6-1.6,5.5-2.7,8.5-3.1h1.1c3,.2,5.7,1.8,7.3,4.2,3-2.2,6.4-3.7,10.1-4.2h1.1c5,.3,8.9,4.5,8.9,9.5v30.2h-7.9v-29.9Z"/>
      </g>
      <g id="LWPOLYLINE-12">
        <path class="cls-4" d="M312.1,239.2h-7.9v-39.7h7.9v3.2c2.6-1.6,5.5-2.7,8.5-3.1h1.1c5,.3,8.9,4.5,8.9,9.5v30.2h-7.9v-29.6c0-2-1.7-3.7-3.7-3.7h-.5c-3.5,0-6.4,2.8-6.4,6.4v27h0v-.2Z"/>
      </g>
      <g id="LWPOLYLINE-13">
        <path class="cls-2" d="M75.2,252h4.8v-10.6h6.9c4.1,0,7.4-3.3,7.4-7.4s-3.3-7.4-7.4-7.4h-11.7v25.5h0Z"/>
      </g>
      <g id="LWPOLYLINE-14">
        <path class="cls-4" d="M80,231.2v5.3h7.1c1.5-.1,2.6-1.4,2.4-2.9,0-1.4-1.3-2.4-2.6-2.4h-6.9Z"/>
      </g>
      <g id="LWPOLYLINE-12-2" data-name="LWPOLYLINE-12">
        <polygon class="cls-3" points="350.2 188.6 336.3 241.4 344.3 241.4 358.2 188.6 350.2 188.6"/>
      </g>
      <g id="LWPOLYLINE-13-2" data-name="LWPOLYLINE-13">
        <path class="cls-3" d="M388.7,212.1v-.2c0-4.5-3.6-8.2-8.1-8.2-2.7.3-5.3,1.3-7.6,2.7v-14.2h-6.7v45.7h6.7v-24.2c0-2.5,2-4.6,4.5-4.6s4.5,2,4.5,4.6v24.2h6.7v-25.8h0Z"/>
      </g>
    </g>
  </g>
</svg>