<?xml version="1.0" encoding="UTF-8"?>
<svg xmlns="http://www.w3.org/2000/svg" version="1.1" viewBox="0 0 425.2 425.2">
  <defs>
    <style>
      .cls-1 {
        fill: #fff;
      }

      .cls-2 {
        stroke: #005eb8;
        stroke-miterlimit: 10;
        stroke-width: .5px;
      }

      .cls-2, .cls-3 {
        fill: #005eb8;
      }
    </style>
  </defs>
  <!-- Generator: Adobe Illustrator 28.7.1, SVG Export Plug-In . SVG Version: 1.2.0 Build 142)  -->
  <g>
    <g id="Layer_1">
      <g id="LWPOLYLINE">
        <rect class="cls-2" x="14.2" y="129.9" width="396.9" height="165.4"/>
      </g>
      <g id="LWPOLYLINE-2" data-name="LWPOLYLINE">
        <path class="cls-1" d="M40.6,129.9h343.9c14.6,0,26.5,11.8,26.5,26.5v112.4c0,14.6-11.8,26.5-26.5,26.5H40.6c-14.6,0-26.5-11.8-26.5-26.5v-112.4c0-14.6,11.8-26.5,26.5-26.5Z"/>
      </g>
      <g id="LWPOLYLINE-3" data-name="LWPOLYLINE">
        <path class="cls-3" d="M40.6,143.1h343.9c7.3,0,13.2,5.9,13.2,13.2v112.4c0,7.3-5.9,13.2-13.2,13.2H40.6c-7.3,0-13.2-5.9-13.2-13.2v-112.4c0-7.3,5.9-13.2,13.2-13.2Z"/>
      </g>
      <g id="LWPOLYLINE-4" data-name="LWPOLYLINE">
        <path class="cls-1" d="M47.2,255.1v-85c0-3.9,3.2-7.1,7.1-7.1h58.8c3.9,0,7.1,3.2,7.1,7.1v85c0,3.9-3.2,7.1-7.1,7.1h-58.8c-3.9,0-7.1-3.2-7.1-7.1Z"/>
      </g>
      <g id="LWPOLYLINE-5" data-name="LWPOLYLINE">
        <path class="cls-3" d="M54.3,166.5h58.8c2,0,3.5,1.6,3.5,3.5v85c0,2-1.6,3.5-3.5,3.5h-58.8c-2,0-3.5-1.6-3.5-3.5v-85c0-2,1.6-3.5,3.5-3.5Z"/>
      </g>
      <g id="LWPOLYLINE-6" data-name="LWPOLYLINE">
        <polygon class="cls-1" points="83.7 198.8 90.8 170.1 76.7 170.1 83.7 198.8"/>
      </g>
      <g id="LWPOLYLINE-7" data-name="LWPOLYLINE">
        <path class="cls-1" d="M57.9,206.9l17.3-12.5c3.4,4.7,10.1,5.8,14.8,2.4.9-.7,1.7-1.5,2.4-2.4l17.3,12.5c-2,2.7-4.4,5.1-7.1,7.1-14.3,10.4-34.3,7.2-44.6-7.1Z"/>
      </g>
      <g id="LWPOLYLINE-8" data-name="LWPOLYLINE">
        <path class="cls-1" d="M67.8,251.9v-25.5c0-1.8,1.4-3.2,3.2-3.2h25.5c1.8,0,3.2,1.4,3.2,3.2v25.5c0,1.8-1.4,3.2-3.2,3.2h-25.5c-1.8,0-3.2-1.4-3.2-3.2Z"/>
      </g>
      <g id="LWPOLYLINE-9" data-name="LWPOLYLINE">
        <path class="cls-3" d="M71,224.8h25.5c.9,0,1.6.7,1.6,1.6v25.5c0,.9-.7,1.6-1.6,1.6h-25.5c-.9,0-1.6-.7-1.6-1.6v-25.5c0-.9.7-1.6,1.6-1.6Z"/>
      </g>
      <g id="LWPOLYLINE-10" data-name="LWPOLYLINE">
        <path class="cls-1" d="M75.2,252h4.8v-10.6h6.9c4.1,0,7.4-3.3,7.4-7.4s-3.3-7.4-7.4-7.4h-11.7v25.5Z"/>
      </g>
      <g id="LWPOLYLINE-11" data-name="LWPOLYLINE">
        <path class="cls-3" d="M80,231.2v5.3h7.1c1.5-.1,2.6-1.4,2.4-2.9-.1-1.4-1.3-2.4-2.6-2.4h-6.9Z"/>
      </g>
      <g id="LWPOLYLINE-12">
        <polygon class="cls-1" points="349.1 180.5 335.2 233.4 343.2 233.4 357.1 180.5 349.1 180.5"/>
      </g>
      <g id="LWPOLYLINE-13">
        <path class="cls-1" d="M387.6,204v-.2c0-4.5-3.6-8.2-8.1-8.2-2.7.3-5.3,1.3-7.6,2.7v-14.2h-6.7v45.7h6.7v-24.2c0-2.5,2-4.6,4.5-4.6s4.5,2,4.5,4.6v24.2h6.7v-25.8h0Z"/>
      </g>
      <g id="LWPOLYLINE-14">
        <rect class="cls-1" x="290.9" y="195.9" width="7" height="35.5"/>
      </g>
      <g id="LWPOLYLINE-15">
        <rect class="cls-1" x="290.9" y="184.1" width="7" height="7.1"/>
      </g>
      <g id="LWPOLYLINE-16">
        <path class="cls-1" d="M275.6,204.9c0-1.8-1.5-3.3-3.3-3.3h-.5c-3.1,0-5.6,2.5-5.6,5.7v24.2h-7v-26.5c0-1.8-1.5-3.3-3.2-3.3h-.5c-3.1,0-5.6,2.5-5.6,5.7v24.2h-7v-35.5h7v2.8c2.3-1.4,4.8-2.4,7.5-2.8h1c2.6.2,5,1.6,6.4,3.8,2.6-2,5.7-3.3,8.9-3.8h1c4.4.3,7.8,4,7.8,8.5v27h-7v-26.5h0v-.2Z"/>
      </g>
      <g id="LWPOLYLINE-17">
        <path class="cls-1" d="M314.2,231.5h-7v-35.5h7v2.8c2.3-1.4,4.8-2.4,7.5-2.8h1c4.4.3,7.8,4,7.8,8.5v27h-7v-26.5c0-1.8-1.5-3.3-3.2-3.3h-.5c-3.1,0-5.6,2.5-5.6,5.7v24.2h0Z"/>
      </g>
    </g>
  </g>
</svg>