<?xml version="1.0" encoding="utf-8"?>
<!-- Generator: Adobe Illustrator 28.0.0, SVG Export Plug-In . SVG Version: 6.00 Build 0)  -->
<svg version="1.1" id="Layer_1" xmlns="http://www.w3.org/2000/svg" xmlns:xlink="http://www.w3.org/1999/xlink" x="0px" y="0px"
	 viewBox="0 0 425.2 425.2" style="enable-background:new 0 0 425.2 425.2;" xml:space="preserve">
<style type="text/css">
	.st0{fill:#FFCD00;}
	.st1{fill:#E4002B;}
	.st2{fill:#101820;}
</style>
<g id="LWPOLYLINE">
	<rect x="14.17" y="80.31" class="st0" width="396.85" height="264.57"/>
</g>
<g id="LWPOLYLINE_74_">
	<path class="st1" d="M411.02,318.42c0,14.61-11.85,26.46-26.45,26.46H40.63c-14.61,0-26.45-11.84-26.45-26.46V106.77
		c0-14.61,11.85-26.46,26.45-26.46h343.94c14.61,0,26.45,11.85,26.45,26.46V318.42z"/>
</g>
<g id="LWPOLYLINE_75_">
	<path class="st0" d="M397.79,318.42c0,7.31-5.92,13.23-13.22,13.23H40.63c-7.3,0-13.23-5.92-13.23-13.23V106.77
		c0-7.3,5.92-13.23,13.23-13.23h343.94c7.3,0,13.22,5.93,13.22,13.23V318.42z"/>
</g>
<g id="LWPOLYLINE_109_">
	<rect x="201.92" y="211.2" class="st2" width="26.45" height="7.94"/>
</g>
<g id="LWPOLYLINE_110_">
	<rect x="201.33" y="278.66" class="st2" width="26.45" height="7.94"/>
</g>
<g id="LWPOLYLINE_113_">
	<path class="st2" d="M294.2,319.42c7.16-21.54,7.16-44.66,0-66.2h4.07c12.92,20.36,12.92,45.84,0,66.2H294.2z"/>
</g>
<g id="LWPOLYLINE_114_">
	<path class="st2" d="M131.01,319.98c-7.16-21.54-7.16-44.66,0-66.2h-4.08c-12.92,20.36-12.92,45.85,0,66.2H131.01z"/>
</g>
<g id="LWPOLYLINE_85_">
	<polygon class="st2" points="349.29,102.11 333.4,161.44 342.61,161.44 358.5,102.11 	"/>
</g>
<g id="LWPOLYLINE_60_">
	<rect x="288.34" y="119.44" class="st2" width="7.12" height="35.59"/>
</g>
<g id="LWPOLYLINE_61_">
	<rect x="288.34" y="107.58" class="st2" width="7.12" height="7.12"/>
</g>
<g id="LWPOLYLINE_62_">
	<path class="st2" d="M272.68,128.46c0-1.83-1.49-3.32-3.32-3.32h-0.47c-3.14,0-5.69,2.55-5.69,5.7v24.2h-7.12v-26.58
		c0-1.83-1.49-3.32-3.32-3.32h-0.47c-3.15,0-5.7,2.55-5.7,5.7v24.2h-7.12v-35.59h7.12v2.85c2.33-1.45,4.93-2.4,7.63-2.79
		c0.33-0.05,0.67-0.06,1-0.04c2.66,0.18,5.08,1.58,6.55,3.8c2.66-1.99,5.77-3.28,9.06-3.76c0.33-0.05,0.67-0.06,1-0.04
		c4.49,0.3,7.97,4.03,7.97,8.52v27.06h-7.12V128.46z"/>
</g>
<g id="LWPOLYLINE_63_">
	<path class="st2" d="M312.07,155.04h-7.12v-35.59h7.12v2.85c2.33-1.45,4.93-2.4,7.64-2.79c0.33-0.05,0.67-0.06,1-0.04
		c4.49,0.3,7.97,4.03,7.97,8.52v27.06h-7.12v-26.58c0-1.83-1.48-3.32-3.32-3.32h-0.47c-3.14,0-5.7,2.55-5.7,5.7V155.04z"/>
</g>
<g id="LWPOLYLINE_50_">
	<path class="st2" d="M386.96,128.69v-0.24c0-4.71-3.82-8.54-8.54-8.54c-2.86,0.35-5.62,1.32-8.07,2.85v-14.71h-7.12v47.46h7.12
		v-25.16c0-2.62,2.13-4.74,4.75-4.74c2.62,0,4.74,2.13,4.74,4.74v25.16h7.12V128.69z"/>
</g>
<g id="LWPOLYLINE_33_">
	<path class="st2" d="M47.52,203.95v-85.04c0-3.92,3.17-7.09,7.08-7.09h58.82c3.92,0,7.09,3.17,7.09,7.09v85.04
		c0,3.91-3.17,7.09-7.09,7.09H54.6C50.69,211.04,47.52,207.86,47.52,203.95z"/>
</g>
<g id="LWPOLYLINE_34_">
	<polygon class="st0" points="84.01,147.59 91.1,118.92 76.93,118.92 	"/>
</g>
<g id="LWPOLYLINE_35_">
	<path class="st0" d="M58.15,155.74l17.27-12.53c3.45,4.75,10.09,5.8,14.85,2.36c0.9-0.66,1.7-1.45,2.36-2.36l17.26,12.53
		c-1.97,2.72-4.36,5.11-7.08,7.09C88.51,173.2,68.52,170.03,58.15,155.74z"/>
</g>
<g id="LWPOLYLINE_37_">
	<path class="st0" d="M68.07,200.77v-25.51c0-1.76,1.43-3.19,3.19-3.19h25.51c1.76,0,3.19,1.43,3.19,3.19v25.51
		c0,1.76-1.43,3.19-3.19,3.19H71.26C69.5,203.95,68.07,202.53,68.07,200.77z"/>
</g>
<g id="LWPOLYLINE_36_">
	<path class="st2" d="M69.66,200.77v-25.51c0-0.88,0.72-1.6,1.6-1.6h25.51c0.88,0,1.59,0.71,1.59,1.6v25.51
		c0,0.88-0.71,1.59-1.59,1.59H71.26C70.38,202.36,69.66,201.65,69.66,200.77z"/>
</g>
<g id="LWPOLYLINE_38_">
	<path class="st0" d="M75.5,200.79h4.78v-10.63h6.91c4.11,0,7.44-3.33,7.44-7.44c0-4.11-3.33-7.44-7.44-7.44H75.5V200.79z"/>
</g>
<g id="LWPOLYLINE_39_">
	<path class="st2" d="M80.28,180.07v5.31h7.12c1.46-0.12,2.56-1.4,2.44-2.86c-0.11-1.38-1.26-2.45-2.65-2.45H80.28z"/>
</g>
</svg>
