<?xml version="1.0" encoding="utf-8"?>
<!-- Generator: Adobe Illustrator 28.0.0, SVG Export Plug-In . SVG Version: 6.00 Build 0)  -->
<svg version="1.1" id="Layer_1" xmlns="http://www.w3.org/2000/svg" xmlns:xlink="http://www.w3.org/1999/xlink" x="0px" y="0px"
	 viewBox="0 0 425.2 425.2" style="enable-background:new 0 0 425.2 425.2;" xml:space="preserve">
<style type="text/css">
	.st0{fill:#FFCD00;}
	.st1{fill:#E4002B;}
	.st2{fill:#101820;}
</style>
<g id="LWPOLYLINE_35_">
	<rect x="14.17" y="37.32" class="st0" width="396.85" height="350.56"/>
</g>
<g id="LWPOLYLINE_37_">
	<path class="st1" d="M411.02,361.42c0,14.61-11.85,26.46-26.45,26.46H40.63c-14.61,0-26.45-11.85-26.45-26.46V63.78
		c0-14.61,11.85-26.46,26.45-26.46h343.94c14.61,0,26.45,11.85,26.45,26.46V361.42z"/>
</g>
<g id="LWPOLYLINE_36_">
	<path class="st0" d="M397.79,361.42c0,7.31-5.92,13.23-13.22,13.23H40.63c-7.3,0-13.23-5.92-13.23-13.23V63.78
		c0-7.3,5.92-13.23,13.23-13.23h343.94c7.3,0,13.22,5.92,13.22,13.23V361.42z"/>
</g>
<g id="LWPOLYLINE_38_">
	<path class="st0" d="M150.07,187.46c0,3.66,2.96,6.62,6.61,6.62c3.66,0,6.62-2.96,6.62-6.62v-3.7c0-3.65-2.96-6.61-6.62-6.61
		c-3.65,0-6.61,2.96-6.61,6.61V187.46z"/>
</g>
<g id="LWPOLYLINE_40_">
	<path class="st0" d="M151.39,162.33v2.12c0,2.92,2.37,5.29,5.29,5.29c2.93,0,5.3-2.37,5.3-5.29v-2.12c0-2.92-2.37-5.29-5.3-5.29
		C153.76,157.04,151.39,159.41,151.39,162.33z"/>
</g>
<g id="LWPOLYLINE_42_">
	<path class="st0" d="M262.51,187.46c0,3.66,2.96,6.62,6.61,6.62c3.66,0,6.61-2.96,6.61-6.62v-2.64c0-3.65-2.95-6.61-6.61-6.61
		c-3.66,0-6.61,2.96-6.61,6.61V187.46z"/>
</g>
<g id="LWPOLYLINE_43_">
	<path class="st0" d="M150.07,243.02v2.64c0,3.66,2.96,6.62,6.61,6.62c3.66,0,6.62-2.96,6.62-6.62v-2.64c0-3.65-2.96-6.61-6.62-6.61
		C153.03,236.41,150.07,239.37,150.07,243.02z"/>
</g>
<g id="LWPOLYLINE_49_">
	<polygon class="st0" points="179.26,98.84 189.85,80.24 189.85,98.84 	"/>
</g>
<g id="LWPOLYLINE_58_">
	<path class="st0" d="M150.07,322.39v2.64c0,3.66,2.96,6.62,6.61,6.62c3.66,0,6.62-2.96,6.62-6.62v-2.64c0-3.65-2.96-6.61-6.62-6.61
		C153.03,315.78,150.07,318.74,150.07,322.39z"/>
</g>
<g id="LWPOLYLINE_55_">
	<rect x="199.37" y="330.33" class="st1" width="26.45" height="7.94"/>
</g>
<g id="LWPOLYLINE_109_">
	<rect x="201.92" y="168.34" class="st2" width="26.45" height="7.94"/>
</g>
<g id="LWPOLYLINE_110_">
	<rect x="201.33" y="247.8" class="st2" width="26.45" height="7.94"/>
</g>
<g id="LWPOLYLINE_113_">
	<path class="st2" d="M294.2,288.57c7.16-21.54,7.16-44.66,0-66.2h4.07c12.92,20.36,12.92,45.84,0,66.2H294.2z"/>
</g>
<g id="LWPOLYLINE_114_">
	<path class="st2" d="M131.01,289.12c-7.16-21.54-7.16-44.66,0-66.2h-4.08c-12.92,20.36-12.92,45.85,0,66.2H131.01z"/>
</g>
<g id="LWPOLYLINE_85_">
	<polygon class="st2" points="349.29,59.26 333.4,118.58 342.61,118.58 358.5,59.26 	"/>
</g>
<g id="LWPOLYLINE_60_">
	<rect x="288.34" y="76.59" class="st2" width="7.12" height="35.59"/>
</g>
<g id="LWPOLYLINE_61_">
	<rect x="288.34" y="64.72" class="st2" width="7.12" height="7.12"/>
</g>
<g id="LWPOLYLINE_62_">
	<path class="st2" d="M272.68,85.6c0-1.83-1.49-3.32-3.32-3.32h-0.47c-3.14,0-5.69,2.55-5.69,5.7v24.2h-7.12V85.6
		c0-1.83-1.49-3.32-3.32-3.32h-0.47c-3.15,0-5.7,2.55-5.7,5.7v24.2h-7.12V76.59h7.12v2.85c2.33-1.45,4.93-2.4,7.63-2.79
		c0.33-0.05,0.67-0.06,1-0.04c2.66,0.18,5.08,1.58,6.55,3.8c2.66-1.99,5.77-3.28,9.06-3.76c0.33-0.05,0.67-0.06,1-0.04
		c4.49,0.3,7.97,4.03,7.97,8.52v27.06h-7.12V85.6z"/>
</g>
<g id="LWPOLYLINE_63_">
	<path class="st2" d="M312.07,112.18h-7.12V76.59h7.12v2.85c2.33-1.45,4.93-2.4,7.64-2.79c0.33-0.05,0.67-0.06,1-0.04
		c4.49,0.3,7.97,4.03,7.97,8.52v27.06h-7.12V85.6c0-1.83-1.48-3.32-3.32-3.32h-0.47c-3.14,0-5.7,2.55-5.7,5.7V112.18z"/>
</g>
<g id="LWPOLYLINE_00000147942655298907061620000015327174348146483099_">
	<path class="st2" d="M386.96,85.83v-0.24c0-4.71-3.82-8.54-8.54-8.54c-2.86,0.35-5.62,1.32-8.07,2.85V65.19h-7.12v47.46h7.12V87.49
		c0-2.62,2.13-4.74,4.75-4.74c2.62,0,4.74,2.13,4.74,4.74v25.16h7.12V85.83z"/>
</g>
<g id="LWPOLYLINE_33_">
	<path class="st2" d="M47.52,161.09V76.06c0-3.92,3.17-7.09,7.08-7.09h58.82c3.92,0,7.09,3.17,7.09,7.09v85.04
		c0,3.91-3.17,7.09-7.09,7.09H54.6C50.69,168.18,47.52,165.01,47.52,161.09z"/>
</g>
<g id="LWPOLYLINE_34_">
	<polygon class="st0" points="84.01,104.73 91.1,76.06 76.93,76.06 	"/>
</g>
<g id="LWPOLYLINE_00000155130493347069527670000015373588635718607015_">
	<path class="st0" d="M58.15,112.88l17.27-12.53c3.45,4.75,10.09,5.8,14.85,2.36c0.9-0.66,1.7-1.45,2.36-2.36l17.26,12.53
		c-1.97,2.72-4.36,5.11-7.08,7.09C88.51,130.35,68.52,127.17,58.15,112.88z"/>
</g>
<g id="LWPOLYLINE_00000154403495032411612150000008577580180574625420_">
	<path class="st0" d="M68.07,157.91V132.4c0-1.76,1.43-3.19,3.19-3.19h25.51c1.76,0,3.19,1.43,3.19,3.19v25.51
		c0,1.76-1.43,3.19-3.19,3.19H71.26C69.5,161.09,68.07,159.67,68.07,157.91z"/>
</g>
<g id="LWPOLYLINE_00000172416520734275672630000009419211203046630788_">
	<path class="st2" d="M69.66,157.91V132.4c0-0.88,0.72-1.6,1.6-1.6h25.51c0.88,0,1.59,0.71,1.59,1.6v25.51
		c0,0.88-0.71,1.59-1.59,1.59H71.26C70.38,159.5,69.66,158.79,69.66,157.91z"/>
</g>
<g id="LWPOLYLINE_00000074414744495185737850000013738846818607215261_">
	<path class="st0" d="M75.5,157.94h4.78v-10.63h6.91c4.11,0,7.44-3.33,7.44-7.44c0-4.11-3.33-7.44-7.44-7.44H75.5V157.94z"/>
</g>
<g id="LWPOLYLINE_00000017479456247592223960000010688288615581855618_">
	<path class="st2" d="M80.28,137.21v5.31h7.12c1.46-0.12,2.56-1.4,2.44-2.86c-0.11-1.38-1.26-2.45-2.65-2.45H80.28z"/>
</g>
</svg>
