<?xml version="1.0" encoding="utf-8"?>
<!-- Generator: Adobe Illustrator 28.0.0, SVG Export Plug-In . SVG Version: 6.00 Build 0)  -->
<svg version="1.1" id="Layer_1" xmlns="http://www.w3.org/2000/svg" xmlns:xlink="http://www.w3.org/1999/xlink" x="0px" y="0px"
	 viewBox="0 0 425.2 425.2" style="enable-background:new 0 0 425.2 425.2;" xml:space="preserve">
<style type="text/css">
	.st0{fill:#005EB8;stroke:#005EB8;stroke-width:0.5;stroke-miterlimit:10;}
	.st1{fill:#FFFFFF;}
	.st2{fill:#005EB8;}
	.st3{fill:#E4002B;}
</style>
<g id="LWPOLYLINE">
	<rect x="14.17" y="37.32" class="st0" width="396.85" height="350.55"/>
</g>
<g id="LWPOLYLINE_62_">
	<path class="st1" d="M411.02,361.42c0,14.61-11.85,26.46-26.45,26.46H40.63c-14.61,0-26.45-11.85-26.45-26.46V63.78
		c0-14.61,11.84-26.46,26.45-26.46h343.94c14.61,0,26.45,11.85,26.45,26.46V361.42z"/>
</g>
<g id="LWPOLYLINE_61_">
	<path class="st2" d="M397.79,361.42c0,7.31-5.92,13.23-13.22,13.23H40.63c-7.3,0-13.22-5.92-13.22-13.23V63.78
		c0-7.3,5.92-13.23,13.22-13.23h343.94c7.3,0,13.22,5.92,13.22,13.23V361.42z"/>
</g>
<g id="LWPOLYLINE_80_">
	<path class="st1" d="M128.91,290.65c-7.34-23.25-7.34-48.19,0-71.43h-4.19c-13.26,21.97-13.26,49.47,0,71.43H128.91z"/>
</g>
<g id="LWPOLYLINE_81_">
	<path class="st1" d="M296.29,290.65c7.35-23.25,7.35-48.19,0-71.43h4.19c13.26,21.97,13.26,49.47,0,71.43H296.29z"/>
</g>
<g id="LWPOLYLINE_83_">
	<rect x="191.83" y="328.13" class="st1" width="30.87" height="12.35"/>
</g>
<g id="LWPOLYLINE_84_">
	<rect x="194.04" y="250.96" class="st1" width="26.45" height="7.94"/>
</g>
<g id="LWPOLYLINE_85_">
	<rect x="194.04" y="171.63" class="st1" width="26.45" height="7.94"/>
</g>
<g id="LWPOLYLINE_82_">
	<rect x="194.04" y="330.33" class="st3" width="26.45" height="7.94"/>
</g>
<g id="LWPOLYLINE_60_">
	<path class="st1" d="M37.37,149.59V64.55c0-3.91,3.17-7.09,7.1-7.09h58.82c3.91,0,7.08,3.17,7.08,7.09v85.04
		c0,3.91-3.17,7.09-7.08,7.09H44.47C40.54,156.67,37.37,153.5,37.37,149.59z"/>
</g>
<g id="LWPOLYLINE_00000160165535931482547050000012402249180621708470_">
	<path class="st2" d="M40.91,149.59V64.55c0-1.96,1.59-3.54,3.56-3.54h58.82c1.96,0,3.54,1.59,3.54,3.54v85.04
		c0,1.96-1.59,3.54-3.54,3.54H44.47C42.5,153.13,40.91,151.54,40.91,149.59z"/>
</g>
<g id="LWPOLYLINE_00000050652791654479782790000001146735008252589217_">
	<polygon class="st1" points="73.88,93.23 80.96,64.55 66.79,64.55 	"/>
</g>
<g id="LWPOLYLINE_63_">
	<path class="st1" d="M48.01,101.39l17.26-12.54c3.45,4.75,10.09,5.81,14.84,2.35c0.9-0.66,1.7-1.45,2.35-2.35l17.28,12.54
		c-1.98,2.71-4.36,5.1-7.08,7.08C78.37,118.84,58.38,115.67,48.01,101.39z"/>
</g>
<g id="LWPOLYLINE_65_">
	<path class="st1" d="M57.93,146.4v-25.51c0-1.76,1.42-3.19,3.19-3.19h25.51c1.76,0,3.19,1.42,3.19,3.19v25.51
		c0,1.76-1.42,3.19-3.19,3.19H61.12C59.35,149.59,57.93,148.17,57.93,146.4z"/>
</g>
<g id="LWPOLYLINE_64_">
	<path class="st2" d="M59.53,146.4v-25.51c0-0.88,0.71-1.59,1.59-1.59h25.51c0.88,0,1.6,0.72,1.6,1.59v25.51
		c0,0.88-0.73,1.59-1.6,1.59H61.12C60.24,147.99,59.53,147.28,59.53,146.4z"/>
</g>
<g id="LWPOLYLINE_66_">
	<path class="st1" d="M65.36,146.43h4.79V135.8h6.91c4.1,0,7.44-3.33,7.44-7.44c0-4.11-3.34-7.44-7.44-7.44H65.36V146.43z"/>
</g>
<g id="LWPOLYLINE_00000106844153373582461890000018081851981196142242_">
	<path class="st2" d="M70.14,125.71v5.31h7.11c1.46-0.12,2.56-1.4,2.44-2.86c-0.1-1.38-1.26-2.45-2.64-2.45H70.14z"/>
</g>
<g id="LWPOLYLINE_00000122706535996583910720000007608956039234584452_">
	<polygon class="st1" points="352.24,59.34 339.51,106.84 346.89,106.84 359.61,59.34 	"/>
</g>
<g id="LWPOLYLINE_00000054983611736924065400000012499424280408829620_">
	<path class="st1" d="M387.48,80.42v-0.2c0-4.07-3.3-7.38-7.38-7.38c-2.47,0.3-4.85,1.14-6.97,2.46V62.59h-6.15v41h6.15V81.86
		c0-2.26,1.84-4.1,4.1-4.1c2.26,0,4.1,1.84,4.1,4.1v21.73h6.15V80.42z"/>
</g>
<g id="LWPOLYLINE_00000078007630951085303780000016667960923208908676_">
	<rect x="299.02" y="73.21" class="st1" width="6.37" height="31.87"/>
</g>
<g id="LWPOLYLINE_00000085251241275471386210000011485815982721197706_">
	<rect x="299.02" y="62.59" class="st1" width="6.37" height="6.38"/>
</g>
<g id="LWPOLYLINE_00000006691054323744782550000010064863392853126810_">
	<path class="st1" d="M285,81.28c0-1.64-1.33-2.97-2.98-2.97h-0.42c-2.82,0-5.1,2.28-5.1,5.1v21.67h-6.38v-23.8
		c0-1.64-1.33-2.97-2.97-2.97h-0.43c-2.82,0-5.1,2.28-5.1,5.1v21.67h-6.38V73.21h6.38v2.55c2.08-1.3,4.41-2.15,6.84-2.5
		c0.3-0.04,0.6-0.05,0.9-0.04c2.38,0.16,4.55,1.42,5.87,3.41c2.38-1.78,5.17-2.94,8.11-3.37c0.3-0.04,0.6-0.05,0.9-0.04
		c4.02,0.27,7.14,3.61,7.14,7.63v24.23H285V81.28z"/>
</g>
<g id="LWPOLYLINE_00000066495222198402908990000008480141681567241088_">
	<path class="st1" d="M320.27,105.09h-6.38V73.21h6.38v2.55c2.08-1.3,4.41-2.15,6.84-2.5c0.3-0.04,0.6-0.05,0.9-0.04
		c4.02,0.27,7.14,3.61,7.14,7.63v24.23h-6.38v-23.8c0-1.64-1.33-2.97-2.97-2.97h-0.42c-2.82,0-5.1,2.28-5.1,5.1V105.09z"/>
</g>
</svg>
