<?xml version="1.0" encoding="utf-8"?>
<!-- Generator: Adobe Illustrator 28.0.0, SVG Export Plug-In . SVG Version: 6.00 Build 0)  -->
<svg version="1.1" id="Layer_1" xmlns="http://www.w3.org/2000/svg" xmlns:xlink="http://www.w3.org/1999/xlink" x="0px" y="0px"
	 viewBox="0 0 425.2 425.2" style="enable-background:new 0 0 425.2 425.2;" xml:space="preserve">
<style type="text/css">
	.st0{fill:#005EB8;stroke:#005EB8;stroke-width:0.5;stroke-miterlimit:10;}
	.st1{fill:#FFFFFF;}
	.st2{fill:#005EB8;}
</style>
<g id="LWPOLYLINE">
	<rect x="14.17" y="113.38" class="st0" width="396.86" height="198.43"/>
</g>
<g id="LWPOLYLINE_75_">
	<path class="st1" d="M43.93,113.38h337.33c16.44,0,29.76,13.33,29.76,29.76v138.9c0,16.44-13.32,29.76-29.76,29.76H43.93
		c-16.43,0-29.76-13.32-29.76-29.76v-138.9C14.17,126.71,27.51,113.38,43.93,113.38z"/>
</g>
<g id="LWPOLYLINE_76_">
	<path class="st2" d="M43.93,128.27h337.33c8.22,0,14.88,6.66,14.88,14.88v138.9c0,8.22-6.66,14.88-14.88,14.88H43.93
		c-8.21,0-14.88-6.66-14.88-14.88v-138.9C29.05,134.93,35.73,128.27,43.93,128.27z"/>
</g>
<g id="LWPOLYLINE_60_">
	<path class="st1" d="M51.37,255.12v-85.04c0-3.91,3.17-7.09,7.1-7.09h58.82c3.91,0,7.08,3.17,7.08,7.09v85.04
		c0,3.91-3.17,7.09-7.08,7.09H58.47C54.55,262.2,51.37,259.03,51.37,255.12z"/>
</g>
<g id="LWPOLYLINE_61_">
	<path class="st2" d="M54.92,255.12v-85.04c0-1.96,1.59-3.54,3.56-3.54h58.82c1.96,0,3.54,1.59,3.54,3.54v85.04
		c0,1.96-1.59,3.54-3.54,3.54H58.47C56.5,258.66,54.92,257.07,54.92,255.12z"/>
</g>
<g id="LWPOLYLINE_62_">
	<polygon class="st1" points="87.88,198.76 94.97,170.08 80.8,170.08 	"/>
</g>
<g id="LWPOLYLINE_63_">
	<path class="st1" d="M62.02,206.91l17.26-12.54c3.45,4.75,10.09,5.81,14.84,2.35c0.9-0.66,1.7-1.45,2.35-2.35l17.28,12.54
		c-1.98,2.71-4.36,5.1-7.08,7.08C92.37,224.37,72.38,221.19,62.02,206.91z"/>
</g>
<g id="LWPOLYLINE_65_">
	<path class="st1" d="M71.93,251.93v-25.51c0-1.76,1.42-3.19,3.19-3.19h25.51c1.76,0,3.19,1.42,3.19,3.19v25.51
		c0,1.76-1.42,3.19-3.19,3.19H75.12C73.35,255.12,71.93,253.69,71.93,251.93z"/>
</g>
<g id="LWPOLYLINE_64_">
	<path class="st2" d="M73.53,251.93v-25.51c0-0.88,0.71-1.59,1.59-1.59h25.51c0.88,0,1.6,0.72,1.6,1.59v25.51
		c0,0.88-0.73,1.59-1.6,1.59H75.12C74.24,253.52,73.53,252.81,73.53,251.93z"/>
</g>
<g id="LWPOLYLINE_66_">
	<path class="st1" d="M79.36,251.96h4.79v-10.63h6.91c4.1,0,7.44-3.33,7.44-7.44c0-4.11-3.34-7.44-7.44-7.44H79.36V251.96z"/>
</g>
<g id="LWPOLYLINE_67_">
	<path class="st2" d="M84.15,231.23v5.31h7.11c1.46-0.12,2.56-1.4,2.44-2.86c-0.1-1.38-1.26-2.45-2.64-2.45H84.15z"/>
</g>
<g id="LWPOLYLINE_83_">
	<rect x="207.34" y="236.23" class="st1" width="19.84" height="5.95"/>
</g>
<g id="LWPOLYLINE_94_">
	<polygon class="st1" points="352.24,137.87 339.51,185.37 346.89,185.37 359.61,137.87 	"/>
</g>
<g id="LWPOLYLINE_77_">
	<path class="st1" d="M387.48,158.95v-0.2c0-4.07-3.3-7.38-7.38-7.38c-2.47,0.3-4.85,1.14-6.97,2.46v-12.71h-6.15v41h6.15v-21.73
		c0-2.26,1.84-4.1,4.1-4.1c2.26,0,4.1,1.84,4.1,4.1v21.73h6.15V158.95z"/>
</g>
<g id="LWPOLYLINE_7_">
	<rect x="299.02" y="151.74" class="st1" width="6.37" height="31.87"/>
</g>
<g id="LWPOLYLINE_6_">
	<rect x="299.02" y="141.12" class="st1" width="6.37" height="6.38"/>
</g>
<g id="LWPOLYLINE_5_">
	<path class="st1" d="M285,159.81c0-1.64-1.33-2.97-2.98-2.97h-0.42c-2.82,0-5.1,2.28-5.1,5.1v21.67h-6.38v-23.8
		c0-1.64-1.33-2.97-2.97-2.97h-0.43c-2.82,0-5.1,2.28-5.1,5.1v21.67h-6.38v-31.87h6.38v2.55c2.08-1.3,4.41-2.15,6.84-2.5
		c0.3-0.04,0.6-0.05,0.9-0.04c2.38,0.16,4.55,1.42,5.87,3.41c2.38-1.78,5.17-2.94,8.11-3.37c0.3-0.04,0.6-0.05,0.9-0.04
		c4.02,0.27,7.14,3.61,7.14,7.63v24.23H285V159.81z"/>
</g>
<g id="LWPOLYLINE_4_">
	<path class="st1" d="M320.27,183.62h-6.38v-31.87h6.38v2.55c2.08-1.3,4.41-2.15,6.84-2.5c0.3-0.04,0.6-0.05,0.9-0.04
		c4.02,0.27,7.14,3.61,7.14,7.63v24.23h-6.38v-23.8c0-1.64-1.33-2.97-2.97-2.97h-0.42c-2.82,0-5.1,2.28-5.1,5.1V183.62z"/>
</g>
</svg>
