<?xml version="1.0" encoding="utf-8"?>
<!-- Generator: Adobe Illustrator 27.0.1, SVG Export Plug-In . SVG Version: 6.00 Build 0)  -->
<svg version="1.1" id="Layer_1" xmlns="http://www.w3.org/2000/svg" xmlns:xlink="http://www.w3.org/1999/xlink" x="0px" y="0px"
	 viewBox="0 0 425.2 425.2" style="enable-background:new 0 0 425.2 425.2;" xml:space="preserve">
<style type="text/css">
	.st0{fill:#FFCD00;}
	.st1{fill:#E4002B;}
	.st2{fill:#101820;}
</style>
<g id="LWPOLYLINE_3_">
	<rect x="14.17" y="96.85" class="st0" width="396.85" height="231.5"/>
</g>
<g id="LWPOLYLINE_1_">
	<path class="st1" d="M411.02,301.89c0,14.61-11.85,26.46-26.45,26.46H40.64c-14.62,0-26.46-11.85-26.46-26.46V123.31
		c0-14.61,11.84-26.46,26.46-26.46h343.93c14.61,0,26.45,11.84,26.45,26.46V301.89z"/>
</g>
<g id="LWPOLYLINE_2_">
	<path class="st0" d="M397.8,301.89c0,7.31-5.93,13.23-13.23,13.23H40.64c-7.3,0-13.23-5.92-13.23-13.23V123.31
		c0-7.3,5.93-13.23,13.23-13.23h343.93c7.3,0,13.23,5.92,13.23,13.23V301.89z"/>
</g>
<g id="LWPOLYLINE_63_">
	<path class="st2" d="M47.25,222.05v-85.04c0-3.91,3.17-7.09,7.09-7.09h58.82c3.92,0,7.09,3.17,7.09,7.09v85.04
		c0,3.91-3.17,7.09-7.09,7.09H54.33C50.42,229.13,47.25,225.96,47.25,222.05z"/>
</g>
<g id="LWPOLYLINE_7_">
	<rect x="179.27" y="268.16" class="st2" width="26.45" height="7.94"/>
</g>
<g id="LWPOLYLINE_64_">
	<polygon class="st0" points="83.74,165.69 90.83,137.01 76.65,137.01 	"/>
</g>
<g id="LWPOLYLINE_65_">
	<path class="st0" d="M57.88,173.84l17.26-12.54c3.45,4.75,10.09,5.81,14.85,2.36c0.9-0.66,1.71-1.45,2.36-2.36l17.26,12.54
		c-1.98,2.72-4.37,5.11-7.09,7.09C88.24,191.3,68.25,188.12,57.88,173.84z"/>
</g>
<g id="LWPOLYLINE_67_">
	<path class="st0" d="M67.8,218.86v-25.51c0-1.76,1.42-3.19,3.19-3.19h25.5c1.76,0,3.19,1.43,3.19,3.19v25.51
		c0,1.76-1.43,3.19-3.19,3.19h-25.5C69.22,222.05,67.8,220.62,67.8,218.86z"/>
</g>
<g id="LWPOLYLINE_66_">
	<path class="st2" d="M69.4,218.86v-25.51c0-0.88,0.71-1.59,1.6-1.59h25.5c0.88,0,1.6,0.71,1.6,1.59v25.51c0,0.88-0.71,1.6-1.6,1.6
		h-25.5C70.11,220.45,69.4,219.74,69.4,218.86z"/>
</g>
<g id="LWPOLYLINE_68_">
	<path class="st0" d="M75.22,218.88h4.79v-10.63h6.91c4.1,0,7.44-3.33,7.44-7.44c0-4.11-3.34-7.44-7.44-7.44h-11.7V218.88z"/>
</g>
<g id="LWPOLYLINE_69_">
	<path class="st2" d="M80.01,198.16v5.31h7.11c1.47-0.11,2.56-1.39,2.44-2.85c-0.11-1.39-1.26-2.45-2.64-2.45H80.01z"/>
</g>
</svg>
