<?xml version="1.0" encoding="utf-8"?>
<!-- Generator: Adobe Illustrator 14.0.0, SVG Export Plug-In . SVG Version: 6.00 Build 43363)  -->
<!DOCTYPE svg PUBLIC "-//W3C//DTD SVG 1.1//EN" "http://www.w3.org/Graphics/SVG/1.1/DTD/svg11.dtd">
<svg version="1.1" id="Layer_1" xmlns="http://www.w3.org/2000/svg" xmlns:xlink="http://www.w3.org/1999/xlink" x="0px" y="0px"
	 width="841.89px" height="595.276px" viewBox="0 0 841.89 595.276" enable-background="new 0 0 841.89 595.276"
	 xml:space="preserve">
<g>
	<defs>
		<polyline id="SVGID_1_" points="0,582.437 842.01,582.437 842.01,12.839 0,12.839 0,582.437 		"/>
	</defs>
	<clipPath id="SVGID_2_">
		<use xlink:href="#SVGID_1_"  overflow="visible"/>
	</clipPath>
	<path clip-path="url(#SVGID_2_)" fill-rule="evenodd" clip-rule="evenodd" fill="#F0F0F0" d="M58.2,37.876h708.7
		c2.4,0,4.8,0.2,7.2,0.7c2.399,0.4,4.899,1.1,7.3,2.1c4.9,1.9,9.5,4.9,13.4,8.8c3.899,3.8,6.8,8.4,8.699,13.3
		c1,2.4,1.7,4.9,2.101,7.3c0.5,2.5,0.7,4.9,0.7,7.2v446.3c0,2.3-0.2,4.7-0.7,7.101c-0.4,2.5-1.101,4.899-2.101,7.399
		c-1.899,4.8-4.8,9.4-8.699,13.3c-3.9,3.9-8.5,6.801-13.4,8.801c-2.4,0.899-4.9,1.6-7.3,2.1c-2.4,0.4-4.8,0.6-7.2,0.6H58.2
		c-2.4,0-4.8-0.199-7.2-0.6c-2.4-0.5-4.9-1.2-7.3-2.1c-4.9-2-9.5-4.9-13.4-8.801c-3.9-3.899-6.8-8.5-8.7-13.3
		c-1-2.5-1.7-4.899-2.2-7.399c-0.4-2.4-0.6-4.801-0.6-7.101v-446.3c0-5.2,1-10.3,3-15.1c2-4.7,4.9-9.1,8.5-12.7
		c3.7-3.7,8-6.6,12.8-8.6C47.9,38.876,53,37.876,58.2,37.876"/>
	<path clip-path="url(#SVGID_2_)" fill-rule="evenodd" clip-rule="evenodd" fill="#0000FF" d="M766.9,57.576H58.2
		c-2.4,0-4.8,0.4-7.3,1.4c-2.4,1-4.7,2.4-6.7,4.4c-1.9,1.9-3.4,4.2-4.3,6.7c-1,2.4-1.4,4.9-1.4,7.2v446.3c0,2.3,0.4,4.8,1.4,7.2
		c0.9,2.5,2.4,4.7,4.3,6.7c2,1.899,4.3,3.399,6.7,4.399c2.5,0.9,4.9,1.301,7.3,1.301h708.7c2.4,0,4.8-0.4,7.3-1.301
		c2.4-1,4.7-2.5,6.7-4.399c1.9-2,3.4-4.2,4.3-6.7c1-2.4,1.4-4.9,1.4-7.2v-446.3c0-5.2-2.101-10.2-5.7-13.9
		C777.2,59.676,772.2,57.576,766.9,57.576"/>
	<path clip-path="url(#SVGID_2_)" fill-rule="evenodd" clip-rule="evenodd" fill="#F0F0F0" d="M219.6,87.776v162.8
		c0,1.2-0.2,2.5-0.7,3.8c-0.5,1.3-1.3,2.5-2.4,3.6c-1,1-2.2,1.8-3.5,2.3s-2.7,0.8-3.9,0.8H94.9c-1.2,0-2.5-0.3-3.8-0.8
		c-1.4-0.5-2.6-1.3-3.6-2.3c-1-1.1-1.8-2.3-2.3-3.6c-0.3-0.6-0.5-1.3-0.6-1.9c-0.1-0.7-0.2-1.3-0.2-1.9v-162.8
		c0-1.2,0.2-2.6,0.8-3.9c0.5-1.3,1.3-2.5,2.3-3.5c1-1.1,2.2-1.8,3.6-2.4c1.3-0.5,2.6-0.7,3.8-0.7h114.2c2.8,0,5.5,1.1,7.4,3.1
		C218.5,82.276,219.6,84.976,219.6,87.776"/>
	<path clip-path="url(#SVGID_2_)" fill-rule="evenodd" clip-rule="evenodd" fill="#0000FF" d="M92.3,89.076v160.1
		c0,0.5,0.1,1,0.3,1.5c0.2,0.5,0.5,0.9,0.8,1.3c0.4,0.4,0.9,0.7,1.4,0.9c0.5,0.2,1,0.3,1.4,0.3h111.6c0.9,0,2-0.4,2.8-1.2
		c0.8-0.8,1.1-1.8,1.1-2.8v-160.1c0-0.9-0.3-2-1.1-2.8c-0.8-0.8-1.9-1.1-2.8-1.1H96.2c-0.9,0-2,0.3-2.8,1.1
		C92.6,87.076,92.3,88.176,92.3,89.076"/>
	<path clip-path="url(#SVGID_2_)" fill-rule="evenodd" clip-rule="evenodd" fill="#F0F0F0" d="M97.5,149.476
		c4.8,9.9,12.3,18.2,21.5,24c9.3,5.9,20.1,9,31,9c5.2,0,10.6-0.7,15.9-2.2c5.3-1.5,10.4-3.8,15.1-6.8c4.8-3,9.1-6.6,12.7-10.7
		c3.7-4.1,6.6-8.6,8.8-13.3l-31.8-15.5c-2,3.8-5,7-8.6,9.2c-3.6,2.2-7.8,3.3-12.1,3.3c-2,0-4-0.2-6.1-0.8s-4.1-1.4-5.9-2.5
		c-1.9-1.2-3.6-2.5-5-4.1c-1.5-1.6-2.6-3.3-3.6-5.1L97.5,149.476"/>
	<polyline clip-path="url(#SVGID_2_)" fill-rule="evenodd" clip-rule="evenodd" fill="#F0F0F0" points="164.6,90.776 151.4,143.276 
		138.3,90.776 164.6,90.776 	"/>
	<path clip-path="url(#SVGID_2_)" fill-rule="evenodd" clip-rule="evenodd" fill="#F0F0F0" d="M121.3,194.476v48.6
		c0,0.6,0.2,1.3,0.4,1.9c0.3,0.7,0.7,1.3,1.2,1.8s1.1,0.9,1.8,1.2c0.6,0.2,1.3,0.3,1.9,0.3h51.2c1.3,0,2.6-0.4,3.7-1.5
		s1.5-2.4,1.5-3.7v-48.6c0-1.2-0.4-2.6-1.5-3.7s-2.4-1.5-3.7-1.5h-51.2c-1.3,0-2.7,0.4-3.7,1.5
		C121.8,191.876,121.3,193.276,121.3,194.476"/>
	<path clip-path="url(#SVGID_2_)" fill-rule="evenodd" clip-rule="evenodd" fill="#0000FF" d="M125.3,195.776v46
		c0,0.3,0,0.6,0.2,0.9c0.1,0.4,0.3,0.7,0.5,0.9c0.3,0.3,0.6,0.5,0.9,0.6c0.4,0.1,0.7,0.2,1,0.2h48.6c0.6,0,1.3-0.2,1.8-0.8
		c0.6-0.5,0.8-1.2,0.8-1.8v-46c0-0.6-0.2-1.3-0.8-1.8c-0.5-0.6-1.2-0.8-1.8-0.8h-48.6c-0.6,0-1.3,0.2-1.9,0.8
		C125.5,194.476,125.3,195.176,125.3,195.776"/>
	<polyline clip-path="url(#SVGID_2_)" fill-rule="evenodd" clip-rule="evenodd" fill="#F0F0F0" points="154.6,225.876 
		156.3,225.476 157.4,225.176 158.2,224.776 159,224.476 159.6,224.076 160.2,223.776 161,222.976 161.8,222.276 162.4,221.576 
		163,220.876 163.5,220.176 164.1,219.176 164.6,218.076 164.9,217.376 165.2,216.676 165.5,215.676 165.7,214.576 166,212.876 
		166,211.776 166,210.376 165.7,208.576 165.7,208.276 165.5,207.176 165.2,206.176 164.6,204.776 164.1,203.676 163.5,202.676 
		163,201.976 162.4,201.276 161.8,200.576 161,199.876 160.2,199.176 159.6,198.776 159,198.476 158.2,198.076 157.7,197.676 
		156.3,197.376 154.6,196.976 139.2,196.976 139.2,241.676 146.8,241.676 146.8,225.876 154.6,225.876 	"/>
	<polyline clip-path="url(#SVGID_2_)" fill-rule="evenodd" clip-rule="evenodd" fill="#0000FF" points="152.9,218.076 
		146.8,218.076 146.8,204.376 152.9,204.376 153.2,204.376 153.5,204.376 154.9,204.776 155.4,205.076 156,205.476 156.5,205.776 
		157.1,206.476 157.7,207.176 158.2,208.276 158.5,209.276 158.8,211.076 158.8,211.776 158.5,213.176 158.2,214.276 157.7,215.276 
		157.4,215.676 156.8,216.376 156,217.076 155.4,217.376 154.6,217.776 153.5,218.076 152.9,218.076 	"/>
	
		<line clip-path="url(#SVGID_2_)" fill="none" stroke="#0000FF" stroke-width="0.12" stroke-linejoin="bevel" stroke-miterlimit="1.414" x1="806.3" y1="37.876" x2="18.8" y2="37.876"/>
	
		<line clip-path="url(#SVGID_2_)" fill="none" stroke="#0000FF" stroke-width="0.12" stroke-linejoin="bevel" stroke-miterlimit="1.414" x1="806.3" y1="562.875" x2="806.3" y2="37.876"/>
	
		<line clip-path="url(#SVGID_2_)" fill="none" stroke="#0000FF" stroke-width="0.12" stroke-linejoin="bevel" stroke-miterlimit="1.414" x1="806.3" y1="562.875" x2="18.8" y2="562.875"/>
	
		<line clip-path="url(#SVGID_2_)" fill="none" stroke="#0000FF" stroke-width="0.12" stroke-linejoin="bevel" stroke-miterlimit="1.414" x1="18.8" y1="37.876" x2="18.8" y2="562.875"/>
	<path clip-path="url(#SVGID_2_)" fill-rule="evenodd" clip-rule="evenodd" fill="#0000FF" d="M18.8,77.276c0-2.3,0.2-4.7,0.6-7.2
		c0.5-2.4,1.2-4.9,2.1-7.3c2-4.9,4.9-9.4,8.8-13.3c3.9-3.9,8.4-6.9,13.3-8.8c2.5-1,4.9-1.7,7.4-2.1c2.4-0.5,4.8-0.7,7.1-0.7H18.8
		v0.1V77.276"/>
	<path clip-path="url(#SVGID_2_)" fill-rule="evenodd" clip-rule="evenodd" fill="#0000FF" d="M58.2,562.875h-0.1H58h-0.1
		c0,0-0.1,0-0.2,0c-0.1,0-0.3,0-0.4,0c-0.3,0-0.6,0-0.9,0c-0.6,0-1.2-0.1-1.8-0.1c-1.2-0.1-2.4-0.3-3.6-0.5
		c-2.4-0.5-4.9-1.2-7.3-2.1c-4.9-2-9.5-4.9-13.4-8.801c-3.8-3.8-6.8-8.399-8.7-13.3c-1-2.399-1.7-4.899-2.1-7.3
		c-0.5-2.5-0.7-4.9-0.7-7.2v39.3h0.1H58.2"/>
	<path clip-path="url(#SVGID_2_)" fill-rule="evenodd" clip-rule="evenodd" fill="#0000FF" d="M766.9,37.876c2.4,0,4.7,0.2,7.2,0.7
		c2.399,0.4,4.899,1.1,7.3,2.1c4.9,1.9,9.5,4.9,13.3,8.7c3.9,3.9,6.9,8.5,8.8,13.3c1,2.5,1.7,4.9,2.101,7.4c0.5,2.4,0.7,4.8,0.7,7.1
		v-39.3H806.2H766.9"/>
	<path clip-path="url(#SVGID_2_)" fill-rule="evenodd" clip-rule="evenodd" fill="#0000FF" d="M806.3,523.576
		c0,2.3-0.2,4.7-0.601,7.101c-0.5,2.5-1.2,4.899-2.2,7.3c-1.899,4.899-4.8,9.5-8.699,13.399c-3.9,3.9-8.4,6.801-13.301,8.801
		c-2.399,0.899-4.899,1.6-7.3,2.1c-2.5,0.4-4.899,0.6-7.2,0.6H806.3V523.576"/>
</g>
<g>
	<defs>
		<polyline id="SVGID_3_" points="0,582.437 842.01,582.437 842.01,12.839 0,12.839 0,582.437 		"/>
	</defs>
	<clipPath id="SVGID_4_">
		<use xlink:href="#SVGID_3_"  overflow="visible"/>
	</clipPath>
	<path clip-path="url(#SVGID_4_)" fill-rule="evenodd" clip-rule="evenodd" fill="#F0F0F0" d="M430.6,424.476l-26.6-37.8l24.6-33.4
		h-14.4l-17.5,24.6c-0.9-1.699-6.2-9.899-16-24.6h-15l24.1,34.1l-26.1,37.101h14.7l18.7-28.2l18.5,28.2H430.6"/>
	<polyline clip-path="url(#SVGID_4_)" fill-rule="evenodd" clip-rule="evenodd" fill="#F0F0F0" points="511.1,394.976 
		511.1,382.776 474.1,382.776 474.1,394.976 511.1,394.976 	"/>
	<path clip-path="url(#SVGID_4_)" fill-rule="evenodd" clip-rule="evenodd" fill="#F0F0F0" d="M621.6,424.476L595,386.676
		l24.601-33.4h-14.4l-17.5,24.6c-0.899-1.699-6.2-9.899-16-24.6H556.8l24,34.1L554.7,424.476h14.7l18.7-28.2l18.6,28.2H621.6"/>
</g>
<g>
	<defs>
		<polyline id="SVGID_5_" points="0,582.437 842.01,582.437 842.01,12.839 0,12.839 0,582.437 		"/>
	</defs>
	<clipPath id="SVGID_6_">
		<use xlink:href="#SVGID_5_"  overflow="visible"/>
	</clipPath>
	<path clip-path="url(#SVGID_6_)" fill-rule="evenodd" clip-rule="evenodd" fill="#F0F0F0" d="M396,227.676v-49c0-8-1.8-14-5.5-17.9
		c-3.7-4-9.2-6-16.6-6c-9.4,0-16.7,4.1-22,12.5c-1.5-4.2-4-7.3-7.4-9.4c-3.3-2.1-7.6-3.1-12.9-3.1c-9.3,0-16.4,3.8-21.3,11.5H310
		v-9.9h-10.8v71.3h12.1v-37.1c0-9.8,1.6-16.5,5-20c3.3-3.6,7.6-5.4,12.8-5.4c3.9,0,7,1.1,9.2,3.4c2.2,2.3,3.3,6.5,3.3,12.7v46.4h12
		v-41.4c0-7.5,1.8-12.8,5.2-16.1c3.5-3.4,7.6-5,12.3-5c4,0,6.9,0.9,8.7,2.7c1.9,1.8,3,3.9,3.5,6.3c0.4,2.3,0.6,5.1,0.6,8.5v45H396"
		/>
	<polyline clip-path="url(#SVGID_6_)" fill-rule="evenodd" clip-rule="evenodd" fill="#F0F0F0" points="426.1,227.676 
		426.1,156.376 414,156.376 414,227.676 426.1,227.676 	"/>
	<polyline clip-path="url(#SVGID_6_)" fill-rule="evenodd" clip-rule="evenodd" fill="#F0F0F0" points="426.1,142.876 
		426.1,129.176 414,129.176 414,142.876 426.1,142.876 	"/>
	<path clip-path="url(#SVGID_6_)" fill-rule="evenodd" clip-rule="evenodd" fill="#F0F0F0" d="M502.8,227.676v-43.9
		c0-5.2-0.301-9.3-0.801-12.4c-0.5-3-1.8-5.9-3.899-8.6c-2.101-2.7-5-4.7-8.7-6c-3.6-1.4-7.3-2-11.1-2c-4.9,0-9.301,0.9-13,2.9
		c-3.7,1.9-6.9,4.9-9.4,8.8h-0.3v-10.1h-10.9v71.3H456.8v-39c0-5.8,0.699-10.3,2-13.5c1.399-3.2,3.6-5.6,6.8-7.4
		c3.2-1.7,6.6-2.6,10.2-2.6c4.699,0,8.3,1.4,10.899,4.1c2.601,2.7,4,7.7,4,15v43.4H502.8"/>
	<polyline clip-path="url(#SVGID_6_)" fill-rule="evenodd" clip-rule="evenodd" fill="#F0F0F0" points="588.3,129.176 
		578.6,129.176 550.1,230.976 559.8,230.976 588.3,129.176 	"/>
	<path clip-path="url(#SVGID_6_)" fill-rule="evenodd" clip-rule="evenodd" fill="#F0F0F0" d="M694,227.676v-45.2
		c0-6.9-0.8-12.3-2.5-16.2c-1.699-3.9-4.699-6.8-8.899-8.7c-4.2-1.9-8.601-2.8-13.2-2.8c-8.6,0-15.8,3.2-21.5,9.7v-35.3h-12.1v98.5
		h12.1v-39c0-1.1,0-2.2,0.1-3.2c0-1,0.101-2,0.2-2.9c0.3-1.9,0.601-3.6,1.101-5.1c1-3.1,2.5-5.5,4.399-7.2c3.9-3.4,8.3-5.1,13.2-5.1
		c5,0,8.7,1.4,11.2,4.4c2.5,2.9,3.8,7.2,3.8,13.1v45H694"/>
</g>
</svg>
