<?xml version="1.0" encoding="UTF-8"?>
<svg id="Layer_1" data-name="Layer 1" xmlns="http://www.w3.org/2000/svg" version="1.1" viewBox="0 0 400 270">
  <defs>
    <style>
      .cls-1 {
        fill: #fff;
      }

      .cls-1, .cls-2, .cls-3 {
        fill-rule: evenodd;
        stroke-width: 0px;
      }

      .cls-2 {
        fill: #f0f0f0;
      }

      .cls-3 {
        fill: #2160ad;
      }
    </style>
  </defs>
  <g>
    <path class="cls-1" d="M20,0h360c1.2,0,2.4.1,3.7.4,1.2.2,2.5.6,3.7,1.1,2.5,1,4.8,2.5,6.8,4.5,2,2,3.5,4.3,4.4,6.8.5,1.2.9,2.5,1.1,3.8.3,1.3.4,2.5.4,3.7v229.5c0,1.2-.1,2.4-.4,3.7-.2,1.3-.6,2.5-1.1,3.8-1,2.5-2.4,4.8-4.4,6.8-2,2-4.3,3.5-6.8,4.5-1.2.5-2.5.8-3.7,1.1-1.2.2-2.4.3-3.7.3H20c-1.2,0-2.4-.1-3.7-.3-1.2-.3-2.5-.6-3.7-1.1-2.5-1-4.8-2.5-6.8-4.5-2-2-3.5-4.4-4.4-6.8-.5-1.3-.9-2.5-1.1-3.8C.1,252.2,0,251,0,249.8V20.3C0,17.6.5,15,1.5,12.5c1-2.4,2.5-4.7,4.3-6.5,1.9-1.9,4.1-3.4,6.5-4.4C14.8.6,17.4,0,20,0"/>
    <path class="cls-3" d="M380,10.2H20c-1.2,0-2.4.2-3.7.7-1.2.5-2.4,1.2-3.4,2.3-1,1-1.7,2.2-2.2,3.4-.5,1.2-.7,2.5-.7,3.7v229.5c0,1.2.2,2.5.7,3.7.5,1.3,1.2,2.4,2.2,3.4,1,1,2.2,1.7,3.4,2.3,1.3.5,2.5.7,3.7.7h360c1.2,0,2.4-.2,3.7-.7,1.2-.5,2.4-1.3,3.4-2.3,1-1,1.7-2.2,2.2-3.4.5-1.2.7-2.5.7-3.7V20.3c0-2.7-1.1-5.2-2.9-7.1-1.9-1.9-4.4-3-7.1-3"/>
    <path class="cls-2" d="M102,25.7v83.7c0,.6-.1,1.3-.4,2s-.7,1.3-1.2,1.9c-.5.5-1.1.9-1.8,1.2s-1.4.4-2,.4h-58c-.6,0-1.3-.2-1.9-.4-.7-.3-1.3-.7-1.8-1.2-.5-.6-.9-1.2-1.2-1.9-.2-.3-.3-.7-.3-1,0-.4-.1-.7-.1-1V25.7c0-.6.1-1.3.4-2,.3-.7.7-1.3,1.2-1.8.5-.6,1.1-.9,1.8-1.2.7-.3,1.3-.4,1.9-.4h58c1.4,0,2.8.6,3.8,1.6,1,1,1.6,2.4,1.6,3.8"/>
    <path class="cls-3" d="M37.3,26.4v82.3c0,.3,0,.5.2.8.1.3.3.5.4.7.2.2.5.4.7.5s.5.2.7.2h56.7c.5,0,1-.2,1.4-.6s.6-.9.6-1.4V26.4c0-.5-.2-1-.6-1.4s-1-.6-1.4-.6h-56.7c-.5,0-1,.2-1.4.6-.4.4-.6,1-.6,1.4"/>
    <path class="cls-2" d="M40,57.4c2.4,5.1,6.2,9.4,10.9,12.3,4.7,3,10.2,4.6,15.7,4.6s5.4-.4,8.1-1.1c2.7-.8,5.3-2,7.7-3.5,2.4-1.5,4.6-3.4,6.5-5.5,1.9-2.1,3.4-4.4,4.5-6.8l-16.2-8c-1,2-2.5,3.6-4.4,4.7s-4,1.7-6.1,1.7-2-.1-3.1-.4-2.1-.7-3-1.3c-1-.6-1.8-1.3-2.5-2.1-.8-.8-1.3-1.7-1.8-2.6l-16.2,8"/>
    <polyline class="cls-2" points="74.1 27.3 67.4 54.2 60.7 27.3 74.1 27.3"/>
    <path class="cls-2" d="M52.1,80.6v25c0,.3.1.7.2,1,.2.4.4.7.6.9s.6.5.9.6c.3.1.7.2,1,.2h26c.7,0,1.3-.2,1.9-.8s.8-1.2.8-1.9v-25c0-.6-.2-1.3-.8-1.9s-1.2-.8-1.9-.8h-26c-.7,0-1.4.2-1.9.8-.6.6-.8,1.3-.8,1.9"/>
    <path class="cls-3" d="M54.1,81.2v23.7c0,.2,0,.3.1.5,0,.2.2.4.3.5.2.2.3.3.5.3.2,0,.4.1.5.1h24.7c.3,0,.7-.1.9-.4.3-.3.4-.6.4-.9v-23.7c0-.3-.1-.7-.4-.9-.3-.3-.6-.4-.9-.4h-24.7c-.3,0-.7.1-1,.4-.3.3-.4.6-.4.9"/>
    <polyline class="cls-2" points="69 96.7 69.8 96.5 70.4 96.4 70.8 96.2 71.2 96 71.5 95.8 71.8 95.6 72.2 95.2 72.6 94.9 72.9 94.5 73.2 94.1 73.5 93.8 73.8 93.3 74.1 92.7 74.2 92.3 74.4 92 74.5 91.5 74.6 90.9 74.8 90 74.8 89.5 74.8 88.7 74.6 87.8 74.6 87.7 74.5 87.1 74.4 86.6 74.1 85.9 73.8 85.3 73.5 84.8 73.2 84.4 72.9 84.1 72.6 83.7 72.2 83.3 71.8 83 71.5 82.8 71.2 82.6 70.8 82.4 70.6 82.2 69.8 82.1 69 81.9 61.2 81.9 61.2 104.8 65 104.8 65 96.7 69 96.7"/>
    <polyline class="cls-3" points="68.1 92.7 65 92.7 65 85.7 68.1 85.7 68.3 85.7 68.4 85.7 69.1 85.9 69.4 86 69.7 86.2 69.9 86.4 70.2 86.7 70.6 87.1 70.8 87.7 71 88.2 71.1 89.1 71.1 89.5 71 90.2 70.8 90.8 70.6 91.3 70.4 91.5 70.1 91.8 69.7 92.2 69.4 92.3 69 92.6 68.4 92.7 68.1 92.7"/>
    <path class="cls-3" d="M0,20.3c0-1.2.1-2.4.3-3.7.3-1.2.6-2.5,1.1-3.8,1-2.5,2.5-4.8,4.5-6.8,2-2,4.3-3.5,6.8-4.5,1.3-.5,2.5-.9,3.8-1.1,1.2-.3,2.4-.4,3.6-.4H0v20.3"/>
    <path class="cls-3" d="M20,270h-.9c-.3,0-.6,0-.9,0-.6,0-1.2-.2-1.8-.3-1.2-.3-2.5-.6-3.7-1.1-2.5-1-4.8-2.5-6.8-4.5-1.9-2-3.5-4.3-4.4-6.8-.5-1.2-.9-2.5-1.1-3.8C.1,252.2,0,251,0,249.8v20.2h20"/>
    <path class="cls-3" d="M380,0c1.2,0,2.4.1,3.7.4,1.2.2,2.5.6,3.7,1.1,2.5,1,4.8,2.5,6.8,4.5,2,2,3.5,4.4,4.5,6.8.5,1.3.9,2.5,1.1,3.8.3,1.2.4,2.5.4,3.7V0h-20"/>
    <path class="cls-3" d="M400,249.8c0,1.2-.1,2.4-.3,3.7-.3,1.3-.6,2.5-1.1,3.8-1,2.5-2.4,4.9-4.4,6.9s-4.3,3.5-6.8,4.5c-1.2.5-2.5.8-3.7,1.1-1.3.2-2.5.3-3.7.3h20v-20.2"/>
  </g>
  <g>
    <path class="cls-2" d="M209.2,198.8l-13.5-19.4,12.5-17.2h-7.3l-8.9,12.6c-.5-.9-3.1-5.1-8.1-12.6h-7.6l12.2,17.5-13.3,19.1h7.5l9.5-14.5,9.4,14.5h7.6"/>
    <polyline class="cls-2" points="250.1 183.7 250.1 177.4 231.3 177.4 231.3 183.7 250.1 183.7"/>
    <path class="cls-2" d="M306.2,198.8l-13.5-19.4,12.5-17.2h-7.3l-8.9,12.6c-.5-.9-3.1-5.1-8.1-12.6h-7.6l12.2,17.5-13.3,19.1h7.5l9.5-14.5,9.4,14.5h7.6"/>
  </g>
  <g>
    <path class="cls-2" d="M191.6,97.6v-25.2c0-4.1-.9-7.2-2.8-9.2-1.9-2.1-4.7-3.1-8.4-3.1s-8.5,2.1-11.2,6.4c-.8-2.2-2-3.8-3.8-4.8-1.7-1.1-3.9-1.6-6.6-1.6-4.7,0-8.3,2-10.8,5.9h-.2v-5.1h-5.5v36.7h6.1v-19.1c0-5,.8-8.5,2.5-10.3,1.7-1.9,3.9-2.8,6.5-2.8s3.6.6,4.7,1.7c1.1,1.2,1.7,3.3,1.7,6.5v23.9h6.1v-21.3c0-3.9.9-6.6,2.6-8.3,1.8-1.7,3.9-2.6,6.2-2.6s3.5.5,4.4,1.4c1,.9,1.5,2,1.8,3.2.2,1.2.3,2.6.3,4.4v23.1h6.1"/>
    <polyline class="cls-2" points="206.9 97.6 206.9 61 200.7 61 200.7 97.6 206.9 97.6"/>
    <polyline class="cls-2" points="206.9 54 206.9 47 200.7 47 200.7 54 206.9 54"/>
    <path class="cls-2" d="M245.8,97.6v-22.6c0-2.7-.2-4.8-.4-6.4-.3-1.5-.9-3-2-4.4-1.1-1.4-2.5-2.4-4.4-3.1-1.8-.7-3.7-1-5.6-1s-4.7.5-6.6,1.5c-1.9,1-3.5,2.5-4.8,4.5h-.2v-5.2h-5.5v36.7h6.1v-20.1c0-3,.4-5.3,1-6.9.7-1.6,1.8-2.9,3.5-3.8,1.6-.9,3.4-1.3,5.2-1.3s4.2.7,5.5,2.1c1.3,1.4,2,4,2,7.7v22.3h6.1"/>
    <polyline class="cls-2" points="289.3 47 284.3 47 269.9 99.3 274.8 99.3 289.3 47"/>
    <path class="cls-2" d="M343,97.6v-23.2c0-3.5-.4-6.3-1.3-8.3-.9-2-2.4-3.5-4.5-4.5s-4.4-1.4-6.7-1.4c-4.4,0-8,1.6-10.9,5v-18.2h-6.1v50.6h6.1v-20.1c0-.6,0-1.1,0-1.6,0-.5,0-1,.1-1.5.2-1,.3-1.9.6-2.6.5-1.6,1.3-2.8,2.2-3.7,2-1.7,4.2-2.6,6.7-2.6s4.4.7,5.7,2.3c1.3,1.5,1.9,3.7,1.9,6.7v23.1h6.1"/>
  </g>
</svg>