<?xml version="1.0" encoding="utf-8"?>
<!-- Generator: Adobe Illustrator 28.0.0, SVG Export Plug-In . SVG Version: 6.00 Build 0)  -->
<svg version="1.1" id="Layer_1" xmlns="http://www.w3.org/2000/svg" xmlns:xlink="http://www.w3.org/1999/xlink" x="0px" y="0px"
	 viewBox="0 0 425.2 425.2" style="enable-background:new 0 0 425.2 425.2;" xml:space="preserve">
<style type="text/css">
	.st0{fill:#005EB8;stroke:#005EB8;stroke-width:0.5;stroke-miterlimit:10;}
	.st1{fill:#FFFFFF;}
	.st2{fill:#005EB8;}
</style>
<g id="LWPOLYLINE_17_">
	<rect x="14.17" y="129.92" class="st0" width="396.85" height="165.36"/>
</g>
<g id="LWPOLYLINE_15_">
	<path class="st1" d="M40.63,129.92h343.94c14.61,0,26.45,11.85,26.45,26.46v112.44c0,14.61-11.85,26.46-26.45,26.46H40.63
		c-14.61,0-26.46-11.85-26.46-26.46V156.38C14.17,141.77,26.02,129.92,40.63,129.92z"/>
</g>
<g id="LWPOLYLINE_16_">
	<path class="st2" d="M40.63,143.15h343.94c7.3,0,13.23,5.93,13.23,13.23v112.44c0,7.31-5.92,13.23-13.23,13.23H40.63
		c-7.3,0-13.23-5.92-13.23-13.23V156.38C27.4,149.07,33.33,143.15,40.63,143.15z"/>
</g>
<g id="LWPOLYLINE_14_">
	<path class="st1" d="M47.25,255.12v-85.04c0-3.92,3.17-7.09,7.08-7.09h58.82c3.92,0,7.09,3.17,7.09,7.09v85.04
		c0,3.91-3.17,7.09-7.09,7.09H54.33C50.42,262.2,47.25,259.03,47.25,255.12z"/>
</g>
<g id="LWPOLYLINE_13_">
	<path class="st2" d="M50.79,255.12v-85.04c0-1.96,1.59-3.54,3.54-3.54h58.82c1.96,0,3.55,1.59,3.55,3.54v85.04
		c0,1.96-1.59,3.55-3.55,3.55H54.33C52.38,258.67,50.79,257.08,50.79,255.12z"/>
</g>
<g id="LWPOLYLINE_12_">
	<polygon class="st1" points="83.74,198.75 90.83,170.08 76.66,170.08 	"/>
</g>
<g id="LWPOLYLINE_11_">
	<path class="st1" d="M57.88,206.91l17.27-12.53c3.45,4.75,10.09,5.8,14.85,2.36c0.9-0.66,1.7-1.45,2.36-2.36l17.26,12.53
		c-1.97,2.72-4.36,5.11-7.08,7.09C88.24,224.37,68.25,221.19,57.88,206.91z"/>
</g>
<g id="LWPOLYLINE_10_">
	<path class="st1" d="M67.8,251.93v-25.51c0-1.76,1.43-3.19,3.19-3.19H96.5c1.76,0,3.19,1.43,3.19,3.19v25.51
		c0,1.76-1.43,3.19-3.19,3.19H70.99C69.22,255.12,67.8,253.69,67.8,251.93z"/>
</g>
<g id="LWPOLYLINE_9_">
	<path class="st2" d="M69.39,251.93v-25.51c0-0.88,0.72-1.6,1.6-1.6H96.5c0.88,0,1.59,0.71,1.59,1.6v25.51
		c0,0.88-0.71,1.59-1.59,1.59H70.99C70.11,253.52,69.39,252.81,69.39,251.93z"/>
</g>
<g id="LWPOLYLINE_8_">
	<path class="st1" d="M75.22,251.96h4.78v-10.63h6.91c4.11,0,7.44-3.33,7.44-7.44c0-4.11-3.33-7.44-7.44-7.44h-11.7V251.96z"/>
</g>
<g id="LWPOLYLINE_3_">
	<path class="st2" d="M80.01,231.23v5.31h7.12c1.46-0.12,2.56-1.4,2.44-2.86c-0.11-1.38-1.26-2.45-2.65-2.45H80.01z"/>
</g>
<g id="LWPOLYLINE_94_">
	<polygon class="st1" points="352.77,185.24 338.97,236.74 346.97,236.74 360.76,185.24 	"/>
</g>
<g id="LWPOLYLINE_77_">
	<path class="st1" d="M390.97,208.09v-0.22c0-4.42-3.58-8-8-8c-2.68,0.33-5.26,1.24-7.56,2.67v-13.78h-6.66v44.45h6.66v-23.56
		c0-2.45,1.99-4.44,4.45-4.44c2.45,0,4.44,1.99,4.44,4.44v23.56h6.66V208.09z"/>
</g>
<g id="LWPOLYLINE_7_">
	<rect x="295.07" y="200.28" class="st1" width="6.91" height="34.56"/>
</g>
<g id="LWPOLYLINE_6_">
	<rect x="295.07" y="188.76" class="st1" width="6.91" height="6.91"/>
</g>
<g id="LWPOLYLINE_5_">
	<path class="st1" d="M279.86,209.03c0-1.78-1.45-3.22-3.23-3.22h-0.46c-3.05,0-5.53,2.48-5.53,5.53v23.5h-6.91v-25.81
		c0-1.78-1.45-3.22-3.22-3.22h-0.46c-3.06,0-5.53,2.48-5.53,5.53v23.5h-6.91v-34.56h6.91v2.76c2.26-1.4,4.78-2.33,7.41-2.71
		c0.32-0.05,0.65-0.06,0.97-0.04c2.58,0.17,4.93,1.54,6.36,3.69c2.58-1.93,5.61-3.19,8.79-3.65c0.32-0.05,0.65-0.06,0.97-0.04
		c4.36,0.29,7.74,3.91,7.74,8.27v26.27h-6.91V209.03z"/>
</g>
<g id="LWPOLYLINE_4_">
	<path class="st1" d="M318.11,234.84h-6.91v-34.56h6.91v2.76c2.26-1.4,4.78-2.33,7.42-2.71c0.32-0.05,0.65-0.06,0.97-0.04
		c4.36,0.29,7.74,3.91,7.74,8.27v26.27h-6.91v-25.81c0-1.78-1.44-3.22-3.22-3.22h-0.46c-3.05,0-5.53,2.48-5.53,5.53V234.84z"/>
</g>
</svg>
