<?xml version="1.0" encoding="utf-8"?>
<!-- Generator: Adobe Illustrator 14.0.0, SVG Export Plug-In . SVG Version: 6.00 Build 43363)  -->
<!DOCTYPE svg PUBLIC "-//W3C//DTD SVG 1.1//EN" "http://www.w3.org/Graphics/SVG/1.1/DTD/svg11.dtd">
<svg version="1.1" id="Layer_1" xmlns="http://www.w3.org/2000/svg" xmlns:xlink="http://www.w3.org/1999/xlink" x="0px" y="0px"
	 width="841.89px" height="595.276px" viewBox="0 0 841.89 595.276" enable-background="new 0 0 841.89 595.276"
	 xml:space="preserve">
<g>
	<defs>
		<polyline id="SVGID_1_" points="0,582.519 842.01,582.519 842.01,12.757 0,12.757 0,582.519 		"/>
	</defs>
	<clipPath id="SVGID_2_">
		<use xlink:href="#SVGID_1_"  overflow="visible"/>
	</clipPath>
	<path clip-path="url(#SVGID_2_)" fill-rule="evenodd" clip-rule="evenodd" fill="#FF0000" d="M52.8,26.776h723.8
		c2.3,0,4.8,0.2,7.3,0.7s5,1.2,7.5,2.1c5,2,9.6,5,13.6,9s7,8.6,9,13.6c0.9,2.5,1.601,5,2.101,7.5s0.7,5,0.7,7.3v455.7
		c0,2.399-0.2,4.8-0.7,7.3s-1.2,5-2.101,7.5c-2,5-5,9.7-9,13.6c-4,4-8.6,7-13.6,9c-2.5,1-5,1.7-7.5,2.2c-2.5,0.4-5,0.6-7.3,0.6H52.8
		c-2.3,0-4.8-0.199-7.3-0.6c-2.5-0.5-5-1.2-7.5-2.2c-5-2-9.6-5-13.6-9c-4-3.899-7-8.6-9-13.6c-0.9-2.5-1.6-5-2.1-7.5
		s-0.7-4.9-0.7-7.3v-455.7c0-5.3,1.1-10.5,3.1-15.4c2-4.8,5-9.3,8.7-13c3.7-3.7,8.2-6.7,13-8.7C42.3,27.876,47.6,26.776,52.8,26.776
		"/>
	<path clip-path="url(#SVGID_2_)" fill-rule="evenodd" clip-rule="evenodd" fill="#FFFF00" d="M776.6,46.876H52.8
		c-2.4,0-4.9,0.4-7.4,1.4s-4.8,2.5-6.8,4.5s-3.5,4.3-4.5,6.8c-0.9,2.5-1.4,5-1.4,7.4v455.7c0,2.399,0.5,4.899,1.4,7.399
		c1,2.5,2.5,4.8,4.5,6.8s4.3,3.5,6.8,4.5s5,1.4,7.4,1.4h723.8c2.399,0,4.899-0.4,7.399-1.4s4.801-2.5,6.801-4.5s3.5-4.3,4.5-6.8
		c0.899-2.5,1.399-5,1.399-7.399v-455.7c0-5.3-2.1-10.4-5.899-14.2C787,48.976,781.9,46.876,776.6,46.876"/>
	<path clip-path="url(#SVGID_2_)" fill-rule="evenodd" clip-rule="evenodd" fill="#404040" d="M217.7,77.676v166.2
		c0,1.3-0.2,2.7-0.8,4c-0.5,1.3-1.3,2.6-2.4,3.6c-1,1.1-2.3,1.9-3.6,2.4c-1.3,0.5-2.7,0.8-3.9,0.8H90.4c-1.3,0-2.7-0.3-4-0.8
		c-1.3-0.5-2.6-1.3-3.6-2.4c-1.1-1-1.9-2.3-2.4-3.6c-0.3-0.7-0.5-1.3-0.6-2c-0.1-0.7-0.2-1.3-0.2-2v-166.2c0-1.2,0.3-2.6,0.8-3.9
		s1.3-2.6,2.4-3.6c1-1.1,2.3-1.9,3.6-2.4c1.3-0.5,2.7-0.8,4-0.8H207c2.8,0,5.5,1.2,7.5,3.2C216.6,72.176,217.7,74.876,217.7,77.676"
		/>
	<path clip-path="url(#SVGID_2_)" fill-rule="evenodd" clip-rule="evenodd" fill="#FFFF00" d="M93,140.676
		c4.9,10.1,12.5,18.6,22,24.6s20.4,9.1,31.6,9.1c5.3,0,10.8-0.7,16.2-2.2c5.4-1.5,10.6-3.8,15.5-6.9c4.9-3.1,9.2-6.8,12.9-11
		c3.8-4.2,6.8-8.8,9.1-13.6l-32.6-15.8c-2,3.9-5,7.1-8.7,9.4c-3.7,2.2-8,3.4-12.4,3.4c-2,0-4.1-0.2-6.2-0.8s-4.2-1.5-6.1-2.6
		c-1.9-1.2-3.6-2.6-5.1-4.2c-1.4-1.6-2.7-3.3-3.6-5.2L93,140.676"/>
	<polyline clip-path="url(#SVGID_2_)" fill-rule="evenodd" clip-rule="evenodd" fill="#FFFF00" points="161.5,80.776 148.1,134.476 
		134.7,80.776 161.5,80.776 	"/>
	<path clip-path="url(#SVGID_2_)" fill-rule="evenodd" clip-rule="evenodd" fill="#FFFF00" d="M117.3,186.676v49.6
		c0,0.7,0.2,1.3,0.4,2c0.3,0.7,0.7,1.3,1.2,1.8s1.2,0.9,1.8,1.2c0.7,0.3,1.4,0.4,2,0.4H175c1.3,0,2.7-0.5,3.8-1.6
		c1.1-1.1,1.5-2.5,1.5-3.8v-49.6c0-1.3-0.4-2.7-1.5-3.8c-1.1-1.1-2.5-1.5-3.8-1.5h-52.3c-1.3,0-2.7,0.4-3.8,1.5
		S117.3,185.376,117.3,186.676"/>
	<path clip-path="url(#SVGID_2_)" fill-rule="evenodd" clip-rule="evenodd" fill="#404040" d="M121.4,188.076v46.9
		c0,0.3,0,0.6,0.2,1c0.1,0.3,0.3,0.6,0.5,0.9c0.3,0.2,0.6,0.4,1,0.6c0.3,0.1,0.6,0.2,0.9,0.2h49.6c0.7,0,1.4-0.3,1.9-0.8
		c0.6-0.6,0.8-1.3,0.8-1.9v-46.9c0-0.7-0.2-1.4-0.8-1.9c-0.5-0.6-1.2-0.8-1.9-0.8H124c-0.6,0-1.3,0.2-1.9,0.8
		C121.6,186.676,121.4,187.376,121.4,188.076"/>
	<polyline clip-path="url(#SVGID_2_)" fill-rule="evenodd" clip-rule="evenodd" fill="#FFFF00" points="151.3,218.676 153,218.376 
		154.1,217.976 155,217.576 155.8,217.276 156.4,216.876 157,216.576 157.8,215.876 158.7,215.076 159.3,214.376 159.8,213.676 
		160.4,212.976 161,211.876 161.5,210.776 161.8,210.076 162.1,209.376 162.4,208.276 162.7,207.176 163,205.376 163,204.376 
		163,202.876 162.7,201.076 162.7,200.776 162.4,199.676 162.1,198.576 161.5,197.176 161,196.076 160.4,194.976 159.8,194.276 
		159.3,193.576 158.7,192.876 157.8,192.176 157,191.476 156.4,191.076 155.8,190.676 155,190.376 154.4,189.976 153,189.676 
		151.3,189.276 135.6,189.276 135.6,234.876 143.3,234.876 143.3,218.676 151.3,218.676 	"/>
	<polyline clip-path="url(#SVGID_2_)" fill-rule="evenodd" clip-rule="evenodd" fill="#404040" points="149.6,210.776 
		143.3,210.776 143.3,196.776 149.6,196.776 149.9,196.776 150.1,196.776 151.6,197.176 152.1,197.576 152.7,197.876 153.3,198.276 
		153.8,198.976 154.4,199.676 155,200.776 155.3,201.876 155.6,203.676 155.6,204.376 155.3,205.776 155,206.876 154.4,207.976 
		154.1,208.276 153.6,208.976 152.7,209.776 152.1,210.076 151.3,210.476 150.1,210.776 149.6,210.776 	"/>
	
		<line clip-path="url(#SVGID_2_)" fill="none" stroke="#FFFF00" stroke-width="0.12" stroke-linejoin="bevel" stroke-miterlimit="1.414" x1="816.8" y1="26.776" x2="12.6" y2="26.776"/>
	
		<line clip-path="url(#SVGID_2_)" fill="none" stroke="#FFFF00" stroke-width="0.12" stroke-linejoin="bevel" stroke-miterlimit="1.414" x1="12.6" y1="562.875" x2="12.6" y2="26.776"/>
	
		<line clip-path="url(#SVGID_2_)" fill="none" stroke="#FFFF00" stroke-width="0.12" stroke-linejoin="bevel" stroke-miterlimit="1.414" x1="816.8" y1="26.776" x2="816.8" y2="562.875"/>
	
		<line clip-path="url(#SVGID_2_)" fill="none" stroke="#FFFF00" stroke-width="0.12" stroke-linejoin="bevel" stroke-miterlimit="1.414" x1="816.8" y1="562.875" x2="12.6" y2="562.875"/>
	<path clip-path="url(#SVGID_2_)" fill-rule="evenodd" clip-rule="evenodd" fill="#FFFF00" d="M12.6,66.976c0-2.3,0.2-4.8,0.7-7.3
		s1.2-5,2.1-7.5c2-5,5-9.6,9-13.6s8.6-7,13.6-9c2.5-0.9,5-1.6,7.5-2.1s5-0.7,7.3-0.7H12.6V66.976"/>
	<path clip-path="url(#SVGID_2_)" fill-rule="evenodd" clip-rule="evenodd" fill="#FFFF00" d="M52.7,562.875
		c-2.3,0-4.8-0.199-7.3-0.699c-2.5-0.4-5-1.101-7.4-2.101c-5-2-9.7-5-13.6-9c-4-4-7-8.6-9-13.6c-0.9-2.5-1.6-5-2.1-7.5
		s-0.7-4.9-0.7-7.3v40.199H52.7"/>
	<path clip-path="url(#SVGID_2_)" fill-rule="evenodd" clip-rule="evenodd" fill="#FFFF00" d="M776.6,26.776
		c2.399,0,4.8,0.2,7.3,0.7s5,1.2,7.5,2.2c5,1.9,9.7,5,13.6,8.9c4,4,7,8.6,9,13.6c0.9,2.5,1.601,5,2.101,7.5s0.7,5,0.7,7.3v-40.2
		H776.6"/>
	<path clip-path="url(#SVGID_2_)" fill-rule="evenodd" clip-rule="evenodd" fill="#FFFF00" d="M816.8,522.676
		c0,2.399-0.2,4.8-0.7,7.3s-1.2,5-2.101,7.5c-2,5-5,9.7-9,13.7c-3.899,3.899-8.6,6.899-13.6,8.899c-2.5,1-5,1.7-7.5,2.2
		c-2.4,0.4-4.9,0.6-7.3,0.6h40.2V522.676"/>
</g>
<g>
	<defs>
		<polyline id="SVGID_3_" points="0,582.519 842.01,582.519 842.01,12.757 0,12.757 0,582.519 		"/>
	</defs>
	<clipPath id="SVGID_4_">
		<use xlink:href="#SVGID_3_"  overflow="visible"/>
	</clipPath>
	<path clip-path="url(#SVGID_4_)" fill-rule="evenodd" clip-rule="evenodd" fill="#404040" d="M408,427.576l-27.2-38.6l25.2-34.101
		h-14.8l-17.8,25.101c-0.9-1.7-6.4-10.101-16.3-25.101h-15.3l24.5,34.801l-26.7,37.899h15.1l19.1-28.8l18.9,28.8H408"/>
	<polyline clip-path="url(#SVGID_4_)" fill-rule="evenodd" clip-rule="evenodd" fill="#404040" points="490.2,397.476 
		490.2,384.976 452.5,384.976 452.5,397.476 490.2,397.476 	"/>
	<path clip-path="url(#SVGID_4_)" fill-rule="evenodd" clip-rule="evenodd" fill="#404040" d="M603,427.576l-27.1-38.6l25.1-34.101
		H586.3L568.5,379.976c-0.899-1.7-6.399-10.101-16.399-25.101h-15.3l24.6,34.801l-26.7,37.899h15l19.2-28.8l18.9,28.8H603"/>
</g>
<g>
	<defs>
		<polyline id="SVGID_5_" points="0,582.519 842.01,582.519 842.01,12.757 0,12.757 0,582.519 		"/>
	</defs>
	<clipPath id="SVGID_6_">
		<use xlink:href="#SVGID_5_"  overflow="visible"/>
	</clipPath>
	<path clip-path="url(#SVGID_6_)" fill-rule="evenodd" clip-rule="evenodd" fill="#404040" d="M372.7,226.576v-50
		c0-8.1-1.9-14.3-5.6-18.3c-3.8-4.1-9.5-6.1-17-6.1c-9.6,0-17.1,4.2-22.4,12.7c-1.6-4.2-4.1-7.4-7.6-9.5c-3.4-2.2-7.8-3.2-13.2-3.2
		c-9.5,0-16.8,3.9-21.7,11.8h-0.3v-10.2h-11.1v72.8h12.3v-37.8c0-10,1.8-16.8,5.2-20.5c3.4-3.7,7.7-5.5,13-5.5
		c4.1,0,7.2,1.2,9.5,3.5c2.2,2.3,3.3,6.7,3.3,13v47.3h12.3v-42.3c0-7.5,1.8-13,5.3-16.4s7.7-5.1,12.6-5.1c4,0,7,0.9,8.9,2.8
		c1.9,1.8,3,4,3.5,6.4c0.4,2.4,0.7,5.3,0.7,8.6v46H372.7"/>
	<polyline clip-path="url(#SVGID_6_)" fill-rule="evenodd" clip-rule="evenodd" fill="#404040" points="403.4,226.576 
		403.4,153.776 391,153.776 391,226.576 403.4,226.576 	"/>
	<polyline clip-path="url(#SVGID_6_)" fill-rule="evenodd" clip-rule="evenodd" fill="#404040" points="403.4,139.976 
		403.4,125.976 391,125.976 391,139.976 403.4,139.976 	"/>
	<path clip-path="url(#SVGID_6_)" fill-rule="evenodd" clip-rule="evenodd" fill="#404040" d="M481.8,226.576v-44.8
		c0-5.3-0.301-9.5-0.9-12.6c-0.5-3.1-1.9-6-4-8.8c-2.1-2.7-5-4.8-8.8-6.2c-3.7-1.3-7.5-2-11.4-2c-5,0-9.399,1-13.3,3
		c-3.8,1.9-7,4.9-9.6,8.9H433.5v-10.3h-11.1v72.8h12.4v-39.8c0-5.9,0.699-10.5,2-13.8c1.399-3.2,3.699-5.7,7-7.5
		c3.3-1.8,6.699-2.7,10.399-2.7c4.7,0,8.5,1.4,11.101,4.2c2.699,2.8,4,7.9,4,15.4v44.2H481.8"/>
	<polyline clip-path="url(#SVGID_6_)" fill-rule="evenodd" clip-rule="evenodd" fill="#404040" points="569.1,125.976 
		559.1,125.976 530,229.976 540,229.976 569.1,125.976 	"/>
	<path clip-path="url(#SVGID_6_)" fill-rule="evenodd" clip-rule="evenodd" fill="#404040" d="M677,226.576v-46.1
		c0-7.1-0.899-12.6-2.6-16.6s-4.8-6.9-9.1-8.8c-4.301-2-8.801-2.9-13.5-2.9c-8.7,0-16.101,3.3-21.9,9.9v-36.1h-12.4v100.6h12.4
		v-39.8c0-1.1,0-2.2,0.1-3.2c0-1.1,0.101-2.1,0.301-3c0.199-1.9,0.6-3.7,1.1-5.2c1-3.2,2.4-5.6,4.4-7.3c4-3.5,8.5-5.3,13.5-5.3
		c5.1,0,8.899,1.5,11.399,4.5c2.601,2.9,3.9,7.4,3.9,13.3v46H677"/>
</g>
</svg>
