<?xml version="1.0" encoding="utf-8"?>
<!-- Generator: Adobe Illustrator 27.0.0, SVG Export Plug-In . SVG Version: 6.00 Build 0)  -->
<svg version="1.1" id="Layer_1" xmlns="http://www.w3.org/2000/svg" xmlns:xlink="http://www.w3.org/1999/xlink" x="0px" y="0px"
	 viewBox="0 0 425.2 425.2" style="enable-background:new 0 0 425.2 425.2;" xml:space="preserve">
<style type="text/css">
	.st0{fill:#FFCD00;}
	.st1{fill:#E4002B;}
	.st2{fill:#101820;}
</style>
<g id="LWPOLYLINE_67_">
	<rect x="14.17" y="80.31" class="st0" width="396.86" height="264.57"/>
</g>
<g id="LWPOLYLINE_69_">
	<path class="st1" d="M384.56,344.88H40.63c-14.62,0-26.46-11.85-26.46-26.46V106.77c0-14.61,11.84-26.46,26.46-26.46h343.94
		c14.61,0,26.46,11.85,26.46,26.46v211.66C411.03,333.04,399.17,344.88,384.56,344.88z"/>
</g>
<g id="LWPOLYLINE_68_">
	<path class="st0" d="M384.56,331.65H40.63c-7.3,0-13.23-5.92-13.23-13.22V106.77c0-7.3,5.93-13.22,13.23-13.22h343.94
		c7.31,0,13.22,5.92,13.22,13.22v211.66C397.78,325.73,391.88,331.65,384.56,331.65z"/>
</g>
<g id="LWPOLYLINE_90_">
	<path class="st2" d="M123.3,301.88V167.95c0-24.66,19.99-44.64,44.65-44.64c11.84,0,23.19,4.7,31.57,13.07l75.09,75.09v-63.14
		l27.29,27.29v84.18H217.7l-27.28-27.28h63.13l-75.08-75.09c-2.79-2.79-6.58-4.36-10.52-4.36c-8.23,0-14.88,6.67-14.88,14.88v133.93
		H123.3z"/>
</g>
</svg>
