<?xml version="1.0" encoding="iso-8859-1"?>
<!-- Generator: Adobe Illustrator 16.0.0, SVG Export Plug-In . SVG Version: 6.00 Build 0)  -->
<!DOCTYPE svg PUBLIC "-//W3C//DTD SVG 1.1//EN" "http://www.w3.org/Graphics/SVG/1.1/DTD/svg11.dtd">
<svg version="1.1" id="Layer_1" xmlns="http://www.w3.org/2000/svg" xmlns:xlink="http://www.w3.org/1999/xlink" x="0px" y="0px"
	 width="425.197px" height="425.196px" viewBox="0 0 425.197 425.196" style="enable-background:new 0 0 425.197 425.196;"
	 xml:space="preserve">
<g id="LWPOLYLINE_72_">
	
		<rect x="14.171" y="80.318" style="fill:#005EB8;stroke:#005EB8;stroke-width:0.5;stroke-miterlimit:10;" width="396.855" height="264.56"/>
</g>
<g id="LWPOLYLINE_71_">
	<path style="fill:#FFFFFF;" d="M384.563,344.878H40.634c-14.618,0-26.463-11.846-26.463-26.453V106.772
		c0-14.608,11.846-26.454,26.463-26.454h343.929c14.608,0,26.463,11.846,26.463,26.454v211.653
		C411.026,333.032,399.171,344.878,384.563,344.878z"/>
</g>
<g id="LWPOLYLINE_70_">
	<path style="fill:#005EB8;" d="M384.563,331.647H40.634c-7.304,0-13.231-5.918-13.231-13.223V106.772
		c0-7.305,5.927-13.223,13.231-13.223h343.929c7.313,0,13.223,5.918,13.223,13.223v211.653
		C397.786,325.729,391.876,331.647,384.563,331.647z"/>
</g>
<g id="LWPOLYLINE_85_">
	<path style="fill:#FFFFFF;" d="M123.307,301.882h29.765v-96.725c0-4.113,3.329-7.441,7.441-7.441h87.902l-44.646,44.646h38.592
		l59.528-59.529l-59.528-59.52h-38.592l44.646,44.638H138.189c-8.216,0-14.882,6.666-14.882,14.882V301.882z"/>
</g>
</svg>
