<?xml version="1.0" encoding="iso-8859-1"?>
<!-- Generator: Adobe Illustrator 16.0.0, SVG Export Plug-In . SVG Version: 6.00 Build 0)  -->
<!DOCTYPE svg PUBLIC "-//W3C//DTD SVG 1.1//EN" "http://www.w3.org/Graphics/SVG/1.1/DTD/svg11.dtd">
<svg version="1.1" id="Layer_1" xmlns="http://www.w3.org/2000/svg" xmlns:xlink="http://www.w3.org/1999/xlink" x="0px" y="0px"
	 width="425.197px" height="425.196px" viewBox="0 0 425.197 425.196" style="enable-background:new 0 0 425.197 425.196;"
	 xml:space="preserve">
<g id="LWPOLYLINE_58_">
	<rect x="14.17" y="80.314" style="fill:#FFCD00;" width="396.855" height="264.567"/>
</g>
<g id="LWPOLYLINE_60_">
	<path style="fill:#E4002B;" d="M384.561,344.882H40.625c-14.618,0-26.455-11.847-26.455-26.455V106.77
		c0-14.609,11.837-26.455,26.455-26.455h343.936c14.609,0,26.465,11.846,26.465,26.455v211.657
		C411.026,333.035,399.17,344.882,384.561,344.882z"/>
</g>
<g id="LWPOLYLINE_59_">
	<path style="fill:#FFCD00;" d="M384.561,331.649H40.625c-7.305,0-13.232-5.918-13.232-13.223V106.77
		c0-7.305,5.928-13.223,13.232-13.223h343.936c7.314,0,13.224,5.918,13.224,13.223v211.657
		C397.785,325.731,391.875,331.649,384.561,331.649z"/>
</g>
<g id="LWPOLYLINE_87_">
	<path style="fill:#101820;" d="M201.397,150.597l53.288,53.283c11.162,11.171,17.437,26.309,17.437,42.095v55.91h-29.77v-55.91
		c0-7.897-3.128-15.467-8.709-21.048l-53.293-53.292v63.142l-27.284-27.285v-84.18h84.179l27.29,27.285H201.397"/>
</g>
</svg>
