<?xml version="1.0" encoding="utf-8"?>
<!-- Generator: Adobe Illustrator 27.0.0, SVG Export Plug-In . SVG Version: 6.00 Build 0)  -->
<svg version="1.1" id="Layer_1" xmlns="http://www.w3.org/2000/svg" xmlns:xlink="http://www.w3.org/1999/xlink" x="0px" y="0px"
	 viewBox="0 0 425.2 425.2" style="enable-background:new 0 0 425.2 425.2;" xml:space="preserve">
<style type="text/css">
	.st0{fill:#005EB8;stroke:#005EB8;stroke-width:0.5;stroke-miterlimit:10;}
	.st1{fill:#FFFFFF;}
	.st2{fill:#005EB8;}
</style>
<g id="LWPOLYLINE_75_">
	<rect x="14.17" y="80.32" class="st0" width="396.85" height="264.56"/>
</g>
<g id="LWPOLYLINE_74_">
	<path class="st1" d="M384.56,344.88H40.64c-14.62,0-26.46-11.84-26.46-26.45V106.77c0-14.61,11.84-26.45,26.46-26.45h343.92
		c14.61,0,26.46,11.85,26.46,26.45v211.65C411.02,333.03,399.17,344.88,384.56,344.88z"/>
</g>
<g id="LWPOLYLINE_73_">
	<path class="st2" d="M384.56,331.65H40.64c-7.3,0-13.23-5.92-13.23-13.22V106.77c0-7.3,5.93-13.22,13.23-13.22h343.92
		c7.31,0,13.22,5.92,13.22,13.22v211.65C397.78,325.73,391.87,331.65,384.56,331.65z"/>
</g>
<g id="LWPOLYLINE_86_">
	<path class="st1" d="M301.89,301.88V167.95c0-11.85-4.71-23.19-13.08-31.57c-17.44-17.43-45.7-17.43-63.14,0l-75.08,75.09v-63.14
		l-27.28,27.28v84.18h84.18l27.28-27.28h-63.13l75.08-75.09c5.82-5.81,15.24-5.81,21.05,0c2.79,2.79,4.36,6.58,4.36,10.52v133.93
		H301.89z"/>
</g>
</svg>
