<?xml version="1.0" encoding="iso-8859-1"?>
<!-- Generator: Adobe Illustrator 16.0.0, SVG Export Plug-In . SVG Version: 6.00 Build 0)  -->
<!DOCTYPE svg PUBLIC "-//W3C//DTD SVG 1.1//EN" "http://www.w3.org/Graphics/SVG/1.1/DTD/svg11.dtd">
<svg version="1.1" id="Layer_1" xmlns="http://www.w3.org/2000/svg" xmlns:xlink="http://www.w3.org/1999/xlink" x="0px" y="0px"
	 width="425.197px" height="425.196px" viewBox="0 0 425.197 425.196" style="enable-background:new 0 0 425.197 425.196;"
	 xml:space="preserve">
<g id="LWPOLYLINE_63_">
	
		<rect x="14.171" y="80.318" style="fill:#005EB8;stroke:#005EB8;stroke-width:0.5;stroke-miterlimit:10;" width="396.855" height="264.56"/>
</g>
<g id="LWPOLYLINE_62_">
	<path style="fill:#FFFFFF;" d="M384.563,344.878H40.634c-14.618,0-26.463-11.844-26.463-26.453V106.772
		c0-14.608,11.846-26.454,26.463-26.454h343.929c14.608,0,26.463,11.846,26.463,26.454v211.653
		C411.026,333.034,399.171,344.878,384.563,344.878z"/>
</g>
<g id="LWPOLYLINE_61_">
	<path style="fill:#005EB8;" d="M384.563,331.647H40.634c-7.304,0-13.231-5.918-13.231-13.223V106.772
		c0-7.305,5.927-13.223,13.231-13.223h343.929c7.313,0,13.223,5.918,13.223,13.223v211.653
		C397.786,325.729,391.875,331.647,384.563,331.647z"/>
</g>
<g id="LWPOLYLINE_88_">
	<path style="fill:#FFFFFF;" d="M223.799,150.598l-53.292,53.282c-11.162,11.172-17.436,26.309-17.436,42.094v55.908h29.765v-55.908
		c0-7.896,3.137-15.465,8.718-21.047l53.287-53.292v63.141l27.284-27.285v-84.177h-84.183l-27.284,27.284H223.799"/>
</g>
</svg>
