<?xml version="1.0" encoding="utf-8"?>
<!-- Generator: Adobe Illustrator 27.0.1, SVG Export Plug-In . SVG Version: 6.00 Build 0)  -->
<svg version="1.1" id="Layer_1" xmlns="http://www.w3.org/2000/svg" xmlns:xlink="http://www.w3.org/1999/xlink" x="0px" y="0px"
	 viewBox="0 0 425.2 425.2" style="enable-background:new 0 0 425.2 425.2;" xml:space="preserve">
<style type="text/css">
	.st0{fill:#005EB8;stroke:#005EB8;stroke-width:0.5;stroke-miterlimit:10;}
	.st1{fill:#FFFFFF;}
	.st2{fill:#005EB8;}
</style>
<g id="LWPOLYLINE_72_">
	<rect x="14.17" y="80.32" class="st0" width="396.85" height="264.56"/>
</g>
<g id="LWPOLYLINE_71_">
	<path class="st1" d="M384.56,344.88H40.63c-14.62,0-26.46-11.85-26.46-26.45V106.77c0-14.61,11.85-26.45,26.46-26.45h343.93
		c14.61,0,26.46,11.85,26.46,26.45v211.65C411.03,333.03,399.17,344.88,384.56,344.88z"/>
</g>
<g id="LWPOLYLINE_70_">
	<path class="st2" d="M384.56,331.65H40.63c-7.3,0-13.23-5.92-13.23-13.22V106.77c0-7.3,5.93-13.22,13.23-13.22h343.93
		c7.31,0,13.22,5.92,13.22,13.22v211.65C397.79,325.73,391.88,331.65,384.56,331.65z"/>
</g>
<g id="LWPOLYLINE_85_">
	<path class="st1" d="M301.89,301.88h-29.76v-96.72c0-4.11-3.33-7.44-7.44-7.44h-87.9l44.65,44.65h-38.59l-59.53-59.53l59.53-59.52
		h38.59l-44.65,44.64h110.23c8.22,0,14.88,6.67,14.88,14.88V301.88z"/>
</g>
</svg>
