<?xml version="1.0" encoding="utf-8"?>
<!-- Generator: Adobe Illustrator 27.0.1, SVG Export Plug-In . SVG Version: 6.00 Build 0)  -->
<svg version="1.1" id="Layer_1" xmlns="http://www.w3.org/2000/svg" xmlns:xlink="http://www.w3.org/1999/xlink" x="0px" y="0px"
	 viewBox="0 0 425.2 425.2" style="enable-background:new 0 0 425.2 425.2;" xml:space="preserve">
<style type="text/css">
	.st0{fill:#FFCD00;stroke:#FFCD00;stroke-width:0.5;stroke-miterlimit:10;}
	.st1{fill:#E4002B;}
	.st2{fill:#FFCD00;}
	.st3{fill:#101820;}
</style>
<g id="LWPOLYLINE_63_">
	<rect x="14.17" y="80.32" class="st0" width="396.85" height="264.56"/>
</g>
<g id="LWPOLYLINE_62_">
	<path class="st1" d="M384.56,344.88H40.63c-14.62,0-26.46-11.84-26.46-26.45V106.77c0-14.61,11.85-26.45,26.46-26.45h343.93
		c14.61,0,26.46,11.85,26.46,26.45v211.65C411.03,333.03,399.17,344.88,384.56,344.88z"/>
</g>
<g id="LWPOLYLINE_61_">
	<path class="st2" d="M384.56,331.65H40.63c-7.3,0-13.23-5.92-13.23-13.22V106.77c0-7.3,5.93-13.22,13.23-13.22h343.93
		c7.31,0,13.22,5.92,13.22,13.22v211.65C397.79,325.73,391.88,331.65,384.56,331.65z"/>
</g>
<g id="LWPOLYLINE_88_">
	<path class="st3" d="M223.8,150.6l-53.29,53.28c-11.16,11.17-17.44,26.31-17.44,42.09v55.91h29.76v-55.91
		c0-7.9,3.14-15.46,8.72-21.05l53.29-53.29v63.14l27.28-27.29v-84.18h-84.18l-27.28,27.28H223.8"/>
</g>
</svg>
