<?xml version="1.0" encoding="iso-8859-1"?>
<!-- Generator: Adobe Illustrator 16.0.0, SVG Export Plug-In . SVG Version: 6.00 Build 0)  -->
<!DOCTYPE svg PUBLIC "-//W3C//DTD SVG 1.1//EN" "http://www.w3.org/Graphics/SVG/1.1/DTD/svg11.dtd">
<svg version="1.1" id="Layer_1" xmlns="http://www.w3.org/2000/svg" xmlns:xlink="http://www.w3.org/1999/xlink" x="0px" y="0px"
	 width="425.197px" height="425.196px" viewBox="0 0 425.197 425.196" style="enable-background:new 0 0 425.197 425.196;"
	 xml:space="preserve">
<g id="LWPOLYLINE_75_">
	
		<rect x="14.173" y="80.319" style="fill:#005EB8;stroke:#005EB8;stroke-width:0.5;stroke-miterlimit:10;" width="396.851" height="264.558"/>
</g>
<g id="LWPOLYLINE_74_">
	<path style="fill:#FFFFFF;" d="M384.56,344.877H40.636c-14.618,0-26.463-11.845-26.463-26.454V106.773
		c0-14.608,11.845-26.454,26.463-26.454H384.56c14.609,0,26.464,11.846,26.464,26.454v211.649
		C411.024,333.032,399.169,344.877,384.56,344.877z"/>
</g>
<g id="LWPOLYLINE_73_">
	<path style="fill:#005EB8;" d="M384.56,331.646H40.636c-7.305,0-13.231-5.918-13.231-13.223V106.773
		c0-7.305,5.927-13.223,13.231-13.223H384.56c7.313,0,13.223,5.918,13.223,13.223v211.649
		C397.783,325.728,391.874,331.646,384.56,331.646z"/>
</g>
<g id="LWPOLYLINE_86_">
	<path style="fill:#FFFFFF;" d="M123.308,301.882v-133.93c0-11.846,4.705-23.189,13.076-31.569c17.436-17.427,45.704-17.427,63.14,0
		l75.081,75.085v-63.14l27.283,27.284v84.177h-84.181l-27.284-27.275h63.135l-75.081-75.085c-5.817-5.809-15.237-5.809-21.046,0
		c-2.791,2.791-4.359,6.575-4.359,10.523v133.93H123.308z"/>
</g>
</svg>
