<?xml version="1.0" encoding="iso-8859-1"?>
<!-- Generator: Adobe Illustrator 16.0.0, SVG Export Plug-In . SVG Version: 6.00 Build 0)  -->
<!DOCTYPE svg PUBLIC "-//W3C//DTD SVG 1.1//EN" "http://www.w3.org/Graphics/SVG/1.1/DTD/svg11.dtd">
<svg version="1.1" id="Layer_1" xmlns="http://www.w3.org/2000/svg" xmlns:xlink="http://www.w3.org/1999/xlink" x="0px" y="0px"
	 width="425.197px" height="425.196px" viewBox="0 0 425.197 425.196" style="enable-background:new 0 0 425.197 425.196;"
	 xml:space="preserve">
<g id="LWPOLYLINE_64_">
	<rect x="14.17" y="80.314" style="fill:#FFCD00;" width="396.855" height="264.567"/>
</g>
<g id="LWPOLYLINE_66_">
	<path style="fill:#E4002B;" d="M384.561,344.882H40.625c-14.618,0-26.455-11.847-26.455-26.455V106.77
		c0-14.609,11.837-26.455,26.455-26.455h343.936c14.609,0,26.465,11.846,26.465,26.455v211.657
		C411.026,333.035,399.17,344.882,384.561,344.882z"/>
</g>
<g id="LWPOLYLINE_65_">
	<path style="fill:#FFCD00;" d="M384.561,331.649H40.625c-7.305,0-13.232-5.918-13.232-13.223V106.77
		c0-7.305,5.928-13.224,13.232-13.224h343.936c7.314,0,13.224,5.919,13.224,13.224v211.657
		C397.785,325.731,391.875,331.649,384.561,331.649z"/>
</g>
<g id="LWPOLYLINE_89_">
	<path style="fill:#101820;" d="M301.886,301.884h-29.765v-96.728c0-4.112-3.338-7.44-7.441-7.44h-87.914l44.647,44.647h-38.583
		l-59.53-59.53l59.53-59.521h38.583l-44.647,44.639h110.238c8.226,0,14.882,6.666,14.882,14.883V301.884z"/>
</g>
</svg>
