<?xml version="1.0" encoding="utf-8"?>
<!-- Generator: Adobe Illustrator 27.0.1, SVG Export Plug-In . SVG Version: 6.00 Build 0)  -->
<svg version="1.1" id="Layer_1" xmlns="http://www.w3.org/2000/svg" xmlns:xlink="http://www.w3.org/1999/xlink" x="0px" y="0px"
	 viewBox="0 0 425.2 425.2" style="enable-background:new 0 0 425.2 425.2;" xml:space="preserve">
<style type="text/css">
	.st0{fill:#FFCD00;stroke:#FFCD00;stroke-width:0.5;stroke-miterlimit:10;}
	.st1{fill:#E4002B;}
	.st2{fill:#FFCD00;}
	.st3{fill:#101820;}
</style>
<g id="LWPOLYLINE_69_">
	<rect x="14.17" y="83.65" class="st0" width="393.12" height="261.23"/>
</g>
<g id="LWPOLYLINE_68_">
	<path class="st1" d="M384.56,344.88H40.62c-14.61,0-26.45-11.84-26.45-26.45V106.77c0-14.61,11.85-26.45,26.45-26.45h343.94
		c14.61,0,26.46,11.85,26.46,26.45v211.66C411.03,333.04,399.17,344.88,384.56,344.88z"/>
</g>
<g id="LWPOLYLINE_67_">
	<path class="st2" d="M384.56,331.65H40.62c-7.3,0-13.22-5.92-13.22-13.22V106.77c0-7.3,5.92-13.23,13.22-13.23h343.94
		c7.31,0,13.22,5.93,13.22,13.23v211.66C397.78,325.73,391.88,331.65,384.56,331.65z"/>
</g>
<g id="LWPOLYLINE_86_">
	<path class="st3" d="M257.25,301.88h29.76V247.7c0-4.11,2.53-7.8,6.36-9.26c30.71-11.75,46.09-46.16,34.34-76.86
		c-11.73-30.7-46.14-46.08-76.85-34.34c-15.81,6.05-28.3,18.54-34.35,34.34c-1.47,3.84-5.15,6.37-9.26,6.37H147l44.65-44.65h-38.58
		l-59.53,59.53l59.53,59.53h38.58L147,197.71h71.46c11.96,0,22.21-8.54,24.39-20.29c2.24-12.13,11.73-21.62,23.86-23.86
		c16.16-2.99,31.7,7.69,34.69,23.86c2.97,16.17-7.7,31.69-23.87,34.68c-11.75,2.17-20.28,12.44-20.28,24.39V301.88z"/>
</g>
</svg>
