<?xml version="1.0" encoding="iso-8859-1"?>
<!-- Generator: Adobe Illustrator 16.0.0, SVG Export Plug-In . SVG Version: 6.00 Build 0)  -->
<!DOCTYPE svg PUBLIC "-//W3C//DTD SVG 1.1//EN" "http://www.w3.org/Graphics/SVG/1.1/DTD/svg11.dtd">
<svg version="1.1" id="Layer_1" xmlns="http://www.w3.org/2000/svg" xmlns:xlink="http://www.w3.org/1999/xlink" x="0px" y="0px"
	 width="425.197px" height="425.196px" viewBox="0 0 425.197 425.196" style="enable-background:new 0 0 425.197 425.196;"
	 xml:space="preserve">
<g id="LWPOLYLINE_69_">
	
		<rect x="14.17" y="80.316" style="fill:#005EB8;stroke:#005EB8;stroke-width:0.5;stroke-miterlimit:10;" width="396.855" height="264.563"/>
</g>
<g id="LWPOLYLINE_68_">
	<path style="fill:#FFFFFF;" d="M384.563,344.88H40.625c-14.608,0-26.454-11.845-26.454-26.453V106.771
		c0-14.608,11.846-26.454,26.454-26.454h343.938c14.607,0,26.463,11.846,26.463,26.454v211.656
		C411.026,333.035,399.17,344.88,384.563,344.88z"/>
</g>
<g id="LWPOLYLINE_67_">
	<path style="fill:#005EB8;" d="M384.563,331.649H40.625c-7.305,0-13.223-5.919-13.223-13.223V106.771
		c0-7.305,5.918-13.231,13.223-13.231h343.938c7.313,0,13.222,5.927,13.222,13.231v211.656
		C397.785,325.73,391.875,331.649,384.563,331.649z"/>
</g>
<g id="LWPOLYLINE_86_">
	<path style="fill:#FFFFFF;" d="M257.246,301.885h29.765v-54.184c0-4.112,2.534-7.797,6.364-9.265
		c30.712-11.745,46.087-46.159,34.342-76.862c-11.728-30.703-46.142-46.077-76.854-34.342c-15.808,6.046-28.3,18.539-34.346,34.342
		c-1.468,3.839-5.152,6.374-9.265,6.374h-60.248l44.646-44.646h-38.582L93.541,182.83l59.527,59.527h38.582l-44.646-44.646h71.464
		c11.955,0,22.214-8.535,24.388-20.289c2.244-12.128,11.728-21.621,23.855-23.855c16.158-2.99,31.697,7.688,34.688,23.855
		c2.973,16.167-7.696,31.688-23.873,34.679c-11.745,2.17-20.28,12.438-20.28,24.393V301.885z"/>
</g>
</svg>
