<?xml version="1.0" encoding="iso-8859-1"?>
<!-- Generator: Adobe Illustrator 16.0.0, SVG Export Plug-In . SVG Version: 6.00 Build 0)  -->
<!DOCTYPE svg PUBLIC "-//W3C//DTD SVG 1.1//EN" "http://www.w3.org/Graphics/SVG/1.1/DTD/svg11.dtd">
<svg version="1.1" id="Layer_1" xmlns="http://www.w3.org/2000/svg" xmlns:xlink="http://www.w3.org/1999/xlink" x="0px" y="0px"
	 width="425.197px" height="425.196px" viewBox="0 0 425.197 425.196" style="enable-background:new 0 0 425.197 425.196;"
	 xml:space="preserve">
<g id="LWPOLYLINE_61_">
	<rect x="14.173" y="80.313" style="fill:#FFCD00;" width="396.851" height="264.569"/>
</g>
<g id="LWPOLYLINE_63_">
	<path style="fill:#E4002B;" d="M40.618,344.883h343.943c14.607,0,26.463-11.846,26.463-26.458V106.772
		c0-14.613-11.855-26.459-26.463-26.459H40.618c-14.608,0-26.444,11.846-26.444,26.459v211.652
		C14.173,333.037,26.009,344.883,40.618,344.883z"/>
</g>
<g id="LWPOLYLINE_62_">
	<path style="fill:#FFCD00;" d="M40.618,331.651h343.943c7.313,0,13.222-5.923,13.222-13.227V106.772
		c0-7.31-5.909-13.231-13.222-13.231H40.618c-7.295,0-13.223,5.922-13.223,13.231v211.652
		C27.395,325.729,33.323,331.651,40.618,331.651z"/>
</g>
<g id="LWPOLYLINE_87_">
	<path style="fill:#101820;" d="M208.258,172.108c-3.885-3.875-10.159-3.875-14.043,0c-0.475,0.479-0.912,1.008-1.277,1.578
		c-6.857,10.468-16.852,18.506-28.542,22.979c-3.829,1.469-6.364,5.152-6.364,9.266v90.996h-29.764V194.719
		c0-11.96,8.535-22.214,20.279-24.389c8.007-1.478,15.047-6.159,19.496-12.958c1.496-2.271,3.21-4.386,5.125-6.31
		c15.502-15.498,40.634-15.498,56.136,0l40.341,40.342v-63.139l27.284,27.283v84.185h-84.185L185.46,212.45h63.139L208.258,172.108z
		"/>
</g>
</svg>
