<?xml version="1.0" encoding="iso-8859-1"?>
<!-- Generator: Adobe Illustrator 16.0.0, SVG Export Plug-In . SVG Version: 6.00 Build 0)  -->
<!DOCTYPE svg PUBLIC "-//W3C//DTD SVG 1.1//EN" "http://www.w3.org/Graphics/SVG/1.1/DTD/svg11.dtd">
<svg version="1.1" id="Layer_1" xmlns="http://www.w3.org/2000/svg" xmlns:xlink="http://www.w3.org/1999/xlink" x="0px" y="0px"
	 width="425.197px" height="425.196px" viewBox="0 0 425.197 425.196" style="enable-background:new 0 0 425.197 425.196;"
	 xml:space="preserve">
<g id="LWPOLYLINE_64_">
	<rect x="14.173" y="30.71" style="fill:#FFCD00;" width="396.851" height="363.776"/>
</g>
<g id="LWPOLYLINE_66_">
	<path style="fill:#E4002B;" d="M40.618,394.486h343.943c14.607,0,26.463-11.841,26.463-26.453V57.168
		c0-14.613-11.855-26.458-26.463-26.458H40.618c-14.608,0-26.444,11.845-26.444,26.458v310.865
		C14.173,382.646,26.009,394.486,40.618,394.486z"/>
</g>
<g id="LWPOLYLINE_65_">
	<path style="fill:#FFCD00;" d="M40.618,381.26h343.943c7.313,0,13.222-5.923,13.222-13.227V57.168
		c0-7.309-5.909-13.227-13.222-13.227H40.618c-7.295,0-13.223,5.918-13.223,13.227v310.865
		C27.395,375.337,33.323,381.26,40.618,381.26z"/>
</g>
<g id="LWPOLYLINE_89_">
	<path style="fill:#101820;" d="M145.721,126.991l53.217,53.23c8.463,8.453,21.739,9.675,31.606,2.896
		c3.429-2.371,7.331-3.985,11.453-4.746c16.158-2.991,31.696,7.691,34.669,23.854c2.991,16.168-7.678,31.692-23.854,34.684
		c-11.763,2.175-20.28,12.429-20.28,24.388v85.238h29.764v-74.026c0-4.112,2.535-7.801,6.365-9.27
		c30.712-11.74,46.086-46.15,34.342-76.862c-11.727-30.703-46.142-46.082-76.854-34.342c-1.021,0.393-2.024,0.813-3.027,1.254
		c-3.757,1.679-8.152,0.867-11.053-2.042l-45.302-45.298h63.139l-27.283-27.283h-84.185v84.18l27.283,27.284V126.991z"/>
</g>
</svg>
