<?xml version="1.0" encoding="iso-8859-1"?>
<!-- Generator: Adobe Illustrator 16.0.0, SVG Export Plug-In . SVG Version: 6.00 Build 0)  -->
<!DOCTYPE svg PUBLIC "-//W3C//DTD SVG 1.1//EN" "http://www.w3.org/Graphics/SVG/1.1/DTD/svg11.dtd">
<svg version="1.1" id="Layer_1" xmlns="http://www.w3.org/2000/svg" xmlns:xlink="http://www.w3.org/1999/xlink" x="0px" y="0px"
	 width="425.197px" height="425.196px" viewBox="0 0 425.197 425.196" style="enable-background:new 0 0 425.197 425.196;"
	 xml:space="preserve">
<g id="LWPOLYLINE_78_">
	
		<rect x="14.173" y="30.71" style="fill:#005EB8;stroke:#005EB8;stroke-width:0.5;stroke-miterlimit:10;" width="396.851" height="363.776"/>
</g>
<g id="LWPOLYLINE_76_">
	<path style="fill:#FFFFFF;" d="M384.561,394.486H40.618c-14.608,0-26.444-11.841-26.444-26.453V57.168
		c0-14.613,11.836-26.458,26.444-26.458h343.943c14.607,0,26.463,11.845,26.463,26.458v310.865
		C411.024,382.646,399.168,394.486,384.561,394.486z"/>
</g>
<g id="LWPOLYLINE_75_">
	<path style="fill:#005EB8;" d="M384.561,381.26H40.618c-7.295,0-13.223-5.923-13.223-13.227V57.168
		c0-7.309,5.928-13.227,13.223-13.227h343.943c7.313,0,13.222,5.918,13.222,13.227v310.865
		C397.783,375.337,391.874,381.26,384.561,381.26z"/>
</g>
<g id="LWPOLYLINE_90_">
	<path style="fill:#FFFFFF;" d="M209.461,182.215c-2.918,2.908-3.721,7.309-2.043,11.061c6.438,14.417,6.895,30.799,1.24,45.544
		c-6.036,15.812-18.529,28.3-34.341,34.342c-3.83,1.468-6.365,5.156-6.365,9.269v59.145h-29.764v-70.355
		c0-11.96,8.535-22.214,20.28-24.389c12.128-2.243,21.63-11.731,23.873-23.859c1.422-7.76-0.273-15.775-4.76-22.277
		c-6.767-9.857-5.563-23.144,2.899-31.597l58.196-58.187H175.54l27.283-27.283h84.186v84.18l-27.284,27.283v-63.139L209.461,182.215
		z"/>
</g>
</svg>
