<?xml version="1.0" encoding="utf-8"?>
<!-- Generator: Adobe Illustrator 27.0.1, SVG Export Plug-In . SVG Version: 6.00 Build 0)  -->
<svg version="1.1" id="Layer_1" xmlns="http://www.w3.org/2000/svg" xmlns:xlink="http://www.w3.org/1999/xlink" x="0px" y="0px"
	 viewBox="0 0 425.2 425.2" style="enable-background:new 0 0 425.2 425.2;" xml:space="preserve">
<style type="text/css">
	.st0{fill:#005EB8;}
	.st1{fill:#FFFFFF;}
</style>
<g id="LWPOLYLINE_61_">
	<rect x="14.17" y="80.31" class="st0" width="396.85" height="264.57"/>
</g>
<g id="LWPOLYLINE_63_">
	<path class="st1" d="M40.62,344.88h343.94c14.61,0,26.46-11.85,26.46-26.46V106.77c0-14.61-11.86-26.46-26.46-26.46H40.62
		c-14.61,0-26.44,11.85-26.44,26.46v211.65C14.17,333.04,26.01,344.88,40.62,344.88z"/>
</g>
<g id="LWPOLYLINE_62_">
	<path class="st0" d="M40.62,331.65h343.94c7.31,0,13.22-5.92,13.22-13.23V106.77c0-7.31-5.91-13.23-13.22-13.23H40.62
		c-7.29,0-13.22,5.92-13.22,13.23v211.65C27.39,325.73,33.32,331.65,40.62,331.65z"/>
</g>
<g id="LWPOLYLINE_87_">
	<path class="st1" d="M208.26,172.11c-3.88-3.88-10.16-3.88-14.04,0c-0.47,0.48-0.91,1.01-1.28,1.58
		c-6.86,10.47-16.85,18.51-28.54,22.98c-3.83,1.47-6.36,5.15-6.36,9.27v91h-29.76V194.72c0-11.96,8.54-22.21,20.28-24.39
		c8.01-1.48,15.05-6.16,19.5-12.96c1.5-2.27,3.21-4.39,5.12-6.31c15.5-15.5,40.63-15.5,56.14,0l40.34,40.34v-63.14l27.28,27.28
		v84.18h-84.18l-27.28-27.28h63.14L208.26,172.11z"/>
</g>
</svg>
