<?xml version="1.0" encoding="utf-8"?>
<!-- Generator: Adobe Illustrator 27.0.1, SVG Export Plug-In . SVG Version: 6.00 Build 0)  -->
<svg version="1.1" id="Layer_1" xmlns="http://www.w3.org/2000/svg" xmlns:xlink="http://www.w3.org/1999/xlink" x="0px" y="0px"
	 viewBox="0 0 425.2 425.2" style="enable-background:new 0 0 425.2 425.2;" xml:space="preserve">
<style type="text/css">
	.st0{fill:#005EB8;}
	.st1{fill:#FFFFFF;}
</style>
<g id="LWPOLYLINE_58_">
	<rect x="14.17" y="80.32" class="st0" width="396.85" height="264.56"/>
</g>
<g id="LWPOLYLINE_60_">
	<path class="st1" d="M40.62,344.88h343.94c14.61,0,26.46-11.85,26.46-26.45V106.77c0-14.61-11.86-26.45-26.46-26.45H40.62
		c-14.61,0-26.44,11.85-26.44,26.45v211.66C14.17,333.03,26.01,344.88,40.62,344.88z"/>
</g>
<g id="LWPOLYLINE_59_">
	<path class="st0" d="M40.62,331.65h343.94c7.31,0,13.22-5.92,13.22-13.23V106.77c0-7.3-5.91-13.23-13.22-13.23H40.62
		c-7.29,0-13.22,5.92-13.22,13.23v211.66C27.39,325.73,33.32,331.65,40.62,331.65z"/>
</g>
<g id="LWPOLYLINE_85_">
	<path class="st1" d="M161.72,258.78l53.53-53.54c4.65-4.65,7.28-10.96,7.28-17.54v-14.79c0-14.35,10.23-26.66,24.35-29.27
		c16.16-2.99,31.7,7.69,34.69,23.85c2.97,16.16-7.7,31.69-23.87,34.68c-11.75,2.18-20.28,12.43-20.28,24.39v85.24h29.76v-74.03
		c0-4.11,2.53-7.8,6.36-9.27c30.71-11.74,46.09-46.15,34.34-76.86c-11.73-30.71-46.14-46.08-76.85-34.34
		c-23.05,8.81-38.26,30.93-38.26,55.6v8.63c0,2.63-1.06,5.15-2.92,7.01l-49.17,49.18V174.6l-27.28,27.28v84.19h84.19l27.28-27.28
		H161.72z"/>
</g>
</svg>
