<?xml version="1.0" encoding="utf-8"?>
<!-- Generator: Adobe Illustrator 27.0.1, SVG Export Plug-In . SVG Version: 6.00 Build 0)  -->
<svg version="1.1" id="Layer_1" xmlns="http://www.w3.org/2000/svg" xmlns:xlink="http://www.w3.org/1999/xlink" x="0px" y="0px"
	 viewBox="0 0 425.2 425.2" style="enable-background:new 0 0 425.2 425.2;" xml:space="preserve">
<style type="text/css">
	.st0{fill:#FFCD00;stroke:#FFCD00;stroke-width:0.5;stroke-miterlimit:10;}
	.st1{fill:#E4002B;}
	.st2{fill:#FFCD00;}
	.st3{fill:#101820;}
</style>
<g id="LWPOLYLINE_78_">
	<rect x="14.17" y="30.71" class="st0" width="396.85" height="363.78"/>
</g>
<g id="LWPOLYLINE_76_">
	<path class="st1" d="M384.56,394.49H40.62c-14.61,0-26.44-11.84-26.44-26.45V57.17c0-14.61,11.84-26.46,26.44-26.46h343.94
		c14.61,0,26.46,11.85,26.46,26.46v310.87C411.02,382.65,399.17,394.49,384.56,394.49z"/>
</g>
<g id="LWPOLYLINE_75_">
	<path class="st2" d="M384.56,381.26H40.62c-7.29,0-13.22-5.92-13.22-13.23V57.17c0-7.31,5.93-13.23,13.22-13.23h343.94
		c7.31,0,13.22,5.92,13.22,13.23v310.87C397.78,375.34,391.87,381.26,384.56,381.26z"/>
</g>
<g id="LWPOLYLINE_90_">
	<path class="st3" d="M209.46,182.21c-2.92,2.91-3.72,7.31-2.04,11.06c6.44,14.42,6.89,30.8,1.24,45.54
		c-6.04,15.81-18.53,28.3-34.34,34.34c-3.83,1.47-6.37,5.16-6.37,9.27v59.14h-29.76v-70.36c0-11.96,8.54-22.21,20.28-24.39
		c12.13-2.24,21.63-11.73,23.87-23.86c1.42-7.76-0.27-15.78-4.76-22.28c-6.77-9.86-5.56-23.14,2.9-31.6l58.2-58.19h-63.14
		l27.28-27.28h84.19v84.18l-27.28,27.28v-63.14L209.46,182.21z"/>
</g>
</svg>
