<?xml version="1.0" encoding="utf-8"?>
<!-- Generator: Adobe Illustrator 27.0.1, SVG Export Plug-In . SVG Version: 6.00 Build 0)  -->
<svg version="1.1" id="Layer_1" xmlns="http://www.w3.org/2000/svg" xmlns:xlink="http://www.w3.org/1999/xlink" x="0px" y="0px"
	 viewBox="0 0 425.2 425.2" style="enable-background:new 0 0 425.2 425.2;" xml:space="preserve">
<style type="text/css">
	.st0{fill:#FFCD00;stroke:#FFCD00;stroke-width:0.5;stroke-miterlimit:10;}
	.st1{fill:#E4002B;}
	.st2{fill:#FFCD00;}
	.st3{fill:#101820;}
</style>
<g id="LWPOLYLINE_73_">
	<rect x="14.17" y="80.31" class="st0" width="396.86" height="264.57"/>
</g>
<g id="LWPOLYLINE_1_">
	<path class="st1" d="M384.56,344.88H40.62c-14.61,0-26.45-11.85-26.45-26.46V106.77c0-14.61,11.85-26.46,26.45-26.46h343.94
		c14.61,0,26.46,11.85,26.46,26.46v211.65C411.03,333.04,399.17,344.88,384.56,344.88z"/>
</g>
<g id="LWPOLYLINE_2_">
	<path class="st2" d="M384.56,331.65H40.62c-7.3,0-13.22-5.92-13.22-13.23V106.77c0-7.31,5.92-13.23,13.22-13.23h343.94
		c7.31,0,13.22,5.92,13.22,13.23v211.65C397.78,325.74,391.88,331.65,384.56,331.65z"/>
</g>
<g id="LWPOLYLINE_88_">
	<path class="st3" d="M143.15,301.89h-29.76V236.5c0-11.96,8.54-22.21,20.29-24.39c12.13-2.24,21.62-11.74,23.86-23.86
		c2.17-11.75,12.43-20.29,24.38-20.29h76.42l-44.64-44.65h38.59l59.53,59.53l-59.53,59.53H213.7l44.64-44.65h-65.2
		c-4.11,0-7.81,2.54-9.27,6.37c-6.04,15.81-18.53,28.3-34.34,34.34c-3.84,1.48-6.37,5.16-6.37,9.27V301.89z"/>
</g>
</svg>
