<?xml version="1.0" encoding="utf-8"?>
<!-- Generator: Adobe Illustrator 27.0.1, SVG Export Plug-In . SVG Version: 6.00 Build 0)  -->
<svg version="1.1" id="Layer_1" xmlns="http://www.w3.org/2000/svg" xmlns:xlink="http://www.w3.org/1999/xlink" x="0px" y="0px"
	 viewBox="0 0 425.2 425.2" style="enable-background:new 0 0 425.2 425.2;" xml:space="preserve">
<style type="text/css">
	.st0{fill:#005EB8;}
	.st1{fill:#FFFFFF;}
</style>
<g id="LWPOLYLINE_64_">
	<rect x="14.17" y="30.71" class="st0" width="396.85" height="363.78"/>
</g>
<g id="LWPOLYLINE_66_">
	<path class="st1" d="M40.62,394.49h343.94c14.61,0,26.46-11.84,26.46-26.45V57.17c0-14.61-11.86-26.46-26.46-26.46H40.62
		c-14.61,0-26.44,11.85-26.44,26.46v310.87C14.17,382.65,26.01,394.49,40.62,394.49z"/>
</g>
<g id="LWPOLYLINE_65_">
	<path class="st0" d="M40.62,381.26h343.94c7.31,0,13.22-5.92,13.22-13.23V57.17c0-7.31-5.91-13.23-13.22-13.23H40.62
		c-7.29,0-13.22,5.92-13.22,13.23v310.87C27.39,375.34,33.32,381.26,40.62,381.26z"/>
</g>
<g id="LWPOLYLINE_89_">
	<path class="st1" d="M145.72,126.99l53.22,53.23c8.46,8.45,21.74,9.67,31.61,2.9c3.43-2.37,7.33-3.99,11.45-4.75
		c16.16-2.99,31.7,7.69,34.67,23.85c2.99,16.17-7.68,31.69-23.85,34.68c-11.76,2.17-20.28,12.43-20.28,24.39v85.24h29.76v-74.03
		c0-4.11,2.54-7.8,6.37-9.27c30.71-11.74,46.09-46.15,34.34-76.86c-11.73-30.7-46.14-46.08-76.85-34.34
		c-1.02,0.39-2.02,0.81-3.03,1.25c-3.76,1.68-8.15,0.87-11.05-2.04l-45.3-45.3h63.14l-27.28-27.28h-84.18v84.18l27.28,27.28V126.99z
		"/>
</g>
</svg>
