<?xml version="1.0" encoding="iso-8859-1"?>
<!-- Generator: Adobe Illustrator 16.0.0, SVG Export Plug-In . SVG Version: 6.00 Build 0)  -->
<!DOCTYPE svg PUBLIC "-//W3C//DTD SVG 1.1//EN" "http://www.w3.org/Graphics/SVG/1.1/DTD/svg11.dtd">
<svg version="1.1" id="Layer_1" xmlns="http://www.w3.org/2000/svg" xmlns:xlink="http://www.w3.org/1999/xlink" x="0px" y="0px"
	 width="425.197px" height="425.196px" viewBox="0 0 425.197 425.196" style="enable-background:new 0 0 425.197 425.196;"
	 xml:space="preserve">
<g id="LWPOLYLINE_43_">
	
		<rect x="14.175" y="113.386" style="fill:#005EB8;stroke:#005EB8;stroke-width:0.5;stroke-miterlimit:10;" width="396.847" height="198.425"/>
</g>
<g id="LWPOLYLINE_45_">
	<path style="fill:#FFFFFF;" d="M384.568,113.386H40.628c-14.608,0-26.453,11.846-26.453,26.454v145.513
		c0,14.613,11.845,26.458,26.453,26.458h343.94c14.609,0,26.454-11.845,26.454-26.458V139.84
		C411.022,125.231,399.177,113.386,384.568,113.386z"/>
</g>
<g id="LWPOLYLINE_44_">
	<path style="fill:#005EB8;" d="M384.568,126.612H40.628c-7.304,0-13.227,5.923-13.227,13.228v145.513
		c0,7.309,5.923,13.227,13.227,13.227h343.94c7.305,0,13.223-5.918,13.223-13.227V139.84
		C397.791,132.535,391.873,126.612,384.568,126.612z"/>
</g>
<g id="LWPOLYLINE_51_">
	<polygon style="fill:#FFFFFF;" points="100.22,227.356 273.383,227.479 228.738,272.126 265.569,272.126 325.096,212.599 
		265.569,153.071 228.738,153.071 273.383,197.716 100.22,197.593 	"/>
</g>
</svg>
