<?xml version="1.0" encoding="UTF-8"?>
<svg xmlns="http://www.w3.org/2000/svg" version="1.1" viewBox="0 0 425.2 425.2">
  <defs>
    <style>
      .cls-1 {
        fill: #e4002b;
      }

      .cls-2 {
        fill: #ffcd00;
      }

      .cls-3 {
        fill: #231f20;
      }

      .cls-4 {
        fill: #101820;
      }
    </style>
  </defs>
  <!-- Generator: Adobe Illustrator 28.7.1, SVG Export Plug-In . SVG Version: 1.2.0 Build 142)  -->
  <g>
    <g id="Layer_1">
      <g id="LWPOLYLINE">
        <rect class="cls-2" x="14.2" y="113.4" width="396.8" height="198.4"/>
      </g>
      <g id="LWPOLYLINE-2" data-name="LWPOLYLINE">
        <path class="cls-1" d="M40.6,113.4h343.9c14.6,0,26.5,11.9,26.5,26.5v145.5c0,14.6-11.9,26.5-26.5,26.5H40.6c-14.6,0-26.5-11.9-26.5-26.5v-145.5c0-14.6,11.9-26.5,26.5-26.5Z"/>
      </g>
      <g id="LWPOLYLINE-3" data-name="LWPOLYLINE">
        <path class="cls-2" d="M40.6,126.6h343.9c7.3,0,13.2,5.9,13.2,13.2v145.5c0,7.3-5.9,13.2-13.2,13.2H40.6c-7.3,0-13.2-5.9-13.2-13.2v-145.5c0-7.3,5.9-13.2,13.2-13.2Z"/>
      </g>
      <g id="LWPOLYLINE-4" data-name="LWPOLYLINE">
        <polygon class="cls-4" points="321.6 228.8 313.7 228.8 313.7 175.6 321.6 175.6 321.6 205 332.3 188.9 340.3 188.9 331.2 202.5 340.3 228.8 332.3 228.8 325.9 210.5 321.6 216.8 321.6 228.8"/>
      </g>
      <g id="LWPOLYLINE-5" data-name="LWPOLYLINE">
        <path class="cls-4" d="M384.4,199c0-2.1-1.7-3.7-3.7-3.7h-.5c-3.5,0-6.4,2.9-6.4,6.4v27.1h-8v-29.8c0-2.1-1.7-3.7-3.7-3.7h-.5c-3.5,0-6.4,2.9-6.4,6.4v27.1h-8v-39.9h8v3.2c2.6-1.6,5.5-2.7,8.6-3.1.4,0,.7,0,1.1,0,3,.2,5.7,1.8,7.3,4.3,3-2.2,6.5-3.7,10.2-4.2.4,0,.7,0,1.1,0,5,.3,8.9,4.5,8.9,9.6v30.3h-8v-29.8Z"/>
      </g>
      <g id="LWPOLYLINE-6" data-name="LWPOLYLINE">
        <polygon class="cls-4" points="196.1 227.5 99 227.5 137 265.5 100.2 265.5 47.2 212.6 100.2 159.7 137 159.7 99 197.7 196.1 197.7 196.1 227.5"/>
      </g>
      <g id="LWPOLYLINE-7" data-name="LWPOLYLINE">
        <path class="cls-4" d="M275.1,198.3c0-2.1-1.7-3.7-3.7-3.7h-.5c-3.5,0-6.4,2.9-6.4,6.4v27.1h-8v-29.8c0-2.1-1.7-3.7-3.7-3.7h-.5c-3.5,0-6.4,2.9-6.4,6.4v27.1h-8v-39.9h8v3.2c2.6-1.6,5.5-2.7,8.6-3.1.4,0,.7,0,1.1,0,3,.2,5.7,1.8,7.3,4.3,3-2.2,6.5-3.7,10.2-4.2.4,0,.7,0,1.1,0,5,.3,8.9,4.5,8.9,9.6v30.3h-8v-29.8Z"/>
      </g>
      <g id="LWPOLYLINE-12-2">
        <polygon class="cls-3" points="302.2 173 286.3 233.4 295.4 233.4 311.3 173 302.2 173"/>
      </g>
    </g>
  </g>
</svg>