<?xml version="1.0" encoding="UTF-8"?>
<svg xmlns="http://www.w3.org/2000/svg" version="1.1" viewBox="0 0 425.2 425.2">
  <defs>
    <style>
      .cls-1 {
        fill: #fff;
      }

      .cls-2 {
        stroke: #005eb8;
        stroke-miterlimit: 10;
        stroke-width: .5px;
      }

      .cls-2, .cls-3 {
        fill: #005eb8;
      }
    </style>
  </defs>
  <!-- Generator: Adobe Illustrator 28.7.1, SVG Export Plug-In . SVG Version: 1.2.0 Build 142)  -->
  <g>
    <g id="Layer_1">
      <g id="LWPOLYLINE">
        <rect class="cls-2" x="14.2" y="113.4" width="396.8" height="198.4"/>
      </g>
      <g id="LWPOLYLINE-2" data-name="LWPOLYLINE">
        <path class="cls-1" d="M40.6,113.4h343.9c14.6,0,26.5,11.9,26.5,26.5v145.5c0,14.6-11.9,26.5-26.5,26.5H40.6c-14.6,0-26.5-11.9-26.5-26.5v-145.5c0-14.6,11.9-26.5,26.5-26.5Z"/>
      </g>
      <g id="LWPOLYLINE-3" data-name="LWPOLYLINE">
        <path class="cls-3" d="M40.6,126.6h343.9c7.3,0,13.2,5.9,13.2,13.2v145.5c0,7.3-5.9,13.2-13.2,13.2H40.6c-7.3,0-13.2-5.9-13.2-13.2v-145.5c0-7.3,5.9-13.2,13.2-13.2Z"/>
      </g>
      <g id="LWPOLYLINE-4" data-name="LWPOLYLINE">
        <polygon class="cls-1" points="323.8 228.3 315.9 228.3 315.9 175.5 323.8 175.5 323.8 204.7 334.4 188.7 342.3 188.7 333.2 202.3 342.3 228.3 334.4 228.3 328 210.1 323.8 216.4 323.8 228.3"/>
      </g>
      <g id="LWPOLYLINE-5" data-name="LWPOLYLINE">
        <path class="cls-1" d="M386,198.7c0-2-1.7-3.7-3.7-3.7h-.5c-3.5,0-6.3,2.8-6.3,6.3v26.9h-7.9v-29.5c0-2-1.7-3.7-3.7-3.7h-.5c-3.5,0-6.3,2.8-6.3,6.3v26.9h-7.9v-39.6h7.9v3.2c2.6-1.6,5.5-2.7,8.5-3.1.4,0,.7,0,1.1,0,3,.2,5.6,1.8,7.3,4.2,3-2.2,6.4-3.7,10.1-4.2.4,0,.7,0,1.1,0,5,.3,8.9,4.5,8.9,9.5v30.1h-7.9v-29.5Z"/>
      </g>
      <g id="LWPOLYLINE-6" data-name="LWPOLYLINE">
        <polygon class="cls-1" points="196.1 227.5 99 227.5 137 265.5 100.2 265.5 47.2 212.6 100.2 159.7 137 159.7 99 197.7 196.1 197.7 196.1 227.5"/>
      </g>
      <g id="LWPOLYLINE-7" data-name="LWPOLYLINE">
        <path class="cls-1" d="M273.2,199c0-2-1.7-3.7-3.7-3.7h-.5c-3.5,0-6.3,2.8-6.3,6.3v26.9h-7.9v-29.5c0-2-1.7-3.7-3.7-3.7h-.5c-3.5,0-6.3,2.8-6.3,6.3v26.9h-7.9v-39.6h7.9v3.2c2.6-1.6,5.5-2.7,8.5-3.1.4,0,.7,0,1.1,0,3,.2,5.6,1.8,7.3,4.2,3-2.2,6.4-3.7,10.1-4.2.4,0,.7,0,1.1,0,5,.3,8.9,4.5,8.9,9.5v30.1h-7.9v-29.5Z"/>
      </g>
      <g id="LWPOLYLINE-12">
        <polygon class="cls-1" points="303.1 171.9 286.6 234.5 296.1 234.5 312.6 171.9 303.1 171.9"/>
      </g>
    </g>
  </g>
</svg>