<?xml version="1.0" encoding="utf-8"?>
<!-- Generator: Adobe Illustrator 27.0.1, SVG Export Plug-In . SVG Version: 6.00 Build 0)  -->
<svg version="1.1" id="Layer_1" xmlns="http://www.w3.org/2000/svg" xmlns:xlink="http://www.w3.org/1999/xlink" x="0px" y="0px"
	 viewBox="0 0 425.2 425.2" style="enable-background:new 0 0 425.2 425.2;" xml:space="preserve">
<style type="text/css">
	.st0{fill:#005EB8;stroke:#005EB8;stroke-width:0.5;stroke-miterlimit:10;}
	.st1{fill:#FFFFFF;}
	.st2{fill:#005EB8;}
</style>
<g id="LWPOLYLINE_45_">
	<rect x="14.17" y="113.39" class="st0" width="396.85" height="198.42"/>
</g>
<g id="LWPOLYLINE_47_">
	<path class="st1" d="M40.63,113.39h343.94c14.61,0,26.46,11.85,26.46,26.46v145.51c0,14.61-11.85,26.46-26.46,26.46H40.63
		c-14.61,0-26.45-11.84-26.45-26.46V139.84C14.17,125.23,26.02,113.39,40.63,113.39z"/>
</g>
<g id="LWPOLYLINE_46_">
	<path class="st2" d="M40.63,126.61h343.94c7.3,0,13.22,5.92,13.22,13.23v145.51c0,7.3-5.92,13.23-13.22,13.23H40.63
		c-7.3,0-13.23-5.93-13.23-13.23V139.84C27.4,132.54,33.32,126.61,40.63,126.61z"/>
</g>
<g id="LWPOLYLINE_60_">
	<polygon class="st1" points="196.06,227.48 98.96,227.48 136.98,265.51 100.16,265.51 47.24,212.6 100.16,159.69 136.98,159.69 
		98.96,197.72 196.06,197.72 	"/>
</g>
</svg>
