<?xml version="1.0" encoding="iso-8859-1"?>
<!-- Generator: Adobe Illustrator 16.0.0, SVG Export Plug-In . SVG Version: 6.00 Build 0)  -->
<!DOCTYPE svg PUBLIC "-//W3C//DTD SVG 1.1//EN" "http://www.w3.org/Graphics/SVG/1.1/DTD/svg11.dtd">
<svg version="1.1" id="Layer_1" xmlns="http://www.w3.org/2000/svg" xmlns:xlink="http://www.w3.org/1999/xlink" x="0px" y="0px"
	 width="425.197px" height="425.196px" viewBox="0 0 425.197 425.196" style="enable-background:new 0 0 425.197 425.196;"
	 xml:space="preserve">
<g id="LWPOLYLINE_45_">
	<rect x="14.174" y="113.386" style="fill:#FFCD00;" width="396.849" height="198.425"/>
</g>
<g id="LWPOLYLINE_47_">
	<path style="fill:#E4002B;" d="M40.627,113.386h343.94c14.609,0,26.455,11.846,26.455,26.458v145.509
		c0,14.613-11.846,26.458-26.455,26.458H40.627c-14.608,0-26.454-11.845-26.454-26.458V139.844
		C14.174,125.231,26.019,113.386,40.627,113.386z"/>
</g>
<g id="LWPOLYLINE_46_">
	<path style="fill:#FFCD00;" d="M40.627,126.612h343.94c7.305,0,13.223,5.923,13.223,13.231v145.509
		c0,7.305-5.918,13.231-13.223,13.231H40.627c-7.304,0-13.227-5.927-13.227-13.231V139.844
		C27.401,132.535,33.323,126.612,40.627,126.612z"/>
</g>
<g id="LWPOLYLINE_57_">
	<path style="fill:#101820;" d="M215.908,227.48c0,10.044,8.143,18.188,18.182,18.188c10.049,0,18.193-8.144,18.193-18.188v-3.972
		c0-5.366-2.371-10.459-6.475-13.915c3.1-3.311,4.824-7.674,4.824-12.21v-1.322c0-9.128-7.406-16.532-16.543-16.532
		c-9.127,0-16.531,7.404-16.531,16.532v1.322h9.92v-1.322c0-3.652,2.965-6.611,6.611-6.611c3.656,0,6.621,2.959,6.621,6.611v1.322
		c0,4.386-3.557,7.938-7.943,7.938h-1.322v9.261h2.645c4.568,0,8.271,3.702,8.271,8.271v4.628c0,4.563-3.703,8.266-8.271,8.266
		c-4.559,0-8.262-3.702-8.262-8.266H215.908z"/>
</g>
<g id="LWPOLYLINE_58_">
	<polygon style="fill:#101820;" points="289.98,245.668 280.058,245.668 280.058,179.529 289.98,179.529 289.98,216.077 
		303.21,196.062 313.132,196.062 301.806,213.05 313.195,245.686 303.21,245.668 295.24,222.898 289.98,230.786 	"/>
</g>
<g id="LWPOLYLINE_59_">
	<path style="fill:#101820;" d="M368.027,208.627c0-2.553-2.07-4.628-4.623-4.628h-0.666c-4.387,0-7.934,3.552-7.934,7.938v33.73
		h-9.92v-37.041c0-2.553-2.08-4.628-4.633-4.628h-0.666c-4.377,0-7.934,3.552-7.934,7.938v33.73h-9.922v-49.606h9.922v3.967
		c3.246-2.011,6.867-3.333,10.643-3.885c0.465-0.063,0.93-0.082,1.395-0.055c3.701,0.246,7.076,2.207,9.127,5.298
		c3.713-2.772,8.053-4.578,12.631-5.243c0.465-0.063,0.93-0.082,1.395-0.055c6.256,0.419,11.107,5.612,11.107,11.882v37.697h-9.922
		V208.627z"/>
</g>
<g id="LWPOLYLINE_60_">
	<polygon style="fill:#101820;" points="196.064,227.48 98.956,227.48 136.983,265.51 100.155,265.51 47.243,212.599 
		100.155,159.687 136.983,159.687 98.956,197.717 196.064,197.717 	"/>
</g>
</svg>
