<?xml version="1.0" encoding="utf-8"?>
<!-- Generator: Adobe Illustrator 27.0.1, SVG Export Plug-In . SVG Version: 6.00 Build 0)  -->
<svg version="1.1" id="Layer_1" xmlns="http://www.w3.org/2000/svg" xmlns:xlink="http://www.w3.org/1999/xlink" x="0px" y="0px"
	 viewBox="0 0 425.2 425.2" style="enable-background:new 0 0 425.2 425.2;" xml:space="preserve">
<style type="text/css">
	.st0{fill:#005EB8;stroke:#005EB8;stroke-width:0.5;stroke-miterlimit:10;}
	.st1{fill:#FFFFFF;}
	.st2{fill:#005EB8;}
</style>
<g id="LWPOLYLINE_3_">
	<rect x="14.17" y="14.17" class="st0" width="396.86" height="396.85"/>
</g>
<g id="LWPOLYLINE_1_">
	<path class="st1" d="M40.63,411.03c-14.61,0-26.46-11.84-26.46-26.46V40.63c0-14.61,11.85-26.46,26.46-26.46h343.94
		c14.61,0,26.46,11.84,26.46,26.46v343.94c0,14.62-11.85,26.46-26.46,26.46H40.63z"/>
</g>
<g id="LWPOLYLINE_73_">
	<path class="st2" d="M384.57,27.4c7.31,0,13.22,5.92,13.22,13.23v343.94c0,7.31-5.91,13.23-13.22,13.23H40.63
		c-7.31,0-13.24-5.92-13.24-13.23V40.63c0-7.31,5.93-13.23,13.24-13.23H384.57z"/>
</g>
<g id="LWPOLYLINE_70_">
	<path class="st1" d="M128.26,361.42H98.5v-65.4c0-11.96,8.53-22.21,20.3-24.39c16.16-2.99,26.85-18.51,23.85-34.68
		c-2.24-12.12-11.73-21.61-23.85-23.85c-11.76-2.17-20.3-12.43-20.3-24.39v-71.46l-44.65,44.64v-38.58l59.53-59.53l59.53,59.53
		v38.58l-44.64-44.64v60.25c0,4.11,2.54,7.8,6.38,9.27c15.81,6.05,28.3,18.53,34.34,34.34c11.74,30.71-3.63,65.12-34.34,76.87
		c-3.85,1.47-6.38,5.15-6.38,9.26V361.42z"/>
</g>
</svg>
