<?xml version="1.0" encoding="iso-8859-1"?>
<!-- Generator: Adobe Illustrator 16.0.0, SVG Export Plug-In . SVG Version: 6.00 Build 0)  -->
<!DOCTYPE svg PUBLIC "-//W3C//DTD SVG 1.1//EN" "http://www.w3.org/Graphics/SVG/1.1/DTD/svg11.dtd">
<svg version="1.1" id="Layer_1" xmlns="http://www.w3.org/2000/svg" xmlns:xlink="http://www.w3.org/1999/xlink" x="0px" y="0px"
	 width="425.197px" height="425.196px" viewBox="0 0 425.197 425.196" style="enable-background:new 0 0 425.197 425.196;"
	 xml:space="preserve">
<g id="LWPOLYLINE_3_">
	<rect x="14.168" y="14.171" style="fill:#FFCD00;" width="396.859" height="396.854"/>
</g>
<g id="LWPOLYLINE_1_">
	<path style="fill:#E4002B;" d="M40.63,411.025c-14.607,0-26.462-11.845-26.462-26.462V40.628c0-14.612,11.854-26.457,26.462-26.457
		h343.936c14.607,0,26.462,11.845,26.462,26.457v343.936c0,14.617-11.854,26.462-26.462,26.462H40.63z"/>
</g>
<g id="LWPOLYLINE_73_">
	<path style="fill:#FFCD00;" d="M384.566,27.397c7.313,0,13.222,5.922,13.222,13.23v343.936c0,7.313-5.909,13.23-13.222,13.23H40.63
		c-7.313,0-13.24-5.918-13.24-13.23V40.628c0-7.309,5.928-13.23,13.24-13.23H384.566z"/>
</g>
<g id="LWPOLYLINE_70_">
	<path style="fill:#101820;" d="M128.26,361.416H98.498v-65.398c0-11.96,8.534-22.213,20.297-24.389
		c16.158-2.99,26.846-18.515,23.854-34.682c-2.243-12.124-11.726-21.611-23.854-23.854c-11.763-2.175-20.297-12.434-20.297-24.393
		v-71.458l-44.646,44.645v-38.58l59.526-59.531l59.526,59.531v38.58l-44.645-44.645v60.247c0,4.112,2.535,7.801,6.383,9.269
		c15.812,6.046,28.304,18.534,34.341,34.341c11.744,30.712-3.629,65.12-34.341,76.865c-3.848,1.468-6.383,5.152-6.383,9.265V361.416
		z"/>
</g>
<g id="LWPOLYLINE_71_">
	<path style="fill:#101820;" d="M204,227.478c0,10.048,8.134,18.191,18.182,18.191c10.049,0,18.201-8.144,18.201-18.191v-3.967
		c0-5.371-2.371-10.464-6.492-13.92c3.1-3.31,4.833-7.673,4.833-12.205v-1.327c0-9.132-7.404-16.536-16.542-16.536
		c-9.118,0-16.522,7.404-16.522,16.536v1.327h9.921v-1.327c0-3.651,2.955-6.61,6.602-6.61c3.666,0,6.621,2.959,6.621,6.61v1.327
		c0,4.382-3.557,7.934-7.934,7.934h-1.331v9.26h2.644c4.578,0,8.28,3.702,8.28,8.271v4.628c0,4.568-3.702,8.271-8.28,8.271
		c-4.559,0-8.261-3.702-8.261-8.271H204z"/>
</g>
<g id="LWPOLYLINE_72_">
	<polygon style="fill:#101820;" points="283.368,245.669 273.447,245.669 273.447,179.522 283.368,179.522 283.368,216.074 
		296.589,196.059 306.51,196.059 295.204,213.047 306.583,245.683 296.589,245.669 288.62,222.895 283.368,230.787 	"/>
</g>
<g id="LWPOLYLINE_74_">
	<path style="fill:#101820;" d="M361.422,208.629c0-2.558-2.079-4.632-4.632-4.632h-0.656c-4.396,0-7.952,3.556-7.952,7.938v33.734
		h-9.921v-37.04c0-2.558-2.061-4.632-4.632-4.632h-0.657c-4.377,0-7.933,3.556-7.933,7.938v33.734h-9.921v-49.61h9.921v3.972
		c3.246-2.016,6.857-3.338,10.65-3.89c0.456-0.068,0.931-0.086,1.386-0.055c3.702,0.251,7.076,2.207,9.137,5.299
		c3.703-2.772,8.043-4.573,12.621-5.244c0.455-0.068,0.93-0.086,1.386-0.055c6.255,0.42,11.124,5.613,11.124,11.882v37.701h-9.921
		V208.629z"/>
</g>
</svg>
