<?xml version="1.0" encoding="utf-8"?>
<!-- Generator: Adobe Illustrator 27.0.1, SVG Export Plug-In . SVG Version: 6.00 Build 0)  -->
<svg version="1.1" id="Layer_1" xmlns="http://www.w3.org/2000/svg" xmlns:xlink="http://www.w3.org/1999/xlink" x="0px" y="0px"
	 viewBox="0 0 425.2 425.2" style="enable-background:new 0 0 425.2 425.2;" xml:space="preserve">
<style type="text/css">
	.st0{fill:#FFCD00;}
	.st1{fill:#E4002B;}
	.st2{fill:#101820;}
</style>
<g id="LWPOLYLINE_45_">
	<rect x="14.17" y="113.39" class="st0" width="396.85" height="198.43"/>
</g>
<g id="LWPOLYLINE_47_">
	<path class="st1" d="M411.02,285.35V139.84c0-14.61-11.85-26.45-26.45-26.45H40.63c-14.61,0-26.45,11.85-26.45,26.45v145.51
		c0,14.61,11.84,26.46,26.45,26.46h343.94C399.18,311.81,411.02,299.97,411.02,285.35z"/>
</g>
<g id="LWPOLYLINE_46_">
	<path class="st0" d="M397.79,285.35V139.84c0-7.3-5.92-13.23-13.22-13.23H40.63c-7.3,0-13.23,5.92-13.23,13.23v145.51
		c0,7.31,5.92,13.23,13.23,13.23h343.94C391.87,298.58,397.79,292.66,397.79,285.35z"/>
</g>
<g id="LWPOLYLINE_63_">
	<polygon class="st2" points="102.47,278.74 102.47,192.42 69.4,225.49 69.4,192.76 115.7,146.45 162,192.76 162,225.49 
		128.93,192.42 128.93,278.74 	"/>
</g>
</svg>
