<?xml version="1.0" encoding="iso-8859-1"?>
<!-- Generator: Adobe Illustrator 16.0.0, SVG Export Plug-In . SVG Version: 6.00 Build 0)  -->
<!DOCTYPE svg PUBLIC "-//W3C//DTD SVG 1.1//EN" "http://www.w3.org/Graphics/SVG/1.1/DTD/svg11.dtd">
<svg version="1.1" id="Layer_1" xmlns="http://www.w3.org/2000/svg" xmlns:xlink="http://www.w3.org/1999/xlink" x="0px" y="0px"
	 width="425.197px" height="425.196px" viewBox="0 0 425.197 425.196" style="enable-background:new 0 0 425.197 425.196;"
	 xml:space="preserve">
<g id="LWPOLYLINE_2_">
	<rect x="14.168" y="14.171" style="fill:#FFCD00;" width="396.859" height="396.854"/>
</g>
<g id="LWPOLYLINE">
	<path style="fill:#E4002B;" d="M384.566,14.171c14.607,0,26.462,11.845,26.462,26.457v343.944
		c0,14.608-11.854,26.453-26.462,26.453H40.63c-14.607,0-26.462-11.845-26.462-26.453V40.628c0-14.612,11.854-26.457,26.462-26.457
		H384.566z"/>
</g>
<g id="LWPOLYLINE_69_">
	<path style="fill:#FFCD00;" d="M384.566,27.401c7.313,0,13.222,5.923,13.222,13.227v343.944c0,7.304-5.909,13.222-13.222,13.222
		H40.63c-7.313,0-13.24-5.918-13.24-13.222V40.628c0-7.304,5.928-13.227,13.24-13.227H384.566z"/>
</g>
<g id="LWPOLYLINE_68_">
	<path style="fill:#101820;" d="M227.47,361.42h-29.763v-65.398c0-11.959,8.535-22.218,20.298-24.392
		c16.176-2.986,26.846-18.516,23.854-34.679c-2.243-12.128-11.727-21.615-23.854-23.858c-11.763-2.175-20.298-12.429-20.298-24.388
		v-71.458l-44.645,44.645v-38.585l59.526-59.526l59.544,59.526v38.585l-44.663-44.645v60.246c0,4.113,2.554,7.802,6.383,9.27
		c15.813,6.041,28.305,18.529,34.341,34.341c11.745,30.707-3.629,65.12-34.341,76.86c-3.829,1.468-6.383,5.156-6.383,9.27V361.42z"
		/>
</g>
</svg>
