<?xml version="1.0" encoding="utf-8"?>
<!-- Generator: Adobe Illustrator 14.0.0, SVG Export Plug-In . SVG Version: 6.00 Build 43363)  -->
<!DOCTYPE svg PUBLIC "-//W3C//DTD SVG 1.1//EN" "http://www.w3.org/Graphics/SVG/1.1/DTD/svg11.dtd">
<svg version="1.1" id="Layer_1" xmlns="http://www.w3.org/2000/svg" xmlns:xlink="http://www.w3.org/1999/xlink" x="0px" y="0px"
	 width="841.89px" height="595.276px" viewBox="0 0 841.89 595.276" enable-background="new 0 0 841.89 595.276"
	 xml:space="preserve">
<g>
	<defs>
		<polyline id="SVGID_1_" points="0,447.708 842.01,447.708 842.01,147.568 0,147.568 0,447.708 		"/>
	</defs>
	<clipPath id="SVGID_2_">
		<use xlink:href="#SVGID_1_"  overflow="visible"/>
	</clipPath>
	
		<line clip-path="url(#SVGID_2_)" fill="none" stroke="#0000FF" stroke-width="0.12" stroke-linejoin="bevel" stroke-miterlimit="1.414" x1="58.8" y1="166.876" x2="777.9" y2="166.876"/>
	
		<path clip-path="url(#SVGID_2_)" fill="none" stroke="#0000FF" stroke-width="0.12" stroke-linejoin="bevel" stroke-miterlimit="1.414" d="
		M777.9,166.876c5.3,0,10.5,1,15.3,3c4.9,2,9.3,4.9,13,8.7c3.7,3.7,6.601,8.1,8.601,12.9c2,4.9,3.1,10.1,3.1,15.3"/>
	
		<line clip-path="url(#SVGID_2_)" fill="none" stroke="#0000FF" stroke-width="0.12" stroke-linejoin="bevel" stroke-miterlimit="1.414" x1="817.9" y1="206.776" x2="817.9" y2="413.176"/>
	
		<path clip-path="url(#SVGID_2_)" fill="none" stroke="#0000FF" stroke-width="0.12" stroke-linejoin="bevel" stroke-miterlimit="1.414" d="
		M817.9,413.176c0,5.3-4.2,10.399-11.7,14.1c-3.7,1.9-8.1,3.4-13,4.4c-4.8,1-10,1.5-15.3,1.5"/>
	
		<line clip-path="url(#SVGID_2_)" fill="none" stroke="#0000FF" stroke-width="0.12" stroke-linejoin="bevel" stroke-miterlimit="1.414" x1="777.9" y1="433.176" x2="58.8" y2="433.176"/>
	
		<path clip-path="url(#SVGID_2_)" fill="none" stroke="#0000FF" stroke-width="0.12" stroke-linejoin="bevel" stroke-miterlimit="1.414" d="
		M58.8,433.176c-5.2,0-10.4-0.5-15.3-1.5c-4.8-1-9.2-2.5-12.9-4.4c-7.5-3.7-11.7-8.8-11.7-14.1"/>
	
		<line clip-path="url(#SVGID_2_)" fill="none" stroke="#0000FF" stroke-width="0.12" stroke-linejoin="bevel" stroke-miterlimit="1.414" x1="18.9" y1="413.176" x2="18.9" y2="206.776"/>
	
		<path clip-path="url(#SVGID_2_)" fill="none" stroke="#0000FF" stroke-width="0.12" stroke-linejoin="bevel" stroke-miterlimit="1.414" d="
		M18.9,206.776c0-5.2,1-10.4,3-15.3c2-4.8,4.9-9.2,8.7-12.9c3.7-3.8,8.1-6.7,12.9-8.7c4.9-2,10.1-3,15.3-3"/>
	
		<path clip-path="url(#SVGID_2_)" fill="none" stroke="#0000FF" stroke-width="0.12" stroke-linejoin="bevel" stroke-miterlimit="1.414" d="
		M58.8,186.776c-5.3,0-10.4,2.1-14.1,5.9c-3.8,3.7-5.9,8.8-5.9,14.1"/>
	
		<line clip-path="url(#SVGID_2_)" fill="none" stroke="#0000FF" stroke-width="0.12" stroke-linejoin="bevel" stroke-miterlimit="1.414" x1="38.8" y1="206.776" x2="38.8" y2="393.176"/>
	
		<path clip-path="url(#SVGID_2_)" fill="none" stroke="#0000FF" stroke-width="0.12" stroke-linejoin="bevel" stroke-miterlimit="1.414" d="
		M38.8,393.176c0,5.3,2.1,10.399,5.9,14.199c3.7,3.7,8.8,5.801,14.1,5.801"/>
	
		<line clip-path="url(#SVGID_2_)" fill="none" stroke="#0000FF" stroke-width="0.12" stroke-linejoin="bevel" stroke-miterlimit="1.414" x1="58.8" y1="413.176" x2="777.9" y2="413.176"/>
	
		<path clip-path="url(#SVGID_2_)" fill="none" stroke="#0000FF" stroke-width="0.12" stroke-linejoin="bevel" stroke-miterlimit="1.414" d="
		M777.9,413.176c5.3,0,10.4-2.101,14.2-5.801c3.7-3.8,5.8-8.899,5.8-14.199"/>
	
		<line clip-path="url(#SVGID_2_)" fill="none" stroke="#0000FF" stroke-width="0.12" stroke-linejoin="bevel" stroke-miterlimit="1.414" x1="797.9" y1="393.176" x2="797.9" y2="206.776"/>
	
		<path clip-path="url(#SVGID_2_)" fill="none" stroke="#0000FF" stroke-width="0.12" stroke-linejoin="bevel" stroke-miterlimit="1.414" d="
		M797.9,206.776c0-5.3-2.1-10.4-5.8-14.1c-3.8-3.8-8.9-5.9-14.2-5.9"/>
	
		<line clip-path="url(#SVGID_2_)" fill="none" stroke="#0000FF" stroke-width="0.12" stroke-linejoin="bevel" stroke-miterlimit="1.414" x1="777.9" y1="186.776" x2="58.8" y2="186.776"/>
	
		<line clip-path="url(#SVGID_2_)" fill="none" stroke="#0000FF" stroke-width="0.12" stroke-linejoin="bevel" stroke-miterlimit="1.414" x1="58.803" y1="186.809" x2="58.803" y2="186.809"/>
	<polyline clip-path="url(#SVGID_2_)" fill-rule="evenodd" clip-rule="evenodd" fill="#404040" points="222,220.076 132.8,220.076 
		125.4,294.476 140.3,379.875 214.6,379.875 229.4,294.476 222,220.076 	"/>
	<path clip-path="url(#SVGID_2_)" fill-rule="evenodd" clip-rule="evenodd" fill="#0000FF" d="M199.7,294.476c0-1.4-0.1-2.7-0.4-4.1
		c-0.2-1.4-0.6-2.8-1.1-4.2c-1.1-2.7-2.8-5.3-5-7.5c-2.2-2.2-4.8-3.9-7.6-5c-1.3-0.5-2.7-0.9-4.1-1.2c-1.4-0.2-2.8-0.4-4.1-0.4
		c-1.3,0-2.7,0.2-4,0.4c-1.4,0.3-2.8,0.7-4.2,1.2c-2.8,1.1-5.4,2.8-7.6,5c-2.2,2.2-3.8,4.8-4.9,7.5c-0.6,1.4-1,2.8-1.2,4.2
		c-0.3,1.4-0.4,2.7-0.4,4.1h-14.8l6-59.5h62.3l6,59.5H199.7"/>
	<path clip-path="url(#SVGID_2_)" fill-rule="evenodd" clip-rule="evenodd" fill="#0000FF" d="M188.6,294.476h-22.3
		c0-1.4,0.2-2.8,0.7-4.2c0.6-1.4,1.4-2.7,2.5-3.8c1.1-1.1,2.4-1.9,3.8-2.5c1.4-0.5,2.8-0.7,4.1-0.7c1.3,0,2.7,0.2,4.1,0.7
		c1.4,0.6,2.7,1.4,3.8,2.5c1.1,1.1,2,2.4,2.5,3.8c0.3,0.7,0.5,1.4,0.6,2.1c0.1,0.4,0.1,0.7,0.1,1c0,0.2,0.1,0.4,0.1,0.6
		c0,0,0,0.1,0,0.2v0.1v0.1V294.476"/>
	
		<line clip-path="url(#SVGID_2_)" fill="none" stroke="#0000FF" stroke-width="0.12" stroke-linejoin="bevel" stroke-miterlimit="1.414" x1="817.9" y1="433.176" x2="817.9" y2="166.876"/>
	
		<line clip-path="url(#SVGID_2_)" fill="none" stroke="#0000FF" stroke-width="0.12" stroke-linejoin="bevel" stroke-miterlimit="1.414" x1="817.878" y1="206.784" x2="817.878" y2="206.784"/>
	
		<line clip-path="url(#SVGID_2_)" fill="none" stroke="#0000FF" stroke-width="0.12" stroke-linejoin="bevel" stroke-miterlimit="1.414" x1="777.927" y1="166.833" x2="777.927" y2="166.833"/>
	
		<line clip-path="url(#SVGID_2_)" fill="none" stroke="#0000FF" stroke-width="0.12" stroke-linejoin="bevel" stroke-miterlimit="1.414" x1="817.9" y1="433.176" x2="18.9" y2="433.176"/>
	
		<line clip-path="url(#SVGID_2_)" fill="none" stroke="#0000FF" stroke-width="0.12" stroke-linejoin="bevel" stroke-miterlimit="1.414" x1="817.9" y1="166.876" x2="18.9" y2="166.876"/>
	
		<line clip-path="url(#SVGID_2_)" fill="none" stroke="#0000FF" stroke-width="0.12" stroke-linejoin="bevel" stroke-miterlimit="1.414" x1="18.9" y1="166.876" x2="18.9" y2="433.176"/>
	<path clip-path="url(#SVGID_2_)" fill-rule="evenodd" clip-rule="evenodd" fill="#0000FF" d="M229.4,294.476l-14.8,85.399h-74.3
		l-14.9-85.399l7.4-74.4H222L229.4,294.476 M58.8,186.776c-2.4,0-4.9,0.5-7.3,1.4c-2.5,1-4.9,2.5-6.8,4.5c-2,2-3.5,4.3-4.5,6.8
		c-1,2.4-1.4,4.9-1.4,7.3v186.4c0,2.399,0.4,4.899,1.4,7.399s2.5,4.8,4.5,6.8c1.9,1.9,4.3,3.4,6.8,4.4c2.4,1,4.9,1.4,7.3,1.4h719.1
		c2.4,0,4.9-0.4,7.4-1.4s4.8-2.5,6.8-4.4c1.899-2,3.399-4.3,4.399-6.8s1.4-5,1.4-7.399v-186.4c0-2.4-0.4-4.9-1.4-7.3
		c-1-2.5-2.5-4.8-4.399-6.8c-2-2-4.3-3.5-6.8-4.5c-2.5-0.9-5-1.4-7.4-1.4H58.8"/>
	<path clip-path="url(#SVGID_2_)" fill-rule="evenodd" clip-rule="evenodd" fill="#0000FF" d="M18.9,206.676c0-2.3,0.2-4.8,0.6-7.2
		c0.5-2.5,1.2-5,2.2-7.5c1.9-4.9,4.9-9.5,8.8-13.5c4-3.9,8.6-6.9,13.6-8.8c2.5-1,4.9-1.7,7.4-2.2c2.5-0.4,4.9-0.6,7.3-0.6H18.9
		V206.676"/>
	<path clip-path="url(#SVGID_2_)" fill-rule="evenodd" clip-rule="evenodd" fill="#0000FF" d="M58.7,433.176
		c-2.4,0-4.8-0.101-7.3-0.301c-2.4-0.3-4.9-0.6-7.4-1.1c-4.9-1-9.6-2.5-13.5-4.5c-3.9-1.9-6.9-4.3-8.9-6.7c-1.9-2.5-2.7-5-2.7-7.399
		v20H58.7"/>
	<path clip-path="url(#SVGID_2_)" fill-rule="evenodd" clip-rule="evenodd" fill="#0000FF" d="M817.9,413.176
		c0,2.399-0.9,4.899-2.8,7.399c-2,2.4-5,4.8-8.9,6.7c-3.899,2-8.5,3.5-13.5,4.5c-2.399,0.5-4.899,0.8-7.399,1.1
		c-2.5,0.2-4.9,0.301-7.301,0.301h39.9v-0.101V413.176"/>
	
		<line clip-path="url(#SVGID_2_)" fill="none" stroke="#0000FF" stroke-width="0.12" stroke-linejoin="bevel" stroke-miterlimit="1.414" x1="817.878" y1="206.784" x2="817.878" y2="206.784"/>
	<path clip-path="url(#SVGID_2_)" fill-rule="evenodd" clip-rule="evenodd" fill="#0000FF" d="M817.9,206.776L817.9,206.776v-39.9
		h-40c2.4,0,4.8,0.2,7.3,0.6c2.5,0.5,5,1.2,7.4,2.2c5,1.9,9.6,4.9,13.6,8.9c3.9,3.9,6.9,8.5,8.9,13.5c0.899,2.5,1.7,5,2.1,7.4
		C817.7,201.976,817.9,204.476,817.9,206.776"/>
	<path clip-path="url(#SVGID_2_)" fill-rule="evenodd" clip-rule="evenodd" fill="#F0F0F0" d="M188.6,294.476h-22.3
		c0-1.4,0.2-2.8,0.7-4.2c0.6-1.4,1.4-2.7,2.5-3.8c1.1-1.1,2.4-1.9,3.8-2.5c1.4-0.5,2.8-0.7,4.1-0.7c1.3,0,2.7,0.2,4.1,0.7
		c1.4,0.6,2.7,1.4,3.8,2.5c1.1,1.1,2,2.4,2.5,3.8S188.6,293.076,188.6,294.476 M199.7,294.476c0-1.4-0.1-2.7-0.4-4.1
		c-0.2-1.4-0.6-2.8-1.1-4.2c-1.1-2.7-2.8-5.3-5-7.5c-2.2-2.2-4.8-3.9-7.6-5c-1.3-0.5-2.7-0.9-4.1-1.2c-1.4-0.2-2.8-0.4-4.1-0.4
		c-1.3,0-2.7,0.2-4,0.4c-1.4,0.3-2.8,0.7-4.2,1.2c-2.8,1.1-5.4,2.8-7.6,5c-2.2,2.2-3.8,4.8-4.9,7.5c-0.6,1.4-1,2.8-1.2,4.2
		c-0.3,1.4-0.4,2.7-0.4,4.1h-14.8l6-59.5h62.3l6,59.5H199.7 M222,220.076h-89.2l-7.4,74.4l14.9,85.399h74.3l14.8-85.399L222,220.076
		"/>
	
		<line clip-path="url(#SVGID_2_)" fill="none" stroke="#0000FF" stroke-width="0.12" stroke-linejoin="bevel" stroke-miterlimit="1.414" x1="222" y1="220.076" x2="132.8" y2="220.076"/>
	
		<line clip-path="url(#SVGID_2_)" fill="none" stroke="#0000FF" stroke-width="0.12" stroke-linejoin="bevel" stroke-miterlimit="1.414" x1="132.8" y1="220.076" x2="125.4" y2="294.476"/>
	
		<line clip-path="url(#SVGID_2_)" fill="none" stroke="#0000FF" stroke-width="0.12" stroke-linejoin="bevel" stroke-miterlimit="1.414" x1="125.4" y1="294.476" x2="140.3" y2="379.875"/>
	
		<line clip-path="url(#SVGID_2_)" fill="none" stroke="#0000FF" stroke-width="0.12" stroke-linejoin="bevel" stroke-miterlimit="1.414" x1="140.3" y1="379.875" x2="214.6" y2="379.875"/>
	
		<line clip-path="url(#SVGID_2_)" fill="none" stroke="#0000FF" stroke-width="0.12" stroke-linejoin="bevel" stroke-miterlimit="1.414" x1="214.6" y1="379.875" x2="229.4" y2="294.476"/>
	
		<line clip-path="url(#SVGID_2_)" fill="none" stroke="#0000FF" stroke-width="0.12" stroke-linejoin="bevel" stroke-miterlimit="1.414" x1="229.4" y1="294.476" x2="222" y2="220.076"/>
	
		<path clip-path="url(#SVGID_2_)" fill="none" stroke="#0000FF" stroke-width="0.12" stroke-linejoin="bevel" stroke-miterlimit="1.414" d="
		M199.7,294.476c0-6-2.3-11.6-6.5-15.8c-4.2-4.2-9.9-6.6-15.8-6.6s-11.6,2.4-15.8,6.6c-4.1,4.2-6.5,9.8-6.5,15.8"/>
	
		<line clip-path="url(#SVGID_2_)" fill="none" stroke="#0000FF" stroke-width="0.12" stroke-linejoin="bevel" stroke-miterlimit="1.414" x1="155.1" y1="294.476" x2="140.3" y2="294.476"/>
	
		<line clip-path="url(#SVGID_2_)" fill="none" stroke="#0000FF" stroke-width="0.12" stroke-linejoin="bevel" stroke-miterlimit="1.414" x1="140.3" y1="294.476" x2="146.3" y2="234.976"/>
	
		<line clip-path="url(#SVGID_2_)" fill="none" stroke="#0000FF" stroke-width="0.12" stroke-linejoin="bevel" stroke-miterlimit="1.414" x1="146.3" y1="234.976" x2="208.6" y2="234.976"/>
	
		<line clip-path="url(#SVGID_2_)" fill="none" stroke="#0000FF" stroke-width="0.12" stroke-linejoin="bevel" stroke-miterlimit="1.414" x1="208.6" y1="234.976" x2="214.6" y2="294.476"/>
	
		<line clip-path="url(#SVGID_2_)" fill="none" stroke="#0000FF" stroke-width="0.12" stroke-linejoin="bevel" stroke-miterlimit="1.414" x1="214.6" y1="294.476" x2="199.7" y2="294.476"/>
	
		<line clip-path="url(#SVGID_2_)" fill="none" stroke="#0000FF" stroke-width="0.12" stroke-linejoin="bevel" stroke-miterlimit="1.414" x1="188.6" y1="294.476" x2="166.3" y2="294.476"/>
	
		<path clip-path="url(#SVGID_2_)" fill="none" stroke="#0000FF" stroke-width="0.12" stroke-linejoin="bevel" stroke-miterlimit="1.414" d="
		M166.3,294.476c0-3,1.1-5.9,3.2-8c2.1-2.1,5-3.2,7.9-3.2c3,0,5.8,1.1,7.9,3.2c2.1,2.1,3.3,5,3.3,8"/>
	<path clip-path="url(#SVGID_2_)" fill-rule="evenodd" clip-rule="evenodd" fill="#F0F0F0" d="M777.9,186.776c2.4,0,4.9,0.5,7.4,1.4
		c2.5,1,4.8,2.5,6.8,4.5c1.899,2,3.399,4.3,4.399,6.8c1,2.4,1.4,4.9,1.4,7.3v186.4c0,2.399-0.4,4.899-1.4,7.399s-2.5,4.8-4.399,6.8
		c-2,1.9-4.3,3.4-6.8,4.4s-5,1.4-7.4,1.4H58.8c-2.4,0-4.9-0.4-7.3-1.4c-2.5-1-4.9-2.5-6.8-4.4c-2-2-3.5-4.3-4.5-6.8
		s-1.4-5-1.4-7.399v-186.4c0-2.4,0.4-4.9,1.4-7.3c1-2.5,2.5-4.8,4.5-6.8c1.9-2,4.3-3.5,6.8-4.5c2.4-0.9,4.9-1.4,7.3-1.4H777.9
		 M18.9,413.176c0,5.3,4.2,10.399,11.6,14.1c3.7,1.9,8.1,3.4,13,4.4c4.8,1,10,1.5,15.2,1.5h0.1h719.1h0.1
		c2.4,0,4.801-0.101,7.301-0.301c2.399-0.3,4.899-0.6,7.399-1.1c4.9-1,9.601-2.5,13.5-4.5c3.9-1.9,6.9-4.3,8.9-6.7
		c1.899-2.5,2.8-5,2.8-7.399v-206.4c0-2.3-0.2-4.8-0.7-7.3c-0.399-2.4-1.2-4.9-2.1-7.4c-2-5-5-9.6-8.9-13.5c-4-4-8.6-7-13.6-8.9
		c-2.4-1-4.9-1.7-7.4-2.2c-2.5-0.4-4.899-0.6-7.3-0.6H58.8c-5.2,0-10.4,1-15.3,3c-4.8,2-9.2,4.9-12.9,8.6c-3.7,3.7-6.7,8.1-8.7,13
		c-2,4.8-3,10-3,15.2v0.1V413.176"/>
	
		<path clip-path="url(#SVGID_2_)" fill="none" stroke="#0000FF" stroke-width="0.12" stroke-linejoin="bevel" stroke-miterlimit="1.414" d="
		M18.9,413.176c0,5.3,4.2,10.399,11.6,14.1c3.7,1.9,8.1,3.4,13,4.4c4.8,1,10,1.5,15.2,1.5"/>
	
		<polyline clip-path="url(#SVGID_2_)" fill="none" stroke="#0000FF" stroke-width="0.12" stroke-linejoin="bevel" stroke-miterlimit="1.414" points="
		58.7,433.176 58.8,433.176 777.9,433.176 778,433.176 	"/>
	
		<path clip-path="url(#SVGID_2_)" fill="none" stroke="#0000FF" stroke-width="0.12" stroke-linejoin="bevel" stroke-miterlimit="1.414" d="
		M778,433.176c5.2,0,10.4-0.5,15.301-1.5c4.8-1,9.199-2.5,12.899-4.4c7.5-3.7,11.7-8.8,11.7-14.1"/>
	
		<line clip-path="url(#SVGID_2_)" fill="none" stroke="#0000FF" stroke-width="0.12" stroke-linejoin="bevel" stroke-miterlimit="1.414" x1="817.9" y1="413.176" x2="817.9" y2="206.776"/>
	
		<path clip-path="url(#SVGID_2_)" fill="none" stroke="#0000FF" stroke-width="0.12" stroke-linejoin="bevel" stroke-miterlimit="1.414" d="
		M817.9,206.776c0-5.2-1.1-10.4-3.1-15.3c-2-4.8-4.9-9.2-8.601-12.9c-3.7-3.8-8.1-6.7-13-8.7c-4.8-2-10-3-15.3-3"/>
	
		<line clip-path="url(#SVGID_2_)" fill="none" stroke="#0000FF" stroke-width="0.12" stroke-linejoin="bevel" stroke-miterlimit="1.414" x1="777.9" y1="166.876" x2="58.8" y2="166.876"/>
	
		<path clip-path="url(#SVGID_2_)" fill="none" stroke="#0000FF" stroke-width="0.12" stroke-linejoin="bevel" stroke-miterlimit="1.414" d="
		M58.8,166.876c-5.2,0-10.4,1-15.3,3c-4.8,2-9.2,4.9-12.9,8.6c-3.7,3.7-6.7,8.1-8.7,13c-2,4.8-3,10-3,15.2"/>
	
		<polyline clip-path="url(#SVGID_2_)" fill="none" stroke="#0000FF" stroke-width="0.12" stroke-linejoin="bevel" stroke-miterlimit="1.414" points="
		18.9,206.676 18.9,206.776 18.9,413.176 	"/>
	
		<path clip-path="url(#SVGID_2_)" fill="none" stroke="#0000FF" stroke-width="0.12" stroke-linejoin="bevel" stroke-miterlimit="1.414" d="
		M777.9,186.776c5.3,0,10.4,2.1,14.2,5.9c3.7,3.7,5.8,8.8,5.8,14.1"/>
	
		<line clip-path="url(#SVGID_2_)" fill="none" stroke="#0000FF" stroke-width="0.12" stroke-linejoin="bevel" stroke-miterlimit="1.414" x1="797.9" y1="206.776" x2="797.9" y2="393.176"/>
	
		<path clip-path="url(#SVGID_2_)" fill="none" stroke="#0000FF" stroke-width="0.12" stroke-linejoin="bevel" stroke-miterlimit="1.414" d="
		M797.9,393.176c0,5.3-2.1,10.399-5.8,14.199c-3.8,3.7-8.9,5.801-14.2,5.801"/>
	
		<line clip-path="url(#SVGID_2_)" fill="none" stroke="#0000FF" stroke-width="0.12" stroke-linejoin="bevel" stroke-miterlimit="1.414" x1="777.9" y1="413.176" x2="58.8" y2="413.176"/>
	
		<path clip-path="url(#SVGID_2_)" fill="none" stroke="#0000FF" stroke-width="0.12" stroke-linejoin="bevel" stroke-miterlimit="1.414" d="
		M58.8,413.176c-5.3,0-10.4-2.101-14.1-5.801c-3.8-3.8-5.9-8.899-5.9-14.199"/>
	
		<line clip-path="url(#SVGID_2_)" fill="none" stroke="#0000FF" stroke-width="0.12" stroke-linejoin="bevel" stroke-miterlimit="1.414" x1="38.8" y1="393.176" x2="38.8" y2="206.776"/>
	
		<path clip-path="url(#SVGID_2_)" fill="none" stroke="#0000FF" stroke-width="0.12" stroke-linejoin="bevel" stroke-miterlimit="1.414" d="
		M38.8,206.776c0-5.3,2.1-10.4,5.9-14.1c3.7-3.8,8.8-5.9,14.1-5.9"/>
	
		<line clip-path="url(#SVGID_2_)" fill="none" stroke="#0000FF" stroke-width="0.12" stroke-linejoin="bevel" stroke-miterlimit="1.414" x1="58.8" y1="186.776" x2="777.9" y2="186.776"/>
</g>
<g>
	<defs>
		<polyline id="SVGID_3_" points="0,447.708 842.01,447.708 842.01,147.568 0,147.568 0,447.708 		"/>
	</defs>
	<clipPath id="SVGID_4_">
		<use xlink:href="#SVGID_3_"  overflow="visible"/>
	</clipPath>
	<path clip-path="url(#SVGID_4_)" fill-rule="evenodd" clip-rule="evenodd" fill="#F0F0F0" d="M499.4,345.076l-27-38.3l25.1-34
		H482.8l-17.7,25c-0.9-1.7-6.3-10-16.2-25h-15.2l24.4,34.6l-26.5,37.7H446.5l19-28.6l18.801,28.6H499.4"/>
	<polyline clip-path="url(#SVGID_4_)" fill-rule="evenodd" clip-rule="evenodd" fill="#F0F0F0" points="581.1,315.076 
		581.1,302.776 543.6,302.776 543.6,315.076 581.1,315.076 	"/>
	<path clip-path="url(#SVGID_4_)" fill-rule="evenodd" clip-rule="evenodd" fill="#F0F0F0" d="M693.3,345.076l-27-38.3l25-34h-14.7
		l-17.7,25c-0.9-1.7-6.3-10-16.2-25h-15.2l24.4,34.6l-26.5,37.7h14.9l19-28.6l18.8,28.6H693.3"/>
</g>
</svg>
