<?xml version="1.0" encoding="utf-8"?>
<!-- Generator: Adobe Illustrator 14.0.0, SVG Export Plug-In . SVG Version: 6.00 Build 43363)  -->
<!DOCTYPE svg PUBLIC "-//W3C//DTD SVG 1.1//EN" "http://www.w3.org/Graphics/SVG/1.1/DTD/svg11.dtd">
<svg version="1.1" id="Layer_1" xmlns="http://www.w3.org/2000/svg" xmlns:xlink="http://www.w3.org/1999/xlink" x="0px" y="0px"
	 width="841.89px" height="595.276px" viewBox="0 0 841.89 595.276" enable-background="new 0 0 841.89 595.276"
	 xml:space="preserve">
<g>
	<defs>
		<polyline id="SVGID_1_" points="17.298,443.002 824.591,443.002 824.591,152.274 17.298,152.274 17.298,443.002 		"/>
	</defs>
	<clipPath id="SVGID_2_">
		<use xlink:href="#SVGID_1_"  overflow="visible"/>
	</clipPath>
	<path clip-path="url(#SVGID_2_)" fill-rule="evenodd" clip-rule="evenodd" fill="#FF0000" d="M64.8,162.776h708.4
		c2.3,0,4.7,0.2,7.2,0.7c2.4,0.4,4.9,1.1,7.3,2.1c4.9,1.9,9.5,4.8,13.3,8.7c3.9,3.9,6.9,8.5,8.801,13.4c1,2.4,1.699,4.9,2.1,7.3
		c0.5,2.4,0.7,4.8,0.7,7.2v203.3c0,2.3-0.9,4.8-2.8,7.2c-1.9,2.5-4.9,4.8-8.801,6.699c-3.8,2-8.399,3.4-13.3,4.4
		c-2.399,0.5-4.899,0.8-7.3,1c-2.5,0.3-4.9,0.4-7.2,0.4H64.8c-2.3,0-4.7-0.101-7.2-0.4c-2.4-0.2-4.9-0.5-7.3-1
		c-4.9-1-9.4-2.4-13.3-4.4c-3.9-1.899-6.8-4.199-8.8-6.699c-1.9-2.4-2.7-4.9-2.7-7.2v-203.3c0-2.4,0.2-4.8,0.6-7.2
		c0.5-2.4,1.2-4.9,2.1-7.3c2-4.9,4.9-9.5,8.8-13.4s8.4-6.8,13.3-8.7c2.4-1,4.9-1.7,7.3-2.1C60.1,162.976,62.5,162.776,64.8,162.776"
		/>
	<path clip-path="url(#SVGID_2_)" fill-rule="evenodd" clip-rule="evenodd" fill="#FFFF00" d="M64.8,182.476c-2.3,0-4.8,0.4-7.2,1.4
		c-2.5,0.9-4.8,2.4-6.7,4.3c-1.9,2-3.4,4.3-4.4,6.7c-1,2.5-1.4,4.9-1.4,7.3v183.6c0,2.4,0.4,4.8,1.4,7.3c1,2.4,2.5,4.7,4.4,6.601
		c1.9,2,4.2,3.399,6.7,4.399c2.4,1,4.9,1.4,7.2,1.4h708.4c2.3,0,4.8-0.4,7.3-1.4c2.4-1,4.7-2.399,6.601-4.399
		c2-1.9,3.399-4.2,4.399-6.601c1-2.5,1.4-4.899,1.4-7.3v-183.6c0-2.4-0.4-4.8-1.4-7.3c-1-2.4-2.399-4.7-4.399-6.7
		c-1.9-1.9-4.2-3.4-6.601-4.3c-2.5-1-5-1.4-7.3-1.4H64.8"/>
	<polyline clip-path="url(#SVGID_2_)" fill-rule="evenodd" clip-rule="evenodd" fill="#404040" points="225.6,215.276 
		137.7,215.276 130.4,288.476 145,372.676 218.3,372.676 232.9,288.476 225.6,215.276 	"/>
	<path clip-path="url(#SVGID_2_)" fill-rule="evenodd" clip-rule="evenodd" fill="#FFFF00" d="M203.6,288.476c0-2.6-0.4-5.4-1.5-8.1
		c-1.1-2.7-2.7-5.3-4.9-7.4c-2.2-2.2-4.7-3.9-7.5-4.9c-2.7-1.1-5.4-1.6-8-1.6c-2.6,0-5.4,0.5-8.1,1.6c-2.8,1-5.3,2.7-7.5,4.9
		c-2.1,2.1-3.8,4.7-4.9,7.4c-1.1,2.7-1.5,5.5-1.5,8.1H145l6-58.6h61.3l6,58.6H203.6"/>
	<path clip-path="url(#SVGID_2_)" fill-rule="evenodd" clip-rule="evenodd" fill="#FFFF00" d="M192.6,288.476h-21.9
		c0-1.3,0.2-2.7,0.7-4.1c0.6-1.3,1.4-2.6,2.5-3.7s2.3-1.9,3.7-2.5c1.4-0.5,2.8-0.7,4.1-0.7c1.3,0,2.6,0.2,4,0.7
		c1.4,0.6,2.7,1.4,3.7,2.5c1.1,1.1,1.9,2.4,2.5,3.7c0.2,0.7,0.4,1.4,0.6,2.1c0,0.3,0.1,0.7,0.1,1c0,0.2,0,0.3,0,0.5
		c0,0.1,0,0.2,0,0.3c0,0,0,0,0,0.1V288.476"/>
	
		<line clip-path="url(#SVGID_2_)" fill="none" stroke="#FFFF00" stroke-width="0.12" stroke-linejoin="bevel" stroke-miterlimit="1.414" x1="25.5" y1="162.776" x2="25.5" y2="425.176"/>
	
		<line clip-path="url(#SVGID_2_)" fill="none" stroke="#FFFF00" stroke-width="0.12" stroke-linejoin="bevel" stroke-miterlimit="1.414" x1="25.5" y1="425.176" x2="812.6" y2="425.176"/>
	
		<line clip-path="url(#SVGID_2_)" fill="none" stroke="#FFFF00" stroke-width="0.12" stroke-linejoin="bevel" stroke-miterlimit="1.414" x1="812.6" y1="425.176" x2="812.6" y2="162.776"/>
	
		<line clip-path="url(#SVGID_2_)" fill="none" stroke="#FFFF00" stroke-width="0.12" stroke-linejoin="bevel" stroke-miterlimit="1.414" x1="812.6" y1="162.776" x2="25.5" y2="162.776"/>
	
		<path clip-path="url(#SVGID_2_)" fill="none" stroke="#FFFF00" stroke-width="0.12" stroke-linejoin="bevel" stroke-miterlimit="1.414" d="
		M25.5,202.176c0-5.2,1-10.3,2.9-15.1c2-4.8,4.9-9.1,8.6-12.8c3.6-3.6,8-6.5,12.7-8.5c4.8-2,9.9-3,15.1-3"/>
	
		<line clip-path="url(#SVGID_2_)" fill="none" stroke="#FFFF00" stroke-width="0.12" stroke-linejoin="bevel" stroke-miterlimit="1.414" x1="64.8" y1="162.776" x2="25.5" y2="162.776"/>
	
		<line clip-path="url(#SVGID_2_)" fill="none" stroke="#FFFF00" stroke-width="0.12" stroke-linejoin="bevel" stroke-miterlimit="1.414" x1="25.5" y1="162.776" x2="25.5" y2="202.176"/>
	<path clip-path="url(#SVGID_2_)" fill-rule="evenodd" clip-rule="evenodd" fill="#FFFF00" d="M25.5,202.076c0-2.3,0.2-4.7,0.6-7.2
		c0.5-2.4,1.2-4.9,2.1-7.3c2-4.9,4.9-9.4,8.8-13.3s8.5-6.8,13.3-8.7c2.5-1,4.9-1.7,7.4-2.1c1.2-0.3,2.4-0.4,3.6-0.5
		c0.6-0.1,1.2-0.1,1.8-0.2c0.2,0,0.5,0,0.8,0c0.2,0,0.3,0,0.5,0c0.1,0,0.1,0,0.2,0s0,0,0.1,0h0.1H25.5V202.076"/>
	<path clip-path="url(#SVGID_2_)" fill-rule="evenodd" clip-rule="evenodd" fill="#FFFF00" d="M64.8,425.176
		c-2.3,0-4.7-0.101-7.1-0.4c-2.5-0.2-4.9-0.5-7.4-1c-4.9-1-9.4-2.4-13.3-4.4c-3.9-1.899-6.8-4.199-8.8-6.6c-1.9-2.5-2.7-4.9-2.7-7.3
		v19.7H64.8"/>
	
		<line clip-path="url(#SVGID_2_)" fill="none" stroke="#FFFF00" stroke-width="0.12" stroke-linejoin="bevel" stroke-miterlimit="1.414" x1="812.569" y1="202.135" x2="812.569" y2="202.135"/>
	<path clip-path="url(#SVGID_2_)" fill-rule="evenodd" clip-rule="evenodd" fill="#FFFF00" d="M812.6,202.176L812.6,202.176v-39.4
		h-39.4c2.3,0,4.7,0.2,7.2,0.7c2.4,0.4,4.9,1.1,7.3,2.1c4.9,1.9,9.5,4.8,13.3,8.7c3.9,3.9,6.9,8.5,8.801,13.4
		c1,2.4,1.699,4.9,2.1,7.3C812.4,197.376,812.6,199.776,812.6,202.176"/>
	<path clip-path="url(#SVGID_2_)" fill-rule="evenodd" clip-rule="evenodd" fill="#FFFF00" d="M812.6,405.476c0,2.3-0.9,4.8-2.8,7.2
		c-1.9,2.5-4.801,4.8-8.7,6.699c-3.9,1.9-8.4,3.4-13.3,4.4c-2.4,0.5-4.9,0.8-7.301,1c-2.5,0.3-4.899,0.4-7.199,0.4h39.3v-0.101
		V405.476"/>
</g>
<g>
	<defs>
		<polyline id="SVGID_3_" points="17.298,443.002 824.591,443.002 824.591,152.274 17.298,152.274 17.298,443.002 		"/>
	</defs>
	<clipPath id="SVGID_4_">
		<use xlink:href="#SVGID_3_"  overflow="visible"/>
	</clipPath>
	<path clip-path="url(#SVGID_4_)" fill-rule="evenodd" clip-rule="evenodd" fill="#404040" d="M421,327.276l-26.6-37.8l24.6-33.4
		h-14.4l-17.5,24.6c-0.9-1.7-6.2-9.9-16-24.6h-14.9l24,34.1l-26.1,37.1h14.7l18.7-28.2l18.6,28.2H421"/>
	<polyline clip-path="url(#SVGID_4_)" fill-rule="evenodd" clip-rule="evenodd" fill="#404040" points="501.4,297.776 
		501.4,285.576 464.5,285.576 464.5,297.776 501.4,297.776 	"/>
	<path clip-path="url(#SVGID_4_)" fill-rule="evenodd" clip-rule="evenodd" fill="#404040" d="M611.9,327.276l-26.6-37.8l24.6-33.4
		h-14.4l-17.399,24.6c-0.9-1.7-6.3-9.9-16-24.6h-15l24,34.1L545,327.276h14.7l18.8-28.2l18.5,28.2H611.9"/>
</g>
</svg>
