<?xml version="1.0" encoding="utf-8"?>
<!-- Generator: Adobe Illustrator 27.0.1, SVG Export Plug-In . SVG Version: 6.00 Build 0)  -->
<svg version="1.1" id="Layer_1" xmlns="http://www.w3.org/2000/svg" xmlns:xlink="http://www.w3.org/1999/xlink" x="0px" y="0px"
	 viewBox="0 0 425.2 425.2" style="enable-background:new 0 0 425.2 425.2;" xml:space="preserve">
<style type="text/css">
	.st0{fill:#005EB8;stroke:#005EB8;stroke-miterlimit:10;}
	.st1{fill:#FFFFFF;}
	.st2{fill:#005EB8;}
	.st3{fill:#FFFEF2;}
	.st4{font-family:'MyriadPro-Semibold';}
	.st5{font-size:21px;}
	.st6{font-size:24px;}
	.st7{font-size:72px;}
</style>
<g id="LWPOLYLINE_3_">
	<rect x="14.17" y="129.92" class="st0" width="396.85" height="165.36"/>
</g>
<g id="LWPOLYLINE_1_">
	<path class="st1" d="M40.63,129.92h343.94c14.61,0,26.46,11.85,26.46,26.46v112.44c0,14.61-11.85,26.46-26.46,26.46H40.63
		c-14.61,0-26.45-11.85-26.45-26.46V156.38C14.17,141.77,26.02,129.92,40.63,129.92z"/>
</g>
<g id="LWPOLYLINE_2_">
	<path class="st2" d="M40.63,143.15h343.94c7.3,0,13.23,5.93,13.23,13.23v112.44c0,7.31-5.92,13.23-13.23,13.23H40.63
		c-7.3,0-13.23-5.92-13.23-13.23V156.38C27.4,149.08,33.32,143.15,40.63,143.15z"/>
</g>
<text transform="matrix(1 0 0 1 164.3186 170.3752)"><tspan x="0" y="0" class="st3 st4 st5">Vyöhyke</tspan><tspan x="16.59" y="28.8" class="st3 st4 st6">Zon </tspan></text>
<text transform="matrix(1 0 0 1 182.1897 263.7083)" class="st3 st4 st7">3</text>
</svg>
