<?xml version="1.0" encoding="utf-8"?>
<!-- Generator: Adobe Illustrator 14.0.0, SVG Export Plug-In . SVG Version: 6.00 Build 43363)  -->
<!DOCTYPE svg PUBLIC "-//W3C//DTD SVG 1.1//EN" "http://www.w3.org/Graphics/SVG/1.1/DTD/svg11.dtd">
<svg version="1.1" id="Layer_1" xmlns="http://www.w3.org/2000/svg" xmlns:xlink="http://www.w3.org/1999/xlink" x="0px" y="0px"
	 width="841.89px" height="595.276px" viewBox="0 0 841.89 595.276" enable-background="new 0 0 841.89 595.276"
	 xml:space="preserve">
<g>
	<defs>
		<polyline id="SVGID_1_" points="0,446.957 842.01,446.957 842.01,148.319 0,148.319 0,446.957 		"/>
	</defs>
	<clipPath id="SVGID_2_">
		<use xlink:href="#SVGID_1_"  overflow="visible"/>
	</clipPath>
	<path clip-path="url(#SVGID_2_)" fill-rule="evenodd" clip-rule="evenodd" fill="#FF0000" d="M791.9,161.276H50.7
		c-2.4,0-4.9,0.2-7.5,0.7c-2.5,0.5-5.1,1.2-7.7,2.2c-5.1,2.1-9.9,5.1-13.9,9.2c-4.1,4.1-7.2,8.8-9.2,14c-1,2.5-1.7,5.1-2.2,7.6
		c-0.5,2.6-0.7,5.1-0.7,7.5v192.2c0,2.399,0.2,4.899,0.7,7.5c0.5,2.5,1.2,5.1,2.2,7.6c2,5.2,5.1,9.9,9.2,14c4,4.1,8.8,7.1,13.9,9.2
		c2.6,1,5.2,1.7,7.7,2.2c2.6,0.399,5.1,0.699,7.5,0.699h741.2c2.4,0,4.9-0.3,7.5-0.699c2.5-0.5,5.1-1.2,7.7-2.2
		c5.1-2.101,9.899-5.101,13.899-9.2c4.101-4.1,7.2-8.8,9.2-14c1-2.5,1.7-5.1,2.2-7.6c0.5-2.601,0.7-5.101,0.7-7.5v-192.2
		c0-2.4-0.2-4.9-0.7-7.5c-0.5-2.5-1.2-5.1-2.2-7.6c-2-5.2-5.1-9.9-9.2-14c-4-4.1-8.8-7.1-13.899-9.2c-2.601-1-5.2-1.7-7.7-2.2
		C796.8,161.477,794.3,161.276,791.9,161.276"/>
	<path clip-path="url(#SVGID_2_)" fill-rule="evenodd" clip-rule="evenodd" fill="#FFFF00" d="M791.9,181.876H50.7
		c-2.4,0-5,0.5-7.6,1.5c-2.5,1-4.9,2.5-7,4.6c-2,2-3.5,4.4-4.5,6.9c-1.1,2.6-1.5,5.2-1.5,7.6v192.2c0,2.399,0.4,5,1.5,7.6
		c1,2.5,2.5,4.9,4.5,6.9c2.1,2.1,4.5,3.6,7,4.6c2.6,1,5.2,1.5,7.6,1.5h741.2c2.4,0,5-0.5,7.6-1.5c2.5-1,4.9-2.5,7-4.6
		c2-2,3.5-4.4,4.5-6.9c1.101-2.6,1.5-5.2,1.5-7.6v-192.2c0-2.4-0.399-5-1.5-7.6c-1-2.5-2.5-4.9-4.5-6.9c-2.1-2.1-4.5-3.6-7-4.6
		C796.9,182.376,794.3,181.876,791.9,181.876"/>
	<path clip-path="url(#SVGID_2_)" fill-rule="evenodd" clip-rule="evenodd" fill="#404040" d="M434.8,374.477H418v-107.3
		c-4,3.9-9.4,7.7-15.9,11.6c-3.3,1.9-6.5,3.6-9.4,5.1c-1.5,0.7-2.9,1.4-4.3,2s-2.8,1.1-4.1,1.6v-16.3c9.5-4.4,17.7-9.8,24.7-16.1
		c7.1-6.3,12.1-12.4,15-18.3H434.8V374.477"/>
	
		<line clip-path="url(#SVGID_2_)" fill="none" stroke="#FFFF00" stroke-width="0.12" stroke-linejoin="bevel" stroke-miterlimit="1.414" x1="833.1" y1="161.276" x2="9.5" y2="161.276"/>
	
		<line clip-path="url(#SVGID_2_)" fill="none" stroke="#FFFF00" stroke-width="0.12" stroke-linejoin="bevel" stroke-miterlimit="1.414" x1="833.1" y1="435.876" x2="9.5" y2="435.876"/>
	
		<line clip-path="url(#SVGID_2_)" fill="none" stroke="#FFFF00" stroke-width="0.12" stroke-linejoin="bevel" stroke-miterlimit="1.414" x1="9.5" y1="161.276" x2="9.5" y2="435.876"/>
	
		<line clip-path="url(#SVGID_2_)" fill="none" stroke="#FFFF00" stroke-width="0.12" stroke-linejoin="bevel" stroke-miterlimit="1.414" x1="833.1" y1="161.276" x2="833.1" y2="435.876"/>
	<path clip-path="url(#SVGID_2_)" fill-rule="evenodd" clip-rule="evenodd" fill="#FFFF00" d="M9.5,202.477c0-2.4,0.2-4.9,0.7-7.5
		c0.5-2.5,1.2-5.1,2.2-7.6c2-5.1,5.1-9.9,9.2-14c4-4,8.8-7.1,13.9-9.2c2.5-1,5.1-1.7,7.6-2.2c2.6-0.4,5.1-0.7,7.5-0.7H9.5v0.1
		V202.477"/>
	<path clip-path="url(#SVGID_2_)" fill-rule="evenodd" clip-rule="evenodd" fill="#FFFF00" d="M50.7,435.876
		c-2.4,0-4.9-0.3-7.5-0.699c-2.5-0.5-5.1-1.2-7.6-2.2c-5.2-2.101-9.9-5.101-14-9.2c-4-4-7.1-8.8-9.2-13.9c-1-2.5-1.7-5.1-2.2-7.699
		c-0.5-2.5-0.7-5-0.7-7.5v41.199h0.1H50.7"/>
	<path clip-path="url(#SVGID_2_)" fill-rule="evenodd" clip-rule="evenodd" fill="#FFFF00" d="M791.9,161.276c2.4,0,4.9,0.2,7.5,0.7
		c2.5,0.5,5.1,1.2,7.6,2.2c5.2,2,9.9,5.1,14,9.2c4.101,4,7.101,8.8,9.2,13.9c1,2.5,1.7,5.1,2.2,7.7c0.5,2.5,0.7,5,0.7,7.4v-41.1H833
		H791.9"/>
	<path clip-path="url(#SVGID_2_)" fill-rule="evenodd" clip-rule="evenodd" fill="#FFFF00" d="M833.1,394.677
		c0,2.399-0.2,4.899-0.7,7.5c-0.5,2.5-1.2,5.1-2.2,7.6c-2,5.1-5.1,9.9-9.2,14c-4,4-8.8,7.1-13.899,9.1
		c-2.5,1-5.101,1.801-7.601,2.301c-2.6,0.399-5.1,0.6-7.5,0.699H833.1v-0.1V394.677"/>
</g>
</svg>
