<?xml version="1.0" encoding="utf-8"?>
<!-- Generator: Adobe Illustrator 14.0.0, SVG Export Plug-In . SVG Version: 6.00 Build 43363)  -->
<!DOCTYPE svg PUBLIC "-//W3C//DTD SVG 1.1//EN" "http://www.w3.org/Graphics/SVG/1.1/DTD/svg11.dtd">
<svg version="1.1" id="Layer_1" xmlns="http://www.w3.org/2000/svg" xmlns:xlink="http://www.w3.org/1999/xlink" x="0px" y="0px"
	 width="841.89px" height="595.276px" viewBox="0 0 841.89 595.276" enable-background="new 0 0 841.89 595.276"
	 xml:space="preserve">
<g>
	<defs>
		<polyline id="SVGID_1_" points="0.892,444.574 840.998,444.574 840.998,150.703 0.892,150.703 0.892,444.574 		"/>
	</defs>
	<clipPath id="SVGID_2_">
		<use xlink:href="#SVGID_1_"  overflow="visible"/>
	</clipPath>
	<path clip-path="url(#SVGID_2_)" fill-rule="evenodd" clip-rule="evenodd" fill="#FF0000" d="M792.6,162.977H53.2
		c-2.4,0-4.9,0.2-7.5,0.7c-2.5,0.4-5.1,1.2-7.6,2.2c-5.1,2-9.9,5.1-14,9.1c-4,4.1-7.1,8.8-9.1,13.9c-1,2.6-1.7,5.1-2.2,7.7
		c-0.5,2.5-0.7,5-0.7,7.5v191.7c0,2.4,0.2,4.9,0.7,7.4c0.5,2.6,1.2,5.1,2.2,7.699c2,5.101,5.1,9.801,9.1,13.9
		c4.1,4.1,8.9,7.1,14,9.1c2.5,1.101,5.1,1.801,7.6,2.2c2.6,0.5,5.1,0.7,7.5,0.7h739.4c2.399,0,4.899-0.2,7.5-0.7
		c2.5-0.399,5.1-1.1,7.6-2.2c5.101-2,9.9-5,13.9-9.1c4.1-4.1,7.2-8.8,9.2-13.9c1-2.6,1.699-5.1,2.199-7.699c0.5-2.5,0.7-5,0.7-7.4
		v-191.7c0-2.5-0.2-5-0.7-7.5c-0.5-2.6-1.199-5.1-2.199-7.7c-2-5.1-5.101-9.8-9.2-13.9c-4-4-8.8-7.1-13.9-9.1
		c-2.5-1-5.1-1.8-7.6-2.2C797.5,163.176,795,162.977,792.6,162.977"/>
	<path clip-path="url(#SVGID_2_)" fill-rule="evenodd" clip-rule="evenodd" fill="#FFFF00" d="M792.6,183.477H53.2
		c-2.4,0-5,0.5-7.6,1.5c-2.5,1-4.9,2.5-6.9,4.5c-2.1,2.1-3.6,4.4-4.6,7c-1,2.5-1.4,5.1-1.4,7.6v191.7c0,2.4,0.4,5,1.4,7.5
		c1,2.6,2.5,5,4.6,7c2,2,4.4,3.5,6.9,4.6c2.6,1,5.2,1.4,7.6,1.4h739.4c2.399,0,5-0.4,7.5-1.4c2.6-1.1,5-2.6,7-4.6s3.6-4.4,4.6-7
		c1-2.5,1.4-5.1,1.4-7.5v-191.7c0-2.5-0.4-5.1-1.4-7.6c-1-2.6-2.6-4.9-4.6-7c-2-2-4.4-3.5-7-4.5
		C797.6,183.977,795,183.477,792.6,183.477"/>
	<path clip-path="url(#SVGID_2_)" fill-rule="evenodd" clip-rule="evenodd" fill="#404040" d="M465.3,347.177v16.199h-90.4
		c-0.1-4,0.5-7.899,1.9-11.699c2.4-6.101,6-12.2,11.1-18.2s12.4-12.9,22-20.7c14.8-12.2,24.9-21.8,30.1-29
		c5.2-7.1,7.801-13.8,7.801-20.2c0-6.6-2.4-12.3-7.101-16.8c-4.8-4.6-11-6.9-18.6-6.9c-8.1,0-14.6,2.4-19.4,7.3
		c-2.4,2.4-4.3,5.3-5.5,8.7c-1.2,3.3-1.8,7.2-1.9,11.4l-17.3-1.7c1.2-12.9,5.6-22.7,13.4-29.4c7.7-6.8,18-10.2,31-10.2
		c13.2,0,23.6,3.7,31.2,11c7.7,7.2,11.5,16.3,11.5,27c0,5.5-1.101,10.9-3.4,16.2c-2.2,5.2-5.899,10.8-11.1,16.6
		c-5.2,5.9-13.8,13.9-25.9,24.1c-10,8.5-16.5,14.2-19.4,17.2c-1.4,1.5-2.7,3.101-3.9,4.601c-0.6,0.699-1.1,1.5-1.7,2.3
		c-0.5,0.7-1,1.5-1.5,2.2H465.3"/>
	
		<line clip-path="url(#SVGID_2_)" fill="none" stroke="#FFFF00" stroke-width="0.12" stroke-linejoin="bevel" stroke-miterlimit="1.414" x1="833.7" y1="162.977" x2="12.1" y2="162.977"/>
	
		<line clip-path="url(#SVGID_2_)" fill="none" stroke="#FFFF00" stroke-width="0.12" stroke-linejoin="bevel" stroke-miterlimit="1.414" x1="12.1" y1="162.977" x2="12.1" y2="436.776"/>
	
		<line clip-path="url(#SVGID_2_)" fill="none" stroke="#FFFF00" stroke-width="0.12" stroke-linejoin="bevel" stroke-miterlimit="1.414" x1="833.7" y1="436.776" x2="12.1" y2="436.776"/>
	
		<line clip-path="url(#SVGID_2_)" fill="none" stroke="#FFFF00" stroke-width="0.12" stroke-linejoin="bevel" stroke-miterlimit="1.414" x1="833.7" y1="162.977" x2="833.7" y2="436.776"/>
	<path clip-path="url(#SVGID_2_)" fill-rule="evenodd" clip-rule="evenodd" fill="#FFFF00" d="M12.1,204.076c0-2.5,0.2-5,0.7-7.5
		c0.5-2.6,1.2-5.1,2.2-7.6c2-5.1,5.1-9.9,9.1-14c4.1-4,8.8-7.1,13.9-9.1c2.5-1,5.1-1.7,7.7-2.2c2.5-0.5,5-0.7,7.4-0.7h-41v0.1
		V204.076"/>
	<path clip-path="url(#SVGID_2_)" fill-rule="evenodd" clip-rule="evenodd" fill="#FFFF00" d="M53.2,436.776c-2.4,0-4.9-0.2-7.5-0.7
		c-2.5-0.399-5.1-1.1-7.6-2.1c-5.1-2.101-9.9-5.101-13.9-9.2c-4.1-4-7.2-8.8-9.2-13.9c-1-2.5-1.7-5.1-2.2-7.6
		c-0.5-2.6-0.7-5.1-0.7-7.5v41h0.1H53.2"/>
	<path clip-path="url(#SVGID_2_)" fill-rule="evenodd" clip-rule="evenodd" fill="#FFFF00" d="M792.6,162.977
		c2.399,0,4.899,0.2,7.5,0.7c2.5,0.4,5.1,1.2,7.6,2.2c5.101,2,9.9,5,13.9,9.1c4.1,4,7.1,8.8,9.2,13.9c1,2.5,1.699,5.1,2.199,7.6
		c0.4,2.6,0.7,5.1,0.7,7.5v-41h-0.1H792.6"/>
	<path clip-path="url(#SVGID_2_)" fill-rule="evenodd" clip-rule="evenodd" fill="#FFFF00" d="M833.7,395.776c0,2.4-0.2,4.9-0.7,7.4
		c-0.5,2.6-1.199,5.1-2.199,7.699c-2,5.101-5.101,9.801-9.101,13.9c-4.1,4-8.8,7.1-13.899,9.1c-2.601,1-5.101,1.801-7.7,2.2
		c-2.5,0.5-5,0.7-7.4,0.7h41V395.776"/>
	<path clip-path="url(#SVGID_2_)" fill-rule="evenodd" clip-rule="evenodd" fill="#FF0000" d="M792.6,162.977H53.2
		c-2.4,0-4.9,0.2-7.5,0.7c-2.5,0.4-5.1,1.2-7.6,2.2c-5.1,2-9.9,5.1-14,9.1c-4,4.1-7.1,8.8-9.1,13.9c-1,2.6-1.7,5.1-2.2,7.7
		c-0.5,2.5-0.7,5-0.7,7.5v191.7c0,2.4,0.2,4.9,0.7,7.4c0.5,2.6,1.2,5.1,2.2,7.699c2,5.101,5.1,9.801,9.1,13.9
		c4.1,4.1,8.9,7.1,14,9.1c2.5,1.101,5.1,1.801,7.6,2.2c2.6,0.5,5.1,0.7,7.5,0.7h739.4c2.399,0,4.899-0.2,7.5-0.7
		c2.5-0.399,5.1-1.1,7.6-2.2c5.101-2,9.9-5,13.9-9.1c4.1-4.1,7.2-8.8,9.2-13.9c1-2.6,1.699-5.1,2.199-7.699c0.5-2.5,0.7-5,0.7-7.4
		v-191.7c0-2.5-0.2-5-0.7-7.5c-0.5-2.6-1.199-5.1-2.199-7.7c-2-5.1-5.101-9.8-9.2-13.9c-4-4-8.8-7.1-13.9-9.1
		c-2.5-1-5.1-1.8-7.6-2.2C797.5,163.176,795,162.977,792.6,162.977"/>
	<path clip-path="url(#SVGID_2_)" fill-rule="evenodd" clip-rule="evenodd" fill="#FFFF00" d="M792.6,183.477H53.2
		c-2.4,0-5,0.5-7.6,1.5c-2.5,1-4.9,2.5-6.9,4.5c-2.1,2.1-3.6,4.4-4.6,7c-1,2.5-1.4,5.1-1.4,7.6v191.7c0,2.4,0.4,5,1.4,7.5
		c1,2.6,2.5,5,4.6,7c2,2,4.4,3.5,6.9,4.6c2.6,1,5.2,1.4,7.6,1.4h739.4c2.399,0,5-0.4,7.5-1.4c2.6-1.1,5-2.6,7-4.6s3.6-4.4,4.6-7
		c1-2.5,1.4-5.1,1.4-7.5v-191.7c0-2.5-0.4-5.1-1.4-7.6c-1-2.6-2.6-4.9-4.6-7c-2-2-4.4-3.5-7-4.5
		C797.6,183.977,795,183.477,792.6,183.477"/>
	<path clip-path="url(#SVGID_2_)" fill-rule="evenodd" clip-rule="evenodd" fill="#404040" d="M465.3,347.177v16.199h-90.4
		c-0.1-4,0.5-7.899,1.9-11.699c2.4-6.101,6-12.2,11.1-18.2s12.4-12.9,22-20.7c14.8-12.2,24.9-21.8,30.1-29
		c5.2-7.1,7.801-13.8,7.801-20.2c0-6.6-2.4-12.3-7.101-16.8c-4.8-4.6-11-6.9-18.6-6.9c-8.1,0-14.6,2.4-19.4,7.3
		c-2.4,2.4-4.3,5.3-5.5,8.7c-1.2,3.3-1.8,7.2-1.9,11.4l-17.3-1.7c1.2-12.9,5.6-22.7,13.4-29.4c7.7-6.8,18-10.2,31-10.2
		c13.2,0,23.6,3.7,31.2,11c7.7,7.2,11.5,16.3,11.5,27c0,5.5-1.101,10.9-3.4,16.2c-2.2,5.2-5.899,10.8-11.1,16.6
		c-5.2,5.9-13.8,13.9-25.9,24.1c-10,8.5-16.5,14.2-19.4,17.2c-1.4,1.5-2.7,3.101-3.9,4.601c-0.6,0.699-1.1,1.5-1.7,2.3
		c-0.5,0.7-1,1.5-1.5,2.2H465.3"/>
	
		<line clip-path="url(#SVGID_2_)" fill="none" stroke="#FFFF00" stroke-width="0.12" stroke-linejoin="bevel" stroke-miterlimit="1.414" x1="833.7" y1="162.977" x2="12.1" y2="162.977"/>
	
		<line clip-path="url(#SVGID_2_)" fill="none" stroke="#FFFF00" stroke-width="0.12" stroke-linejoin="bevel" stroke-miterlimit="1.414" x1="12.1" y1="162.977" x2="12.1" y2="436.776"/>
	
		<line clip-path="url(#SVGID_2_)" fill="none" stroke="#FFFF00" stroke-width="0.12" stroke-linejoin="bevel" stroke-miterlimit="1.414" x1="833.7" y1="436.776" x2="12.1" y2="436.776"/>
	
		<line clip-path="url(#SVGID_2_)" fill="none" stroke="#FFFF00" stroke-width="0.12" stroke-linejoin="bevel" stroke-miterlimit="1.414" x1="833.7" y1="162.977" x2="833.7" y2="436.776"/>
	<path clip-path="url(#SVGID_2_)" fill-rule="evenodd" clip-rule="evenodd" fill="#FFFF00" d="M12.1,204.076c0-2.5,0.2-5,0.7-7.5
		c0.5-2.6,1.2-5.1,2.2-7.6c2-5.1,5.1-9.9,9.1-14c4.1-4,8.8-7.1,13.9-9.1c2.5-1,5.1-1.7,7.7-2.2c2.5-0.5,5-0.7,7.4-0.7h-41v0.1
		V204.076"/>
	<path clip-path="url(#SVGID_2_)" fill-rule="evenodd" clip-rule="evenodd" fill="#FFFF00" d="M53.2,436.776c-2.4,0-4.9-0.2-7.5-0.7
		c-2.5-0.399-5.1-1.1-7.6-2.1c-5.1-2.101-9.9-5.101-13.9-9.2c-4.1-4-7.2-8.8-9.2-13.9c-1-2.5-1.7-5.1-2.2-7.6
		c-0.5-2.6-0.7-5.1-0.7-7.5v41h0.1H53.2"/>
	<path clip-path="url(#SVGID_2_)" fill-rule="evenodd" clip-rule="evenodd" fill="#FFFF00" d="M792.6,162.977
		c2.399,0,4.899,0.2,7.5,0.7c2.5,0.4,5.1,1.2,7.6,2.2c5.101,2,9.9,5,13.9,9.1c4.1,4,7.1,8.8,9.2,13.9c1,2.5,1.699,5.1,2.199,7.6
		c0.4,2.6,0.7,5.1,0.7,7.5v-41h-0.1H792.6"/>
	<path clip-path="url(#SVGID_2_)" fill-rule="evenodd" clip-rule="evenodd" fill="#FFFF00" d="M833.7,395.776c0,2.4-0.2,4.9-0.7,7.4
		c-0.5,2.6-1.199,5.1-2.199,7.699c-2,5.101-5.101,9.801-9.101,13.9c-4.1,4-8.8,7.1-13.899,9.1c-2.601,1-5.101,1.801-7.7,2.2
		c-2.5,0.5-5,0.7-7.4,0.7h41V395.776"/>
</g>
</svg>
