<?xml version="1.0" encoding="utf-8"?>
<!-- Generator: Adobe Illustrator 14.0.0, SVG Export Plug-In . SVG Version: 6.00 Build 43363)  -->
<!DOCTYPE svg PUBLIC "-//W3C//DTD SVG 1.1//EN" "http://www.w3.org/Graphics/SVG/1.1/DTD/svg11.dtd">
<svg version="1.1" id="Layer_1" xmlns="http://www.w3.org/2000/svg" xmlns:xlink="http://www.w3.org/1999/xlink" x="0px" y="0px"
	 width="841.89px" height="595.276px" viewBox="0 0 841.89 595.276" enable-background="new 0 0 841.89 595.276"
	 xml:space="preserve">
<g>
	<defs>
		<polyline id="SVGID_1_" points="0,448.872 842.01,448.872 842.01,146.404 0,146.404 0,448.872 		"/>
	</defs>
	<clipPath id="SVGID_2_">
		<use xlink:href="#SVGID_1_"  overflow="visible"/>
	</clipPath>
	<path clip-path="url(#SVGID_2_)" fill-rule="evenodd" clip-rule="evenodd" fill="#F0F0F0" d="M47.3,155.977h742.2
		c2.4,0,4.9,0.2,7.5,0.7c2.5,0.4,5.101,1.2,7.601,2.2c5.2,2,10,5.1,14,9.2c4.1,4,7.2,8.8,9.2,13.9c1,2.6,1.699,5.2,2.199,7.7
		c0.5,2.6,0.7,5.1,0.7,7.5v192.4c0,2.5-0.2,5-0.7,7.5c-0.5,2.601-1.199,5.2-2.199,7.7c-2,5.1-5.101,9.9-9.2,14c-4,4-8.8,7.1-14,9.1
		c-2.5,1.101-5.101,1.801-7.601,2.301c-2.6,0.399-5.1,0.6-7.5,0.6v0.1H47.3v-0.1c-2.4,0-4.9-0.2-7.5-0.6c-2.5-0.5-5.1-1.2-7.6-2.301
		c-5.2-2-9.9-5.1-14-9.1c-4.1-4.1-7.2-8.9-9.2-14c-1-2.5-1.7-5.1-2.2-7.7c-0.5-2.5-0.7-5.1-0.7-7.5v-192.4c0-2.4,0.2-4.9,0.7-7.5
		c0.5-2.5,1.2-5.1,2.2-7.7c2-5.1,5.1-9.9,9.2-13.9c4.1-4.1,8.8-7.2,14-9.2c2.5-1,5.1-1.8,7.6-2.2
		C42.4,156.176,44.9,155.977,47.3,155.977"/>
	<path clip-path="url(#SVGID_2_)" fill-rule="evenodd" clip-rule="evenodd" fill="#0000FF" d="M47.3,176.576h742.2
		c2.4,0,5,0.4,7.601,1.4c2.5,1.1,4.899,2.6,6.899,4.6c2.101,2.1,3.601,4.5,4.601,7c1,2.6,1.5,5.2,1.5,7.6v192.4
		c0,2.5-0.5,5-1.5,7.601c-1,2.6-2.5,5-4.601,7c-2,2-4.399,3.6-6.899,4.6c-2.601,1-5.2,1.4-7.601,1.4H47.3c-2.4,0-5-0.4-7.5-1.4
		c-2.6-1-5-2.6-7-4.6c-2.1-2-3.6-4.4-4.6-7c-1-2.601-1.5-5.101-1.5-7.601v-192.4c0-2.4,0.5-5,1.5-7.6c1-2.5,2.5-4.9,4.6-7
		c2-2,4.4-3.5,7-4.6C42.3,176.977,44.9,176.576,47.3,176.576"/>
	<polyline clip-path="url(#SVGID_2_)" fill-rule="evenodd" clip-rule="evenodd" fill="#F0F0F0" points="219.3,301.177 
		110.2,301.177 110.2,338.177 54.7,282.876 110.2,228.376 110.2,264.576 219.3,264.676 	"/>
</g>
<g>
	<defs>
		<polyline id="SVGID_3_" points="0,448.872 842.01,448.872 842.01,146.404 0,146.404 0,448.872 		"/>
	</defs>
	<clipPath id="SVGID_4_">
		<use xlink:href="#SVGID_3_"  overflow="visible"/>
	</clipPath>
	<path clip-path="url(#SVGID_4_)" fill-rule="evenodd" clip-rule="evenodd" fill="#F0F0F0" d="M267.1,363.576v-18.8h12.7
		c5.2,0,8.8,0.8,10.8,2.5c2.1,1.6,3.1,3.9,3.1,6.9c0,2.899-1,5.199-2.9,6.899c-1.9,1.7-5.2,2.5-10.1,2.5H267.1 M267.1,338.276v-16.4
		H278c2.8,0,5.1,0.101,6.8,0.4c1.8,0.3,3.4,1,4.6,2.2c1.3,1.3,2,3.2,2,5.8c0,2.4-0.7,4.2-1.9,5.4c-1.3,1.199-2.8,1.899-4.4,2.199
		c-1.7,0.301-3.7,0.4-6.2,0.4H267.1 M290.9,340.977c2.5-1.3,4.4-3,5.7-5c1.3-2.101,1.9-4.3,1.9-6.7c0-3.5-1.4-6.7-4.1-9.6
		c-2.7-2.9-7.4-4.301-14-4.301h-20.6v54.7h21c4.8,0,8.7-0.6,11.5-1.8c2.8-1.2,5-3.1,6.6-5.7c1.5-2.5,2.3-5.399,2.3-8.399
		c0-3.101-0.9-5.801-2.6-8.101C296.9,343.677,294.3,341.977,290.9,340.977"/>
	<polyline clip-path="url(#SVGID_4_)" fill-rule="evenodd" clip-rule="evenodd" fill="#F0F0F0" points="317,370.076 317,330.477 
		310.3,330.477 310.3,370.076 317,370.076 	"/>
	<polyline clip-path="url(#SVGID_4_)" fill-rule="evenodd" clip-rule="evenodd" fill="#F0F0F0" points="317,322.977 317,315.376 
		310.3,315.376 310.3,322.977 317,322.977 	"/>
	<polyline clip-path="url(#SVGID_4_)" fill-rule="evenodd" clip-rule="evenodd" fill="#F0F0F0" points="334,370.076 334,315.376 
		327.2,315.376 327.2,370.076 334,370.076 	"/>
	<path clip-path="url(#SVGID_4_)" fill-rule="evenodd" clip-rule="evenodd" fill="#F0F0F0" d="M351,372.177v-41.7h-6.8v41.6
		c0,3.5-0.3,5.7-0.9,6.7c-0.7,0.9-1.7,1.4-3.2,1.4c-0.8,0-1.8-0.101-3.1-0.5l-1.3,5.699c1.7,0.4,3.5,0.601,5.3,0.601
		c3,0,5.3-0.7,6.7-2.101c1.5-1.399,2.4-3.1,2.7-5C350.8,377.076,351,374.776,351,372.177"/>
	<polyline clip-path="url(#SVGID_4_)" fill-rule="evenodd" clip-rule="evenodd" fill="#F0F0F0" points="351,322.977 351,315.376 
		344.2,315.376 344.2,322.977 351,322.977 	"/>
	<path clip-path="url(#SVGID_4_)" fill-rule="evenodd" clip-rule="evenodd" fill="#F0F0F0" d="M388.7,346.477h-22.3
		c0.3-3.4,1.5-6.101,3.5-8.2c2-2.2,4.6-3.2,7.8-3.2c2.6,0,5.1,0.9,7.3,2.601C387.2,339.477,388.5,342.376,388.7,346.477
		 M395.6,351.977c0-6.3-0.9-11-2.8-14c-1.8-3.101-4.1-5.2-6.8-6.5c-2.6-1.3-5.4-1.9-8.3-1.9c-5.9,0-10.5,1.9-13.7,5.8
		c-3.3,3.9-4.9,9-4.9,15.2c0,6.3,1.7,11.3,5,14.9c3.4,3.7,8,5.5,14,5.5c4.4,0,8.2-1.101,11.2-3.3c2.9-2.2,5-5.4,6.1-9.5l-6.9-0.9
		c-0.9,2.8-2.2,4.8-4,6.2c-1.7,1.3-3.9,2-6.4,2c-3.4,0-6.1-1.2-8.4-3.5c-2.2-2.3-3.4-5.601-3.7-10H395.6"/>
	<path clip-path="url(#SVGID_4_)" fill-rule="evenodd" clip-rule="evenodd" fill="#F0F0F0" d="M419.2,369.977l-1-6
		c-1,0.2-2,0.3-2.9,0.3c-1.7,0-2.7-0.4-3.2-1.2c-0.4-0.899-0.6-2.3-0.6-4.3v-23.1h6.7v-5.2h-6.7v-13.9l-6.7,4v9.9h-4.9v5.2h4.9v22.8
		c0,2.8,0.2,5,0.5,6.6c0.3,1.601,1.1,2.9,2.4,4c1.4,1,3.5,1.5,6.4,1.5C415.5,370.576,417.2,370.376,419.2,369.977"/>
	<path clip-path="url(#SVGID_4_)" fill-rule="evenodd" clip-rule="evenodd" fill="#F0F0F0" d="M440.4,369.977l-0.9-6
		c-1,0.2-2,0.3-3,0.3c-1.699,0-2.699-0.4-3.1-1.2c-0.4-0.899-0.6-2.3-0.6-4.3v-23.1h6.699v-5.2H432.8v-13.9l-6.7,4v9.9h-4.9v5.2h4.9
		v22.8c0,2.8,0.1,5,0.399,6.6c0.301,1.601,1.101,2.9,2.5,4c1.301,1,3.5,1.5,6.4,1.5C436.8,370.576,438.4,370.376,440.4,369.977"/>
	<path clip-path="url(#SVGID_4_)" fill-rule="evenodd" clip-rule="evenodd" fill="#F0F0F0" d="M471.7,352.677
		c0,4.699-1.3,8.1-3.8,10c-2.5,2-5.5,3-8.8,3c-2.5,0-4.5-0.601-5.9-1.801c-1.3-1.1-2-2.6-2-4.5c0-3.6,2.5-5.699,7.601-6.399
		c5.1-0.7,9.399-1.601,12.899-2.8V352.677 M480.5,370.076c-1-1.8-1.6-3.6-1.8-5.5c-0.2-1.899-0.3-5.6-0.3-11.1v-9
		c0-3.101-0.3-5.7-0.8-7.7s-1.9-3.7-4.101-5.1c-2.199-1.4-5.699-2.101-10.5-2.101c-5.199,0-9.3,1-12.3,3.101c-2.899,2-4.8,5-5.5,9.1
		l6.5,0.9c0.7-3,1.8-4.9,3.5-6c1.7-1.101,4-1.601,6.8-1.601c2.301,0,4.101,0.3,5.5,0.8c1.301,0.601,2.301,1.301,2.9,2.2
		c0.6,0.9,1,1.7,1.1,2.601c0.101,0.8,0.2,2.199,0.2,4.199c-1.6,0.601-3.5,1-5.8,1.4l-6.3,0.9c-5.7,0.699-9.8,2.199-12.101,4.3
		c-2.3,2.1-3.5,4.8-3.5,8.1c0,3.4,1.2,6.2,3.601,8.3c2.5,2.101,5.7,3.101,9.899,3.101c5.301,0,10.101-1.9,14.601-5.8
		c0.3,2,0.7,3.6,1.399,4.899H480.5"/>
	<path clip-path="url(#SVGID_4_)" fill-rule="evenodd" clip-rule="evenodd" fill="#F0F0F0" d="M520.8,370.076v-39.6h-6.7v21.1
		c0,5.601-1.101,9.2-3.4,11c-2.2,1.7-4.6,2.601-7.1,2.601c-2,0-3.7-0.5-5.101-1.5c-1.399-1-2.3-2.2-2.6-3.7
		c-0.4-1.601-0.6-4.101-0.6-7.601v-21.899h-6.7v24.5c0,3.6,0.399,6.5,1.2,8.8c0.8,2.2,2.399,4,4.699,5.3c2.4,1.3,4.9,1.9,7.7,1.9
		c5.2,0,9.4-2.2,12.4-6.7h0.2v5.8H520.8"/>
	<path clip-path="url(#SVGID_4_)" fill-rule="evenodd" clip-rule="evenodd" fill="#F0F0F0" d="M546.6,369.977l-0.9-6
		c-1,0.2-2,0.3-3,0.3c-1.6,0-2.7-0.4-3.1-1.2c-0.4-0.899-0.601-2.3-0.601-4.3v-23.1h6.7v-5.2H539v-13.9l-6.699,4v9.9h-4.9v5.2h4.9
		v22.8c0,2.8,0.1,5,0.399,6.6c0.3,1.601,1.101,2.9,2.5,4c1.3,1,3.5,1.5,6.4,1.5C543,370.576,544.6,370.376,546.6,369.977"/>
	<path clip-path="url(#SVGID_4_)" fill-rule="evenodd" clip-rule="evenodd" fill="#F0F0F0" d="M568.6,365.477
		c-3.4,0-6.2-1.3-8.4-3.8c-2.2-2.601-3.3-6.4-3.3-11.4s1.1-8.8,3.3-11.4c2.101-2.5,4.9-3.8,8.4-3.8c3.3,0,6,1.2,8.3,3.8
		c2.2,2.5,3.4,6.2,3.4,11.101c0,4.7-1,8.399-3,11.2C575.3,364.076,572.4,365.477,568.6,365.477 M568.6,329.576
		c-5.3,0-9.7,1.7-13.3,5.101c-3.5,3.399-5.301,8.6-5.301,15.6c0,7.2,1.9,12.4,5.5,15.7c3.7,3.399,8.101,5,13.101,5
		c4.7,0,9-1.601,12.8-4.8c3.8-3.2,5.7-8.7,5.7-16.5c0-6.4-1.7-11.4-5.2-14.9C578.3,331.276,573.9,329.576,568.6,329.576"/>
	<path clip-path="url(#SVGID_4_)" fill-rule="evenodd" clip-rule="evenodd" fill="#F0F0F0" d="M648.6,370.076v-27.2
		c0-4.399-1.101-7.8-3.101-10c-2.1-2.199-5.1-3.3-9.199-3.3c-5.2,0-9.301,2.3-12.2,6.9c-0.9-2.3-2.2-4-4.101-5.2
		c-1.899-1.1-4.3-1.7-7.199-1.7c-5.2,0-9.101,2.101-11.801,6.4H600.8v-5.5h-6v39.6h6.699v-20.6c0-5.4,0.9-9.101,2.801-11.101
		c1.8-2,4.199-3,7.1-3c2.2,0,3.9,0.601,5.1,1.9c1.2,1.3,1.801,3.6,1.801,7v25.8H625v-23c0-4.1,1-7.1,2.9-9c1.9-1.8,4.2-2.7,6.8-2.7
		c2.2,0,3.8,0.5,4.9,1.5c1,1,1.6,2.2,1.899,3.5c0.2,1.301,0.4,2.801,0.4,4.7v25H648.6"/>
	<path clip-path="url(#SVGID_4_)" fill-rule="evenodd" clip-rule="evenodd" fill="#F0F0F0" d="M684,352.677c0,4.699-1.3,8.1-3.8,10
		c-2.5,2-5.399,3-8.7,3c-2.6,0-4.6-0.601-5.899-1.801c-1.4-1.1-2.101-2.6-2.101-4.5c0-3.6,2.5-5.699,7.601-6.399
		c5.1-0.7,9.399-1.601,12.899-2.8V352.677 M692.9,370.076c-1.1-1.8-1.7-3.6-1.9-5.5c-0.199-1.899-0.3-5.6-0.3-11.1v-9
		c0-3.101-0.3-5.7-0.8-7.7s-1.8-3.7-4.1-5.1c-2.2-1.4-5.7-2.101-10.4-2.101c-5.3,0-9.4,1-12.3,3.101c-3,2-4.9,5-5.601,9.1l6.601,0.9
		c0.6-3,1.7-4.9,3.399-6c1.7-1.101,4-1.601,6.9-1.601c2.2,0,4,0.3,5.4,0.8c1.3,0.601,2.3,1.301,2.899,2.2
		c0.601,0.9,1,1.7,1.101,2.601c0.1,0.8,0.199,2.199,0.199,4.199c-1.5,0.601-3.5,1-5.8,1.4l-6.3,0.9c-5.7,0.699-9.7,2.199-12.1,4.3
		c-2.301,2.1-3.5,4.8-3.5,8.1c0,3.4,1.199,6.2,3.699,8.3c2.4,2.101,5.7,3.101,9.801,3.101c5.3,0,10.1-1.9,14.6-5.8
		c0.3,2,0.8,3.6,1.4,4.899H692.9"/>
	<path clip-path="url(#SVGID_4_)" fill-rule="evenodd" clip-rule="evenodd" fill="#F0F0F0" d="M716.5,369.977l-1-6
		c-1,0.2-2,0.3-2.899,0.3c-1.7,0-2.8-0.4-3.2-1.2c-0.4-0.899-0.6-2.3-0.6-4.3v-23.1h6.699v-5.2H708.8v-13.9l-6.7,4v9.9h-4.9v5.2h4.9
		v22.8c0,2.8,0.2,5,0.5,6.6c0.3,1.601,1.1,2.9,2.399,4c1.4,1,3.5,1.5,6.4,1.5C712.8,370.576,714.5,370.376,716.5,369.977"/>
</g>
<g>
	<defs>
		<polyline id="SVGID_5_" points="0,448.872 842.01,448.872 842.01,146.404 0,146.404 0,448.872 		"/>
	</defs>
	<clipPath id="SVGID_6_">
		<use xlink:href="#SVGID_5_"  overflow="visible"/>
	</clipPath>
	<polyline clip-path="url(#SVGID_6_)" fill-rule="evenodd" clip-rule="evenodd" fill="#F0F0F0" points="294.6,264.876 
		294.6,258.376 267.6,258.376 267.6,210.176 260.4,210.176 260.4,264.876 294.6,264.876 	"/>
	<polyline clip-path="url(#SVGID_6_)" fill-rule="evenodd" clip-rule="evenodd" fill="#F0F0F0" points="308.9,264.876 
		308.9,225.276 302.2,225.276 302.2,264.876 308.9,264.876 	"/>
	<polyline clip-path="url(#SVGID_6_)" fill-rule="evenodd" clip-rule="evenodd" fill="#F0F0F0" points="308.9,217.776 
		308.9,210.176 302.2,210.176 302.2,217.776 308.9,217.776 	"/>
	<path clip-path="url(#SVGID_6_)" fill-rule="evenodd" clip-rule="evenodd" fill="#F0F0F0" d="M336,260.276c-3.2,0-5.7-1.2-7.7-3.8
		c-2-2.5-3-6.2-3-11.1c0-4.7,1.1-8.4,3.1-11.3c2.1-3,4.7-4.4,7.9-4.4c3.1,0,5.6,1.3,7.6,3.9c1.9,2.6,2.9,6.3,2.9,11.2
		c0,5.1-1,9-3,11.6C341.7,258.977,339.1,260.276,336,260.276 M325.6,230.376h-0.2v-5.1h-6.1v54.8h6.7v-19.3h0.2c2.6,3.3,6,5,10.2,5
		c4.9,0,9-1.9,12.3-5.6c3.3-3.8,5-9,5-15.4c0-6-1.5-11-4.5-14.7c-3-3.8-7.1-5.7-12.3-5.7C331.8,224.376,328.1,226.376,325.6,230.376
		"/>
	<path clip-path="url(#SVGID_6_)" fill-rule="evenodd" clip-rule="evenodd" fill="#F0F0F0" d="M378.5,260.276
		c-3.2,0-5.8-1.2-7.7-3.8c-2-2.5-3-6.2-3-11.1c0-4.7,1-8.4,3.1-11.3c2.1-3,4.7-4.4,7.9-4.4c3,0,5.6,1.3,7.5,3.9c2,2.6,3,6.3,3,11.2
		c0,5.1-1,9-3.1,11.6C384.2,258.977,381.6,260.276,378.5,260.276 M368,230.376h-0.1v-5.1h-6.1v54.8h6.7v-19.3h0.2
		c2.5,3.3,6,5,10.2,5c4.9,0,8.9-1.9,12.3-5.6c3.3-3.8,5-9,5-15.4c0-6-1.5-11-4.5-14.7c-3-3.8-7.1-5.7-12.3-5.7
		C374.3,224.376,370.6,226.376,368,230.376"/>
	<path clip-path="url(#SVGID_6_)" fill-rule="evenodd" clip-rule="evenodd" fill="#F0F0F0" d="M436.3,264.876v-39.6h-6.7v21.2
		c0,5.5-1.2,9.1-3.4,10.9c-2.2,1.7-4.6,2.6-7.2,2.6c-1.9,0-3.6-0.5-5-1.5c-1.5-0.9-2.3-2.2-2.7-3.7c-0.3-1.5-0.5-4-0.5-7.5v-22h-6.7
		v24.6c0,3.6,0.4,6.5,1.2,8.7c0.8,2.3,2.3,4,4.7,5.3c2.3,1.3,4.9,1.9,7.7,1.9c5.2,0,9.299-2.2,12.4-6.7h0.2v5.8H436.3"/>
	<path clip-path="url(#SVGID_6_)" fill-rule="evenodd" clip-rule="evenodd" fill="#F0F0F0" d="M472.1,247.477
		c0,4.7-1.2,8.1-3.8,10.1c-2.5,2-5.4,2.9-8.7,2.9c-2.601,0-4.5-0.5-5.9-1.7c-1.399-1.2-2.1-2.7-2.1-4.5c0-3.6,2.6-5.8,7.6-6.5
		c5.101-0.6,9.4-1.6,12.9-2.7V247.477 M481,264.876c-1-1.8-1.6-3.6-1.899-5.5c-0.2-1.9-0.3-5.6-0.3-11.1v-9c0-3.1-0.2-5.7-0.7-7.7
		s-1.9-3.7-4.101-5.1c-2.3-1.4-5.8-2.1-10.5-2.1c-5.199,0-9.3,1-12.3,3.1c-3,2-4.899,5.1-5.6,9.1l6.6,0.9c0.601-2.9,1.8-4.9,3.4-6
		c1.7-1.1,4-1.6,6.899-1.6c2.301,0,4.101,0.3,5.4,0.8c1.3,0.6,2.3,1.3,2.9,2.2c0.6,0.9,1,1.8,1.1,2.6c0.2,0.8,0.2,2.2,0.2,4.3
		c-1.5,0.5-3.4,1-5.8,1.3l-6.2,1c-5.8,0.7-9.8,2.1-12.101,4.2c-2.399,2.1-3.5,4.8-3.5,8.1c0,3.5,1.2,6.2,3.601,8.3
		c2.399,2.1,5.7,3.1,9.899,3.1c5.2,0,10.101-1.9,14.601-5.8c0.2,2,0.7,3.7,1.3,4.9H481"/>
	<path clip-path="url(#SVGID_6_)" fill-rule="evenodd" clip-rule="evenodd" fill="#F0F0F0" d="M521.2,264.876v-39.6h-6.7v21.2
		c0,5.5-1.1,9.1-3.3,10.9c-2.3,1.7-4.7,2.6-7.2,2.6c-2,0-3.699-0.5-5.1-1.5c-1.4-0.9-2.3-2.2-2.6-3.7c-0.301-1.5-0.5-4-0.5-7.5v-22
		h-6.7v24.6c0,3.6,0.399,6.5,1.2,8.7c0.699,2.3,2.3,4,4.699,5.3c2.301,1.3,4.9,1.9,7.601,1.9c5.3,0,9.399-2.2,12.399-6.7h0.2v5.8
		H521.2"/>
	<path clip-path="url(#SVGID_6_)" fill-rule="evenodd" clip-rule="evenodd" fill="#F0F0F0" d="M547.1,264.776l-0.9-5.9
		c-1.1,0.2-2.1,0.3-3,0.3c-1.7,0-2.7-0.5-3.1-1.3c-0.5-0.8-0.7-2.2-0.7-4.2v-23.2h6.8v-5.2h-6.8v-13.9l-6.7,4.1v9.8H527.8v5.2h4.899
		v22.8c0,2.8,0.2,5.1,0.5,6.6c0.3,1.6,1.101,2.9,2.4,4c1.399,1,3.5,1.5,6.399,1.5C543.4,265.376,545.1,265.176,547.1,264.776"/>
	<path clip-path="url(#SVGID_6_)" fill-rule="evenodd" clip-rule="evenodd" fill="#F0F0F0" d="M569,260.276c-3.3,0-6.1-1.3-8.3-3.8
		c-2.3-2.6-3.399-6.3-3.399-11.4c0-5,1.1-8.8,3.3-11.4c2.2-2.5,5-3.8,8.399-3.8c3.301,0,6.101,1.3,8.301,3.8
		c2.3,2.5,3.399,6.2,3.399,11.2c0,4.6-1,8.3-3,11.2C575.7,258.876,572.8,260.276,569,260.276 M569,224.376
		c-5.199,0-9.6,1.7-13.199,5.2c-3.601,3.4-5.301,8.6-5.301,15.5c0,7.2,1.801,12.5,5.5,15.8c3.7,3.3,8,4.9,13,4.9
		c4.801,0,9.101-1.6,12.9-4.8c3.8-3.2,5.7-8.7,5.7-16.5c0-6.4-1.8-11.4-5.3-14.8C578.8,226.176,574.4,224.376,569,224.376"/>
	<path clip-path="url(#SVGID_6_)" fill-rule="evenodd" clip-rule="evenodd" fill="#F0F0F0" d="M649,264.876v-27.2
		c0-4.4-1-7.7-3.1-10c-2-2.2-5.1-3.3-9.2-3.3c-5.2,0-9.3,2.3-12.2,7c-0.8-2.3-2.199-4.1-4.1-5.2c-1.9-1.2-4.2-1.8-7.2-1.8
		c-5.2,0-9.1,2.2-11.8,6.4h-0.1v-5.5H595.2v39.6h6.7v-20.5c0-5.5,1-9.2,2.8-11.2c1.9-2,4.2-3,7.101-3c2.199,0,3.899,0.6,5.199,1.9
		c1.2,1.3,1.801,3.6,1.801,7.1v25.7h6.699v-23c0-4.1,0.9-7.1,2.9-8.9c1.9-1.9,4.1-2.8,6.8-2.8c2.2,0,3.8,0.5,4.8,1.5
		s1.7,2.2,1.9,3.5c0.3,1.3,0.4,2.9,0.4,4.7v25H649"/>
	<path clip-path="url(#SVGID_6_)" fill-rule="evenodd" clip-rule="evenodd" fill="#F0F0F0" d="M684.4,247.477
		c0,4.7-1.2,8.1-3.8,10.1c-2.5,2-5.4,2.9-8.7,2.9c-2.6,0-4.5-0.5-5.9-1.7c-1.399-1.2-2-2.7-2-4.5c0-3.6,2.5-5.8,7.601-6.5
		c5-0.6,9.3-1.6,12.8-2.7V247.477 M693.3,264.876c-1-1.8-1.601-3.6-1.801-5.5c-0.199-1.9-0.3-5.6-0.3-11.1v-9c0-3.1-0.3-5.7-0.8-7.7
		s-1.9-3.7-4.1-5.1c-2.2-1.4-5.7-2.1-10.5-2.1c-5.2,0-9.301,1-12.301,3.1c-3,2-4.8,5.1-5.6,9.1l6.6,0.9c0.601-2.9,1.801-4.9,3.5-6
		c1.601-1.1,3.9-1.6,6.801-1.6c2.3,0,4.1,0.3,5.399,0.8c1.4,0.6,2.3,1.3,2.9,2.2c0.7,0.9,1,1.8,1.1,2.6c0.2,0.8,0.2,2.2,0.2,4.3
		c-1.5,0.5-3.4,1-5.7,1.3l-6.3,1c-5.8,0.7-9.8,2.1-12.1,4.2c-2.301,2.1-3.5,4.8-3.5,8.1c0,3.5,1.199,6.2,3.6,8.3s5.7,3.1,9.9,3.1
		c5.199,0,10.1-1.9,14.6-5.8c0.3,2,0.7,3.7,1.4,4.9H693.3"/>
	<path clip-path="url(#SVGID_6_)" fill-rule="evenodd" clip-rule="evenodd" fill="#F0F0F0" d="M726.9,247.477
		c0,4.7-1.2,8.1-3.8,10.1c-2.5,2-5.4,2.9-8.7,2.9c-2.6,0-4.5-0.5-5.9-1.7c-1.399-1.2-2.1-2.7-2.1-4.5c0-3.6,2.6-5.8,7.6-6.5
		c5.101-0.6,9.4-1.6,12.9-2.7V247.477 M735.8,264.876c-1-1.8-1.601-3.6-1.801-5.5c-0.3-1.9-0.399-5.6-0.399-11.1v-9
		c0-3.1-0.2-5.7-0.7-7.7s-1.9-3.7-4.1-5.1c-2.301-1.4-5.7-2.1-10.5-2.1c-5.2,0-9.301,1-12.301,3.1c-3,2-4.8,5.1-5.6,9.1l6.6,0.9
		c0.601-2.9,1.801-4.9,3.4-6c1.7-1.1,4-1.6,6.9-1.6c2.3,0,4.1,0.3,5.399,0.8c1.3,0.6,2.3,1.3,2.9,2.2c0.6,0.9,1,1.8,1.1,2.6
		c0.2,0.8,0.2,2.2,0.2,4.3c-1.5,0.5-3.4,1-5.8,1.3l-6.2,1c-5.8,0.7-9.8,2.1-12.1,4.2c-2.4,2.1-3.5,4.8-3.5,8.1
		c0,3.5,1.199,6.2,3.6,8.3s5.7,3.1,9.9,3.1c5.199,0,10.1-1.9,14.6-5.8c0.2,2,0.7,3.7,1.3,4.9H735.8"/>
	<path clip-path="url(#SVGID_6_)" fill-rule="evenodd" clip-rule="evenodd" fill="#F0F0F0" d="M759.4,264.776l-0.9-5.9
		c-1,0.2-2,0.3-3,0.3c-1.699,0-2.699-0.5-3.1-1.3c-0.4-0.8-0.6-2.2-0.6-4.2v-23.2h6.699v-5.2H751.8v-13.9l-6.801,4.1v9.8h-4.8v5.2
		h4.8v22.8c0,2.8,0.2,5.1,0.5,6.6c0.301,1.6,1.101,2.9,2.5,4c1.301,1,3.4,1.5,6.4,1.5C755.7,265.376,757.4,265.176,759.4,264.776"/>
	<path clip-path="url(#SVGID_6_)" fill-rule="evenodd" clip-rule="evenodd" fill="#F0F0F0" d="M780.7,264.776l-1-5.9
		c-1,0.2-2,0.3-3,0.3c-1.6,0-2.7-0.5-3.1-1.3c-0.4-0.8-0.601-2.2-0.601-4.2v-23.2h6.7v-5.2H773v-13.9l-6.699,4.1v9.8h-4.9v5.2h4.9
		v22.8c0,2.8,0.1,5.1,0.399,6.6c0.3,1.6,1.2,2.9,2.5,4c1.3,1,3.5,1.5,6.4,1.5C777,265.376,778.7,265.176,780.7,264.776"/>
	<polyline clip-path="url(#SVGID_6_)" fill-rule="evenodd" clip-rule="evenodd" fill="#F0F0F0" points="793.2,264.876 
		793.2,225.276 786.5,225.276 786.5,264.876 793.2,264.876 	"/>
	<polyline clip-path="url(#SVGID_6_)" fill-rule="evenodd" clip-rule="evenodd" fill="#F0F0F0" points="793.2,217.776 
		793.2,210.176 786.5,210.176 786.5,217.776 793.2,217.776 	"/>
</g>
</svg>
