<?xml version="1.0" encoding="iso-8859-1"?>
<!-- Generator: Adobe Illustrator 16.0.0, SVG Export Plug-In . SVG Version: 6.00 Build 0)  -->
<!DOCTYPE svg PUBLIC "-//W3C//DTD SVG 1.1//EN" "http://www.w3.org/Graphics/SVG/1.1/DTD/svg11.dtd">
<svg version="1.1" id="Layer_1" xmlns="http://www.w3.org/2000/svg" xmlns:xlink="http://www.w3.org/1999/xlink" x="0px" y="0px"
	 width="425.197px" height="425.196px" viewBox="0 0 425.197 425.196" style="enable-background:new 0 0 425.197 425.196;"
	 xml:space="preserve">
<g id="LWPOLYLINE_54_">
	<rect x="14.174" y="63.779" style="fill:#FFCD00;" width="396.849" height="297.638"/>
</g>
<g id="LWPOLYLINE_56_">
	<path style="fill:#E4002B;" d="M411.023,334.959c0,14.613-11.846,26.458-26.454,26.458H40.627
		c-14.607,0-26.453-11.845-26.453-26.458V90.237c0-14.612,11.846-26.458,26.453-26.458h343.941
		c14.608,0,26.454,11.846,26.454,26.458V334.959z"/>
</g>
<g id="LWPOLYLINE_55_">
	<path style="fill:#FFCD00;" d="M397.792,334.959c0,7.309-5.918,13.231-13.223,13.231H40.627c-7.304,0-13.227-5.923-13.227-13.231
		V90.237c0-7.304,5.923-13.231,13.227-13.231h343.941c7.305,0,13.223,5.928,13.223,13.231V334.959z"/>
</g>
<g id="LWPOLYLINE_53_">
	<polygon style="fill:#101820;" points="60.47,139.844 139.84,139.844 146.457,205.982 133.229,285.353 67.086,285.353 
		53.859,205.982 	"/>
</g>
<g id="LWPOLYLINE_113_">
	<path style="fill:#101820;" d="M320.072,210.195c-2.928,2.745-4.587,6.584-4.587,10.605v3.702c0,8.038,6.511,14.554,14.554,14.554
		c8.033,0,14.544-6.516,14.544-14.554v-3.702c0-4.021-1.659-7.86-4.586-10.605c2.106-2.416,3.264-5.508,3.264-8.708v-2.116
		c0-7.304-5.918-13.231-13.222-13.231c-7.305,0-13.231,5.928-13.231,13.231v2.116C316.807,204.688,317.965,207.779,320.072,210.195z
		"/>
</g>
<g id="LWPOLYLINE_121_">
	<path style="fill:#101820;" d="M203.572,200.693c0-8.033,6.516-14.554,14.554-14.554c8.034,0,14.552,6.521,14.552,14.554v5.736
		c0,1.933-0.21,3.861-0.639,5.754c-2.18,9.803-6.55,18.989-12.777,26.873h-10.583c6.105-6.169,10.77-13.61,13.665-21.79
		c-1.368,0.415-2.791,0.625-4.218,0.625c-8.038,0-14.554-6.516-14.554-14.554V200.693z"/>
</g>
<g id="LWPOLYLINE_122_">
	<rect x="245.909" y="208.632" style="fill:#101820;" width="26.453" height="7.938"/>
</g>
<g id="LWPOLYLINE_124_">
	<path style="fill:#101820;" d="M285.593,193.918c3.119-1.618,5.472-4.418,6.529-7.778h8.016v52.917h-7.934v-40.743l-5.817,1.058
		L285.593,193.918z"/>
</g>
<g id="LWPOLYLINE_128_">
	<path style="fill:#101820;" d="M186.164,248.316h4.182c-7.341-23.248-7.341-48.188,0-71.432h-4.182
		C172.905,198.847,172.905,226.35,186.164,248.316z"/>
</g>
<g id="LWPOLYLINE_129_">
	<path style="fill:#101820;" d="M362,248.316h-4.186c7.341-23.244,7.341-48.188,0-71.432H362
		C375.258,198.852,375.258,226.354,362,248.316z"/>
</g>
<g id="LWPOLYLINE_116_">
	<path style="fill:#101820;" d="M324.75,114.548c3.119-1.618,5.472-4.418,6.529-7.778h8.016v52.917h-7.934v-40.743l-5.818,1.058
		L324.75,114.548z"/>
</g>
<g id="LWPOLYLINE_117_">
	<path style="fill:#101820;" d="M311.919,128.901c2.827-3.734,3.456-8.682,1.678-13.013c-3.063-7.427-11.571-10.97-19.004-7.906
		c-5.443,2.248-9,7.56-9,13.455v2.645h7.934v-2.645c0-0.159,0.009-0.319,0.019-0.479c0.264-3.644,3.429-6.384,7.076-6.119
		c3.638,0.265,6.383,3.429,6.118,7.076c-0.073,0.999-0.429,1.961-1.03,2.764l-20.116,27.183v7.938h29.099v-7.938h-20.107
		L311.919,128.901z"/>
</g>
<g id="LWPOLYLINE_118_">
	<path style="fill:#101820;" d="M203.572,121.323c0-8.033,6.516-14.554,14.554-14.554c8.034,0,14.552,6.521,14.552,14.554v5.736
		c0,1.933-0.21,3.861-0.639,5.754c-2.18,9.803-6.55,18.989-12.777,26.873h-10.583c6.105-6.169,10.77-13.61,13.665-21.79
		c-1.368,0.415-2.791,0.625-4.218,0.625c-8.038,0-14.554-6.516-14.554-14.554V121.323z"/>
</g>
<g id="LWPOLYLINE_119_">
	<rect x="245.909" y="129.262" style="fill:#101820;" width="26.453" height="7.938"/>
</g>
<g id="LWPOLYLINE_51_">
	<path style="fill:#FFCD00;" d="M72.444,153.07h55.428l5.289,52.912h-13.163c0-10.956-8.881-19.843-19.842-19.843
		c-10.957,0-19.843,8.887-19.843,19.843H67.155L72.444,153.07z"/>
</g>
<g id="LWPOLYLINE_52_">
	<path style="fill:#FFCD00;" d="M110.077,205.982H90.234c0-5.48,4.445-9.921,9.922-9.921
		C105.636,196.062,110.077,200.502,110.077,205.982z"/>
</g>
<g id="LWPOLYLINE_112_">
	<path style="fill:#FFCD00;" d="M323.418,224.503c0,3.656,2.963,6.615,6.62,6.615c3.647,0,6.611-2.959,6.611-6.615v-3.702
		c0-3.652-2.964-6.611-6.611-6.611c-3.657,0-6.62,2.959-6.62,6.611V224.503z"/>
</g>
<g id="LWPOLYLINE_114_">
	<path style="fill:#FFCD00;" d="M324.741,199.371v2.116c0,2.922,2.37,5.288,5.298,5.288c2.918,0,5.289-2.366,5.289-5.288v-2.116
		c0-2.922-2.371-5.293-5.289-5.293C327.111,194.078,324.741,196.449,324.741,199.371z"/>
</g>
<g id="LWPOLYLINE_115_">
	<path style="fill:#FFCD00;" d="M211.509,121.323v2.645c0,3.657,2.964,6.616,6.616,6.616s6.616-2.959,6.616-6.616v-2.645
		c0-3.651-2.964-6.615-6.616-6.615S211.509,117.672,211.509,121.323z"/>
</g>
<g id="LWPOLYLINE_120_">
	<path style="fill:#FFCD00;" d="M211.509,200.693v2.645c0,3.657,2.964,6.616,6.616,6.616s6.616-2.959,6.616-6.616v-2.645
		c0-3.651-2.964-6.615-6.616-6.615S211.509,197.042,211.509,200.693z"/>
</g>
<g id="LWPOLYLINE_111_">
	<path style="fill:#E4002B;" d="M315.485,303.873c0,8.038,6.52,14.554,14.554,14.554c8.033,0,14.554-6.516,14.554-14.554v-5.818
		c0-8.038-6.521-14.553-14.554-14.553c-2.033,0-4.04,0.428-5.891,1.249l1.131-11.303h14.544l-0.528-7.938h-21.165l-2.645,26.459
		l9.265,2.12c1.249-1.669,3.21-2.649,5.289-2.649c3.647,0,6.611,2.959,6.611,6.615v5.818c0,3.656-2.964,6.615-6.611,6.615
		c-3.657,0-6.62-2.959-6.62-6.615H315.485z"/>
</g>
<g id="LWPOLYLINE_123_">
	<rect x="245.909" y="288.002" style="fill:#E4002B;" width="26.453" height="7.938"/>
</g>
<g id="LWPOLYLINE_125_">
	<path style="fill:#E4002B;" d="M229.905,287.532c2.817-3.739,3.456-8.686,1.669-13.013c-3.055-7.432-11.565-10.97-18.997-7.906
		c-5.448,2.243-9.005,7.555-9.005,13.45v2.645h7.938v-2.645c0-0.159,0.005-0.319,0.019-0.479c0.265-3.643,3.434-6.383,7.076-6.119
		c3.644,0.265,6.384,3.434,6.119,7.076c-0.073,0.999-0.429,1.956-1.026,2.768l-20.125,27.179v7.938h29.105v-7.938h-20.109
		L229.905,287.532z"/>
</g>
<g id="LWPOLYLINE_126_">
	<path style="fill:#E4002B;" d="M174.738,273.288c3.123-1.618,5.477-4.418,6.534-7.778h8.016v52.917h-7.938v-40.743l-5.813,1.058
		L174.738,273.288z"/>
</g>
<g id="LWPOLYLINE_127_">
	<path style="fill:#E4002B;" d="M285.593,273.288c3.119-1.618,5.472-4.418,6.529-7.778h8.016v52.917h-7.934v-40.743l-5.817,1.058
		L285.593,273.288z"/>
</g>
</svg>
