<?xml version="1.0" encoding="utf-8"?>
<!-- Generator: Adobe Illustrator 28.0.0, SVG Export Plug-In . SVG Version: 6.00 Build 0)  -->
<svg version="1.1" id="Layer_1" xmlns="http://www.w3.org/2000/svg" xmlns:xlink="http://www.w3.org/1999/xlink" x="0px" y="0px"
	 viewBox="0 0 425.2 425.2" style="enable-background:new 0 0 425.2 425.2;" xml:space="preserve">
<style type="text/css">
	.st0{fill:#005EB8;stroke:#005EB8;stroke-width:0.5;stroke-miterlimit:10;}
	.st1{fill:#FFFFFF;}
	.st2{fill:#005EB8;}
	.st3{fill:none;}
</style>
<g id="LWPOLYLINE_88_">
	<rect x="29.44" y="14.17" class="st0" width="366.32" height="396.85"/>
</g>
<g id="LWPOLYLINE_86_">
	<path class="st1" d="M395.76,38.59c0-13.48-10.93-24.42-24.42-24.42H53.86c-13.48,0-24.42,10.93-24.42,24.42V386.6
		c0,13.49,10.93,24.43,24.42,24.43h317.49c13.48,0,24.42-10.93,24.42-24.43V38.59z"/>
</g>
<g id="LWPOLYLINE_87_">
	<path class="st2" d="M43.22,386.6c0,6.75,5.46,12.21,12.21,12.21h317.49c6.74,0,12.21-5.47,12.21-12.21V38.59
		c0-6.74-5.46-12.21-12.21-12.21H55.42c-6.74,0-12.21,5.46-12.21,12.21V386.6z"/>
</g>
<g id="LWPOLYLINE_94_">
	<path class="st2" d="M210.5,66.07c0,2.03,1.64,3.67,3.66,3.67c2.02,0,3.66-1.64,3.66-3.67v-9.16c0-2.02-1.64-3.66-3.66-3.66
		c-2.02,0-3.66,1.64-3.66,3.66V66.07z"/>
</g>
<g id="LWPOLYLINE_98_">
	<path class="st2" d="M280.11,57.28h7.32v-0.37c0-2.02-1.64-3.66-3.66-3.66c-2.03,0-3.66,1.64-3.66,3.66V57.28z"/>
</g>
<g id="LWPOLYLINE_4_">
	<polygon class="st1" points="75.73,63.37 155.1,63.37 161.72,129.51 148.49,208.88 82.35,208.88 69.12,129.51 	"/>
</g>
<g id="POINT_46_">
	<line class="st3" x1="75.73" y1="63.37" x2="75.73" y2="63.37"/>
</g>
<g id="POINT_47_">
	<line class="st3" x1="75.73" y1="63.37" x2="75.73" y2="63.37"/>
</g>
<g id="LWPOLYLINE_6_">
	<path class="st2" d="M87.71,76.6h55.43l5.29,52.91h-13.16c0-10.96-8.88-19.84-19.84-19.84c-10.96,0-19.84,8.88-19.84,19.84H82.42
		L87.71,76.6z"/>
</g>
<g id="LWPOLYLINE_5_">
	<path class="st2" d="M125.34,129.51H105.5c0-5.48,4.45-9.92,9.92-9.92C120.9,119.59,125.34,124.03,125.34,129.51z"/>
</g>
</svg>
