<?xml version="1.0" encoding="utf-8"?>
<!-- Generator: Adobe Illustrator 27.0.1, SVG Export Plug-In . SVG Version: 6.00 Build 0)  -->
<svg version="1.1" id="Layer_1" xmlns="http://www.w3.org/2000/svg" xmlns:xlink="http://www.w3.org/1999/xlink" x="0px" y="0px"
	 viewBox="0 0 425.2 425.2" style="enable-background:new 0 0 425.2 425.2;" xml:space="preserve">
<style type="text/css">
	.st0{fill:#005EB8;stroke:#005EB8;stroke-width:0.5;stroke-miterlimit:10;}
	.st1{fill:#FFFFFF;}
	.st2{fill:#005EB8;}
	.st3{fill:#E4002B;}
</style>
<g id="LWPOLYLINE_57_">
	<rect x="14.17" y="63.78" class="st0" width="396.85" height="297.64"/>
</g>
<g id="LWPOLYLINE_60_">
	<path class="st1" d="M411.02,334.96c0,14.61-11.85,26.46-26.45,26.46H40.63c-14.61,0-26.45-11.84-26.45-26.46V90.24
		c0-14.61,11.85-26.46,26.45-26.46h343.94c14.61,0,26.45,11.85,26.45,26.46V334.96z"/>
</g>
<g id="LWPOLYLINE_59_">
	<path class="st2" d="M397.79,334.96c0,7.31-5.92,13.23-13.22,13.23H40.63c-7.3,0-13.23-5.92-13.23-13.23V90.24
		c0-7.3,5.92-13.23,13.23-13.23h343.94c7.3,0,13.22,5.93,13.22,13.23V334.96z"/>
</g>
<g id="LWPOLYLINE_101_">
	<rect x="243.7" y="285.79" class="st1" width="30.87" height="12.35"/>
</g>
<g id="LWPOLYLINE_50_">
	<polygon class="st1" points="60.47,139.84 139.84,139.84 146.46,205.98 133.23,285.35 67.09,285.35 53.86,205.98 	"/>
</g>
<g id="LWPOLYLINE_99_">
	<rect x="245.91" y="208.63" class="st1" width="26.45" height="7.94"/>
</g>
<g id="LWPOLYLINE_109_">
	<path class="st1" d="M186.16,248.32h4.18c-7.34-23.25-7.34-48.19,0-71.43h-4.18C172.9,198.85,172.9,226.35,186.16,248.32z"/>
</g>
<g id="LWPOLYLINE_110_">
	<path class="st1" d="M362,248.32h-4.19c7.34-23.24,7.34-48.19,0-71.43H362C375.26,198.85,375.26,226.35,362,248.32z"/>
</g>
<g id="LWPOLYLINE_48_">
	<path class="st2" d="M72.44,153.07h55.43l5.29,52.91H120c0-10.96-8.88-19.84-19.84-19.84c-10.96,0-19.84,8.89-19.84,19.84H67.15
		L72.44,153.07z"/>
</g>
<g id="LWPOLYLINE_49_">
	<path class="st2" d="M110.08,205.98H90.23c0-5.48,4.45-9.92,9.92-9.92C105.64,196.06,110.08,200.5,110.08,205.98z"/>
</g>
<g id="LWPOLYLINE_96_">
	<rect x="245.91" y="129.26" class="st1" width="26.45" height="7.94"/>
</g>
<g id="LWPOLYLINE_100_">
	<rect x="245.91" y="288" class="st3" width="26.45" height="7.94"/>
</g>
</svg>
