<?xml version="1.0" encoding="UTF-8"?>
<svg id="Layer_1" data-name="Layer 1" xmlns="http://www.w3.org/2000/svg" version="1.1" viewBox="0 0 692.2 576.9">
  <defs>
    <style>
      .cls-1 {
        fill: #ed2224;
      }

      .cls-1, .cls-2, .cls-3 {
        fill-rule: evenodd;
        stroke-width: 0px;
      }

      .cls-4 {
        stroke: #f6eb16;
      }

      .cls-4, .cls-5 {
        fill: none;
        stroke-linejoin: bevel;
        stroke-width: .1px;
      }

      .cls-5 {
        stroke: #ed2224;
      }

      .cls-2 {
        fill: #414141;
      }

      .cls-3 {
        fill: #ffce04;
      }
    </style>
  </defs>
  <g>
    <line class="cls-5" x1="-.4" y1="34.9" x2="-.4" y2="427.2"/>
    <line class="cls-4" x1="691.8" y1="577.2" x2="691.8" y2=".3"/>
    <path class="cls-5" d="M691.8,34.9c0-4.5-.9-9-2.6-13.2-1.8-4.2-4.3-8-7.5-11.2-3.2-3.3-7.1-5.8-11.3-7.6-4.2-1.7-8.7-2.6-13.2-2.6"/>
    <line class="cls-5" x1="657.2" y1=".3" x2="34.2" y2=".3"/>
    <path class="cls-5" d="M34.2.3c-4.5,0-9,.9-13.2,2.6-4.2,1.8-8,4.3-11.3,7.6-3.2,3.2-5.7,7-7.5,11.2C.5,25.9-.4,30.4-.4,34.9"/>
    <path class="cls-4" d="M657.2,559.8c4.6,0,9-1.8,12.2-5,3.3-3.3,5.1-7.7,5.1-12.3"/>
    <line class="cls-4" x1="674.5" y1="542.5" x2="674.5" y2="34.9"/>
    <path class="cls-4" d="M674.5,34.9c0-4.6-1.8-9-5.1-12.2-3.2-3.3-7.6-5.1-12.2-5.1"/>
    <line class="cls-4" x1="657.2" y1="17.6" x2="34.2" y2="17.6"/>
    <path class="cls-4" d="M34.2,17.6c-4.6,0-9,1.8-12.2,5.1-3.3,3.2-5.1,7.6-5.1,12.2"/>
    <line class="cls-4" x1="16.9" y1="34.9" x2="16.9" y2="542.5"/>
    <polyline class="cls-2" points="218.8 104.1 80.4 104.1 68.8 219.5 91.9 358 207.3 358 230.3 219.5 218.8 104.1"/>
    <path class="cls-3" d="M132.3,219.5h34.6c0-2-.4-4.2-1.3-6.3-.8-2.2-2.1-4.2-3.8-5.9s-3.7-3-5.9-3.8c-2.1-.8-4.3-1.2-6.3-1.2-4.6,0-9,1.8-12.2,5-3.3,3.3-5.1,7.6-5.1,12.2"/>
    <path class="cls-3" d="M197.9,127.2h-96.7l-9.3,92.3h23.1c0-2,.1-4.1.5-6.3.4-2.1,1-4.3,1.9-6.4,1.7-4.3,4.3-8.4,7.7-11.8,3.4-3.4,7.4-6,11.7-7.7,2.2-.8,4.3-1.4,6.5-1.8,2.1-.4,4.2-.6,6.3-.6s4.1.2,6.3.6c2.1.4,4.3,1,6.4,1.8,4.3,1.7,8.3,4.3,11.8,7.7,3.4,3.4,6,7.5,7.7,11.8.8,2.1,1.4,4.3,1.8,6.4.4,2.2.6,4.3.6,6.3h23.1l-9.4-92.3"/>
    <path class="cls-3" d="M691.8,34.9V.3h-34.6c2,0,4.1.2,6.3.6,2.1.4,4.3,1,6.4,1.8,4.3,1.7,8.3,4.3,11.7,7.7,3.5,3.4,6,7.4,7.8,11.7.8,2.2,1.4,4.3,1.8,6.5.4,2.1.6,4.2.6,6.3"/>
    <path class="cls-3" d="M34.2,577.2c-2,0-4.1-.2-6.3-.6-2.1-.4-4.3-1-6.4-1.9-4.3-1.7-8.3-4.2-11.7-7.7-3.4-3.4-6-7.4-7.7-11.7-.9-2.1-1.5-4.2-1.9-6.4-.4-2.1-.6-4.2-.6-6.3v34.6h34.6"/>
    <path class="cls-3" d="M691.8,542.5c0,2.1-.2,4.2-.6,6.3-.4,2.2-1,4.3-1.8,6.5-1.7,4.3-4.3,8.3-7.7,11.7-3.4,3.4-7.4,6-11.7,7.7-2.1.8-4.3,1.5-6.4,1.9-2.2.4-4.3.5-6.3.6h34.5v-34.7"/>
    <path class="cls-3" d="M230.3,219.5l-23,138.5h-115.4l-23.1-138.5,11.6-115.4h138.4l11.5,115.4M34.2,559.8h623c2,0,4.2-.3,6.4-1.2,2.1-.8,4.1-2.1,5.8-3.8,1.7-1.7,3-3.7,3.9-5.9.8-2.1,1.2-4.3,1.2-6.4V34.9c0-2-.4-4.2-1.2-6.3-.9-2.2-2.2-4.2-3.9-5.9s-3.7-3-5.8-3.9c-2.2-.8-4.4-1.2-6.4-1.2H34.2c-2,0-4.2.4-6.4,1.2-2.1.9-4.1,2.2-5.8,3.9-1.7,1.7-3,3.7-3.9,5.9-.8,2.1-1.2,4.3-1.2,6.3v507.6c0,2.1.4,4.3,1.2,6.4.9,2.2,2.2,4.2,3.9,5.9,1.7,1.7,3.7,3,5.8,3.8,2.2.9,4.4,1.2,6.4,1.2"/>
    <path class="cls-1" d="M16.9,542.5V34.9c0-2,.4-4.2,1.2-6.3.9-2.2,2.2-4.2,3.9-5.9,1.7-1.7,3.7-3,5.8-3.9,2.2-.8,4.4-1.2,6.4-1.2h623c2,0,4.2.4,6.4,1.2,2.1.9,4.1,2.2,5.8,3.9s3,3.7,3.9,5.9c.8,2.1,1.2,4.3,1.2,6.3v507.6c0,2.1-.4,4.3-1.2,6.4-.9,2.2-2.2,4.2-3.9,5.9-1.7,1.7-3.7,3-5.8,3.8-2.2.9-4.4,1.2-6.4,1.2H34.2c-4.6,0-9-1.8-12.2-5-3.3-3.3-5.1-7.7-5.1-12.3M691.8,542.5V34.9c0-4.6-.9-9.1-2.6-13.2-1.8-4.2-4.3-8.1-7.5-11.3-3.3-3.2-7.1-5.7-11.3-7.5-4.2-1.7-8.7-2.6-13.2-2.6H34.2c-4.6,0-9,.9-13.2,2.7-4.2,1.7-8.1,4.2-11.3,7.5-3.2,3.2-5.7,7-7.5,11.2C.5,25.9-.4,30.4-.4,34.9v507.6H-.4c0,4.6.9,9.1,2.7,13.3,1.7,4.2,4.2,8,7.5,11.2,3.2,3.2,7,5.8,11.2,7.5,4.2,1.8,8.7,2.7,13.2,2.7h623c2.1,0,4.2-.2,6.3-.6,2.2-.4,4.3-1,6.5-1.9,4.3-1.7,8.3-4.3,11.7-7.7,3.4-3.4,6-7.4,7.7-11.7.8-2.2,1.4-4.3,1.8-6.5.4-2.1.6-4.2.6-6.3"/>
    <line class="cls-4" x1="691.8" y1="542.5" x2="691.8" y2="34.9"/>
    <path class="cls-4" d="M691.8,34.9c0-4.6-.9-9.1-2.6-13.2-1.8-4.2-4.3-8.1-7.5-11.3-3.3-3.2-7.1-5.7-11.3-7.5-4.2-1.7-8.7-2.6-13.2-2.6"/>
    <line class="cls-4" x1="657.2" y1=".3" x2="657.2" y2=".3"/>
    <line class="cls-4" x1="34.2" y1=".3" x2="34.2" y2=".3"/>
    <line class="cls-4" x1="657.2" y1=".3" x2="34.2" y2=".3"/>
    <line class="cls-4" x1="34.2" y1=".3" x2="34.2" y2=".3"/>
    <path class="cls-4" d="M34.2.3c-4.6,0-9,.9-13.2,2.7-4.2,1.7-8.1,4.2-11.3,7.5-3.2,3.2-5.7,7-7.5,11.2C.5,25.9-.4,30.4-.4,34.9"/>
    <line class="cls-4" x1="-.4" y1="34.9" x2="-.4" y2="138.7"/>
    <polyline class="cls-4" points="-.4 138.7 -.4 427.2 -.4 542.5 -.4 542.6"/>
    <path class="cls-4" d="M-.4,542.6c0,4.5.9,9,2.7,13.2,1.7,4.2,4.2,8,7.5,11.2,3.2,3.2,7,5.8,11.2,7.5,4.2,1.8,8.7,2.7,13.2,2.7"/>
    <line class="cls-4" x1="34.2" y1="577.2" x2="657.2" y2="577.2"/>
    <path class="cls-4" d="M657.2,577.2c4.6,0,9.1-1,13.3-2.7,4.2-1.7,8-4.3,11.2-7.5,3.2-3.2,5.7-7,7.5-11.2,1.7-4.2,2.6-8.7,2.6-13.3"/>
    <line class="cls-4" x1="16.9" y1="542.5" x2="16.9" y2="34.9"/>
    <path class="cls-4" d="M16.9,34.9c0-4.6,1.8-9,5.1-12.2,3.2-3.3,7.6-5.1,12.2-5.1"/>
    <line class="cls-4" x1="34.2" y1="17.6" x2="657.2" y2="17.6"/>
    <path class="cls-4" d="M657.2,17.6c4.6,0,9,1.8,12.2,5.1,3.3,3.2,5.1,7.6,5.1,12.2"/>
    <line class="cls-4" x1="674.5" y1="34.9" x2="674.5" y2="542.5"/>
    <path class="cls-4" d="M674.5,542.5c0,4.6-1.8,9-5.1,12.3-3.2,3.2-7.6,5-12.2,5"/>
    <line class="cls-4" x1="657.2" y1="559.8" x2="34.2" y2="559.8"/>
    <path class="cls-4" d="M34.2,559.8c-4.6,0-9-1.8-12.2-5-3.3-3.3-5.1-7.7-5.1-12.3"/>
  </g>
  <g>
    <path class="cls-1" d="M377.5,530.9l-23.4-33.2,21.7-29.4h-12.7l-15.4,21.6c-.8-1.5-5.5-8.7-14-21.6h-13.2l21.1,29.9-22.9,32.7h12.9l16.5-24.8,16.3,24.8h13.1"/>
    <polyline class="cls-1" points="448.3 504.9 448.3 494.2 415.8 494.2 415.8 504.9 448.3 504.9"/>
    <path class="cls-1" d="M545.4,530.9l-23.4-33.2,21.7-29.4h-12.7l-15.4,21.6c-.8-1.5-5.4-8.7-14-21.6h-13.2l21.1,29.9-22.9,32.7h12.9l16.5-24.8,16.3,24.8h13.1"/>
  </g>
  <g>
    <path class="cls-2" d="M316.7,429.1c-11.7-18.9-17.6-37.8-17.6-56.9s1.2-17.7,3.5-26.3c2.4-8.7,7.1-18.8,14.1-30.3h-7.6c-6.1,8.1-11.1,16.8-15,26.2-4,9.4-6,19.6-6,30.6s1.9,19.4,5.6,29.3,8.9,19,15.4,27.4h7.6"/>
    <path class="cls-2" d="M380.7,403.7l-23.4-33.3,21.7-29.4h-12.7l-15.3,21.7c-.8-1.5-5.5-8.7-14.1-21.7h-13.2l21.2,30-23,32.7h12.9l16.5-24.8,16.3,24.8h13.1"/>
    <polyline class="cls-2" points="451.5 377.7 451.5 367 419 367 419 377.7 451.5 377.7"/>
    <path class="cls-2" d="M548.6,403.7l-23.4-33.3,21.7-29.4h-12.7l-15.3,21.7c-.8-1.5-5.5-8.7-14.1-21.7h-13.1l21.1,30-23,32.7h13l16.4-24.8,16.3,24.8h13.1"/>
    <path class="cls-2" d="M561.4,315.6h-7.6c11.8,18.9,17.6,37.8,17.6,56.9s-1.1,17.7-3.5,26.4c-2.4,8.6-7.1,18.7-14.1,30.2h7.6c6.1-8.1,11.1-16.8,15.1-26.2,3.9-9.4,5.9-19.6,5.9-30.5s-1.8-19.6-5.6-29.4c-3.7-9.9-8.9-19-15.4-27.4"/>
  </g>
  <g>
    <path class="cls-2" d="M377.5,256.6l-23.4-33.3,21.7-29.4h-12.7l-15.4,21.7c-.8-1.5-5.5-8.7-14-21.7h-13.2l21.1,30-22.9,32.7h12.9l16.5-24.8,16.3,24.8h13.1"/>
    <polyline class="cls-2" points="448.3 230.6 448.3 219.9 415.8 219.9 415.8 230.6 448.3 230.6"/>
    <path class="cls-2" d="M545.4,256.6l-23.4-33.3,21.7-29.4h-12.7l-15.4,21.7c-.8-1.5-5.4-8.7-14-21.7h-13.2l21.1,30-22.9,32.7h12.9l16.5-24.8,16.3,24.8h13.1"/>
  </g>
  <g>
    <path class="cls-2" d="M377.5,109.5l-23.4-33.3,21.7-29.4h-12.7l-15.4,21.7c-.8-1.5-5.5-8.7-14-21.7h-13.2l21.1,30-22.9,32.7h12.9l16.5-24.8,16.3,24.8h13.1"/>
    <polyline class="cls-2" points="448.3 83.5 448.3 72.8 415.8 72.8 415.8 83.5 448.3 83.5"/>
    <path class="cls-2" d="M545.4,109.5l-23.4-33.3,21.7-29.4h-12.7l-15.4,21.7c-.8-1.5-5.4-8.7-14-21.7h-13.2l21.1,30-22.9,32.7h12.9l16.5-24.8,16.3,24.8h13.1"/>
  </g>
  <path class="cls-3" d="M-.4,34.9c0-2.1.2-4.2.6-6.3.4-2.2,1-4.3,1.8-6.5,1.8-4.3,4.3-8.3,7.8-11.7,3.4-3.4,7.4-6,11.7-7.7,2.1-.8,4.3-1.4,6.4-1.8,2.2-.4,4.3-.6,6.3-.6H-.4s0,34.6,0,34.6"/>
</svg>