<?xml version="1.0" encoding="iso-8859-1"?>
<!-- Generator: Adobe Illustrator 16.0.0, SVG Export Plug-In . SVG Version: 6.00 Build 0)  -->
<!DOCTYPE svg PUBLIC "-//W3C//DTD SVG 1.1//EN" "http://www.w3.org/Graphics/SVG/1.1/DTD/svg11.dtd">
<svg version="1.1" id="Layer_1" xmlns="http://www.w3.org/2000/svg" xmlns:xlink="http://www.w3.org/1999/xlink" x="0px" y="0px"
	 width="425.197px" height="425.196px" viewBox="0 0 425.197 425.196" style="enable-background:new 0 0 425.197 425.196;"
	 xml:space="preserve">
<g id="LWPOLYLINE_57_">
	
		<rect x="14.174" y="63.779" style="fill:#005EB8;stroke:#005EB8;stroke-width:0.5;stroke-miterlimit:10;" width="396.849" height="297.638"/>
</g>
<g id="LWPOLYLINE_60_">
	<path style="fill:#FFFFFF;" d="M411.023,334.959c0,14.613-11.846,26.458-26.454,26.458H40.627
		c-14.607,0-26.453-11.845-26.453-26.458V90.237c0-14.612,11.846-26.458,26.453-26.458h343.941
		c14.608,0,26.454,11.846,26.454,26.458V334.959z"/>
</g>
<g id="LWPOLYLINE_59_">
	<path style="fill:#005EB8;" d="M397.792,334.959c0,7.309-5.919,13.231-13.223,13.231H40.627c-7.304,0-13.227-5.923-13.227-13.231
		V90.237c0-7.304,5.923-13.231,13.227-13.231h343.941c7.304,0,13.223,5.928,13.223,13.231V334.959z"/>
</g>
<g id="LWPOLYLINE_88_">
	<path style="fill:#FFFFFF;" d="M313.424,301.671c-1.213,9.173,5.233,17.595,14.407,18.816c9.174,1.213,17.6-5.234,18.813-14.407
		c0.1-0.729,0.146-1.469,0.146-2.207v-5.818c0-9.255-7.495-16.756-16.751-16.756c-1.131,0-2.262,0.114-3.365,0.343l0.593-5.987
		h14.919l-0.83-12.347h-25.223l-3.037,30.38l12.776,2.918c0.62-1.773,2.288-2.964,4.167-2.964c2.435,0,4.404,1.979,4.404,4.413
		v5.818c0,0.775-0.201,1.536-0.584,2.207c-1.222,2.106-3.921,2.831-6.027,1.613c-2.106-1.217-2.826-3.912-1.614-6.022H313.424z"/>
</g>
<g id="LWPOLYLINE_101_">
	<rect x="243.702" y="285.795" style="fill:#FFFFFF;" width="30.867" height="12.347"/>
</g>
<g id="LWPOLYLINE_104_">
	<path style="fill:#FFFFFF;" d="M231.665,288.858c3.292-4.358,4.03-10.135,1.952-15.183c-3.529-8.558-13.325-12.634-21.879-9.104
		c-6.273,2.589-10.368,8.708-10.368,15.492v4.852h12.347v-4.852c0-0.109,0.005-0.21,0.01-0.319c0.178-2.425,2.289-4.254,4.719-4.076
		c2.426,0.174,4.254,2.285,4.076,4.715c-0.041,0.584-0.246,1.14-0.598,1.614l-20.554,27.767v10.869h33.514v-12.347h-17.889
		L231.665,288.858z"/>
</g>
<g id="LWPOLYLINE_106_">
	<path style="fill:#FFFFFF;" d="M172.313,271.943c3.802-1.341,6.574-4.655,7.222-8.636h11.959v57.325h-12.347v-40.31l-5.462,0.994
		L172.313,271.943z"/>
</g>
<g id="LWPOLYLINE_108_">
	<path style="fill:#FFFFFF;" d="M283.167,271.943c3.803-1.341,6.575-4.655,7.223-8.636h11.954v57.325h-12.347v-40.31l-5.462,0.994
		L283.167,271.943z"/>
</g>
<g id="LWPOLYLINE_50_">
	<polygon style="fill:#FFFFFF;" points="60.47,139.844 139.84,139.844 146.457,205.982 133.229,285.353 67.086,285.353 
		53.859,205.982 	"/>
</g>
<g id="LWPOLYLINE_90_">
	<path style="fill:#FFFFFF;" d="M320.072,210.195c-2.928,2.745-4.587,6.584-4.587,10.605v3.702c0,8.038,6.511,14.554,14.554,14.554
		c8.033,0,14.544-6.516,14.544-14.554v-3.702c0-4.021-1.659-7.86-4.586-10.605c2.106-2.416,3.265-5.508,3.265-8.708v-2.116
		c0-7.304-5.919-13.231-13.223-13.231c-7.305,0-13.231,5.928-13.231,13.231v2.116C316.807,204.688,317.965,207.779,320.072,210.195z
		"/>
</g>
<g id="LWPOLYLINE_93_">
	<path style="fill:#FFFFFF;" d="M324.75,114.548c3.119-1.618,5.472-4.418,6.529-7.778h8.016v52.917h-7.934v-40.743l-5.818,1.058
		L324.75,114.548z"/>
</g>
<g id="LWPOLYLINE_94_">
	<path style="fill:#FFFFFF;" d="M311.919,128.901c2.827-3.734,3.456-8.682,1.678-13.013c-3.063-7.427-11.571-10.97-19.004-7.906
		c-5.453,2.248-9,7.56-9,13.455v2.645h7.934v-2.645c0-0.159,0.009-0.319,0.019-0.479c0.264-3.644,3.429-6.384,7.076-6.119
		c3.638,0.265,6.383,3.429,6.118,7.076c-0.072,0.999-0.429,1.961-1.03,2.764l-20.116,27.183v7.938h29.099v-7.938h-20.107
		L311.919,128.901z"/>
</g>
<g id="LWPOLYLINE_95_">
	<path style="fill:#FFFFFF;" d="M203.572,121.323c0-8.033,6.516-14.554,14.554-14.554c8.031,0,14.552,6.521,14.552,14.554v5.736
		c0,1.933-0.21,3.861-0.639,5.754c-2.18,9.803-6.547,18.989-12.777,26.873h-10.583c6.105-6.169,10.77-13.61,13.665-21.79
		c-1.368,0.415-2.791,0.625-4.218,0.625c-8.038,0-14.554-6.516-14.554-14.554V121.323z"/>
</g>
<g id="LWPOLYLINE_98_">
	<path style="fill:#FFFFFF;" d="M203.572,200.693c0-8.033,6.516-14.554,14.554-14.554c8.031,0,14.552,6.521,14.552,14.554v5.736
		c0,1.933-0.21,3.861-0.639,5.754c-2.18,9.803-6.547,18.989-12.777,26.873h-10.583c6.105-6.169,10.77-13.61,13.665-21.79
		c-1.368,0.415-2.791,0.625-4.218,0.625c-8.038,0-14.554-6.516-14.554-14.554V200.693z"/>
</g>
<g id="LWPOLYLINE_99_">
	<rect x="245.909" y="208.632" style="fill:#FFFFFF;" width="26.453" height="7.938"/>
</g>
<g id="LWPOLYLINE_102_">
	<path style="fill:#FFFFFF;" d="M285.593,193.918c3.119-1.618,5.472-4.418,6.529-7.778h8.016v52.917h-7.934v-40.743l-5.818,1.058
		L285.593,193.918z"/>
</g>
<g id="LWPOLYLINE_109_">
	<path style="fill:#FFFFFF;" d="M186.164,248.316h4.182c-7.341-23.248-7.341-48.188,0-71.432h-4.182
		C172.905,198.847,172.905,226.35,186.164,248.316z"/>
</g>
<g id="LWPOLYLINE_110_">
	<path style="fill:#FFFFFF;" d="M362,248.316h-4.186c7.341-23.244,7.341-48.188,0-71.432H362
		C375.258,198.852,375.258,226.354,362,248.316z"/>
</g>
<g id="LWPOLYLINE_48_">
	<path style="fill:#005EB8;" d="M72.444,153.07h55.428l5.289,52.912h-13.163c0-10.956-8.881-19.843-19.842-19.843
		c-10.957,0-19.843,8.887-19.843,19.843H67.155L72.444,153.07z"/>
</g>
<g id="LWPOLYLINE_49_">
	<path style="fill:#005EB8;" d="M110.077,205.982H90.234c0-5.48,4.445-9.921,9.922-9.921
		C105.636,196.062,110.077,200.502,110.077,205.982z"/>
</g>
<g id="LWPOLYLINE_89_">
	<path style="fill:#005EB8;" d="M323.418,224.503c0,3.656,2.964,6.615,6.62,6.615c3.647,0,6.611-2.959,6.611-6.615v-3.702
		c0-3.652-2.964-6.611-6.611-6.611c-3.656,0-6.62,2.959-6.62,6.611V224.503z"/>
</g>
<g id="LWPOLYLINE_91_">
	<path style="fill:#005EB8;" d="M324.741,199.371v2.116c0,2.922,2.37,5.288,5.298,5.288c2.918,0,5.289-2.366,5.289-5.288v-2.116
		c0-2.922-2.371-5.293-5.289-5.293C327.111,194.078,324.741,196.449,324.741,199.371z"/>
</g>
<g id="LWPOLYLINE_92_">
	<path style="fill:#005EB8;" d="M211.509,121.323v2.645c0,3.657,2.964,6.616,6.616,6.616s6.618-2.959,6.618-6.616v-2.645
		c0-3.651-2.966-6.615-6.618-6.615S211.509,117.672,211.509,121.323z"/>
</g>
<g id="LWPOLYLINE_97_">
	<path style="fill:#005EB8;" d="M211.509,200.693v2.645c0,3.657,2.964,6.616,6.616,6.616s6.618-2.959,6.618-6.616v-2.645
		c0-3.651-2.966-6.615-6.618-6.615S211.509,197.042,211.509,200.693z"/>
</g>
<g id="LWPOLYLINE_96_">
	<rect x="245.909" y="129.262" style="fill:#FFFFFF;" width="26.453" height="7.938"/>
</g>
<g id="LWPOLYLINE_87_">
	<path style="fill:#E4002B;" d="M315.485,303.873c0,8.038,6.52,14.554,14.554,14.554c8.033,0,14.554-6.516,14.554-14.554v-5.818
		c0-8.038-6.521-14.553-14.554-14.553c-2.033,0-4.04,0.428-5.891,1.249l1.131-11.303h14.544l-0.528-7.938h-21.165l-2.645,26.459
		l9.265,2.12c1.249-1.669,3.21-2.649,5.289-2.649c3.647,0,6.611,2.959,6.611,6.615v5.818c0,3.656-2.964,6.615-6.611,6.615
		c-3.656,0-6.62-2.959-6.62-6.615H315.485z"/>
</g>
<g id="LWPOLYLINE_100_">
	<rect x="245.909" y="288.002" style="fill:#E4002B;" width="26.453" height="7.938"/>
</g>
<g id="LWPOLYLINE_103_">
	<path style="fill:#E4002B;" d="M229.905,287.532c2.817-3.739,3.456-8.686,1.669-13.013c-3.055-7.432-11.565-10.97-18.997-7.906
		c-5.448,2.243-9.005,7.555-9.005,13.45v2.645h7.938v-2.645c0-0.159,0.005-0.319,0.019-0.479c0.265-3.643,3.434-6.383,7.076-6.119
		c3.644,0.265,6.386,3.434,6.121,7.076c-0.072,0.999-0.429,1.956-1.028,2.768l-20.125,27.179v7.938h29.105v-7.938h-20.109
		L229.905,287.532z"/>
</g>
<g id="LWPOLYLINE_105_">
	<path style="fill:#E4002B;" d="M174.738,273.288c3.124-1.618,5.477-4.418,6.534-7.778h8.016v52.917h-7.938v-40.743l-5.813,1.058
		L174.738,273.288z"/>
</g>
<g id="LWPOLYLINE_107_">
	<path style="fill:#E4002B;" d="M285.593,273.288c3.119-1.618,5.472-4.418,6.529-7.778h8.016v52.917h-7.934v-40.743l-5.818,1.058
		L285.593,273.288z"/>
</g>
</svg>
