<?xml version="1.0" encoding="utf-8"?>
<!-- Generator: Adobe Illustrator 28.0.0, SVG Export Plug-In . SVG Version: 6.00 Build 0)  -->
<svg version="1.1" id="Layer_1" xmlns="http://www.w3.org/2000/svg" xmlns:xlink="http://www.w3.org/1999/xlink" x="0px" y="0px"
	 viewBox="0 0 425.2 425.2" style="enable-background:new 0 0 425.2 425.2;" xml:space="preserve">
<style type="text/css">
	.st0{fill:#FFCD00;}
	.st1{fill:#E4002B;}
	.st2{fill:#101820;}
</style>
<g id="LWPOLYLINE_88_">
	<rect x="29.44" y="14.17" class="st0" width="366.32" height="396.85"/>
</g>
<g id="LWPOLYLINE_86_">
	<path class="st1" d="M395.76,38.59c0-13.48-10.93-24.42-24.42-24.42H53.86c-13.48,0-24.42,10.93-24.42,24.42V386.6
		c0,13.49,10.93,24.43,24.42,24.43h317.49c13.48,0,24.42-10.93,24.42-24.43V38.59z"/>
</g>
<g id="LWPOLYLINE_87_">
	<path class="st0" d="M41.65,386.6c0,6.75,5.46,12.21,12.21,12.21h317.49c6.74,0,12.21-5.47,12.21-12.21V38.59
		c0-6.74-5.46-12.21-12.21-12.21H53.86c-6.74,0-12.21,5.46-12.21,12.21V386.6z"/>
</g>
<g id="LWPOLYLINE_53_">
	<polygon class="st2" points="60.47,58 139.84,58 146.46,124.14 133.23,203.51 67.09,203.51 53.86,124.14 	"/>
</g>
<g id="LWPOLYLINE_51_">
	<path class="st0" d="M72.44,71.23h55.43l5.29,52.91H120c0-10.96-8.88-19.84-19.84-19.84c-10.96,0-19.84,8.89-19.84,19.84H67.15
		L72.44,71.23z"/>
</g>
<g id="LWPOLYLINE_52_">
	<path class="st0" d="M110.08,124.14H90.23c0-5.48,4.45-9.92,9.92-9.92C105.64,114.22,110.08,118.66,110.08,124.14z"/>
</g>
</svg>
