<?xml version="1.0" encoding="iso-8859-1"?>
<!-- Generator: Adobe Illustrator 16.0.0, SVG Export Plug-In . SVG Version: 6.00 Build 0)  -->
<!DOCTYPE svg PUBLIC "-//W3C//DTD SVG 1.1//EN" "http://www.w3.org/Graphics/SVG/1.1/DTD/svg11.dtd">
<svg version="1.1" id="Layer_1" xmlns="http://www.w3.org/2000/svg" xmlns:xlink="http://www.w3.org/1999/xlink" x="0px" y="0px"
	 width="425.197px" height="425.196px" viewBox="0 0 425.197 425.196" style="enable-background:new 0 0 425.197 425.196;"
	 xml:space="preserve">
<g id="LWPOLYLINE_43_">
	<rect x="14.174" y="14.17" style="fill:#FFCD00;" width="396.849" height="396.856"/>
</g>
<g id="LWPOLYLINE_45_">
	<path style="fill:#E4002B;" d="M379.277,14.17H45.924c-17.536,0-31.75,14.214-31.75,31.75v333.356
		c0,17.535,14.214,31.75,31.75,31.75h333.353c17.531,0,31.746-14.215,31.746-31.75V45.92
		C411.023,28.384,396.808,14.17,379.277,14.17z"/>
</g>
<g id="LWPOLYLINE_44_">
	<path style="fill:#FFCD00;" d="M379.277,30.047H45.924c-8.771,0-15.877,7.107-15.877,15.873v333.356
		c0,8.77,7.107,15.871,15.877,15.871h333.353c8.766,0,15.879-7.102,15.879-15.871V45.92
		C395.156,37.155,388.042,30.047,379.277,30.047z"/>
</g>
<g id="LWPOLYLINE_48_">
	<path style="fill:#101820;" d="M280.06,190.302v181.035H256.25V237.685c-36.359,59.938-90.695,106.887-155.278,134.166
		l-18.799-43.748c109.606-46.178,179.144-155.413,174.591-274.26l47.656,0.017C305.951,100.541,297.656,147.024,280.06,190.302z"/>
</g>
</svg>
