<?xml version="1.0" encoding="iso-8859-1"?>
<!-- Generator: Adobe Illustrator 16.0.0, SVG Export Plug-In . SVG Version: 6.00 Build 0)  -->
<!DOCTYPE svg PUBLIC "-//W3C//DTD SVG 1.1//EN" "http://www.w3.org/Graphics/SVG/1.1/DTD/svg11.dtd">
<svg version="1.1" id="Layer_1" xmlns="http://www.w3.org/2000/svg" xmlns:xlink="http://www.w3.org/1999/xlink" x="0px" y="0px"
	 width="425.197px" height="425.196px" viewBox="0 0 425.197 425.196" style="enable-background:new 0 0 425.197 425.196;"
	 xml:space="preserve">
<g id="LWPOLYLINE_43_">
	<rect x="14.174" y="14.17" style="fill:#FFCD00;" width="396.849" height="396.856"/>
</g>
<g id="LWPOLYLINE_45_">
	<path style="fill:#E4002B;" d="M379.277,14.17H45.924c-17.536,0-31.75,14.214-31.75,31.75v333.356
		c0,17.535,14.214,31.75,31.75,31.75h333.353c17.531,0,31.746-14.215,31.746-31.75V45.92
		C411.023,28.384,396.808,14.17,379.277,14.17z"/>
</g>
<g id="LWPOLYLINE_44_">
	<path style="fill:#FFCD00;" d="M379.277,30.047H45.924c-8.771,0-15.877,7.107-15.877,15.873v333.356
		c0,8.77,7.107,15.871,15.877,15.871h333.353c8.766,0,15.879-7.102,15.879-15.871V45.92
		C395.156,37.155,388.042,30.047,379.277,30.047z"/>
</g>
<g id="LWPOLYLINE_46_">
	<path style="fill:#101820;" d="M304.003,371.337c1.75-53.41-9.379-106.455-32.445-154.656l68.053-153.17l-21.775-9.651
		L257.3,190.073c-36.299-60.961-91.133-108.731-156.488-136.345L82.008,97.482C191.456,143.588,260.9,252.665,256.347,371.337
		H304.003z"/>
</g>
</svg>
