<?xml version="1.0" encoding="iso-8859-1"?>
<!-- Generator: Adobe Illustrator 16.0.0, SVG Export Plug-In . SVG Version: 6.00 Build 0)  -->
<!DOCTYPE svg PUBLIC "-//W3C//DTD SVG 1.1//EN" "http://www.w3.org/Graphics/SVG/1.1/DTD/svg11.dtd">
<svg version="1.1" id="Layer_1" xmlns="http://www.w3.org/2000/svg" xmlns:xlink="http://www.w3.org/1999/xlink" x="0px" y="0px"
	 width="425.197px" height="425.196px" viewBox="0 0 425.197 425.196" style="enable-background:new 0 0 425.197 425.196;"
	 xml:space="preserve">
<g id="LWPOLYLINE_40_">
	
		<rect x="14.175" y="47.242" style="fill:#005EB8;stroke:#005EB8;stroke-width:0.5;stroke-miterlimit:10;" width="396.846" height="330.712"/>
</g>
<g id="LWPOLYLINE_48_">
	<path style="fill:#FFFFFF;" d="M14.175,86.927v251.342c0,21.922,17.764,39.686,39.686,39.686h317.476
		c21.922,0,39.685-17.764,39.685-39.686V86.927c0-21.912-17.763-39.685-39.685-39.685H53.861
		C31.939,47.242,14.175,65.015,14.175,86.927z"/>
</g>
<g id="LWPOLYLINE_49_">
	<path style="fill:#005EB8;" d="M34.018,86.927v251.342c0,10.961,8.882,19.843,19.843,19.843h317.476
		c10.961,0,19.842-8.882,19.842-19.843V86.927c0-10.951-8.881-19.842-19.842-19.842H53.861C42.9,67.085,34.018,75.976,34.018,86.927
		z"/>
</g>
<g id="LWPOLYLINE_46_">
	<polygon style="fill:#FFFFFF;" points="316.769,291.964 316.769,183.186 351.494,217.91 351.494,182.83 301.887,133.224 
		252.281,182.83 252.281,217.91 287.005,183.186 287.005,291.964 	"/>
</g>
<g id="LWPOLYLINE_47_">
	<polygon style="fill:#FFFFFF;" points="138.191,133.224 138.191,242.011 172.916,207.286 172.916,242.357 123.309,291.964 
		73.704,242.357 73.704,207.286 108.427,242.011 108.427,133.224 	"/>
</g>
</svg>
