<?xml version="1.0" encoding="UTF-8"?>
<svg id="Layer_1" data-name="Layer 1" xmlns="http://www.w3.org/2000/svg" version="1.1" viewBox="0 0 395 330">
  <defs>
    <style>
      .cls-1 {
        fill: #231f20;
      }

      .cls-1, .cls-2 {
        stroke-width: 0px;
      }

      .cls-2 {
        fill: #fecf0c;
      }
    </style>
  </defs>
  <g id="LWPOLYLINE">
    <rect class="cls-2" x="0" width="395" height="330"/>
  </g>
  <g id="LWPOLYLINE-2">
    <path class="cls-1" d="M395,307.2c0,20.8-8.6,22.8-23.1,22.8H20.7C6.2,330,0,320.8,0,300V24.2C0,3.4,11.8,0,26.3,0h342.3c14.5,0,26.3,3.4,26.3,24.2v248.3h0l.2,34.7Z"/>
  </g>
  <g id="LWPOLYLINE-3">
    <path class="cls-2" d="M381.8,304c0,10.5-5.6,13.4-12.9,13.4H24.7c-7.3,0-11.6-3.4-11.6-13.8V28.7c0-10.5,7.2-15.2,14.5-15.2l341.3.4c7.3,0,12.9,3.8,12.9,14.1v276.1Z"/>
  </g>
</svg>