<?xml version="1.0" encoding="UTF-8"?>
<svg id="Layer_1" data-name="Layer 1" xmlns="http://www.w3.org/2000/svg" version="1.1" viewBox="0 0 395 290">
  <defs>
    <style>
      .cls-1 {
        fill: #231f20;
      }

      .cls-1, .cls-2 {
        stroke-width: 0px;
      }

      .cls-2 {
        fill: #fecf0c;
      }
    </style>
  </defs>
  <g id="LWPOLYLINE">
    <rect class="cls-2" width="395" height="290.7"/>
  </g>
  <g id="LWPOLYLINE-2">
    <path class="cls-1" d="M395.1,270.7c0,18.3-8.6,20.1-23.1,20.1H20.7c-14.5,0-20.7-8.1-20.7-26.4V21.3C0,3,11.8,0,26.3,0h342.3c14.5,0,26.3,3,26.3,21.3v218.8h0l.2,30.6Z"/>
  </g>
  <g id="LWPOLYLINE-3">
    <path class="cls-2" d="M381.8,264.6c0,9.2-5.9,12.1-13.2,12.1H26.3c-7.3,0-13.2-3.6-13.2-12.7V32.4c0-9.2,7.6-17.8,14.9-17.8h341.4c7.3,0,12.4,8.1,12.4,17.2v232.8Z"/>
  </g>
</svg>