<?xml version="1.0" encoding="UTF-8"?>
<svg id="Layer_1" data-name="Layer 1" xmlns="http://www.w3.org/2000/svg" version="1.1" viewBox="0 0 395 150">
  <defs>
    <style>
      .cls-1 {
        fill: #231f20;
      }

      .cls-1, .cls-2 {
        stroke-width: 0px;
      }

      .cls-2 {
        fill: #fecf0c;
      }
    </style>
  </defs>
  <g id="LWPOLYLINE">
    <rect class="cls-2" x="0" width="395.6" height="150.2"/>
  </g>
  <g id="LWPOLYLINE-2">
    <path class="cls-1" d="M395.6,133c0,9.5.5,17.4-14,17.4H18.2C3.7,150.5,0,142.5,0,133V17.2C0,7.7,4.4,0,18.9,0h359.5c14.5,0,17.1,7.7,17.1,17.2v115.9h.1Z"/>
  </g>
  <g id="LWPOLYLINE-3">
    <path class="cls-2" d="M386.6,133c0,4.8-.2,8.6-7.7,8.6l-360.5-.6c-7.5,0-8.6-3.3-8.6-8V17.2c0-4.8,3.4-8.6,10.8-8.6h356.6c7.5,0,9.3,3.9,9.3,8.6v115.9Z"/>
  </g>
</svg>