<?xml version="1.0" encoding="utf-8"?>
<!-- Generator: Adobe Illustrator 28.0.0, SVG Export Plug-In . SVG Version: 6.00 Build 0)  -->
<svg version="1.1" id="Layer_1" xmlns="http://www.w3.org/2000/svg" xmlns:xlink="http://www.w3.org/1999/xlink" x="0px" y="0px"
	 viewBox="0 0 425.2 425.2" style="enable-background:new 0 0 425.2 425.2;" xml:space="preserve">
<style type="text/css">
	.st0{fill:#FFCD00;}
	.st1{fill:#E4002B;}
	.st2{fill:#101820;}
</style>
<g id="LWPOLYLINE_59_">
	<rect x="14.17" y="119.58" class="st0" width="396.85" height="186.04"/>
</g>
<g id="LWPOLYLINE_61_">
	<path class="st1" d="M38.98,305.62h347.24c13.7,0,24.81-11.1,24.81-24.8V144.38c0-13.69-11.11-24.8-24.81-24.8H38.98
		c-13.7,0-24.81,11.11-24.81,24.8v136.44C14.17,294.51,25.28,305.62,38.98,305.62z"/>
</g>
<g id="LWPOLYLINE_60_">
	<path class="st0" d="M38.98,293.21h347.24c6.86,0,12.41-5.55,12.41-12.4V144.38c0-6.85-5.55-12.4-12.41-12.4H38.98
		c-6.85,0-12.4,5.55-12.4,12.4v136.44C26.58,287.67,32.13,293.21,38.98,293.21z"/>
</g>
<g id="LWPOLYLINE_7_">
	<polygon class="st2" points="229.31,243.6 220.01,243.6 220.01,181.59 229.31,181.59 229.31,215.86 241.72,197.09 251.02,197.09 
		240.4,213.02 251.08,243.61 241.72,243.6 234.24,222.25 229.31,229.65 	"/>
</g>
<g id="LWPOLYLINE_6_">
	<polygon class="st2" points="79.28,259.11 79.28,197.3 100.98,219.01 100.98,197.09 69.98,166.08 38.98,197.09 38.98,219.01 
		60.68,197.3 60.68,259.11 	"/>
</g>
<g id="LWPOLYLINE_5_">
	<polygon class="st2" points="364.52,259.11 364.52,197.3 386.22,219.01 386.22,197.09 355.22,166.08 324.21,197.09 324.21,219.01 
		345.92,197.3 345.92,259.11 	"/>
</g>
<g id="LWPOLYLINE_2_">
	<path class="st2" d="M302.54,208.89c0-2.39-1.94-4.34-4.34-4.34h-0.62c-4.11,0-7.45,3.33-7.45,7.44v31.62h-9.3v-34.73
		c0-2.39-1.94-4.34-4.34-4.34h-0.62c-4.1,0-7.44,3.33-7.44,7.44v31.62h-9.3v-46.51h9.3v3.72c3.04-1.88,6.44-3.12,9.98-3.64
		c0.44-0.06,0.87-0.08,1.31-0.05c3.47,0.23,6.63,2.07,8.56,4.97c3.47-2.6,7.54-4.29,11.84-4.91c0.43-0.06,0.87-0.08,1.31-0.05
		c5.86,0.39,10.41,5.26,10.41,11.14v35.34h-9.3V208.89z"/>
</g>
<g id="LWPOLYLINE_1_">
	<polygon class="st0" points="123.89,221.9 136.3,200.11 136.3,221.9 	"/>
</g>
</svg>
