<?xml version="1.0" encoding="utf-8"?>
<!-- Generator: Adobe Illustrator 27.0.1, SVG Export Plug-In . SVG Version: 6.00 Build 0)  -->
<svg version="1.1" id="Layer_1" xmlns="http://www.w3.org/2000/svg" xmlns:xlink="http://www.w3.org/1999/xlink" x="0px" y="0px"
	 viewBox="0 0 425.2 425.2" style="enable-background:new 0 0 425.2 425.2;" xml:space="preserve">
<style type="text/css">
	.st0{fill:#FFCD00;}
	.st1{fill:#E4002B;}
</style>
<g id="LWPOLYLINE_3_">
	<rect x="14.17" y="129.92" class="st0" width="396.85" height="165.36"/>
</g>
<g id="LWPOLYLINE_1_">
	<path class="st1" d="M40.63,129.92h343.94c14.61,0,26.46,11.85,26.46,26.46v112.44c0,14.61-11.85,26.46-26.46,26.46H40.63
		c-14.61,0-26.45-11.85-26.45-26.46V156.38C14.17,141.77,26.02,129.92,40.63,129.92z"/>
</g>
<g id="LWPOLYLINE_2_">
	<path class="st0" d="M40.63,143.15h343.94c7.3,0,13.23,5.93,13.23,13.23v112.44c0,7.31-5.92,13.23-13.23,13.23H40.63
		c-7.3,0-13.23-5.92-13.23-13.23V156.38C27.4,149.07,33.32,143.15,40.63,143.15z"/>
</g>
<g id="LWPOLYLINE_61_">
	<path class="st0" d="M229.46,197.71c0-4.56-3.7-8.27-8.27-8.27c-4.57,0-8.27,3.7-8.27,8.27v29.76c0,4.57,3.7,8.27,8.27,8.27
		c4.56,0,8.27-3.7,8.27-8.27V197.71z"/>
</g>
<g id="LWPOLYLINE_63_">
	<path class="st0" d="M175.89,197.71c0-4.56-3.7-8.27-8.27-8.27c-4.56,0-8.27,3.7-8.27,8.27v29.76c0,4.57,3.7,8.27,8.27,8.27
		c4.57,0,8.27-3.7,8.27-8.27V197.71z"/>
</g>
</svg>
