<?xml version="1.0" encoding="iso-8859-1"?>
<!-- Generator: Adobe Illustrator 16.0.0, SVG Export Plug-In . SVG Version: 6.00 Build 0)  -->
<!DOCTYPE svg PUBLIC "-//W3C//DTD SVG 1.1//EN" "http://www.w3.org/Graphics/SVG/1.1/DTD/svg11.dtd">
<svg version="1.1" id="Layer_1" xmlns="http://www.w3.org/2000/svg" xmlns:xlink="http://www.w3.org/1999/xlink" x="0px" y="0px"
	 width="425.197px" height="425.196px" viewBox="0 0 425.197 425.196" style="enable-background:new 0 0 425.197 425.196;"
	 xml:space="preserve">
<g id="LWPOLYLINE_3_">
	<rect x="14.173" y="129.92" style="fill:#005EB8;stroke:#005EB8;stroke-miterlimit:10;" width="396.851" height="165.356"/>
</g>
<g id="LWPOLYLINE_1_">
	<path style="fill:#FFFFFF;" d="M40.626,129.92h343.939c14.612,0,26.458,11.846,26.458,26.458v112.439
		c0,14.613-11.846,26.459-26.458,26.459H40.626c-14.608,0-26.453-11.846-26.453-26.459V156.378
		C14.173,141.766,26.018,129.92,40.626,129.92z"/>
</g>
<g id="LWPOLYLINE_2_">
	<path style="fill:#005EB8;" d="M40.626,143.146h343.939c7.304,0,13.227,5.929,13.227,13.231v112.439
		c0,7.309-5.923,13.227-13.227,13.227H40.626c-7.304,0-13.227-5.918-13.227-13.227V156.378
		C27.4,149.075,33.323,143.146,40.626,143.146z"/>
</g>
<g id="LWPOLYLINE_60_">
	<path style="fill:#FFFFFF;" d="M239.385,197.714c0-10.045-8.144-18.188-18.188-18.188c-10.049,0-18.192,8.143-18.192,18.188v29.764
		c0,10.049,8.144,18.191,18.192,18.191c10.044,0,18.188-8.143,18.188-18.191V197.714z"/>
</g>
<g id="LWPOLYLINE_62_">
	<path style="fill:#FFFFFF;" d="M149.432,197.714v29.764c0,10.049,8.144,18.191,18.188,18.191c10.045,0,18.188-8.143,18.188-18.191
		v-29.764c0-10.045-8.143-18.188-18.188-18.188C157.576,179.526,149.432,187.669,149.432,197.714z"/>
</g>
<g id="LWPOLYLINE_64_">
	<path style="fill:#FFFFFF;" d="M96.516,227.478c0,10.049,8.147,18.191,18.192,18.191c10.044,0,18.187-8.143,18.187-18.191v-4.627
		c0-5.02-2.074-9.822-5.735-13.26c2.631-3.014,4.081-6.879,4.081-10.883v-2.645c0-9.133-7.4-16.537-16.532-16.537
		c-9.133,0-16.537,7.404-16.537,16.537h9.921c0-3.656,2.964-6.615,6.616-6.615c3.651,0,6.61,2.959,6.61,6.615v2.645
		c0,3.652-2.959,6.615-6.61,6.615h-2.645v9.26h2.645c4.563,0,8.266,3.703,8.266,8.268v4.627c0,4.568-3.702,8.271-8.266,8.271
		c-4.569,0-8.271-3.703-8.271-8.271H96.516z"/>
</g>
<g id="LWPOLYLINE_67_">
	<path style="fill:#FFFFFF;" d="M318.755,208.483c0-2.553-2.075-4.627-4.633-4.627h-0.661c-4.382,0-7.934,3.551-7.934,7.938v33.73
		h-9.921v-37.041c0-2.553-2.074-4.627-4.633-4.627h-0.661c-4.381,0-7.938,3.551-7.938,7.938v33.73h-9.921v-49.607h9.921v3.967
		c3.242-2.01,6.866-3.332,10.642-3.885c0.465-0.063,0.931-0.082,1.399-0.055c3.698,0.246,7.072,2.207,9.124,5.299
		c3.706-2.771,8.047-4.578,12.629-5.244c0.461-0.063,0.931-0.082,1.396-0.055c6.251,0.42,11.111,5.613,11.111,11.883v37.697h-9.921
		V208.483z"/>
</g>
<g id="LWPOLYLINE_61_">
	<path style="fill:#005EB8;" d="M229.463,197.714c0-4.564-3.702-8.266-8.266-8.266c-4.568,0-8.271,3.701-8.271,8.266v29.764
		c0,4.568,3.703,8.271,8.271,8.271c4.563,0,8.266-3.703,8.266-8.271V197.714z"/>
</g>
<g id="LWPOLYLINE_63_">
	<path style="fill:#005EB8;" d="M175.886,197.714c0-4.564-3.698-8.266-8.267-8.266c-4.563,0-8.266,3.701-8.266,8.266v29.764
		c0,4.568,3.702,8.271,8.266,8.271c4.568,0,8.267-3.703,8.267-8.271V197.714z"/>
</g>
</svg>
