<?xml version="1.0" encoding="UTF-8"?>
<svg id="Layer_1" data-name="Layer 1" xmlns="http://www.w3.org/2000/svg" version="1.1" viewBox="0 0 395 460">
  <defs>
    <style>
      .cls-1 {
        fill: #231f20;
      }

      .cls-1, .cls-2 {
        stroke-width: 0px;
      }

      .cls-2 {
        fill: #fecf0c;
      }
    </style>
  </defs>
  <g id="LWPOLYLINE">
    <rect class="cls-2" x="-.3" width="395" height="460"/>
  </g>
  <g id="LWPOLYLINE-2">
    <path class="cls-1" d="M394.7,407.4c0,29-20,52.6-34.5,52.6H35.6c-14.5,0-35.8-23.6-35.8-52.6V52.6C-.3,23.6,23.1,0,37.6,0h320c14.5,0,37.1,23.6,37.1,52.6v354.8h.1Z"/>
  </g>
  <g id="LWPOLYLINE-3">
    <path class="cls-2" d="M374.6,413.6c0,15.1-17.2,27.1-24.2,27.1H37.9c-7,0-18.8-12.2-18.8-27.1V46.5c0-15.1,13.8-27.1,20.8-27.1h309.7c7,0,24.9,12.2,24.9,27.1v367.1Z"/>
  </g>
</svg>