<?xml version="1.0" encoding="iso-8859-1"?>
<!-- Generator: Adobe Illustrator 16.0.0, SVG Export Plug-In . SVG Version: 6.00 Build 0)  -->
<!DOCTYPE svg PUBLIC "-//W3C//DTD SVG 1.1//EN" "http://www.w3.org/Graphics/SVG/1.1/DTD/svg11.dtd">
<svg version="1.1" id="Layer_1" xmlns="http://www.w3.org/2000/svg" xmlns:xlink="http://www.w3.org/1999/xlink" x="0px" y="0px"
	 width="425.197px" height="425.196px" viewBox="0 0 425.197 425.196" style="enable-background:new 0 0 425.197 425.196;"
	 xml:space="preserve">
<g id="LWPOLYLINE_56_">
	<rect x="14.171" y="14.173" style="fill:#005EB8;" width="396.854" height="396.851"/>
</g>
<g id="LWPOLYLINE_54_">
	<path style="fill:#FFFFFF;" d="M411.025,373.818V51.377c0-20.551-16.66-37.204-37.203-37.204H51.376
		c-20.544,0-37.205,16.653-37.205,37.204v322.441c0,20.545,16.66,37.205,37.205,37.205h322.446
		C394.365,411.023,411.025,394.363,411.025,373.818z"/>
</g>
<g id="LWPOLYLINE_55_">
	<path style="fill:#005EB8;" d="M391.179,373.818V51.377c0-9.588-7.77-17.364-17.357-17.364H51.376
		c-9.588,0-17.357,7.776-17.357,17.364v322.441c0,9.589,7.769,17.357,17.357,17.357h322.446
		C383.41,391.176,391.179,383.407,391.179,373.818z"/>
</g>
<g id="LWPOLYLINE_53_">
	
		<rect x="14.171" y="14.173" style="fill:none;stroke:#005EB8;stroke-width:0.5;stroke-miterlimit:10;" width="396.854" height="396.851"/>
</g>
<g id="LWPOLYLINE_63_">
	<polygon style="fill:#FFFFFF;" points="81.933,133.228 114.675,133.228 114.675,124.303 90.865,124.303 90.865,106.438 
		106.933,106.438 106.933,97.514 90.865,97.514 90.865,82.632 114.675,82.632 114.675,73.7 81.933,73.7 	"/>
</g>
<g id="LWPOLYLINE_64_">
	<rect x="125.385" y="88.582" style="fill:#FFFFFF;" width="8.932" height="44.646"/>
</g>
<g id="LWPOLYLINE_65_">
	<rect x="125.385" y="73.7" style="fill:#FFFFFF;" width="8.932" height="8.932"/>
</g>
<g id="LWPOLYLINE_66_">
	<polygon style="fill:#FFFFFF;" points="173.012,133.228 164.08,133.228 164.08,73.7 173.012,73.7 173.012,106.589 184.912,88.582 
		193.844,88.582 183.654,103.867 193.912,133.241 184.912,133.228 177.745,112.73 173.012,119.836 	"/>
</g>
<g id="LWPOLYLINE_67_">
	<path style="fill:#FFFFFF;" d="M200.396,118.346c0,8.221,6.661,14.882,14.881,14.882c8.221,0,14.883-6.661,14.883-14.882v-14.882
		c0-8.214-6.662-14.882-14.883-14.882c-8.22,0-14.881,6.668-14.881,14.882V118.346z"/>
</g>
<g id="LWPOLYLINE_69_">
	<path style="fill:#FFFFFF;" d="M238.49,118.346c0,8.221,6.66,14.882,14.881,14.882h1.191c7.234,0,13.104-5.861,13.104-13.097
		c0-4.658-2.477-8.967-6.512-11.313l-9.875-5.758c-0.916-0.534-1.479-1.512-1.479-2.572c0-1.641,1.342-2.975,2.982-2.975h1.779
		c1.641,0,2.98,1.334,2.98,2.975h8.932c0-6.579-5.334-11.906-11.912-11.906h-1.779c-6.578,0-11.914,5.327-11.914,11.906
		c0,4.24,2.258,8.152,5.91,10.286l9.889,5.759c1.271,0.745,2.066,2.12,2.066,3.598c0,2.305-1.861,4.172-4.172,4.172h-1.191
		c-3.281,0-5.949-2.668-5.949-5.957H238.49z"/>
</g>
<g id="LWPOLYLINE_70_">
	<polygon style="fill:#FFFFFF;" points="286.705,133.228 277.787,133.228 277.787,73.7 286.705,73.7 286.705,106.589 
		298.619,88.582 307.55,88.582 297.347,103.867 307.605,133.241 298.619,133.228 291.437,112.73 286.705,119.836 	"/>
</g>
<g id="LWPOLYLINE_71_">
	<path style="fill:#FFFFFF;" d="M334.332,118.346h8.932c0,8.221-6.66,14.882-14.881,14.882s-14.883-6.661-14.883-14.882v-14.882
		c0-8.214,6.662-14.882,14.883-14.882s14.881,6.668,14.881,14.882v8.337h-20.832v6.545c0,3.289,2.654,5.957,5.951,5.957
		C331.666,124.303,334.332,121.635,334.332,118.346z"/>
</g>
<g id="LWPOLYLINE_76_">
	<path style="fill:#FFFFFF;" d="M260.593,224.48l14.006,19.991c5.377-3.181,11.23-5.458,17.33-6.75
		c31.078-6.593,61.607,13.254,68.199,44.331c6.58,31.069-13.268,61.605-44.344,68.191c-31.063,6.586-61.592-13.261-68.186-44.337
		h-20.107c-4.637,0-9.055-1.942-12.174-5.362l-67.679-72.166l-3.857,12.652c24.798,10.512,38.982,36.822,34.127,63.316
		c-5.731,31.24-35.687,51.929-66.941,46.205c-31.238-5.718-51.926-35.687-46.208-66.935c5.725-31.247,35.693-51.929,66.944-46.211
		l16.414-53.886c2.462-8.084,9.93-13.603,18.37-13.603h22.159v12.611h-22.159c-2.886,0-5.444,1.901-6.292,4.671l-4.596,15.087
		l93.75,16.216l9.658-26.119l-21.297-5.847c-1.287-0.493-2.107-1.751-2.025-3.119c0.096-1.743,1.574-3.077,3.324-2.975h1.654h46.055
		v12.447h-14.443L260.593,224.48z"/>
</g>
<g id="LWPOLYLINE_68_">
	<path style="fill:#005EB8;" d="M209.327,118.346c0,3.289,2.668,5.957,5.95,5.957c3.283,0,5.951-2.668,5.951-5.957v-14.882
		c0-3.29-2.668-5.95-5.951-5.95c-3.282,0-5.95,2.66-5.95,5.95V118.346z"/>
</g>
<g id="LWPOLYLINE_72_">
	<path style="fill:#005EB8;" d="M322.431,104.059h11.9v-0.595c0-3.29-2.666-5.95-5.949-5.95c-3.297,0-5.951,2.66-5.951,5.95V104.059
		z"/>
</g>
<g id="LWPOLYLINE_73_">
	<polygon style="fill:#005EB8;" points="151.893,214.455 244.89,230.547 222.869,290.088 	"/>
</g>
<g id="LWPOLYLINE_74_">
	<path style="fill:#005EB8;" d="M271.837,262.52c-8.084,8.228-12.68,19.245-12.857,30.776h34.414L271.837,262.52z"/>
</g>
<g id="LWPOLYLINE_75_">
	<path style="fill:#005EB8;" d="M246.355,293.296c0.191-15.648,6.742-30.536,18.137-41.247l-9.219-13.172l-20.135,54.419h11.299
		H246.355z"/>
</g>
<g id="LWPOLYLINE_77_">
	<path style="fill:#005EB8;" d="M308.562,292.954c0.971,1.388,1.492,3.036,1.492,4.726c0,4.548-3.68,8.228-8.234,8.228h-41.24
		c6.594,23.909,31.309,37.942,55.205,31.35c23.91-6.586,37.943-31.302,31.35-55.204c-6.578-23.903-31.295-37.943-55.205-31.351
		c-3.514,0.971-6.893,2.359-10.066,4.145L308.562,292.954"/>
</g>
<g id="LWPOLYLINE_78_">
	<path style="fill:#005EB8;" d="M140.075,253.191l-12.611,41.403c-0.082,0.37-0.191,0.732-0.328,1.081
		c-1.313,3.241-5.02,4.808-8.262,3.494c-3.242-1.319-4.801-5.013-3.488-8.254l12.598-41.336
		c-24.515-3.666-47.371,13.227-51.043,37.752c-3.68,24.518,13.22,47.374,37.748,51.047c24.511,3.672,47.367-13.227,51.047-37.745
		C168.69,280.876,158.24,261.535,140.075,253.191z"/>
</g>
</svg>
