<?xml version="1.0" encoding="iso-8859-1"?>
<!-- Generator: Adobe Illustrator 16.0.0, SVG Export Plug-In . SVG Version: 6.00 Build 0)  -->
<!DOCTYPE svg PUBLIC "-//W3C//DTD SVG 1.1//EN" "http://www.w3.org/Graphics/SVG/1.1/DTD/svg11.dtd">
<svg version="1.1" id="Layer_1" xmlns="http://www.w3.org/2000/svg" xmlns:xlink="http://www.w3.org/1999/xlink" x="0px" y="0px"
	 width="425.197px" height="425.196px" viewBox="0 0 425.197 425.196" style="enable-background:new 0 0 425.197 425.196;"
	 xml:space="preserve">
<g id="LWPOLYLINE_55_">
	
		<rect x="14.174" y="80.314" style="fill:#005EB8;stroke:#005EB8;stroke-width:0.5;stroke-miterlimit:10;" width="396.849" height="264.567"/>
</g>
<g id="LWPOLYLINE_54_">
	<path style="fill:#FFFFFF;" d="M40.627,344.882h343.941c14.608,0,26.454-11.844,26.454-26.457V106.772
		c0-14.612-11.846-26.458-26.454-26.458H40.627c-14.607,0-26.453,11.846-26.453,26.458v211.652
		C14.174,333.038,26.02,344.882,40.627,344.882z"/>
</g>
<g id="LWPOLYLINE_53_">
	<path style="fill:#005EB8;" d="M40.627,331.651h343.941c7.304,0,13.223-5.918,13.223-13.227V106.772
		c0-7.304-5.919-13.231-13.223-13.231H40.627c-7.304,0-13.227,5.928-13.227,13.231v211.652
		C27.401,325.733,33.324,331.651,40.627,331.651z"/>
</g>
<g id="LWPOLYLINE_56_">
	<polygon style="fill:#FFFFFF;" points="125.488,156.379 147.316,156.379 147.316,150.425 131.442,150.425 131.442,138.52 
		142.157,138.52 142.157,132.569 131.442,132.569 131.442,122.648 147.316,122.648 147.316,116.694 125.488,116.694 	"/>
</g>
<g id="LWPOLYLINE_57_">
	<rect x="154.456" y="126.615" style="fill:#FFFFFF;" width="5.955" height="29.764"/>
</g>
<g id="LWPOLYLINE_58_">
	<rect x="154.456" y="116.694" style="fill:#FFFFFF;" width="5.955" height="5.954"/>
</g>
<g id="LWPOLYLINE_59_">
	<polygon style="fill:#FFFFFF;" points="186.208,156.379 180.252,156.379 180.252,116.694 186.208,116.694 186.208,138.625 
		194.141,126.615 200.095,126.615 193.302,136.806 200.141,156.388 194.141,156.379 189.363,142.719 186.208,147.452 	"/>
</g>
<g id="LWPOLYLINE_60_">
	<path style="fill:#FFFFFF;" d="M204.463,146.458c0,5.48,4.44,9.921,9.921,9.921s9.922-4.44,9.922-9.921v-9.922
		c0-5.48-4.441-9.921-9.922-9.921s-9.921,4.44-9.921,9.921V146.458z"/>
</g>
<g id="LWPOLYLINE_62_">
	<path style="fill:#FFFFFF;" d="M229.859,146.458c0,5.48,4.441,9.921,9.922,9.921h0.793c4.824,0,8.736-3.912,8.736-8.731
		c0-3.104-1.65-5.978-4.341-7.546l-6.584-3.839c-0.61-0.355-0.984-1.003-0.984-1.714c0-1.095,0.894-1.979,1.987-1.979h1.186
		c1.095,0,1.988,0.885,1.988,1.979h5.954c0-4.382-3.556-7.934-7.942-7.934h-1.186c-4.386,0-7.942,3.552-7.942,7.934
		c0,2.826,1.505,5.435,3.939,6.857l6.593,3.839c0.848,0.501,1.377,1.413,1.377,2.402c0,1.537-1.24,2.777-2.781,2.777h-0.793
		c-2.188,0-3.967-1.778-3.967-3.967H229.859z"/>
</g>
<g id="LWPOLYLINE_63_">
	<polygon style="fill:#FFFFFF;" points="262.003,156.379 256.058,156.379 256.058,116.694 262.003,116.694 262.003,138.625 
		269.946,126.615 275.9,126.615 269.097,136.806 275.937,156.388 269.946,156.379 265.158,142.719 262.003,147.452 	"/>
</g>
<g id="LWPOLYLINE_64_">
	<path style="fill:#FFFFFF;" d="M293.754,146.458h5.955c0,5.48-4.441,9.921-9.921,9.921c-5.48,0-9.922-4.44-9.922-9.921v-9.922
		c0-5.48,4.441-9.921,9.922-9.921c5.479,0,9.921,4.44,9.921,9.921v5.554h-13.888v4.368c0,2.188,1.769,3.967,3.967,3.967
		C291.976,150.425,293.754,148.646,293.754,146.458z"/>
</g>
<g id="LWPOLYLINE_89_">
	<path style="fill:#FFFFFF;" d="M244.833,223.831l9.338,13.322c3.583-2.115,7.486-3.639,11.563-4.5
		c20.709-4.391,41.062,8.84,45.457,29.553c4.396,20.715-8.836,41.072-29.554,45.463c-20.719,4.395-41.071-8.836-45.467-29.555
		h-13.404c-3.082,0-6.027-1.299-8.107-3.578l-45.119-48.115l-2.572,8.443c16.523,7.004,25.979,24.547,22.743,42.207
		c-3.813,20.832-23.791,34.619-44.619,30.807c-20.829-3.82-34.621-23.795-30.81-44.627c3.816-20.828,23.795-34.619,44.625-30.803
		l10.951-35.93c1.642-5.389,6.611-9.072,12.247-9.072h14.772v8.416h-14.772c-1.934,0-3.639,1.264-4.204,3.109l-3.063,10.059
		l62.5,10.814l6.438-17.416l-14.198-3.898c-0.857-0.324-1.404-1.168-1.35-2.084c0.063-1.158,1.058-2.043,2.216-1.979h1.112h30.694
		v8.299h-9.63L244.833,223.831z"/>
</g>
<g id="LWPOLYLINE_61_">
	<path style="fill:#005EB8;" d="M210.417,146.458c0,2.188,1.778,3.967,3.967,3.967c2.189,0,3.967-1.778,3.967-3.967v-9.922
		c0-2.192-1.777-3.967-3.967-3.967c-2.188,0-3.967,1.774-3.967,3.967V146.458z"/>
</g>
<g id="LWPOLYLINE_65_">
	<path style="fill:#005EB8;" d="M285.822,136.933h7.933v-0.396c0-2.192-1.778-3.967-3.966-3.967c-2.198,0-3.967,1.774-3.967,3.967
		V136.933z"/>
</g>
<g id="LWPOLYLINE_86_">
	<polygon style="fill:#005EB8;" points="172.365,217.146 234.373,227.87 219.692,267.563 	"/>
</g>
<g id="LWPOLYLINE_87_">
	<path style="fill:#005EB8;" d="M252.328,249.19c-5.38,5.48-8.453,12.83-8.571,20.508h22.942L252.328,249.19z"/>
</g>
<g id="LWPOLYLINE_88_">
	<path style="fill:#005EB8;" d="M235.339,269.698c0.128-10.424,4.496-20.354,12.101-27.494l-6.155-8.781l-13.413,36.275h7.532
		H235.339z"/>
</g>
<g id="LWPOLYLINE_90_">
	<path style="fill:#005EB8;" d="M276.821,269.479c0.639,0.92,0.985,2.023,0.985,3.146c0,3.031-2.453,5.488-5.48,5.488h-27.493
		c4.386,15.936,20.863,25.291,36.804,20.9c15.93-4.395,25.295-20.873,20.9-36.809c-4.396-15.934-20.873-25.291-36.804-20.895
		c-2.344,0.643-4.596,1.568-6.712,2.762L276.821,269.479"/>
</g>
<g id="LWPOLYLINE_91_">
	<path style="fill:#005EB8;" d="M164.496,242.966l-8.417,27.607c-0.045,0.246-0.118,0.482-0.219,0.721
		c-0.875,2.16-3.337,3.201-5.499,2.324c-2.161-0.875-3.2-3.336-2.325-5.498l8.398-27.557c-16.348-2.453-31.585,8.818-34.033,25.164
		c-2.453,16.344,8.813,31.582,25.161,34.035c16.35,2.443,31.588-8.818,34.031-25.168
		C183.572,261.423,176.596,248.528,164.496,242.966z"/>
</g>
</svg>
