<?xml version="1.0" encoding="iso-8859-1"?>
<!-- Generator: Adobe Illustrator 16.0.0, SVG Export Plug-In . SVG Version: 6.00 Build 0)  -->
<!DOCTYPE svg PUBLIC "-//W3C//DTD SVG 1.1//EN" "http://www.w3.org/Graphics/SVG/1.1/DTD/svg11.dtd">
<svg version="1.1" id="Layer_1" xmlns="http://www.w3.org/2000/svg" xmlns:xlink="http://www.w3.org/1999/xlink" x="0px" y="0px"
	 width="425.197px" height="425.196px" viewBox="0 0 425.197 425.196" style="enable-background:new 0 0 425.197 425.196;"
	 xml:space="preserve">
<g id="LWPOLYLINE_71_">
	
		<rect x="14.174" y="129.92" style="fill:#005EB8;stroke:#005EB8;stroke-width:0.5;stroke-miterlimit:10;" width="396.849" height="165.356"/>
</g>
<g id="LWPOLYLINE_73_">
	<path style="fill:#FFFFFF;" d="M411.023,268.817c0,14.613-11.846,26.459-26.454,26.459H40.627
		c-14.607,0-26.453-11.846-26.453-26.459V156.378c0-14.612,11.846-26.458,26.453-26.458h343.941
		c14.608,0,26.454,11.846,26.454,26.458V268.817z"/>
</g>
<g id="LWPOLYLINE_72_">
	<path style="fill:#005EB8;" d="M397.792,268.817c0,7.309-5.919,13.227-13.223,13.227H40.627c-7.304,0-13.227-5.918-13.227-13.227
		V156.378c0-7.304,5.923-13.231,13.227-13.231h343.941c7.304,0,13.223,5.928,13.223,13.231V268.817z"/>
</g>
<g id="LWPOLYLINE_74_">
	<path style="fill:#FFFFFF;" d="M243.683,251.292c0,6.027,4.888,10.91,10.916,10.91c6.027,0,10.915-4.883,10.915-10.91v-4.363
		c0-6.027-4.888-10.916-10.915-10.916c-1.523,0-3.028,0.32-4.423,0.936l0.848-8.477h10.915l-0.401-5.955h-15.866l-1.988,19.844
		l6.949,1.586c0.93-1.25,2.407-1.979,3.967-1.979c2.735,0,4.96,2.215,4.96,4.961v4.363c0,2.74-2.225,4.961-4.96,4.961
		c-2.745,0-4.961-2.221-4.961-4.961H243.683z"/>
</g>
<g id="LWPOLYLINE_76_">
	<path style="fill:#FFFFFF;" d="M221.26,228.353c2.344-1.213,4.112-3.314,4.896-5.836h6.019v39.686h-5.954v-30.557l-4.359,0.793
		L221.26,228.353z"/>
</g>
<g id="LWPOLYLINE_77_">
	<path style="fill:#FFFFFF;" d="M159.745,233.433c0-6.027,4.888-10.916,10.915-10.916s10.915,4.889,10.915,10.916v4.305
		c0,1.449-0.154,2.895-0.474,4.313c-1.642,7.35-4.915,14.244-9.584,20.152h-7.942c4.577-4.623,8.079-10.203,10.249-16.34
		c-1.021,0.309-2.088,0.469-3.164,0.469c-6.027,0-10.915-4.889-10.915-10.916V233.433z"/>
</g>
<g id="LWPOLYLINE_79_">
	<path style="fill:#FFFFFF;" d="M250.632,168.826c2.343-1.213,4.104-3.314,4.896-5.836h6.009v39.685h-5.945v-30.557l-4.368,0.793
		L250.632,168.826z"/>
</g>
<g id="LWPOLYLINE_80_">
	<path style="fill:#FFFFFF;" d="M241.011,179.503c2.116-2.799,2.59-6.511,1.25-9.757c-2.299-5.571-8.672-8.225-14.244-5.932
		c-4.085,1.687-6.757,5.667-6.757,10.09v1.983h5.954v-1.983c0-0.118,0-0.237,0.01-0.355c0.2-2.735,2.58-4.787,5.307-4.591
		c2.736,0.195,4.788,2.575,4.587,5.302c-0.055,0.753-0.319,1.473-0.766,2.079l-15.092,20.386v5.95h21.83v-5.95h-15.082
		L241.011,179.503z"/>
</g>
<g id="LWPOLYLINE_81_">
	<path style="fill:#FFFFFF;" d="M159.745,173.905c0-6.027,4.888-10.915,10.915-10.915s10.915,4.888,10.915,10.915v4.304
		c0,1.45-0.154,2.896-0.474,4.313c-1.642,7.35-4.915,14.244-9.584,20.153h-7.942c4.577-4.623,8.079-10.204,10.249-16.341
		c-1.021,0.311-2.088,0.47-3.164,0.47c-6.027,0-10.915-4.888-10.915-10.915V173.905z"/>
</g>
<g id="LWPOLYLINE_82_">
	<rect x="191.497" y="179.86" style="fill:#FFFFFF;" width="19.843" height="5.95"/>
</g>
<g id="LWPOLYLINE_83_">
	<rect x="191.497" y="239.388" style="fill:#FFFFFF;" width="19.843" height="5.949"/>
</g>
<g id="LWPOLYLINE_84_">
	<path style="fill:#FFFFFF;" d="M275.372,269.151c5.508-17.436,5.508-36.143,0-53.578h3.137c9.939,16.473,9.939,37.1,0,53.578
		H275.372z"/>
</g>
<g id="LWPOLYLINE_85_">
	<path style="fill:#FFFFFF;" d="M149.824,269.597c-5.499-17.434-5.499-36.141,0-53.572h-3.138c-9.937,16.473-9.937,37.096,0,53.572
		H149.824z"/>
</g>
<g id="LWPOLYLINE_75_">
	<path style="fill:#005EB8;" d="M165.699,233.433v1.982c0,2.74,2.226,4.961,4.961,4.961c2.745,0,4.961-2.221,4.961-4.961v-1.982
		c0-2.74-2.216-4.961-4.961-4.961C167.924,228.472,165.699,230.692,165.699,233.433z"/>
</g>
<g id="LWPOLYLINE_78_">
	<path style="fill:#005EB8;" d="M165.699,173.905v1.983c0,2.74,2.226,4.961,4.961,4.961c2.745,0,4.961-2.221,4.961-4.961v-1.983
		c0-2.74-2.216-4.96-4.961-4.96C167.924,168.945,165.699,171.165,165.699,173.905z"/>
</g>
</svg>
