<?xml version="1.0" encoding="iso-8859-1"?>
<!-- Generator: Adobe Illustrator 16.0.0, SVG Export Plug-In . SVG Version: 6.00 Build 0)  -->
<!DOCTYPE svg PUBLIC "-//W3C//DTD SVG 1.1//EN" "http://www.w3.org/Graphics/SVG/1.1/DTD/svg11.dtd">
<svg version="1.1" id="Layer_1" xmlns="http://www.w3.org/2000/svg" xmlns:xlink="http://www.w3.org/1999/xlink" x="0px" y="0px"
	 width="425.197px" height="425.196px" viewBox="0 0 425.197 425.196" style="enable-background:new 0 0 425.197 425.196;"
	 xml:space="preserve">
<g id="LWPOLYLINE">
	
		<rect x="14.174" y="96.849" style="fill:#005EB8;stroke:#005EB8;stroke-width:0.5;stroke-miterlimit:10;" width="396.849" height="231.499"/>
</g>
<g id="LWPOLYLINE_68_">
	<path style="fill:#FFFFFF;" d="M411.023,301.89c0,14.613-11.846,26.458-26.454,26.458H40.627
		c-14.608,0-26.453-11.845-26.453-26.458V123.307c0-14.612,11.845-26.458,26.453-26.458h343.941
		c14.608,0,26.454,11.846,26.454,26.458V301.89z"/>
</g>
<g id="LWPOLYLINE_67_">
	<path style="fill:#005EB8;" d="M397.792,301.89c0,7.309-5.919,13.227-13.223,13.227H40.627c-7.304,0-13.227-5.918-13.227-13.227
		V123.307c0-7.304,5.923-13.227,13.227-13.227h343.941c7.304,0,13.223,5.923,13.223,13.227V301.89z"/>
</g>
<g id="LWPOLYLINE_77_">
	<path style="fill:#FFFFFF;" d="M245.152,221.302c0,6.028,4.888,10.916,10.915,10.916c6.019,0,10.906-4.888,10.906-10.916v-4.363
		c0-6.027-4.888-10.91-10.906-10.91c-1.523,0-3.027,0.319-4.423,0.93l0.848-8.471h10.916l-0.401-5.955H247.13l-1.979,19.843
		l6.939,1.587c0.938-1.25,2.407-1.983,3.976-1.983c2.735,0,4.96,2.22,4.96,4.96v4.363c0,2.745-2.225,4.961-4.96,4.961
		c-2.745,0-4.961-2.216-4.961-4.961H245.152z"/>
</g>
<g id="LWPOLYLINE_79_">
	<path style="fill:#FFFFFF;" d="M222.728,198.368c2.344-1.217,4.104-3.319,4.897-5.836h6.019v39.686h-5.955V201.66l-4.358,0.794
		L222.728,198.368z"/>
</g>
<g id="LWPOLYLINE_80_">
	<path style="fill:#FFFFFF;" d="M161.212,203.447c0-6.027,4.888-10.915,10.915-10.915c6.028,0,10.916,4.888,10.916,10.915v4.3
		c0,1.454-0.164,2.899-0.475,4.317c-1.642,7.351-4.915,14.244-9.584,20.153h-7.942c4.578-4.624,8.079-10.204,10.25-16.341
		c-1.031,0.31-2.089,0.465-3.165,0.465c-6.027,0-10.915-4.884-10.915-10.911V203.447z"/>
</g>
<g id="LWPOLYLINE_82_">
	<path style="fill:#FFFFFF;" d="M243.601,279.18c-0.912,6.88,3.931,13.194,10.806,14.111c6.885,0.911,13.204-3.926,14.116-10.806
		c0.073-0.548,0.109-1.1,0.109-1.655v-4.363c0-6.939-5.626-12.566-12.565-12.566c-0.849,0-1.696,0.087-2.526,0.256l0.447-4.491
		h11.18l-0.611-9.256h-18.922l-2.279,22.779l9.584,2.192c0.465-1.331,1.714-2.22,3.128-2.22c1.823,0,3.301,1.477,3.301,3.306v4.363
		c0,0.583-0.155,1.153-0.438,1.655c-0.921,1.582-2.937,2.124-4.523,1.212c-1.577-0.916-2.124-2.936-1.213-4.518H243.601z"/>
</g>
<g id="LWPOLYLINE_84_">
	<path style="fill:#FFFFFF;" d="M137.766,257.449c2.856-1.003,4.936-3.488,5.419-6.475h8.973v42.995h-9.265v-30.233l-4.097,0.748
		L137.766,257.449z"/>
</g>
<g id="LWPOLYLINE_86_">
	<path style="fill:#FFFFFF;" d="M182.287,269.568c2.462-3.265,3.018-7.597,1.459-11.385c-2.645-6.415-9.994-9.471-16.405-6.826
		c-4.705,1.938-7.778,6.529-7.778,11.618v3.638h9.256v-3.638c0-0.082,0.009-0.16,0.009-0.237c0.137-1.824,1.715-3.191,3.538-3.064
		c1.824,0.137,3.191,1.715,3.064,3.538c-0.037,0.438-0.191,0.857-0.447,1.213l-15.42,20.823v8.152h25.132v-9.261H171.28
		L182.287,269.568z"/>
</g>
<g id="LWPOLYLINE_88_">
	<path style="fill:#FFFFFF;" d="M252.091,138.841c2.343-1.217,4.112-3.319,4.905-5.836h6.01v39.685h-5.955v-30.557l-4.358,0.793
		L252.091,138.841z"/>
</g>
<g id="LWPOLYLINE_89_">
	<path style="fill:#FFFFFF;" d="M242.47,149.519c2.125-2.799,2.6-6.511,1.259-9.757c-2.298-5.576-8.672-8.229-14.253-5.932
		c-4.085,1.683-6.748,5.667-6.748,10.09v1.983h5.955v-1.983c0-0.118,0-0.237,0.009-0.36c0.2-2.73,2.571-4.787,5.308-4.591
		c2.735,0.2,4.787,2.576,4.586,5.307c-0.055,0.753-0.318,1.473-0.766,2.079l-15.092,20.381v5.954h21.821v-5.954h-15.073
		L242.47,149.519z"/>
</g>
<g id="LWPOLYLINE_90_">
	<path style="fill:#FFFFFF;" d="M161.212,143.92c0-6.027,4.888-10.915,10.915-10.915c6.028,0,10.916,4.888,10.916,10.915v4.3
		c0,1.454-0.164,2.899-0.475,4.317c-1.642,7.35-4.915,14.244-9.584,20.152h-7.942c4.578-4.623,8.079-10.203,10.25-16.341
		c-1.031,0.311-2.089,0.466-3.165,0.466c-6.027,0-10.915-4.884-10.915-10.911V143.92z"/>
</g>
<g id="LWPOLYLINE_91_">
	<rect x="192.964" y="149.875" style="fill:#FFFFFF;" width="19.843" height="5.949"/>
</g>
<g id="LWPOLYLINE_92_">
	<rect x="192.964" y="209.402" style="fill:#FFFFFF;" width="19.843" height="5.95"/>
</g>
<g id="LWPOLYLINE_94_">
	<rect x="191.305" y="267.274" style="fill:#FFFFFF;" width="23.152" height="9.261"/>
</g>
<g id="LWPOLYLINE_96_">
	<path style="fill:#FFFFFF;" d="M220.905,256.884c2.854-1.003,4.933-3.488,5.416-6.475h8.974V293.4h-9.266v-30.229l-4.094,0.743
		L220.905,256.884z"/>
</g>
<g id="LWPOLYLINE_97_">
	<path style="fill:#FFFFFF;" d="M276.839,239.166c5.508-17.436,5.508-36.147,0-53.577h3.137c9.939,16.473,9.939,37.1,0,53.577
		H276.839z"/>
</g>
<g id="LWPOLYLINE_98_">
	<path style="fill:#FFFFFF;" d="M151.292,239.613c-5.508-17.436-5.508-36.143,0-53.573h-3.137c-9.942,16.469-9.942,37.095,0,53.573
		H151.292z"/>
</g>
<g id="LWPOLYLINE_78_">
	<path style="fill:#005EB8;" d="M167.167,203.447v1.983c0,2.74,2.225,4.961,4.96,4.961c2.736,0,4.961-2.221,4.961-4.961v-1.983
		c0-2.74-2.225-4.96-4.961-4.96C169.392,198.487,167.167,200.707,167.167,203.447z"/>
</g>
<g id="LWPOLYLINE_87_">
	<path style="fill:#005EB8;" d="M167.167,143.92v1.983c0,2.74,2.225,4.961,4.96,4.961c2.736,0,4.961-2.221,4.961-4.961v-1.983
		c0-2.74-2.225-4.961-4.961-4.961C169.392,138.959,167.167,141.18,167.167,143.92z"/>
</g>
<g id="LWPOLYLINE_81_">
	<path style="fill:#E4002B;" d="M245.152,280.83c0,6.027,4.888,10.915,10.915,10.915c6.019,0,10.906-4.888,10.906-10.915v-4.363
		c0-6.028-4.888-10.911-10.906-10.911c-1.523,0-3.027,0.319-4.423,0.931l0.848-8.472h10.916l-0.401-5.955H247.13l-1.979,19.843
		l6.939,1.587c0.938-1.249,2.407-1.983,3.976-1.983c2.735,0,4.96,2.221,4.96,4.961v4.363c0,2.744-2.225,4.96-4.96,4.96
		c-2.745,0-4.961-2.216-4.961-4.96H245.152z"/>
</g>
<g id="LWPOLYLINE_83_">
	<path style="fill:#E4002B;" d="M139.585,258.461c2.35-1.212,4.11-3.314,4.903-5.836h6.009v39.686h-5.954v-30.558l-4.358,0.794
		L139.585,258.461z"/>
</g>
<g id="LWPOLYLINE_85_">
	<path style="fill:#E4002B;" d="M180.964,268.574c2.115-2.8,2.59-6.511,1.249-9.757c-2.289-5.576-8.672-8.23-14.244-5.933
		c-4.085,1.683-6.757,5.668-6.757,10.091v1.983h5.955v-1.983c0-0.119,0.009-0.237,0.009-0.36c0.201-2.731,2.581-4.788,5.308-4.592
		c2.735,0.201,4.787,2.576,4.596,5.308c-0.055,0.752-0.328,1.473-0.775,2.079l-15.092,20.38v5.955h21.831v-5.955H167.96
		L180.964,268.574z"/>
</g>
<g id="LWPOLYLINE_93_">
	<rect x="192.964" y="268.93" style="fill:#E4002B;" width="19.843" height="5.95"/>
</g>
<g id="LWPOLYLINE_95_">
	<path style="fill:#E4002B;" d="M222.728,257.896c2.344-1.218,4.104-3.319,4.897-5.837h6.019v39.686h-5.955v-30.558l-4.358,0.794
		L222.728,257.896z"/>
</g>
</svg>
