<?xml version="1.0" encoding="iso-8859-1"?>
<!-- Generator: Adobe Illustrator 16.0.0, SVG Export Plug-In . SVG Version: 6.00 Build 0)  -->
<!DOCTYPE svg PUBLIC "-//W3C//DTD SVG 1.1//EN" "http://www.w3.org/Graphics/SVG/1.1/DTD/svg11.dtd">
<svg version="1.1" id="Layer_1" xmlns="http://www.w3.org/2000/svg" xmlns:xlink="http://www.w3.org/1999/xlink" x="0px" y="0px"
	 width="425.197px" height="425.196px" viewBox="0 0 425.197 425.196" style="enable-background:new 0 0 425.197 425.196;"
	 xml:space="preserve">
<g id="LWPOLYLINE_40_">
	<rect x="14.174" y="129.92" style="fill:#FFCD00;" width="396.849" height="165.356"/>
</g>
<g id="LWPOLYLINE_42_">
	<path style="fill:#E4002B;" d="M40.632,129.92h343.937c14.608,0,26.454,11.846,26.454,26.458v112.439
		c0,14.613-11.846,26.459-26.454,26.459H40.632c-14.613,0-26.458-11.846-26.458-26.459V156.378
		C14.174,141.766,26.019,129.92,40.632,129.92z"/>
</g>
<g id="LWPOLYLINE_41_">
	<path style="fill:#FFCD00;" d="M40.632,143.146h343.937c7.304,0,13.231,5.928,13.231,13.231v112.439
		c0,7.309-5.928,13.227-13.231,13.227H40.632c-7.304,0-13.227-5.918-13.227-13.227V156.378
		C27.406,149.074,33.329,143.146,40.632,143.146z"/>
</g>
<g id="LWPOLYLINE_43_">
	<path style="fill:#101820;" d="M47.249,255.116v-85.037c0-3.916,3.168-7.09,7.085-7.09h58.816c3.916,0,7.09,3.174,7.09,7.09v85.037
		c0,3.912-3.174,7.086-7.09,7.086H54.333C50.417,262.202,47.249,259.028,47.249,255.116z"/>
</g>
<g id="LWPOLYLINE_44_">
	<polygon style="fill:#FFCD00;" points="83.742,198.753 90.827,170.079 76.656,170.079 	"/>
</g>
<g id="LWPOLYLINE_45_">
	<path style="fill:#FFCD00;" d="M57.876,206.905l17.266-12.533c3.447,4.75,10.095,5.804,14.846,2.356
		c0.903-0.656,1.701-1.454,2.357-2.356l17.262,12.533c-1.974,2.723-4.363,5.111-7.081,7.086
		C88.242,224.368,68.249,221.194,57.876,206.905z"/>
</g>
<g id="LWPOLYLINE_47_">
	<path style="fill:#FFCD00;" d="M67.797,251.93v-25.51c0-1.76,1.427-3.191,3.191-3.191h25.51c1.76,0,3.188,1.432,3.188,3.191v25.51
		c0,1.76-1.428,3.187-3.188,3.187h-25.51C69.224,255.116,67.797,253.689,67.797,251.93z"/>
</g>
<g id="LWPOLYLINE_46_">
	<path style="fill:#101820;" d="M69.393,251.93v-25.51c0-0.88,0.716-1.596,1.596-1.596h25.51c0.88,0,1.592,0.716,1.592,1.596v25.51
		c0,0.88-0.712,1.591-1.592,1.591h-25.51C70.109,253.521,69.393,252.81,69.393,251.93z"/>
</g>
<g id="LWPOLYLINE_73_">
	<rect x="299.299" y="170.927" style="fill:#101820;" width="5.954" height="29.765"/>
</g>
<g id="LWPOLYLINE_74_">
	<rect x="299.299" y="161.006" style="fill:#101820;" width="5.954" height="5.955"/>
</g>
<g id="LWPOLYLINE_75_">
	<path style="fill:#101820;" d="M205.837,170.79v1.587c0,2.403-0.87,4.719-2.448,6.529c2.198,2.065,3.442,4.942,3.442,7.956v2.781
		c0,6.027-4.888,10.91-10.915,10.91c-6.022,0-10.91-4.883-10.91-10.91h5.949c0,2.735,2.226,4.961,4.961,4.961
		c2.74,0,4.961-2.226,4.961-4.961v-2.781c0-2.74-2.221-4.961-4.961-4.961h-1.587v-5.553h1.587c2.193,0,3.972-1.778,3.972-3.972
		v-1.587c0-2.192-1.778-3.971-3.972-3.971c-2.188,0-3.967,1.778-3.967,3.971h-5.954c0-5.48,4.445-9.921,9.921-9.921
		C201.397,160.869,205.837,165.31,205.837,170.79z"/>
</g>
<g id="LWPOLYLINE_76_">
	<path style="fill:#101820;" d="M216.753,171.78v17.863c0,6.027,4.888,10.91,10.915,10.91c6.03,0,10.908-4.883,10.908-10.91V171.78
		c0-6.028-4.878-10.911-10.908-10.911C221.641,160.869,216.753,165.752,216.753,171.78z"/>
</g>
<g id="LWPOLYLINE_78_">
	<path style="fill:#101820;" d="M286.205,178.469c0-1.537-1.25-2.777-2.781-2.777h-0.393c-2.635,0-4.769,2.134-4.769,4.761v20.239
		h-5.946v-22.223c0-1.537-1.249-2.777-2.781-2.777h-0.4c-2.627,0-4.761,2.134-4.761,4.761v20.239h-5.954v-29.765h5.954v2.385
		c1.952-1.213,4.122-2.006,6.384-2.334c0.282-0.041,0.565-0.055,0.839-0.032c2.225,0.15,4.249,1.322,5.48,3.178
		c2.225-1.664,4.823-2.744,7.577-3.146c0.273-0.041,0.557-0.055,0.83-0.032c3.757,0.251,6.675,3.37,6.675,7.126v22.62h-5.954
		V178.469z"/>
</g>
<g id="LWPOLYLINE_79_">
	<path style="fill:#101820;" d="M319.141,200.691h-5.954v-29.765h5.954v2.385c1.942-1.213,4.122-2.006,6.384-2.334
		c0.282-0.041,0.556-0.055,0.839-0.032c3.747,0.251,6.666,3.37,6.666,7.126v22.62h-5.955v-22.223c0-1.537-1.24-2.777-2.772-2.777
		h-0.4c-2.627,0-4.761,2.134-4.761,4.761V200.691z"/>
</g>
<g id="LWPOLYLINE_81_">
	<path style="fill:#101820;" d="M224.094,253.274c0,6.027-4.884,10.915-10.911,10.915s-10.915-4.888-10.915-10.915v-4.299
		c0-1.455,0.159-2.9,0.474-4.318c1.642-7.35,4.915-14.243,9.589-20.152h7.938c-4.583,4.623-8.08,10.204-10.25,16.341
		c1.025-0.31,2.093-0.47,3.164-0.47c6.027,0,10.911,4.888,10.911,10.915V253.274z"/>
</g>
<g id="LWPOLYLINE_82_">
	<path style="fill:#101820;" d="M283.533,241.019c2.115-2.804,2.59-6.515,1.249-9.762c-2.298-5.571-8.672-8.229-14.253-5.932
		c-4.085,1.688-6.748,5.672-6.748,10.09v1.983h5.955v-1.983c0-0.118,0-0.236,0.009-0.359c0.201-2.727,2.571-4.788,5.308-4.587
		c2.735,0.2,4.787,2.571,4.587,5.307c-0.055,0.748-0.319,1.469-0.767,2.075l-15.092,20.385v5.954h21.822v-5.954h-15.074
		L283.533,241.019z"/>
</g>
<g id="LWPOLYLINE_83_">
	<polygon style="fill:#101820;" points="306.639,224.505 312.594,224.505 312.594,250.298 315.767,250.298 315.767,256.252 
		312.594,256.252 312.594,264.189 306.639,264.189 306.639,256.252 291.958,256.252 291.958,250.298 	"/>
</g>
<g id="LWPOLYLINE_85_">
	<rect x="234.017" y="241.37" style="fill:#101820;" width="19.843" height="5.95"/>
</g>
<g id="LWPOLYLINE_48_">
	<path style="fill:#FFCD00;" d="M75.224,251.957h4.783v-10.628h6.912c4.108,0,7.441-3.333,7.441-7.441
		c0-4.112-3.333-7.44-7.441-7.44H75.224V251.957z"/>
</g>
<g id="LWPOLYLINE_49_">
	<path style="fill:#101820;" d="M80.007,231.229v5.308h7.117c1.464-0.114,2.558-1.396,2.444-2.858
		c-0.109-1.382-1.264-2.449-2.649-2.449H80.007z"/>
</g>
<g id="LWPOLYLINE_77_">
	<path style="fill:#FFCD00;" d="M232.631,171.78c0-2.736-2.225-4.961-4.963-4.961c-2.74,0-4.961,2.225-4.961,4.961v17.863
		c0,2.735,2.221,4.961,4.961,4.961c2.738,0,4.963-2.226,4.963-4.961V171.78z"/>
</g>
<g id="LWPOLYLINE_80_">
	<path style="fill:#FFCD00;" d="M208.222,253.274c0,2.74,2.221,4.961,4.961,4.961s4.961-2.221,4.961-4.961v-1.983
		c0-2.74-2.221-4.96-4.961-4.96s-4.961,2.22-4.961,4.96V253.274z"/>
</g>
<g id="LWPOLYLINE_84_">
	<polygon style="fill:#FFCD00;" points="298.707,250.298 306.639,236.354 306.639,250.298 	"/>
</g>
</svg>
