<?xml version="1.0" encoding="iso-8859-1"?>
<!-- Generator: Adobe Illustrator 16.0.0, SVG Export Plug-In . SVG Version: 6.00 Build 0)  -->
<!DOCTYPE svg PUBLIC "-//W3C//DTD SVG 1.1//EN" "http://www.w3.org/Graphics/SVG/1.1/DTD/svg11.dtd">
<svg version="1.1" id="Layer_1" xmlns="http://www.w3.org/2000/svg" xmlns:xlink="http://www.w3.org/1999/xlink" x="0px" y="0px"
	 width="425.197px" height="425.196px" viewBox="0 0 425.197 425.196" style="enable-background:new 0 0 425.197 425.196;"
	 xml:space="preserve">
<g id="LWPOLYLINE_67_">
	<rect x="14.17" y="80.314" style="fill:#FFCD00;" width="396.855" height="264.567"/>
</g>
<g id="LWPOLYLINE_69_">
	<path style="fill:#E4002B;" d="M384.561,344.882H40.625c-14.618,0-26.455-11.847-26.455-26.455V106.77
		c0-14.609,11.837-26.455,26.455-26.455h343.936c14.609,0,26.465,11.846,26.465,26.455v211.657
		C411.026,333.035,399.17,344.882,384.561,344.882z"/>
</g>
<g id="LWPOLYLINE_68_">
	<path style="fill:#FFCD00;" d="M384.561,331.649H40.625c-7.305,0-13.232-5.918-13.232-13.223V106.77
		c0-7.305,5.928-13.224,13.232-13.224h343.936c7.314,0,13.224,5.919,13.224,13.224v211.657
		C397.785,325.731,391.875,331.649,384.561,331.649z"/>
</g>
<g id="LWPOLYLINE_90_">
	<path style="fill:#101820;" d="M301.886,301.884V167.95c0-24.658-19.989-44.639-44.647-44.639
		c-11.841,0-23.194,4.696-31.566,13.068l-75.087,75.087v-63.142L123.3,175.61v84.18h84.188l27.275-27.275h-63.132l75.083-75.088
		c2.79-2.791,6.584-4.359,10.523-4.359c8.226,0,14.883,6.666,14.883,14.883v133.934H301.886z"/>
</g>
</svg>
