<?xml version="1.0" encoding="iso-8859-1"?>
<!-- Generator: Adobe Illustrator 16.0.0, SVG Export Plug-In . SVG Version: 6.00 Build 0)  -->
<!DOCTYPE svg PUBLIC "-//W3C//DTD SVG 1.1//EN" "http://www.w3.org/Graphics/SVG/1.1/DTD/svg11.dtd">
<svg version="1.1" id="Layer_1" xmlns="http://www.w3.org/2000/svg" xmlns:xlink="http://www.w3.org/1999/xlink" x="0px" y="0px"
	 width="425.197px" height="425.196px" viewBox="0 0 425.197 425.196" style="enable-background:new 0 0 425.197 425.196;"
	 xml:space="preserve">
<g id="LWPOLYLINE_58_">
	<rect x="14.173" y="80.316" style="fill:#FFCD00;" width="396.851" height="264.564"/>
</g>
<g id="LWPOLYLINE_60_">
	<path style="fill:#E4002B;" d="M40.618,344.88h343.943c14.607,0,26.463-11.846,26.463-26.453V106.77
		c0-14.608-11.855-26.454-26.463-26.454H40.618c-14.608,0-26.444,11.845-26.444,26.454v211.657
		C14.173,333.034,26.009,344.88,40.618,344.88z"/>
</g>
<g id="LWPOLYLINE_59_">
	<path style="fill:#FFCD00;" d="M40.618,331.653h343.943c7.313,0,13.222-5.924,13.222-13.227V106.77
		c0-7.304-5.909-13.227-13.222-13.227H40.618c-7.295,0-13.223,5.923-13.223,13.227v211.657
		C27.395,325.729,33.323,331.653,40.618,331.653z"/>
</g>
<g id="LWPOLYLINE_85_">
	<path style="fill:#101820;" d="M161.715,258.78l53.527-53.541c4.65-4.65,7.277-10.957,7.277-17.536v-14.791
		c0-14.353,10.23-26.658,24.347-29.267c16.159-2.991,31.697,7.691,34.688,23.854c2.973,16.163-7.697,31.692-23.873,34.678
		c-11.746,2.176-20.281,12.434-20.281,24.395v85.236h29.765V237.78c0-4.113,2.534-7.797,6.364-9.266
		c30.713-11.74,46.087-46.155,34.342-76.863c-11.727-30.707-46.141-46.082-76.854-34.341c-23.053,8.813-38.262,30.927-38.262,55.602
		v8.627c0,2.631-1.059,5.151-2.919,7.012l-49.168,49.182v-63.138l-27.284,27.283v84.186h84.186l27.283-27.283H161.715z"/>
</g>
</svg>
