<?xml version="1.0" encoding="utf-8"?>
<!-- Generator: Adobe Illustrator 14.0.0, SVG Export Plug-In . SVG Version: 6.00 Build 43363)  -->
<!DOCTYPE svg PUBLIC "-//W3C//DTD SVG 1.1//EN" "http://www.w3.org/Graphics/SVG/1.1/DTD/svg11.dtd">
<svg version="1.1" id="Layer_1" xmlns="http://www.w3.org/2000/svg" xmlns:xlink="http://www.w3.org/1999/xlink" x="0px" y="0px"
	 width="841.89px" height="595.276px" viewBox="0 0 841.89 595.276" enable-background="new 0 0 841.89 595.276"
	 xml:space="preserve">
<g>
	<defs>
		<polyline id="SVGID_1_" points="0,445.582 842.01,445.582 842.01,149.694 0,149.694 0,445.582 		"/>
	</defs>
	<clipPath id="SVGID_2_">
		<use xlink:href="#SVGID_1_"  overflow="visible"/>
	</clipPath>
	<path clip-path="url(#SVGID_2_)" fill-rule="evenodd" clip-rule="evenodd" fill="#F0F0F0" d="M46.1,156.477h741.3
		c2.5,0,5,0.3,7.5,0.7c2.6,0.5,5.2,1.2,7.7,2.2c5.1,2.1,9.899,5.1,14,9.2c4,4.1,7.1,8.9,9.1,14c1,2.5,1.8,5.1,2.2,7.6
		c0.5,2.6,0.7,5.1,0.7,7.5v192.2c0,2.5-0.2,5-0.7,7.5c-0.4,2.601-1.2,5.2-2.2,7.7c-2,5.101-5.1,9.9-9.1,14
		c-4.101,4-8.9,7.101-14,9.101c-2.5,1-5.101,1.8-7.7,2.199c-2.5,0.5-5,0.7-7.5,0.7H46.1c-2.4,0-5-0.2-7.5-0.7
		c-2.6-0.399-5.1-1.199-7.7-2.199c-5.1-2-9.9-5.101-13.9-9.101c-4.1-4.1-7.2-8.899-9.2-14c-1-2.5-1.7-5.1-2.2-7.7
		c-0.5-2.5-0.7-5-0.7-7.5v-192.2c0-2.4,0.2-4.9,0.7-7.5c0.5-2.5,1.2-5.1,2.2-7.6c2-5.1,5.1-9.9,9.2-14c4-4.1,8.8-7.1,13.9-9.2
		c2.6-1,5.1-1.7,7.7-2.2C41.1,156.776,43.7,156.477,46.1,156.477"/>
	<path clip-path="url(#SVGID_2_)" fill-rule="evenodd" clip-rule="evenodd" fill="#0000FF" d="M46.1,177.076h741.3
		c2.5,0,5.1,0.5,7.6,1.5c2.601,1,5,2.5,7,4.6c2,2,3.601,4.4,4.601,6.9c1,2.6,1.399,5.2,1.399,7.6v192.2
		c0,2.5-0.399,5.101-1.399,7.601c-1,2.6-2.601,5-4.601,7s-4.399,3.6-7,4.6c-2.5,1-5.1,1.4-7.6,1.4H46.1c-2.4,0-5-0.4-7.6-1.4
		c-2.5-1-4.9-2.6-7-4.6c-2-2-3.5-4.4-4.6-7c-1-2.5-1.4-5.101-1.4-7.601v-192.2c0-2.4,0.4-5,1.4-7.6c1.1-2.5,2.6-4.9,4.6-6.9
		c2.1-2.1,4.5-3.6,7-4.6C41.1,177.576,43.7,177.076,46.1,177.076"/>
</g>
<g>
	<defs>
		<polyline id="SVGID_3_" points="0,445.582 842.01,445.582 842.01,149.694 0,149.694 0,445.582 		"/>
	</defs>
	<clipPath id="SVGID_4_">
		<use xlink:href="#SVGID_3_"  overflow="visible"/>
	</clipPath>
	<path clip-path="url(#SVGID_4_)" fill-rule="evenodd" clip-rule="evenodd" fill="#F0F0F0" d="M48,317.076v-11.3h8
		c1.9,0,3.3,0.1,4.2,0.4c1,0.199,1.8,0.8,2.4,1.8c0.7,0.899,1,2,1,3.3c0,3.9-2.5,5.8-7.5,5.8H48 M43.8,301.977v31.6H48v-12.8h8.1
		c4.1,0,7.1-0.8,9-2.6c1.9-1.801,2.8-4.101,2.8-7c0-1.5-0.3-2.9-0.9-4.2c-0.6-1.4-1.5-2.4-2.6-3.2c-1.2-0.8-2.5-1.3-3.8-1.5
		c-1.4-0.2-3-0.3-4.9-0.3H43.8"/>
	<polyline clip-path="url(#SVGID_4_)" fill-rule="evenodd" clip-rule="evenodd" fill="#F0F0F0" points="83.1,324.177 83.1,320.276 
		71.3,320.276 71.3,324.177 83.1,324.177 	"/>
	<path clip-path="url(#SVGID_4_)" fill-rule="evenodd" clip-rule="evenodd" fill="#F0F0F0" d="M96.4,333.576l-0.5-3.5
		c-0.6,0.2-1.2,0.2-1.7,0.2c-1,0-1.6-0.2-1.8-0.7c-0.3-0.5-0.4-1.3-0.4-2.5v-13.3h3.9v-3H92v-8.1l-3.9,2.399v5.7h-2.8v3h2.8v13.1
		c0,1.7,0.1,3,0.3,3.9c0.2,0.9,0.6,1.6,1.4,2.2c0.8,0.6,2,0.899,3.7,0.899C94.3,333.876,95.3,333.776,96.4,333.576"/>
	<path clip-path="url(#SVGID_4_)" fill-rule="evenodd" clip-rule="evenodd" fill="#F0F0F0" d="M118.3,333.576v-22.8h-3.9v12.2
		c0,3.2-0.6,5.3-1.9,6.3s-2.7,1.5-4.2,1.5c-1.1,0-2.1-0.3-2.9-0.8c-0.8-0.601-1.3-1.3-1.5-2.2c-0.2-0.9-0.3-2.3-0.3-4.4v-12.6h-3.9
		v14.2c0,2,0.2,3.7,0.7,5c0.4,1.3,1.4,2.3,2.7,3.1c1.4,0.7,2.8,1.101,4.4,1.101c3.1,0,5.5-1.301,7.2-3.9h0.1v3.3H118.3"/>
	<path clip-path="url(#SVGID_4_)" fill-rule="evenodd" clip-rule="evenodd" fill="#F0F0F0" d="M143,333.576v-14c0-1.7-0.1-3-0.3-4
		c-0.2-1-0.6-1.899-1.2-2.8c-0.7-0.8-1.6-1.5-2.8-1.9c-1.2-0.399-2.4-0.6-3.6-0.6c-1.6,0-3,0.3-4.2,0.9c-1.2,0.6-2.2,1.6-3,2.8h-0.1
		v-3.2h-3.5v22.8h3.9v-12.5c0-1.8,0.2-3.3,0.7-4.3c0.4-1,1.1-1.8,2.2-2.4c1-0.5,2.1-0.8,3.2-0.8c1.5,0,2.7,0.4,3.5,1.3
		c0.9,0.9,1.3,2.5,1.3,4.801v13.899H143"/>
	<path clip-path="url(#SVGID_4_)" fill-rule="evenodd" clip-rule="evenodd" fill="#F0F0F0" d="M167.5,333.576v-14c0-1.7-0.1-3-0.2-4
		c-0.2-1-0.6-1.899-1.3-2.8c-0.7-0.8-1.6-1.5-2.8-1.9c-1.2-0.399-2.3-0.6-3.6-0.6c-1.5,0-2.9,0.3-4.1,0.9c-1.2,0.6-2.2,1.6-3.1,2.8
		v-3.2h-3.5v22.8h3.9v-12.5c0-1.8,0.2-3.3,0.6-4.3s1.2-1.8,2.2-2.4c1-0.5,2.1-0.8,3.2-0.8c1.5,0,2.7,0.4,3.6,1.3
		c0.8,0.9,1.2,2.5,1.2,4.801v13.899H167.5"/>
	<path clip-path="url(#SVGID_4_)" fill-rule="evenodd" clip-rule="evenodd" fill="#F0F0F0" d="M191.9,333.576v-22.8H188v12.2
		c0,3.2-0.6,5.3-1.9,6.3c-1.3,1-2.7,1.5-4.2,1.5c-1.1,0-2.1-0.3-2.9-0.8c-0.8-0.601-1.3-1.3-1.5-2.2s-0.3-2.3-0.3-4.4v-12.6h-3.9
		v14.2c0,2,0.2,3.7,0.7,5s1.4,2.3,2.7,3.1c1.4,0.7,2.8,1.101,4.4,1.101c3.1,0,5.5-1.301,7.2-3.9h0.1v3.3H191.9"/>
	<polyline clip-path="url(#SVGID_4_)" fill-rule="evenodd" clip-rule="evenodd" fill="#F0F0F0" points="216.8,333.576 
		207.2,319.177 216,310.776 210.9,310.776 201.7,319.977 201.7,301.977 197.9,301.977 197.9,333.576 201.7,333.576 201.7,324.477 
		204.5,321.876 212.1,333.576 216.8,333.576 	"/>
	<path clip-path="url(#SVGID_4_)" fill-rule="evenodd" clip-rule="evenodd" fill="#F0F0F0" d="M232.7,317.177l3.8-0.5
		c-0.3-2.2-1.2-3.801-2.7-4.801c-1.5-1.1-3.7-1.6-6.4-1.6c-2.6,0-4.6,0.6-6.1,1.8c-1.6,1.2-2.3,2.8-2.3,4.7c0,1.6,0.5,2.9,1.5,4
		c1.1,1.1,3.2,2,6.5,2.8c2.2,0.5,3.6,0.9,4.2,1.101c0.6,0.199,1.1,0.5,1.5,1c0.5,0.399,0.7,0.899,0.7,1.6c0,1-0.5,1.9-1.4,2.6
		c-0.9,0.7-2.2,1.101-3.9,1.101c-1.8,0-3.1-0.4-4.1-1.2s-1.6-2-1.8-3.6l-3.8,0.6c0.3,2.5,1.3,4.3,3,5.5c1.6,1.3,3.9,1.9,6.8,1.9
		c2.7,0,5-0.7,6.6-2.101c1.7-1.399,2.5-3.1,2.5-5.2c0-1.5-0.3-2.699-1-3.5c-0.6-0.899-1.6-1.6-2.8-2c-1.2-0.5-3-1-5.4-1.699
		c-2.1-0.5-3.6-1-4.3-1.4c-0.7-0.4-1.1-1-1.1-1.9c0-1,0.5-1.699,1.4-2.199s2.1-0.801,3.6-0.801s2.6,0.301,3.5,1
		C232,314.977,232.5,315.876,232.7,317.177"/>
	<path clip-path="url(#SVGID_4_)" fill-rule="evenodd" clip-rule="evenodd" fill="#F0F0F0" d="M257.9,319.977H245
		c0.1-1.9,0.8-3.5,2-4.7c1.2-1.3,2.7-1.9,4.5-1.9c1.5,0,2.9,0.5,4.2,1.601C257,315.977,257.7,317.677,257.9,319.977 M261.9,323.177
		c0-3.601-0.6-6.301-1.7-8.101c-1-1.8-2.3-3-3.9-3.7c-1.5-0.8-3.1-1.1-4.8-1.1c-3.4,0-6,1.1-7.9,3.3c-1.9,2.3-2.8,5.2-2.8,8.8
		c0,3.601,0.9,6.5,2.9,8.601c1.9,2.1,4.6,3.2,8,3.2c2.6,0,4.8-0.7,6.5-1.9c1.7-1.3,2.9-3.2,3.5-5.5l-3.9-0.5
		c-0.6,1.5-1.3,2.7-2.4,3.5c-1,0.8-2.2,1.2-3.7,1.2c-1.9,0-3.5-0.7-4.8-2c-1.3-1.4-2-3.3-2.2-5.8H261.9"/>
	<polyline clip-path="url(#SVGID_4_)" fill-rule="evenodd" clip-rule="evenodd" fill="#F0F0F0" points="270.4,333.576 
		270.4,301.977 266.5,301.977 266.5,333.576 270.4,333.576 	"/>
	<polyline clip-path="url(#SVGID_4_)" fill-rule="evenodd" clip-rule="evenodd" fill="#F0F0F0" points="280.2,333.576 
		280.2,301.977 276.3,301.977 276.3,333.576 280.2,333.576 	"/>
	<path clip-path="url(#SVGID_4_)" fill-rule="evenodd" clip-rule="evenodd" fill="#F0F0F0" d="M300.9,323.576c0,2.7-0.8,4.7-2.2,5.8
		c-1.5,1.101-3.2,1.7-5.1,1.7c-1.5,0-2.6-0.3-3.4-1c-0.8-0.7-1.2-1.6-1.2-2.6c0-2.101,1.5-3.3,4.4-3.7c3-0.4,5.4-1,7.5-1.6V323.576
		 M306,333.576c-0.6-1-1-2.1-1.1-3.1c-0.1-1.101-0.2-3.3-0.2-6.4v-5.2c0-1.899-0.1-3.3-0.4-4.5c-0.3-1.1-1.1-2.1-2.4-2.899
		c-1.3-0.8-3.3-1.2-6-1.2c-3,0-5.4,0.5-7.1,1.7c-1.8,1.2-2.8,3-3.2,5.3l3.7,0.5c0.4-1.7,1.1-2.8,2-3.5c1-0.6,2.3-0.9,4-0.9
		c1.3,0,2.3,0.2,3.1,0.5c0.8,0.301,1.4,0.7,1.7,1.2c0.4,0.601,0.6,1.101,0.6,1.5c0.1,0.5,0.2,1.3,0.2,2.5c-0.9,0.3-2,0.601-3.4,0.8
		l-3.6,0.5c-3.3,0.5-5.7,1.301-7,2.5c-1.3,1.2-2,2.801-2,4.7c0,2,0.7,3.601,2.1,4.8c1.4,1.2,3.3,1.801,5.7,1.801
		c3,0,5.8-1.101,8.4-3.4c0.2,1.2,0.4,2.1,0.8,2.8H306"/>
	<polyline clip-path="url(#SVGID_4_)" fill-rule="evenodd" clip-rule="evenodd" fill="#F0F0F0" points="316.1,315.177 
		316.1,310.776 311.7,310.776 311.7,315.177 316.1,315.177 	"/>
	<polyline clip-path="url(#SVGID_4_)" fill-rule="evenodd" clip-rule="evenodd" fill="#F0F0F0" points="316.1,333.576 
		316.1,329.177 311.7,329.177 311.7,333.576 316.1,333.576 	"/>
</g>
<g>
	<defs>
		<polyline id="SVGID_5_" points="0,445.582 842.01,445.582 842.01,149.694 0,149.694 0,445.582 		"/>
	</defs>
	<clipPath id="SVGID_6_">
		<use xlink:href="#SVGID_5_"  overflow="visible"/>
	</clipPath>
	<path clip-path="url(#SVGID_6_)" fill-rule="evenodd" clip-rule="evenodd" fill="#F0F0F0" d="M73.8,288.276v-31.6h-5.5l-7.6,22
		c-0.7,2.2-1.3,3.9-1.7,5.1h-0.1c-0.1-0.6-0.6-2.2-1.4-4.7l-7.5-22.4h-6.2v31.6h3.9v-26.8h0.2l9,26.8h3.8l9.1-26.4v26.4H73.8"/>
	<path clip-path="url(#SVGID_6_)" fill-rule="evenodd" clip-rule="evenodd" fill="#F0F0F0" d="M94.8,278.276c0,2.7-0.7,4.7-2.2,5.8
		c-1.4,1.1-3.1,1.7-5,1.7c-1.5,0-2.7-0.3-3.4-1c-0.8-0.7-1.2-1.6-1.2-2.6c0-2.1,1.4-3.3,4.4-3.7c2.9-0.4,5.4-1,7.4-1.6V278.276
		 M99.9,288.276c-0.6-1-0.9-2.1-1-3.1c-0.2-1.1-0.2-3.3-0.2-6.4v-5.2c0-1.9-0.2-3.3-0.5-4.5c-0.3-1.1-1-2.1-2.3-2.9
		c-1.3-0.8-3.3-1.2-6.1-1.2c-3,0-5.4,0.5-7.1,1.7c-1.7,1.2-2.8,3-3.2,5.3l3.8,0.5c0.4-1.7,1-2.8,2-3.5c1-0.6,2.3-0.9,3.9-0.9
		c1.3,0,2.4,0.2,3.2,0.5c0.7,0.3,1.3,0.7,1.7,1.2c0.3,0.6,0.5,1.1,0.6,1.5c0.1,0.5,0.1,1.3,0.1,2.5c-0.9,0.3-2,0.6-3.3,0.8l-3.7,0.5
		c-3.3,0.5-5.6,1.3-7,2.5c-1.3,1.2-2,2.8-2,4.7c0,2,0.7,3.6,2.1,4.8c1.4,1.2,3.3,1.8,5.7,1.8c3.1,0,5.9-1.1,8.5-3.4
		c0.1,1.2,0.4,2.1,0.8,2.8H99.9"/>
	<polyline clip-path="url(#SVGID_6_)" fill-rule="evenodd" clip-rule="evenodd" fill="#F0F0F0" points="123.6,288.276 
		113.9,273.876 122.7,265.477 117.7,265.477 108.5,274.676 108.5,256.676 104.6,256.676 104.6,288.276 108.5,288.276 108.5,279.176 
		111.2,276.576 118.8,288.276 123.6,288.276 	"/>
	<path clip-path="url(#SVGID_6_)" fill-rule="evenodd" clip-rule="evenodd" fill="#F0F0F0" d="M139.4,271.876l3.8-0.5
		c-0.3-2.2-1.2-3.8-2.7-4.8c-1.5-1.1-3.6-1.6-6.4-1.6c-2.5,0-4.6,0.6-6.1,1.8s-2.3,2.8-2.3,4.7c0,1.6,0.5,2.9,1.6,4
		c1,1.1,3.2,2,6.4,2.8c2.2,0.5,3.6,0.9,4.2,1.1c0.7,0.2,1.2,0.5,1.6,1c0.4,0.4,0.6,0.9,0.6,1.6c0,1-0.4,1.9-1.3,2.6
		c-0.9,0.7-2.2,1.1-3.9,1.1c-1.8,0-3.2-0.4-4.2-1.2c-1-0.8-1.5-2-1.7-3.6l-3.9,0.6c0.4,2.5,1.4,4.3,3,5.5c1.6,1.3,3.9,1.9,6.8,1.9
		c2.8,0,5-0.7,6.7-2.1c1.6-1.4,2.5-3.1,2.5-5.2c0-1.5-0.4-2.7-1-3.5c-0.7-0.9-1.6-1.6-2.8-2c-1.2-0.5-3-1-5.4-1.7
		c-2.2-0.5-3.6-1-4.3-1.4c-0.8-0.4-1.1-1-1.1-1.9c0-1,0.4-1.7,1.3-2.2c1-0.5,2.1-0.8,3.6-0.8s2.7,0.3,3.5,1
		C138.8,269.676,139.3,270.576,139.4,271.876"/>
	<path clip-path="url(#SVGID_6_)" fill-rule="evenodd" clip-rule="evenodd" fill="#F0F0F0" d="M167.3,288.276v-22.8h-3.9v12.2
		c0,3.2-0.7,5.3-1.9,6.3c-1.3,1-2.7,1.5-4.2,1.5c-1.1,0-2.1-0.3-2.9-0.8c-0.8-0.6-1.3-1.3-1.5-2.2c-0.2-0.9-0.3-2.3-0.3-4.4v-12.6
		h-3.9v14.2c0,2,0.2,3.7,0.7,5c0.4,1.3,1.3,2.3,2.7,3.1c1.3,0.7,2.8,1.1,4.4,1.1c3.1,0,5.4-1.3,7.2-3.9h0.1v3.3H167.3"/>
	<path clip-path="url(#SVGID_6_)" fill-rule="evenodd" clip-rule="evenodd" fill="#F0F0F0" d="M201.4,274.676h-12.9
		c0.2-1.9,0.9-3.5,2-4.7c1.2-1.3,2.7-1.9,4.5-1.9c1.6,0,3,0.5,4.3,1.6C200.5,270.676,201.3,272.376,201.4,274.676 M205.4,277.876
		c0-3.7-0.5-6.3-1.6-8.1c-1.1-1.8-2.4-3-3.9-3.7c-1.6-0.8-3.2-1.1-4.9-1.1c-3.4,0-6,1.1-7.9,3.3c-1.8,2.3-2.8,5.2-2.8,8.8
		c0,3.6,1,6.5,2.9,8.6c1.9,2.1,4.6,3.2,8.1,3.2c2.5,0,4.7-0.7,6.4-1.9c1.7-1.3,2.9-3.2,3.6-5.5l-4-0.5c-0.5,1.5-1.3,2.7-2.3,3.5
		c-1,0.8-2.3,1.2-3.7,1.2c-2,0-3.6-0.7-4.9-2c-1.2-1.4-2-3.3-2.1-5.8H205.4"/>
	<polyline clip-path="url(#SVGID_6_)" fill-rule="evenodd" clip-rule="evenodd" fill="#F0F0F0" points="214,288.276 214,265.477 
		210.1,265.477 210.1,288.276 214,288.276 	"/>
	<polyline clip-path="url(#SVGID_6_)" fill-rule="evenodd" clip-rule="evenodd" fill="#F0F0F0" points="214,261.076 214,256.676 
		210.1,256.676 210.1,261.076 214,261.076 	"/>
	<polyline clip-path="url(#SVGID_6_)" fill-rule="evenodd" clip-rule="evenodd" fill="#F0F0F0" points="263.4,288.276 
		253.7,273.876 262.5,265.477 257.4,265.477 248.3,274.676 248.3,256.676 244.4,256.676 244.4,288.276 248.3,288.276 248.3,279.176 
		251,276.576 258.6,288.276 263.4,288.276 	"/>
	<path clip-path="url(#SVGID_6_)" fill-rule="evenodd" clip-rule="evenodd" fill="#F0F0F0" d="M275.8,285.676
		c-1.9,0-3.5-0.8-4.8-2.2c-1.3-1.5-2-3.7-2-6.6s0.7-5.1,1.9-6.6c1.3-1.4,2.9-2.2,4.9-2.2c1.9,0,3.5,0.7,4.8,2.2
		c1.3,1.5,1.9,3.6,1.9,6.5c0,2.6-0.5,4.8-1.7,6.4C279.7,284.876,278,285.676,275.8,285.676 M275.8,264.977c-3,0-5.6,0.9-7.6,2.9
		c-2.1,2-3.1,5-3.1,9c0,4.2,1,7.2,3.2,9.1c2.1,1.9,4.6,2.9,7.5,2.9c2.7,0,5.2-1,7.4-2.8c2.2-1.9,3.3-5.1,3.3-9.6c0-3.7-1-6.5-3-8.5
		C281.4,265.977,278.9,264.977,275.8,264.977"/>
	<path clip-path="url(#SVGID_6_)" fill-rule="evenodd" clip-rule="evenodd" fill="#F0F0F0" d="M303.8,271.876l3.8-0.5
		c-0.3-2.2-1.3-3.8-2.8-4.8c-1.5-1.1-3.6-1.6-6.3-1.6c-2.6,0-4.7,0.6-6.2,1.8s-2.3,2.8-2.3,4.7c0,1.6,0.6,2.9,1.6,4
		c1,1.1,3.2,2,6.4,2.8c2.2,0.5,3.6,0.9,4.2,1.1c0.7,0.2,1.2,0.5,1.6,1c0.4,0.4,0.6,0.9,0.6,1.6c0,1-0.4,1.9-1.3,2.6
		c-0.9,0.7-2.2,1.1-3.9,1.1c-1.8,0-3.2-0.4-4.2-1.2c-0.9-0.8-1.5-2-1.7-3.6l-3.9,0.6c0.4,2.5,1.4,4.3,3,5.5c1.6,1.3,3.9,1.9,6.8,1.9
		c2.8,0,5-0.7,6.7-2.1c1.7-1.4,2.5-3.1,2.5-5.2c0-1.5-0.3-2.7-1-3.5c-0.7-0.9-1.6-1.6-2.8-2c-1.2-0.5-3-1-5.4-1.7
		c-2.2-0.5-3.6-1-4.3-1.4c-0.7-0.4-1.1-1-1.1-1.9c0-1,0.4-1.7,1.4-2.2c0.9-0.5,2.1-0.8,3.5-0.8c1.5,0,2.7,0.3,3.5,1
		C303.1,269.676,303.6,270.576,303.8,271.876"/>
	<polyline clip-path="url(#SVGID_6_)" fill-rule="evenodd" clip-rule="evenodd" fill="#F0F0F0" points="332,288.276 322.4,273.876 
		331.1,265.477 326.1,265.477 316.9,274.676 316.9,256.676 313,256.676 313,288.276 316.9,288.276 316.9,279.176 319.6,276.576 
		327.2,288.276 332,288.276 	"/>
	<path clip-path="url(#SVGID_6_)" fill-rule="evenodd" clip-rule="evenodd" fill="#F0F0F0" d="M351,274.676h-12.9
		c0.1-1.9,0.8-3.5,2-4.7c1.2-1.3,2.7-1.9,4.5-1.9c1.5,0,2.9,0.5,4.2,1.6C350.1,270.676,350.8,272.376,351,274.676 M355,277.876
		c0-3.7-0.6-6.3-1.6-8.1c-1.1-1.8-2.4-3-4-3.7c-1.5-0.8-3.1-1.1-4.8-1.1c-3.4,0-6,1.1-7.9,3.3c-1.9,2.3-2.8,5.2-2.8,8.8
		c0,3.6,0.9,6.5,2.9,8.6c1.9,2.1,4.6,3.2,8,3.2c2.6,0,4.8-0.7,6.5-1.9c1.7-1.3,2.9-3.2,3.5-5.5l-3.9-0.5c-0.6,1.5-1.3,2.7-2.3,3.5
		c-1,0.8-2.3,1.2-3.8,1.2c-1.9,0-3.5-0.7-4.8-2c-1.3-1.4-2-3.3-2.2-5.8H355"/>
</g>
<g>
	<defs>
		<polyline id="SVGID_7_" points="0,445.582 842.01,445.582 842.01,149.694 0,149.694 0,445.582 		"/>
	</defs>
	<clipPath id="SVGID_8_">
		<use xlink:href="#SVGID_7_"  overflow="visible"/>
	</clipPath>
	<path clip-path="url(#SVGID_8_)" fill-rule="evenodd" clip-rule="evenodd" fill="#F0F0F0" d="M483.6,341.876v-15.699
		c0-2.601-0.601-4.5-1.8-5.801c-1.2-1.3-3-1.899-5.301-1.899c-3,0-5.399,1.3-7.1,4c-0.5-1.3-1.2-2.4-2.3-3c-1.101-0.7-2.5-1-4.2-1
		c-3,0-5.3,1.2-6.8,3.7H456v-3.2h-3.5v22.899h3.9v-11.899c0-3.2,0.5-5.3,1.6-6.5c1.101-1.101,2.4-1.7,4.101-1.7c1.3,0,2.3,0.4,3,1.1
		c0.7,0.801,1,2.101,1,4.101v14.899H470v-13.3c0-2.399,0.5-4.1,1.601-5.2c1.2-1,2.5-1.6,4-1.6c1.3,0,2.2,0.3,2.8,0.9
		c0.6,0.6,0.9,1.199,1.1,2c0.101,0.8,0.2,1.699,0.2,2.699v14.5H483.6"/>
	<path clip-path="url(#SVGID_8_)" fill-rule="evenodd" clip-rule="evenodd" fill="#F0F0F0" d="M505.2,328.177H492.3
		c0.199-1.9,0.899-3.5,2-4.7c1.199-1.2,2.699-1.9,4.5-1.9c1.6,0,3,0.601,4.3,1.601C504.3,324.177,505.1,325.876,505.2,328.177
		 M509.2,331.376c0-3.6-0.5-6.3-1.6-8.1c-1.101-1.7-2.4-3-3.9-3.7c-1.6-0.8-3.2-1.1-4.899-1.1c-3.4,0-6,1.1-7.9,3.3
		c-1.8,2.3-2.8,5.2-2.8,8.8c0,3.7,1,6.5,2.899,8.601c1.9,2.1,4.601,3.199,8.101,3.199c2.5,0,4.7-0.6,6.399-1.899
		c1.7-1.3,2.9-3.101,3.601-5.5l-4-0.5c-0.5,1.6-1.3,2.8-2.3,3.5c-1,0.8-2.301,1.2-3.7,1.2c-2,0-3.601-0.7-4.9-2
		c-1.2-1.301-2-3.301-2.1-5.801H509.2"/>
	<path clip-path="url(#SVGID_8_)" fill-rule="evenodd" clip-rule="evenodd" fill="#F0F0F0" d="M522.8,339.177
		c-1.101,0-2.2-0.301-3.2-1c-1-0.601-1.7-1.601-2.3-2.9c-0.5-1.4-0.801-3-0.801-4.9c0-2.6,0.5-4.699,1.5-6.3
		c1.101-1.6,2.601-2.5,4.601-2.5s3.5,0.9,4.6,2.5c1.101,1.7,1.601,3.9,1.601,6.7s-0.601,4.9-1.7,6.3
		C525.9,338.477,524.4,339.177,522.8,339.177 M532.4,341.876v-31.6h-3.9v11.3h-0.1c-1.4-2.1-3.5-3.1-6.2-3.1c-2.899,0-5.3,1-7,3.2
		c-1.8,2.1-2.7,5-2.7,8.699c0,3.601,1,6.4,2.801,8.7c1.899,2.2,4.199,3.3,7,3.3c2.899,0,5-1.199,6.399-3.399v2.899H532.4"/>
	<path clip-path="url(#SVGID_8_)" fill-rule="evenodd" clip-rule="evenodd" fill="#F0F0F0" d="M555.3,325.276v-11.3h8
		c1.899,0,3.3,0.1,4.199,0.399c1,0.2,1.801,0.801,2.4,1.801c0.7,1,1,2.1,1,3.3c0,3.899-2.5,5.8-7.5,5.8H555.3 M551.1,310.276v31.6
		h4.2v-12.8h8.1c4.1,0,7.1-0.899,9-2.7c1.9-1.699,2.8-4.1,2.8-7c0-1.5-0.3-2.899-0.899-4.199c-0.601-1.301-1.5-2.4-2.601-3.2
		c-1.2-0.8-2.399-1.3-3.8-1.5c-1.4-0.101-3-0.2-4.9-0.2H551.1"/>
	<polyline clip-path="url(#SVGID_8_)" fill-rule="evenodd" clip-rule="evenodd" fill="#F0F0F0" points="590.4,332.376 
		590.4,328.477 578.6,328.477 578.6,332.376 590.4,332.376 	"/>
	<path clip-path="url(#SVGID_8_)" fill-rule="evenodd" clip-rule="evenodd" fill="#F0F0F0" d="M603.7,341.776l-0.5-3.4
		c-0.6,0.101-1.2,0.101-1.7,0.101c-1,0-1.6-0.2-1.8-0.7c-0.3-0.5-0.399-1.3-0.399-2.4v-13.399h3.899v-3H599.3v-8l-3.9,2.3v5.7h-2.8
		v3h2.8v13.2c0,1.6,0.1,2.899,0.3,3.8c0.2,0.899,0.601,1.7,1.4,2.3s2,0.9,3.7,0.9C601.6,342.177,602.6,341.977,603.7,341.776"/>
	<path clip-path="url(#SVGID_8_)" fill-rule="evenodd" clip-rule="evenodd" fill="#F0F0F0" d="M623,328.177h-13
		c0.2-1.9,0.9-3.5,2.101-4.7s2.7-1.9,4.5-1.9c1.5,0,2.899,0.601,4.2,1.601C622.1,324.177,622.8,325.876,623,328.177 M626.9,331.376
		c0-3.6-0.5-6.3-1.6-8.1c-1.101-1.7-2.4-3-3.9-3.7c-1.6-0.8-3.2-1.1-4.8-1.1c-3.4,0-6.101,1.1-7.9,3.3
		c-1.899,2.3-2.899,5.2-2.899,8.8c0,3.7,1,6.5,2.899,8.601c2,2.1,4.7,3.199,8.101,3.199c2.6,0,4.699-0.6,6.5-1.899
		c1.699-1.3,2.899-3.101,3.5-5.5l-4-0.5c-0.5,1.6-1.301,2.8-2.301,3.5c-1,0.8-2.199,1.2-3.699,1.2c-1.9,0-3.5-0.7-4.801-2
		c-1.3-1.301-2-3.301-2.199-5.801H626.9"/>
	<path clip-path="url(#SVGID_8_)" fill-rule="evenodd" clip-rule="evenodd" fill="#F0F0F0" d="M650.3,333.977l-3.801-0.5
		c-0.3,1.899-0.899,3.3-1.8,4.3c-1,0.9-2.3,1.4-4,1.4c-2,0-3.6-0.801-4.7-2.301c-1.1-1.5-1.699-3.699-1.699-6.5
		c0-2.8,0.6-4.899,1.699-6.399c1.101-1.601,2.801-2.4,5-2.4c1.301,0,2.4,0.4,3.301,1.2c0.899,0.8,1.5,1.9,1.899,3.5l3.7-0.6
		c-0.4-2.4-1.4-4.2-3.1-5.4c-1.601-1.2-3.7-1.8-6-1.8c-1.7,0-3.4,0.3-4.9,1.1c-1.6,0.7-2.9,2-4,3.7c-1,1.8-1.5,4.2-1.5,7.2
		c0,3.6,0.9,6.5,2.7,8.6c1.8,2.2,4.399,3.3,7.7,3.3c2.3,0,4.3-0.699,6.1-2C648.7,338.977,649.8,336.876,650.3,333.977"/>
	<polyline clip-path="url(#SVGID_8_)" fill-rule="evenodd" clip-rule="evenodd" fill="#F0F0F0" points="672.6,341.876 663,327.477 
		671.7,318.977 666.7,318.977 657.5,328.276 657.5,310.276 653.6,310.276 653.6,341.876 657.5,341.876 657.5,332.776 660.2,330.177 
		667.8,341.876 672.6,341.876 	"/>
	<path clip-path="url(#SVGID_8_)" fill-rule="evenodd" clip-rule="evenodd" fill="#F0F0F0" d="M694.4,341.876v-14.1
		c0-1.7-0.1-3-0.3-4c-0.101-1-0.601-1.9-1.2-2.7c-0.7-0.899-1.6-1.5-2.8-2c-1.2-0.399-2.4-0.6-3.601-0.6c-1.6,0-2.899,0.3-4.1,0.899
		c-1.2,0.601-2.3,1.601-3.1,2.801H679.2v-3.2H675.8v22.899h3.8v-12.5c0-1.899,0.2-3.3,0.7-4.399c0.399-1,1.1-1.8,2.199-2.3
		c1-0.601,2.101-0.9,3.2-0.9c1.5,0,2.7,0.5,3.5,1.3c0.9,0.9,1.3,2.5,1.3,4.9v13.899H694.4"/>
	<path clip-path="url(#SVGID_8_)" fill-rule="evenodd" clip-rule="evenodd" fill="#F0F0F0" d="M716.1,328.177h-12.9
		c0.2-1.9,0.9-3.5,2-4.7c1.2-1.2,2.7-1.9,4.5-1.9c1.601,0,3,0.601,4.3,1.601C715.2,324.177,716,325.876,716.1,328.177
		 M720.1,331.376c0-3.6-0.5-6.3-1.601-8.1c-1.1-1.7-2.399-3-3.899-3.7c-1.601-0.8-3.2-1.1-4.9-1.1c-3.399,0-6,1.1-7.899,3.3
		c-1.801,2.3-2.801,5.2-2.801,8.8c0,3.7,1,6.5,2.9,8.601c1.9,2.1,4.6,3.199,8.1,3.199c2.5,0,4.7-0.6,6.4-1.899
		c1.8-1.3,2.9-3.101,3.6-5.5l-4-0.5c-0.5,1.6-1.3,2.8-2.3,3.5c-1,0.8-2.3,1.2-3.7,1.2c-2,0-3.6-0.7-4.899-2
		c-1.2-1.301-2-3.301-2.101-5.801H720.1"/>
	<path clip-path="url(#SVGID_8_)" fill-rule="evenodd" clip-rule="evenodd" fill="#F0F0F0" d="M733.7,341.776l-0.5-3.4
		c-0.6,0.101-1.2,0.101-1.8,0.101c-0.9,0-1.5-0.2-1.8-0.7c-0.2-0.5-0.3-1.3-0.3-2.4v-13.399h3.899v-3H729.3v-8l-3.9,2.3v5.7h-2.8v3
		h2.8v13.2c0,1.6,0.1,2.899,0.3,3.8c0.101,0.899,0.601,1.7,1.4,2.3s2,0.9,3.7,0.9C731.6,342.177,732.5,341.977,733.7,341.776"/>
	<polyline clip-path="url(#SVGID_8_)" fill-rule="evenodd" clip-rule="evenodd" fill="#F0F0F0" points="742.5,323.376 
		742.5,318.977 738.1,318.977 738.1,323.376 742.5,323.376 	"/>
	<polyline clip-path="url(#SVGID_8_)" fill-rule="evenodd" clip-rule="evenodd" fill="#F0F0F0" points="742.5,341.876 
		742.5,337.376 738.1,337.376 738.1,341.876 742.5,341.876 	"/>
</g>
<g>
	<defs>
		<polyline id="SVGID_9_" points="0,445.582 842.01,445.582 842.01,149.694 0,149.694 0,445.582 		"/>
	</defs>
	<clipPath id="SVGID_10_">
		<use xlink:href="#SVGID_9_"  overflow="visible"/>
	</clipPath>
	<path clip-path="url(#SVGID_10_)" fill-rule="evenodd" clip-rule="evenodd" fill="#F0F0F0" d="M469.4,283.576h-10.7l3.5-9.4
		c0.7-1.8,1.2-3.8,1.601-5.9H464c0.4,1.5,0.7,2.8,1.101,3.7C465.4,272.876,466.8,276.776,469.4,283.576 M479.1,296.576l-12.9-31.6
		h-4.5l-12.1,31.6H454l3.5-9.7h13.2l3.7,9.7H479.1"/>
	<path clip-path="url(#SVGID_10_)" fill-rule="evenodd" clip-rule="evenodd" fill="#F0F0F0" d="M500.6,273.676h-4l-5.3,14.6
		c-0.5,1.6-0.9,2.8-1.101,3.7h-0.1c-0.2-0.9-0.7-2.6-1.601-5.1l-4.699-13.2H479.7l8.7,22.9h3.6L500.6,273.676"/>
	<path clip-path="url(#SVGID_10_)" fill-rule="evenodd" clip-rule="evenodd" fill="#F0F0F0" d="M512.9,293.376
		c-1.8,0-3.3-0.7-4.5-2.1s-1.8-3.6-1.8-6.6c0-2.6,0.6-4.6,1.7-6.1c1.199-1.5,2.699-2.3,4.5-2.3c1.8,0,3.3,0.8,4.6,2.2
		c1.2,1.5,1.8,3.6,1.8,6.3c0,3.1-0.6,5.3-1.899,6.6C516,292.676,514.5,293.376,512.9,293.376 M522.8,293.477v-19.8H519.2v2.7
		c-1.7-2.1-3.899-3.2-6.6-3.2c-3.101,0-5.601,1.1-7.3,3.3c-1.801,2.3-2.7,5.1-2.7,8.4c0,3.4,0.899,6.2,2.8,8.4
		c1.8,2.2,4.1,3.3,7.1,3.3c2.601,0,4.7-1,6.4-3c0,2-0.1,3.7-0.3,4.8c-0.2,1.2-0.8,2.2-1.8,3c-0.9,0.801-2.4,1.301-4.4,1.301
		c-1.6,0-2.8-0.301-3.7-0.9c-0.899-0.7-1.399-1.6-1.5-2.8l-3.8-0.5c0,2.6,0.9,4.5,2.6,5.6c1.7,1.2,3.9,1.7,6.5,1.7
		c2.301,0,4.2-0.4,5.9-1.3c1.7-0.9,2.8-2.101,3.4-3.7C522.5,299.076,522.8,296.676,522.8,293.477"/>
	<polyline clip-path="url(#SVGID_10_)" fill-rule="evenodd" clip-rule="evenodd" fill="#F0F0F0" points="532.5,296.576 
		532.5,273.676 528.6,273.676 528.6,296.576 532.5,296.576 	"/>
	<polyline clip-path="url(#SVGID_10_)" fill-rule="evenodd" clip-rule="evenodd" fill="#F0F0F0" points="532.5,269.376 
		532.5,264.977 528.6,264.977 528.6,269.376 532.5,269.376 	"/>
	<path clip-path="url(#SVGID_10_)" fill-rule="evenodd" clip-rule="evenodd" fill="#F0F0F0" d="M549.2,264.776
		c-0.6-0.1-1.2-0.2-1.8-0.3c-0.6,0-1.2-0.1-1.8-0.1c-1.9,0-3.4,0.4-4.3,1.2c-0.9,0.7-1.5,1.6-1.7,2.5c-0.2,0.9-0.3,2-0.3,3.1v2.5
		h-3.5v3h3.5v19.9h3.899v-19.9h4.4v-3h-4.4v-2.2c0-1.5,0.3-2.5,0.9-2.9c0.5-0.4,1.3-0.6,2.2-0.6c0.8,0,1.6,0.1,2.3,0.2
		L549.2,264.776"/>
	<path clip-path="url(#SVGID_10_)" fill-rule="evenodd" clip-rule="evenodd" fill="#F0F0F0" d="M559.6,296.477l-0.5-3.4
		c-0.601,0.1-1.2,0.1-1.7,0.1c-1,0-1.6-0.2-1.8-0.7c-0.3-0.5-0.4-1.3-0.4-2.4v-13.4h3.9v-3h-3.9v-8l-3.899,2.3v5.7H548.5v3h2.801
		v13.2c0,1.6,0.1,2.9,0.3,3.8s0.6,1.7,1.399,2.3c0.801,0.6,2,0.9,3.7,0.9C557.5,296.876,558.5,296.676,559.6,296.477"/>
	<path clip-path="url(#SVGID_10_)" fill-rule="evenodd" clip-rule="evenodd" fill="#F0F0F0" d="M578.9,282.876h-13
		c0.2-1.9,0.9-3.5,2.1-4.7c1.101-1.2,2.601-1.9,4.5-1.9c1.5,0,2.9,0.6,4.2,1.6S578.7,280.576,578.9,282.876 M582.8,286.076
		c0-3.6-0.5-6.3-1.601-8.1c-1.1-1.7-2.399-3-3.899-3.7c-1.601-0.8-3.2-1.1-4.801-1.1c-3.399,0-6.1,1.1-7.899,3.3
		c-1.9,2.3-2.9,5.2-2.9,8.8c0,3.7,1,6.5,2.9,8.6c2,2.1,4.7,3.2,8.1,3.2c2.601,0,4.7-0.6,6.5-1.9c1.7-1.3,2.9-3.1,3.5-5.5l-4-0.5
		c-0.5,1.6-1.3,2.8-2.3,3.5c-1,0.8-2.2,1.2-3.7,1.2c-1.899,0-3.5-0.7-4.8-2c-1.3-1.3-2-3.3-2.2-5.8H582.8"/>
	<path clip-path="url(#SVGID_10_)" fill-rule="evenodd" clip-rule="evenodd" fill="#F0F0F0" d="M606.2,296.576v-14.1
		c0-1.7-0.1-3-0.3-4c-0.1-1-0.6-1.9-1.2-2.7c-0.7-0.9-1.6-1.5-2.8-2c-1.2-0.4-2.4-0.6-3.6-0.6c-1.601,0-2.9,0.3-4.101,0.9
		c-1.2,0.6-2.3,1.6-3.1,2.8H591v-3.2h-3.5v22.9h3.9v-12.5c0-1.9,0.2-3.4,0.7-4.4c0.399-1,1.1-1.8,2.2-2.3c1-0.6,2.1-0.9,3.199-0.9
		c1.5,0,2.7,0.5,3.5,1.3c0.9,0.9,1.301,2.5,1.301,4.9v13.9H606.2"/>
	<path clip-path="url(#SVGID_10_)" fill-rule="evenodd" clip-rule="evenodd" fill="#F0F0F0" d="M633.1,293.376
		c-1.8,0-3.2-0.7-4.5-2.1c-1.2-1.4-1.8-3.6-1.8-6.6c0-2.6,0.6-4.6,1.8-6.1c1.1-1.5,2.6-2.3,4.5-2.3c1.7,0,3.3,0.8,4.5,2.2
		c1.2,1.5,1.8,3.6,1.8,6.3c0,3.1-0.6,5.3-1.9,6.6C636.2,292.676,634.7,293.376,633.1,293.376 M643,293.477v-19.8h-3.5v2.7h-0.1
		c-1.7-2.1-3.9-3.2-6.6-3.2c-3.101,0-5.601,1.1-7.301,3.3c-1.8,2.3-2.6,5.1-2.6,8.4c0,3.4,0.9,6.2,2.7,8.4s4.2,3.3,7.1,3.3
		c2.601,0,4.7-1,6.4-3c0,2-0.101,3.7-0.3,4.8c-0.2,1.2-0.801,2.2-1.7,3c-1,0.801-2.4,1.301-4.5,1.301c-1.601,0-2.8-0.301-3.7-0.9
		c-0.8-0.7-1.3-1.6-1.5-2.8l-3.8-0.5c0,2.6,0.899,4.5,2.6,5.6c1.7,1.2,3.9,1.7,6.5,1.7c2.3,0,4.3-0.4,5.9-1.3
		c1.7-0.9,2.8-2.101,3.5-3.7C642.7,299.076,643,296.676,643,293.477"/>
	<path clip-path="url(#SVGID_10_)" fill-rule="evenodd" clip-rule="evenodd" fill="#F0F0F0" d="M663.5,286.477
		c0,2.7-0.699,4.7-2.199,5.8c-1.4,1.2-3.101,1.7-5,1.7c-1.5,0-2.601-0.3-3.4-1c-0.8-0.7-1.2-1.5-1.2-2.6c0-2.1,1.5-3.3,4.4-3.7
		c2.899-0.4,5.399-0.9,7.399-1.6V286.477 M668.7,296.576c-0.6-1.1-1-2.1-1.1-3.2c-0.101-1.1-0.2-3.2-0.2-6.4v-5.2
		c0-1.8-0.1-3.3-0.4-4.5c-0.3-1.1-1.1-2.1-2.399-2.9c-1.3-0.8-3.3-1.2-6-1.2c-3.101,0-5.4,0.6-7.2,1.7c-1.7,1.2-2.7,3-3.2,5.3
		l3.8,0.5c0.4-1.7,1.101-2.8,2-3.4c1-0.6,2.301-1,4-1c1.301,0,2.301,0.2,3.101,0.5s1.3,0.8,1.7,1.3c0.3,0.5,0.6,1,0.6,1.5
		c0.1,0.4,0.1,1.3,0.1,2.4c-0.8,0.4-2,0.6-3.3,0.8l-3.6,0.6c-3.3,0.4-5.7,1.2-7,2.4c-1.4,1.2-2,2.8-2,4.7c0,2,0.7,3.6,2.1,4.8
		c1.4,1.2,3.3,1.8,5.7,1.8c3,0,5.8-1.1,8.4-3.4c0.199,1.2,0.399,2.1,0.8,2.9H668.7"/>
	<polyline clip-path="url(#SVGID_10_)" fill-rule="evenodd" clip-rule="evenodd" fill="#F0F0F0" points="664.1,269.576 
		664.1,265.176 660.1,265.176 660.1,269.576 664.1,269.576 	"/>
	<polyline clip-path="url(#SVGID_10_)" fill-rule="evenodd" clip-rule="evenodd" fill="#F0F0F0" points="656.1,269.576 
		656.1,265.176 652.2,265.176 652.2,269.576 656.1,269.576 	"/>
	<polyline clip-path="url(#SVGID_10_)" fill-rule="evenodd" clip-rule="evenodd" fill="#F0F0F0" points="677.3,296.576 
		677.3,264.977 673.4,264.977 673.4,296.576 677.3,296.576 	"/>
	<polyline clip-path="url(#SVGID_10_)" fill-rule="evenodd" clip-rule="evenodd" fill="#F0F0F0" points="687.1,296.576 
		687.1,264.977 683.2,264.977 683.2,296.576 687.1,296.576 	"/>
	<path clip-path="url(#SVGID_10_)" fill-rule="evenodd" clip-rule="evenodd" fill="#F0F0F0" d="M708.9,282.876H696
		c0.101-1.9,0.801-3.5,2-4.7c1.2-1.2,2.7-1.9,4.5-1.9c1.5,0,2.9,0.6,4.2,1.6S708.7,280.576,708.9,282.876 M712.9,286.076
		c0-3.6-0.6-6.3-1.6-8.1c-1.101-1.7-2.4-3-4-3.7c-1.5-0.8-3.101-1.1-4.801-1.1c-3.399,0-6,1.1-7.899,3.3c-1.9,2.3-2.8,5.2-2.8,8.8
		c0,3.7,0.899,6.5,2.899,8.6c1.9,2.1,4.601,3.2,8,3.2c2.601,0,4.8-0.6,6.5-1.9c1.7-1.3,2.9-3.1,3.5-5.5l-3.899-0.5
		c-0.601,1.6-1.301,2.8-2.4,3.5c-1,0.8-2.2,1.2-3.7,1.2c-1.899,0-3.5-0.7-4.8-2c-1.3-1.3-2-3.3-2.2-5.8H712.9"/>
	<path clip-path="url(#SVGID_10_)" fill-rule="evenodd" clip-rule="evenodd" fill="#F0F0F0" d="M729.9,274.376
		c-1.4-0.8-2.7-1.2-4-1.2c-2,0-3.6,1.3-4.9,3.9h-0.1v-3.4h-3.5v22.9h3.9v-12c0-2.4,0.399-4.2,1.1-5.5c0.7-1.3,1.8-2,3.3-2
		c0.9,0,1.9,0.3,2.8,0.9L729.9,274.376"/>
	<path clip-path="url(#SVGID_10_)" fill-rule="evenodd" clip-rule="evenodd" fill="#F0F0F0" d="M760.4,282.876h-13
		c0.2-1.9,0.9-3.5,2.1-4.7c1.2-1.2,2.7-1.9,4.5-1.9c1.5,0,2.9,0.6,4.2,1.6S760.2,280.576,760.4,282.876 M764.4,286.076
		c0-3.6-0.6-6.3-1.7-8.1c-1-1.7-2.3-3-3.899-3.7c-1.5-0.8-3.101-1.1-4.801-1.1c-3.399,0-6.1,1.1-7.899,3.3c-1.9,2.3-2.8,5.2-2.8,8.8
		c0,3.7,0.899,6.5,2.899,8.6c1.9,2.1,4.601,3.2,8,3.2c2.601,0,4.7-0.6,6.5-1.9c1.7-1.3,2.9-3.1,3.5-5.5l-4-0.5
		c-0.5,1.6-1.3,2.8-2.3,3.5c-1,0.8-2.2,1.2-3.7,1.2c-1.899,0-3.5-0.7-4.8-2c-1.3-1.3-2-3.3-2.2-5.8H764.4"/>
	<path clip-path="url(#SVGID_10_)" fill-rule="evenodd" clip-rule="evenodd" fill="#F0F0F0" d="M772.9,297.776v-24.1H769v24
		c0,2-0.199,3.3-0.5,3.9c-0.399,0.5-1,0.8-1.8,0.8c-0.5,0-1.1-0.1-1.899-0.3l-0.7,3.3c1,0.301,2,0.4,3,0.4c1.8,0,3.1-0.4,3.899-1.3
		c0.9-0.8,1.4-1.7,1.601-2.8C772.8,300.576,772.9,299.276,772.9,297.776"/>
	<polyline clip-path="url(#SVGID_10_)" fill-rule="evenodd" clip-rule="evenodd" fill="#F0F0F0" points="772.9,269.376 
		772.9,264.977 769,264.977 769,269.376 772.9,269.376 	"/>
</g>
</svg>
