<?xml version="1.0" encoding="utf-8"?>
<!-- Generator: Adobe Illustrator 14.0.0, SVG Export Plug-In . SVG Version: 6.00 Build 43363)  -->
<!DOCTYPE svg PUBLIC "-//W3C//DTD SVG 1.1//EN" "http://www.w3.org/Graphics/SVG/1.1/DTD/svg11.dtd">
<svg version="1.1" id="Layer_1" xmlns="http://www.w3.org/2000/svg" xmlns:xlink="http://www.w3.org/1999/xlink" x="0px" y="0px"
	 width="841.89px" height="595.276px" viewBox="0 0 841.89 595.276" enable-background="new 0 0 841.89 595.276"
	 xml:space="preserve">
<g>
	<defs>
		<polyline id="SVGID_1_" points="0,446.242 842.01,446.242 842.01,149.035 0,149.035 0,446.242 		"/>
	</defs>
	<clipPath id="SVGID_2_">
		<use xlink:href="#SVGID_1_"  overflow="visible"/>
	</clipPath>
	<path clip-path="url(#SVGID_2_)" fill-rule="evenodd" clip-rule="evenodd" fill="#F0F0F0" d="M788,159.477H50.4
		c-2.4,0-4.9,0.2-7.5,0.6c-2.5,0.5-5.1,1.2-7.6,2.2c-5.1,2.1-9.9,5.1-13.9,9.2c-4,4-7.1,8.8-9.1,13.9c-1,2.5-1.7,5-2.2,7.6
		c-0.5,2.5-0.7,5-0.7,7.4v191.3c0,2.399,0.2,4.899,0.7,7.399c0.5,2.601,1.2,5.101,2.2,7.7c2,5.1,5.1,9.8,9.1,13.9
		c4,4,8.8,7.1,13.9,9.1c2.5,1,5.1,1.7,7.6,2.2c2.6,0.399,5.1,0.7,7.5,0.7H788c2.4,0,4.9-0.301,7.5-0.7c2.5-0.5,5.101-1.2,7.601-2.2
		c5.1-2,9.899-5.1,13.899-9.1c4-4.101,7.101-8.801,9.101-13.9c1-2.6,1.8-5.1,2.2-7.7c0.5-2.5,0.699-5,0.699-7.399v-191.3
		c0-2.4-0.199-4.9-0.699-7.4c-0.4-2.6-1.2-5.1-2.2-7.6c-2-5.1-5.101-9.9-9.101-13.9c-4-4.1-8.8-7.1-13.899-9.2
		c-2.5-1-5.101-1.7-7.601-2.2C792.9,159.676,790.4,159.477,788,159.477"/>
	<path clip-path="url(#SVGID_2_)" fill-rule="evenodd" clip-rule="evenodd" fill="#0000FF" d="M788,179.876H50.4
		c-2.4,0-5,0.5-7.6,1.5c-2.5,1-4.9,2.5-6.9,4.5c-2,2.1-3.6,4.4-4.6,7c-1,2.5-1.4,5.1-1.4,7.5v191.3c0,2.399,0.4,5,1.4,7.5
		c1,2.6,2.6,4.899,4.6,7c2,2,4.4,3.5,6.9,4.5c2.6,1,5.2,1.5,7.6,1.5H788c2.5,0,5-0.5,7.601-1.5c2.5-1,4.899-2.5,6.899-4.5
		c2-2.101,3.601-4.4,4.601-7c1-2.5,1.399-5.101,1.399-7.5v-191.3c0-2.4-0.399-5-1.399-7.5c-1-2.6-2.601-4.9-4.601-7
		c-2-2-4.399-3.5-6.899-4.5C793,180.376,790.5,179.876,788,179.876"/>
	<path clip-path="url(#SVGID_2_)" fill-rule="evenodd" clip-rule="evenodd" fill="#F0F0F0" d="M372.3,326.876l16.7-2.199
		c1,4.8,2.3,8.899,3.9,12.3c1.7,3.399,3.6,6.2,5.9,8.3c4.6,4.2,10.3,6.3,17,6.3c7.9,0,14.5-2.7,19.9-8.2
		c5.5-5.5,8.2-12.199,8.2-20.3c0-7.7-2.5-14-7.6-19c-5-5-11.4-7.5-19.2-7.5c-1.5,0-3.3,0.1-5.3,0.4c-2,0.3-4.1,0.8-6.5,1.399
		l1.9-14.6c1.1,0.1,2,0.1,2.7,0.1c7.1,0,13.5-1.8,19.3-5.5c5.7-3.8,8.5-9.5,8.5-17.3c0-6.1-2.1-11.2-6.2-15.2
		c-4.199-4-9.5-6.1-16.1-6.1c-6.5,0-12,2.1-16.3,6.2c-2.2,2.1-4,4.6-5.4,7.7c-1.4,3.1-2.4,6.7-3,10.8l-16.8-3
		c2.1-11.2,6.8-20,14-26.1c7.3-6.2,16.3-9.3,27.1-9.3c7.5,0,14.3,1.6,20.6,4.8c6.3,3.2,11.1,7.5,14.399,13.1
		c3.301,5.5,5,11.3,5,17.5c0,5.9-1.6,11.3-4.8,16.1c-3.1,4.8-7.8,8.7-14,11.5c8.101,1.9,14.3,5.8,18.8,11.601
		c4.4,5.899,6.7,13.199,6.7,22c0,11.899-4.399,22-13.1,30.3s-19.7,12.399-32.9,12.399c-12,0-22-3.5-29.9-10.699
		C377.9,347.576,373.4,338.276,372.3,326.876"/>
	
		<line clip-path="url(#SVGID_2_)" fill="none" stroke="#0000FF" stroke-width="0.12" stroke-linejoin="bevel" stroke-miterlimit="1.414" x1="829" y1="159.477" x2="9.4" y2="159.477"/>
	
		<line clip-path="url(#SVGID_2_)" fill="none" stroke="#0000FF" stroke-width="0.12" stroke-linejoin="bevel" stroke-miterlimit="1.414" x1="9.4" y1="432.677" x2="829" y2="432.677"/>
	
		<line clip-path="url(#SVGID_2_)" fill="none" stroke="#0000FF" stroke-width="0.12" stroke-linejoin="bevel" stroke-miterlimit="1.414" x1="829" y1="159.477" x2="829" y2="432.677"/>
	
		<line clip-path="url(#SVGID_2_)" fill="none" stroke="#0000FF" stroke-width="0.12" stroke-linejoin="bevel" stroke-miterlimit="1.414" x1="9.4" y1="159.477" x2="9.4" y2="432.677"/>
	<path clip-path="url(#SVGID_2_)" fill-rule="evenodd" clip-rule="evenodd" fill="#0000FF" d="M9.4,200.376c0-2.4,0.2-4.9,0.7-7.4
		s1.2-5.1,2.2-7.6c2-5.1,5-9.9,9.1-13.9c4-4.1,8.8-7.1,13.8-9.1c2.6-1,5.1-1.8,7.7-2.2c2.5-0.5,5-0.7,7.4-0.7H9.4V200.376"/>
	<path clip-path="url(#SVGID_2_)" fill-rule="evenodd" clip-rule="evenodd" fill="#0000FF" d="M50.4,432.677
		c-2.4,0-4.9-0.301-7.5-0.7c-2.5-0.5-5.1-1.2-7.6-2.2c-5.1-2-9.8-5.1-13.9-9.1c-4-4.101-7.1-8.801-9.1-13.9c-1-2.5-1.7-5.1-2.2-7.6
		s-0.7-5-0.7-7.5v41h0.1H50.4"/>
	<path clip-path="url(#SVGID_2_)" fill-rule="evenodd" clip-rule="evenodd" fill="#0000FF" d="M829,391.677
		c0,2.399-0.199,4.899-0.699,7.399c-0.4,2.601-1.2,5.101-2.2,7.601c-2,5.1-5,9.899-9.101,13.899c-4,4.101-8.699,7.101-13.8,9.2
		c-2.6,1-5.1,1.7-7.7,2.2c-2.5,0.399-5,0.7-7.399,0.7H829v-0.101V391.677"/>
	<path clip-path="url(#SVGID_2_)" fill-rule="evenodd" clip-rule="evenodd" fill="#0000FF" d="M788,159.477c2.4,0,4.9,0.2,7.5,0.6
		c2.5,0.5,5.101,1.2,7.601,2.2c5.1,2,9.8,5.1,13.899,9.1c4,4.1,7.101,8.8,9.101,13.9c1,2.5,1.7,5.1,2.2,7.6
		c0.5,2.6,0.699,5,0.699,7.5v-40.9h-0.1H788"/>
</g>
</svg>
