<?xml version="1.0" encoding="utf-8"?>
<!-- Generator: Adobe Illustrator 14.0.0, SVG Export Plug-In . SVG Version: 6.00 Build 43363)  -->
<!DOCTYPE svg PUBLIC "-//W3C//DTD SVG 1.1//EN" "http://www.w3.org/Graphics/SVG/1.1/DTD/svg11.dtd">
<svg version="1.1" id="Layer_1" xmlns="http://www.w3.org/2000/svg" xmlns:xlink="http://www.w3.org/1999/xlink" x="0px" y="0px"
	 width="841.89px" height="595.276px" viewBox="0 0 841.89 595.276" enable-background="new 0 0 841.89 595.276"
	 xml:space="preserve">
<g>
	<defs>
		<polyline id="SVGID_1_" points="3.918,445.232 837.972,445.232 837.972,150.045 3.918,150.045 3.918,445.232 		"/>
	</defs>
	<clipPath id="SVGID_2_">
		<use xlink:href="#SVGID_1_"  overflow="visible"/>
	</clipPath>
	<path clip-path="url(#SVGID_2_)" fill-rule="evenodd" clip-rule="evenodd" fill="#FF0000" d="M789.6,157.276H52
		c-2.4,0-4.9,0.2-7.4,0.6c-2.6,0.5-5.1,1.2-7.7,2.2c-5.1,2.1-9.8,5.1-13.8,9.2c-4.1,4-7.2,8.8-9.2,13.8c-1,2.6-1.7,5.1-2.2,7.7
		c-0.4,2.5-0.7,5-0.7,7.4v191.3c0,2.399,0.3,4.899,0.7,7.399c0.5,2.601,1.2,5.101,2.2,7.601c2,5.1,5.1,9.899,9.2,13.899
		c4,4.101,8.7,7.101,13.8,9.2c2.6,1,5.1,1.7,7.7,2.101c2.5,0.5,5,0.699,7.4,0.699h737.6c2.399,0,4.899-0.199,7.399-0.699
		c2.601-0.4,5.101-1.101,7.7-2.101c5.101-2.1,9.8-5.1,13.9-9.2c4-4,7.1-8.8,9.1-13.899c1-2.5,1.7-5.101,2.2-7.601s0.7-5,0.7-7.399
		v-191.3c0-2.4-0.2-4.9-0.7-7.4c-0.5-2.6-1.2-5.1-2.2-7.7c-2-5-5.1-9.8-9.1-13.8c-4.101-4.1-8.8-7.1-13.9-9.2
		c-2.6-1-5.1-1.7-7.7-2.2C794.5,157.477,792,157.276,789.6,157.276"/>
	<path clip-path="url(#SVGID_2_)" fill-rule="evenodd" clip-rule="evenodd" fill="#FFFF00" d="M789.6,177.676H52
		c-2.4,0-5,0.5-7.5,1.5c-2.6,1-4.9,2.5-7,4.5c-2,2.1-3.5,4.4-4.5,7c-1,2.5-1.5,5.1-1.5,7.5v191.3c0,2.399,0.5,5,1.5,7.5
		s2.5,4.899,4.5,6.899c2.1,2.101,4.4,3.601,7,4.601c2.5,1,5.1,1.399,7.5,1.399h737.6c2.399,0,5-0.399,7.5-1.399c2.6-1,5-2.5,7-4.601
		c2-2,3.5-4.399,4.5-6.899s1.5-5.101,1.5-7.5v-191.3c0-2.4-0.5-5-1.5-7.5c-1-2.6-2.5-4.9-4.5-7c-2-2-4.4-3.5-7-4.5
		C794.6,178.176,792,177.676,789.6,177.676"/>
	<path clip-path="url(#SVGID_2_)" fill-rule="evenodd" clip-rule="evenodd" fill="#404040" d="M370,323.977l16.7-2.2
		c1,4.7,2.3,8.8,3.9,12.2c1.7,3.5,3.6,6.2,5.9,8.3c4.6,4.2,10.3,6.3,17,6.3c7.9,0,14.5-2.7,19.9-8.2c5.5-5.399,8.2-12.199,8.2-20.3
		c0-7.7-2.601-14-7.601-19s-11.399-7.5-19.2-7.5c-1.5,0-3.3,0.1-5.3,0.5c-2,0.3-4.1,0.7-6.5,1.4l1.9-14.7c1.1,0.1,2,0.2,2.7,0.2
		c7.1,0,13.5-1.9,19.3-5.6c5.7-3.7,8.5-9.5,8.5-17.2c0-6.2-2.1-11.2-6.2-15.3c-4.2-4-9.5-6-16.1-6c-6.5,0-12,2-16.3,6.1
		c-2.2,2.1-4,4.7-5.4,7.8c-1.4,3-2.4,6.6-3,10.7l-16.8-3c2.1-11.2,6.8-19.9,14-26.1c7.3-6.2,16.3-9.3,27.1-9.3
		c7.5,0,14.299,1.6,20.6,4.8c6.3,3.2,11.1,7.6,14.399,13.1s5,11.4,5,17.6c0,5.9-1.6,11.2-4.8,16c-3.1,4.9-7.8,8.7-14,11.6
		c8.1,1.8,14.3,5.7,18.8,11.6c4.4,5.8,6.7,13.2,6.7,22c0,11.9-4.4,22-13.1,30.2c-8.7,8.3-19.7,12.5-32.9,12.5
		c-12,0-22-3.601-29.9-10.8C375.6,344.576,371.1,335.276,370,323.977"/>
	
		<line clip-path="url(#SVGID_2_)" fill="none" stroke="#FFFF00" stroke-width="0.12" stroke-linejoin="bevel" stroke-miterlimit="1.414" x1="830.6" y1="157.276" x2="11" y2="157.276"/>
	
		<line clip-path="url(#SVGID_2_)" fill="none" stroke="#FFFF00" stroke-width="0.12" stroke-linejoin="bevel" stroke-miterlimit="1.414" x1="11" y1="430.376" x2="830.6" y2="430.376"/>
	
		<line clip-path="url(#SVGID_2_)" fill="none" stroke="#FFFF00" stroke-width="0.12" stroke-linejoin="bevel" stroke-miterlimit="1.414" x1="830.6" y1="430.376" x2="830.6" y2="157.276"/>
	
		<line clip-path="url(#SVGID_2_)" fill="none" stroke="#FFFF00" stroke-width="0.12" stroke-linejoin="bevel" stroke-miterlimit="1.414" x1="11" y1="430.376" x2="11" y2="157.276"/>
	<path clip-path="url(#SVGID_2_)" fill-rule="evenodd" clip-rule="evenodd" fill="#FFFF00" d="M11,198.176c0-2.4,0.3-4.9,0.7-7.4
		c0.5-2.6,1.2-5.1,2.2-7.6c2-5.1,5.1-9.9,9.1-13.9c4.1-4.1,8.8-7.1,13.9-9.1c2.5-1,5.1-1.8,7.6-2.2c2.5-0.5,5-0.7,7.5-0.7H11
		V198.176"/>
	<path clip-path="url(#SVGID_2_)" fill-rule="evenodd" clip-rule="evenodd" fill="#FFFF00" d="M52,430.376
		c-2.4,0-4.9-0.199-7.4-0.699c-2.6-0.4-5.1-1.101-7.6-2.101c-5.1-2.1-9.9-5.1-13.9-9.1c-4.1-4.101-7.1-8.8-9.2-13.9
		c-1-2.5-1.7-5.1-2.2-7.6c-0.4-2.601-0.6-5.101-0.7-7.5v40.899h0.1H52"/>
	<path clip-path="url(#SVGID_2_)" fill-rule="evenodd" clip-rule="evenodd" fill="#FFFF00" d="M789.6,157.276
		c2.399,0,4.899,0.2,7.399,0.6c2.601,0.5,5.101,1.2,7.7,2.2c5,2,9.8,5.1,13.8,9.1c4.101,4.1,7.101,8.8,9.2,13.9
		c1,2.5,1.7,5.1,2.2,7.6c0.4,2.6,0.7,5,0.7,7.5v-40.9H830.5H789.6"/>
	<path clip-path="url(#SVGID_2_)" fill-rule="evenodd" clip-rule="evenodd" fill="#FFFF00" d="M830.6,389.477
		c0,2.399-0.2,4.899-0.7,7.399s-1.2,5.101-2.2,7.601c-2,5.1-5.1,9.899-9.1,13.899s-8.8,7.101-13.9,9.101c-2.5,1-5.1,1.8-7.6,2.2
		c-2.5,0.5-5,0.699-7.4,0.699h40.9V389.477"/>
</g>
</svg>
