<?xml version="1.0" encoding="utf-8"?>
<!-- Generator: Adobe Illustrator 14.0.0, SVG Export Plug-In . SVG Version: 6.00 Build 43363)  -->
<!DOCTYPE svg PUBLIC "-//W3C//DTD SVG 1.1//EN" "http://www.w3.org/Graphics/SVG/1.1/DTD/svg11.dtd">
<svg version="1.1" id="Layer_1" xmlns="http://www.w3.org/2000/svg" xmlns:xlink="http://www.w3.org/1999/xlink" x="0px" y="0px"
	 width="708.661px" height="311.811px" viewBox="0 0 708.661 311.811" enable-background="new 0 0 708.661 311.811"
	 xml:space="preserve">
<g>
	<defs>
		<polyline id="SVGID_1_" points="0,297.758 708.781,297.758 708.781,14.053 0,14.053 0,297.758 		"/>
	</defs>
	<clipPath id="SVGID_2_">
		<use xlink:href="#SVGID_1_"  overflow="visible"/>
	</clipPath>
	
		<line clip-path="url(#SVGID_2_)" fill="none" stroke="#FFFF00" stroke-width="0.12" stroke-linejoin="bevel" stroke-miterlimit="1.414" x1="21.4" y1="295.41" x2="21.4" y2="16.411"/>
	
		<line clip-path="url(#SVGID_2_)" fill="none" stroke="#FFFF00" stroke-width="0.12" stroke-linejoin="bevel" stroke-miterlimit="1.414" x1="690.8" y1="295.41" x2="690.8" y2="16.411"/>
	
		<line clip-path="url(#SVGID_2_)" fill="none" stroke="#FFFF00" stroke-width="0.12" stroke-linejoin="bevel" stroke-miterlimit="1.414" x1="21.4" y1="295.41" x2="690.8" y2="295.41"/>
	
		<line clip-path="url(#SVGID_2_)" fill="none" stroke="#FFFF00" stroke-width="0.12" stroke-linejoin="bevel" stroke-miterlimit="1.414" x1="690.8" y1="16.411" x2="21.4" y2="16.411"/>
	
		<line clip-path="url(#SVGID_2_)" fill="none" stroke="#FFFF00" stroke-width="0.12" stroke-linejoin="bevel" stroke-miterlimit="1.414" x1="657.4" y1="33.21" x2="54.9" y2="33.21"/>
	
		<line clip-path="url(#SVGID_2_)" fill="none" stroke="#FFFF00" stroke-width="0.12" stroke-linejoin="bevel" stroke-miterlimit="1.414" x1="674.1" y1="261.91" x2="674.1" y2="49.911"/>
	
		<line clip-path="url(#SVGID_2_)" fill="none" stroke="#FFFF00" stroke-width="0.12" stroke-linejoin="bevel" stroke-miterlimit="1.414" x1="54.9" y1="278.61" x2="657.4" y2="278.61"/>
	
		<line clip-path="url(#SVGID_2_)" fill="none" stroke="#FFFF00" stroke-width="0.12" stroke-linejoin="bevel" stroke-miterlimit="1.414" x1="38.1" y1="261.91" x2="38.1" y2="49.911"/>
	
		<path clip-path="url(#SVGID_2_)" fill="none" stroke="#FFFF00" stroke-width="0.12" stroke-linejoin="bevel" stroke-miterlimit="1.414" d="
		M38.1,49.911c0-4.4,1.8-8.7,4.9-11.8c3.2-3.2,7.4-4.9,11.9-4.9"/>
	
		<path clip-path="url(#SVGID_2_)" fill="none" stroke="#FFFF00" stroke-width="0.12" stroke-linejoin="bevel" stroke-miterlimit="1.414" d="
		M21.4,49.911c0-8.9,3.5-17.4,9.8-23.7c6.3-6.2,14.8-9.8,23.7-9.8"/>
	
		<path clip-path="url(#SVGID_2_)" fill="none" stroke="#FFFF00" stroke-width="0.12" stroke-linejoin="bevel" stroke-miterlimit="1.414" d="
		M657.4,33.21c4.4,0,8.7,1.7,11.8,4.9c3.101,3.1,4.9,7.4,4.9,11.8"/>
	
		<path clip-path="url(#SVGID_2_)" fill="none" stroke="#FFFF00" stroke-width="0.12" stroke-linejoin="bevel" stroke-miterlimit="1.414" d="
		M657.4,16.411c8.8,0,17.4,3.6,23.601,9.8c6.3,6.3,9.8,14.8,9.8,23.7"/>
	
		<path clip-path="url(#SVGID_2_)" fill="none" stroke="#FFFF00" stroke-width="0.12" stroke-linejoin="bevel" stroke-miterlimit="1.414" d="
		M674.1,261.91c0,4.4-1.8,8.7-4.9,11.801c-3.1,3.199-7.399,4.899-11.8,4.899"/>
	
		<path clip-path="url(#SVGID_2_)" fill="none" stroke="#FFFF00" stroke-width="0.12" stroke-linejoin="bevel" stroke-miterlimit="1.414" d="
		M690.8,261.91c0,8.9-3.5,17.4-9.801,23.7c-6.199,6.2-14.8,9.8-23.6,9.8"/>
	
		<path clip-path="url(#SVGID_2_)" fill="none" stroke="#FFFF00" stroke-width="0.12" stroke-linejoin="bevel" stroke-miterlimit="1.414" d="
		M54.9,278.61c-4.5,0-8.7-1.7-11.9-4.899c-3.1-3.101-4.9-7.4-4.9-11.801"/>
	
		<path clip-path="url(#SVGID_2_)" fill="none" stroke="#FFFF00" stroke-width="0.12" stroke-linejoin="bevel" stroke-miterlimit="1.414" d="
		M54.9,295.41c-8.9,0-17.4-3.6-23.7-9.8c-6.3-6.3-9.8-14.8-9.8-23.7"/>
	<path clip-path="url(#SVGID_2_)" fill-rule="evenodd" clip-rule="evenodd" fill="#FFFF00" d="M21.4,16.411L21.4,16.411v33.5
		c0-2,0.2-4,0.6-6.1s0.9-4.2,1.8-6.2c1.6-4.2,4.1-8.1,7.4-11.4c3.3-3.3,7.2-5.8,11.4-7.4c2-0.8,4.1-1.4,6.2-1.8
		c2.1-0.4,4.1-0.6,6.1-0.6H21.4"/>
	<path clip-path="url(#SVGID_2_)" fill-rule="evenodd" clip-rule="evenodd" fill="#FFFF00" d="M657.4,16.411c1.9,0,4,0.2,6,0.6
		c2.101,0.4,4.2,1,6.3,1.8c4.101,1.6,8,4.1,11.301,7.4c3.3,3.3,5.8,7.2,7.5,11.3c0.8,2.1,1.399,4.2,1.8,6.3c0.399,2,0.5,4.1,0.5,6
		v-33.4H657.4"/>
	<path clip-path="url(#SVGID_2_)" fill-rule="evenodd" clip-rule="evenodd" fill="#FFFF00" d="M690.8,261.91c0,2-0.101,4-0.5,6.101
		c-0.4,2-1,4.1-1.801,6.2c-1.699,4.1-4.199,8-7.399,11.3c-3.3,3.3-7.2,5.8-11.4,7.5c-2,0.8-4.1,1.399-6.2,1.8
		c-2.1,0.4-4.1,0.6-6.1,0.6h33.4v-0.1V261.91"/>
	<path clip-path="url(#SVGID_2_)" fill-rule="evenodd" clip-rule="evenodd" fill="#FFFF00" d="M54.9,295.41c-2,0-4-0.199-6.1-0.6
		c-2.1-0.4-4.2-1-6.2-1.8c-4.2-1.601-8.1-4.101-11.4-7.4c-3.3-3.3-5.8-7.2-7.4-11.399c-0.9-2.101-1.4-4.101-1.8-6.2
		c-0.4-2.101-0.6-4.101-0.6-6.101v33.5H54.9"/>
	<path clip-path="url(#SVGID_2_)" fill-rule="evenodd" clip-rule="evenodd" fill="#FFFF00" d="M54.9,278.61h602.5
		c1.9,0,4-0.3,6.1-1.2c2.101-0.8,4-2,5.7-3.699c1.601-1.601,2.9-3.601,3.7-5.7c0.8-2,1.2-4.101,1.2-6.101v-212c0-2-0.4-4.1-1.2-6.2
		c-0.8-2-2.1-4-3.7-5.6c-1.7-1.7-3.6-2.9-5.7-3.8c-2.1-0.8-4.199-1.1-6.1-1.1H54.9c-2,0-4.1,0.3-6.2,1.1c-2.1,0.9-4,2.1-5.7,3.8
		c-1.6,1.6-2.9,3.6-3.7,5.6c-0.8,2.1-1.2,4.2-1.2,6.2v212c0,4.4,1.8,8.7,4.9,11.801C46.2,276.91,50.4,278.61,54.9,278.61"/>
	<path clip-path="url(#SVGID_2_)" fill-rule="evenodd" clip-rule="evenodd" fill="#FF0000" d="M38.1,261.91v-212
		c0-2,0.4-4.1,1.2-6.2c0.8-2,2.1-4,3.7-5.6c1.7-1.7,3.6-2.9,5.7-3.8c2.1-0.8,4.2-1.1,6.2-1.1h602.5c1.9,0,4,0.3,6.1,1.1
		c2.101,0.9,4,2.1,5.7,3.8c1.601,1.6,2.9,3.6,3.7,5.6c0.8,2.1,1.2,4.2,1.2,6.2v212c0,2-0.4,4.101-1.2,6.101
		c-0.8,2.1-2.1,4.1-3.7,5.7c-1.7,1.699-3.6,2.899-5.7,3.699c-2.1,0.9-4.199,1.2-6.1,1.2H54.9c-2,0-4.1-0.3-6.2-1.2
		c-2.1-0.8-4-2-5.7-3.699c-1.6-1.601-2.9-3.601-3.7-5.7C38.5,266.011,38.1,263.91,38.1,261.91 M54.9,295.41h602.5
		c1.9,0,4-0.199,6.1-0.6c2-0.4,4.101-1,6.2-1.8c4.101-1.601,8-4.101,11.3-7.4c3.301-3.3,5.801-7.2,7.5-11.399
		c0.801-2.101,1.4-4.101,1.801-6.2c0.399-2.101,0.5-4.101,0.5-6.101v-212c0-2-0.101-4-0.5-6.1c-0.4-2.1-1-4.2-1.801-6.2
		c-1.699-4.2-4.199-8.1-7.5-11.4c-3.3-3.3-7.199-5.8-11.3-7.4c-2.1-0.8-4.2-1.4-6.2-1.8c-2.1-0.4-4.199-0.6-6.1-0.6H54.9
		c-2,0-4,0.2-6.1,0.6c-2.1,0.4-4.2,1-6.2,1.8c-4.2,1.6-8.1,4.1-11.4,7.4c-3.3,3.3-5.8,7.2-7.4,11.4c-0.9,2-1.4,4.1-1.8,6.2
		s-0.6,4.1-0.6,6.1v212c0,2,0.2,4,0.6,6.101c0.4,2.1,0.9,4.1,1.8,6.2c1.6,4.199,4.1,8.1,7.4,11.399c3.3,3.3,7.2,5.8,11.4,7.4
		c2,0.8,4.1,1.399,6.2,1.8C50.9,295.211,52.9,295.41,54.9,295.41"/>
	
		<line clip-path="url(#SVGID_2_)" fill="none" stroke="#FFFF00" stroke-width="0.12" stroke-linejoin="bevel" stroke-miterlimit="1.414" x1="54.9" y1="295.41" x2="657.4" y2="295.41"/>
	
		<path clip-path="url(#SVGID_2_)" fill="none" stroke="#FFFF00" stroke-width="0.12" stroke-linejoin="bevel" stroke-miterlimit="1.414" d="
		M657.4,295.41c8.8,0,17.4-3.6,23.601-9.8c6.3-6.3,9.8-14.8,9.8-23.7"/>
	
		<line clip-path="url(#SVGID_2_)" fill="none" stroke="#FFFF00" stroke-width="0.12" stroke-linejoin="bevel" stroke-miterlimit="1.414" x1="690.8" y1="261.91" x2="690.8" y2="49.911"/>
	
		<path clip-path="url(#SVGID_2_)" fill="none" stroke="#FFFF00" stroke-width="0.12" stroke-linejoin="bevel" stroke-miterlimit="1.414" d="
		M690.8,49.911c0-8.9-3.5-17.4-9.801-23.7c-6.199-6.2-14.8-9.8-23.6-9.8"/>
	
		<line clip-path="url(#SVGID_2_)" fill="none" stroke="#FFFF00" stroke-width="0.12" stroke-linejoin="bevel" stroke-miterlimit="1.414" x1="657.4" y1="16.411" x2="54.9" y2="16.411"/>
	
		<path clip-path="url(#SVGID_2_)" fill="none" stroke="#FFFF00" stroke-width="0.12" stroke-linejoin="bevel" stroke-miterlimit="1.414" d="
		M54.9,16.411c-8.9,0-17.4,3.6-23.7,9.8c-6.3,6.3-9.8,14.8-9.8,23.7"/>
	
		<polyline clip-path="url(#SVGID_2_)" fill="none" stroke="#FFFF00" stroke-width="0.12" stroke-linejoin="bevel" stroke-miterlimit="1.414" points="
		21.4,49.911 21.4,49.911 21.4,261.91 	"/>
	
		<path clip-path="url(#SVGID_2_)" fill="none" stroke="#FFFF00" stroke-width="0.12" stroke-linejoin="bevel" stroke-miterlimit="1.414" d="
		M21.4,261.91c0,8.9,3.5,17.4,9.8,23.7c6.3,6.2,14.8,9.8,23.7,9.8"/>
	
		<line clip-path="url(#SVGID_2_)" fill="none" stroke="#FFFF00" stroke-width="0.12" stroke-linejoin="bevel" stroke-miterlimit="1.414" x1="38.1" y1="261.91" x2="38.1" y2="49.911"/>
	
		<path clip-path="url(#SVGID_2_)" fill="none" stroke="#FFFF00" stroke-width="0.12" stroke-linejoin="bevel" stroke-miterlimit="1.414" d="
		M38.1,49.911c0-4.4,1.8-8.7,4.9-11.8c3.2-3.2,7.4-4.9,11.9-4.9"/>
	
		<line clip-path="url(#SVGID_2_)" fill="none" stroke="#FFFF00" stroke-width="0.12" stroke-linejoin="bevel" stroke-miterlimit="1.414" x1="54.9" y1="33.21" x2="657.4" y2="33.21"/>
	
		<path clip-path="url(#SVGID_2_)" fill="none" stroke="#FFFF00" stroke-width="0.12" stroke-linejoin="bevel" stroke-miterlimit="1.414" d="
		M657.4,33.21c4.4,0,8.7,1.7,11.8,4.9c3.101,3.1,4.9,7.4,4.9,11.8"/>
	
		<line clip-path="url(#SVGID_2_)" fill="none" stroke="#FFFF00" stroke-width="0.12" stroke-linejoin="bevel" stroke-miterlimit="1.414" x1="674.1" y1="49.911" x2="674.1" y2="261.91"/>
	
		<path clip-path="url(#SVGID_2_)" fill="none" stroke="#FFFF00" stroke-width="0.12" stroke-linejoin="bevel" stroke-miterlimit="1.414" d="
		M674.1,261.91c0,4.4-1.8,8.7-4.9,11.801c-3.1,3.199-7.399,4.899-11.8,4.899"/>
	
		<line clip-path="url(#SVGID_2_)" fill="none" stroke="#FFFF00" stroke-width="0.12" stroke-linejoin="bevel" stroke-miterlimit="1.414" x1="657.4" y1="278.61" x2="54.9" y2="278.61"/>
	
		<path clip-path="url(#SVGID_2_)" fill="none" stroke="#FFFF00" stroke-width="0.12" stroke-linejoin="bevel" stroke-miterlimit="1.414" d="
		M54.9,278.61c-4.5,0-8.7-1.7-11.9-4.899c-3.1-3.101-4.9-7.4-4.9-11.801"/>
</g>
</svg>
